<svg version="1" xmlns="http://www.w3.org/2000/svg" width="1365.333" height="1365.333" viewBox="0 0 1024.000000 1024.000000"><path d="M574.5 88c-8.7 2.5-22.3 9.8-27.3 14.7-.7.7-1.6 1.3-2 1.3-.4 0-2 1.2-3.7 2.8-1.6 1.5-7.3 6.3-12.5 10.6s-10.7 8.9-12.2 10.2c-4.7 4.1-20.1 14-25.8 16.6-11.9 5.5-22.4 7.7-37 7.9-9.3.2-32.6-.9-38.5-1.7-4.1-.6-27.5-.6-30-.1-1.1.3-4 .8-6.5 1.2-14.9 2.5-20.9 11.4-25.5 38-2.6 15.4-2.6 68.4 0 82.3.1.9.6 4.4.9 7.7.7 6.4 1.5 12.4 2.1 16.5.2 1.4.9 6.3 1.5 11s1.3 9.9 1.6 11.6c.5 3.3 0 3.5-26.6 15.7-7.1 3.3-12.8 6-33 15.4-4.7 2.2-11.4 5.4-15 7.1-3.6 1.6-11.8 5.5-18.4 8.6-6.5 3.1-12.2 5.6-12.7 5.6s-3.3 2.4-6.3 5.4c-16.8 16.8-8.2 45.2 14.9 49.3 8.8 1.6 12 .8 32-8.7 6.1-2.9 13.8-6.5 17.3-8.1 12.2-5.7 18.8-8.7 27.5-12.8 27.1-12.7 34.4-16.1 35-16.1.2 0 .9 1.9 1.6 4.2 3.5 12 15.7 38.4 23.4 50.8 12.2 19.6 27.8 36.7 42.7 46.7 15.7 10.6 30.5 15.4 48.5 15.8 12.9.3 23.5-1.6 40-7.1 73.8-24.7 114.5-70.7 126.4-142.9 3.7-23 4.4-33.3 4.5-70.9.1-26.3.3-31 1.6-31.7.8-.5 5.8-2.9 11-5.3s12.4-5.7 16-7.4c3.6-1.6 9.9-4.6 14-6.5 4.1-1.9 11.4-5.3 16.3-7.6 19-8.9 26.4-12.4 31.7-14.8 21.4-9.8 25.5-12.8 29.7-22 8.6-18.7-4.5-40-25-40.8-6.3-.2-10.5.8-18.7 4.7-2.5 1.1-8.3 3.9-13 6.1-4.7 2.2-13.6 6.4-19.9 9.3-6.2 3-11.5 5.4-11.6 5.4-.3 0-15.7 7.2-28.3 13.2-2.4 1.1-4.5 1.8-4.8 1.5-.3-.3-1.2-3.6-2-7.3-1.4-6.9-6.6-24.2-8.4-27.9-.5-1.1-2.5-5.6-4.5-9.9-7.5-16.7-21.3-34.1-32.5-41.1-12.1-7.6-26-10-38.5-6.5zm46.9 195.2c-.1 10.6-.5 22.9-.8 27.3-4.7 65.4-29.8 107.2-80 132.9-25.4 13.1-43.4 17.3-57.7 13.6-20.6-5.4-41.4-26.9-55.1-57-1.6-3.6-3.6-7.9-4.3-9.5-3.6-7.8-10.9-28.5-10.3-29 .2-.2 2.6-1.3 5.3-2.5 2.8-1.3 8.8-4.1 13.5-6.2 4.7-2.2 11.2-5.3 14.5-6.8 3.3-1.5 10.3-4.8 15.5-7.2 10.4-4.9 17.3-8.1 29.5-13.8 17.7-8.3 24.4-11.4 33-15.5 11.2-5.3 20.1-9.4 28.5-13.3 3.6-1.6 10.6-4.9 15.5-7.2 5-2.3 11.7-5.5 15-7 15.5-7.2 36-16.8 38.1-17.9.1-.1 0 8.6-.2 19.1zM503 518.4c-2.5.7-6.3 2.4-8.5 3.8s-40.3 39-84.6 83.5c-89.8 89.9-84.5 83.8-84.3 97.9 0 11.1 5.5 19.8 15.9 25.2 4.2 2.2 6.3 2.6 13 2.6 6.9.1 8.7-.3 13.1-2.7 3.6-2 25.2-23 75.8-73.6l70.8-70.9 71.3 71.3c55.4 55.4 72.3 71.7 76.1 73.6 6.6 3.1 17.8 3.3 24.4.2 10.5-4.8 17-14.9 17-26.5 0-13.2 4-8.6-85-97.6-44.2-44.2-82.1-81.6-84.4-83.1-2.3-1.5-5.4-3.1-7.1-3.6-5-1.3-18.7-1.3-23.5-.1z"/><path d="M508 654.1c-9.8 1.5-16.2 6.5-19.3 15-.9 2.4-5.9 17.9-11.2 34.4-9.9 30.7-14 43.6-18.1 56-1.2 3.8-4.3 13.3-6.7 21-2.5 7.7-6.9 21.2-9.7 30-2.8 8.8-8.8 27.2-13.2 41-4.4 13.7-8.2 25.2-8.4 25.4-.2.2-6.6-1.5-14.1-3.7-50.7-15.2-53.2-15.8-59.4-13.4-1.5.6-2.9.9-3.1.7-.2-.2-2.6 1.3-5.3 3.3-12.6 9.5-14.4 27.6-3.9 38.7 5.2 5.6 5.3 5.6 47.4 18.1 4.7 1.4 9.9 3 11.5 3.5 2.8.9 23.7 7 35.1 10.2 6.6 1.9 14.8 1.6 19.9-.8 5.7-2.8 11.7-9.4 13.7-15.1 1.4-4.2 9.5-29.1 26.3-81.4 2.4-7.4 8.9-27.6 14.5-44.9l10.2-31.5 1.8 5.5c1 3 5.3 16.2 9.5 29.4s9 27.8 10.5 32.5c1.5 4.7 4.7 14.6 7 22s4.6 14.4 5 15.5c.5 1.1 4.5 13.5 9 27.5 9.7 30.7 9 28.9 13.6 34 4.7 5.2 9.9 7.9 16.8 8.6 5.6.6 8.6-.1 46.6-11.6 5.2-1.6 16.5-4.9 25-7.4 8.5-2.6 17.8-5.3 20.7-6.2 13.4-4 21.5-15.8 19.8-28.8-1.7-12.7-12.6-22.6-25-22.6-5 0-9.7 1.2-38 9.7-2.7.8-7.9 2.3-11.5 3.3-3.6 1-8.7 2.6-11.5 3.4-5.5 1.7-7.6 2-7.3.8.1-.4-1-4.5-2.6-9.2-1.5-4.7-5-15.5-7.7-24-2.8-8.5-7.2-22.3-9.9-30.5-2.6-8.3-8.3-25.8-12.5-39-4.2-13.2-8.7-27.2-10-31-2.2-6.7-15.3-47.5-21.1-65.5-4.1-13-6.8-17.1-13.3-20.5-4-2-15.1-3.3-21.1-2.4z"/></svg>