<svg width="199" height="68" viewBox="0 0 199 68" fill="none" xmlns="http://www.w3.org/2000/svg">
<path d="M168.795 3.53247H193.67V64.4675H168.795V3.53247Z" fill="#9F290A"/>
<path fill-rule="evenodd" clip-rule="evenodd" d="M199 0H163.464V68H199V0ZM196.335 1.76623H166.129V66.2338H196.335V1.76623Z" fill="#9F290A"/>
<path fill-rule="evenodd" clip-rule="evenodd" d="M86.1741 3.53247H116.379L138.903 36.2078H161.687V48.5714H147.316L158.134 64.4675H140.366L129.549 48.5714H103.054V64.4675H86.1741V3.53247ZM121.135 36.2078L103.054 9.63749V36.2078H121.135Z" fill="#9F290A"/>
<path fill-rule="evenodd" clip-rule="evenodd" d="M116.684 34.4416H104.83V17.2384L116.684 34.4416ZM112.814 32.6753H106.607V23.1139L112.814 32.6753Z" fill="#9F290A"/>
<path fill-rule="evenodd" clip-rule="evenodd" d="M119.933 0H81.7321V68H106.607V52.1039H126.013L136.812 68H166.129L155.33 52.1039H165.241V32.6753H142.131L119.933 0ZM118.156 1.76623H84.3973V66.2338H104.83V50.3377H127.636L138.589 66.2338H162.576L151.623 50.3377H163.464V34.4416H140.67L118.156 1.76623Z" fill="#9F290A"/>
<path fill-rule="evenodd" clip-rule="evenodd" d="M4.44196 3.53247H34.6473L57.1707 36.2078H79.9554V48.5714H65.5843L76.4018 64.4675H58.6339L47.8164 48.5714H21.3214V64.4675H4.44196V3.53247ZM39.4028 36.2078L21.3214 9.63749V36.2078H39.4028Z" fill="#9F290A"/>
<path fill-rule="evenodd" clip-rule="evenodd" d="M34.9516 34.4416H23.0982V17.2384L34.9516 34.4416ZM31.0822 32.6753H24.875V23.1139L31.0822 32.6753Z" fill="#9F290A"/>
<path fill-rule="evenodd" clip-rule="evenodd" d="M38.2009 0H0V68H24.875V52.1039H44.2812L55.0804 68H84.3973L73.5982 52.1039H83.5089V32.6753H60.3992L38.2009 0ZM36.4241 1.76623H2.66518V66.2338H23.0982V50.3377H45.9044L56.8571 66.2338H80.8437L69.891 50.3377H81.7321V34.4416H58.9382L36.4241 1.76623Z" fill="#9F290A"/>
</svg>
