<svg width="358" height="215" viewBox="0 0 358 215" fill="none" xmlns="http://www.w3.org/2000/svg">
<path fill-rule="evenodd" clip-rule="evenodd" d="M266.957 50.9469C251.267 51.817 238.633 54.4858 230.665 59.9263C222.288 65.9652 217.091 72.8613 216.021 80.8825C215.304 83.3513 215.151 106.681 215.159 120.295L178.575 139.5L141.514 121.007L142 84.9702C141.743 66.4002 146.868 48.48 158.527 31.3637C166.622 21.7694 174.241 10.1634 187.33 2.5441C190.096 0.391031 194.909 -0.458818 202.152 0.238682C208.841 0.875609 213.991 2.43581 218.125 4.62742C197.516 12.9901 181.088 25.0421 170.493 42.2355C164.146 53.1789 159.994 64.7464 159.177 77.2518L158.736 112.685L169.865 119.014L170.482 82.6666C171.804 65.5008 177.549 52.1657 186.631 42.0648C193.189 34.295 203.676 26.6574 216.04 20.6681C221.304 18.1626 227.793 17.4192 234.318 18.9555C240.693 20.5102 246.241 22.6963 251.054 25.4404C232.038 29.0803 214.931 36.2645 206.414 44.3647C196.198 54.5702 188.755 65.0676 187.609 76.2184C186.934 80.8788 186.846 104.265 186.739 118.527L198.461 112.905L198.417 81.268C199.683 71.5837 204.318 63.3037 211.108 55.9047C214.993 51.6793 226.565 44.5391 236.131 41.259C247.622 36.5986 259.23 42.9716 266.957 50.9506" fill="#49A85E"/>
<path fill-rule="evenodd" clip-rule="evenodd" d="M91 50.9469C106.685 51.817 119.326 54.4858 127.294 59.9263C135.669 65.9652 140.866 72.8613 141.938 80.8825C142.654 83.3513 142.321 107.393 142.314 121.007L179.375 139.5L215.957 120.295V84.9702C216.216 66.4002 211.082 48.48 199.43 31.3637C191.335 21.7694 183.709 10.1634 170.627 2.5441C167.864 0.391031 163.05 -0.458818 155.807 0.238682C149.118 0.875609 143.966 2.43581 139.832 4.62742C160.436 12.9901 176.87 25.0421 187.464 42.2337C193.813 53.1771 197.963 64.7446 198.782 77.25L199.259 112.903L187.539 118.525L187.475 82.6648C186.154 65.499 180.408 52.1639 171.326 42.063C164.77 34.2932 154.283 26.6556 141.917 20.6662C136.653 18.1608 130.159 17.4174 123.639 18.9537C117.265 20.5084 111.718 22.6945 106.905 25.4386C125.921 29.0785 143.028 36.2627 151.543 44.3629C161.76 54.5684 169.204 65.0658 170.35 76.2166C171.023 80.877 170.557 104.741 170.664 119.012L159.535 112.683V81.2661C158.276 71.5819 153.639 63.3018 146.851 55.9028C142.964 51.6775 131.393 44.5373 121.826 41.2572C110.337 36.5968 98.7294 42.9679 91 50.9469Z" fill="#263D93"/>
<path d="M11.991 172.09L17.535 161.384H23.924L20.422 181.238H16.349L18.941 166.539H18.83L12.304 178.859H8.789L6.666 166.539H6.498L3.906 181.239H0L3.502 161.385H10.058L11.88 172.09H11.991ZM28.721 161.384H32.989L29.487 181.238H25.219L28.721 161.384ZM40.628 166.794C40.473 168.777 40.287 170.306 39.683 173.734L38.359 181.238H34.286L37.788 161.384H42.893L45.504 169.201C46.146 171.099 46.816 173.308 47.192 175.291H47.304C47.57 172.515 48.054 169.768 48.424 167.672L49.533 161.385H53.579L50.077 181.238H45.083L42.265 172.855C41.628 170.929 41.164 168.975 40.739 166.794H40.628ZM58.376 161.384H62.644L59.143 181.238H54.874L58.376 161.384ZM73.133 175.942C73.688 172.798 64.601 173.223 65.705 166.964C66.285 163.679 69.585 161.101 73.63 161.101C76.894 161.101 78.661 162.631 79.153 163.481L75.938 166.681C75.569 166.086 74.673 164.84 72.608 164.84C71.213 164.84 70.292 165.633 70.117 166.624C69.553 169.824 78.622 169.344 77.507 175.659C76.983 178.633 74.046 181.521 69.08 181.521C65.314 181.521 63.27 179.822 62.735 179.057L65.792 175.489C66.479 176.339 67.911 177.868 70.283 177.868C71.984 177.868 72.948 176.99 73.133 175.942ZM84.695 164.953H79.841L80.471 161.384H94.447L93.818 164.954H88.963L86.091 181.238H81.823L84.695 164.953ZM99.409 170.42H101.027C103.287 170.42 104.187 169.428 104.512 167.587C104.832 165.774 103.916 164.953 102.047 164.953H100.373L99.409 170.42ZM103.151 161.384C107.475 161.384 109.636 163.055 108.901 167.219C108.292 170.674 106.165 172.289 103.798 172.742L103.778 172.855C104.72 173.365 105.232 174.101 105.858 175.772L107.879 181.238H102.802L100.704 174.781C100.466 174.073 99.976 173.846 99.084 173.846H98.805L97.501 181.238H93.288L96.79 161.384H103.151ZM119.13 174.866L118.006 181.238H113.737L114.861 174.866L110.655 161.384H115.398L117.774 170.533H117.885L123.572 161.384H128.092L119.13 174.866ZM142.499 177.925C144.73 177.925 146.382 176.31 147.246 171.41C148.121 166.454 146.952 164.698 144.58 164.698C142.488 164.698 140.739 166.228 139.87 171.156C138.986 176.169 140.127 177.925 142.499 177.925ZM141.613 181.521C136.731 181.521 134.131 178.859 135.44 171.439C136.714 164.216 140.723 161.101 145.466 161.101C150.32 161.101 152.993 163.821 151.689 171.212C150.415 178.434 146.384 181.521 141.613 181.521ZM153.463 181.238L156.965 161.384H168.542L167.913 164.954H160.576L159.646 170.221H165.952L165.322 173.79H159.017L157.704 181.238H153.463ZM179.952 161.384H184.221L180.719 181.238H176.45L179.952 161.384ZM191.859 166.794C191.705 168.777 191.519 170.306 190.914 173.734L189.591 181.238H185.518L189.019 161.384H194.125L196.736 169.201C197.378 171.099 198.048 173.308 198.424 175.291H198.535C198.801 172.515 199.286 169.768 199.655 167.672L200.765 161.385H204.81L201.309 181.238H196.315L193.497 172.855C192.86 170.929 192.395 168.975 191.971 166.794H191.859ZM207.348 161.384H212.09L213.205 172.147C213.382 173.987 213.575 175.744 213.631 177.641H213.743C214.441 175.775 215.203 173.933 216.028 172.119L220.935 161.384H225.426L215.647 181.238H210.124L207.348 161.384ZM224.406 181.238L227.908 161.384H239.486L238.856 164.954H231.519L230.74 169.372H237.044L236.415 172.94H230.11L229.276 177.67H236.948L236.319 181.238H224.406ZM249.36 175.942C249.914 172.798 240.828 173.223 241.931 166.964C242.511 163.679 245.811 161.101 249.857 161.101C253.121 161.101 254.888 162.631 255.38 163.481L252.165 166.681C251.795 166.086 250.899 164.84 248.835 164.84C247.44 164.84 246.518 165.633 246.344 166.624C245.78 169.824 254.848 169.344 253.734 175.659C253.21 178.633 250.273 181.521 245.307 181.521C241.54 181.521 239.496 179.822 238.962 179.057L242.018 175.489C242.706 176.339 244.138 177.868 246.509 177.868C248.211 177.868 249.175 176.99 249.36 175.942ZM260.922 164.953H256.068L256.698 161.384H270.675L270.046 164.954H265.191L262.319 181.238H258.05L260.922 164.953ZM281.563 172.09L287.105 161.384H293.498L289.995 181.238H285.921L288.513 166.539H288.403C286.226 170.646 284.05 174.752 281.877 178.859H278.361L276.238 166.539H276.07L273.478 181.239H269.572L273.074 161.385H279.63L281.453 172.09H281.563ZM294.568 181.238L298.071 161.384H309.648L309.016 164.954H301.683L300.902 169.372H307.205L306.577 172.94H300.271L299.439 177.67H307.11L306.479 181.238H294.568ZM316.672 166.794C316.515 168.777 316.33 170.306 315.726 173.734L314.401 181.238H310.33L313.832 161.384H318.935L321.547 169.201C322.19 171.099 322.86 173.308 323.237 175.291H323.347C323.613 172.515 324.096 169.768 324.468 167.672L325.578 161.385H329.622L326.119 181.238H321.127L318.307 172.855C317.672 170.929 317.209 168.975 316.781 166.794H316.672ZM336.246 164.914H331.391L332.022 161.345H345.996L345.368 164.915H340.513L337.642 181.199H333.371L336.246 164.914ZM357.33 160.563L344.991 185.741H341.505L353.839 160.563H357.33Z" fill="#263D93"/>
<path d="M148.592 197.706H146.24L145.456 202.152H147.636C149.759 202.152 150.782 201.062 150.985 199.915C151.202 198.682 150.657 197.706 148.592 197.706ZM150.274 208.176C150.582 206.426 149.236 205.766 147.601 205.766H144.819L143.969 210.586H146.981C149.189 210.586 150.072 209.323 150.274 208.176ZM154.745 208.032C154.285 210.642 152.338 214.199 145.655 214.199H139L142.546 194.092H149.745C153.302 194.092 156.021 195.268 155.308 199.312C154.908 201.578 153.25 203.012 151.633 203.558L151.613 203.672C153.494 203.902 155.246 205.192 154.745 208.032ZM171.545 194.092H176.593L168.616 203.873L173.679 214.199H168.2L163.818 204.074L163.839 203.959L171.545 194.092ZM161.918 214.2H157.529L161.075 194.093H165.464L161.918 214.2ZM183.397 197.792L182.396 203.472H183.83C186.756 203.472 187.609 202.209 187.882 200.661C188.231 198.681 187.413 197.792 185.175 197.792H183.397ZM192.52 200.058C191.858 203.816 189.307 207.058 183.427 207.058H181.763L180.504 214.199H176.115L179.661 194.092H186.545C190.618 194.092 193.304 195.612 192.52 200.058ZM205.657 204.934L211.327 194.092H217.895L214.35 214.2H210.162L212.787 199.314H212.672L205.997 211.791H202.383L200.166 199.314H199.994L197.369 214.2H193.354L196.899 194.093H203.64L205.543 204.935H205.657V204.934Z" fill="#49A85E"/>
</svg>
