<svg width="549" height="77" viewBox="0 0 549 77" fill="none" xmlns="http://www.w3.org/2000/svg">
<path fill-rule="evenodd" clip-rule="evenodd" d="M96.8617 28.2564C88.314 28.7301 81.4307 30.1843 77.0896 33.1484C72.5261 36.4384 69.6949 40.195 69.1117 44.5655C68.7207 45.9103 68.6384 58.6203 68.6415 66.037L48.7113 76.5L28.5205 66.4248L28.7848 46.7917C28.6443 36.6748 31.4374 26.9116 37.789 17.5875C42.1987 12.3595 46.3504 6.03643 53.4811 1.88586C54.9879 0.712749 57.6093 0.2497 61.5555 0.630411C65.1997 0.976619 68.0066 1.82744 70.2577 3.02133C59.0302 7.57692 50.0805 14.1431 44.3086 23.5087C40.8499 29.4707 38.5887 35.7726 38.1426 42.5859L37.9024 61.8896L43.9655 65.3375L44.3024 45.5363C45.0228 36.1843 48.1521 28.9187 53.1003 23.4162C56.6727 19.1825 62.3857 15.0218 69.1219 11.7589C71.9904 10.3936 75.5252 9.9886 79.0804 10.8261C82.5528 11.6734 85.5758 12.8637 88.1975 14.3591C77.8379 16.3423 68.518 20.2564 63.8788 24.6681C58.3125 30.229 54.2569 35.9479 53.6325 42.0232C53.265 44.5619 53.2168 57.303 53.1587 65.0733L59.5447 62.0095L59.5208 44.7744C60.2103 39.4984 62.7359 34.9869 66.4351 30.9563C68.5525 28.6544 74.8561 24.7642 80.0683 22.9771C86.3272 20.4384 92.6516 23.9102 96.8617 28.2564" fill="#49A85E"/>
<path fill-rule="evenodd" clip-rule="evenodd" d="M0.564453 28.2564C9.10861 28.7301 15.9957 30.1843 20.3365 33.1484C24.9003 36.4384 27.7314 40.195 28.3148 44.5655C28.7058 45.9103 28.5239 59.0078 28.5204 66.4248L48.7112 76.5L68.6414 66.037V46.7917C68.7822 36.6748 65.9855 26.9116 59.6371 17.5875C55.2278 12.3595 51.0722 6.03643 43.9453 1.88586C42.4386 0.712749 39.8168 0.2497 35.8708 0.630411C32.2267 0.976619 29.4197 1.82744 27.1684 3.02133C38.3929 7.57692 47.346 14.1431 53.1174 23.5087C56.5765 29.4707 58.8375 35.7726 59.2838 42.5859L59.5446 62.0095L53.1586 65.0733L53.1241 45.5363C52.4036 36.1843 49.2744 28.9187 44.3258 23.4162C40.7537 19.1825 35.0405 15.0218 28.3043 11.7589C25.4357 10.3936 21.8976 9.9886 18.3462 10.8261C14.8735 11.6734 11.8506 12.8637 9.2289 14.3591C19.5881 16.3423 28.9084 20.2564 33.5476 24.6681C39.1137 30.229 43.1696 35.9479 43.794 42.0232C44.161 44.5619 43.9073 57.5637 43.9653 65.3375L37.9022 61.8896V44.7744C37.2159 39.4984 34.6904 34.9869 30.9911 30.9563C28.874 28.6544 22.5701 24.7642 17.358 22.9771C11.0991 20.4384 4.77463 23.9102 0.564453 28.2564" fill="#263D93"/>
<path d="M124.202 39.0902L129.746 28.3845H136.135L132.633 48.2383H128.56L131.152 33.5392H131.041C128.866 37.6458 126.69 41.7525 124.515 45.8591H121L118.877 33.5392H118.709L116.117 48.2383H112.211L115.713 28.3845H122.269L124.091 39.0902H124.202" fill="#263D93"/>
<path d="M140.932 28.3845H145.2L141.698 48.2383H137.43L140.932 28.3845" fill="#263D93"/>
<path d="M152.839 33.794C152.684 35.7768 152.498 37.3063 151.894 40.7331L150.57 48.2383H146.497L149.999 28.3845H155.104L157.715 36.2014C158.357 38.0991 159.027 40.3081 159.403 42.2908H159.515C159.781 39.5153 160.265 36.7679 160.635 34.6723L161.744 28.3845H165.79L162.288 48.2383H157.294L154.476 39.8552C153.839 37.9293 153.375 35.9752 152.95 33.794H152.839Z" fill="#263D93"/>
<path d="M170.587 28.3845H174.855L171.354 48.2383H167.085L170.587 28.3845Z" fill="#263D93"/>
<path d="M185.344 42.9424C185.899 39.7983 176.812 40.223 177.916 33.9642C178.496 30.6789 181.796 28.1014 185.841 28.1014C189.105 28.1014 190.872 29.6309 191.364 30.4801L188.149 33.6811C187.78 33.0859 186.884 31.8399 184.819 31.8399C183.424 31.8399 182.503 32.6331 182.328 33.6242C181.764 36.8244 190.833 36.3433 189.718 42.6586C189.194 45.6325 186.257 48.5214 181.291 48.5214C177.525 48.5214 175.481 46.8225 174.946 46.0575L178.003 42.4888C178.69 43.3388 180.122 44.868 182.494 44.868C184.195 44.868 185.159 43.9905 185.344 42.9424" fill="#263D93"/>
<path d="M196.906 31.9532H192.052L192.682 28.3845H206.658L206.029 31.9532H201.174L198.302 48.2383H194.034L196.906 31.9532Z" fill="#263D93"/>
<path d="M211.62 37.4192H213.238C215.498 37.4192 216.398 36.4276 216.723 34.5868C217.043 32.7742 216.127 31.9532 214.258 31.9532H212.584L211.62 37.4192ZM215.362 28.3845C219.686 28.3845 221.847 30.0555 221.112 34.219C220.503 37.674 218.376 39.2886 216.009 39.7415L215.989 39.8552C216.931 40.3653 217.443 41.1008 218.069 42.7723L220.09 48.2383H215.013L212.915 41.7811C212.677 41.0726 212.187 40.846 211.295 40.846H211.016L209.712 48.2383H205.499L209.001 28.3845H215.362" fill="#263D93"/>
<path d="M231.341 41.8658L230.217 48.2383H225.948L227.072 41.8658L222.866 28.3845H227.609L229.985 37.5329H230.096L235.783 28.3845H240.303L231.341 41.8658Z" fill="#263D93"/>
<path d="M254.71 44.9248C256.941 44.9248 258.593 43.3102 259.457 38.4104C260.332 33.4541 259.163 31.6983 256.791 31.6983C254.699 31.6983 252.95 33.2275 252.081 38.1559C251.197 43.1687 252.338 44.9248 254.71 44.9248V44.9248ZM253.824 48.5214C248.942 48.5214 246.342 45.8591 247.651 38.4386C248.925 31.2165 252.934 28.1014 257.677 28.1014C262.531 28.1014 265.204 30.8201 263.9 38.212C262.626 45.4341 258.595 48.5214 253.824 48.5214" fill="#263D93"/>
<path d="M265.674 48.2383L269.176 28.3845H280.753L280.124 31.9532H272.787L271.857 37.2208H278.163L277.533 40.7895H271.228L269.915 48.2383H265.674Z" fill="#263D93"/>
<path d="M292.163 28.3845H296.432L292.93 48.2383H288.661L292.163 28.3845Z" fill="#263D93"/>
<path d="M304.07 33.794C303.916 35.7768 303.73 37.3063 303.125 40.7331L301.802 48.2383H297.729L301.23 28.3845H306.336L308.947 36.2014C309.589 38.0991 310.259 40.3081 310.635 42.2908H310.746C311.012 39.5153 311.497 36.7679 311.866 34.6723L312.976 28.3845H317.021L313.52 48.2383H308.526L305.708 39.8552C305.071 37.9293 304.606 35.9752 304.182 33.794H304.07" fill="#263D93"/>
<path d="M319.559 28.3845H324.301L325.416 39.1471C325.593 40.9879 325.786 42.744 325.842 44.6409H325.954C326.641 42.8005 327.369 41.0444 328.239 39.1189L333.146 28.3845H337.637L327.858 48.2383H322.335L319.559 28.3845Z" fill="#263D93"/>
<path d="M336.617 48.2383L340.119 28.3845H351.697L351.067 31.9532H343.73L342.951 36.3716H349.255L348.626 39.9403H342.321L341.487 44.6696H349.159L348.53 48.2383H336.617" fill="#263D93"/>
<path d="M361.571 42.9424C362.125 39.7983 353.039 40.223 354.142 33.9642C354.722 30.6789 358.022 28.1014 362.068 28.1014C365.332 28.1014 367.099 29.6309 367.591 30.4801L364.376 33.6811C364.006 33.0859 363.11 31.8399 361.046 31.8399C359.651 31.8399 358.729 32.6331 358.555 33.6242C357.991 36.8244 367.059 36.3433 365.945 42.6586C365.421 45.6325 362.484 48.5214 357.518 48.5214C353.751 48.5214 351.707 46.8225 351.173 46.0575L354.229 42.4888C354.917 43.3388 356.349 44.868 358.72 44.868C360.422 44.868 361.386 43.9905 361.571 42.9424" fill="#263D93"/>
<path d="M373.133 31.9532H368.279L368.909 28.3845H382.886L382.257 31.9532H377.402L374.53 48.2383H370.261L373.133 31.9532" fill="#263D93"/>
<path d="M393.774 39.0902L399.316 28.3845H405.709L402.206 48.2383H398.132L400.724 33.5392H400.614C398.437 37.6458 396.261 41.7525 394.088 45.8591H390.572L388.449 33.5392H388.281L385.689 48.2383H381.783L385.285 28.3845H391.841L393.664 39.0902H393.774" fill="#263D93"/>
<path d="M406.779 48.2383L410.282 28.3845H421.859L421.227 31.9532H413.894L413.113 36.3716H419.416L418.788 39.9403H412.482L411.65 44.6696H419.321L418.69 48.2383H406.779Z" fill="#263D93"/>
<path d="M428.883 33.794C428.726 35.7768 428.541 37.3063 427.937 40.7331L426.612 48.2383H422.541L426.043 28.3845H431.146L433.758 36.2014C434.401 38.0991 435.071 40.3081 435.448 42.2908H435.558C435.824 39.5153 436.307 36.7679 436.679 34.6723L437.789 28.3845H441.833L438.33 48.2383H433.338L430.518 39.8552C429.883 37.9293 429.42 35.9752 428.992 33.794H428.883" fill="#263D93"/>
<path d="M448.457 31.9142H443.602L444.233 28.3455H458.207L457.579 31.9142H452.724L449.853 48.1993H445.582L448.457 31.9142Z" fill="#263D93"/>
<path d="M469.541 27.563L457.202 52.7413H453.716L466.05 27.563H469.541Z" fill="#263D93"/>
<path d="M479.133 31.7062H476.781L475.997 36.1521H478.177C480.3 36.1521 481.323 35.0623 481.526 33.9148C481.743 32.6818 481.198 31.7062 479.133 31.7062ZM480.815 42.1753C481.123 40.4258 479.777 39.7662 478.142 39.7662H475.36L474.51 44.5851H477.522C479.73 44.5851 480.613 43.3231 480.815 42.1753ZM485.286 42.0321C484.826 44.6423 482.879 48.1992 476.196 48.1992H469.541L473.087 28.0921H480.286C483.843 28.0921 486.562 29.2681 485.849 33.3125C485.449 35.5784 483.791 37.0125 482.174 37.5576L482.154 37.6725C484.035 37.9019 485.787 39.1925 485.286 42.0321" fill="#49A85E"/>
<path d="M502.086 28.0922H507.134L499.157 37.873L504.22 48.1993H498.741L494.359 38.0738L494.38 37.9589L502.086 28.0922ZM492.459 48.1993H488.07L491.616 28.0922H496.005L492.459 48.1993Z" fill="#49A85E"/>
<path d="M513.938 31.792L512.937 37.4713H514.371C517.297 37.4713 518.15 36.2093 518.423 34.6606C518.772 32.6817 517.954 31.792 515.716 31.792H513.938ZM523.061 34.0583C522.399 37.8159 519.848 41.0571 513.968 41.0571H512.304L511.045 48.1991H506.656L510.202 28.0923H517.086C521.159 28.0923 523.845 29.612 523.061 34.0583" fill="#49A85E"/>
<path d="M536.198 38.9341L541.868 28.0921H548.436L544.891 48.1992H540.703L543.328 33.3125H543.213C540.989 37.4713 538.763 41.6306 536.538 45.7898H532.924L530.707 33.3125H530.535L527.91 48.1992H523.895L527.44 28.0921H534.181L536.084 38.9341H536.198Z" fill="#49A85E"/>
</svg>
