<svg width="411" height="55" viewBox="0 0 411 55" fill="none" xmlns="http://www.w3.org/2000/svg">
<path d="M44.0457 54.3914V18.9419L30.2006 45.3389H24.343L10.4979 18.9419V54.3914H0V0.380359H11.2586L27.2338 31.1134L43.361 0.380359H54.5436V54.3914H44.0457Z" fill="black"/>
<path d="M113.061 54.7718C108.75 54.7718 105.073 54.0618 102.03 52.6418C99.0381 51.171 96.6038 49.1678 94.7274 46.6321C92.9017 44.0964 91.5577 41.231 90.6956 38.036C89.8334 34.7902 89.4023 31.4177 89.4023 27.9184V0.380359H99.9003V27.9184C99.9003 30.9106 100.306 33.7506 101.117 36.4384C101.929 39.1263 103.298 41.3071 105.225 42.9806C107.152 44.6542 109.739 45.491 112.985 45.491C116.332 45.491 118.969 44.6542 120.896 42.9806C122.823 41.2563 124.193 39.0503 125.004 36.3624C125.815 33.6745 126.221 30.8598 126.221 27.9184V0.380359H136.643V27.9184C136.643 31.6206 136.187 35.0945 135.274 38.3402C134.412 41.586 133.017 44.4514 131.09 46.9364C129.213 49.3707 126.779 51.2978 123.787 52.7178C120.795 54.0871 117.219 54.7718 113.061 54.7718Z" fill="black"/>
<path d="M203.738 14.5297C203.282 14.0226 202.318 13.3633 200.848 12.5519C199.377 11.6897 197.602 10.929 195.523 10.2697C193.494 9.55971 191.389 9.2047 189.209 9.2047C183.478 9.2047 180.613 11.2333 180.613 15.2905C180.613 16.7612 181.069 17.9276 181.982 18.7898C182.895 19.6519 184.264 20.3873 186.09 20.9958C187.915 21.6044 190.198 22.2637 192.936 22.9737C196.486 23.8866 199.554 24.9516 202.141 26.1687C204.778 27.3859 206.781 29.0088 208.151 31.0373C209.571 33.0152 210.281 35.6524 210.281 38.9488C210.281 42.8031 209.342 45.9221 207.466 48.3057C205.64 50.6385 203.206 52.3375 200.163 53.4025C197.12 54.4675 193.824 55 190.274 55C186.217 55 182.185 54.3914 178.178 53.1743C174.223 51.9064 170.698 50.1821 167.604 48.0014L172.245 38.9488C172.701 39.4053 173.513 40.0138 174.679 40.7746C175.845 41.4846 177.265 42.2199 178.939 42.9806C180.613 43.6906 182.438 44.2992 184.416 44.8064C186.394 45.3135 188.397 45.5671 190.426 45.5671C196.207 45.5671 199.098 43.716 199.098 40.0138C199.098 38.4417 198.515 37.1738 197.348 36.2102C196.182 35.2467 194.534 34.4352 192.404 33.7759C190.324 33.1166 187.89 32.3813 185.101 31.5698C181.652 30.6063 178.787 29.5413 176.505 28.3748C174.273 27.1577 172.6 25.6616 171.484 23.8866C170.368 22.0609 169.81 19.7533 169.81 16.964C169.81 13.2619 170.673 10.1683 172.397 7.68326C174.172 5.14753 176.555 3.24574 179.548 1.97787C182.54 0.659291 185.862 0 189.513 0C193.266 0 196.765 0.608576 200.011 1.82573C203.257 3.04288 206.046 4.43753 208.379 6.00968L203.738 14.5297Z" fill="black"/>
<path d="M242.557 54.3914V0.380359H253.054V54.3914H242.557Z" fill="black"/>
<path d="M288.666 54.3914V0.456429H299.164V26.0927L321.834 0.380359H333.396L312.705 24.343L334.69 54.3914H322.823L306.011 31.1134L299.164 38.2642V54.3914H288.666Z" fill="black"/>
<path d="M386.795 54.7718C382.484 54.7718 378.807 54.0618 375.764 52.6418C372.772 51.171 370.338 49.1678 368.462 46.6321C366.636 44.0964 365.292 41.231 364.43 38.036C363.568 34.7902 363.136 31.4177 363.136 27.9184V0.380359H373.634V27.9184C373.634 30.9106 374.04 33.7506 374.852 36.4384C375.663 39.1263 377.032 41.3071 378.959 42.9806C380.887 44.6542 383.473 45.491 386.719 45.491C390.066 45.491 392.703 44.6542 394.63 42.9806C396.557 41.2563 397.927 39.0503 398.738 36.3624C399.55 33.6745 399.955 30.8598 399.955 27.9184V0.380359H410.377V27.9184C410.377 31.6206 409.921 35.0945 409.008 38.3402C408.146 41.586 406.751 44.4514 404.824 46.9364C402.947 49.3707 400.513 51.2978 397.521 52.7178C394.529 54.0871 390.953 54.7718 386.795 54.7718Z" fill="black"/>
</svg>
