<svg width="489" height="55" viewBox="0 0 489 55" fill="none" xmlns="http://www.w3.org/2000/svg">
<path fill-rule="evenodd" clip-rule="evenodd" d="M443 24.5C443 17.0442 449.044 11 456.5 11C460.205 11 463.561 12.4922 466 14.9083C468.439 12.4922 471.795 11 475.5 11C482.956 11 489 17.0442 489 24.5V41C489 43.2091 487.209 45 485 45C482.791 45 481 43.2091 481 41V24.5C481 21.4624 478.538 19 475.5 19C472.462 19 470 21.4624 470 24.5V41C470 43.2091 468.209 45 466 45C463.791 45 462 43.2091 462 41V24.5C462 21.4624 459.538 19 456.5 19C453.462 19 451 21.4624 451 24.5V41C451 43.2091 449.209 45 447 45C444.791 45 443 43.2091 443 41V24.5Z" fill="black"/>
<path d="M440.818 31.0357C440.938 30.2078 441 29.3612 441 28.5C441 18.835 433.165 11 423.5 11C413.835 11 406 18.835 406 28.5C406 38.165 413.835 46 423.5 46C425.141 46 426.729 45.7742 428.235 45.3519L418.202 35.3186L420.445 33.2714L419.285 32.0001L416.983 34.1004L410.666 27.7835L413.696 24.7534C414.577 25.5294 415.734 26.0001 417 26.0001C419.761 26.0001 422 23.7615 422 21.0001C422 19.7338 421.529 18.5775 420.753 17.6966L424.116 14.334L430.976 21.1943L428.5 23.4539L429.66 24.7252L432.195 22.4125L440.818 31.0357Z" fill="black"/>
<path d="M421.883 29.5693L425.668 26.1155L426.828 27.3869L423.043 30.8407L421.883 29.5693Z" fill="black"/>
<path fill-rule="evenodd" clip-rule="evenodd" d="M392 19C387.029 19 383 23.0294 383 28C383 32.9706 387.029 37 392 37C393.99 37 395.818 36.3591 397.305 35.2714C397.793 34.9147 398.244 34.51 398.65 34.0641C400.14 32.4323 402.67 32.3167 404.301 33.8058C405.933 35.295 406.049 37.825 404.56 39.4568C403.795 40.2952 402.946 41.0568 402.028 41.7286C399.216 43.7849 395.744 45 392 45C382.611 45 375 37.3888 375 28C375 18.6112 382.611 11 392 11C397.047 11 401.584 13.2044 404.692 16.69C406.162 18.3389 406.017 20.8674 404.368 22.3376C402.719 23.8077 400.191 23.6628 398.721 22.0139C397.067 20.1587 394.671 19 392 19Z" fill="black"/>
<path fill-rule="evenodd" clip-rule="evenodd" d="M362.5 41C362.5 38.7909 364.291 37 366.5 37H367.5C369.709 37 371.5 38.7909 371.5 41V42C371.5 44.2091 369.709 46 367.5 46H366.5C364.291 46 362.5 44.2091 362.5 42V41Z" fill="black"/>
<path d="M331 28C331 23.0294 335.029 19 340 19C344.971 19 349 23.0294 349 28C349 28.5 349 29.5 349 30V41C349 41 349.019 41.7203 349.212 42.2893C349.749 43.8659 351.242 45 353 45C355.209 45 357 43.2091 357 41V29C357 28.8901 356.996 28.7813 356.987 28.6737C356.996 28.4502 357 28.2256 357 28C357 18.6112 349.389 11 340 11C330.611 11 323 18.6112 323 28C323 37.3888 330.611 45 340 45C342.11 45 344.133 44.6143 346 43.9097V34.7086C345.778 34.9071 345.546 35.095 345.305 35.2714C343.818 36.3591 341.99 37 340 37C335.029 37 331 32.9706 331 28Z" fill="black"/>
<path fill-rule="evenodd" clip-rule="evenodd" d="M310.5 4C310.5 1.79086 312.291 0 314.5 0H315.5C317.709 0 319.5 1.79086 319.5 4V5C319.5 7.20914 317.709 9 315.5 9H314.5C312.291 9 310.5 7.20914 310.5 5V4Z" fill="black"/>
<path fill-rule="evenodd" clip-rule="evenodd" d="M315 11C317.209 11 319 12.7909 319 15V41C319 48.732 312.732 55 305 55H304C301.791 55 300 53.2091 300 51C300 48.7909 301.791 47 304 47H305C308.314 47 311 44.3137 311 41V15C311 12.7909 312.791 11 315 11Z" fill="black"/>
<path d="M280 28C280 23.0294 284.029 19 289 19C293.971 19 298 23.0294 298 28C298 28.5 298 29.5 298 30V41C298 41 298.019 41.7203 298.212 42.2893C298.749 43.8659 300.242 45 302 45C304.209 45 306 43.2091 306 41V29C306 28.8901 305.996 28.7813 305.987 28.6737C305.996 28.4502 306 28.2256 306 28C306 18.6112 298.389 11 289 11C279.611 11 272 18.6112 272 28C272 37.3888 279.611 45 289 45C291.11 45 293.133 44.6143 295 43.9097V34.7086C294.778 34.9071 294.546 35.095 294.305 35.2714C292.818 36.3591 290.99 37 289 37C284.029 37 280 32.9706 280 28Z" fill="black"/>
<path fill-rule="evenodd" clip-rule="evenodd" d="M256.36 18.4491C255.717 18.6569 255.179 19.149 254.931 19.8199C254.497 20.9966 255.102 22.3021 256.281 22.7311L261.781 24.7332C262.262 24.9083 262.69 25.1661 263.053 25.4848C267.996 27.663 270.455 33.3444 268.558 38.4857C266.846 43.1243 262.082 45.8945 257.204 45.088L256.348 44.9465C256.121 44.9091 255.902 44.8533 255.692 44.781C254.509 44.6034 253.398 44.297 252.35 43.8005C250.33 42.8435 248.993 41.3909 247.873 39.9859C246.495 38.2587 246.779 35.7419 248.506 34.3646C250.233 32.9873 252.75 33.2709 254.127 34.9981C255.007 36.1011 255.42 36.4025 255.775 36.5706C256.176 36.7604 256.98 36.9956 258.993 36.992C259.249 36.9915 259.5 37.0152 259.743 37.0609C260.334 36.8244 260.82 36.3474 261.053 35.7157C261.496 34.5149 260.878 33.1827 259.675 32.7449L254.219 30.7588C253.741 30.5848 253.316 30.3292 252.955 30.0134C248.002 27.8607 245.531 22.1848 247.426 17.05C249.152 12.3741 253.987 9.6139 258.891 10.5055L258.878 10.5795L258.891 10.5055L259.216 10.5645C259.356 10.59 259.493 10.6225 259.626 10.6615C261.214 10.8697 262.635 11.2828 263.914 11.9223C265.888 12.9092 267.21 14.2798 268.2 15.6C269.525 17.3673 269.167 19.8745 267.4 21.2C265.633 22.5255 263.125 22.1673 261.8 20.4C261.29 19.7201 260.862 19.3407 260.336 19.0777C259.783 18.8011 258.809 18.5 257 18.5C256.782 18.5 256.568 18.4826 256.36 18.4491Z" fill="black"/>
<path d="M217 28C217 23.0294 221.029 19 226 19C230.971 19 235 23.0294 235 28C235 28.5 235 29.5 235 30V41C235 41 235.019 41.7203 235.212 42.2893C235.749 43.8659 237.242 45 239 45C241.209 45 243 43.2091 243 41V29C243 28.8901 242.996 28.7813 242.987 28.6737C242.996 28.4502 243 28.2256 243 28C243 18.6112 235.389 11 226 11C216.611 11 209 18.6112 209 28C209 37.3888 216.611 45 226 45C228.11 45 230.133 44.6143 232 43.9097V34.7086C231.778 34.9071 231.546 35.095 231.305 35.2714C229.818 36.3591 227.99 37 226 37C221.029 37 217 32.9706 217 28Z" fill="black"/>
<path fill-rule="evenodd" clip-rule="evenodd" d="M182 28C182 23.0294 186.029 19 191 19C195.971 19 200 23.0294 200 28C200 32.9706 195.971 37 191 37H184V45H191C200.389 45 208 37.3888 208 28C208 18.6112 200.389 11 191 11C181.611 11 174 18.6112 174 28L174 51C174 53.2091 175.791 55 178 55C180.209 55 182 53.2091 182 51L182 36V28Z" fill="black"/>
<path d="M144 28C144 23.0294 148.029 19 153 19C157.971 19 162 23.0294 162 28C162 28.5 162 29.5 162 30V41C162 41 162.019 41.7203 162.212 42.2893C162.749 43.8659 164.242 45 166 45C168.209 45 170 43.2091 170 41V29C170 28.8901 169.996 28.7813 169.987 28.6737C169.996 28.4502 170 28.2256 170 28C170 18.6112 162.389 11 153 11C143.611 11 136 18.6112 136 28C136 37.3888 143.611 45 153 45C155.11 45 157.133 44.6143 159 43.9097V34.7086C158.778 34.9071 158.546 35.095 158.305 35.2714C156.818 36.3591 154.99 37 153 37C148.029 37 144 32.9706 144 28Z" fill="black"/>
<path fill-rule="evenodd" clip-rule="evenodd" d="M112 0C114.209 0 116 1.79086 116 4V11L130 11C132.209 11 134 12.7909 134 15C134 17.2091 132.209 19 130 19H116L116 27C116 32.5228 120.477 37 126 37H131C133.209 37 135 38.7909 135 41C135 43.2091 133.209 45 131 45H126C116.059 45 108 36.9411 108 27V4C108 1.79086 109.791 0 112 0Z" fill="black"/>
<path fill-rule="evenodd" clip-rule="evenodd" d="M79.1655 31.5H101C102.933 31.5 104.5 29.933 104.5 28C104.5 18.8873 97.1127 11.5 88 11.5C78.8873 11.5 71.5 18.8873 71.5 28C71.5 37.1127 78.8873 44.5 88 44.5C92.6788 44.5 96.9076 42.548 99.9062 39.4234C101.245 38.0287 101.199 35.8131 99.8043 34.4747C98.4096 33.1363 96.194 33.1819 94.8556 34.5766C93.1223 36.3827 90.6946 37.5 88 37.5C83.9893 37.5 80.5591 35.0146 79.1655 31.5ZM88 18.5C83.9893 18.5 80.5591 20.9854 79.1655 24.5H96.8345C95.4409 20.9854 92.0107 18.5 88 18.5Z" fill="black"/>
<path fill-rule="evenodd" clip-rule="evenodd" d="M47 0C49.2091 9.43698e-08 51 1.79086 51 4L51 41C51 43.2091 49.2091 45 47 45C44.7909 45 43 43.2091 43 41L43 4C43 1.79086 44.7909 -9.43698e-08 47 0Z" fill="black"/>
<path fill-rule="evenodd" clip-rule="evenodd" d="M67.8284 13.8284C69.3905 15.3905 69.3905 17.9232 67.8284 19.4853L51.4853 35.8284C49.9232 37.3905 47.3905 37.3905 45.8284 35.8284C44.2663 34.2663 44.2663 31.7337 45.8284 30.1716L62.1716 13.8284C63.7337 12.2663 66.2663 12.2663 67.8284 13.8284Z" fill="black"/>
<path fill-rule="evenodd" clip-rule="evenodd" d="M69.1716 43.8284C67.6095 45.3905 65.0768 45.3905 63.5147 43.8284L53.1716 33.4853C51.6095 31.9232 51.6095 29.3905 53.1716 27.8284C54.7337 26.2663 57.2663 26.2663 58.8284 27.8284L69.1716 38.1716C70.7337 39.7337 70.7337 42.2663 69.1716 43.8284Z" fill="black"/>
<path fill-rule="evenodd" clip-rule="evenodd" d="M33 12C35.2091 12 37 13.7909 37 16V41C37 43.2091 35.2091 45 33 45C30.7909 45 29 43.2091 29 41V16C29 13.7909 30.7909 12 33 12Z" fill="black"/>
<path fill-rule="evenodd" clip-rule="evenodd" d="M29 4C29 1.79086 30.7909 0 33 0H34C36.2091 0 38 1.79086 38 4V5C38 7.20914 36.2091 9 34 9H33C30.7909 9 29 7.20914 29 5V4Z" fill="black"/>
<path fill-rule="evenodd" clip-rule="evenodd" d="M4 0C6.20914 0 8 1.79086 8 4V11L22 11C24.2091 11 26 12.7909 26 15C26 17.2091 24.2091 19 22 19H8L8 27C8 32.5228 12.4772 37 18 37H23C25.2091 37 27 38.7909 27 41C27 43.2091 25.2091 45 23 45H18C8.05887 45 0 36.9411 0 27V4C0 1.79086 1.79086 0 4 0Z" fill="black"/>
</svg>
