<svg width="25" height="24" viewBox="0 0 25 24" fill="none" xmlns="http://www.w3.org/2000/svg"><rect x="0.521484" width="24" height="24" rx="12" fill="#49A85E"/><path fill-rule="evenodd" clip-rule="evenodd" d="M12.3126 7.39785L17.5369 8.31902C17.8574 8.37555 18.0715 8.68126 18.015 9.00184L17.0938 14.2261C17.0373 14.5467 16.7316 14.7607 16.411 14.7042C16.0904 14.6477 15.8763 14.3419 15.9329 14.0214L16.6069 10.1985L8.11603 16.1439C7.84937 16.3306 7.48184 16.2658 7.29512 15.9992C7.10841 15.7325 7.17321 15.365 7.43987 15.1783L15.9308 9.23286L12.1079 8.55879C11.7873 8.50226 11.5733 8.19655 11.6298 7.87596C11.6863 7.55538 11.9921 7.34132 12.3126 7.39785Z" fill="white"/></svg>