<svg width="199" height="68" fill="none" xmlns="http://www.w3.org/2000/svg"><path d="M168.795 3.532h24.875v60.935h-24.875V3.532Z" fill="#9F290A"/><path fill-rule="evenodd" clip-rule="evenodd" d="M199 0h-35.536v68H199V0Zm-2.665 1.766h-30.206v64.468h30.206V1.766ZM86.174 3.532h30.205l22.524 32.676h22.784V48.57h-14.371l10.818 15.897h-17.768L129.549 48.57h-26.495v15.897h-16.88V3.532Zm34.961 32.676-18.081-26.57v26.57h18.081Z" fill="#9F290A"/><path fill-rule="evenodd" clip-rule="evenodd" d="M116.684 34.442H104.83V17.238l11.854 17.204Zm-3.87-1.767h-6.207v-9.561l6.207 9.561Z" fill="#9F290A"/><path fill-rule="evenodd" clip-rule="evenodd" d="M119.933 0h-38.2v68h24.874V52.104h19.406L136.812 68h29.317L155.33 52.104h9.911V32.675h-23.11L119.933 0Zm-1.777 1.766H84.397v64.468h20.433V50.338h22.806l10.953 15.896h23.987l-10.953-15.896h11.841V34.442H140.67L118.156 1.766ZM4.442 3.532h30.205l22.524 32.676h22.784V48.57h-14.37l10.817 15.897H58.634L47.816 48.57H21.321v15.897H4.442V3.532Zm34.96 32.676-18.08-26.57v26.57h18.08Z" fill="#9F290A"/><path fill-rule="evenodd" clip-rule="evenodd" d="M34.952 34.442H23.098V17.238l11.854 17.204Zm-3.87-1.767h-6.207v-9.561l6.207 9.561Z" fill="#9F290A"/><path fill-rule="evenodd" clip-rule="evenodd" d="M38.2 0H0v68h24.875V52.104h19.406L55.081 68h29.316L73.598 52.104h9.91V32.675H60.4L38.201 0Zm-1.776 1.766H2.665v64.468h20.433V50.338h22.806l10.953 15.896h23.987L69.89 50.338h11.841V34.442H58.938L36.424 1.766Z" fill="#9F290A"/></svg>