<svg width="358" height="215" fill="none" xmlns="http://www.w3.org/2000/svg"><path fill-rule="evenodd" clip-rule="evenodd" d="M266.957 50.947c-15.69.87-28.324 3.539-36.292 8.98-8.377 6.038-13.574 12.934-14.644 20.955-.717 2.47-.87 25.799-.862 39.413L178.575 139.5l-37.061-18.493L142 84.97c-.257-18.57 4.868-36.49 16.527-53.606 8.095-9.595 15.714-21.2 28.803-28.82C190.096.391 194.909-.459 202.152.24c6.689.637 11.839 2.197 15.973 4.388-20.609 8.363-37.037 20.415-47.632 37.608-6.347 10.944-10.499 22.511-11.316 35.017l-.441 35.433 11.129 6.329.617-36.347c1.322-17.166 7.067-30.501 16.149-40.602 6.558-7.77 17.045-15.408 29.409-21.397 5.264-2.505 11.753-3.249 18.278-1.712 6.375 1.554 11.923 3.74 16.736 6.484-19.016 3.64-36.123 10.824-44.64 18.925-10.216 10.205-17.659 20.703-18.805 31.853-.675 4.66-.763 28.047-.87 42.309l11.722-5.622-.044-31.637c1.266-9.684 5.901-17.964 12.691-25.363 3.885-4.226 15.457-11.366 25.023-14.646 11.491-4.66 23.099 1.713 30.826 9.692" fill="#49A85E"/><path fill-rule="evenodd" clip-rule="evenodd" d="M91 50.947c15.685.87 28.326 3.539 36.294 8.98 8.375 6.038 13.572 12.934 14.644 20.955.716 2.47.383 26.511.376 40.125l37.061 18.493 36.582-19.205V84.97c.259-18.57-4.875-36.49-16.527-53.606-8.095-9.595-15.721-21.2-28.803-28.82C167.864.391 163.05-.459 155.807.24c-6.689.637-11.841 2.197-15.975 4.388 20.604 8.363 37.038 20.415 47.632 37.607 6.349 10.943 10.499 22.51 11.318 35.016l.477 35.653-11.72 5.622-.064-35.86c-1.321-17.166-7.067-30.501-16.149-40.602-6.556-7.77-17.043-15.407-29.409-21.397-5.264-2.505-11.758-3.249-18.278-1.712-6.374 1.554-11.921 3.74-16.734 6.485 19.016 3.64 36.123 10.824 44.638 18.924 10.217 10.205 17.661 20.703 18.807 31.854.673 4.66.207 28.524.314 42.795l-11.129-6.329V81.266c-1.259-9.684-5.896-17.964-12.684-25.363-3.887-4.225-15.458-11.366-25.025-14.646-11.489-4.66-23.097 1.71-30.826 9.69Z" fill="#263D93"/><path d="m11.991 172.09 5.544-10.706h6.389l-3.502 19.854h-4.073l2.592-14.699h-.111l-6.526 12.32H8.789l-2.123-12.32h-.168l-2.592 14.7H0l3.502-19.854h6.556l1.822 10.705h.111Zm16.73-10.706h4.268l-3.502 19.854h-4.268l3.502-19.854Zm11.907 5.41c-.155 1.983-.341 3.512-.945 6.94l-1.324 7.504h-4.073l3.502-19.854h5.105l2.611 7.817c.642 1.898 1.312 4.107 1.688 6.09h.112c.266-2.776.75-5.523 1.12-7.619l1.109-6.287h4.046l-3.502 19.853h-4.994l-2.818-8.383c-.637-1.926-1.101-3.88-1.526-6.061h-.111Zm17.748-5.41h4.268l-3.501 19.854h-4.269l3.502-19.854Zm14.757 14.558c.555-3.144-8.532-2.719-7.428-8.978.58-3.285 3.88-5.863 7.925-5.863 3.264 0 5.031 1.53 5.523 2.38l-3.215 3.2c-.369-.595-1.265-1.841-3.33-1.841-1.395 0-2.316.793-2.491 1.784-.564 3.2 8.505 2.72 7.39 9.035-.524 2.974-3.461 5.862-8.427 5.862-3.766 0-5.81-1.699-6.345-2.464l3.057-3.568c.687.85 2.119 2.379 4.491 2.379 1.701 0 2.665-.878 2.85-1.926Zm11.562-10.989h-4.854l.63-3.569h13.976l-.629 3.57h-4.855l-2.872 16.284h-4.268l2.872-16.285Zm14.714 5.467h1.618c2.26 0 3.16-.992 3.485-2.833.32-1.813-.596-2.634-2.465-2.634h-1.674l-.964 5.467Zm3.742-9.036c4.324 0 6.485 1.671 5.75 5.835-.609 3.455-2.736 5.07-5.103 5.523l-.02.113c.942.51 1.454 1.246 2.08 2.917l2.021 5.466h-5.077l-2.098-6.457c-.238-.708-.728-.935-1.62-.935h-.279l-1.304 7.392h-4.213l3.502-19.854h6.361Zm15.979 13.482-1.124 6.372h-4.269l1.124-6.372-4.206-13.482h4.743l2.376 9.149h.111l5.687-9.149h4.52l-8.962 13.482Zm23.369 3.059c2.231 0 3.883-1.615 4.747-6.515.875-4.956-.294-6.712-2.666-6.712-2.092 0-3.841 1.53-4.71 6.458-.884 5.013.257 6.769 2.629 6.769Zm-.886 3.596c-4.882 0-7.482-2.662-6.173-10.082 1.274-7.223 5.283-10.338 10.026-10.338 4.854 0 7.527 2.72 6.223 10.111-1.274 7.222-5.305 10.309-10.076 10.309Zm11.85-.283 3.502-19.854h11.577l-.629 3.57h-7.337l-.93 5.267h6.306l-.63 3.569h-6.305l-1.313 7.448h-4.241Zm26.489-19.854h4.269l-3.502 19.854h-4.269l3.502-19.854Zm11.907 5.41c-.154 1.983-.34 3.512-.945 6.94l-1.323 7.504h-4.073l3.501-19.854h5.106l2.611 7.817c.642 1.898 1.312 4.107 1.688 6.09h.111c.266-2.776.751-5.523 1.12-7.619l1.11-6.287h4.045l-3.501 19.853h-4.994l-2.818-8.383c-.637-1.926-1.102-3.88-1.526-6.061h-.112Zm15.489-5.41h4.742l1.115 10.763c.177 1.84.37 3.597.426 5.494h.112a86.773 86.773 0 0 1 2.285-5.522l4.907-10.735h4.491l-9.779 19.854h-5.523l-2.776-19.854Zm17.058 19.854 3.502-19.854h11.578l-.63 3.57h-7.337l-.779 4.418h6.304l-.629 3.568h-6.305l-.834 4.73h7.672l-.629 3.568h-11.913Zm24.954-5.296c.554-3.144-8.532-2.719-7.429-8.978.58-3.285 3.88-5.863 7.926-5.863 3.264 0 5.031 1.53 5.523 2.38l-3.215 3.2c-.37-.595-1.266-1.841-3.33-1.841-1.395 0-2.317.793-2.491 1.784-.564 3.2 8.504 2.72 7.39 9.035-.524 2.974-3.461 5.862-8.427 5.862-3.767 0-5.811-1.699-6.345-2.464l3.056-3.568c.688.85 2.12 2.379 4.491 2.379 1.702 0 2.666-.878 2.851-1.926Zm11.562-10.989h-4.854l.63-3.569h13.977l-.629 3.57h-4.855l-2.872 16.284h-4.269l2.872-16.285Zm20.641 7.137 5.542-10.706h6.393l-3.503 19.854h-4.074l2.592-14.699h-.11c-2.177 4.107-4.353 8.213-6.526 12.32h-3.516l-2.123-12.32h-.168l-2.592 14.7h-3.906l3.502-19.854h6.556l1.823 10.705h.11Zm13.005 9.148 3.503-19.854h11.577l-.632 3.57h-7.333l-.781 4.418h6.303l-.628 3.568h-6.306l-.832 4.73h7.671l-.631 3.568h-11.911Zm22.104-14.444c-.157 1.983-.342 3.512-.946 6.94l-1.325 7.504h-4.071l3.502-19.854h5.103l2.612 7.817c.643 1.898 1.313 4.107 1.69 6.09h.11c.266-2.776.749-5.523 1.121-7.619l1.11-6.287h4.044l-3.503 19.853h-4.992l-2.82-8.383c-.635-1.926-1.098-3.88-1.526-6.061h-.109Zm19.574-1.88h-4.855l.631-3.569h13.974l-.628 3.57h-4.855l-2.871 16.284h-4.271l2.875-16.285Zm21.084-4.351-12.339 25.178h-3.486l12.334-25.178h3.491Z" fill="#263D93"/><path d="M148.592 197.706h-2.352l-.784 4.446h2.18c2.123 0 3.146-1.09 3.349-2.237.217-1.233-.328-2.209-2.393-2.209Zm1.682 10.47c.308-1.75-1.038-2.41-2.673-2.41h-2.782l-.85 4.82h3.012c2.208 0 3.091-1.263 3.293-2.41Zm4.471-.144c-.46 2.61-2.407 6.167-9.09 6.167H139l3.546-20.107h7.199c3.557 0 6.276 1.176 5.563 5.22-.4 2.266-2.058 3.7-3.675 4.246l-.02.114c1.881.23 3.633 1.52 3.132 4.36Zm16.8-13.94h5.048l-7.977 9.781 5.063 10.326H168.2l-4.382-10.125.021-.115 7.706-9.867Zm-9.627 20.108h-4.389l3.546-20.107h4.389l-3.546 20.107Zm21.479-16.408-1.001 5.68h1.434c2.926 0 3.779-1.263 4.052-2.811.349-1.98-.469-2.869-2.707-2.869h-1.778Zm9.123 2.266c-.662 3.758-3.213 7-9.093 7h-1.664l-1.259 7.141h-4.389l3.546-20.107h6.884c4.073 0 6.759 1.52 5.975 5.966Zm13.137 4.876 5.67-10.842h6.568L214.35 214.2h-4.188l2.625-14.886h-.115l-6.675 12.477h-3.614l-2.217-12.477h-.172l-2.625 14.886h-4.015l3.545-20.107h6.741l1.903 10.842h.114v-.001Z" fill="#49A85E"/></svg>