<svg width="549" height="77" fill="none" xmlns="http://www.w3.org/2000/svg"><path fill-rule="evenodd" clip-rule="evenodd" d="M96.862 28.256c-8.548.474-15.431 1.928-19.772 4.892-4.564 3.29-7.395 7.047-7.978 11.417-.391 1.345-.474 14.055-.47 21.472L48.711 76.5 28.52 66.425l.265-19.633c-.14-10.117 2.652-19.88 9.004-29.205 4.41-5.227 8.561-11.55 15.692-15.701C54.988.713 57.61.25 61.556.63c3.644.347 6.45 1.197 8.702 2.391C59.03 7.577 50.08 14.143 44.308 23.51c-3.458 5.962-5.72 12.264-6.165 19.077l-.24 19.304 6.063 3.448.336-19.802c.72-9.352 3.85-16.617 8.798-22.12 3.573-4.233 9.286-8.394 16.022-11.657 2.868-1.365 6.403-1.77 9.958-.933 3.473.847 6.496 2.038 9.118 3.533-10.36 1.983-19.68 5.897-24.32 10.31-5.566 5.56-9.621 11.279-10.245 17.354-.368 2.539-.416 15.28-.474 23.05l6.386-3.063-.024-17.236c.69-5.276 3.215-9.787 6.914-13.818 2.117-2.302 8.421-6.192 13.633-7.979 6.26-2.539 12.584.933 16.794 5.28" fill="#49A85E"/><path fill-rule="evenodd" clip-rule="evenodd" d="M.564 28.256c8.545.474 15.432 1.928 19.773 4.892 4.563 3.29 7.394 7.047 7.978 11.417.39 1.345.209 14.443.205 21.86L48.711 76.5l19.93-10.463V46.792c.141-10.117-2.656-19.88-9.004-29.205-4.41-5.227-8.565-11.55-15.692-15.701C42.44.713 39.817.25 35.871.63c-3.644.347-6.451 1.197-8.703 2.391 11.225 4.556 20.178 11.122 25.95 20.488 3.459 5.962 5.72 12.264 6.166 19.077l.26 19.424-6.385 3.063-.035-19.537c-.72-9.352-3.85-16.617-8.798-22.12-3.572-4.233-9.285-8.394-16.022-11.657-2.868-1.365-6.406-1.77-9.958-.933-3.473.847-6.495 2.038-9.117 3.533 10.36 1.983 19.68 5.897 24.319 10.31 5.566 5.56 9.622 11.279 10.246 17.354.367 2.539.113 15.54.171 23.315l-6.063-3.448V44.774c-.686-5.276-3.212-9.787-6.91-13.818-2.118-2.302-8.422-6.192-13.634-7.979-6.259-2.539-12.583.933-16.794 5.28" fill="#263D93"/><path d="m124.202 39.09 5.544-10.706h6.389l-3.502 19.854h-4.073l2.592-14.699h-.111l-6.526 12.32H121l-2.123-12.32h-.168l-2.592 14.7h-3.906l3.502-19.854h6.556l1.822 10.705h.111M140.932 28.384h4.268l-3.502 19.854h-4.268l3.502-19.854M152.839 33.794c-.155 1.983-.341 3.512-.945 6.94l-1.324 7.504h-4.073l3.502-19.854h5.105l2.611 7.817c.642 1.898 1.312 4.107 1.688 6.09h.112c.266-2.776.75-5.523 1.12-7.619l1.109-6.287h4.046l-3.502 19.853h-4.994l-2.818-8.383c-.637-1.926-1.101-3.88-1.526-6.061h-.111ZM170.587 28.384h4.268l-3.501 19.854h-4.269l3.502-19.854ZM185.344 42.942c.555-3.144-8.532-2.719-7.428-8.978.58-3.285 3.88-5.863 7.925-5.863 3.264 0 5.031 1.53 5.523 2.38l-3.215 3.2c-.369-.595-1.265-1.841-3.33-1.841-1.395 0-2.316.793-2.491 1.784-.564 3.2 8.505 2.72 7.39 9.035-.524 2.974-3.461 5.862-8.427 5.862-3.766 0-5.81-1.699-6.345-2.464l3.057-3.568c.687.85 2.119 2.379 4.491 2.379 1.701 0 2.665-.878 2.85-1.926M196.906 31.953h-4.854l.63-3.569h13.976l-.629 3.57h-4.855l-2.872 16.284h-4.268l2.872-16.285ZM211.62 37.42h1.618c2.26 0 3.16-.992 3.485-2.833.32-1.813-.596-2.634-2.465-2.634h-1.674l-.964 5.466Zm3.742-9.036c4.324 0 6.485 1.671 5.75 5.835-.609 3.455-2.736 5.07-5.103 5.523l-.02.113c.942.51 1.454 1.246 2.08 2.917l2.021 5.466h-5.077l-2.098-6.457c-.238-.708-.728-.935-1.62-.935h-.279l-1.304 7.392h-4.213l3.502-19.854h6.361M231.341 41.866l-1.124 6.372h-4.269l1.124-6.372-4.206-13.482h4.743l2.376 9.149h.111l5.687-9.149h4.52l-8.962 13.482ZM254.71 44.925c2.231 0 3.883-1.615 4.747-6.515.875-4.956-.294-6.712-2.666-6.712-2.092 0-3.841 1.53-4.71 6.458-.884 5.013.257 6.769 2.629 6.769Zm-.886 3.596c-4.882 0-7.482-2.662-6.173-10.082 1.274-7.223 5.283-10.338 10.026-10.338 4.854 0 7.527 2.72 6.223 10.111-1.274 7.222-5.305 10.31-10.076 10.31M265.674 48.238l3.502-19.854h11.577l-.629 3.57h-7.337l-.93 5.267h6.306l-.63 3.569h-6.305l-1.313 7.448h-4.241ZM292.163 28.384h4.269l-3.502 19.854h-4.269l3.502-19.854ZM304.07 33.794c-.154 1.983-.34 3.512-.945 6.94l-1.323 7.504h-4.073l3.501-19.854h5.106l2.611 7.817c.642 1.898 1.312 4.107 1.688 6.09h.111c.266-2.776.751-5.523 1.12-7.619l1.11-6.287h4.045l-3.501 19.853h-4.994l-2.818-8.383c-.637-1.926-1.102-3.88-1.526-6.061h-.112M319.559 28.384h4.742l1.115 10.763c.177 1.84.37 3.597.426 5.494h.112a87.172 87.172 0 0 1 2.285-5.522l4.907-10.735h4.491l-9.779 19.854h-5.523l-2.776-19.854ZM336.617 48.238l3.502-19.854h11.578l-.63 3.57h-7.337l-.779 4.418h6.304l-.629 3.568h-6.305l-.834 4.73h7.672l-.629 3.568h-11.913M361.571 42.942c.554-3.144-8.532-2.719-7.429-8.978.58-3.285 3.88-5.863 7.926-5.863 3.264 0 5.031 1.53 5.523 2.38l-3.215 3.2c-.37-.595-1.266-1.841-3.33-1.841-1.395 0-2.317.793-2.491 1.784-.564 3.2 8.504 2.72 7.39 9.035-.524 2.974-3.461 5.862-8.427 5.862-3.767 0-5.811-1.699-6.345-2.464l3.056-3.568c.688.85 2.12 2.379 4.491 2.379 1.702 0 2.666-.878 2.851-1.926M373.133 31.953h-4.854l.63-3.569h13.977l-.629 3.57h-4.855l-2.872 16.284h-4.269l2.872-16.285M393.774 39.09l5.542-10.706h6.393l-3.503 19.854h-4.074l2.592-14.699h-.11c-2.177 4.107-4.353 8.213-6.526 12.32h-3.516l-2.123-12.32h-.168l-2.592 14.7h-3.906l3.502-19.854h6.556l1.823 10.705h.11M406.779 48.238l3.503-19.854h11.577l-.632 3.57h-7.333l-.781 4.418h6.303l-.628 3.568h-6.306l-.832 4.73h7.671l-.631 3.568h-11.911ZM428.883 33.794c-.157 1.983-.342 3.512-.946 6.94l-1.325 7.504h-4.071l3.502-19.854h5.103l2.612 7.817c.643 1.898 1.313 4.107 1.69 6.09h.11c.266-2.776.749-5.523 1.121-7.619l1.11-6.287h4.044l-3.503 19.853h-4.992l-2.82-8.383c-.635-1.926-1.098-3.88-1.526-6.061h-.109M448.457 31.914h-4.855l.631-3.569h13.974l-.628 3.57h-4.855l-2.871 16.284h-4.271l2.875-16.285ZM469.541 27.563l-12.339 25.178h-3.486l12.334-25.178h3.491Z" fill="#263D93"/><path d="M479.133 31.706h-2.352l-.784 4.446h2.18c2.123 0 3.146-1.09 3.349-2.237.217-1.233-.328-2.209-2.393-2.209Zm1.682 10.47c.308-1.75-1.038-2.41-2.673-2.41h-2.782l-.85 4.82h3.012c2.208 0 3.091-1.263 3.293-2.41Zm4.471-.144c-.46 2.61-2.407 6.167-9.09 6.167h-6.655l3.546-20.107h7.199c3.557 0 6.276 1.176 5.563 5.22-.4 2.266-2.058 3.7-3.675 4.246l-.02.114c1.881.23 3.633 1.52 3.132 4.36M502.086 28.092h5.048l-7.977 9.781 5.063 10.326h-5.479l-4.382-10.125.021-.115 7.706-9.867ZM492.459 48.2h-4.389l3.546-20.107h4.389L492.459 48.2ZM513.938 31.792l-1.001 5.68h1.434c2.926 0 3.779-1.263 4.052-2.811.349-1.98-.469-2.869-2.707-2.869h-1.778Zm9.123 2.266c-.662 3.758-3.213 7-9.093 7h-1.664l-1.259 7.141h-4.389l3.546-20.107h6.884c4.073 0 6.759 1.52 5.975 5.966M536.198 38.934l5.67-10.842h6.568L544.891 48.2h-4.188l2.625-14.886h-.115l-6.675 12.477h-3.614l-2.217-12.477h-.172l-2.625 14.886h-4.015l3.545-20.107h6.741l1.903 10.842h.114Z" fill="#49A85E"/></svg>