<svg width="411" height="55" fill="none" xmlns="http://www.w3.org/2000/svg"><path d="M44.046 54.391v-35.45L30.2 45.34h-5.858L10.498 18.942v35.45H0V.38h11.259l15.975 30.733L43.36.38h11.183v54.011H44.046ZM113.061 54.772c-4.311 0-7.988-.71-11.031-2.13-2.992-1.471-5.426-3.474-7.303-6.01-1.825-2.536-3.17-5.401-4.031-8.596-.863-3.246-1.294-6.618-1.294-10.118V.38H99.9v27.538c0 2.993.406 5.833 1.217 8.52.812 2.688 2.181 4.87 4.108 6.543 1.927 1.673 4.514 2.51 7.76 2.51 3.347 0 5.984-.837 7.911-2.51 1.927-1.725 3.297-3.93 4.108-6.619.811-2.688 1.217-5.502 1.217-8.444V.38h10.422v27.538c0 3.703-.456 7.176-1.369 10.422-.862 3.246-2.257 6.111-4.184 8.596-1.877 2.435-4.311 4.362-7.303 5.782-2.992 1.37-6.568 2.054-10.726 2.054ZM203.738 14.53c-.456-.507-1.42-1.167-2.89-1.978-1.471-.862-3.246-1.623-5.325-2.282a18.981 18.981 0 0 0-6.314-1.065c-5.731 0-8.596 2.028-8.596 6.085 0 1.471.456 2.638 1.369 3.5.913.862 2.282 1.597 4.108 2.206 1.825.608 4.108 1.268 6.846 1.978 3.55.913 6.618 1.978 9.205 3.195 2.637 1.217 4.64 2.84 6.01 4.868 1.42 1.978 2.13 4.615 2.13 7.912 0 3.854-.939 6.973-2.815 9.357-1.826 2.333-4.26 4.032-7.303 5.097-3.043 1.065-6.339 1.597-9.889 1.597-4.057 0-8.089-.609-12.096-1.826-3.955-1.268-7.48-2.992-10.574-5.173l4.641-9.052c.456.456 1.268 1.065 2.434 1.826 1.166.71 2.586 1.445 4.26 2.206a38.528 38.528 0 0 0 5.477 1.825c1.978.508 3.981.761 6.01.761 5.781 0 8.672-1.851 8.672-5.553 0-1.572-.583-2.84-1.75-3.804-1.166-.963-2.814-1.775-4.944-2.434-2.08-.66-4.514-1.395-7.303-2.206-3.449-.964-6.314-2.029-8.596-3.195-2.232-1.217-3.905-2.713-5.021-4.488-1.116-1.826-1.674-4.134-1.674-6.923 0-3.702.863-6.796 2.587-9.28 1.775-2.536 4.158-4.438 7.151-5.706C182.54.659 185.862 0 189.513 0c3.753 0 7.252.609 10.498 1.826 3.246 1.217 6.035 2.612 8.368 4.184l-4.641 8.52ZM242.557 54.391V.381h10.497v54.01h-10.497ZM288.666 54.391V.456h10.498v25.637L321.834.38h11.562l-20.691 23.963 21.985 30.048h-11.867l-16.812-23.278-6.847 7.151v16.127h-10.498ZM386.795 54.772c-4.311 0-7.988-.71-11.031-2.13-2.992-1.471-5.426-3.474-7.302-6.01-1.826-2.536-3.17-5.401-4.032-8.596-.862-3.246-1.294-6.618-1.294-10.118V.38h10.498v27.538c0 2.993.406 5.833 1.218 8.52.811 2.688 2.18 4.87 4.107 6.543 1.928 1.673 4.514 2.51 7.76 2.51 3.347 0 5.984-.837 7.911-2.51 1.927-1.725 3.297-3.93 4.108-6.619.812-2.688 1.217-5.502 1.217-8.444V.38h10.422v27.538c0 3.703-.456 7.176-1.369 10.422-.862 3.246-2.257 6.111-4.184 8.596-1.877 2.435-4.311 4.362-7.303 5.782-2.992 1.37-6.568 2.054-10.726 2.054Z" fill="#000"/></svg>