<svg width="489" height="55" fill="none" xmlns="http://www.w3.org/2000/svg"><path fill-rule="evenodd" clip-rule="evenodd" d="M443 24.5c0-7.456 6.044-13.5 13.5-13.5 3.705 0 7.061 1.492 9.5 3.908A13.456 13.456 0 0 1 475.5 11c7.456 0 13.5 6.044 13.5 13.5V41a4 4 0 0 1-8 0V24.5a5.5 5.5 0 1 0-11 0V41a4 4 0 0 1-8 0V24.5a5.5 5.5 0 1 0-11 0V41a4 4 0 0 1-8 0V24.5Z" fill="#000"/><path d="M440.818 31.036c.12-.828.182-1.675.182-2.536 0-9.665-7.835-17.5-17.5-17.5S406 18.835 406 28.5 413.835 46 423.5 46c1.641 0 3.229-.226 4.735-.648l-10.033-10.033 2.243-2.048-1.16-1.27-2.302 2.1-6.317-6.317 3.03-3.03a5 5 0 0 0 7.057-7.057l3.363-3.363 6.86 6.86-2.476 2.26 1.16 1.271 2.535-2.313 8.623 8.624Z" fill="#000"/><path d="m421.883 29.57 3.785-3.454 1.16 1.27-3.785 3.455-1.16-1.272Z" fill="#000"/><path fill-rule="evenodd" clip-rule="evenodd" d="M392 19a9 9 0 0 0-9 9 9 9 0 0 0 9 9 8.94 8.94 0 0 0 5.305-1.729 9.01 9.01 0 0 0 1.345-1.207 4 4 0 0 1 5.91 5.393c-.765.838-1.614 1.6-2.532 2.272A16.944 16.944 0 0 1 392 45c-9.389 0-17-7.611-17-17s7.611-17 17-17c5.047 0 9.584 2.204 12.692 5.69a4 4 0 0 1-5.971 5.324A8.969 8.969 0 0 0 392 19ZM362.5 41a4 4 0 0 1 4-4h1a4 4 0 0 1 4 4v1a4 4 0 0 1-4 4h-1a4 4 0 0 1-4-4v-1Z" fill="#000"/><path d="M331 28a9 9 0 0 1 9-9 9 9 0 0 1 9 9v13s.019.72.212 1.29A4 4 0 0 0 357 41V29c0-.11-.004-.219-.013-.326.009-.224.013-.448.013-.674 0-9.389-7.611-17-17-17s-17 7.611-17 17 7.611 17 17 17c2.11 0 4.133-.386 6-1.09v-9.201A8.94 8.94 0 0 1 340 37a9 9 0 0 1-9-9Z" fill="#000"/><path fill-rule="evenodd" clip-rule="evenodd" d="M310.5 4a4 4 0 0 1 4-4h1a4 4 0 0 1 4 4v1a4 4 0 0 1-4 4h-1a4 4 0 0 1-4-4V4ZM315 11a4 4 0 0 1 4 4v26c0 7.732-6.268 14-14 14h-1a4 4 0 0 1 0-8h1a6 6 0 0 0 6-6V15a4 4 0 0 1 4-4Z" fill="#000"/><path d="M280 28a9 9 0 0 1 9-9 9 9 0 0 1 9 9v13s.019.72.212 1.29A4 4 0 0 0 306 41V29c0-.11-.004-.219-.013-.326.009-.224.013-.448.013-.674 0-9.389-7.611-17-17-17s-17 7.611-17 17 7.611 17 17 17c2.11 0 4.133-.386 6-1.09v-9.201A8.94 8.94 0 0 1 289 37a9 9 0 0 1-9-9Z" fill="#000"/><path fill-rule="evenodd" clip-rule="evenodd" d="M256.36 18.45a2.265 2.265 0 0 0-.079 4.281l5.5 2.002c.481.175.909.433 1.272.752 4.943 2.178 7.402 7.86 5.505 13a10.31 10.31 0 0 1-11.354 6.603l-.856-.142a4.022 4.022 0 0 1-.656-.165c-1.183-.178-2.294-.484-3.342-.98-2.02-.958-3.357-2.41-4.477-3.815a4 4 0 1 1 6.254-4.988c.88 1.103 1.293 1.405 1.648 1.573.401.19 1.205.425 3.218.421.256 0 .507.023.75.069a2.31 2.31 0 0 0-.068-4.316l-5.456-1.986a3.986 3.986 0 0 1-1.264-.746c-4.953-2.152-7.424-7.828-5.529-12.963a10.264 10.264 0 0 1 11.465-6.545l-.013.074.013-.074.325.06c.14.025.277.058.41.097 1.588.208 3.009.62 4.288 1.26 1.974.987 3.296 2.358 4.286 3.678a4 4 0 0 1-6.4 4.8c-.51-.68-.938-1.06-1.464-1.322-.553-.277-1.527-.578-3.336-.578-.218 0-.432-.017-.64-.05Z" fill="#000"/><path d="M217 28a9 9 0 0 1 9-9 9 9 0 0 1 9 9v13s.019.72.212 1.29A4 4 0 0 0 243 41V29c0-.11-.004-.219-.013-.326.009-.224.013-.448.013-.674 0-9.389-7.611-17-17-17s-17 7.611-17 17 7.611 17 17 17c2.11 0 4.133-.386 6-1.09v-9.201A8.94 8.94 0 0 1 226 37a9 9 0 0 1-9-9Z" fill="#000"/><path fill-rule="evenodd" clip-rule="evenodd" d="M182 28a9 9 0 0 1 9-9 9 9 0 0 1 9 9 9 9 0 0 1-9 9h-7v8h7c9.389 0 17-7.611 17-17s-7.611-17-17-17-17 7.611-17 17v23a4 4 0 0 0 8 0V28Z" fill="#000"/><path d="M144 28a9 9 0 0 1 9-9 9 9 0 0 1 9 9v13s.019.72.212 1.29A4 4 0 0 0 170 41V29c0-.11-.004-.219-.013-.326.009-.224.013-.448.013-.674 0-9.389-7.611-17-17-17s-17 7.611-17 17 7.611 17 17 17c2.11 0 4.133-.386 6-1.09v-9.201A8.94 8.94 0 0 1 153 37a9 9 0 0 1-9-9Z" fill="#000"/><path fill-rule="evenodd" clip-rule="evenodd" d="M112 0a4 4 0 0 1 4 4v7h14a4 4 0 0 1 0 8h-14v8c0 5.523 4.477 10 10 10h5a4 4 0 0 1 0 8h-5c-9.941 0-18-8.059-18-18V4a4 4 0 0 1 4-4ZM79.165 31.5H101a3.5 3.5 0 0 0 3.5-3.5c0-9.113-7.387-16.5-16.5-16.5S71.5 18.887 71.5 28 78.887 44.5 88 44.5c4.679 0 8.908-1.952 11.906-5.077a3.5 3.5 0 1 0-5.05-4.846A9.463 9.463 0 0 1 88 37.5a9.503 9.503 0 0 1-8.835-6ZM88 18.5a9.503 9.503 0 0 0-8.835 6h17.67a9.503 9.503 0 0 0-8.835-6ZM47 0a4 4 0 0 1 4 4v37a4 4 0 0 1-8 0V4a4 4 0 0 1 4-4Z" fill="#000"/><path fill-rule="evenodd" clip-rule="evenodd" d="M67.828 13.828a4 4 0 0 1 0 5.657L51.485 35.828a4 4 0 0 1-5.657-5.656l16.344-16.344a4 4 0 0 1 5.656 0Z" fill="#000"/><path fill-rule="evenodd" clip-rule="evenodd" d="M69.172 43.828a4 4 0 0 1-5.657 0L53.172 33.485a4 4 0 0 1 5.656-5.657l10.344 10.344a4 4 0 0 1 0 5.656ZM33 12a4 4 0 0 1 4 4v25a4 4 0 0 1-8 0V16a4 4 0 0 1 4-4ZM29 4a4 4 0 0 1 4-4h1a4 4 0 0 1 4 4v1a4 4 0 0 1-4 4h-1a4 4 0 0 1-4-4V4ZM4 0a4 4 0 0 1 4 4v7h14a4 4 0 0 1 0 8H8v8c0 5.523 4.477 10 10 10h5a4 4 0 0 1 0 8h-5C8.059 45 0 36.941 0 27V4a4 4 0 0 1 4-4Z" fill="#000"/></svg>