<svg xmlns="http://www.w3.org/2000/svg" fill="black"><g id="logo/suzuki" viewBox="0 0 147 180"><g clip-path="url(#clip0_868_679)"><path d="M144.626 98.8493C144.626 98.8493 131.294 102.692 105.507 118.498C82.388 132.693 73.3224 142.23 73.3224 142.23L2 93.064C2 93.064 32.0054 71.0548 57.0765 87.9119L90.7082 110.924L94.8106 108.232L2.01443 43.3851C2.01443 43.3851 15.3507 39.5378 41.1239 23.741C64.2569 9.54151 73.3224 5.34058e-05 73.3224 5.34058e-05L144.64 49.1656C144.64 49.1656 114.639 71.1748 89.5636 54.3177L55.9319 31.3012L51.8295 33.9876L144.626 98.8493Z" fill="#E20A17"></path><path d="M94.5976 180.574C104.481 180.574 107.012 178.056 107.012 172.504V158.44H99.1802V171.664C99.1802 173.885 97.2731 175.208 94.5976 175.208C91.8104 175.208 90.0107 173.878 90.0107 171.629V158.44H82.1833V172.504C82.1833 178.056 84.7143 180.574 94.5976 180.574Z" fill="#003399"></path><path d="M136.69 158.44H125.948L117.256 165.888V158.44H109.089V180.022H117.256V172.367L125.329 180.022H136.298L124.359 168.949L136.69 158.44Z" fill="#003399"></path><path d="M146.098 158.44H137.934V180.022H146.098V158.44Z" fill="#003399"></path><path d="M80.2506 158.44H55.538V163.922H67.475L55.1176 175.429V180.022H80.2046V174.518H67.7224L80.2506 163.04V158.44Z" fill="#003399"></path><path d="M40.9875 180.574C50.8708 180.574 53.4018 178.056 53.4018 172.504V158.44H45.5723V171.664C45.5723 173.885 43.6674 175.208 40.9875 175.208C38.2003 175.208 36.4071 173.878 36.4071 171.629V158.44H28.5776V172.504C28.5776 178.056 31.1086 180.574 40.9875 180.574Z" fill="#003399"></path><path d="M9.27899 164.404C9.27899 162.735 11.7575 162.68 12.5939 162.68C13.4324 162.68 15.3219 163.015 16.6072 165.118H25.8402C25.8402 161.051 21.9757 157.817 12.6223 157.817C2.23326 157.817 0.464168 162.364 0.464168 164.976C0.464168 169.791 4.20379 171.202 12.3355 172.067C13.0317 172.139 17.2618 171.94 17.2618 173.969C17.2618 175.472 14.884 175.572 14.0083 175.572C13.139 175.572 11.5123 175.43 10.1679 173.043H0C0 177.782 3.2032 180.521 13.9929 180.521C23.931 180.521 26.5693 176.474 26.5693 173.397C26.5693 170.409 24.5134 167.369 16.0401 166.288C12.5063 165.832 9.27899 165.64 9.27899 164.404Z" fill="#003399"></path></g><defs><clipPath id="clip0_868_679"><rect width="147" height="180" fill="white"></rect></clipPath></defs></g><g id="logo/musiku" viewBox="0 0 410 55"><path d="M44.0052 54.3914V18.9419L30.1728 45.3389H24.3206L10.4883 18.9419V54.3914H0V0.380359H11.2483L27.2087 31.1134L43.3212 0.380359H54.4935V54.3914H44.0052Z"></path><path d="M112.957 54.7718C108.65 54.7718 104.977 54.0618 101.937 52.6418C98.9471 51.171 96.5151 49.1678 94.6403 46.6321C92.8163 44.0964 91.4736 41.231 90.6122 38.036C89.7509 34.7902 89.3202 31.4177 89.3202 27.9184V0.380359H99.8085V27.9184C99.8085 30.9106 100.214 33.7506 101.024 36.4384C101.835 39.1263 103.203 41.3071 105.129 42.9806C107.054 44.6542 109.638 45.491 112.881 45.491C116.225 45.491 118.86 44.6542 120.785 42.9806C122.71 41.2563 124.078 39.0503 124.889 36.3624C125.7 33.6745 126.105 30.8598 126.105 27.9184V0.380359H136.517V27.9184C136.517 31.6206 136.061 35.0945 135.149 38.3402C134.288 41.586 132.895 44.4514 130.969 46.9364C129.095 49.3707 126.663 51.2978 123.673 52.7178C120.684 54.0871 117.112 54.7718 112.957 54.7718Z"></path><path d="M203.551 14.5297C203.095 14.0226 202.133 13.3633 200.663 12.5519C199.194 11.6897 197.42 10.929 195.343 10.2697C193.316 9.55971 191.214 9.2047 189.035 9.2047C183.309 9.2047 180.447 11.2333 180.447 15.2905C180.447 16.7612 180.903 17.9276 181.815 18.7898C182.727 19.6519 184.095 20.3873 185.919 20.9958C187.743 21.6044 190.023 22.2637 192.759 22.9737C196.306 23.8866 199.371 24.9516 201.955 26.1687C204.59 27.3859 206.591 29.0088 207.959 31.0373C209.378 33.0152 210.087 35.6524 210.087 38.9488C210.087 42.8031 209.15 45.9221 207.275 48.3057C205.451 50.6385 203.019 52.3375 199.979 53.4025C196.939 54.4675 193.646 55 190.099 55C186.045 55 182.017 54.3914 178.015 53.1743C174.062 51.9064 170.541 50.1821 167.45 48.0014L172.086 38.9488C172.542 39.4053 173.353 40.0138 174.518 40.7746C175.684 41.4846 177.103 42.2199 178.775 42.9806C180.447 43.6906 182.271 44.2992 184.247 44.8064C186.223 45.3135 188.224 45.5671 190.251 45.5671C196.027 45.5671 198.915 43.716 198.915 40.0138C198.915 38.4417 198.332 37.1738 197.167 36.2102C196.002 35.2467 194.355 34.4352 192.227 33.7759C190.15 33.1166 187.717 32.3813 184.931 31.5698C181.485 30.6063 178.623 29.5413 176.342 28.3748C174.113 27.1577 172.441 25.6616 171.326 23.8866C170.212 22.0609 169.654 19.7533 169.654 16.964C169.654 13.2619 170.516 10.1683 172.238 7.68326C174.012 5.14753 176.393 3.24574 179.383 1.97787C182.372 0.659291 185.691 0 189.339 0C193.088 0 196.584 0.608576 199.827 1.82573C203.07 3.04288 205.857 4.43753 208.187 6.00968L203.551 14.5297Z"></path><path d="M242.334 54.3914V0.380359H252.822V54.3914H242.334Z"></path><path d="M288.401 54.3914V0.456429H298.889V26.0927L321.538 0.380359H333.09L312.418 24.343L334.382 54.3914H322.526L305.729 31.1134L298.889 38.2642V54.3914H288.401Z"></path><path d="M386.439 54.7718C382.133 54.7718 378.459 54.0618 375.419 52.6418C372.43 51.171 369.998 49.1678 368.123 46.6321C366.299 44.0964 364.956 41.231 364.095 38.036C363.233 34.7902 362.803 31.4177 362.803 27.9184V0.380359H373.291V27.9184C373.291 30.9106 373.696 33.7506 374.507 36.4384C375.318 39.1263 376.686 41.3071 378.611 42.9806C380.537 44.6542 383.121 45.491 386.363 45.491C389.707 45.491 392.342 44.6542 394.268 42.9806C396.193 41.2563 397.561 39.0503 398.372 36.3624C399.182 33.6745 399.588 30.8598 399.588 27.9184V0.380359H410V27.9184C410 31.6206 409.544 35.0945 408.632 38.3402C407.771 41.586 406.377 44.4514 404.452 46.9364C402.577 49.3707 400.145 51.2978 397.156 52.7178C394.166 54.0871 390.594 54.7718 386.439 54.7718Z"></path></g><g id="logo/tiketapasaja" viewBox="0 0 489 55"><path fill-rule="evenodd" clip-rule="evenodd" d="M443 24.5C443 17.0442 449.044 11 456.5 11C460.205 11 463.561 12.4922 466 14.9083C468.439 12.4922 471.795 11 475.5 11C482.956 11 489 17.0442 489 24.5V41C489 43.2091 487.209 45 485 45C482.791 45 481 43.2091 481 41V24.5C481 21.4624 478.538 19 475.5 19C472.462 19 470 21.4624 470 24.5V41C470 43.2091 468.209 45 466 45C463.791 45 462 43.2091 462 41V24.5C462 21.4624 459.538 19 456.5 19C453.462 19 451 21.4624 451 24.5V41C451 43.2091 449.209 45 447 45C444.791 45 443 43.2091 443 41V24.5Z"></path><path d="M440.818 31.0357C440.938 30.2078 441 29.3612 441 28.5C441 18.835 433.165 11 423.5 11C413.835 11 406 18.835 406 28.5C406 38.165 413.835 46 423.5 46C425.141 46 426.729 45.7742 428.235 45.3519L418.202 35.3186L420.445 33.2714L419.285 32.0001L416.983 34.1004L410.666 27.7835L413.696 24.7534C414.577 25.5294 415.734 26.0001 417 26.0001C419.761 26.0001 422 23.7615 422 21.0001C422 19.7338 421.529 18.5775 420.753 17.6966L424.116 14.334L430.976 21.1943L428.5 23.4539L429.66 24.7252L432.195 22.4125L440.818 31.0357Z"></path><path d="M421.883 29.5693L425.668 26.1155L426.828 27.3869L423.043 30.8407L421.883 29.5693Z"></path><path fill-rule="evenodd" clip-rule="evenodd" d="M392 19C387.029 19 383 23.0294 383 28C383 32.9706 387.029 37 392 37C393.99 37 395.818 36.3591 397.305 35.2714C397.793 34.9147 398.244 34.51 398.65 34.0641C400.14 32.4323 402.67 32.3167 404.301 33.8058C405.933 35.295 406.049 37.825 404.56 39.4568C403.795 40.2952 402.946 41.0568 402.028 41.7286C399.216 43.7849 395.744 45 392 45C382.611 45 375 37.3888 375 28C375 18.6112 382.611 11 392 11C397.047 11 401.584 13.2044 404.692 16.69C406.162 18.3389 406.017 20.8674 404.368 22.3376C402.719 23.8077 400.191 23.6628 398.721 22.0139C397.067 20.1587 394.671 19 392 19Z"></path><path fill-rule="evenodd" clip-rule="evenodd" d="M362.5 41C362.5 38.7909 364.291 37 366.5 37H367.5C369.709 37 371.5 38.7909 371.5 41V42C371.5 44.2091 369.709 46 367.5 46H366.5C364.291 46 362.5 44.2091 362.5 42V41Z"></path><path d="M331 28C331 23.0294 335.029 19 340 19C344.971 19 349 23.0294 349 28C349 28.5 349 29.5 349 30V41C349 41 349.019 41.7203 349.212 42.2893C349.749 43.8659 351.242 45 353 45C355.209 45 357 43.2091 357 41V29C357 28.8901 356.996 28.7813 356.987 28.6737C356.996 28.4502 357 28.2256 357 28C357 18.6112 349.389 11 340 11C330.611 11 323 18.6112 323 28C323 37.3888 330.611 45 340 45C342.11 45 344.133 44.6143 346 43.9097V34.7086C345.778 34.9071 345.546 35.095 345.305 35.2714C343.818 36.3591 341.99 37 340 37C335.029 37 331 32.9706 331 28Z"></path><path fill-rule="evenodd" clip-rule="evenodd" d="M310.5 4C310.5 1.79086 312.291 0 314.5 0H315.5C317.709 0 319.5 1.79086 319.5 4V5C319.5 7.20914 317.709 9 315.5 9H314.5C312.291 9 310.5 7.20914 310.5 5V4Z"></path><path fill-rule="evenodd" clip-rule="evenodd" d="M315 11C317.209 11 319 12.7909 319 15V41C319 48.732 312.732 55 305 55H304C301.791 55 300 53.2091 300 51C300 48.7909 301.791 47 304 47H305C308.314 47 311 44.3137 311 41V15C311 12.7909 312.791 11 315 11Z"></path><path d="M280 28C280 23.0294 284.029 19 289 19C293.971 19 298 23.0294 298 28C298 28.5 298 29.5 298 30V41C298 41 298.019 41.7203 298.212 42.2893C298.749 43.8659 300.242 45 302 45C304.209 45 306 43.2091 306 41V29C306 28.8901 305.996 28.7813 305.987 28.6737C305.996 28.4502 306 28.2256 306 28C306 18.6112 298.389 11 289 11C279.611 11 272 18.6112 272 28C272 37.3888 279.611 45 289 45C291.11 45 293.133 44.6143 295 43.9097V34.7086C294.778 34.9071 294.546 35.095 294.305 35.2714C292.818 36.3591 290.99 37 289 37C284.029 37 280 32.9706 280 28Z"></path><path fill-rule="evenodd" clip-rule="evenodd" d="M256.36 18.4491C255.717 18.6569 255.179 19.149 254.931 19.8199C254.497 20.9966 255.102 22.3021 256.281 22.7311L261.781 24.7332C262.262 24.9083 262.69 25.1661 263.053 25.4848C267.996 27.663 270.455 33.3444 268.558 38.4857C266.846 43.1243 262.082 45.8945 257.204 45.088L256.348 44.9465C256.121 44.9091 255.902 44.8533 255.692 44.781C254.509 44.6034 253.398 44.297 252.35 43.8005C250.33 42.8435 248.993 41.3909 247.873 39.9859C246.495 38.2587 246.779 35.7419 248.506 34.3646C250.233 32.9873 252.75 33.2709 254.127 34.9981C255.007 36.1011 255.42 36.4025 255.775 36.5706C256.176 36.7604 256.98 36.9956 258.993 36.992C259.249 36.9915 259.5 37.0152 259.743 37.0609C260.334 36.8244 260.82 36.3474 261.053 35.7157C261.496 34.5149 260.878 33.1827 259.675 32.7449L254.219 30.7588C253.741 30.5848 253.316 30.3292 252.955 30.0134C248.002 27.8607 245.531 22.1848 247.426 17.05C249.152 12.3741 253.987 9.6139 258.891 10.5055L259.216 10.5645C259.356 10.59 259.493 10.6225 259.626 10.6615C261.214 10.8697 262.635 11.2828 263.914 11.9223C265.888 12.9092 267.21 14.2798 268.2 15.6C269.525 17.3673 269.167 19.8745 267.4 21.2C265.633 22.5255 263.125 22.1673 261.8 20.4C261.29 19.7201 260.862 19.3407 260.336 19.0777C259.783 18.8011 258.809 18.5 257 18.5C256.782 18.5 256.568 18.4826 256.36 18.4491Z"></path><path d="M217 28C217 23.0294 221.029 19 226 19C230.971 19 235 23.0294 235 28C235 28.5 235 29.5 235 30V41C235 41 235.019 41.7203 235.212 42.2893C235.749 43.8659 237.242 45 239 45C241.209 45 243 43.2091 243 41V29C243 28.8901 242.996 28.7813 242.987 28.6737C242.996 28.4502 243 28.2256 243 28C243 18.6112 235.389 11 226 11C216.611 11 209 18.6112 209 28C209 37.3888 216.611 45 226 45C228.11 45 230.133 44.6143 232 43.9097V34.7086C231.778 34.9071 231.546 35.095 231.305 35.2714C229.818 36.3591 227.99 37 226 37C221.029 37 217 32.9706 217 28Z"></path><path fill-rule="evenodd" clip-rule="evenodd" d="M182 28C182 23.0294 186.029 19 191 19C195.971 19 200 23.0294 200 28C200 32.9706 195.971 37 191 37H184V45H191C200.389 45 208 37.3888 208 28C208 18.6112 200.389 11 191 11C181.611 11 174 18.6112 174 28L174 51C174 53.2091 175.791 55 178 55C180.209 55 182 53.2091 182 51L182 28Z"></path><path d="M144 28C144 23.0294 148.029 19 153 19C157.971 19 162 23.0294 162 28C162 28.5 162 29.5 162 30V41C162 41 162.019 41.7203 162.212 42.2893C162.749 43.8659 164.242 45 166 45C168.209 45 170 43.2091 170 41V29C170 28.8901 169.996 28.7813 169.987 28.6737C169.996 28.4502 170 28.2256 170 28C170 18.6112 162.389 11 153 11C143.611 11 136 18.6112 136 28C136 37.3888 143.611 45 153 45C155.11 45 157.133 44.6143 159 43.9097V34.7086C158.778 34.9071 158.546 35.095 158.305 35.2714C156.818 36.3591 154.99 37 153 37C148.029 37 144 32.9706 144 28Z"></path><path fill-rule="evenodd" clip-rule="evenodd" d="M112 0C114.209 0 116 1.79086 116 4V11L130 11C132.209 11 134 12.7909 134 15C134 17.2091 132.209 19 130 19H116L116 27C116 32.5228 120.477 37 126 37H131C133.209 37 135 38.7909 135 41C135 43.2091 133.209 45 131 45H126C116.059 45 108 36.9411 108 27V4C108 1.79086 109.791 0 112 0Z"></path><path fill-rule="evenodd" clip-rule="evenodd" d="M79.1655 31.5H101C102.933 31.5 104.5 29.933 104.5 28C104.5 18.8873 97.1127 11.5 88 11.5C78.8873 11.5 71.5 18.8873 71.5 28C71.5 37.1127 78.8873 44.5 88 44.5C92.6788 44.5 96.9076 42.548 99.9062 39.4234C101.245 38.0287 101.199 35.8131 99.8043 34.4747C98.4096 33.1363 96.194 33.1819 94.8556 34.5766C93.1223 36.3827 90.6946 37.5 88 37.5C83.9893 37.5 80.5591 35.0146 79.1655 31.5ZM88 18.5C83.9893 18.5 80.5591 20.9854 79.1655 24.5H96.8345C95.4409 20.9854 92.0107 18.5 88 18.5Z"></path><path d="M51 4C51 1.79086 49.2091 0 47 0C44.7909 0 43 1.79086 43 4V41C43 43.2091 44.7909 45 47 45C49.2091 45 51 43.2091 51 41V36.2426C51.1699 36.1195 51.3322 35.9815 51.4853 35.8284L53.5 33.8137L63.5147 43.8284C65.0768 45.3905 67.6095 45.3905 69.1716 43.8284C70.7337 42.2663 70.7337 39.7337 69.1716 38.1716L59.1569 28.1569L67.8284 19.4853C69.3905 17.9232 69.3905 15.3905 67.8284 13.8284C66.2663 12.2663 63.7337 12.2663 62.1716 13.8284L51 25L51 4Z"></path><path fill-rule="evenodd" clip-rule="evenodd" d="M33 12C35.2091 12 37 13.7909 37 16V41C37 43.2091 35.2091 45 33 45C30.7909 45 29 43.2091 29 41V16C29 13.7909 30.7909 12 33 12Z"></path><path fill-rule="evenodd" clip-rule="evenodd" d="M29 4C29 1.79086 30.7909 0 33 0H34C36.2091 0 38 1.79086 38 4V5C38 7.20914 36.2091 9 34 9H33C30.7909 9 29 7.20914 29 5V4Z"></path><path fill-rule="evenodd" clip-rule="evenodd" d="M4 0C6.20914 0 8 1.79086 8 4V11L22 11C24.2091 11 26 12.7909 26 15C26 17.2091 24.2091 19 22 19H8L8 27C8 32.5228 12.4772 37 18 37H23C25.2091 37 27 38.7909 27 41C27 43.2091 25.2091 45 23 45H18C8.05887 45 0 36.9411 0 27V4C0 1.79086 1.79086 0 4 0Z"></path></g><g id="logo/aai" viewBox="0 0 199 68"><path fill-rule="evenodd" clip-rule="evenodd" d="M34.9516 34.4416H23.0982V17.2384L34.9516 34.4416ZM31.0822 32.6753H24.875V23.1139L31.0822 32.6753Z" fill="#9F290A"></path><path fill-rule="evenodd" clip-rule="evenodd" d="M4.44196 3.53247H34.6473L57.1707 36.2078H79.9554V48.5714H65.5843L76.4018 64.4675H58.6339L47.8164 48.5714H21.3214V64.4675H4.44196V3.53247ZM39.4028 36.2078L21.3214 9.63749V36.2078H39.4028Z" fill="#9F290A"></path><path fill-rule="evenodd" clip-rule="evenodd" d="M104.83 34.4416H116.684L104.83 17.2384V34.4416ZM106.607 32.6753H112.814L106.607 23.1139V32.6753Z" fill="#9F290A"></path><path fill-rule="evenodd" clip-rule="evenodd" d="M116.379 3.53247H86.1741V64.4675H103.054V48.5714H129.549L140.366 64.4675H158.134L147.316 48.5714H161.688V36.2078H138.903L116.379 3.53247ZM103.054 9.63749L121.135 36.2078H103.054V9.63749Z" fill="#9F290A"></path><path d="M168.795 3.53247H193.67V64.4675H168.795V3.53247Z" fill="#9F290A"></path><path fill-rule="evenodd" clip-rule="evenodd" d="M0 0H38.2009L60.3992 32.6753H81.7321V0H119.933L142.131 32.6753H163.464V0H199V68H136.812L126.013 52.1039H106.607V68H55.0804L44.2812 52.1039H24.875V68H0V0ZM81.7321 64.0769V52.1039H73.5982L81.7321 64.0769ZM81.7321 50.3377V34.4416H58.9382L36.4241 1.76623H2.66518V66.2338H23.0982V50.3377H45.9044L56.8571 66.2338H80.8437L69.891 50.3377H81.7321ZM163.464 52.1039V64.0769L155.33 52.1039H163.464ZM163.464 34.4416V50.3377H151.623L162.576 66.2338H138.589L127.637 50.3377H104.83V66.2338H84.3973V1.76623H118.156L140.67 34.4416H163.464ZM196.335 1.76623H166.129V66.2338H196.335V1.76623Z" fill="#9F290A"></path></g><g id="logo/bkpm" viewBox="0 0 548 76"><path fill-rule="evenodd" clip-rule="evenodd" d="M96.3198 27.7564C87.77 28.2301 80.8851 29.6843 76.543 32.6484C71.9784 35.9384 69.1466 39.695 68.5632 44.0655C68.1721 45.4103 68.0898 58.1203 68.0929 65.537L48.158 76L27.9625 65.9248L28.2268 46.2917C28.0863 36.1748 30.88 26.4116 37.2331 17.0875C41.6438 11.8595 45.7965 5.53643 52.9289 1.38586C54.4361 0.212749 57.0581 -0.2503 61.0052 0.130411C64.6503 0.476619 67.4578 1.32744 69.7095 2.52133C58.4793 7.07692 49.5275 13.6431 43.7543 23.0087C40.2948 28.9707 38.033 35.2726 37.5868 42.0859L37.3465 61.3896L43.4111 64.8375L43.748 45.0363C44.4686 35.6843 47.5986 28.4187 52.548 22.9162C56.1213 18.6825 61.8356 14.5218 68.5734 11.2589C71.4426 9.89363 74.9782 9.4886 78.5342 10.3261C82.0074 11.1734 85.0311 12.3637 87.6535 13.8591C77.2915 15.8423 67.9693 19.7564 63.3291 24.1681C57.7614 29.729 53.7049 35.4479 53.0804 41.5232C52.7128 44.0619 52.6645 56.803 52.6065 64.5733L58.994 61.5095L58.97 44.2744C59.6597 38.9984 62.186 34.4869 65.8859 30.4563C68.0038 28.1544 74.309 24.2642 79.5224 22.4771C85.7827 19.9384 92.1086 23.4102 96.3198 27.7564" fill="#49A85E"></path><path fill-rule="evenodd" clip-rule="evenodd" d="M0 27.7564C8.54617 28.2301 15.4348 29.6843 19.7767 32.6484C24.3416 35.9384 27.1733 39.695 27.7569 44.0655C28.1479 45.4103 27.966 58.5078 27.9625 65.9248L48.1581 76L68.0929 65.537V46.2917C68.2338 36.1748 65.4364 26.4116 59.0866 17.0875C54.6762 11.8595 50.5196 5.53643 43.3911 1.38586C41.8839 0.212749 39.2616 -0.2503 35.3147 0.130411C31.6697 0.476619 28.862 1.32744 26.6102 2.52133C37.8374 7.07692 46.7925 13.6431 52.5653 23.0087C56.0252 28.9707 58.2867 35.2726 58.7331 42.0859L58.994 61.5095L52.6065 64.5733L52.572 45.0363C51.8514 35.6843 48.7214 28.4187 43.7716 22.9162C40.1987 18.6825 34.4841 14.5218 27.7464 11.2589C24.8771 9.89363 21.3382 9.4886 17.7859 10.3261C14.3124 11.1734 11.2888 12.3637 8.66648 13.8591C19.0282 15.8423 28.3506 19.7564 32.9909 24.1681C38.5584 29.729 42.6152 35.4479 43.2397 41.5232C43.6068 44.0619 43.353 57.0637 43.4111 64.8375L37.3466 61.3896V44.2744C36.6601 38.9984 34.134 34.4869 30.4338 30.4563C28.3162 28.1544 22.0109 24.2642 16.7975 22.4771C10.5371 19.9384 4.21117 23.4102 0 27.7564" fill="#263D93"></path><path d="M123.667 38.5903L129.211 27.8845H135.602L132.099 47.7383H128.025L130.618 33.0392H130.507C128.331 37.1458 126.155 41.2525 123.979 45.3591H120.463L118.34 33.0392H118.172L115.579 47.7383H111.672L115.175 27.8845H121.733L123.555 38.5903H123.667Z" fill="#263D93"></path><path d="M140.4 27.8845H144.669L141.167 47.7383H136.898L140.4 27.8845Z" fill="#263D93"></path><path d="M152.309 33.294C152.155 35.2768 151.969 36.8063 151.364 40.2331L150.04 47.7383H145.966L149.469 27.8845H154.575L157.187 35.7014C157.829 37.5991 158.5 39.8081 158.875 41.7908H158.987C159.253 39.0153 159.738 36.268 160.108 34.1723L161.217 27.8845H165.263L161.761 47.7383H156.766L153.947 39.3552C153.31 37.4293 152.846 35.4752 152.421 33.294H152.309Z" fill="#263D93"></path><path d="M170.062 27.8845H174.332L170.829 47.7383H166.559L170.062 27.8845Z" fill="#263D93"></path><path d="M184.823 42.4425C185.377 39.2984 176.289 39.723 177.393 33.4642C177.972 30.1789 181.273 27.6014 185.32 27.6014C188.585 27.6014 190.352 29.1309 190.844 29.9802L187.628 33.1811C187.259 32.5859 186.362 31.3399 184.297 31.3399C182.902 31.3399 181.981 32.1331 181.806 33.1243C181.242 36.3244 190.312 35.8433 189.198 42.1586C188.673 45.1325 185.736 48.0214 180.769 48.0214C177.001 48.0214 174.957 46.3225 174.422 45.5575L177.479 41.9888C178.167 42.8388 179.599 44.368 181.971 44.368C183.673 44.368 184.638 43.4905 184.823 42.4425Z" fill="#263D93"></path><path d="M196.388 31.4532H191.532L192.162 27.8845H206.142L205.513 31.4532H200.657L197.784 47.7383H193.515L196.388 31.4532Z" fill="#263D93"></path><path d="M211.106 36.9192H212.724C214.984 36.9192 215.885 35.9276 216.209 34.0868C216.529 32.2742 215.614 31.4532 213.744 31.4532H212.07L211.106 36.9192ZM214.848 27.8845C219.174 27.8845 221.334 29.5555 220.6 33.719C219.99 37.1741 217.863 38.7887 215.495 39.2415L215.475 39.3552C216.418 39.8653 216.93 40.6009 217.556 42.2723L219.578 47.7383H214.499L212.4 41.2811C212.163 40.5726 211.673 40.346 210.78 40.346H210.501L209.197 47.7383H204.983L208.485 27.8845H214.848Z" fill="#263D93"></path><path d="M230.83 41.3658L229.707 47.7383H225.437L226.561 41.3658L222.354 27.8845H227.098L229.474 37.0329H229.586L235.274 27.8845H239.795L230.83 41.3658Z" fill="#263D93"></path><path d="M254.205 44.4248C256.437 44.4248 258.089 42.8102 258.953 37.9104C259.828 32.9541 258.659 31.1984 256.287 31.1984C254.194 31.1984 252.445 32.7275 251.576 37.6559C250.691 42.6687 251.833 44.4248 254.205 44.4248ZM253.319 48.0214C248.436 48.0214 245.836 45.3591 247.145 37.9386C248.419 30.7165 252.429 27.6014 257.172 27.6014C262.028 27.6014 264.702 30.3201 263.398 37.712C262.123 44.9341 258.091 48.0214 253.319 48.0214Z" fill="#263D93"></path><path d="M265.172 47.7383L268.674 27.8845H280.255L279.625 31.4532H272.287L271.357 36.7208H277.664L277.034 40.2895H270.728L269.414 47.7383H265.172Z" fill="#263D93"></path><path d="M291.667 27.8845H295.937L292.434 47.7383H288.164L291.667 27.8845Z" fill="#263D93"></path><path d="M303.576 33.294C303.422 35.2768 303.236 36.8063 302.631 40.2331L301.307 47.7383H297.233L300.736 27.8845H305.843L308.454 35.7014C309.096 37.5991 309.767 39.8081 310.143 41.7908H310.254C310.52 39.0153 311.005 36.268 311.375 34.1723L312.484 27.8845H316.531L313.028 47.7383H308.033L305.214 39.3552C304.577 37.4293 304.113 35.4752 303.688 33.294H303.576Z" fill="#263D93"></path><path d="M319.069 27.8845H323.813L324.927 38.6471C325.105 40.4879 325.298 42.2441 325.354 44.141H325.465C326.153 42.3005 326.881 40.5444 327.751 38.6189L332.659 27.8845H337.152L327.37 47.7383H321.845L319.069 27.8845Z" fill="#263D93"></path><path d="M336.131 47.7383L339.634 27.8845H351.215L350.585 31.4532H343.246L342.466 35.8716H348.772L348.143 39.4403H341.837L341.003 44.1696H348.676L348.047 47.7383H336.131Z" fill="#263D93"></path><path d="M361.091 42.4425C361.646 39.2984 352.557 39.723 353.661 33.4642C354.241 30.1789 357.542 27.6014 361.588 27.6014C364.853 27.6014 366.621 29.1309 367.112 29.9802L363.897 33.1811C363.527 32.5859 362.631 31.3399 360.566 31.3399C359.171 31.3399 358.249 32.1331 358.075 33.1243C357.51 36.3244 366.581 35.8433 365.466 42.1586C364.942 45.1325 362.004 48.0214 357.037 48.0214C353.27 48.0214 351.226 46.3225 350.691 45.5575L353.748 41.9888C354.436 42.8388 355.868 44.368 358.24 44.368C359.942 44.368 360.906 43.4905 361.091 42.4425Z" fill="#263D93"></path><path d="M372.656 31.4532H367.801L368.431 27.8845H382.411L381.782 31.4532H376.926L374.053 47.7383H369.784L372.656 31.4532Z" fill="#263D93"></path><path d="M393.302 38.5903L398.845 27.8845H405.239L401.736 47.7383H397.66L400.253 33.0392H400.143C397.966 37.1458 395.789 41.2525 393.616 45.3591H390.099L387.975 33.0392H387.807L385.214 47.7383H381.308L384.81 27.8845H391.368L393.192 38.5903H393.302Z" fill="#263D93"></path><path d="M406.31 47.7383L409.813 27.8845H421.393L420.761 31.4532H413.426L412.645 35.8716H418.949L418.321 39.4403H412.014L411.182 44.1696H418.855L418.223 47.7383H406.31Z" fill="#263D93"></path><path d="M428.419 33.294C428.262 35.2768 428.077 36.8063 427.473 40.2331L426.147 47.7383H422.076L425.579 27.8845H430.682L433.295 35.7014C433.938 37.5991 434.609 39.8081 434.985 41.7908H435.095C435.362 39.0153 435.845 36.268 436.217 34.1723L437.327 27.8845H441.372L437.869 47.7383H432.875L430.055 39.3552C429.419 37.4293 428.956 35.4752 428.529 33.294H428.419Z" fill="#263D93"></path><path d="M447.997 31.4142H443.141L443.772 27.8455H457.749L457.122 31.4142H452.265L449.394 47.6993H445.122L447.997 31.4142Z" fill="#263D93"></path><path d="M469.086 27.063L456.745 52.2413H453.258L465.595 27.063H469.086Z" fill="#263D93"></path><path d="M478.68 31.2062H476.328L475.544 35.6521H477.724C479.847 35.6521 480.871 34.5622 481.074 33.4148C481.291 32.1818 480.746 31.2062 478.68 31.2062ZM480.363 41.6753C480.671 39.9258 479.325 39.2662 477.689 39.2662H474.906L474.056 44.085H477.069C479.278 44.085 480.161 42.8231 480.363 41.6753ZM484.835 41.5321C484.374 44.1423 482.428 47.6992 475.743 47.6992H469.086L472.633 27.592H479.834C483.392 27.592 486.111 28.7681 485.398 32.8124C484.998 35.0784 483.339 36.5125 481.722 37.0576L481.702 37.1724C483.584 37.4019 485.336 38.6925 484.835 41.5321Z" fill="#49A85E"></path><path d="M501.638 27.5922H506.688L498.708 37.373L503.773 47.6993H498.292L493.91 37.5738L493.93 37.4589L501.638 27.5922ZM492.009 47.6993H487.619L491.166 27.5922H495.556L492.009 47.6993Z" fill="#49A85E"></path><path d="M513.493 31.292L512.491 36.9713H513.926C516.852 36.9713 517.706 35.7093 517.979 34.1606C518.329 32.1817 517.51 31.292 515.272 31.292H513.493ZM522.619 33.5582C521.956 37.3159 519.405 40.5571 513.523 40.5571H511.859L510.599 47.6991H506.21L509.756 27.5923H516.642C520.716 27.5923 523.403 29.112 522.619 33.5582Z" fill="#49A85E"></path><path d="M535.759 38.4341L541.43 27.592H548L544.454 47.6992H540.265L542.89 32.8124H542.776C540.55 36.9713 538.325 41.1305 536.099 45.2897H532.484L530.266 32.8124H530.094L527.469 47.6992H523.452L526.999 27.592H533.741L535.644 38.4341H535.759Z" fill="#49A85E"></path></g><g id="logo/bkpm-square" viewBox="0 0 231 139"><g clip-path="url(#clip0_2772_4742)"><path fill-rule="evenodd" clip-rule="evenodd" d="M172.254 32.9378C162.13 33.5003 153.978 35.2257 148.837 38.743C143.432 42.6473 140.078 47.1057 139.388 52.2915C138.925 53.8876 138.826 68.9705 138.832 77.7721L115.226 90.1884L91.3121 78.2324L91.6257 54.9342C91.4599 42.9285 94.7668 31.3429 102.29 20.277C107.513 14.0742 112.429 6.57076 120.875 1.64479C122.66 0.252806 125.765 -0.296631 130.439 0.154311C134.755 0.566091 138.078 1.57478 140.745 2.99168C127.447 8.39825 116.847 16.19 110.011 27.3057C105.915 34.3808 103.236 41.8593 102.709 49.9442L102.425 72.8522L109.606 76.9439L110.004 53.4449C110.857 42.347 114.564 33.7257 120.424 27.1954C124.655 22.1721 131.422 17.2343 139.4 13.3622C142.797 11.7423 146.984 11.2617 151.194 12.255C155.307 13.2601 158.887 14.6734 161.993 16.4475C149.723 18.8008 138.685 23.4454 133.189 28.6823C126.597 35.2803 121.794 42.067 121.055 49.2761C120.619 52.2891 120.563 67.4085 120.494 76.6291L128.057 72.9944L128.029 52.5407C128.846 46.2797 131.836 40.9266 136.218 36.143C138.725 33.4113 146.191 28.795 152.364 26.6744C159.778 23.6614 167.269 27.7816 172.254 32.9402" fill="#49A85E"></path><path fill-rule="evenodd" clip-rule="evenodd" d="M58.7179 32.9378C68.8386 33.5003 76.9953 35.2257 82.1366 38.743C87.5406 42.6473 90.894 47.1057 91.5857 52.2915C92.0477 53.8876 91.8328 69.4308 91.8283 78.2324L115.742 90.1884L139.347 77.7721V54.9342C139.514 42.9285 136.201 31.3429 128.682 20.277C123.459 14.0742 118.538 6.57076 110.097 1.64479C108.314 0.252806 105.208 -0.296631 100.535 0.154311C96.2186 0.566091 92.8943 1.57478 90.2268 2.99168C103.522 8.39825 114.126 16.19 120.961 27.3046C125.058 34.3796 127.736 41.8581 128.264 49.943L128.572 72.9931L121.01 76.6278L120.968 53.4438C120.116 42.3459 116.409 33.7246 110.548 27.1942C106.318 22.171 99.5513 17.2332 91.5721 13.3609C88.1755 11.7412 83.9853 11.2606 79.7782 12.2538C75.6654 13.2589 72.0862 14.6723 68.9806 16.4464C81.2507 18.7996 92.289 23.4443 97.7833 28.6811C104.376 35.2791 109.179 42.0658 109.919 49.2749C110.353 52.2879 110.052 67.7163 110.121 76.9426L102.94 72.8509V52.5395C102.128 46.2785 99.1358 40.9253 94.7558 36.1418C92.2477 33.4101 84.7815 28.7939 78.6084 26.6733C71.1951 23.6603 63.7053 27.7792 58.7179 32.9378Z" fill="#263D93"></path><path d="M7.73721 111.258L11.3145 104.337H15.437L13.1773 117.172H10.5492L12.2217 107.669H12.1501L7.93917 115.634H5.67111L4.30125 107.669H4.19284L2.52035 117.173H0L2.25967 104.337H6.48994L7.66559 111.258H7.73721ZM18.5323 104.337H21.2862L19.0265 117.172H16.2726L18.5323 104.337ZM26.2153 107.834C26.1153 109.116 25.9952 110.105 25.6055 112.321L24.7512 117.172H22.1231L24.3828 104.337H27.6768L29.3615 109.39C29.7758 110.617 30.2081 112.046 30.4507 113.328H30.523C30.6946 111.533 31.0069 109.757 31.2457 108.402L31.9612 104.337H34.5719L32.3123 117.172H29.0899L27.2715 111.753C26.8605 110.508 26.5611 109.244 26.2869 107.834H26.2153ZM37.6672 104.337H40.4211L38.1621 117.172H35.4075L37.6672 104.337ZM47.1892 113.749C47.5473 111.716 41.6839 111.991 42.3962 107.944C42.7705 105.82 44.8998 104.154 47.5099 104.154C49.616 104.154 50.7561 105.143 51.0736 105.692L48.9991 107.761C48.761 107.377 48.1829 106.571 46.8504 106.571C45.9503 106.571 45.356 107.084 45.2431 107.724C44.8792 109.793 50.731 109.483 50.0115 113.566C49.6734 115.488 47.7783 117.355 44.574 117.355C42.144 117.355 40.8251 116.257 40.4798 115.762L42.4524 113.456C42.8957 114.005 43.8197 114.994 45.3502 114.994C46.4478 114.994 47.0698 114.426 47.1892 113.749ZM54.6496 106.644H51.5175L51.924 104.337H60.9421L60.5362 106.645H57.4035L55.5503 117.172H52.7964L54.6496 106.644ZM64.1438 110.179H65.1878C66.6461 110.179 67.2268 109.537 67.4365 108.347C67.643 107.175 67.0519 106.644 65.846 106.644H64.7658L64.1438 110.179ZM66.5583 104.337C69.3484 104.337 70.7428 105.417 70.2685 108.109C69.8756 110.343 68.5031 111.387 66.9758 111.68L66.9629 111.753C67.5707 112.082 67.9011 112.558 68.305 113.639L69.6091 117.172H66.3331L64.9794 112.998C64.8258 112.54 64.5097 112.393 63.9341 112.393H63.7541L62.9127 117.172H60.1942L62.4539 104.337H66.5583ZM76.8688 113.053L76.1435 117.172H73.389L74.1142 113.053L71.4003 104.337H74.4607L75.9938 110.252H76.0655L79.735 104.337H82.6515L76.8688 113.053ZM91.9477 115.031C93.3872 115.031 94.4532 113.986 95.0107 110.819C95.5753 107.614 94.821 106.479 93.2904 106.479C91.9406 106.479 90.812 107.468 90.2513 110.654C89.6809 113.895 90.4171 115.031 91.9477 115.031ZM91.376 117.355C88.2259 117.355 86.5482 115.634 87.3929 110.837C88.2149 106.168 90.8017 104.154 93.8621 104.154C96.9942 104.154 98.7189 105.912 97.8775 110.691C97.0555 115.36 94.4545 117.355 91.376 117.355ZM99.0222 117.172L101.282 104.337H108.752L108.346 106.645H103.612L103.012 110.05H107.081L106.674 112.357H102.606L101.759 117.172H99.0222ZM116.114 104.337H118.869L116.609 117.172H113.855L116.114 104.337ZM123.797 107.834C123.698 109.116 123.578 110.105 123.188 112.321L122.334 117.172H119.706L121.965 104.337H125.259L126.944 109.39C127.358 110.617 127.791 112.046 128.033 113.328H128.105C128.277 111.533 128.59 109.757 128.828 108.402L129.544 104.337H132.154L129.895 117.172H126.673L124.854 111.753C124.443 110.508 124.143 109.244 123.87 107.834H123.797ZM133.792 104.337H136.851L137.571 111.295C137.685 112.485 137.81 113.621 137.846 114.847H137.918C138.368 113.641 138.86 112.45 139.392 111.277L142.559 104.337H145.456L139.147 117.172H135.583L133.792 104.337ZM144.798 117.172L147.058 104.337H154.529L154.122 106.645H149.388L148.885 109.501H152.953L152.547 111.808H148.479L147.941 114.866H152.891L152.485 117.172H144.798ZM160.9 113.749C161.257 111.716 155.395 111.991 156.106 107.944C156.481 105.82 158.61 104.154 161.221 104.154C163.327 104.154 164.467 105.143 164.784 105.692L162.71 107.761C162.471 107.377 161.893 106.571 160.561 106.571C159.661 106.571 159.066 107.084 158.954 107.724C158.59 109.793 164.441 109.483 163.722 113.566C163.384 115.488 161.489 117.355 158.285 117.355C155.854 117.355 154.535 116.257 154.191 115.762L156.162 113.456C156.606 114.005 157.53 114.994 159.06 114.994C160.158 114.994 160.781 114.426 160.9 113.749ZM168.36 106.644H165.228L165.635 104.337H174.653L174.248 106.645H171.115L169.262 117.172H166.507L168.36 106.644ZM181.679 111.258L185.255 104.337H189.38L187.12 117.172H184.491L186.163 107.669H186.092C184.688 110.325 183.284 112.979 181.882 115.634H179.613L178.243 107.669H178.135L176.462 117.173H173.942L176.201 104.337H180.432L181.608 111.258H181.679ZM190.07 117.172L192.331 104.337H199.801L199.393 106.645H194.661L194.157 109.501H198.224L197.819 111.808H193.75L193.213 114.866H198.163L197.756 117.172H190.07ZM204.333 107.834C204.232 109.116 204.112 110.105 203.723 112.321L202.868 117.172H200.241L202.501 104.337H205.793L207.479 109.39C207.894 110.617 208.326 112.046 208.569 113.328H208.64C208.812 111.533 209.123 109.757 209.363 108.402L210.08 104.337H212.689L210.429 117.172H207.208L205.388 111.753C204.978 110.508 204.68 109.244 204.403 107.834H204.333ZM216.963 106.619H213.83L214.238 104.311H223.254L222.849 106.619H219.716L217.864 117.147H215.108L216.963 106.619ZM230.568 103.806L222.606 120.084H220.357L228.315 103.806H230.568Z" fill="#263D93"></path><path d="M95.8792 127.819H94.3616L93.8557 130.694H95.2623C96.6322 130.694 97.2923 129.989 97.4233 129.247C97.5633 128.45 97.2116 127.819 95.8792 127.819ZM96.9645 134.588C97.1632 133.457 96.2947 133.03 95.2397 133.03H93.4447L92.8962 136.146H94.8397C96.2644 136.146 96.8342 135.33 96.9645 134.588ZM99.8494 134.495C99.5526 136.182 98.2963 138.482 93.9841 138.482H89.6899L91.978 125.483H96.6232C98.9183 125.483 100.673 126.243 100.213 128.858C99.9546 130.323 98.8848 131.25 97.8414 131.603L97.8285 131.676C99.0422 131.825 100.173 132.659 99.8494 134.495ZM110.69 125.483H113.947L108.8 131.806L112.067 138.482H108.531L105.704 131.936L105.717 131.862L110.69 125.483ZM104.478 138.483H101.646L103.934 125.483H106.766L104.478 138.483ZM118.337 127.875L117.691 131.547H118.617C120.505 131.547 121.055 130.73 121.231 129.73C121.456 128.45 120.928 127.875 119.484 127.875H118.337ZM124.224 129.34C123.797 131.769 122.151 133.865 118.357 133.865H117.283L116.47 138.482H113.638L115.927 125.483H120.368C122.997 125.483 124.73 126.465 124.224 129.34ZM132.7 132.492L136.359 125.483H140.597L138.31 138.483H135.607L137.301 128.859H137.227L132.92 136.925H130.588L129.157 128.859H129.046L127.353 138.483H124.762L127.049 125.483H131.399L132.627 132.493L132.7 132.492Z" fill="#49A85E"></path></g><defs><clipPath id="clip0_2772_4742"><rect width="231" height="139" fill="white"></rect></clipPath></defs></g></svg>