<svg width="129" height="129" viewBox="0 0 129 129" fill="none" xmlns="http://www.w3.org/2000/svg">
<g clip-path="url(#clip0_2839_5614)">
<path d="M42.334 90.7959H53.9889V125.247H42.334V90.7959Z" fill="#F9FAFC" stroke="#0057F2" stroke-width="3"/>
<path d="M21.2939 47.7471C21.2939 40.5674 27.1142 34.7471 34.2939 34.7471H61.2143C68.394 34.7471 74.2143 40.5674 74.2143 47.7471V91.7648C74.2143 98.9445 68.394 104.765 61.2143 104.765H34.2939C27.1142 104.765 21.2939 98.9445 21.2939 91.7648V47.7471Z" fill="#F9FAFC"/>
<path d="M26.9931 50.2603C26.9931 45.2898 31.0225 41.2603 35.9931 41.2603H59.5152C64.4857 41.2603 68.5152 45.2898 68.5152 50.2603V81.9241C68.5152 86.8946 64.4857 90.9241 59.5152 90.9241H35.9931C31.0225 90.9241 26.9931 86.8946 26.9931 81.9241V50.2603Z" fill="#F9FAFC"/>
<path d="M21.2939 47.7471C21.2939 40.5674 27.1142 34.7471 34.2939 34.7471H61.2143C68.394 34.7471 74.2143 40.5674 74.2143 47.7471V91.7648C74.2143 98.9445 68.394 104.765 61.2143 104.765H34.2939C27.1142 104.765 21.2939 98.9445 21.2939 91.7648V47.7471Z" stroke="#0057F2" stroke-width="3"/>
<path d="M26.9931 50.2603C26.9931 45.2898 31.0225 41.2603 35.9931 41.2603H59.5152C64.4857 41.2603 68.5152 45.2898 68.5152 50.2603V81.9241C68.5152 86.8946 64.4857 90.9241 59.5152 90.9241H35.9931C31.0225 90.9241 26.9931 86.8946 26.9931 81.9241V50.2603Z" stroke="#0057F2" stroke-width="3"/>
<g clip-path="url(#clip1_2839_5614)">
<path d="M48.1585 59.3094C44.9007 59.3094 42.2179 61.764 41.847 64.9252C41.8283 65.0849 41.8143 65.2456 41.8067 65.4081C41.7999 65.5546 41.919 65.6735 42.0653 65.6735H43.0308C43.1771 65.6735 43.295 65.5545 43.3043 65.4082C43.3147 65.245 43.3339 65.0843 43.3586 64.9252C43.719 62.5939 45.7283 60.806 48.1585 60.806C50.8435 60.806 53.019 62.9859 53.019 65.6735C53.019 68.3612 50.8435 70.5387 48.1585 70.5387H40.8646C40.6566 70.5387 40.5311 70.7673 40.6502 70.9383C40.8998 71.2969 41.174 71.6372 41.4712 71.9556C41.5205 72.0084 41.5897 72.0377 41.6618 72.0377H48.1585C51.6697 72.0377 54.5166 69.1882 54.5165 65.6735C54.5165 62.1589 51.6697 59.3094 48.1585 59.3094Z" fill="#2B2727"/>
<path d="M48.1585 56.5259C45.312 56.5259 42.7684 57.8235 41.0878 59.8618C39.9165 61.2824 39.187 63.0754 39.036 64.9113C39.0356 64.916 39.034 64.9204 39.0336 64.9252C39.0207 65.0855 39.0089 65.2461 39.0022 65.4081C38.9961 65.5546 39.115 65.6735 39.2612 65.6735H40.2267C40.373 65.6735 40.4911 65.5546 40.4964 65.4081C40.5023 65.2459 40.5134 65.0852 40.5289 64.9252C40.9054 61.0389 44.1771 57.9992 48.1585 57.9992C52.3926 57.9992 55.8254 61.4353 55.8254 65.6735C55.8254 69.9118 52.3926 73.3479 48.1585 73.3478H43.9932C43.7306 73.3478 43.6376 73.6751 43.8698 73.7981C45.0197 74.407 46.3154 74.7748 47.6904 74.8445H48.1585C52.9025 74.8445 56.8024 71.2354 57.2717 66.6107C57.3021 66.31 57.3198 66.0054 57.3205 65.6968C57.3205 65.3803 57.303 65.0657 57.2717 64.7574C56.8024 60.1326 52.9025 56.5259 48.1585 56.5259Z" fill="#2B2727"/>
<path d="M48.1585 62.1161C46.4535 62.1161 45.0325 63.3215 44.6883 64.9252C44.6545 65.0831 44.6291 65.244 44.6156 65.4083C44.6035 65.5544 44.7231 65.6735 44.8694 65.6735H45.8372C45.9834 65.6735 46.1002 65.5541 46.1199 65.4088C46.1427 65.2405 46.1865 65.0788 46.2465 64.9252C46.546 64.1589 47.2868 63.615 48.1585 63.6151C49.2945 63.6151 50.2149 64.5364 50.215 65.6735C50.215 66.8106 49.2945 67.7319 48.1585 67.732H40.7686C40.7121 67.5248 40.6596 67.3093 40.6002 67.1028C40.5585 66.9578 40.4284 66.8577 40.2961 66.8577H39.3389C39.2082 66.8577 39.0916 67.0101 39.1167 67.1546C39.2378 67.801 39.3827 68.4769 39.6439 69.083C39.6847 69.1777 39.7847 69.2286 39.8784 69.2286H48.1585C50.1206 69.2286 51.7101 67.6376 51.7101 65.6735C51.7101 63.7095 50.1206 62.1161 48.1585 62.1161Z" fill="#2B2727"/>
</g>
<path d="M31.0635 123.419C31.0635 121.21 32.8543 119.419 35.0635 119.419H61.2582C63.4673 119.419 65.2582 121.21 65.2582 123.419V124.747C65.2582 125.851 64.3627 126.747 63.2582 126.747H33.0635C31.9589 126.747 31.0635 125.851 31.0635 124.747V123.419Z" fill="#F9FAFC" stroke="#0057F2" stroke-width="3"/>
<path d="M40.8334 96.6232C40.8334 97.0729 40.4689 97.4374 40.0192 97.4374C39.5696 97.4374 39.2051 97.0729 39.2051 96.6232C39.2051 96.1736 39.5696 95.8091 40.0192 95.8091C40.4689 95.8091 40.8334 96.1736 40.8334 96.6232Z" fill="#0057F2"/>
<path d="M48.1608 96.6232C48.1608 97.0729 47.7963 97.4374 47.3467 97.4374C46.897 97.4374 46.5325 97.0729 46.5325 96.6232C46.5325 96.1736 46.897 95.8091 47.3467 95.8091C47.7963 95.8091 48.1608 96.1736 48.1608 96.6232Z" fill="#0057F2"/>
<path d="M56.3024 96.6232C56.3024 97.0729 55.9379 97.4374 55.4883 97.4374C55.0386 97.4374 54.6741 97.0729 54.6741 96.6232C54.6741 96.1736 55.0386 95.8091 55.4883 95.8091C55.9379 95.8091 56.3024 96.1736 56.3024 96.6232Z" fill="#0057F2"/>
<path d="M40.8334 96.6232C40.8334 97.0729 40.4689 97.4374 40.0192 97.4374C39.5696 97.4374 39.2051 97.0729 39.2051 96.6232C39.2051 96.1736 39.5696 95.8091 40.0192 95.8091C40.4689 95.8091 40.8334 96.1736 40.8334 96.6232Z" stroke="#0057F2" stroke-width="3"/>
<path d="M48.1608 96.6232C48.1608 97.0729 47.7963 97.4374 47.3467 97.4374C46.897 97.4374 46.5325 97.0729 46.5325 96.6232C46.5325 96.1736 46.897 95.8091 47.3467 95.8091C47.7963 95.8091 48.1608 96.1736 48.1608 96.6232Z" stroke="#0057F2" stroke-width="3"/>
<path d="M56.3024 96.6232C56.3024 97.0729 55.9379 97.4374 55.4883 97.4374C55.0386 97.4374 54.6741 97.0729 54.6741 96.6232C54.6741 96.1736 55.0386 95.8091 55.4883 95.8091C55.9379 95.8091 56.3024 96.1736 56.3024 96.6232Z" stroke="#0057F2" stroke-width="3"/>
<circle cx="13" cy="13" r="11.5" transform="matrix(-1 0 0 1 109.794 20.7471)" fill="#F9FAFC" stroke="#0057F2" stroke-width="3"/>
<path d="M119.294 89.7471C119.294 92.2471 118.301 94.0967 115.294 94.7471C113.53 95.1285 110.294 94.2471 109.794 91.7471L107.294 68.2471V120.747C107.294 123.247 104.794 126.247 101.294 126.247C97.7939 126.247 95.2939 122.747 95.2939 120.747C95.2939 122.747 93.2939 126.247 88.7939 126.247C86.2939 126.247 83.2939 123.747 83.2939 120.247V66.2471L78.2939 75.2471C77.2939 76.7471 74.2939 77.7471 71.7939 75.7471L56.2939 60.2471C55.294 58.7471 54.8178 56.0833 56.7939 53.7471C58.5274 52.0299 61.2939 52.2471 62.7939 53.2471L73.7939 63.7471L79.2939 53.7471C80.7229 51.3233 81.7939 50.2471 84.7939 50.2471H107.01C112.294 50.2471 115.794 54.2471 116.183 57.7471L119.294 89.7471Z" fill="#F9FAFC"/>
<path d="M95.2939 120.747C95.2939 122.747 93.2939 126.247 88.7939 126.247C86.2939 126.247 83.2939 123.747 83.2939 120.247V66.2471L78.2939 75.2471C77.2939 76.7471 74.2939 77.7471 71.7939 75.7471L56.2939 60.2471C55.294 58.7471 54.8178 56.0833 56.7939 53.7471C58.5274 52.0299 61.2939 52.2471 62.7939 53.2471L73.7939 63.7471L79.2939 53.7471C80.7229 51.3233 81.7939 50.2471 84.7939 50.2471H107.01C112.294 50.2471 115.794 54.2471 116.183 57.7471L119.294 89.7471C119.294 92.2471 118.301 94.0967 115.294 94.7471C113.53 95.1285 110.294 94.2471 109.794 91.7471L107.294 68.2471V120.747C107.294 123.247 104.794 126.247 101.294 126.247C97.7939 126.247 95.2939 122.747 95.2939 120.747ZM95.2939 120.747V94.2471" stroke="#0057F2" stroke-width="3" stroke-linecap="round" stroke-linejoin="round"/>
<path d="M36.334 86.7959H47.9889V121.247H36.334V86.7959Z" fill="#F9FAFC" stroke="#2B2727" stroke-width="3"/>
<path d="M15.2939 43.7471C15.2939 36.5674 21.1142 30.7471 28.2939 30.7471H55.2143C62.394 30.7471 68.2143 36.5674 68.2143 43.7471V87.7648C68.2143 94.9445 62.394 100.765 55.2143 100.765H28.2939C21.1142 100.765 15.2939 94.9445 15.2939 87.7648V43.7471Z" fill="#F9FAFC"/>
<path d="M20.9931 46.2603C20.9931 41.2898 25.0225 37.2603 29.9931 37.2603H53.5152C58.4857 37.2603 62.5152 41.2898 62.5152 46.2603V77.9241C62.5152 82.8946 58.4857 86.9241 53.5152 86.9241H29.9931C25.0225 86.9241 20.9931 82.8946 20.9931 77.9241V46.2603Z" fill="#F9FAFC"/>
<path d="M15.2939 43.7471C15.2939 36.5674 21.1142 30.7471 28.2939 30.7471H55.2143C62.394 30.7471 68.2143 36.5674 68.2143 43.7471V87.7648C68.2143 94.9445 62.394 100.765 55.2143 100.765H28.2939C21.1142 100.765 15.2939 94.9445 15.2939 87.7648V43.7471Z" stroke="#2B2727" stroke-width="3"/>
<path d="M20.9931 46.2603C20.9931 41.2898 25.0225 37.2603 29.9931 37.2603H53.5152C58.4857 37.2603 62.5152 41.2898 62.5152 46.2603V77.9241C62.5152 82.8946 58.4857 86.9241 53.5152 86.9241H29.9931C25.0225 86.9241 20.9931 82.8946 20.9931 77.9241V46.2603Z" stroke="#2B2727" stroke-width="3"/>
<g clip-path="url(#clip2_2839_5614)">
<path d="M42.1585 55.3094C38.9007 55.3094 36.2179 57.764 35.847 60.9252C35.8283 61.0849 35.8143 61.2456 35.8067 61.4081C35.7999 61.5546 35.919 61.6735 36.0653 61.6735H37.0308C37.1771 61.6735 37.295 61.5545 37.3043 61.4082C37.3147 61.245 37.3339 61.0843 37.3586 60.9252C37.719 58.5939 39.7283 56.806 42.1585 56.806C44.8435 56.806 47.019 58.9859 47.019 61.6735C47.019 64.3612 44.8435 66.5387 42.1585 66.5387H34.8646C34.6566 66.5387 34.5311 66.7673 34.6502 66.9383C34.8998 67.2969 35.174 67.6372 35.4712 67.9556C35.5205 68.0084 35.5897 68.0377 35.6618 68.0377H42.1585C45.6697 68.0377 48.5166 65.1882 48.5165 61.6735C48.5165 58.1589 45.6697 55.3094 42.1585 55.3094Z" fill="#2B2727"/>
<path d="M42.1585 52.5259C39.312 52.5259 36.7684 53.8235 35.0878 55.8618C33.9165 57.2824 33.187 59.0754 33.036 60.9113C33.0356 60.916 33.034 60.9204 33.0336 60.9252C33.0207 61.0855 33.0089 61.2461 33.0022 61.4081C32.9961 61.5546 33.115 61.6735 33.2612 61.6735H34.2267C34.373 61.6735 34.4911 61.5546 34.4964 61.4081C34.5023 61.2459 34.5134 61.0852 34.5289 60.9252C34.9054 57.0389 38.1771 53.9992 42.1585 53.9992C46.3926 53.9992 49.8254 57.4353 49.8254 61.6735C49.8254 65.9118 46.3926 69.3479 42.1585 69.3478H37.9932C37.7306 69.3478 37.6376 69.6751 37.8698 69.7981C39.0197 70.407 40.3154 70.7748 41.6904 70.8445H42.1585C46.9025 70.8445 50.8024 67.2354 51.2717 62.6107C51.3021 62.31 51.3198 62.0054 51.3205 61.6968C51.3205 61.3803 51.303 61.0657 51.2717 60.7574C50.8024 56.1326 46.9025 52.5259 42.1585 52.5259Z" fill="#2B2727"/>
<path d="M42.1585 58.1161C40.4535 58.1161 39.0325 59.3215 38.6883 60.9252C38.6545 61.0831 38.6291 61.244 38.6156 61.4083C38.6035 61.5544 38.7231 61.6735 38.8694 61.6735H39.8372C39.9834 61.6735 40.1002 61.5541 40.1199 61.4088C40.1427 61.2405 40.1865 61.0788 40.2465 60.9252C40.546 60.1589 41.2868 59.615 42.1585 59.6151C43.2945 59.6151 44.2149 60.5364 44.215 61.6735C44.215 62.8106 43.2945 63.7319 42.1585 63.732H34.7686C34.7121 63.5248 34.6596 63.3093 34.6002 63.1028C34.5585 62.9578 34.4284 62.8577 34.2961 62.8577H33.3389C33.2082 62.8577 33.0916 63.0101 33.1167 63.1546C33.2378 63.801 33.3827 64.4769 33.6439 65.083C33.6847 65.1777 33.7847 65.2286 33.8784 65.2286H42.1585C44.1206 65.2286 45.7101 63.6376 45.7101 61.6735C45.7101 59.7095 44.1206 58.1161 42.1585 58.1161Z" fill="#2B2727"/>
</g>
<path d="M25.0635 119.419C25.0635 117.21 26.8543 115.419 29.0635 115.419H55.2582C57.4673 115.419 59.2582 117.21 59.2582 119.419V120.747C59.2582 121.851 58.3627 122.747 57.2582 122.747H27.0635C25.9589 122.747 25.0635 121.851 25.0635 120.747V119.419Z" fill="#F9FAFC" stroke="#2B2727" stroke-width="3"/>
<path d="M34.8334 92.6232C34.8334 93.0729 34.4689 93.4374 34.0192 93.4374C33.5696 93.4374 33.2051 93.0729 33.2051 92.6232C33.2051 92.1736 33.5696 91.8091 34.0192 91.8091C34.4689 91.8091 34.8334 92.1736 34.8334 92.6232Z" fill="#2B2727"/>
<path d="M42.1608 92.6232C42.1608 93.0729 41.7963 93.4374 41.3467 93.4374C40.897 93.4374 40.5325 93.0729 40.5325 92.6232C40.5325 92.1736 40.897 91.8091 41.3467 91.8091C41.7963 91.8091 42.1608 92.1736 42.1608 92.6232Z" fill="#2B2727"/>
<path d="M50.3024 92.6232C50.3024 93.0729 49.9379 93.4374 49.4883 93.4374C49.0386 93.4374 48.6741 93.0729 48.6741 92.6232C48.6741 92.1736 49.0386 91.8091 49.4883 91.8091C49.9379 91.8091 50.3024 92.1736 50.3024 92.6232Z" fill="#2B2727"/>
<path d="M34.8334 92.6232C34.8334 93.0729 34.4689 93.4374 34.0192 93.4374C33.5696 93.4374 33.2051 93.0729 33.2051 92.6232C33.2051 92.1736 33.5696 91.8091 34.0192 91.8091C34.4689 91.8091 34.8334 92.1736 34.8334 92.6232Z" stroke="#2B2727" stroke-width="3"/>
<path d="M42.1608 92.6232C42.1608 93.0729 41.7963 93.4374 41.3467 93.4374C40.897 93.4374 40.5325 93.0729 40.5325 92.6232C40.5325 92.1736 40.897 91.8091 41.3467 91.8091C41.7963 91.8091 42.1608 92.1736 42.1608 92.6232Z" stroke="#2B2727" stroke-width="3"/>
<path d="M50.3024 92.6232C50.3024 93.0729 49.9379 93.4374 49.4883 93.4374C49.0386 93.4374 48.6741 93.0729 48.6741 92.6232C48.6741 92.1736 49.0386 91.8091 49.4883 91.8091C49.9379 91.8091 50.3024 92.1736 50.3024 92.6232Z" stroke="#2B2727" stroke-width="3"/>
<circle cx="13" cy="13" r="11.5" transform="matrix(-1 0 0 1 103.794 16.7471)" fill="#F9FAFC" stroke="#2B2727" stroke-width="3"/>
<path d="M113.294 85.7471C113.294 88.2471 112.301 90.0967 109.294 90.7471C107.53 91.1285 104.294 90.2471 103.794 87.7471L101.294 64.2471V116.747C101.294 119.247 98.7939 122.247 95.2939 122.247C91.7939 122.247 89.2939 118.747 89.2939 116.747C89.2939 118.747 87.2939 122.247 82.7939 122.247C80.2939 122.247 77.2939 119.747 77.2939 116.247V62.2471L72.2939 71.2471C71.2939 72.7471 68.2939 73.7471 65.7939 71.7471L50.2939 56.2471C49.294 54.7471 48.8178 52.0833 50.7939 49.7471C52.5274 48.0299 55.2939 48.2471 56.7939 49.2471L67.7939 59.7471L73.2939 49.7471C74.7229 47.3233 75.7939 46.2471 78.7939 46.2471H101.01C106.294 46.2471 109.794 50.2471 110.183 53.7471L113.294 85.7471Z" fill="#F9FAFC"/>
<path d="M89.2939 116.747C89.2939 118.747 87.2939 122.247 82.7939 122.247C80.2939 122.247 77.2939 119.747 77.2939 116.247V62.2471L72.2939 71.2471C71.2939 72.7471 68.2939 73.7471 65.7939 71.7471L50.2939 56.2471C49.294 54.7471 48.8178 52.0833 50.7939 49.7471C52.5274 48.0299 55.2939 48.2471 56.7939 49.2471L67.7939 59.7471L73.2939 49.7471C74.7229 47.3233 75.7939 46.2471 78.7939 46.2471H101.01C106.294 46.2471 109.794 50.2471 110.183 53.7471L113.294 85.7471C113.294 88.2471 112.301 90.0967 109.294 90.7471C107.53 91.1285 104.294 90.2471 103.794 87.7471L101.294 64.2471V116.747C101.294 119.247 98.7939 122.247 95.2939 122.247C91.7939 122.247 89.2939 118.747 89.2939 116.747ZM89.2939 116.747V90.2471" stroke="#2B2727" stroke-width="3" stroke-linecap="round" stroke-linejoin="round"/>
</g>
<defs>
<clipPath id="clip0_2839_5614">
<rect width="128" height="128" fill="white" transform="translate(0.293945 0.74707)"/>
</clipPath>
<clipPath id="clip1_2839_5614">
<rect width="19.5398" height="19.5398" fill="white" transform="translate(38.3916 55.915)"/>
</clipPath>
<clipPath id="clip2_2839_5614">
<rect width="19.5398" height="19.5398" fill="white" transform="translate(32.3916 51.915)"/>
</clipPath>
</defs>
</svg>
