<svg width="129" height="129" viewBox="0 0 129 129" fill="none" xmlns="http://www.w3.org/2000/svg">
<g clip-path="url(#clip0_2839_5548)">
<circle cx="71.4438" cy="43.1264" r="24.3793" fill="#F9FAFC" stroke="#0057F2" stroke-width="3" stroke-linecap="round" stroke-linejoin="round"/>
<path d="M34.2939 92.1494C34.2939 81.1037 43.2483 72.1494 54.2939 72.1494H86.271C97.3167 72.1494 106.271 81.1037 106.271 92.1494V104.586C106.271 112.318 100.003 118.586 92.271 118.586H48.2939C40.562 118.586 34.2939 112.318 34.2939 104.586V92.1494Z" fill="#F9FAFC" stroke="#0057F2" stroke-width="3" stroke-linecap="round" stroke-linejoin="round"/>
<path d="M58.6287 94.0131C58.6287 90.8073 61.2275 88.2085 64.4333 88.2085H76.0425C79.2483 88.2085 81.8471 90.8073 81.8471 94.0131V112.588C81.8471 115.794 79.2483 118.392 76.0425 118.392H64.4333C61.2275 118.392 58.6287 115.794 58.6287 112.588V94.0131Z" fill="#F9FAFC"/>
<path d="M50.0357 70.2143C48.3699 71.176 47.7992 73.306 48.7609 74.9718L58.845 92.4379C59.5315 89.9975 61.7735 88.2085 64.4333 88.2085L64.4462 88.2085L54.7932 71.489C53.8315 69.8233 51.7015 69.2525 50.0357 70.2143Z" fill="#F9FAFC"/>
<path d="M43.5811 106.396L46.4834 103.494H49.3857M49.3857 103.494H58.6287M49.3857 103.494V91.885M64.4333 88.2085C61.2275 88.2085 58.6287 90.8073 58.6287 94.0131V112.588C58.6287 115.794 61.2275 118.392 64.4333 118.392H76.0425C79.2483 118.392 81.8471 115.794 81.8471 112.588V94.0131C81.8471 90.8073 79.2483 88.2085 76.0425 88.2085H64.4333ZM64.4333 88.2085C61.7735 88.2085 59.5315 89.9975 58.845 92.4379L48.7609 74.9718C47.7992 73.306 48.3699 71.176 50.0357 70.2143C51.7015 69.2525 53.8315 69.8233 54.7932 71.489L64.4462 88.2085L64.4333 88.2085Z" stroke="#0057F2" stroke-width="3" stroke-linecap="round" stroke-linejoin="round"/>
<path d="M74.9258 108.138C74.9258 104.932 77.5246 102.333 80.7304 102.333H83.0522C86.258 102.333 88.8568 104.932 88.8568 108.138C88.8568 110.404 88.8568 111.675 88.8568 113.942C88.8568 117.148 86.258 119.747 83.0522 119.747H80.7304C77.5246 119.747 74.9258 117.148 74.9258 113.942V108.138Z" fill="#F9FAFC"/>
<path d="M97.5637 106.396L94.6614 103.494H91.7591M91.7591 103.494H86.5355M91.7591 103.494V91.8848M80.7304 119.747H83.0522C86.258 119.747 88.8568 117.148 88.8568 113.942C88.8568 111.675 88.8568 110.404 88.8568 108.138C88.8568 104.932 86.258 102.333 83.0522 102.333H80.7304C77.5246 102.333 74.9258 104.932 74.9258 108.138V113.942C74.9258 117.148 77.5246 119.747 80.7304 119.747Z" stroke="#0057F2" stroke-width="3" stroke-linecap="round" stroke-linejoin="round"/>
<circle cx="65.4438" cy="39.1264" r="24.3793" fill="#F9FAFC" stroke="#2B2727" stroke-width="3" stroke-linecap="round" stroke-linejoin="round"/>
<path d="M28.2939 88.1494C28.2939 77.1037 37.2483 68.1494 48.2939 68.1494H80.271C91.3167 68.1494 100.271 77.1037 100.271 88.1494V100.586C100.271 108.318 94.0029 114.586 86.271 114.586H42.2939C34.562 114.586 28.2939 108.318 28.2939 100.586V88.1494Z" fill="#F9FAFC" stroke="#2B2727" stroke-width="3" stroke-linecap="round" stroke-linejoin="round"/>
<path d="M52.6287 90.0131C52.6287 86.8073 55.2275 84.2085 58.4333 84.2085H70.0425C73.2483 84.2085 75.8471 86.8073 75.8471 90.0131V108.588C75.8471 111.794 73.2483 114.392 70.0425 114.392H58.4333C55.2275 114.392 52.6287 111.794 52.6287 108.588V90.0131Z" fill="#F9FAFC"/>
<path d="M44.0357 66.2143C42.3699 67.176 41.7992 69.306 42.7609 70.9718L52.845 88.4379C53.5315 85.9975 55.7735 84.2085 58.4333 84.2085L58.4462 84.2085L48.7932 67.489C47.8315 65.8233 45.7015 65.2525 44.0357 66.2143Z" fill="#F9FAFC"/>
<path d="M37.5811 102.396L40.4834 99.4942H43.3857M43.3857 99.4942H52.6287M43.3857 99.4942V87.885M58.4333 84.2085C55.2275 84.2085 52.6287 86.8073 52.6287 90.0131V108.588C52.6287 111.794 55.2275 114.392 58.4333 114.392H70.0425C73.2483 114.392 75.8471 111.794 75.8471 108.588V90.0131C75.8471 86.8073 73.2483 84.2085 70.0425 84.2085H58.4333ZM58.4333 84.2085C55.7735 84.2085 53.5315 85.9975 52.845 88.4379L42.7609 70.9718C41.7992 69.306 42.3699 67.176 44.0357 66.2143C45.7015 65.2525 47.8315 65.8233 48.7932 67.489L58.4462 84.2085L58.4333 84.2085Z" stroke="#2B2727" stroke-width="3" stroke-linecap="round" stroke-linejoin="round"/>
<path d="M68.9258 104.138C68.9258 100.932 71.5246 98.333 74.7304 98.333H77.0522C80.258 98.333 82.8568 100.932 82.8568 104.138C82.8568 106.404 82.8568 107.675 82.8568 109.942C82.8568 113.148 80.258 115.747 77.0522 115.747H74.7304C71.5246 115.747 68.9258 113.148 68.9258 109.942V104.138Z" fill="#F9FAFC"/>
<path d="M91.5637 102.396L88.6614 99.494H85.7591M85.7591 99.494H80.5355M85.7591 99.494V87.8848M74.7304 115.747H77.0522C80.258 115.747 82.8568 113.148 82.8568 109.942C82.8568 107.675 82.8568 106.404 82.8568 104.138C82.8568 100.932 80.258 98.333 77.0522 98.333H74.7304C71.5246 98.333 68.9258 100.932 68.9258 104.138V109.942C68.9258 113.148 71.5246 115.747 74.7304 115.747Z" stroke="#2B2727" stroke-width="3" stroke-linecap="round" stroke-linejoin="round"/>
</g>
<defs>
<clipPath id="clip0_2839_5548">
<rect width="128" height="128" fill="white" transform="translate(0.293945 0.74707)"/>
</clipPath>
</defs>
</svg>
