<svg width="129" height="129" viewBox="0 0 129 129" fill="none" xmlns="http://www.w3.org/2000/svg">
<g clip-path="url(#clip0_2839_5557)">
<path d="M16.7939 37.9471C16.7939 34.562 16.7951 32.1134 16.9525 30.1876C17.1084 28.2794 17.4101 27.0169 17.9384 25.9802C18.945 24.0045 20.5513 22.3982 22.527 21.3915C23.5638 20.8632 24.8263 20.5615 26.7345 20.4056C28.6603 20.2482 31.1089 20.2471 34.4939 20.2471H79.0939C82.479 20.2471 84.9276 20.2482 86.8534 20.4056C88.7616 20.5615 90.0241 20.8632 91.0608 21.3915C93.0365 22.3982 94.6428 24.0045 95.6495 25.9802C96.1778 27.0169 96.4795 28.2794 96.6354 30.1876C96.7928 32.1134 96.7939 34.562 96.7939 37.9471V93.5471C96.7939 96.9321 96.7928 99.3807 96.6354 101.306C96.4795 103.215 96.1778 104.477 95.6495 105.514C94.6428 107.49 93.0365 109.096 91.0608 110.103C90.0241 110.631 88.7616 110.933 86.8534 111.089C84.9276 111.246 82.479 111.247 79.0939 111.247H34.4939C31.1089 111.247 28.6603 111.246 26.7345 111.089C24.8263 110.933 23.5638 110.631 22.527 110.103C20.5513 109.096 18.945 107.49 17.9384 105.514C17.4101 104.477 17.1084 103.215 16.9525 101.306C16.7951 99.3807 16.7939 96.9321 16.7939 93.5471V37.9471Z" fill="#F9FAFC" stroke="#0057F2" stroke-width="3"/>
<path d="M26.2939 30.7471H36.2939M43.2939 30.7471L67.2939 30.7471M74.2939 30.7471H86.2939M26.2939 40.7471H41.2939M48.2939 40.7471H52.2939M60.7939 40.7471H86.2939M26.2939 50.7471H31.2939M43.2939 50.7471H49.2939M80.2939 50.7471L86.2939 50.7471M26.2939 60.7471H29.7939M45.2939 60.7471H49.7939M83.7939 60.7471H86.2939M48.2939 70.7471H49.7939M62.7939 70.7471H64.2939M26.2939 80.7471H38.7939M43.2939 80.7471H49.7939M62.7939 80.7471H86.2939M26.2939 90.7471H36.2939M40.2939 90.7471H42.2939M70.7939 90.7471H82.7939M26.2939 100.747H41.2939M48.2939 100.747H61.2939M67.2939 100.747H86.2939M62.7939 60.7471H67.2939" stroke="#2B2727" stroke-linecap="round"/>
<path d="M36.3564 47.2627H75.3252" stroke="#2B2727" stroke-width="3"/>
<path d="M54.2939 41.7307C54.2939 40.6093 55.203 39.7002 56.3244 39.7002C57.4458 39.7002 58.3549 40.6093 58.3549 41.7307V47.822H54.2939V41.7307Z" fill="#0057F2"/>
<mask id="path-5-inside-1_2839_5557" fill="white">
<rect x="51.2939" y="45.7471" width="10" height="45" rx="2"/>
</mask>
<rect x="51.2939" y="45.7471" width="10" height="45" rx="2" fill="#F9FAFC" stroke="#0057F2" stroke-width="6" stroke-linecap="round" stroke-linejoin="round" mask="url(#path-5-inside-1_2839_5557)"/>
<mask id="path-6-inside-2_2839_5557" fill="white">
<path d="M44.2939 93.7471C44.2939 91.8833 44.2939 90.9514 44.5984 90.2163C45.0044 89.2362 45.7831 88.4575 46.7632 88.0516C47.4983 87.7471 48.4302 87.7471 50.2939 87.7471H62.2939C64.1577 87.7471 65.0896 87.7471 65.8247 88.0516C66.8048 88.4575 67.5835 89.2362 67.9895 90.2163C68.2939 90.9514 68.2939 91.8833 68.2939 93.7471C68.2939 94.679 68.2939 95.1449 68.1417 95.5124C67.9387 96.0025 67.5494 96.3918 67.0593 96.5948C66.6918 96.7471 66.2258 96.7471 65.2939 96.7471H47.2939C46.3621 96.7471 45.8961 96.7471 45.5286 96.5948C45.0385 96.3918 44.6492 96.0025 44.4462 95.5124C44.2939 95.1449 44.2939 94.679 44.2939 93.7471Z"/>
</mask>
<path d="M44.2939 93.7471C44.2939 91.8833 44.2939 90.9514 44.5984 90.2163C45.0044 89.2362 45.7831 88.4575 46.7632 88.0516C47.4983 87.7471 48.4302 87.7471 50.2939 87.7471H62.2939C64.1577 87.7471 65.0896 87.7471 65.8247 88.0516C66.8048 88.4575 67.5835 89.2362 67.9895 90.2163C68.2939 90.9514 68.2939 91.8833 68.2939 93.7471C68.2939 94.679 68.2939 95.1449 68.1417 95.5124C67.9387 96.0025 67.5494 96.3918 67.0593 96.5948C66.6918 96.7471 66.2258 96.7471 65.2939 96.7471H47.2939C46.3621 96.7471 45.8961 96.7471 45.5286 96.5948C45.0385 96.3918 44.6492 96.0025 44.4462 95.5124C44.2939 95.1449 44.2939 94.679 44.2939 93.7471Z" fill="#F9FAFC" stroke="#0057F2" stroke-width="6" stroke-linecap="round" stroke-linejoin="round" mask="url(#path-6-inside-2_2839_5557)"/>
<circle cx="56.2939" cy="48.4189" r="4.5" fill="#F9FAFC" stroke="#0057F2" stroke-width="3"/>
<path d="M45.7826 71.3252H28.7428L37.2627 48.8636L45.7826 71.3252Z" stroke="#0057F2" stroke-width="2" stroke-linecap="round" stroke-linejoin="round"/>
<mask id="path-9-inside-3_2839_5557" fill="white">
<path d="M27.2939 72.6689C27.2939 75.9827 29.9802 78.6689 33.2939 78.6689H41.2314C44.5452 78.6689 47.2314 75.9827 47.2314 72.6689V70.6064C47.2314 70.0542 46.7837 69.6064 46.2314 69.6064H28.2939C27.7417 69.6064 27.2939 70.0542 27.2939 70.6064V72.6689Z"/>
</mask>
<path d="M27.2939 72.6689C27.2939 75.9827 29.9802 78.6689 33.2939 78.6689H41.2314C44.5452 78.6689 47.2314 75.9827 47.2314 72.6689V70.6064C47.2314 70.0542 46.7837 69.6064 46.2314 69.6064H28.2939C27.7417 69.6064 27.2939 70.0542 27.2939 70.6064V72.6689Z" fill="#F9FAFC" stroke="#0057F2" stroke-width="6" stroke-linecap="round" stroke-linejoin="round" mask="url(#path-9-inside-3_2839_5557)"/>
<circle cx="37.2939" cy="48.2314" r="2.5" fill="#F9FAFC" stroke="#0057F2" stroke-width="3" stroke-linecap="round" stroke-linejoin="round"/>
<path d="M83.7826 71.3252H66.7428L75.2627 48.8636L83.7826 71.3252Z" stroke="#0057F2" stroke-width="2" stroke-linecap="round" stroke-linejoin="round"/>
<mask id="path-12-inside-4_2839_5557" fill="white">
<path d="M65.2939 72.6689C65.2939 75.9827 67.9802 78.6689 71.2939 78.6689H79.2314C82.5452 78.6689 85.2314 75.9827 85.2314 72.6689V70.6064C85.2314 70.0542 84.7837 69.6064 84.2314 69.6064H66.2939C65.7417 69.6064 65.2939 70.0542 65.2939 70.6064V72.6689Z"/>
</mask>
<path d="M65.2939 72.6689C65.2939 75.9827 67.9802 78.6689 71.2939 78.6689H79.2314C82.5452 78.6689 85.2314 75.9827 85.2314 72.6689V70.6064C85.2314 70.0542 84.7837 69.6064 84.2314 69.6064H66.2939C65.7417 69.6064 65.2939 70.0542 65.2939 70.6064V72.6689Z" fill="#F9FAFC" stroke="#0057F2" stroke-width="6" stroke-linecap="round" stroke-linejoin="round" mask="url(#path-12-inside-4_2839_5557)"/>
<circle cx="75.2939" cy="48.2314" r="2.5" fill="#F9FAFC" stroke="#0057F2" stroke-width="3" stroke-linecap="round" stroke-linejoin="round"/>
<path fill-rule="evenodd" clip-rule="evenodd" d="M94.0535 98.7471C89.308 98.7471 85.4609 94.9547 85.4609 90.2765C85.4609 85.7915 88.9968 82.1207 93.4704 81.8251C94.9681 78.9168 98.2579 77.2154 101.528 77.6364C102.972 75.8741 105.182 74.7471 107.658 74.7471C111.767 74.7471 115.141 77.8484 115.503 81.806L115.535 81.8059C120.281 81.8059 124.128 85.5983 124.128 90.2765C124.128 94.9547 120.281 98.7471 115.535 98.7471C108.022 98.7471 100.984 98.7471 94.0535 98.7471Z" fill="#F9FAFC"/>
<path d="M105.139 92.7471V83.7471M105.139 83.7471L101.294 86.9513M105.139 83.7471L108.984 86.9513M94.0535 98.7471C89.308 98.7471 85.4609 94.9547 85.4609 90.2765C85.4609 85.7915 88.9968 82.1207 93.4704 81.8251C94.9681 78.9168 98.2579 77.2154 101.528 77.6364C102.972 75.8741 105.182 74.7471 107.658 74.7471C111.767 74.7471 115.141 77.8484 115.503 81.806L115.535 81.8059C120.281 81.8059 124.128 85.5983 124.128 90.2765C124.128 94.9547 120.281 98.7471 115.535 98.7471C108.022 98.7471 100.984 98.7471 94.0535 98.7471Z" stroke="#2B2727" stroke-width="3" stroke-linecap="round" stroke-linejoin="round"/>
<path d="M10.7939 33.9471C10.7939 30.562 10.7951 28.1134 10.9525 26.1876C11.1084 24.2794 11.4101 23.0169 11.9384 21.9802C12.945 20.0045 14.5513 18.3982 16.527 17.3915C17.5638 16.8632 18.8263 16.5615 20.7345 16.4056C22.6603 16.2482 25.1089 16.2471 28.4939 16.2471H73.0939C76.479 16.2471 78.9276 16.2482 80.8534 16.4056C82.7616 16.5615 84.0241 16.8632 85.0608 17.3915C87.0365 18.3982 88.6428 20.0045 89.6495 21.9802C90.1778 23.0169 90.4795 24.2794 90.6354 26.1876C90.7928 28.1134 90.7939 30.562 90.7939 33.9471V89.5471C90.7939 92.9321 90.7928 95.3807 90.6354 97.3065C90.4795 99.2148 90.1778 100.477 89.6495 101.514C88.6428 103.49 87.0365 105.096 85.0608 106.103C84.0241 106.631 82.7616 106.933 80.8534 107.089C78.9276 107.246 76.479 107.247 73.0939 107.247H28.4939C25.1089 107.247 22.6603 107.246 20.7345 107.089C18.8263 106.933 17.5638 106.631 16.527 106.103C14.5513 105.096 12.945 103.49 11.9384 101.514C11.4101 100.477 11.1084 99.2148 10.9525 97.3065C10.7951 95.3807 10.7939 92.9321 10.7939 89.5471V33.9471Z" fill="#F9FAFC" stroke="#2B2727" stroke-width="3"/>
<path d="M20.2939 26.7471H30.2939M37.2939 26.7471L61.2939 26.7471M68.2939 26.7471H80.2939M20.2939 36.7471H35.2939M42.2939 36.7471H46.2939M54.7939 36.7471H80.2939M20.2939 46.7471H25.2939M37.2939 46.7471H43.2939M74.2939 46.7471L80.2939 46.7471M20.2939 56.7471H23.7939M39.2939 56.7471H43.7939M77.7939 56.7471H80.2939M42.2939 66.7471H43.7939M56.7939 66.7471H58.2939M20.2939 76.7471H32.7939M37.2939 76.7471H43.7939M56.7939 76.7471H80.2939M20.2939 86.7471H30.2939M34.2939 86.7471H36.2939M64.7939 86.7471H76.7939M20.2939 96.7471H35.2939M42.2939 96.7471H55.2939M61.2939 96.7471H80.2939M56.7939 56.7471H61.2939" stroke="#2B2727" stroke-linecap="round"/>
<path d="M30.3564 43.2627H69.3252" stroke="#2B2727" stroke-width="3"/>
<path d="M48.2939 37.7307C48.2939 36.6093 49.203 35.7002 50.3244 35.7002C51.4458 35.7002 52.3549 36.6093 52.3549 37.7307V43.822H48.2939V37.7307Z" fill="#2B2727"/>
<mask id="path-20-inside-5_2839_5557" fill="white">
<rect x="45.2939" y="41.7471" width="10" height="45" rx="2"/>
</mask>
<rect x="45.2939" y="41.7471" width="10" height="45" rx="2" fill="#F9FAFC" stroke="#2B2727" stroke-width="6" stroke-linecap="round" stroke-linejoin="round" mask="url(#path-20-inside-5_2839_5557)"/>
<mask id="path-21-inside-6_2839_5557" fill="white">
<path d="M38.2939 89.7471C38.2939 87.8833 38.2939 86.9514 38.5984 86.2163C39.0044 85.2362 39.7831 84.4575 40.7632 84.0516C41.4983 83.7471 42.4302 83.7471 44.2939 83.7471H56.2939C58.1577 83.7471 59.0896 83.7471 59.8247 84.0516C60.8048 84.4575 61.5835 85.2362 61.9895 86.2163C62.2939 86.9514 62.2939 87.8833 62.2939 89.7471C62.2939 90.679 62.2939 91.1449 62.1417 91.5124C61.9387 92.0025 61.5494 92.3918 61.0593 92.5948C60.6918 92.7471 60.2258 92.7471 59.2939 92.7471H41.2939C40.3621 92.7471 39.8961 92.7471 39.5286 92.5948C39.0385 92.3918 38.6492 92.0025 38.4462 91.5124C38.2939 91.1449 38.2939 90.679 38.2939 89.7471Z"/>
</mask>
<path d="M38.2939 89.7471C38.2939 87.8833 38.2939 86.9514 38.5984 86.2163C39.0044 85.2362 39.7831 84.4575 40.7632 84.0516C41.4983 83.7471 42.4302 83.7471 44.2939 83.7471H56.2939C58.1577 83.7471 59.0896 83.7471 59.8247 84.0516C60.8048 84.4575 61.5835 85.2362 61.9895 86.2163C62.2939 86.9514 62.2939 87.8833 62.2939 89.7471C62.2939 90.679 62.2939 91.1449 62.1417 91.5124C61.9387 92.0025 61.5494 92.3918 61.0593 92.5948C60.6918 92.7471 60.2258 92.7471 59.2939 92.7471H41.2939C40.3621 92.7471 39.8961 92.7471 39.5286 92.5948C39.0385 92.3918 38.6492 92.0025 38.4462 91.5124C38.2939 91.1449 38.2939 90.679 38.2939 89.7471Z" fill="#F9FAFC" stroke="#2B2727" stroke-width="6" stroke-linecap="round" stroke-linejoin="round" mask="url(#path-21-inside-6_2839_5557)"/>
<circle cx="50.2939" cy="44.4189" r="4.5" fill="#F9FAFC" stroke="#2B2727" stroke-width="3"/>
<path d="M39.7826 67.3252H22.7428L31.2627 44.8636L39.7826 67.3252Z" stroke="#2B2727" stroke-width="2" stroke-linecap="round" stroke-linejoin="round"/>
<mask id="path-24-inside-7_2839_5557" fill="white">
<path d="M21.2939 68.6689C21.2939 71.9827 23.9802 74.6689 27.2939 74.6689H35.2314C38.5452 74.6689 41.2314 71.9827 41.2314 68.6689V66.6064C41.2314 66.0542 40.7837 65.6064 40.2314 65.6064H22.2939C21.7417 65.6064 21.2939 66.0542 21.2939 66.6064V68.6689Z"/>
</mask>
<path d="M21.2939 68.6689C21.2939 71.9827 23.9802 74.6689 27.2939 74.6689H35.2314C38.5452 74.6689 41.2314 71.9827 41.2314 68.6689V66.6064C41.2314 66.0542 40.7837 65.6064 40.2314 65.6064H22.2939C21.7417 65.6064 21.2939 66.0542 21.2939 66.6064V68.6689Z" fill="#F9FAFC" stroke="#2B2727" stroke-width="6" stroke-linecap="round" stroke-linejoin="round" mask="url(#path-24-inside-7_2839_5557)"/>
<circle cx="31.2939" cy="44.2314" r="2.5" fill="#F9FAFC" stroke="#2B2727" stroke-width="3" stroke-linecap="round" stroke-linejoin="round"/>
<path d="M77.7826 67.3252H60.7428L69.2627 44.8636L77.7826 67.3252Z" stroke="#2B2727" stroke-width="2" stroke-linecap="round" stroke-linejoin="round"/>
<mask id="path-27-inside-8_2839_5557" fill="white">
<path d="M59.2939 68.6689C59.2939 71.9827 61.9802 74.6689 65.2939 74.6689H73.2314C76.5452 74.6689 79.2314 71.9827 79.2314 68.6689V66.6064C79.2314 66.0542 78.7837 65.6064 78.2314 65.6064H60.2939C59.7417 65.6064 59.2939 66.0542 59.2939 66.6064V68.6689Z"/>
</mask>
<path d="M59.2939 68.6689C59.2939 71.9827 61.9802 74.6689 65.2939 74.6689H73.2314C76.5452 74.6689 79.2314 71.9827 79.2314 68.6689V66.6064C79.2314 66.0542 78.7837 65.6064 78.2314 65.6064H60.2939C59.7417 65.6064 59.2939 66.0542 59.2939 66.6064V68.6689Z" fill="#F9FAFC" stroke="#2B2727" stroke-width="6" stroke-linecap="round" stroke-linejoin="round" mask="url(#path-27-inside-8_2839_5557)"/>
<circle cx="69.2939" cy="44.2314" r="2.5" fill="#F9FAFC" stroke="#2B2727" stroke-width="3" stroke-linecap="round" stroke-linejoin="round"/>
<path fill-rule="evenodd" clip-rule="evenodd" d="M88.0535 94.7471C83.308 94.7471 79.4609 90.9547 79.4609 86.2765C79.4609 81.7915 82.9968 78.1207 87.4704 77.8251C88.9681 74.9168 92.2579 73.2154 95.5278 73.6364C96.9717 71.8741 99.1816 70.7471 101.658 70.7471C105.767 70.7471 109.141 73.8484 109.503 77.806L109.535 77.8059C114.281 77.8059 118.128 81.5983 118.128 86.2765C118.128 90.9547 114.281 94.7471 109.535 94.7471C102.022 94.7471 94.9836 94.7471 88.0535 94.7471Z" fill="#F9FAFC"/>
<path d="M99.1394 88.7471V79.7471M99.1394 79.7471L95.2943 82.9513M99.1394 79.7471L102.984 82.9513M88.0535 94.7471C83.308 94.7471 79.4609 90.9547 79.4609 86.2765C79.4609 81.7915 82.9968 78.1207 87.4704 77.8251C88.9681 74.9168 92.2579 73.2154 95.5278 73.6364C96.9717 71.8741 99.1816 70.7471 101.658 70.7471C105.767 70.7471 109.141 73.8484 109.503 77.806L109.535 77.8059C114.281 77.8059 118.128 81.5983 118.128 86.2765C118.128 90.9547 114.281 94.7471 109.535 94.7471C102.022 94.7471 94.9836 94.7471 88.0535 94.7471Z" stroke="#2B2727" stroke-width="3" stroke-linecap="round" stroke-linejoin="round"/>
</g>
<defs>
<clipPath id="clip0_2839_5557">
<rect width="128" height="128" fill="white" transform="translate(0.293945 0.74707)"/>
</clipPath>
</defs>
</svg>
