<svg width="129" height="129" viewBox="0 0 129 129" fill="none" xmlns="http://www.w3.org/2000/svg">
<g clip-path="url(#clip0_2839_5602)">
<path fill-rule="evenodd" clip-rule="evenodd" d="M16.5119 32.6241C15.2939 35.5645 15.2939 39.292 15.2939 46.7471C15.2939 54.2021 15.2939 57.9297 16.5119 60.87C18.1358 64.7905 21.2506 67.9052 25.171 69.5291C28.1113 70.7471 31.8389 70.7471 39.2939 70.7471H40.3803C39.5436 73.2928 38.0081 76.1642 35.2939 78.1238C43.7392 80.1976 49.9202 76.9338 52.7965 70.7471H80.2939C87.749 70.7471 91.4765 70.7471 94.4169 69.5291C98.3373 67.9052 101.452 64.7905 103.076 60.87C104.294 57.9297 104.294 54.2021 104.294 46.7471C104.294 39.292 104.294 35.5645 103.076 32.6241C101.452 28.7037 98.3373 25.5889 94.4169 23.965C91.4765 22.7471 87.749 22.7471 80.2939 22.7471H39.2939C31.8389 22.7471 28.1113 22.7471 25.171 23.965C21.2506 25.5889 18.1358 28.7037 16.5119 32.6241Z" fill="#F9FAFC"/>
<path d="M16.5119 32.6241L15.1261 32.0501H15.1261L16.5119 32.6241ZM16.5119 60.87L15.1261 61.444H15.1261L16.5119 60.87ZM25.171 69.5291L24.597 70.915H24.597L25.171 69.5291ZM40.3803 70.7471L41.8053 71.2154C41.9555 70.7584 41.8774 70.2571 41.5953 69.8674C41.3132 69.4778 40.8614 69.2471 40.3803 69.2471V70.7471ZM35.2939 78.1238L34.4159 76.9076C33.9418 77.2499 33.7099 77.8364 33.8216 78.4104C33.9333 78.9843 34.3684 79.441 34.9362 79.5805L35.2939 78.1238ZM52.7965 70.7471V69.2471C52.2129 69.2471 51.6823 69.5855 51.4363 70.1147L52.7965 70.7471ZM94.4169 69.5291L94.9909 70.915L94.4169 69.5291ZM103.076 60.87L104.462 61.444L103.076 60.87ZM103.076 32.6241L104.462 32.0501L103.076 32.6241ZM94.4169 23.965L94.9909 22.5792V22.5792L94.4169 23.965ZM25.171 23.965L24.597 22.5792V22.5792L25.171 23.965ZM16.7939 46.7471C16.7939 42.999 16.7948 40.2631 16.9427 38.0947C17.0897 35.9398 17.3771 34.4551 17.8977 33.1982L15.1261 32.0501C14.4288 33.7335 14.1071 35.5828 13.9497 37.8905C13.7931 40.1847 13.7939 43.0401 13.7939 46.7471H16.7939ZM17.8977 60.296C17.3771 59.039 17.0897 57.5544 16.9427 55.3995C16.7948 53.231 16.7939 50.4951 16.7939 46.7471H13.7939C13.7939 50.4541 13.7931 53.3095 13.9497 55.6037C14.1071 57.9114 14.4288 59.7606 15.1261 61.444L17.8977 60.296ZM25.745 68.1433C22.1921 66.6717 19.3694 63.8489 17.8977 60.296L15.1261 61.444C16.9022 65.732 20.309 69.1388 24.597 70.915L25.745 68.1433ZM39.2939 69.2471C35.5459 69.2471 32.81 69.2463 30.6416 69.0983C28.4866 68.9513 27.002 68.664 25.745 68.1433L24.597 70.915C26.2804 71.6123 28.1297 71.9339 30.4373 72.0914C32.7316 72.2479 35.5869 72.2471 39.2939 72.2471V69.2471ZM40.3803 69.2471H39.2939V72.2471H40.3803V69.2471ZM36.172 79.3399C39.2326 77.1302 40.9111 73.9362 41.8053 71.2154L38.9553 70.2787C38.1761 72.6495 36.7837 75.1981 34.4159 76.9076L36.172 79.3399ZM51.4363 70.1147C50.1329 72.9183 48.1149 74.9985 45.5189 76.1649C42.9182 77.3333 39.6126 77.6397 35.6517 76.667L34.9362 79.5805C39.4205 80.6817 43.4281 80.3931 46.7483 78.9014C50.0731 77.4076 52.5838 74.7626 54.1567 71.3794L51.4363 70.1147ZM80.2939 69.2471H52.7965V72.2471H80.2939V69.2471ZM93.8428 68.1433C92.5859 68.664 91.1013 68.9513 88.9463 69.0983C86.7779 69.2463 84.042 69.2471 80.2939 69.2471V72.2471C84.001 72.2471 86.8563 72.2479 89.1505 72.0914C91.4582 71.9339 93.3075 71.6123 94.9909 70.915L93.8428 68.1433ZM101.69 60.296C100.219 63.8489 97.3958 66.6717 93.8428 68.1433L94.9909 70.915C99.2789 69.1388 102.686 65.732 104.462 61.444L101.69 60.296ZM102.794 46.7471C102.794 50.4951 102.793 53.231 102.645 55.3995C102.498 57.5544 102.211 59.039 101.69 60.296L104.462 61.444C105.159 59.7606 105.481 57.9114 105.638 55.6037C105.795 53.3095 105.794 50.4541 105.794 46.7471H102.794ZM101.69 33.1982C102.211 34.4551 102.498 35.9398 102.645 38.0947C102.793 40.2631 102.794 42.999 102.794 46.7471H105.794C105.794 43.0401 105.795 40.1847 105.638 37.8905C105.481 35.5828 105.159 33.7335 104.462 32.0501L101.69 33.1982ZM93.8428 25.3508C97.3958 26.8225 100.219 29.6453 101.69 33.1982L104.462 32.0501C102.686 27.7621 99.2789 24.3553 94.9909 22.5792L93.8428 25.3508ZM80.2939 24.2471C84.042 24.2471 86.7779 24.2479 88.9463 24.3958C91.1013 24.5429 92.5859 24.8302 93.8428 25.3508L94.9909 22.5792C93.3075 21.8819 91.4582 21.5602 89.1505 21.4028C86.8563 21.2463 84.001 21.2471 80.2939 21.2471V24.2471ZM39.2939 24.2471H80.2939V21.2471H39.2939V24.2471ZM25.745 25.3508C27.002 24.8302 28.4866 24.5429 30.6416 24.3958C32.81 24.2479 35.5459 24.2471 39.2939 24.2471V21.2471C35.5869 21.2471 32.7316 21.2463 30.4373 21.4028C28.1297 21.5602 26.2804 21.8819 24.597 22.5792L25.745 25.3508ZM17.8977 33.1982C19.3694 29.6453 22.1921 26.8225 25.745 25.3508L24.597 22.5792C20.309 24.3553 16.9022 27.7621 15.1261 32.0501L17.8977 33.1982Z" fill="#0057F2"/>
<path fill-rule="evenodd" clip-rule="evenodd" d="M62.9829 75.1025C62.2939 77.3737 62.2939 80.1648 62.2939 85.7471C62.2939 91.3293 62.2939 94.1204 62.9829 96.3916C64.5341 101.505 68.5358 105.507 73.6494 107.058C75.9206 107.747 78.7117 107.747 84.2939 107.747H97.3934C99.6092 113.314 104.986 116.747 111.794 116.747C110.475 114.109 109.852 110.654 109.558 107.675C111.388 107.594 112.736 107.423 113.938 107.058C119.052 105.507 123.054 101.505 124.605 96.3916C125.294 94.1204 125.294 91.3293 125.294 85.7471C125.294 80.1648 125.294 77.3737 124.605 75.1025C123.054 69.9889 119.052 65.9872 113.938 64.436C111.667 63.7471 108.876 63.7471 103.294 63.7471H84.2939C78.7117 63.7471 75.9206 63.7471 73.6494 64.436C68.5358 65.9872 64.5341 69.9889 62.9829 75.1025Z" fill="#F9FAFC"/>
<path d="M62.9829 75.1025L61.5475 74.6671L62.9829 75.1025ZM62.9829 96.3916L64.4183 95.9562L62.9829 96.3916ZM73.6494 107.058L73.214 108.494L73.6494 107.058ZM97.3934 107.747L98.787 107.192C98.5599 106.622 98.0077 106.247 97.3934 106.247V107.747ZM111.794 116.747V118.247C112.314 118.247 112.797 117.978 113.07 117.536C113.343 117.093 113.368 116.541 113.136 116.076L111.794 116.747ZM109.558 107.675L109.491 106.177C109.08 106.195 108.694 106.382 108.424 106.693C108.154 107.004 108.024 107.413 108.065 107.823L109.558 107.675ZM113.938 107.058L113.503 105.623L113.938 107.058ZM124.605 96.3916L126.04 96.8271V96.827L124.605 96.3916ZM124.605 75.1025L126.04 74.6671L124.605 75.1025ZM113.938 64.436L113.503 65.8714L113.938 64.436ZM73.6494 64.436L73.214 63.0006L73.6494 64.436ZM63.7939 85.7471C63.7939 80.0557 63.8102 77.5425 64.4183 75.5379L61.5475 74.6671C60.7777 77.2049 60.7939 80.274 60.7939 85.7471H63.7939ZM64.4183 95.9562C63.8102 93.9516 63.7939 91.4385 63.7939 85.7471H60.7939C60.7939 91.2202 60.7777 94.2893 61.5475 96.8271L64.4183 95.9562ZM74.0848 105.623C69.4506 104.217 65.8241 100.59 64.4183 95.9562L61.5475 96.8271C63.2441 102.42 67.6209 106.797 73.214 108.494L74.0848 105.623ZM84.2939 106.247C78.6026 106.247 76.0894 106.231 74.0848 105.623L73.214 108.494C75.7517 109.263 78.8208 109.247 84.2939 109.247V106.247ZM97.3934 106.247H84.2939V109.247H97.3934V106.247ZM95.9997 108.302C98.473 114.516 104.458 118.247 111.794 118.247V115.247C105.514 115.247 100.745 112.113 98.787 107.192L95.9997 108.302ZM113.136 116.076C111.942 113.689 111.34 110.457 111.05 107.528L108.065 107.823C108.364 110.852 109.008 114.529 110.452 117.418L113.136 116.076ZM113.503 105.623C112.475 105.934 111.271 106.098 109.491 106.177L109.624 109.174C111.506 109.091 112.997 108.911 114.374 108.494L113.503 105.623ZM123.17 95.9562C121.764 100.59 118.137 104.217 113.503 105.623L114.374 108.494C119.967 106.797 124.344 102.42 126.04 96.8271L123.17 95.9562ZM123.794 85.7471C123.794 91.4385 123.778 93.9516 123.17 95.9562L126.04 96.827C126.81 94.2893 126.794 91.2202 126.794 85.7471H123.794ZM123.17 75.5379C123.778 77.5425 123.794 80.0557 123.794 85.7471H126.794C126.794 80.274 126.81 77.2049 126.04 74.6671L123.17 75.5379ZM113.503 65.8714C118.137 67.2772 121.764 70.9037 123.17 75.5379L126.04 74.6671C124.344 69.0741 119.967 64.6972 114.374 63.0006L113.503 65.8714ZM103.294 65.2471C108.985 65.2471 111.498 65.2634 113.503 65.8714L114.374 63.0006C111.836 62.2308 108.767 62.2471 103.294 62.2471V65.2471ZM84.2939 65.2471H103.294V62.2471H84.2939V65.2471ZM74.0848 65.8714C76.0894 65.2634 78.6026 65.2471 84.2939 65.2471V62.2471C78.8208 62.2471 75.7517 62.2308 73.214 63.0006L74.0848 65.8714ZM64.4183 75.5379C65.8241 70.9037 69.4506 67.2772 74.0848 65.8714L73.214 63.0006C67.6209 64.6972 63.2441 69.0741 61.5475 74.6671L64.4183 75.5379Z" fill="#0057F2"/>
<path fill-rule="evenodd" clip-rule="evenodd" d="M10.5119 28.6241C9.29395 31.5645 9.29395 35.292 9.29395 42.7471C9.29395 50.2021 9.29395 53.9297 10.5119 56.87C12.1358 60.7905 15.2506 63.9052 19.171 65.5291C22.1113 66.7471 25.8389 66.7471 33.2939 66.7471H34.3803C33.5436 69.2928 32.0081 72.1642 29.2939 74.1238C37.7392 76.1976 43.9202 72.9338 46.7965 66.7471H74.2939C81.749 66.7471 85.4765 66.7471 88.4169 65.5291C92.3373 63.9052 95.4521 60.7905 97.076 56.87C98.2939 53.9297 98.2939 50.2021 98.2939 42.7471C98.2939 35.292 98.2939 31.5645 97.076 28.6241C95.4521 24.7037 92.3373 21.5889 88.4169 19.965C85.4765 18.7471 81.749 18.7471 74.2939 18.7471H33.2939C25.8389 18.7471 22.1113 18.7471 19.171 19.965C15.2506 21.5889 12.1358 24.7037 10.5119 28.6241Z" fill="#F9FAFC"/>
<path d="M10.5119 28.6241L9.12605 28.0501H9.12605L10.5119 28.6241ZM10.5119 56.87L9.12605 57.444H9.12605L10.5119 56.87ZM19.171 65.5291L18.597 66.915H18.597L19.171 65.5291ZM34.3803 66.7471L35.8053 67.2154C35.9555 66.7584 35.8774 66.2571 35.5953 65.8674C35.3132 65.4778 34.8614 65.2471 34.3803 65.2471V66.7471ZM29.2939 74.1238L28.4159 72.9076C27.9418 73.2499 27.7099 73.8364 27.8216 74.4104C27.9333 74.9843 28.3684 75.441 28.9362 75.5805L29.2939 74.1238ZM46.7965 66.7471V65.2471C46.2129 65.2471 45.6823 65.5855 45.4363 66.1147L46.7965 66.7471ZM88.4169 65.5291L88.9909 66.915L88.4169 65.5291ZM97.076 56.87L98.4618 57.444L97.076 56.87ZM97.076 28.6241L98.4618 28.0501L97.076 28.6241ZM88.4169 19.965L88.9909 18.5792V18.5792L88.4169 19.965ZM19.171 19.965L18.597 18.5792V18.5792L19.171 19.965ZM10.7939 42.7471C10.7939 38.999 10.7948 36.2631 10.9427 34.0947C11.0897 31.9398 11.3771 30.4551 11.8977 29.1982L9.12605 28.0501C8.42876 29.7335 8.10712 31.5828 7.94967 33.8905C7.79313 36.1847 7.79395 39.0401 7.79395 42.7471H10.7939ZM11.8977 56.296C11.3771 55.039 11.0897 53.5544 10.9427 51.3995C10.7948 49.231 10.7939 46.4951 10.7939 42.7471H7.79395C7.79395 46.4541 7.79313 49.3095 7.94967 51.6037C8.10712 53.9114 8.42876 55.7606 9.12605 57.444L11.8977 56.296ZM19.745 64.1433C16.1921 62.6717 13.3694 59.8489 11.8977 56.296L9.12605 57.444C10.9022 61.732 14.309 65.1388 18.597 66.915L19.745 64.1433ZM33.2939 65.2471C29.5459 65.2471 26.81 65.2463 24.6416 65.0983C22.4866 64.9513 21.002 64.664 19.745 64.1433L18.597 66.915C20.2804 67.6123 22.1297 67.9339 24.4373 68.0914C26.7316 68.2479 29.5869 68.2471 33.2939 68.2471V65.2471ZM34.3803 65.2471H33.2939V68.2471H34.3803V65.2471ZM30.172 75.3399C33.2326 73.1302 34.9111 69.9362 35.8053 67.2154L32.9553 66.2787C32.1761 68.6495 30.7837 71.1981 28.4159 72.9076L30.172 75.3399ZM45.4363 66.1147C44.1329 68.9183 42.1149 70.9985 39.5189 72.1649C36.9182 73.3333 33.6126 73.6397 29.6517 72.667L28.9362 75.5805C33.4205 76.6817 37.4281 76.3931 40.7483 74.9014C44.0731 73.4076 46.5838 70.7626 48.1567 67.3794L45.4363 66.1147ZM74.2939 65.2471H46.7965V68.2471H74.2939V65.2471ZM87.8428 64.1433C86.5859 64.664 85.1013 64.9513 82.9463 65.0983C80.7779 65.2463 78.042 65.2471 74.2939 65.2471V68.2471C78.001 68.2471 80.8563 68.2479 83.1505 68.0914C85.4582 67.9339 87.3075 67.6123 88.9909 66.915L87.8428 64.1433ZM95.6902 56.296C94.2185 59.8489 91.3958 62.6717 87.8428 64.1433L88.9909 66.915C93.2789 65.1388 96.6857 61.732 98.4618 57.444L95.6902 56.296ZM96.7939 42.7471C96.7939 46.4951 96.7931 49.231 96.6452 51.3995C96.4982 53.5544 96.2108 55.039 95.6902 56.296L98.4618 57.444C99.1591 55.7606 99.4808 53.9114 99.6382 51.6037C99.7948 49.3095 99.7939 46.4541 99.7939 42.7471H96.7939ZM95.6902 29.1982C96.2108 30.4551 96.4982 31.9398 96.6452 34.0947C96.7931 36.2631 96.7939 38.999 96.7939 42.7471H99.7939C99.7939 39.0401 99.7948 36.1847 99.6382 33.8905C99.4808 31.5828 99.1591 29.7335 98.4618 28.0501L95.6902 29.1982ZM87.8428 21.3508C91.3958 22.8225 94.2185 25.6453 95.6902 29.1982L98.4618 28.0501C96.6857 23.7621 93.2789 20.3553 88.9909 18.5792L87.8428 21.3508ZM74.2939 20.2471C78.042 20.2471 80.7779 20.2479 82.9463 20.3958C85.1013 20.5429 86.5859 20.8302 87.8428 21.3508L88.9909 18.5792C87.3075 17.8819 85.4582 17.5602 83.1505 17.4028C80.8563 17.2463 78.001 17.2471 74.2939 17.2471V20.2471ZM33.2939 20.2471H74.2939V17.2471H33.2939V20.2471ZM19.745 21.3508C21.002 20.8302 22.4866 20.5429 24.6416 20.3958C26.81 20.2479 29.5459 20.2471 33.2939 20.2471V17.2471C29.5869 17.2471 26.7316 17.2463 24.4373 17.4028C22.1297 17.5602 20.2804 17.8819 18.597 18.5792L19.745 21.3508ZM11.8977 29.1982C13.3694 25.6453 16.1921 22.8225 19.745 21.3508L18.597 18.5792C14.309 20.3553 10.9022 23.7621 9.12605 28.0501L11.8977 29.1982Z" fill="#2B2727"/>
<path fill-rule="evenodd" clip-rule="evenodd" d="M56.9829 71.1025C56.2939 73.3737 56.2939 76.1648 56.2939 81.7471C56.2939 87.3293 56.2939 90.1204 56.9829 92.3916C58.5341 97.5052 62.5358 101.507 67.6494 103.058C69.9206 103.747 72.7117 103.747 78.2939 103.747H91.3934C93.6092 109.314 98.9864 112.747 105.794 112.747C104.475 110.109 103.852 106.654 103.558 103.675C105.388 103.594 106.736 103.423 107.938 103.058C113.052 101.507 117.054 97.5052 118.605 92.3916C119.294 90.1204 119.294 87.3293 119.294 81.7471C119.294 76.1648 119.294 73.3737 118.605 71.1025C117.054 65.9889 113.052 61.9872 107.938 60.436C105.667 59.7471 102.876 59.7471 97.2939 59.7471H78.2939C72.7117 59.7471 69.9206 59.7471 67.6494 60.436C62.5358 61.9872 58.5341 65.9889 56.9829 71.1025Z" fill="#F9FAFC"/>
<path d="M56.9829 71.1025L55.5475 70.6671L56.9829 71.1025ZM56.9829 92.3916L58.4183 91.9562L56.9829 92.3916ZM67.6494 103.058L67.214 104.494L67.6494 103.058ZM91.3934 103.747L92.787 103.192C92.5599 102.622 92.0077 102.247 91.3934 102.247V103.747ZM105.794 112.747V114.247C106.314 114.247 106.797 113.978 107.07 113.536C107.343 113.093 107.368 112.541 107.136 112.076L105.794 112.747ZM103.558 103.675L103.491 102.177C103.08 102.195 102.694 102.382 102.424 102.693C102.154 103.004 102.024 103.413 102.065 103.823L103.558 103.675ZM107.938 103.058L107.503 101.623L107.938 103.058ZM118.605 92.3916L120.04 92.8271V92.827L118.605 92.3916ZM118.605 71.1025L120.04 70.6671L118.605 71.1025ZM107.938 60.436L107.503 61.8714L107.938 60.436ZM67.6494 60.436L67.214 59.0006L67.6494 60.436ZM57.7939 81.7471C57.7939 76.0557 57.8102 73.5425 58.4183 71.5379L55.5475 70.6671C54.7777 73.2049 54.7939 76.274 54.7939 81.7471H57.7939ZM58.4183 91.9562C57.8102 89.9516 57.7939 87.4385 57.7939 81.7471H54.7939C54.7939 87.2202 54.7777 90.2893 55.5475 92.8271L58.4183 91.9562ZM68.0848 101.623C63.4506 100.217 59.8241 96.5904 58.4183 91.9562L55.5475 92.8271C57.2441 98.4201 61.6209 102.797 67.214 104.494L68.0848 101.623ZM78.2939 102.247C72.6026 102.247 70.0894 102.231 68.0848 101.623L67.214 104.494C69.7517 105.263 72.8208 105.247 78.2939 105.247V102.247ZM91.3934 102.247H78.2939V105.247H91.3934V102.247ZM89.9997 104.302C92.473 110.516 98.4584 114.247 105.794 114.247V111.247C99.5145 111.247 94.7454 108.113 92.787 103.192L89.9997 104.302ZM107.136 112.076C105.942 109.689 105.34 106.457 105.05 103.528L102.065 103.823C102.364 106.852 103.008 110.529 104.452 113.418L107.136 112.076ZM107.503 101.623C106.475 101.934 105.271 102.098 103.491 102.177L103.624 105.174C105.506 105.091 106.997 104.911 108.374 104.494L107.503 101.623ZM117.17 91.9562C115.764 96.5904 112.137 100.217 107.503 101.623L108.374 104.494C113.967 102.797 118.344 98.4201 120.04 92.8271L117.17 91.9562ZM117.794 81.7471C117.794 87.4385 117.778 89.9516 117.17 91.9562L120.04 92.827C120.81 90.2893 120.794 87.2202 120.794 81.7471H117.794ZM117.17 71.5379C117.778 73.5425 117.794 76.0557 117.794 81.7471H120.794C120.794 76.274 120.81 73.2049 120.04 70.6671L117.17 71.5379ZM107.503 61.8714C112.137 63.2772 115.764 66.9037 117.17 71.5379L120.04 70.6671C118.344 65.0741 113.967 60.6972 108.374 59.0006L107.503 61.8714ZM97.2939 61.2471C102.985 61.2471 105.498 61.2634 107.503 61.8714L108.374 59.0006C105.836 58.2308 102.767 58.2471 97.2939 58.2471V61.2471ZM78.2939 61.2471H97.2939V58.2471H78.2939V61.2471ZM68.0848 61.8714C70.0894 61.2634 72.6026 61.2471 78.2939 61.2471V58.2471C72.8208 58.2471 69.7517 58.2308 67.214 59.0006L68.0848 61.8714ZM58.4183 71.5379C59.8241 66.9037 63.4506 63.2772 68.0848 61.8714L67.214 59.0006C61.6209 60.6972 57.2441 65.0741 55.5475 70.6671L58.4183 71.5379Z" fill="#2B2727"/>
</g>
<defs>
<clipPath id="clip0_2839_5602">
<rect width="128" height="128" fill="white" transform="translate(0.293945 0.74707)"/>
</clipPath>
</defs>
</svg>
