<svg width="129" height="129" viewBox="0 0 129 129" fill="none" xmlns="http://www.w3.org/2000/svg">
<g clip-path="url(#clip0_2839_5569)">
<path d="M68.0299 32.0174C69.5072 31.224 71.2838 31.224 72.7611 32.0174L116.092 55.2877C119.604 57.174 119.604 62.2113 116.092 64.0976L72.5588 87.4765C71.0815 88.2699 69.3048 88.2699 67.8275 87.4765L24.4967 64.2063C20.9842 62.3199 20.9842 57.2827 24.4967 55.3963L68.0299 32.0174Z" fill="#F9FAFC"/>
<path d="M101.294 82.1649V72.0445L72.5588 87.4765C71.0815 88.2699 69.3048 88.2699 67.8275 87.4765L39.2943 72.1532V81.9435C39.2943 88.6854 42.6173 95.1236 48.5577 98.3119C65.0681 107.173 76.8269 106.949 92.3092 98.3471C98.096 95.132 101.294 88.7848 101.294 82.1649Z" fill="#F9FAFC"/>
<path d="M72.5588 87.4765L116.092 64.0976C119.604 62.2113 119.604 57.174 116.092 55.2877L72.7611 32.0174C71.2838 31.224 69.5072 31.224 68.0299 32.0174L24.4967 55.3963C20.9842 57.2827 20.9842 62.3199 24.4967 64.2063L67.8275 87.4765M72.5588 87.4765C71.0815 88.2699 69.3048 88.2699 67.8275 87.4765M72.5588 87.4765L101.294 72.0445V82.1649C101.294 88.7848 98.096 95.132 92.3092 98.3471C76.8269 106.949 65.0681 107.173 48.5577 98.3119C42.6173 95.1236 39.2943 88.6854 39.2943 81.9435V72.1532L67.8275 87.4765" stroke="#0057F2" stroke-width="3"/>
<path d="M72.5588 87.4765L116.092 64.0976C119.604 62.2113 119.604 57.174 116.092 55.2877L94.4265 43.6525L72.7611 32.0174C71.2838 31.224 69.5072 31.224 68.0299 32.0174L57.1466 37.8621M72.5588 87.4765C71.0815 88.2699 69.3048 88.2699 67.8275 87.4765M72.5588 87.4765L101.294 72.0445C100.46 75.2133 100.631 77.5892 101.294 82.1649C102.654 88.4757 98.7691 94.9789 92.3092 98.3471C76.6902 104.892 64.9306 105.106 48.5577 98.3119C42.1775 95.0589 38.5205 88.5716 39.2943 81.9435C39.7386 76.5805 39.8107 74.1879 39.2943 72.1532L67.8275 87.4765M67.8275 87.4765L56.9948 81.659L46.1621 75.8414L24.4967 64.2063C20.9842 62.3199 20.9842 57.2827 24.4967 55.3963L46.2633 43.7069" stroke="#0057F2" stroke-width="3" stroke-linecap="round" stroke-linejoin="round"/>
<path d="M81.7239 115.615L85.9273 108.868L90.1307 115.615C90.8231 116.726 90.7146 118.158 89.8628 119.153L88.2057 121.087C87.0083 122.485 84.8462 122.485 83.6489 121.087L81.9918 119.153C81.1399 118.158 81.0315 116.726 81.7239 115.615Z" fill="#F9FAFC"/>
<path d="M68.2939 58.7471L85.7621 79.1266C86.1103 79.5328 86.3451 80.0251 86.4332 80.5528C87.918 89.4437 87.334 96.3588 85.9273 108.868M85.9273 108.868L81.7239 115.615C81.0315 116.726 81.1399 118.158 81.9918 119.153L83.6489 121.087C84.8462 122.485 87.0083 122.485 88.2057 121.087L89.8628 119.153C90.7146 118.158 90.8231 116.726 90.1307 115.615L85.9273 108.868Z" stroke="#0057F2" stroke-width="3" stroke-linecap="round" stroke-linejoin="round"/>
<path d="M62.0299 28.0174C63.5072 27.224 65.2838 27.224 66.7611 28.0174L110.092 51.2877C113.604 53.174 113.604 58.2113 110.092 60.0976L66.5588 83.4765C65.0815 84.2699 63.3048 84.2699 61.8275 83.4765L18.4967 60.2063C14.9842 58.3199 14.9842 53.2827 18.4967 51.3963L62.0299 28.0174Z" fill="#F9FAFC"/>
<path d="M95.2943 78.1649V68.0445L66.5588 83.4765C65.0815 84.2699 63.3048 84.2699 61.8275 83.4765L33.2943 68.1532V77.9435C33.2943 84.6854 36.6173 91.1236 42.5577 94.3119C59.0681 103.173 70.8269 102.949 86.3092 94.3471C92.096 91.132 95.2943 84.7848 95.2943 78.1649Z" fill="#F9FAFC"/>
<path d="M66.5588 83.4765L110.092 60.0976C113.604 58.2113 113.604 53.174 110.092 51.2877L88.4265 39.6525L66.7611 28.0174C65.2838 27.224 63.5072 27.224 62.0299 28.0174L51.1466 33.8621M66.5588 83.4765C65.0815 84.2699 63.3048 84.2699 61.8275 83.4765M66.5588 83.4765L95.2943 68.0445C94.4605 71.2133 94.6307 73.5892 95.2943 78.1649C96.6539 84.4757 92.7691 90.9789 86.3092 94.3471C70.6902 100.892 58.9306 101.106 42.5577 94.3119C36.1775 91.0589 32.5205 84.5716 33.2943 77.9435C33.7386 72.5805 33.8107 70.1879 33.2943 68.1532L61.8275 83.4765M61.8275 83.4765L50.9948 77.659L40.1621 71.8414L18.4967 60.2063C14.9842 58.3199 14.9842 53.2827 18.4967 51.3963L40.2633 39.7069" stroke="#2B2727" stroke-width="3" stroke-linecap="round" stroke-linejoin="round"/>
<path d="M75.7239 111.615L79.9273 104.868L84.1307 111.615C84.8231 112.726 84.7146 114.158 83.8628 115.153L82.2057 117.087C81.0083 118.485 78.8462 118.485 77.6489 117.087L75.9918 115.153C75.1399 114.158 75.0315 112.726 75.7239 111.615Z" fill="#F9FAFC"/>
<path d="M62.2939 54.7471L79.7621 75.1266C80.1103 75.5328 80.3451 76.0251 80.4332 76.5528C81.918 85.4437 81.334 92.3588 79.9273 104.868M79.9273 104.868L75.7239 111.615C75.0315 112.726 75.1399 114.158 75.9918 115.153L77.6489 117.087C78.8462 118.485 81.0083 118.485 82.2057 117.087L83.8628 115.153C84.7146 114.158 84.8231 112.726 84.1307 111.615L79.9273 104.868Z" stroke="#2B2727" stroke-width="3" stroke-linecap="round" stroke-linejoin="round"/>
</g>
<defs>
<clipPath id="clip0_2839_5569">
<rect width="128" height="128" fill="white" transform="translate(0.293945 0.74707)"/>
</clipPath>
</defs>
</svg>
