<svg width="129" height="129" viewBox="0 0 129 129" fill="none" xmlns="http://www.w3.org/2000/svg">
<g clip-path="url(#clip0_2839_5587)">
<path d="M55.5372 26.492C54.2439 22.9146 50.1605 21.217 46.7122 22.8232C43.264 24.4294 41.9361 28.6475 43.8424 31.9393L50.7404 43.8507C47.6176 47.3777 46.0746 52.2442 46.9562 57.2439C48.4907 65.9462 56.7892 71.7569 65.4915 70.2225C74.1938 68.688 80.0045 60.3895 78.4701 51.6872C77.8396 48.1114 76.067 45.0239 73.5937 42.7335L76.7795 27.5997C77.5906 23.7469 74.9122 20.0314 71.0006 19.5829C67.089 19.1344 63.6393 22.1473 63.5572 26.0837L63.2991 38.473C62.1997 38.4338 61.0796 38.5081 59.9527 38.7055L55.5372 26.492Z" fill="#F9FAFC" stroke="#0057F2" stroke-width="3" stroke-linejoin="round"/>
<path d="M15.5234 62.3927C15.5234 58.8574 18.5678 57.0893 22.089 57.4052C31.8803 58.2835 50.5932 59.7862 64.0234 59.7862C77.4537 59.7862 96.1666 58.2835 105.958 57.4052C109.479 57.0893 112.523 58.8574 112.523 62.3927C112.523 65.4558 110.218 67.0176 107.167 67.2958C102.615 67.711 95.6245 68.3093 88.0336 68.8154C79.9735 69.3527 71.2366 69.7862 64.0234 69.7862C56.0749 69.7862 46.276 69.2599 37.5714 68.6481C30.9374 68.1819 24.939 67.6661 20.8795 67.2958C17.8291 67.0176 15.5234 65.4558 15.5234 62.3927Z" fill="#F9FAFC"/>
<path d="M41.18 118.786H84.4074C89.157 118.786 92.8607 114.672 92.3634 109.949L88.0336 68.8154C79.9735 69.3527 71.2366 69.7862 64.0234 69.7862C56.0749 69.7862 46.276 69.2599 37.5714 68.6481L33.224 109.949C32.7268 114.672 36.4304 118.786 41.18 118.786Z" fill="#F9FAFC"/>
<path d="M37.5714 68.6481C46.276 69.2599 56.0749 69.7862 64.0234 69.7862C71.2366 69.7862 79.9735 69.3527 88.0336 68.8154M37.5714 68.6481C30.9374 68.1819 24.939 67.6661 20.8795 67.2958C17.8291 67.0176 15.5234 65.4558 15.5234 62.3927C15.5234 58.8574 18.5678 57.0893 22.089 57.4052C31.8803 58.2835 50.5932 59.7862 64.0234 59.7862C77.4537 59.7862 96.1666 58.2835 105.958 57.4052C109.479 57.0893 112.523 58.8574 112.523 62.3927C112.523 65.4558 110.218 67.0176 107.167 67.2958C102.615 67.711 95.6245 68.3093 88.0336 68.8154M37.5714 68.6481L33.224 109.949C32.7268 114.672 36.4304 118.786 41.18 118.786H84.4074C89.157 118.786 92.8607 114.672 92.3634 109.949L88.0336 68.8154" stroke="#0057F2" stroke-width="3"/>
<path d="M61.5452 81.6065C61.9177 80.5127 63.5396 80.5127 63.9121 81.6065L65.5223 86.335C65.6889 86.8242 66.1667 87.1553 66.7057 87.1553H71.9166C73.1221 87.1553 73.6232 88.6271 72.648 89.3031L68.4323 92.2254C67.9962 92.5278 67.8137 93.0637 67.9803 93.5528L69.5906 98.2813C69.9631 99.3751 68.6509 100.285 67.6757 99.6087L63.46 96.6863C63.0239 96.384 62.4334 96.384 61.9973 96.6863L57.7815 99.6087C56.8064 100.285 55.4942 99.3751 55.8667 98.2813L57.477 93.5528C57.6436 93.0636 57.4611 92.5278 57.025 92.2254L52.8093 89.3031C51.8341 88.6271 52.3353 87.1553 53.5407 87.1553H58.7516C59.2906 87.1553 59.7684 86.8242 59.935 86.335L61.5452 81.6065Z" fill="#F9FAFC" stroke="#0057F2" stroke-width="2" stroke-linejoin="round"/>
<path d="M84.3297 37.9401C83.7579 35.8062 85.0242 33.6129 87.1581 33.0411L88.124 32.7823C90.2579 32.2105 92.4512 33.4769 93.023 35.6107L112.434 108.055C113.006 110.189 111.74 112.382 109.606 112.954L108.64 113.213C106.506 113.785 104.313 112.518 103.741 110.385L84.3297 37.9401Z" fill="#F9FAFC"/>
<path d="M89.5061 57.2586L98.1994 54.9293M108.64 113.213L109.606 112.954C111.74 112.382 113.006 110.189 112.434 108.055L93.023 35.6107C92.4512 33.4769 90.2579 32.2105 88.124 32.7823L87.1581 33.0411C85.0242 33.6129 83.7579 35.8062 84.3297 37.9401L103.741 110.385C104.313 112.518 106.506 113.785 108.64 113.213Z" stroke="#0057F2" stroke-width="3"/>
<path d="M49.5372 22.492C48.2439 18.9146 44.1605 17.217 40.7122 18.8232C37.264 20.4294 35.9361 24.6475 37.8424 27.9393L44.7404 39.8507C41.6176 43.3777 40.0746 48.2442 40.9562 53.2439C42.4907 61.9462 50.7892 67.7569 59.4915 66.2225C68.1938 64.688 74.0045 56.3895 72.4701 47.6872C71.8396 44.1114 70.067 41.0239 67.5937 38.7335L70.7795 23.5997C71.5906 19.7469 68.9122 16.0314 65.0006 15.5829C61.089 15.1344 57.6393 18.1473 57.5572 22.0837L57.2991 34.473C56.1997 34.4338 55.0796 34.5081 53.9527 34.7055L49.5372 22.492Z" fill="#F9FAFC" stroke="#2B2727" stroke-width="3" stroke-linejoin="round"/>
<path d="M9.52344 58.3927C9.52344 54.8574 12.5678 53.0893 16.089 53.4052C25.8803 54.2835 44.5932 55.7862 58.0234 55.7862C71.4537 55.7862 90.1666 54.2835 99.9579 53.4052C103.479 53.0893 106.523 54.8574 106.523 58.3927C106.523 61.4558 104.218 63.0176 101.167 63.2958C96.6151 63.711 89.6245 64.3093 82.0336 64.8154C73.9735 65.3527 65.2366 65.7862 58.0234 65.7862C50.0749 65.7862 40.276 65.2599 31.5714 64.6481C24.9374 64.1819 18.939 63.6661 14.8795 63.2958C11.8291 63.0176 9.52344 61.4558 9.52344 58.3927Z" fill="#F9FAFC"/>
<path d="M35.18 114.786H78.4074C83.157 114.786 86.8607 110.672 86.3634 105.949L82.0336 64.8154C73.9735 65.3527 65.2366 65.7862 58.0234 65.7862C50.0749 65.7862 40.276 65.2599 31.5714 64.6481L27.224 105.949C26.7268 110.672 30.4304 114.786 35.18 114.786Z" fill="#F9FAFC"/>
<path d="M31.5714 64.6481C40.276 65.2599 50.0749 65.7862 58.0234 65.7862C65.2366 65.7862 73.9735 65.3527 82.0336 64.8154M31.5714 64.6481C24.9374 64.1819 18.939 63.6661 14.8795 63.2958C11.8291 63.0176 9.52344 61.4558 9.52344 58.3927C9.52344 54.8574 12.5678 53.0893 16.089 53.4052C25.8803 54.2835 44.5932 55.7862 58.0234 55.7862C71.4537 55.7862 90.1666 54.2835 99.9579 53.4052C103.479 53.0893 106.523 54.8574 106.523 58.3927C106.523 61.4558 104.218 63.0176 101.167 63.2958C96.6151 63.711 89.6245 64.3093 82.0336 64.8154M31.5714 64.6481L27.224 105.949C26.7268 110.672 30.4304 114.786 35.18 114.786H78.4074C83.157 114.786 86.8607 110.672 86.3634 105.949L82.0336 64.8154" stroke="#2B2727" stroke-width="3"/>
<path d="M55.5452 77.6065C55.9177 76.5127 57.5396 76.5127 57.9121 77.6065L59.5223 82.335C59.6889 82.8242 60.1667 83.1553 60.7057 83.1553H65.9166C67.1221 83.1553 67.6232 84.6271 66.648 85.3031L62.4323 88.2254C61.9962 88.5278 61.8137 89.0637 61.9803 89.5528L63.5906 94.2813C63.9631 95.3751 62.6509 96.2847 61.6757 95.6087L57.46 92.6863C57.0239 92.384 56.4334 92.384 55.9973 92.6863L51.7815 95.6087C50.8064 96.2847 49.4942 95.3751 49.8667 94.2813L51.477 89.5528C51.6436 89.0636 51.4611 88.5278 51.025 88.2254L46.8093 85.3031C45.8341 84.6271 46.3353 83.1553 47.5407 83.1553H52.7516C53.2906 83.1553 53.7684 82.8242 53.935 82.335L55.5452 77.6065Z" fill="#F9FAFC" stroke="#2B2727" stroke-width="2" stroke-linejoin="round"/>
<path d="M78.3297 33.9401C77.7579 31.8062 79.0242 29.6129 81.1581 29.0411L82.124 28.7823C84.2579 28.2105 86.4512 29.4769 87.023 31.6107L106.434 104.055C107.006 106.189 105.74 108.382 103.606 108.954L102.64 109.213C100.506 109.785 98.3129 108.518 97.7411 106.385L78.3297 33.9401Z" fill="#F9FAFC"/>
<path d="M83.5061 53.2586L92.1994 50.9293M102.64 109.213L103.606 108.954C105.74 108.382 107.006 106.189 106.434 104.055L87.023 31.6107C86.4512 29.4769 84.2579 28.2105 82.124 28.7823L81.1581 29.0411C79.0242 29.6129 77.7579 31.8062 78.3297 33.9401L97.7411 106.385C98.3129 108.518 100.506 109.785 102.64 109.213Z" stroke="#2B2727" stroke-width="3"/>
</g>
<defs>
<clipPath id="clip0_2839_5587">
<rect width="128" height="128" fill="white" transform="translate(0.293945 0.74707)"/>
</clipPath>
</defs>
</svg>
