<svg width="129" height="129" viewBox="0 0 129 129" fill="none" xmlns="http://www.w3.org/2000/svg">
<g clip-path="url(#clip0_2839_5617)">
<path d="M16.2939 42.7471C16.2939 38.3288 19.8757 34.7471 24.2939 34.7471H105.294C109.712 34.7471 113.294 38.3288 113.294 42.7471V84.7471C113.294 89.1653 109.712 92.7471 105.294 92.7471H24.2939C19.8757 92.7471 16.2939 89.1653 16.2939 84.7471V42.7471Z" fill="#F9FAFC" stroke="#0057F2" stroke-width="3"/>
<g clip-path="url(#clip1_2839_5617)">
<path d="M65.2917 58.5263C62.6241 58.5263 60.4273 60.5363 60.1236 63.1248C60.1083 63.2555 60.0968 63.3871 60.0906 63.5202C60.085 63.6401 60.1826 63.7375 60.3023 63.7375H61.0929C61.2127 63.7375 61.3092 63.6401 61.3169 63.5203C61.3254 63.3867 61.3411 63.2551 61.3613 63.1248C61.6565 61.2158 63.3018 59.7518 65.2917 59.7518C67.4903 59.7518 69.2717 61.5368 69.2717 63.7375C69.2717 65.9383 67.4903 67.7214 65.2917 67.7214H59.3192C59.1489 67.7214 59.0461 67.9085 59.1436 68.0485C59.348 68.3422 59.5725 68.6208 59.8159 68.8815C59.8563 68.9247 59.9129 68.9488 59.9719 68.9488H65.2917C68.1668 68.9488 70.4979 66.6155 70.4979 63.7375C70.4979 60.8596 68.1668 58.5263 65.2917 58.5263Z" fill="#2B2727"/>
<path d="M65.2917 56.2471C62.9609 56.2471 60.8781 57.3096 59.5019 58.9787C58.5428 60.1419 57.9455 61.6101 57.8218 63.1134C57.8215 63.1172 57.8202 63.1209 57.8199 63.1248C57.8093 63.256 57.7996 63.3876 57.7941 63.5202C57.7892 63.6401 57.8865 63.7375 58.0063 63.7375H58.7969C58.9166 63.7375 59.0134 63.6402 59.0177 63.5202C59.0225 63.3874 59.0315 63.2558 59.0442 63.1248C59.3525 59.9425 62.0315 57.4535 65.2917 57.4535C68.7588 57.4535 71.5697 60.2671 71.5697 63.7375C71.5697 67.208 68.7588 70.0216 65.2917 70.0215H61.881C61.6659 70.0215 61.5898 70.2895 61.7799 70.3902C62.7215 70.8889 63.7825 71.19 64.9084 71.2471H65.2917C69.1763 71.2471 72.3697 68.2918 72.7539 64.5049C72.7789 64.2587 72.7933 64.0093 72.7939 63.7566C72.7939 63.4974 72.7795 63.2398 72.7539 62.9873C72.3697 59.2004 69.1763 56.2471 65.2917 56.2471Z" fill="#2B2727"/>
<path d="M65.2917 60.8246C63.8956 60.8246 62.732 61.8116 62.4502 63.1248C62.4225 63.2541 62.4017 63.3858 62.3906 63.5204C62.3807 63.64 62.4786 63.7375 62.5984 63.7375H63.3909C63.5107 63.7375 63.6063 63.6398 63.6224 63.5208C63.6411 63.3829 63.6769 63.2505 63.726 63.1248C63.9713 62.4973 64.5779 62.052 65.2917 62.052C66.2219 62.052 66.9756 62.8064 66.9756 63.7375C66.9756 64.6686 66.2219 65.423 65.2917 65.4231H59.2406C59.1943 65.2534 59.1513 65.077 59.1026 64.9079C59.0685 64.7892 58.962 64.7072 58.8537 64.7072H58.0699C57.9628 64.7072 57.8673 64.832 57.8879 64.9503C57.9871 65.4796 58.1057 66.033 58.3196 66.5294C58.353 66.6069 58.4349 66.6486 58.5116 66.6486H65.2917C66.8984 66.6486 68.1999 65.3458 68.1999 63.7375C68.1999 62.1293 66.8984 60.8246 65.2917 60.8246Z" fill="#2B2727"/>
</g>
<circle cx="8.07109" cy="8.07109" r="6.57109" transform="matrix(-1 0 0 1 118.396 57.7471)" fill="#F9FAFC" stroke="#0057F2" stroke-width="3"/>
<path d="M124.294 100.586C124.294 102.138 123.678 103.286 121.811 103.69C120.716 103.927 118.706 103.38 118.396 101.827L116.844 87.2374V119.832C116.844 121.384 115.292 123.247 113.119 123.247C110.946 123.247 109.393 121.074 109.393 119.832C109.393 121.074 108.152 123.247 105.358 123.247C103.806 123.247 101.943 121.695 101.943 119.522V85.9957L98.839 91.5833C98.2181 92.5146 96.3556 93.1355 94.8034 91.8938L85.1802 82.2705C84.5594 81.3393 84.2637 79.6854 85.4906 78.235C86.5668 77.1689 88.2845 77.3037 89.2157 77.9246L96.0451 84.4435L99.4598 78.235C100.347 76.7302 101.012 76.062 102.875 76.062H116.667C119.948 76.062 122.121 78.5454 122.362 80.7184L124.294 100.586Z" fill="#F9FAFC"/>
<path d="M109.393 119.832C109.393 121.074 108.152 123.247 105.358 123.247C103.806 123.247 101.943 121.695 101.943 119.522V85.9957L98.839 91.5833C98.2181 92.5146 96.3556 93.1355 94.8034 91.8938L85.1802 82.2705C84.5594 81.3393 84.2637 79.6854 85.4906 78.235C86.5668 77.1689 88.2845 77.3037 89.2157 77.9246L96.0451 84.4435L99.4598 78.235C100.347 76.7302 101.012 76.062 102.875 76.062H116.667C119.948 76.062 122.121 78.5454 122.362 80.7184L124.294 100.586C124.294 102.138 123.678 103.286 121.811 103.69C120.716 103.927 118.706 103.38 118.396 101.827L116.844 87.2374V119.832C116.844 121.384 115.292 123.247 113.119 123.247C110.946 123.247 109.393 121.074 109.393 119.832ZM109.393 119.832V103.38" stroke="#0057F2" stroke-width="3" stroke-linecap="round" stroke-linejoin="round"/>
<path d="M10.2939 38.7471C10.2939 34.3288 13.8757 30.7471 18.2939 30.7471H99.2939C103.712 30.7471 107.294 34.3288 107.294 38.7471V80.7471C107.294 85.1653 103.712 88.7471 99.2939 88.7471H18.2939C13.8757 88.7471 10.2939 85.1653 10.2939 80.7471V38.7471Z" fill="#F9FAFC" stroke="#2B2727" stroke-width="3"/>
<g clip-path="url(#clip2_2839_5617)">
<path d="M59.2917 54.5263C56.6241 54.5263 54.4273 56.5363 54.1236 59.1248C54.1083 59.2555 54.0968 59.3871 54.0906 59.5202C54.085 59.6401 54.1826 59.7375 54.3023 59.7375H55.0929C55.2127 59.7375 55.3092 59.6401 55.3169 59.5203C55.3254 59.3867 55.3411 59.2551 55.3613 59.1248C55.6565 57.2158 57.3018 55.7518 59.2917 55.7518C61.4903 55.7518 63.2717 57.5368 63.2717 59.7375C63.2717 61.9383 61.4903 63.7214 59.2917 63.7214L53.3192 63.7214C53.1489 63.7214 53.0461 63.9085 53.1436 64.0485C53.348 64.3422 53.5725 64.6208 53.8159 64.8815C53.8563 64.9247 53.9129 64.9488 53.9719 64.9488H59.2917C62.1668 64.9488 64.4979 62.6155 64.4979 59.7375C64.4979 56.8596 62.1668 54.5263 59.2917 54.5263Z" fill="#2B2727"/>
<path d="M59.2917 52.2471C56.9609 52.2471 54.8781 53.3096 53.5019 54.9787C52.5428 56.1419 51.9455 57.6101 51.8218 59.1134C51.8215 59.1172 51.8202 59.1209 51.8199 59.1248C51.8093 59.256 51.7996 59.3876 51.7941 59.5202C51.7892 59.6401 51.8865 59.7375 52.0063 59.7375H52.7969C52.9166 59.7375 53.0134 59.6402 53.0177 59.5202C53.0225 59.3874 53.0315 59.2558 53.0442 59.1248C53.3525 55.9425 56.0315 53.4535 59.2917 53.4535C62.7588 53.4535 65.5697 56.2671 65.5697 59.7375C65.5697 63.208 62.7588 66.0216 59.2917 66.0215H55.881C55.6659 66.0215 55.5898 66.2895 55.7799 66.3902C56.7215 66.8889 57.7825 67.19 58.9084 67.2471H59.2917C63.1763 67.2471 66.3697 64.2918 66.7539 60.5049C66.7789 60.2587 66.7933 60.0093 66.7939 59.7566C66.7939 59.4974 66.7795 59.2398 66.7539 58.9873C66.3697 55.2004 63.1763 52.2471 59.2917 52.2471Z" fill="#2B2727"/>
<path d="M59.2917 56.8246C57.8956 56.8246 56.732 57.8116 56.4502 59.1248C56.4225 59.2541 56.4017 59.3858 56.3906 59.5204C56.3807 59.64 56.4786 59.7375 56.5984 59.7375H57.3909C57.5107 59.7375 57.6063 59.6398 57.6224 59.5208C57.6411 59.3829 57.6769 59.2505 57.726 59.1248C57.9713 58.4973 58.5779 58.052 59.2917 58.052C60.2219 58.052 60.9756 58.8064 60.9756 59.7375C60.9756 60.6686 60.2219 61.423 59.2917 61.4231L53.2406 61.4231C53.1943 61.2534 53.1513 61.077 53.1026 60.9079C53.0685 60.7892 52.962 60.7072 52.8537 60.7072H52.0699C51.9628 60.7072 51.8673 60.832 51.8879 60.9503C51.9871 61.4796 52.1057 62.033 52.3196 62.5294C52.353 62.6069 52.4349 62.6486 52.5116 62.6486L59.2917 62.6486C60.8984 62.6486 62.1999 61.3458 62.1999 59.7375C62.1999 58.1293 60.8984 56.8246 59.2917 56.8246Z" fill="#2B2727"/>
</g>
<circle cx="8.07109" cy="8.07109" r="6.57109" transform="matrix(-1 0 0 1 112.396 53.7471)" fill="#F9FAFC" stroke="#2B2727" stroke-width="3"/>
<path d="M118.294 96.5857C118.294 98.1378 117.678 99.2862 115.811 99.69C114.716 99.9268 112.706 99.3795 112.396 97.8274L110.844 83.2374V115.832C110.844 117.384 109.292 119.247 107.119 119.247C104.946 119.247 103.393 117.074 103.393 115.832C103.393 117.074 102.152 119.247 99.3579 119.247C97.8058 119.247 95.9432 117.695 95.9432 115.522V81.9957L92.839 87.5833C92.2181 88.5146 90.3556 89.1355 88.8034 87.8938L79.1802 78.2705C78.5594 77.3393 78.2637 75.6854 79.4906 74.235C80.5668 73.1689 82.2845 73.3037 83.2157 73.9246L90.0451 80.4435L93.4598 74.235C94.347 72.7302 95.012 72.062 96.8745 72.062H110.667C113.948 72.062 116.121 74.5454 116.362 76.7184L118.294 96.5857Z" fill="#F9FAFC"/>
<path d="M103.393 115.832C103.393 117.074 102.152 119.247 99.3579 119.247C97.8058 119.247 95.9432 117.695 95.9432 115.522V81.9957L92.839 87.5833C92.2181 88.5146 90.3556 89.1355 88.8034 87.8938L79.1802 78.2705C78.5594 77.3393 78.2637 75.6854 79.4906 74.235C80.5668 73.1689 82.2845 73.3037 83.2157 73.9246L90.0451 80.4435L93.4598 74.235C94.347 72.7302 95.012 72.062 96.8745 72.062H110.667C113.948 72.062 116.121 74.5454 116.362 76.7184L118.294 96.5857C118.294 98.1378 117.678 99.2862 115.811 99.69C114.716 99.9268 112.706 99.3795 112.396 97.8274L110.844 83.2374V115.832C110.844 117.384 109.292 119.247 107.119 119.247C104.946 119.247 103.393 117.074 103.393 115.832ZM103.393 115.832V99.3795" stroke="#2B2727" stroke-width="3" stroke-linecap="round" stroke-linejoin="round"/>
</g>
<defs>
<clipPath id="clip0_2839_5617">
<rect width="128" height="128" fill="white" transform="translate(0.293945 0.74707)"/>
</clipPath>
<clipPath id="clip1_2839_5617">
<rect width="16" height="16" fill="white" transform="translate(57.2939 55.7471)"/>
</clipPath>
<clipPath id="clip2_2839_5617">
<rect width="16" height="16" fill="white" transform="translate(51.2939 51.7471)"/>
</clipPath>
</defs>
</svg>
