<svg width="129" height="129" viewBox="0 0 129 129" fill="none" xmlns="http://www.w3.org/2000/svg">
<g clip-path="url(#clip0_2839_5560)">
<path d="M38.2934 41.247C63.6414 37.162 77.6492 37.1952 102.293 41.2582" stroke="#0057F2" stroke-width="3"/>
<path d="M48.2939 110.347C48.2939 106.987 48.2939 105.307 48.9479 104.023C49.5231 102.894 50.441 101.976 51.57 101.401C52.8535 100.747 54.5336 100.747 57.8939 100.747H82.6939C86.0543 100.747 87.7344 100.747 89.0179 101.401C90.1469 101.976 91.0647 102.894 91.64 104.023C92.2939 105.307 92.2939 106.987 92.2939 110.347V110.547C92.2939 111.667 92.2939 112.227 92.076 112.655C91.8842 113.031 91.5783 113.337 91.2019 113.529C90.7741 113.747 90.2141 113.747 89.0939 113.747H51.4939C50.3738 113.747 49.8138 113.747 49.386 113.529C49.0096 113.337 48.7037 113.031 48.5119 112.655C48.2939 112.227 48.2939 111.667 48.2939 110.547V110.347Z" fill="#F9FAFC"/>
<path d="M78.2939 38.7471C78.2939 41.7082 76.6852 44.2936 74.2939 45.6768C73.1173 46.3575 71.7511 46.7471 70.2939 46.7471C68.8368 46.7471 67.4706 46.3575 66.2939 45.6768C63.9027 44.2936 62.2939 41.7082 62.2939 38.7471C62.2939 34.3288 65.8757 30.7471 70.2939 30.7471C74.7122 30.7471 78.2939 34.3288 78.2939 38.7471Z" fill="#F9FAFC"/>
<path d="M72.2939 100.747C73.3985 100.747 74.2939 99.8516 74.2939 98.7471V45.6768C73.1173 46.3575 71.7511 46.7471 70.2939 46.7471C68.8368 46.7471 67.4706 46.3575 66.2939 45.6768V98.7471C66.2939 99.8516 67.1894 100.747 68.2939 100.747H72.2939Z" fill="#F9FAFC"/>
<path d="M72.2939 30.9991V28.7471C72.2939 27.6425 71.3985 26.7471 70.2939 26.7471C69.1894 26.7471 68.2939 27.6425 68.2939 28.7471V30.9991C68.9332 30.8346 69.6033 30.7471 70.2939 30.7471C70.9845 30.7471 71.6547 30.8346 72.2939 30.9991Z" fill="#F9FAFC"/>
<path d="M68.2939 30.9991C68.2939 29.0465 68.2939 30.6997 68.2939 28.7471M68.2939 30.9991V28.7471M68.2939 30.9991C68.9332 30.8346 69.6033 30.7471 70.2939 30.7471M68.2939 28.7471C68.2939 27.6425 69.1894 26.7471 70.2939 26.7471C71.3985 26.7471 72.2939 27.6425 72.2939 28.7471V30.9991C71.6547 30.8346 70.9845 30.7471 70.2939 30.7471M70.2939 30.7471C65.8757 30.7471 62.2939 34.3288 62.2939 38.7471C62.2939 41.7082 63.9027 44.2936 66.2939 45.6768M70.2939 30.7471C74.7122 30.7471 78.2939 34.3288 78.2939 38.7471C78.2939 41.7082 76.6852 44.2936 74.2939 45.6768M74.2939 45.6768V98.7471C74.2939 99.8516 73.3985 100.747 72.2939 100.747H68.2939C67.1894 100.747 66.2939 99.8516 66.2939 98.7471V45.6768M74.2939 45.6768C73.1173 46.3575 71.7511 46.7471 70.2939 46.7471C68.8368 46.7471 67.4706 46.3575 66.2939 45.6768M51.4939 113.747H89.0939C90.214 113.747 90.7741 113.747 91.2019 113.529C91.5783 113.337 91.8842 113.031 92.076 112.655C92.2939 112.227 92.2939 111.667 92.2939 110.547V110.347C92.2939 106.987 92.2939 105.307 91.64 104.023C91.0647 102.894 90.1469 101.976 89.0179 101.401C87.7344 100.747 86.0543 100.747 82.6939 100.747H57.8939C54.5336 100.747 52.8535 100.747 51.57 101.401C50.441 101.976 49.5231 102.894 48.9479 104.023C48.2939 105.307 48.2939 106.987 48.2939 110.347V110.547C48.2939 111.667 48.2939 112.227 48.5119 112.655C48.7037 113.031 49.0096 113.337 49.386 113.529C49.8138 113.747 50.3738 113.747 51.4939 113.747Z" stroke="#0057F2" stroke-width="3"/>
<path d="M52.2996 78.2186H23.7428L38.0212 40.5755L52.2996 78.2186Z" stroke="#0057F2" stroke-width="2" stroke-linecap="round" stroke-linejoin="round"/>
<path d="M22.2939 78.7471C22.2939 82.0608 24.9802 84.7471 28.2939 84.7471H48.2939C51.6077 84.7471 54.2939 82.0608 54.2939 78.7471V75.7471C54.2939 75.1948 53.8462 74.7471 53.2939 74.7471H23.2939C22.7417 74.7471 22.2939 75.1948 22.2939 75.7471V78.7471Z" fill="#F9FAFC"/>
<path d="M42.2939 40.7471C42.2939 42.9562 40.5031 44.7471 38.2939 44.7471C36.0848 44.7471 34.2939 42.9562 34.2939 40.7471C34.2939 38.5379 36.0848 36.7471 38.2939 36.7471C40.5031 36.7471 42.2939 38.5379 42.2939 40.7471Z" fill="#F9FAFC"/>
<path d="M22.2939 78.7471C22.2939 82.0608 24.9802 84.7471 28.2939 84.7471H48.2939C51.6077 84.7471 54.2939 82.0608 54.2939 78.7471V75.7471C54.2939 75.1948 53.8462 74.7471 53.2939 74.7471H23.2939C22.7417 74.7471 22.2939 75.1948 22.2939 75.7471V78.7471Z" stroke="#0057F2" stroke-width="3" stroke-linecap="round" stroke-linejoin="round"/>
<path d="M42.2939 40.7471C42.2939 42.9562 40.5031 44.7471 38.2939 44.7471C36.0848 44.7471 34.2939 42.9562 34.2939 40.7471C34.2939 38.5379 36.0848 36.7471 38.2939 36.7471C40.5031 36.7471 42.2939 38.5379 42.2939 40.7471Z" stroke="#0057F2" stroke-width="3" stroke-linecap="round" stroke-linejoin="round"/>
<path d="M116.3 78.2186H87.7428L102.021 40.5755L116.3 78.2186Z" stroke="#0057F2" stroke-width="2" stroke-linecap="round" stroke-linejoin="round"/>
<path d="M86.2939 78.7471C86.2939 82.0608 88.9802 84.7471 92.2939 84.7471H112.294C115.608 84.7471 118.294 82.0608 118.294 78.7471V75.7471C118.294 75.1948 117.846 74.7471 117.294 74.7471H87.2939C86.7417 74.7471 86.2939 75.1948 86.2939 75.7471V78.7471Z" fill="#F9FAFC"/>
<path d="M106.294 40.7471C106.294 42.9562 104.503 44.7471 102.294 44.7471C100.085 44.7471 98.2939 42.9562 98.2939 40.7471C98.2939 38.5379 100.085 36.7471 102.294 36.7471C104.503 36.7471 106.294 38.5379 106.294 40.7471Z" fill="#F9FAFC"/>
<path d="M86.2939 78.7471C86.2939 82.0608 88.9802 84.7471 92.2939 84.7471H112.294C115.608 84.7471 118.294 82.0608 118.294 78.7471V75.7471C118.294 75.1948 117.846 74.7471 117.294 74.7471H87.2939C86.7417 74.7471 86.2939 75.1948 86.2939 75.7471V78.7471Z" stroke="#0057F2" stroke-width="3" stroke-linecap="round" stroke-linejoin="round"/>
<path d="M106.294 40.7471C106.294 42.9562 104.503 44.7471 102.294 44.7471C100.085 44.7471 98.2939 42.9562 98.2939 40.7471C98.2939 38.5379 100.085 36.7471 102.294 36.7471C104.503 36.7471 106.294 38.5379 106.294 40.7471Z" stroke="#0057F2" stroke-width="3" stroke-linecap="round" stroke-linejoin="round"/>
<path d="M32.2934 37.247C57.6414 33.162 71.6492 33.1952 96.2933 37.2582" stroke="#2B2727" stroke-width="3"/>
<path d="M42.2939 106.347C42.2939 102.987 42.2939 101.307 42.9479 100.023C43.5231 98.8941 44.441 97.9763 45.57 97.401C46.8535 96.7471 48.5336 96.7471 51.8939 96.7471H76.6939C80.0543 96.7471 81.7344 96.7471 83.0179 97.401C84.1469 97.9763 85.0647 98.8941 85.64 100.023C86.2939 101.307 86.2939 102.987 86.2939 106.347V106.547C86.2939 107.667 86.2939 108.227 86.076 108.655C85.8842 109.031 85.5783 109.337 85.2019 109.529C84.7741 109.747 84.2141 109.747 83.0939 109.747H45.4939C44.3738 109.747 43.8138 109.747 43.386 109.529C43.0096 109.337 42.7037 109.031 42.5119 108.655C42.2939 108.227 42.2939 107.667 42.2939 106.547V106.347Z" fill="#F9FAFC"/>
<path d="M72.2939 34.7471C72.2939 37.7082 70.6852 40.2936 68.2939 41.6768C67.1173 42.3575 65.7511 42.7471 64.2939 42.7471C62.8368 42.7471 61.4706 42.3575 60.2939 41.6768C57.9027 40.2936 56.2939 37.7082 56.2939 34.7471C56.2939 30.3288 59.8757 26.7471 64.2939 26.7471C68.7122 26.7471 72.2939 30.3288 72.2939 34.7471Z" fill="#F9FAFC"/>
<path d="M66.2939 96.7471C67.3985 96.7471 68.2939 95.8516 68.2939 94.7471V41.6768C67.1173 42.3575 65.7511 42.7471 64.2939 42.7471C62.8368 42.7471 61.4706 42.3575 60.2939 41.6768V94.7471C60.2939 95.8516 61.1894 96.7471 62.2939 96.7471H66.2939Z" fill="#F9FAFC"/>
<path d="M66.2939 26.9991V24.7471C66.2939 23.6425 65.3985 22.7471 64.2939 22.7471C63.1894 22.7471 62.2939 23.6425 62.2939 24.7471V26.9991C62.9332 26.8346 63.6033 26.7471 64.2939 26.7471C64.9845 26.7471 65.6547 26.8346 66.2939 26.9991Z" fill="#F9FAFC"/>
<path d="M62.2939 26.9991C62.2939 25.0465 62.2939 26.6997 62.2939 24.7471M62.2939 26.9991V24.7471M62.2939 26.9991C62.9332 26.8346 63.6033 26.7471 64.2939 26.7471M62.2939 24.7471C62.2939 23.6425 63.1894 22.7471 64.2939 22.7471C65.3985 22.7471 66.2939 23.6425 66.2939 24.7471V26.9991C65.6547 26.8346 64.9845 26.7471 64.2939 26.7471M64.2939 26.7471C59.8757 26.7471 56.2939 30.3288 56.2939 34.7471C56.2939 37.7082 57.9027 40.2936 60.2939 41.6768M64.2939 26.7471C68.7122 26.7471 72.2939 30.3288 72.2939 34.7471C72.2939 37.7082 70.6852 40.2936 68.2939 41.6768M68.2939 41.6768V94.7471C68.2939 95.8516 67.3985 96.7471 66.2939 96.7471H62.2939C61.1894 96.7471 60.2939 95.8516 60.2939 94.7471V41.6768M68.2939 41.6768C67.1173 42.3575 65.7511 42.7471 64.2939 42.7471C62.8368 42.7471 61.4706 42.3575 60.2939 41.6768M45.4939 109.747H83.0939C84.214 109.747 84.7741 109.747 85.2019 109.529C85.5783 109.337 85.8842 109.031 86.076 108.655C86.2939 108.227 86.2939 107.667 86.2939 106.547V106.347C86.2939 102.987 86.2939 101.307 85.64 100.023C85.0647 98.8942 84.1469 97.9763 83.0179 97.401C81.7344 96.7471 80.0543 96.7471 76.6939 96.7471H51.8939C48.5336 96.7471 46.8535 96.7471 45.57 97.401C44.441 97.9763 43.5231 98.8942 42.9479 100.023C42.2939 101.307 42.2939 102.987 42.2939 106.347V106.547C42.2939 107.667 42.2939 108.227 42.5119 108.655C42.7037 109.031 43.0096 109.337 43.386 109.529C43.8138 109.747 44.3738 109.747 45.4939 109.747Z" stroke="#2B2727" stroke-width="3"/>
<path d="M46.2996 74.2186H17.7428L32.0212 36.5755L46.2996 74.2186Z" stroke="#2B2727" stroke-width="2" stroke-linecap="round" stroke-linejoin="round"/>
<path d="M16.2939 74.7471C16.2939 78.0608 18.9802 80.7471 22.2939 80.7471H42.2939C45.6077 80.7471 48.2939 78.0608 48.2939 74.7471V71.7471C48.2939 71.1948 47.8462 70.7471 47.2939 70.7471H17.2939C16.7417 70.7471 16.2939 71.1948 16.2939 71.7471V74.7471Z" fill="#F9FAFC"/>
<path d="M36.2939 36.7471C36.2939 38.9562 34.5031 40.7471 32.2939 40.7471C30.0848 40.7471 28.2939 38.9562 28.2939 36.7471C28.2939 34.5379 30.0848 32.7471 32.2939 32.7471C34.5031 32.7471 36.2939 34.5379 36.2939 36.7471Z" fill="#F9FAFC"/>
<path d="M16.2939 74.7471C16.2939 78.0608 18.9802 80.7471 22.2939 80.7471H42.2939C45.6077 80.7471 48.2939 78.0608 48.2939 74.7471V71.7471C48.2939 71.1948 47.8462 70.7471 47.2939 70.7471H17.2939C16.7417 70.7471 16.2939 71.1948 16.2939 71.7471V74.7471Z" stroke="#2B2727" stroke-width="3" stroke-linecap="round" stroke-linejoin="round"/>
<path d="M36.2939 36.7471C36.2939 38.9562 34.5031 40.7471 32.2939 40.7471C30.0848 40.7471 28.2939 38.9562 28.2939 36.7471C28.2939 34.5379 30.0848 32.7471 32.2939 32.7471C34.5031 32.7471 36.2939 34.5379 36.2939 36.7471Z" stroke="#2B2727" stroke-width="3" stroke-linecap="round" stroke-linejoin="round"/>
<path d="M110.3 74.2186H81.7428L96.0212 36.5755L110.3 74.2186Z" stroke="#2B2727" stroke-width="2" stroke-linecap="round" stroke-linejoin="round"/>
<path d="M80.2939 74.7471C80.2939 78.0608 82.9802 80.7471 86.2939 80.7471H106.294C109.608 80.7471 112.294 78.0608 112.294 74.7471V71.7471C112.294 71.1948 111.846 70.7471 111.294 70.7471H81.2939C80.7417 70.7471 80.2939 71.1948 80.2939 71.7471V74.7471Z" fill="#F9FAFC"/>
<path d="M100.294 36.7471C100.294 38.9562 98.5031 40.7471 96.2939 40.7471C94.0848 40.7471 92.2939 38.9562 92.2939 36.7471C92.2939 34.5379 94.0848 32.7471 96.2939 32.7471C98.5031 32.7471 100.294 34.5379 100.294 36.7471Z" fill="#F9FAFC"/>
<path d="M80.2939 74.7471C80.2939 78.0608 82.9802 80.7471 86.2939 80.7471H106.294C109.608 80.7471 112.294 78.0608 112.294 74.7471V71.7471C112.294 71.1948 111.846 70.7471 111.294 70.7471H81.2939C80.7417 70.7471 80.2939 71.1948 80.2939 71.7471V74.7471Z" stroke="#2B2727" stroke-width="3" stroke-linecap="round" stroke-linejoin="round"/>
<path d="M100.294 36.7471C100.294 38.9562 98.5031 40.7471 96.2939 40.7471C94.0848 40.7471 92.2939 38.9562 92.2939 36.7471C92.2939 34.5379 94.0848 32.7471 96.2939 32.7471C98.5031 32.7471 100.294 34.5379 100.294 36.7471Z" stroke="#2B2727" stroke-width="3" stroke-linecap="round" stroke-linejoin="round"/>
</g>
<defs>
<clipPath id="clip0_2839_5560">
<rect width="128" height="128" fill="white" transform="translate(0.293945 0.74707)"/>
</clipPath>
</defs>
</svg>
