<svg width="129" height="129" viewBox="0 0 129 129" fill="none" xmlns="http://www.w3.org/2000/svg">
<g clip-path="url(#clip0_2839_5644)">
<path fill-rule="evenodd" clip-rule="evenodd" d="M70.2939 14.7471C59.2483 14.7471 50.2939 23.7014 50.2939 34.7471V53.7471C50.2939 62.5039 55.9218 69.9463 63.7579 72.6547C60.904 70.6142 59.0439 67.2728 59.0439 63.4971V33.9971C59.0439 27.7839 64.0807 22.7471 70.2939 22.7471C76.5071 22.7471 81.5439 27.7839 81.5439 33.9971V63.4971C81.5439 67.2728 79.6838 70.6142 76.83 72.6547C84.6661 69.9463 90.2939 62.5039 90.2939 53.7471V34.7471C90.2939 23.7014 81.3396 14.7471 70.2939 14.7471Z" fill="#F9FAFC"/>
<path d="M63.7579 72.6547L63.2679 74.0724L64.6303 71.4345L63.7579 72.6547ZM76.83 72.6547L75.9576 71.4345L77.32 74.0724L76.83 72.6547ZM51.7939 34.7471C51.7939 24.5298 60.0767 16.2471 70.2939 16.2471V13.2471C58.4198 13.2471 48.7939 22.8729 48.7939 34.7471H51.7939ZM51.7939 53.7471V34.7471H48.7939V53.7471H51.7939ZM64.2479 71.237C56.9976 68.7311 51.7939 61.8448 51.7939 53.7471H48.7939C48.7939 63.163 54.846 71.1615 63.2679 74.0724L64.2479 71.237ZM64.6303 71.4345C62.1534 69.6635 60.5439 66.7682 60.5439 63.4971H57.5439C57.5439 67.7775 59.6547 71.5648 62.8854 73.8749L64.6303 71.4345ZM60.5439 63.4971V33.9971H57.5439V63.4971H60.5439ZM60.5439 33.9971C60.5439 28.6123 64.9092 24.2471 70.2939 24.2471V21.2471C63.2523 21.2471 57.5439 26.9554 57.5439 33.9971H60.5439ZM70.2939 24.2471C75.6787 24.2471 80.0439 28.6123 80.0439 33.9971H83.0439C83.0439 26.9554 77.3356 21.2471 70.2939 21.2471V24.2471ZM80.0439 33.9971V63.4971H83.0439V33.9971H80.0439ZM80.0439 63.4971C80.0439 66.7682 78.4345 69.6635 75.9576 71.4345L77.7025 73.8749C80.9332 71.5648 83.0439 67.7775 83.0439 63.4971H80.0439ZM88.7939 53.7471C88.7939 61.8448 83.5903 68.7311 76.34 71.237L77.32 74.0724C85.7419 71.1615 91.7939 63.163 91.7939 53.7471H88.7939ZM88.7939 34.7471V53.7471H91.7939V34.7471H88.7939ZM70.2939 16.2471C80.5112 16.2471 88.7939 24.5298 88.7939 34.7471H91.7939C91.7939 22.8729 82.1681 13.2471 70.2939 13.2471V16.2471Z" fill="#0057F2"/>
<path d="M70.2939 47.2471L38.2939 52.2471C38.2939 101.58 38.2939 113.747 70.2939 122.747C102.294 113.747 102.294 101.08 102.294 52.2471L70.2939 47.2471Z" fill="#F9FAFC" stroke="#0057F2" stroke-width="3" stroke-linejoin="round"/>
<path fill-rule="evenodd" clip-rule="evenodd" d="M73.0633 85.9799C75.7697 84.8844 77.6789 82.2311 77.6789 79.1319C77.6789 75.0534 74.3726 71.7471 70.294 71.7471C66.2155 71.7471 62.9092 75.0534 62.9092 79.1319C62.9092 82.2311 64.8183 84.8844 67.5247 85.9799V92.9779C67.5247 94.5074 68.7646 95.7472 70.294 95.7472C71.8235 95.7472 73.0633 94.5074 73.0633 92.9779V85.9799Z" fill="#0057F2"/>
<path d="M73.0633 85.9799L72.5005 84.5895L71.5633 84.9689V85.9799H73.0633ZM67.5247 85.9799H69.0247V84.9689L68.0875 84.5895L67.5247 85.9799ZM76.1789 79.1319C76.1789 81.5992 74.6599 83.7154 72.5005 84.5895L73.6262 87.3703C76.8795 86.0534 79.1789 82.863 79.1789 79.1319H76.1789ZM70.294 73.2471C73.5441 73.2471 76.1789 75.8818 76.1789 79.1319H79.1789C79.1789 74.2249 75.201 70.2471 70.294 70.2471V73.2471ZM64.4092 79.1319C64.4092 75.8818 67.0439 73.2471 70.294 73.2471V70.2471C65.3871 70.2471 61.4092 74.2249 61.4092 79.1319H64.4092ZM68.0875 84.5895C65.9281 83.7154 64.4092 81.5993 64.4092 79.1319H61.4092C61.4092 82.863 63.7085 86.0534 66.9619 87.3704L68.0875 84.5895ZM69.0247 92.9779V85.9799H66.0247V92.9779H69.0247ZM70.294 94.2472C69.593 94.2472 69.0247 93.6789 69.0247 92.9779H66.0247C66.0247 95.3358 67.9361 97.2472 70.294 97.2472V94.2472ZM71.5633 92.9779C71.5633 93.6789 70.995 94.2472 70.294 94.2472V97.2472C72.6519 97.2472 74.5633 95.3358 74.5633 92.9779H71.5633ZM71.5633 85.9799V92.9779H74.5633V85.9799H71.5633Z" fill="#0057F2"/>
<path fill-rule="evenodd" clip-rule="evenodd" d="M64.2939 10.7471C53.2483 10.7471 44.2939 19.7014 44.2939 30.7471V49.7471C44.2939 58.5039 49.9218 65.9463 57.7579 68.6547C54.904 66.6142 53.0439 63.2728 53.0439 59.4971V29.9971C53.0439 23.7839 58.0807 18.7471 64.2939 18.7471C70.5071 18.7471 75.5439 23.7839 75.5439 29.9971V59.4971C75.5439 63.2728 73.6838 66.6142 70.83 68.6547C78.6661 65.9463 84.2939 58.5039 84.2939 49.7471V30.7471C84.2939 19.7014 75.3396 10.7471 64.2939 10.7471Z" fill="#F9FAFC"/>
<path d="M57.7579 68.6547L57.2679 70.0724L58.6303 67.4345L57.7579 68.6547ZM70.83 68.6547L69.9576 67.4345L71.32 70.0724L70.83 68.6547ZM45.7939 30.7471C45.7939 20.5298 54.0767 12.2471 64.2939 12.2471V9.24707C52.4198 9.24707 42.7939 18.8729 42.7939 30.7471H45.7939ZM45.7939 49.7471V30.7471H42.7939V49.7471H45.7939ZM58.2479 67.237C50.9976 64.7311 45.7939 57.8448 45.7939 49.7471H42.7939C42.7939 59.163 48.846 67.1615 57.2679 70.0724L58.2479 67.237ZM58.6303 67.4345C56.1534 65.6635 54.5439 62.7682 54.5439 59.4971H51.5439C51.5439 63.7775 53.6547 67.5648 56.8854 69.8749L58.6303 67.4345ZM54.5439 59.4971V29.9971H51.5439V59.4971H54.5439ZM54.5439 29.9971C54.5439 24.6123 58.9092 20.2471 64.2939 20.2471V17.2471C57.2523 17.2471 51.5439 22.9554 51.5439 29.9971H54.5439ZM64.2939 20.2471C69.6787 20.2471 74.0439 24.6123 74.0439 29.9971H77.0439C77.0439 22.9554 71.3356 17.2471 64.2939 17.2471V20.2471ZM74.0439 29.9971V59.4971H77.0439V29.9971H74.0439ZM74.0439 59.4971C74.0439 62.7682 72.4345 65.6635 69.9576 67.4345L71.7025 69.8749C74.9332 67.5648 77.0439 63.7775 77.0439 59.4971H74.0439ZM82.7939 49.7471C82.7939 57.8448 77.5903 64.7311 70.34 67.237L71.32 70.0724C79.7419 67.1615 85.7939 59.163 85.7939 49.7471H82.7939ZM82.7939 30.7471V49.7471H85.7939V30.7471H82.7939ZM64.2939 12.2471C74.5112 12.2471 82.7939 20.5298 82.7939 30.7471H85.7939C85.7939 18.8729 76.1681 9.24707 64.2939 9.24707V12.2471Z" fill="#2B2727"/>
<path d="M64.2939 43.2471L32.2939 48.2471C32.2939 97.5804 32.2939 109.747 64.2939 118.747C96.2939 109.747 96.2939 97.0804 96.2939 48.2471L64.2939 43.2471Z" fill="#F9FAFC" stroke="#2B2727" stroke-width="3" stroke-linejoin="round"/>
<path fill-rule="evenodd" clip-rule="evenodd" d="M67.0633 81.9799C69.7697 80.8844 71.6789 78.2311 71.6789 75.1319C71.6789 71.0534 68.3726 67.7471 64.294 67.7471C60.2155 67.7471 56.9092 71.0534 56.9092 75.1319C56.9092 78.2311 58.8183 80.8844 61.5247 81.9799V88.9779C61.5247 90.5074 62.7646 91.7472 64.294 91.7472C65.8235 91.7472 67.0633 90.5074 67.0633 88.9779V81.9799Z" fill="#F9FAFC"/>
<path d="M67.0633 81.9799L66.5005 80.5895L65.5633 80.9689V81.9799H67.0633ZM61.5247 81.9799H63.0247V80.9689L62.0875 80.5895L61.5247 81.9799ZM70.1789 75.1319C70.1789 77.5992 68.6599 79.7154 66.5005 80.5895L67.6262 83.3703C70.8795 82.0534 73.1789 78.863 73.1789 75.1319H70.1789ZM64.294 69.2471C67.5441 69.2471 70.1789 71.8818 70.1789 75.1319H73.1789C73.1789 70.2249 69.201 66.2471 64.294 66.2471V69.2471ZM58.4092 75.1319C58.4092 71.8818 61.0439 69.2471 64.294 69.2471V66.2471C59.3871 66.2471 55.4092 70.2249 55.4092 75.1319H58.4092ZM62.0875 80.5895C59.9281 79.7154 58.4092 77.5993 58.4092 75.1319H55.4092C55.4092 78.863 57.7085 82.0534 60.9619 83.3704L62.0875 80.5895ZM63.0247 88.9779V81.9799H60.0247V88.9779H63.0247ZM64.294 90.2472C63.593 90.2472 63.0247 89.6789 63.0247 88.9779H60.0247C60.0247 91.3358 61.9361 93.2472 64.294 93.2472V90.2472ZM65.5633 88.9779C65.5633 89.6789 64.995 90.2472 64.294 90.2472V93.2472C66.6519 93.2472 68.5633 91.3358 68.5633 88.9779H65.5633ZM65.5633 81.9799V88.9779H68.5633V81.9799H65.5633Z" fill="#2B2727"/>
</g>
<defs>
<clipPath id="clip0_2839_5644">
<rect width="128" height="128" fill="white" transform="translate(0.293945 0.74707)"/>
</clipPath>
</defs>
</svg>
