<svg width="129" height="129" viewBox="0 0 129 129" fill="none" xmlns="http://www.w3.org/2000/svg">
<g clip-path="url(#clip0_2839_5638)">
<rect x="68.3555" y="30.2471" width="48.5245" height="33.2064" rx="6.5" fill="#F9FAFC" stroke="#0057F2" stroke-width="3" stroke-linecap="round" stroke-linejoin="round"/>
<path d="M79.3887 55.2053V49.6066M87.744 55.2053V41.9137M96.0993 55.2053V46.1875M104.455 55.2053V38.4946" stroke="#0057F2" stroke-width="3" stroke-linecap="round" stroke-linejoin="round"/>
<rect x="23.7939" y="73.417" width="93.0862" height="34.5989" rx="6.5" fill="#F9FAFC" stroke="#0057F2" stroke-width="3" stroke-linecap="round" stroke-linejoin="round"/>
<path d="M30.6494 99.2612L40.3973 87.5677L50.3346 98.3617L60.5893 93.2795L71.2897 95.6632L76.3697 87.5677L89.0698 94.7637L98.8846 85.5889L110.025 83.9697" stroke="#0057F2" stroke-width="3" stroke-linecap="round" stroke-linejoin="round"/>
<path d="M40.3972 30.1392C31.1681 30.1392 23.6865 37.823 23.6865 47.3015C23.6865 52.371 25.8267 56.9271 29.2297 60.0689C29.6531 60.4598 29.8648 60.6553 30.6436 61.1031C31.1397 61.3884 32.299 61.8417 32.8571 61.9687C33.7331 62.1679 34.3412 62.1679 35.5573 62.1679H45.237C46.4532 62.1679 47.0612 62.1679 47.9372 61.9687C48.4953 61.8417 49.6546 61.3884 50.1508 61.1031C50.9296 60.6553 51.1413 60.4598 51.5647 60.0689C54.9677 56.9271 57.1078 52.371 57.1078 47.3015C57.1078 37.823 49.6262 30.1392 40.3972 30.1392Z" fill="#F9FAFC"/>
<path d="M32.0418 62.1679C27.047 59.2004 23.6865 53.654 23.6865 47.3015C23.6865 37.823 31.1681 30.1392 40.3972 30.1392C49.6262 30.1392 57.1078 37.823 57.1078 47.3015C57.1078 53.654 53.7473 59.2004 48.7525 62.1679" stroke="#0057F2" stroke-width="3" stroke-linecap="round" stroke-linejoin="round"/>
<path d="M40.3975 48.2427L32.0421 42.6725" stroke="#0057F2" stroke-width="3" stroke-linecap="round"/>
<rect x="62.3555" y="26.2471" width="48.5245" height="33.2064" rx="6.5" fill="#F9FAFC" stroke="#2B2727" stroke-width="3" stroke-linecap="round" stroke-linejoin="round"/>
<path d="M73.3887 51.2053V45.6066M81.744 51.2053V37.9137M90.0993 51.2053V42.1875M98.4546 51.2053V34.4946" stroke="#2B2727" stroke-width="3" stroke-linecap="round" stroke-linejoin="round"/>
<rect x="17.7939" y="69.417" width="93.0862" height="34.5989" rx="6.5" fill="#F9FAFC" stroke="#2B2727" stroke-width="3" stroke-linecap="round" stroke-linejoin="round"/>
<path d="M24.6494 95.2612L34.3973 83.5677L44.3346 94.3617L54.5893 89.2795L65.2897 91.6632L70.3697 83.5677L83.0698 90.7637L92.8846 81.5889L104.025 79.9697" stroke="#2B2727" stroke-width="3" stroke-linecap="round" stroke-linejoin="round"/>
<path d="M34.3972 26.1392C25.1681 26.1392 17.6865 33.823 17.6865 43.3015C17.6865 48.371 19.8267 52.9271 23.2297 56.0689C23.6531 56.4598 23.8648 56.6553 24.6436 57.1031C25.1397 57.3884 26.299 57.8417 26.8571 57.9687C27.7331 58.1679 28.3412 58.1679 29.5573 58.1679H39.237C40.4532 58.1679 41.0612 58.1679 41.9372 57.9687C42.4953 57.8417 43.6546 57.3884 44.1508 57.1031C44.9296 56.6553 45.1413 56.4598 45.5647 56.0689C48.9677 52.9271 51.1078 48.371 51.1078 43.3015C51.1078 33.823 43.6262 26.1392 34.3972 26.1392Z" fill="#F9FAFC"/>
<path d="M26.0418 58.1679C21.047 55.2004 17.6865 49.654 17.6865 43.3015C17.6865 33.823 25.1681 26.1392 34.3972 26.1392C43.6262 26.1392 51.1078 33.823 51.1078 43.3015C51.1078 49.654 47.7473 55.2004 42.7525 58.1679" stroke="#2B2727" stroke-width="3" stroke-linecap="round" stroke-linejoin="round"/>
<path d="M34.3975 44.2427L26.0421 38.6725" stroke="#2B2727" stroke-width="3" stroke-linecap="round"/>
</g>
<defs>
<clipPath id="clip0_2839_5638">
<rect width="128" height="128" fill="white" transform="translate(0.293945 0.74707)"/>
</clipPath>
</defs>
</svg>
