<svg width="129" height="129" viewBox="0 0 129 129" fill="none" xmlns="http://www.w3.org/2000/svg">
<g clip-path="url(#clip0_2839_5626)">
<path d="M13.2939 24.7471H67.0153V111.747H13.2939V24.7471Z" fill="#F9FAFC"/>
<path d="M19.7776 31.2258H59.6054V105.268H19.7776V31.2258Z" fill="#F9FAFC"/>
<path d="M72.5726 24.7471H126.294V111.747H72.5726V24.7471Z" fill="#F9FAFC"/>
<path d="M79.0562 31.2258H118.884V105.268H79.0562V31.2258Z" fill="#F9FAFC"/>
<path d="M13.2939 24.7471H67.0153V111.747H13.2939V24.7471Z" stroke="#0057F2" stroke-width="3"/>
<path d="M19.7776 31.2258H59.6054V105.268H19.7776V31.2258Z" stroke="#0057F2" stroke-width="3"/>
<path d="M72.5726 24.7471H126.294V111.747H72.5726V24.7471Z" stroke="#0057F2" stroke-width="3"/>
<path d="M79.0562 31.2258H118.884V105.268H79.0562V31.2258Z" stroke="#0057F2" stroke-width="3"/>
<path d="M105.764 45.7156C105.764 49.5642 102.671 52.6841 98.8543 52.6841C95.0381 52.6841 91.9444 49.5642 91.9444 45.7156C91.9444 41.867 95.0381 38.7471 98.8543 38.7471C102.671 38.7471 105.764 41.867 105.764 45.7156Z" stroke="#0057F2" stroke-width="2" stroke-linejoin="round"/>
<path d="M99.315 60.1171L107.294 97.7471H91.336L99.315 60.1171Z" stroke="#0057F2" stroke-width="2" stroke-linejoin="round"/>
<path d="M50.4845 68.9439C50.4845 74.8451 45.7409 79.629 39.8892 79.629C34.0376 79.629 29.2939 74.8451 29.2939 68.9439C29.2939 63.0427 34.0376 58.2589 39.8892 58.2589C45.7409 58.2589 50.4845 63.0427 50.4845 68.9439Z" stroke="#0057F2" stroke-width="2" stroke-linejoin="round"/>
<path d="M35.7433 40.6053H43.1139V52.6841H35.7433V40.6053Z" stroke="#0057F2" stroke-width="2" stroke-linejoin="round"/>
<path d="M47.7205 91.7077L35.9736 96.5356L35.9736 86.8798L47.7205 91.7077Z" stroke="#0057F2" stroke-width="2" stroke-linejoin="round"/>
<path d="M7.29395 20.7471H61.0153V107.747H7.29395V20.7471Z" fill="#F9FAFC"/>
<path d="M13.7776 27.2258H53.6054V101.268H13.7776V27.2258Z" fill="#F9FAFC"/>
<path d="M66.5726 20.7471H120.294V107.747H66.5726V20.7471Z" fill="#F9FAFC"/>
<path d="M73.0562 27.2258H112.884V101.268H73.0562V27.2258Z" fill="#F9FAFC"/>
<path d="M7.29395 20.7471H61.0153V107.747H7.29395V20.7471Z" stroke="#2B2727" stroke-width="3"/>
<path d="M13.7776 27.2258H53.6054V101.268H13.7776V27.2258Z" stroke="#2B2727" stroke-width="3"/>
<path d="M66.5726 20.7471H120.294V107.747H66.5726V20.7471Z" stroke="#2B2727" stroke-width="3"/>
<path d="M73.0562 27.2258H112.884V101.268H73.0562V27.2258Z" stroke="#2B2727" stroke-width="3"/>
<path d="M99.7643 41.7156C99.7643 45.5642 96.6706 48.6841 92.8543 48.6841C89.0381 48.6841 85.9444 45.5642 85.9444 41.7156C85.9444 37.867 89.0381 34.7471 92.8543 34.7471C96.6706 34.7471 99.7643 37.867 99.7643 41.7156Z" stroke="#2B2727" stroke-width="2" stroke-linejoin="round"/>
<path d="M93.315 56.1171L101.294 93.7471H85.336L93.315 56.1171Z" stroke="#2B2727" stroke-width="2" stroke-linejoin="round"/>
<path d="M44.4845 64.9439C44.4845 70.8451 39.7409 75.629 33.8892 75.629C28.0376 75.629 23.2939 70.8451 23.2939 64.9439C23.2939 59.0427 28.0376 54.2589 33.8892 54.2589C39.7409 54.2589 44.4845 59.0427 44.4845 64.9439Z" stroke="#2B2727" stroke-width="2" stroke-linejoin="round"/>
<path d="M29.7433 36.6053H37.1139V48.6841H29.7433V36.6053Z" stroke="#2B2727" stroke-width="2" stroke-linejoin="round"/>
<path d="M41.7205 87.7077L29.9736 92.5356L29.9736 82.8798L41.7205 87.7077Z" stroke="#2B2727" stroke-width="2" stroke-linejoin="round"/>
</g>
<defs>
<clipPath id="clip0_2839_5626">
<rect width="128" height="128" fill="white" transform="translate(0.293945 0.74707)"/>
</clipPath>
</defs>
</svg>
