<svg width="129" height="129" viewBox="0 0 129 129" fill="none" xmlns="http://www.w3.org/2000/svg">
<g clip-path="url(#clip0_2839_5650)">
<path d="M46.8916 32.9253C47.4149 32.8911 47.8823 32.5861 48.1244 32.121C50.5373 27.484 55.8762 24.7346 61.191 25.4117C61.7007 25.4766 62.2082 25.2761 62.5359 24.8803C64.8722 22.0584 68.4532 20.2471 72.4791 20.2471C79.1657 20.2471 84.6052 25.2362 85.1866 31.5322C85.258 32.3049 85.907 32.8957 86.683 32.8942L86.7384 32.8941C86.7388 32.8941 86.7392 32.8941 86.7396 32.8941C94.5368 32.8947 100.794 39.0523 100.794 46.5706C100.794 54.0892 94.5362 60.2471 86.7384 60.2471H86.6587H86.579H86.4994H86.4198H86.3402H86.2606H86.181H86.1015H86.0219H85.9424H85.8629H85.7835H85.704H85.6246H85.5452H85.4658H85.3864H85.307H85.2277H85.1484H85.0691H84.9898H84.9105H84.8313H84.7521H84.6729H84.5937H84.5145H84.4354H84.3562H84.2771H84.198H84.119H84.0399H83.9609H83.8819H83.8029H83.7239H83.6449H83.566H83.4871H83.4082H83.3293H83.2504H83.1716H83.0927H83.0139H82.9351H82.8564H82.7776H82.6989H82.6201H82.5414H82.4627H82.3841H82.3054H82.2268H82.1482H82.0696H81.991H81.9125H81.8339H81.7554H81.6769H81.5984H81.5199H81.4415H81.363H81.2846H81.2062H81.1278H81.0495H80.9711H80.8928H80.8145H80.7362H80.6579H80.5797H80.5014H80.4232H80.345H80.2668H80.1886H80.1105H80.0323H79.9542H79.8761H79.798H79.7199H79.6419H79.5639H79.4858H79.4078H79.3298H79.2519H79.1739H79.096H79.0181H78.9402H78.8623H78.7844H78.7066H78.6287H78.5509H78.4731H78.3953H78.3176H78.2398H78.1621H78.0844H78.0067H77.929H77.8513H77.7736H77.696H77.6184H77.5408H77.4632H77.3856H77.3081H77.2305H77.153H77.0755H76.998H76.9205H76.8431H76.7656H76.6882H76.6108H76.5334H76.456H76.3786H76.3013H76.224H76.1466H76.0693H75.9921H75.9148H75.8375H75.7603H75.6831H75.6059H75.5287H75.4515H75.3743H75.2972H75.2201H75.1429H75.0658H74.9888H74.9117H74.8346H74.7576H74.6806H74.6035H74.5266H74.4496H74.3726H74.2957H74.2187H74.1418H74.0649H73.988H73.9111H73.8343H73.7574H73.6806H73.6038H73.527H73.4502H73.3734H73.2967H73.2199H73.1432H73.0665H72.9898H72.9131H72.8364H72.7598H72.6831H72.6065H72.5299H72.4533H72.3767H72.3001H72.2236H72.147H72.0705H71.994H71.9175H71.841H71.7645H71.6881H71.6116H71.5352H71.4588H71.3824H71.306H71.2296H71.1533H71.0769H71.0006H70.9243H70.848H70.7717H70.6954H70.6191H70.5429H70.4666H70.3904H70.3142H70.238H70.1618H70.0857H70.0095H69.9334H69.8572H69.7811H69.705H69.6289H69.5528H69.4768H69.4007H69.3247H69.2486H69.1726H69.0966H69.0206H68.9447H68.8687H68.7928H68.7168H68.6409H68.565H68.4891H68.4132H68.3373H68.2615H68.1856H68.1098H68.034H67.9582H67.8824H67.8066H67.7308H67.6551H67.5793H67.5036H67.4279H67.3521H67.2765H67.2008H67.1251H67.0494H66.9738H66.8981H66.8225H66.7469H66.6713H66.5957H66.5201H66.4446H66.369H66.2935H66.218H66.1424H66.0669H65.9914H65.916H65.8405H65.765H65.6896H65.6141H65.5387H65.4633H65.3879H65.3125H65.2371H65.1618H65.0864H65.0111H64.9357H64.8604H64.7851H64.7098H64.6345H64.5592H64.484H64.4087H64.3335H64.2583H64.183H64.1078H64.0326H63.9574H63.8823H63.8071H63.7319H63.6568H63.5817H63.5065H63.4314H63.3563H63.2812H63.2062H63.1311H63.056H62.981H62.9059H62.8309H62.7559H62.6809H62.6059H62.5309H62.4559H62.381H62.306H62.2311H62.1561H62.0812H62.0063H61.9314H61.8565H61.7816H61.7068H61.6319H61.557H61.4822H61.4074H61.3325H61.2577H61.1829H61.1081H61.0333H60.9586H60.8838H60.8091H60.7343H60.6596H60.5849H60.5101H60.4354H60.3607H60.286H60.2114H60.1367H60.062H59.9874H59.9127H59.8381H59.7635H59.6889H59.6143H59.5397H59.4651H59.3905H59.316H59.2414H59.1669H59.0923H59.0178H58.9433H58.8687H58.7942H58.7197H58.6453H58.5708H58.4963H58.4219H58.3474H58.273H58.1985H58.1241H58.0497H57.9753H57.9009H57.8265H57.7521H57.6777H57.6034H57.529H57.4547H57.3803H57.306H57.2317H57.1574H57.083H57.0087H56.9345H56.8602H56.7859H56.7116H56.6374H56.5631H56.4889H56.4146H56.3404H56.2662H56.192H56.1178H56.0436H55.9694H55.8952H55.8211H55.7469H55.6727H55.5986H55.5244H55.4503H55.3762H55.3021H55.228H55.1539H55.0798H55.0057H54.9316H54.8575H54.7834H54.7094H54.6353H54.5613H54.4872H54.4132H54.3392H54.2652H54.1912H54.1172H54.0432H53.9692H53.8952H53.8212H53.7473H53.6733H53.5993H53.5254H53.4515H53.3775H53.3036H53.2297H53.1558H53.0818H53.0079H52.9341H52.8602H52.7863H52.7124H52.6385H52.5647H52.4908H52.417H52.3431H52.2693H52.1955H52.1216H52.0478H51.974H51.9002H51.8264H51.7526H51.6788H51.605H51.5313H51.4575H51.3837H51.31H51.2362H51.1625H51.0887H51.015H50.9413H50.8676H50.7938H50.7201H50.6464H50.5727H50.499H50.4253H50.3517H50.278H50.2043H50.1306H50.057H49.9833H49.9097H49.836H49.7624H49.6888H49.6151H49.5415H49.4679H49.3943H49.3207H49.2471H49.1735H49.0999H49.0263H48.9527H48.8791H48.8055H48.732H48.6584H48.5848H48.5113H48.4377H48.3642H48.2906H48.2171H48.1436H48.0701H47.9965H47.923H47.8495C40.0517 60.2471 33.7939 54.0892 33.7939 46.5706C33.7939 39.3621 39.5446 33.4057 46.8916 32.9253Z" fill="#F9FAFC" stroke="#0057F2" stroke-width="3" stroke-linejoin="round"/>
<g clip-path="url(#clip1_2839_5650)">
<path d="M68.7907 34.7422C64.956 34.7422 61.7981 37.6316 61.3616 41.3525C61.3395 41.5405 61.323 41.7296 61.3141 41.9209C61.3061 42.0933 61.4463 42.2333 61.6185 42.2333L62.755 42.2333C62.9272 42.2333 63.0659 42.0933 63.0769 41.921C63.0892 41.729 63.1118 41.5398 63.1408 41.3525C63.5651 38.6083 65.9302 36.5038 68.7907 36.5038C71.9512 36.5038 74.512 39.0698 74.512 42.2333C74.512 45.397 71.9512 47.9601 68.7907 47.9601L60.2052 47.9601C59.9604 47.9601 59.8127 48.2292 59.9528 48.4304C60.2467 48.8525 60.5694 49.2531 60.9193 49.6278C60.9773 49.69 61.0587 49.7245 61.1436 49.7245L68.7907 49.7245C72.9237 49.7245 76.2747 46.3704 76.2746 42.2333C76.2746 38.0963 72.9237 34.7422 68.7907 34.7422Z" fill="#2B2727"/>
<path d="M68.7907 31.4658C65.4402 31.4658 62.4461 32.9932 60.4679 35.3925C59.0892 37.0646 58.2305 39.1752 58.0528 41.3361C58.0523 41.3416 58.0504 41.3469 58.05 41.3525C58.0348 41.5412 58.0209 41.7303 58.013 41.9209C58.0058 42.0934 58.1457 42.2333 58.3179 42.2333H59.4544C59.6266 42.2333 59.7656 42.0934 59.7718 41.9209C59.7787 41.73 59.7917 41.5409 59.81 41.3525C60.2532 36.778 64.1043 33.2 68.7907 33.2C73.7746 33.2 77.8153 37.2446 77.8153 42.2333C77.8153 47.2222 73.7746 51.2667 68.7907 51.2666L63.8878 51.2666C63.5787 51.2666 63.4692 51.6519 63.7426 51.7966C65.096 52.5134 66.6212 52.9463 68.2397 53.0283H68.7907C74.3749 53.0283 78.9653 48.7801 79.5176 43.3365C79.5535 42.9826 79.5743 42.624 79.5752 42.2608C79.5752 41.8882 79.5545 41.5179 79.5176 41.155C78.9653 35.7113 74.3749 31.4658 68.7907 31.4658Z" fill="#2B2727"/>
<path d="M68.7907 38.046C66.7838 38.046 65.1111 39.4648 64.706 41.3525C64.6662 41.5384 64.6363 41.7278 64.6204 41.9212C64.6062 42.0932 64.7469 42.2333 64.9191 42.2333H66.0583C66.2305 42.2333 66.368 42.0928 66.3911 41.9218C66.418 41.7236 66.4694 41.5333 66.5401 41.3525C66.8926 40.4506 67.7646 39.8103 68.7907 39.8104C70.1279 39.8104 71.2113 40.8949 71.2114 42.2333C71.2114 43.5718 70.1279 44.6562 68.7907 44.6563L60.0922 44.6563C60.0257 44.4124 59.9638 44.1588 59.8939 43.9158C59.8448 43.7451 59.6918 43.6272 59.5361 43.6272H58.4093C58.2555 43.6272 58.1182 43.8067 58.1478 43.9767C58.2903 44.7376 58.4609 45.5331 58.7684 46.2466C58.8164 46.3581 58.934 46.418 59.0443 46.418L68.7907 46.418C71.1003 46.418 72.9713 44.5452 72.9713 42.2333C72.9713 39.9215 71.1003 38.046 68.7907 38.046Z" fill="#2B2727"/>
</g>
<path d="M80.2937 98.4308C80.2937 99.6511 79.8092 100.554 78.3412 100.871C77.4804 101.058 75.9006 100.627 75.6565 99.4071L74.4362 87.9361V113.563C74.4362 114.783 73.2159 116.247 71.5075 116.247C69.799 116.247 68.5787 114.539 68.5787 113.563C68.5787 114.539 67.6025 116.247 65.4059 116.247C64.1856 116.247 62.7212 115.027 62.7212 113.319V86.9599L60.2806 91.353C59.7925 92.0852 58.3281 92.5733 57.1078 91.5971L49.5419 84.0311C49.0538 83.299 48.8213 81.9987 49.786 80.8583C50.6321 80.0201 51.9825 80.1262 52.7147 80.6143L58.0841 85.7396L60.7688 80.8583C61.4663 79.6753 61.9891 79.1499 63.4534 79.1499H74.2975C76.8769 79.1499 78.5853 81.1024 78.7751 82.8108L80.2937 98.4308Z" fill="#F9FAFC"/>
<path d="M68.5787 113.563C68.5787 114.539 69.799 116.247 71.5075 116.247C73.2159 116.247 74.4362 114.783 74.4362 113.563V87.9361L75.6565 99.4071C75.9006 100.627 77.4804 101.058 78.3412 100.871C79.8092 100.554 80.2937 99.6511 80.2937 98.4308L78.7751 82.8108C78.5853 81.1024 76.8769 79.1499 74.2975 79.1499H63.4534C61.9891 79.1499 61.4663 79.6753 60.7688 80.8583L58.0841 85.7396L52.7147 80.6143C51.9825 80.1262 50.6321 80.0201 49.786 80.8583C48.8213 81.9987 49.0538 83.299 49.5419 84.0311L57.1078 91.5971C58.3281 92.5733 59.7925 92.0852 60.2806 91.353L62.7212 86.9599V113.319C62.7212 115.027 64.1856 116.247 65.4059 116.247C67.6025 116.247 68.5787 114.539 68.5787 113.563ZM68.5787 113.563V100.871" stroke="#0057F2" stroke-width="3" stroke-linecap="round" stroke-linejoin="round"/>
<path d="M63.2939 70.2471C63.2939 73.2846 65.7564 75.7471 68.7939 75.7471C71.8315 75.7471 74.2939 73.2846 74.2939 70.2471C74.2939 67.2095 71.8315 64.7471 68.7939 64.7471C65.7564 64.7471 63.2939 67.2095 63.2939 70.2471Z" fill="#F9FAFC" stroke="#2B2727" stroke-width="3" stroke-linecap="round" stroke-linejoin="round"/>
<path d="M40.8916 28.9253C41.4149 28.8911 41.8823 28.5861 42.1244 28.121C44.5373 23.484 49.8762 20.7346 55.191 21.4117C55.7007 21.4766 56.2082 21.2761 56.5359 20.8803C58.8722 18.0584 62.4532 16.2471 66.4791 16.2471C73.1657 16.2471 78.6052 21.2362 79.1866 27.5322C79.258 28.3049 79.907 28.8957 80.683 28.8942L80.7384 28.8941C80.7388 28.8941 80.7392 28.8941 80.7396 28.8941C88.5368 28.8947 94.7939 35.0523 94.7939 42.5706C94.7939 50.0892 88.5362 56.2471 80.7384 56.2471H80.6587H80.579H80.4994H80.4198H80.3402H80.2606H80.181H80.1015H80.0219H79.9424H79.8629H79.7835H79.704H79.6246H79.5452H79.4658H79.3864H79.307H79.2277H79.1484H79.0691H78.9898H78.9105H78.8313H78.7521H78.6729H78.5937H78.5145H78.4354H78.3562H78.2771H78.198H78.119H78.0399H77.9609H77.8819H77.8029H77.7239H77.6449H77.566H77.4871H77.4082H77.3293H77.2504H77.1716H77.0927H77.0139H76.9351H76.8564H76.7776H76.6989H76.6201H76.5414H76.4627H76.3841H76.3054H76.2268H76.1482H76.0696H75.991H75.9125H75.8339H75.7554H75.6769H75.5984H75.5199H75.4415H75.363H75.2846H75.2062H75.1278H75.0495H74.9711H74.8928H74.8145H74.7362H74.6579H74.5797H74.5014H74.4232H74.345H74.2668H74.1886H74.1105H74.0323H73.9542H73.8761H73.798H73.7199H73.6419H73.5639H73.4858H73.4078H73.3298H73.2519H73.1739H73.096H73.0181H72.9402H72.8623H72.7844H72.7066H72.6287H72.5509H72.4731H72.3953H72.3176H72.2398H72.1621H72.0844H72.0067H71.929H71.8513H71.7736H71.696H71.6184H71.5408H71.4632H71.3856H71.3081H71.2305H71.153H71.0755H70.998H70.9205H70.8431H70.7656H70.6882H70.6108H70.5334H70.456H70.3786H70.3013H70.224H70.1466H70.0693H69.9921H69.9148H69.8375H69.7603H69.6831H69.6059H69.5287H69.4515H69.3743H69.2972H69.2201H69.1429H69.0658H68.9888H68.9117H68.8346H68.7576H68.6806H68.6035H68.5266H68.4496H68.3726H68.2957H68.2187H68.1418H68.0649H67.988H67.9111H67.8343H67.7574H67.6806H67.6038H67.527H67.4502H67.3734H67.2967H67.2199H67.1432H67.0665H66.9898H66.9131H66.8364H66.7598H66.6831H66.6065H66.5299H66.4533H66.3767H66.3001H66.2236H66.147H66.0705H65.994H65.9175H65.841H65.7645H65.6881H65.6116H65.5352H65.4588H65.3824H65.306H65.2296H65.1533H65.0769H65.0006H64.9243H64.848H64.7717H64.6954H64.6191H64.5429H64.4666H64.3904H64.3142H64.238H64.1618H64.0857H64.0095H63.9334H63.8572H63.7811H63.705H63.6289H63.5528H63.4768H63.4007H63.3247H63.2486H63.1726H63.0966H63.0206H62.9447H62.8687H62.7928H62.7168H62.6409H62.565H62.4891H62.4132H62.3373H62.2615H62.1856H62.1098H62.034H61.9582H61.8824H61.8066H61.7308H61.6551H61.5793H61.5036H61.4279H61.3521H61.2765H61.2008H61.1251H61.0494H60.9738H60.8981H60.8225H60.7469H60.6713H60.5957H60.5201H60.4446H60.369H60.2935H60.218H60.1424H60.0669H59.9914H59.916H59.8405H59.765H59.6896H59.6141H59.5387H59.4633H59.3879H59.3125H59.2371H59.1618H59.0864H59.0111H58.9357H58.8604H58.7851H58.7098H58.6345H58.5592H58.484H58.4087H58.3335H58.2583H58.183H58.1078H58.0326H57.9574H57.8823H57.8071H57.7319H57.6568H57.5817H57.5065H57.4314H57.3563H57.2812H57.2062H57.1311H57.056H56.981H56.9059H56.8309H56.7559H56.6809H56.6059H56.5309H56.4559H56.381H56.306H56.2311H56.1561H56.0812H56.0063H55.9314H55.8565H55.7816H55.7068H55.6319H55.557H55.4822H55.4074H55.3325H55.2577H55.1829H55.1081H55.0333H54.9586H54.8838H54.8091H54.7343H54.6596H54.5849H54.5101H54.4354H54.3607H54.286H54.2114H54.1367H54.062H53.9874H53.9127H53.8381H53.7635H53.6889H53.6143H53.5397H53.4651H53.3905H53.316H53.2414H53.1669H53.0923H53.0178H52.9433H52.8687H52.7942H52.7197H52.6453H52.5708H52.4963H52.4219H52.3474H52.273H52.1985H52.1241H52.0497H51.9753H51.9009H51.8265H51.7521H51.6777H51.6034H51.529H51.4547H51.3803H51.306H51.2317H51.1574H51.083H51.0087H50.9345H50.8602H50.7859H50.7116H50.6374H50.5631H50.4889H50.4146H50.3404H50.2662H50.192H50.1178H50.0436H49.9694H49.8952H49.8211H49.7469H49.6727H49.5986H49.5244H49.4503H49.3762H49.3021H49.228H49.1539H49.0798H49.0057H48.9316H48.8575H48.7834H48.7094H48.6353H48.5613H48.4872H48.4132H48.3392H48.2652H48.1912H48.1172H48.0432H47.9692H47.8952H47.8212H47.7473H47.6733H47.5993H47.5254H47.4515H47.3775H47.3036H47.2297H47.1558H47.0818H47.0079H46.9341H46.8602H46.7863H46.7124H46.6385H46.5647H46.4908H46.417H46.3431H46.2693H46.1955H46.1216H46.0478H45.974H45.9002H45.8264H45.7526H45.6788H45.605H45.5313H45.4575H45.3837H45.31H45.2362H45.1625H45.0887H45.015H44.9413H44.8676H44.7938H44.7201H44.6464H44.5727H44.499H44.4253H44.3517H44.278H44.2043H44.1306H44.057H43.9833H43.9097H43.836H43.7624H43.6888H43.6151H43.5415H43.4679H43.3943H43.3207H43.2471H43.1735H43.0999H43.0263H42.9527H42.8791H42.8055H42.732H42.6584H42.5848H42.5113H42.4377H42.3642H42.2906H42.2171H42.1436H42.0701H41.9965H41.923H41.8495C34.0517 56.2471 27.7939 50.0892 27.7939 42.5706C27.7939 35.3621 33.5446 29.4057 40.8916 28.9253Z" fill="#F9FAFC" stroke="#2B2727" stroke-width="3" stroke-linejoin="round"/>
<g clip-path="url(#clip2_2839_5650)">
<path d="M62.7907 30.7422C58.956 30.7422 55.7981 33.6316 55.3616 37.3525C55.3395 37.5405 55.323 37.7296 55.3141 37.9209C55.3061 38.0933 55.4463 38.2333 55.6185 38.2333L56.755 38.2333C56.9272 38.2333 57.0659 38.0933 57.0769 37.921C57.0892 37.729 57.1118 37.5398 57.1408 37.3525C57.5651 34.6083 59.9302 32.5038 62.7907 32.5038C65.9512 32.5038 68.512 35.0698 68.512 38.2333C68.512 41.397 65.9512 43.9601 62.7907 43.9601L54.2052 43.9601C53.9604 43.9601 53.8127 44.2292 53.9528 44.4304C54.2467 44.8525 54.5694 45.2531 54.9193 45.6278C54.9773 45.69 55.0587 45.7245 55.1436 45.7245L62.7907 45.7245C66.9237 45.7245 70.2747 42.3704 70.2746 38.2333C70.2746 34.0963 66.9237 30.7422 62.7907 30.7422Z" fill="#2B2727"/>
<path d="M62.7907 27.4658C59.4402 27.4658 56.4461 28.9932 54.4679 31.3925C53.0892 33.0646 52.2305 35.1752 52.0528 37.3361C52.0523 37.3416 52.0504 37.3469 52.05 37.3525C52.0348 37.5412 52.0209 37.7303 52.013 37.9209C52.0058 38.0934 52.1457 38.2333 52.3179 38.2333H53.4544C53.6266 38.2333 53.7656 38.0934 53.7718 37.9209C53.7787 37.73 53.7917 37.5409 53.81 37.3525C54.2532 32.778 58.1043 29.2 62.7907 29.2C67.7746 29.2 71.8153 33.2446 71.8153 38.2333C71.8153 43.2222 67.7746 47.2667 62.7907 47.2666L57.8878 47.2666C57.5787 47.2666 57.4692 47.6519 57.7426 47.7966C59.096 48.5134 60.6212 48.9463 62.2397 49.0283H62.7907C68.3749 49.0283 72.9653 44.7801 73.5176 39.3365C73.5535 38.9826 73.5743 38.624 73.5752 38.2608C73.5752 37.8882 73.5545 37.5179 73.5176 37.155C72.9653 31.7113 68.3749 27.4658 62.7907 27.4658Z" fill="#2B2727"/>
<path d="M62.7907 34.046C60.7838 34.046 59.1111 35.4648 58.706 37.3525C58.6662 37.5384 58.6363 37.7278 58.6204 37.9212C58.6062 38.0932 58.7469 38.2333 58.9191 38.2333H60.0583C60.2305 38.2333 60.368 38.0928 60.3911 37.9218C60.418 37.7236 60.4694 37.5333 60.5401 37.3525C60.8926 36.4506 61.7646 35.8103 62.7907 35.8104C64.1279 35.8104 65.2113 36.8949 65.2114 38.2333C65.2114 39.5718 64.1279 40.6562 62.7907 40.6563L54.0922 40.6563C54.0257 40.4124 53.9638 40.1588 53.8939 39.9158C53.8448 39.7451 53.6918 39.6272 53.5361 39.6272H52.4093C52.2555 39.6272 52.1182 39.8067 52.1478 39.9767C52.2903 40.7376 52.4609 41.5331 52.7684 42.2466C52.8164 42.3581 52.934 42.418 53.0443 42.418L62.7907 42.418C65.1003 42.418 66.9713 40.5452 66.9713 38.2333C66.9713 35.9215 65.1003 34.046 62.7907 34.046Z" fill="#2B2727"/>
</g>
<path d="M74.2937 94.4308C74.2937 95.6511 73.8092 96.5539 72.3412 96.8714C71.4804 97.0576 69.9006 96.6274 69.6565 95.4071L68.4362 83.9361V109.563C68.4362 110.783 67.2159 112.247 65.5075 112.247C63.799 112.247 62.5787 110.539 62.5787 109.563C62.5787 110.539 61.6025 112.247 59.4059 112.247C58.1856 112.247 56.7212 111.027 56.7212 109.319V82.9599L54.2806 87.353C53.7925 88.0852 52.3281 88.5733 51.1078 87.5971L43.5419 80.0311C43.0538 79.299 42.8213 77.9987 43.786 76.8583C44.6321 76.0201 45.9825 76.1262 46.7147 76.6143L52.0841 81.7396L54.7688 76.8583C55.4663 75.6753 55.9891 75.1499 57.4534 75.1499H68.2975C70.8769 75.1499 72.5853 77.1024 72.7751 78.8108L74.2937 94.4308Z" fill="#F9FAFC"/>
<path d="M62.5787 109.563C62.5787 110.539 63.799 112.247 65.5075 112.247C67.2159 112.247 68.4362 110.783 68.4362 109.563V83.9361L69.6565 95.4071C69.9006 96.6274 71.4804 97.0576 72.3412 96.8714C73.8092 96.5539 74.2937 95.6511 74.2937 94.4308L72.7751 78.8108C72.5853 77.1024 70.8769 75.1499 68.2975 75.1499H57.4534C55.9891 75.1499 55.4663 75.6753 54.7688 76.8583L52.0841 81.7396L46.7147 76.6143C45.9825 76.1262 44.6321 76.0201 43.786 76.8583C42.8213 77.9987 43.0538 79.299 43.5419 80.0311L51.1078 87.5971C52.3281 88.5733 53.7925 88.0852 54.2806 87.353L56.7212 82.9599V109.319C56.7212 111.027 58.1856 112.247 59.4059 112.247C61.6025 112.247 62.5787 110.539 62.5787 109.563ZM62.5787 109.563V96.8714" stroke="#2B2727" stroke-width="3" stroke-linecap="round" stroke-linejoin="round"/>
<path d="M57.2939 66.2471C57.2939 69.2846 59.7564 71.7471 62.7939 71.7471C65.8315 71.7471 68.2939 69.2846 68.2939 66.2471C68.2939 63.2095 65.8315 60.7471 62.7939 60.7471C59.7564 60.7471 57.2939 63.2095 57.2939 66.2471Z" fill="#F9FAFC" stroke="#2B2727" stroke-width="3" stroke-linecap="round" stroke-linejoin="round"/>
</g>
<defs>
<clipPath id="clip0_2839_5650">
<rect width="128" height="128" fill="white" transform="translate(0.293945 0.74707)"/>
</clipPath>
<clipPath id="clip1_2839_5650">
<rect width="23" height="23" fill="white" transform="translate(57.2939 30.7471)"/>
</clipPath>
<clipPath id="clip2_2839_5650">
<rect width="23" height="23" fill="white" transform="translate(51.2939 26.7471)"/>
</clipPath>
</defs>
</svg>
