<svg width="129" height="129" viewBox="0 0 129 129" fill="none" xmlns="http://www.w3.org/2000/svg">
<g clip-path="url(#clip0_2839_5566)">
<path d="M115.294 68.7471C115.294 77 113.072 84.734 109.194 91.3837C101.394 104.759 86.8938 113.747 70.2939 113.747C53.6822 113.747 39.1728 104.746 31.3769 91.3552C27.5093 84.7119 25.2939 76.9882 25.2939 68.7471C25.2939 43.8943 45.4411 23.7471 70.2939 23.7471C95.1468 23.7471 115.294 43.8943 115.294 68.7471Z" fill="#F9FAFC"/>
<path d="M115.294 68.7471C115.294 43.8943 95.1468 23.7471 70.2939 23.7471M115.294 68.7471H111.464M115.294 68.7471C115.294 77 113.072 84.734 109.194 91.3837C101.394 104.759 86.8938 113.747 70.2939 113.747C53.6822 113.747 39.1728 104.746 31.3769 91.3552C27.5093 84.7119 25.2939 76.9882 25.2939 68.7471M25.2939 68.7471C25.2939 43.8943 45.4411 23.7471 70.2939 23.7471M25.2939 68.7471H29.1237M70.2939 23.7471V32.5769M109.265 46.2471L105.948 48.162M31.3228 91.2471L34.6395 89.3322M92.7939 29.7759L90.8791 33.0926M47.7939 107.718L51.7088 101.402M31.3228 46.2471L34.6395 48.162M109.265 91.2471L105.948 89.3322M47.7939 29.7759L49.7088 33.0926M92.7939 107.718L88.8791 101.402" stroke="#0057F2" stroke-width="3" stroke-linecap="round"/>
<path d="M59.2939 100.947C59.2939 99.1798 60.7011 97.7471 62.4368 97.7471H78.1511C79.8868 97.7471 81.2939 99.1798 81.2939 100.947V102.547C81.2939 104.314 79.8868 105.747 78.1511 105.747H62.4368C60.7011 105.747 59.2939 104.314 59.2939 102.547V100.947Z" fill="#F9FAFC"/>
<path d="M63.8234 101.747H65.8667M69.2723 101.747H71.3156M74.7212 101.747H76.7645M62.4368 105.747H78.1511C79.8868 105.747 81.2939 104.314 81.2939 102.547V100.947C81.2939 99.1798 79.8868 97.7471 78.1511 97.7471H62.4368C60.7011 97.7471 59.2939 99.1798 59.2939 100.947V102.547C59.2939 104.314 60.7011 105.747 62.4368 105.747Z" stroke="#0057F2" stroke-width="2" stroke-linecap="round"/>
<path opacity="0.25" d="M58.037 91.7471C50.4429 87.5855 45.2939 79.5176 45.2939 70.2471C45.2939 56.7161 56.263 45.7471 69.7939 45.7471C83.3249 45.7471 94.2939 56.7161 94.2939 70.2471C94.2939 79.2119 89.4789 87.0522 82.2939 91.3228" stroke="#0057F2" stroke-width="3" stroke-linecap="round"/>
<path d="M70.2939 45.7471C83.5488 45.7471 94.2939 56.7182 94.2939 70.2517C94.2939 74.8287 93.065 79.1126 90.9255 82.7782C88.7338 86.5333 85.5867 89.6395 81.8266 91.7471" stroke="#0057F2" stroke-width="3" stroke-linecap="round"/>
<path d="M74.2939 68.7471C74.2939 70.9562 72.5031 72.7471 70.2939 72.7471C68.0848 72.7471 66.2939 70.9562 66.2939 68.7471C66.2939 67.6425 66.7416 66.6425 67.4655 65.9186C68.1894 65.1948 69.1893 64.7471 70.2939 64.7471C72.5031 64.7471 74.2939 66.5379 74.2939 68.7471Z" fill="#F9FAFC"/>
<path d="M78.8711 77.3242L73.1683 71.6214M45.2939 43.7471L67.4655 65.9186M67.4655 65.9186C66.7416 66.6425 66.2939 67.6425 66.2939 68.7471C66.2939 70.9562 68.0848 72.7471 70.2939 72.7471C72.5031 72.7471 74.2939 70.9562 74.2939 68.7471C74.2939 66.5379 72.5031 64.7471 70.2939 64.7471C69.1893 64.7471 68.1893 65.1948 67.4655 65.9186Z" stroke="#0057F2" stroke-width="4" stroke-linecap="round" stroke-linejoin="round"/>
<path d="M109.294 64.7471C109.294 73 107.072 80.734 103.194 87.3837C95.3944 100.759 80.8938 109.747 64.2939 109.747C47.6822 109.747 33.1728 100.746 25.3769 87.3552C21.5093 80.7119 19.2939 72.9882 19.2939 64.7471C19.2939 39.8943 39.4411 19.7471 64.2939 19.7471C89.1468 19.7471 109.294 39.8943 109.294 64.7471Z" fill="#F9FAFC"/>
<path d="M109.294 64.7471C109.294 39.8943 89.1468 19.7471 64.2939 19.7471M109.294 64.7471H105.464M109.294 64.7471C109.294 73 107.072 80.734 103.194 87.3837C95.3944 100.759 80.8938 109.747 64.2939 109.747C47.6822 109.747 33.1728 100.746 25.3769 87.3552C21.5093 80.7119 19.2939 72.9882 19.2939 64.7471M19.2939 64.7471C19.2939 39.8943 39.4411 19.7471 64.2939 19.7471M19.2939 64.7471H23.1237M64.2939 19.7471V28.5769M103.265 42.2471L99.9484 44.162M25.3228 87.2471L28.6395 85.3322M86.7939 25.7759L84.8791 29.0926M41.7939 103.718L45.7088 97.4015M25.3228 42.2471L28.6395 44.162M103.265 87.2471L99.9484 85.3322M41.7939 25.7759L43.7088 29.0926M86.7939 103.718L82.8791 97.4015" stroke="#2B2727" stroke-width="3" stroke-linecap="round"/>
<path d="M53.2939 96.9471C53.2939 95.1798 54.7011 93.7471 56.4368 93.7471H72.1511C73.8868 93.7471 75.2939 95.1798 75.2939 96.9471V98.5471C75.2939 100.314 73.8868 101.747 72.1511 101.747H56.4368C54.7011 101.747 53.2939 100.314 53.2939 98.5471V96.9471Z" fill="#F9FAFC"/>
<path d="M57.8234 97.7471H59.8667M63.2723 97.7471H65.3156M68.7212 97.7471H70.7645M56.4368 101.747H72.1511C73.8868 101.747 75.2939 100.314 75.2939 98.5471V96.9471C75.2939 95.1798 73.8868 93.7471 72.1511 93.7471H56.4368C54.7011 93.7471 53.2939 95.1798 53.2939 96.9471V98.5471C53.2939 100.314 54.7011 101.747 56.4368 101.747Z" stroke="#2B2727" stroke-width="2" stroke-linecap="round"/>
<path opacity="0.25" d="M52.037 87.7471C44.4429 83.5855 39.2939 75.5176 39.2939 66.2471C39.2939 52.7161 50.263 41.7471 63.7939 41.7471C77.3249 41.7471 88.2939 52.7161 88.2939 66.2471C88.2939 75.2119 83.4789 83.0522 76.2939 87.3228" stroke="#2B2727" stroke-width="3" stroke-linecap="round"/>
<path d="M64.2939 41.7471C77.5488 41.7471 88.2939 52.7182 88.2939 66.2517C88.2939 70.8287 87.065 75.1126 84.9255 78.7782C82.7338 82.5333 79.5867 85.6395 75.8266 87.7471" stroke="#2B2727" stroke-width="3" stroke-linecap="round"/>
<path d="M68.2939 64.7471C68.2939 66.9562 66.5031 68.7471 64.2939 68.7471C62.0848 68.7471 60.2939 66.9562 60.2939 64.7471C60.2939 63.6425 60.7416 62.6425 61.4655 61.9186C62.1894 61.1948 63.1893 60.7471 64.2939 60.7471C66.5031 60.7471 68.2939 62.5379 68.2939 64.7471Z" fill="#F9FAFC"/>
<path d="M72.8711 73.3242L67.1683 67.6214M39.2939 39.7471L61.4655 61.9186M61.4655 61.9186C60.7416 62.6425 60.2939 63.6425 60.2939 64.7471C60.2939 66.9562 62.0848 68.7471 64.2939 68.7471C66.5031 68.7471 68.2939 66.9562 68.2939 64.7471C68.2939 62.5379 66.5031 60.7471 64.2939 60.7471C63.1893 60.7471 62.1893 61.1948 61.4655 61.9186Z" stroke="#2B2727" stroke-width="4" stroke-linecap="round" stroke-linejoin="round"/>
</g>
<defs>
<clipPath id="clip0_2839_5566">
<rect width="128" height="128" fill="white" transform="translate(0.293945 0.74707)"/>
</clipPath>
</defs>
</svg>
