<svg width="129" height="129" viewBox="0 0 129 129" fill="none" xmlns="http://www.w3.org/2000/svg">
<g clip-path="url(#clip0_2839_5608)">
<rect x="23.7939" y="38.2471" width="51" height="61" rx="10.5" fill="#F9FAFC" stroke="#0057F2" stroke-width="3"/>
<rect x="39.7939" y="27.2471" width="62" height="83" rx="10.5" fill="#F9FAFC" stroke="#0057F2" stroke-width="3"/>
<line x1="88.7825" y1="90.1577" x2="96.5606" y2="97.9359" stroke="#0057F2" stroke-width="3" stroke-linecap="round"/>
<rect x="91.22" y="97.3301" width="8" height="33" rx="4" transform="rotate(-45 91.22 97.3301)" fill="#F9FAFC" stroke="#0057F2" stroke-width="3"/>
<circle cx="70.7939" cy="69.2471" r="26" fill="#F9FAFC" stroke="#0057F2" stroke-width="3"/>
<path d="M66.2939 71.3523V82.2471M74.2939 74.1944V82.2471M82.2939 67.2471V82.2471M58.2939 76.7471V82.2471" stroke="#0057F2" stroke-width="3" stroke-linecap="round"/>
<path d="M56.2939 70.2471L66.7939 63.2471L71.7939 64.7471L83.2939 56.2471M77.2939 55.7471H83.2939V61.7471" stroke="#2B2727" stroke-width="3" stroke-linecap="round" stroke-linejoin="round"/>
<rect x="17.7939" y="34.2471" width="51" height="61" rx="10.5" fill="#F9FAFC" stroke="#2B2727" stroke-width="3"/>
<rect x="33.7939" y="23.2471" width="62" height="83" rx="10.5" fill="#F9FAFC" stroke="#2B2727" stroke-width="3"/>
<line x1="82.7825" y1="86.1577" x2="90.5606" y2="93.9359" stroke="#2B2727" stroke-width="3" stroke-linecap="round"/>
<rect x="85.22" y="93.3301" width="8" height="33" rx="4" transform="rotate(-45 85.22 93.3301)" fill="#F9FAFC" stroke="#2B2727" stroke-width="3"/>
<circle cx="64.7939" cy="65.2471" r="26" fill="#F9FAFC" stroke="#2B2727" stroke-width="3"/>
<path d="M60.2939 67.3523V78.2471M68.2939 70.1944V78.2471M76.2939 63.2471V78.2471M52.2939 72.7471V78.2471" stroke="#2B2727" stroke-width="3" stroke-linecap="round"/>
<path d="M50.2939 66.2471L60.7939 59.2471L65.7939 60.7471L77.2939 52.2471M71.2939 51.7471H77.2939V57.7471" stroke="#2B2727" stroke-width="3" stroke-linecap="round" stroke-linejoin="round"/>
</g>
<defs>
<clipPath id="clip0_2839_5608">
<rect width="128" height="128" fill="white" transform="translate(0.293945 0.74707)"/>
</clipPath>
</defs>
</svg>
