<svg width="129" height="129" viewBox="0 0 129 129" fill="none" xmlns="http://www.w3.org/2000/svg">
<g clip-path="url(#clip0_2839_5611)">
<path d="M38.294 54.561L38.2939 46.2132C38.2939 43.4143 38.2939 42.0149 38.8389 40.9454C39.3183 40.0046 40.0832 39.2397 41.024 38.7603C42.0936 38.2153 43.4937 38.2153 46.2939 38.2153H60.3243C63.1232 38.2153 64.5226 38.2153 65.5919 38.7599C66.5324 39.239 67.2973 40.0034 67.7768 40.9437C68.322 42.0127 68.3228 43.4121 68.3243 46.211L68.3288 54.5575C68.3297 56.2028 68.3302 57.0254 68.0296 57.8534C67.7923 58.5072 67.2709 59.3018 66.7656 59.7798C66.1257 60.385 65.5 60.6561 64.2487 61.1983C61.272 62.4881 57.4099 63.7187 53.596 63.7187C49.7228 63.7187 45.5645 62.4495 42.4023 61.1381L42.4023 61.1381C41.1702 60.6272 40.5541 60.3717 39.8989 59.7656C39.3885 59.2936 38.8433 58.4772 38.6028 57.825C38.294 56.9876 38.294 56.1787 38.294 54.561Z" fill="#F9FAFC" stroke="#0057F2" stroke-width="3" stroke-linecap="round" stroke-linejoin="round"/>
<rect x="41.6943" y="60.4229" width="23.3668" height="16.1428" rx="5" fill="#F9FAFC" stroke="#0057F2" stroke-width="3" stroke-linecap="round" stroke-linejoin="round"/>
<path d="M68.353 41.0549C68.353 49.5092 61.624 56.3628 53.3235 56.3628C45.0229 56.3628 38.2939 49.5092 38.2939 41.0549C38.2939 32.6006 45.0229 25.7471 53.3235 25.7471C61.624 25.7471 68.353 32.6006 68.353 41.0549Z" fill="#F9FAFC"/>
<path d="M68.353 41.0549C68.353 49.5092 61.624 56.3628 53.3235 56.3628C45.0229 56.3628 38.2939 49.5092 38.2939 41.0549M68.353 41.0549C68.353 32.6006 61.624 25.7471 53.3235 25.7471C45.0229 25.7471 38.2939 32.6006 38.2939 41.0549M68.353 41.0549C64.8319 41.4728 60.6803 41.7226 56.7131 40.0224C52.9469 38.4083 49.8671 34.5156 49.427 32.9835C48.9816 34.6781 47.7996 36.9566 45.8644 38.4908C43.1925 40.609 39.6299 41.0549 38.2939 41.0549" stroke="#0057F2" stroke-width="3" stroke-linecap="round" stroke-linejoin="round"/>
<ellipse cx="86.6484" cy="41.0696" rx="15.0439" ry="15.3225" fill="#F9FAFC" stroke="#0057F2" stroke-width="3" stroke-linecap="round" stroke-linejoin="round"/>
<rect x="73.833" y="60.4585" width="25.0732" height="16.1583" rx="5" fill="#F9FAFC" stroke="#0057F2" stroke-width="3" stroke-linecap="round" stroke-linejoin="round"/>
<path d="M88.1538 61.7471L84.695 70.3006C84.5501 70.659 84.4776 70.8382 84.4722 71.0168C84.4673 71.1746 84.4999 71.3314 84.5673 71.4742C84.6436 71.6358 84.7815 71.7712 85.0574 72.0421L85.673 72.6465C86.066 73.0324 86.2626 73.2254 86.4884 73.2978C86.6871 73.3616 86.9008 73.3616 87.0995 73.2978C87.3253 73.2254 87.5218 73.0324 87.9149 72.6465L88.5305 72.0421C88.8064 71.7712 88.9443 71.6358 89.0205 71.4742C89.0879 71.3314 89.1206 71.1746 89.1157 71.0168C89.1102 70.8382 89.0378 70.659 88.8929 70.3006L85.4341 61.7471" stroke="#0057F2" stroke-width="2" stroke-linecap="round" stroke-linejoin="round"/>
<path d="M101.795 105.247L73.2945 115.748C71.7945 116.247 69.7945 116.247 67.7945 115.747L48.7945 110.247C45.4268 108.914 43.2945 107.247 43.2945 104.247L43.2945 109.247C43.2945 110.247 42.2945 111.247 40.7945 111.247L35.2945 111.247C33.2945 111.247 32.2945 110.247 32.2945 108.247L32.2945 86.2471C32.2945 84.7471 33.7945 83.748 35.2945 83.7471C36.7945 83.7461 39.7945 83.749 40.7945 83.748C41.7945 83.7471 43.2945 84.7471 43.2945 86.248L43.2945 89.2471C43.2945 85.248 49.2945 84.2471 53.2945 84.7463C56.9856 85.2068 58.8397 86.0308 60.4606 87.6744C61.3996 88.6266 62.4963 89.4344 63.7885 89.779L76.7945 93.2472C77.2221 93.3327 77.6095 93.506 77.9548 93.7471L90.7945 89.2471C92.7945 88.7471 95.7945 89.2471 96.7945 91.2471C97.7945 93.2471 97.2945 96.1131 95.5616 96.7471L98.2945 95.7472C101.295 94.7476 103.495 96.7476 104.295 98.7476C105.295 101.248 104.294 104.248 101.795 105.247Z" fill="#F9FAFC"/>
<path d="M73.7945 103.247L64.7945 101.248M73.7945 103.247C76.7945 103.747 79.2945 101.747 79.7945 99.7472C80.3126 97.6748 79.6282 94.9152 77.9548 93.7471M73.7945 103.247C75.2311 103.503 76.0435 103.627 77.7945 103.247L95.5616 96.7471M43.2945 89.2471C43.2945 85.248 49.2945 84.2471 53.2945 84.7463C56.9856 85.2068 58.8397 86.0308 60.4606 87.6744C61.3996 88.6266 62.4963 89.4344 63.7885 89.779L76.7945 93.2472C77.2221 93.3327 77.6095 93.506 77.9548 93.7471M43.2945 89.2471L43.2945 104.247M43.2945 89.2471C43.2945 89.2471 43.2945 87.749 43.2945 86.248C43.2945 84.7471 41.7945 83.7471 40.7945 83.748C39.7945 83.749 36.7945 83.7461 35.2945 83.7471C33.7945 83.748 32.2945 84.7471 32.2945 86.2471C32.2945 87.7471 32.2945 106.247 32.2945 108.247C32.2945 110.247 33.2945 111.247 35.2945 111.247C37.2945 111.247 39.2945 111.247 40.7945 111.247C42.2945 111.247 43.2945 110.247 43.2945 109.247C43.2945 108.247 43.2945 104.247 43.2945 104.247M43.2945 104.247C43.2945 107.247 45.4268 108.914 48.7945 110.247L67.7945 115.747C69.7945 116.247 71.7945 116.247 73.2945 115.748L101.795 105.247C104.294 104.248 105.295 101.248 104.295 98.7476C103.495 96.7476 101.295 94.7476 98.2945 95.7472L95.5616 96.7471M95.5616 96.7471C97.2945 96.1131 97.7945 93.2471 96.7945 91.2471C95.7945 89.2471 92.7945 88.7471 90.7945 89.2471L77.9548 93.7471" stroke="#0057F2" stroke-width="3" stroke-linecap="round" stroke-linejoin="round"/>
<path d="M32.294 50.561L32.2939 42.2132C32.2939 39.4143 32.2939 38.0149 32.8389 36.9454C33.3183 36.0046 34.0832 35.2397 35.024 34.7603C36.0936 34.2153 37.4937 34.2153 40.2939 34.2153H54.3243C57.1232 34.2153 58.5226 34.2153 59.5919 34.7599C60.5324 35.239 61.2973 36.0034 61.7768 36.9437C62.322 38.0127 62.3228 39.4121 62.3243 42.211L62.3288 50.5575C62.3297 52.2028 62.3302 53.0254 62.0296 53.8534C61.7923 54.5072 61.2709 55.3018 60.7656 55.7798C60.1257 56.385 59.5 56.6561 58.2487 57.1983C55.272 58.4881 51.4099 59.7187 47.596 59.7187C43.7228 59.7187 39.5645 58.4495 36.4023 57.1381L36.4023 57.1381C35.1702 56.6272 34.5541 56.3717 33.8989 55.7656C33.3885 55.2936 32.8433 54.4772 32.6028 53.825C32.294 52.9876 32.294 52.1787 32.294 50.561Z" fill="#F9FAFC" stroke="#2B2727" stroke-width="3" stroke-linecap="round" stroke-linejoin="round"/>
<rect x="35.6943" y="56.4229" width="23.3668" height="16.1428" rx="5" fill="#F9FAFC" stroke="#2B2727" stroke-width="3" stroke-linecap="round" stroke-linejoin="round"/>
<path d="M62.353 37.0549C62.353 45.5092 55.624 52.3628 47.3235 52.3628C39.0229 52.3628 32.2939 45.5092 32.2939 37.0549C32.2939 28.6006 39.0229 21.7471 47.3235 21.7471C55.624 21.7471 62.353 28.6006 62.353 37.0549Z" fill="#F9FAFC"/>
<path d="M62.353 37.0549C62.353 45.5092 55.624 52.3628 47.3235 52.3628C39.0229 52.3628 32.2939 45.5092 32.2939 37.0549M62.353 37.0549C62.353 28.6006 55.624 21.7471 47.3235 21.7471C39.0229 21.7471 32.2939 28.6006 32.2939 37.0549M62.353 37.0549C58.8319 37.4728 54.6803 37.7226 50.7131 36.0224C46.9469 34.4083 43.8671 30.5156 43.427 28.9835C42.9816 30.6781 41.7996 32.9566 39.8644 34.4908C37.1925 36.609 33.6299 37.0549 32.2939 37.0549" stroke="#2B2727" stroke-width="3" stroke-linecap="round" stroke-linejoin="round"/>
<ellipse cx="80.6484" cy="37.0696" rx="15.0439" ry="15.3225" fill="#F9FAFC" stroke="#2B2727" stroke-width="3" stroke-linecap="round" stroke-linejoin="round"/>
<rect x="67.833" y="56.4585" width="25.0732" height="16.1583" rx="5" fill="#F9FAFC" stroke="#2B2727" stroke-width="3" stroke-linecap="round" stroke-linejoin="round"/>
<path d="M82.1538 57.7471L78.695 66.3006C78.5501 66.659 78.4776 66.8382 78.4722 67.0168C78.4673 67.1746 78.4999 67.3314 78.5673 67.4742C78.6436 67.6358 78.7815 67.7712 79.0574 68.0421L79.673 68.6465C80.066 69.0324 80.2626 69.2254 80.4884 69.2978C80.6871 69.3616 80.9008 69.3616 81.0995 69.2978C81.3253 69.2254 81.5218 69.0324 81.9149 68.6465L82.5305 68.0421C82.8064 67.7712 82.9443 67.6358 83.0205 67.4742C83.0879 67.3314 83.1206 67.1746 83.1157 67.0168C83.1102 66.8382 83.0378 66.659 82.8929 66.3006L79.4341 57.7471" stroke="#2B2727" stroke-width="2" stroke-linecap="round" stroke-linejoin="round"/>
<path d="M95.7947 101.247L67.2945 111.748C65.7945 112.247 63.7945 112.247 61.7945 111.747L42.7945 106.247C39.4268 104.914 37.2945 103.247 37.2945 100.247L37.2945 105.247C37.2945 106.247 36.2945 107.247 34.7945 107.247L29.2945 107.247C27.2945 107.247 26.2945 106.247 26.2945 104.247L26.2945 82.2471C26.2945 80.7471 27.7945 79.748 29.2945 79.7471C30.7945 79.7461 33.7945 79.749 34.7945 79.748C35.7945 79.7471 37.2945 80.7471 37.2945 82.248L37.2945 85.2471C37.2945 81.248 43.2945 80.2471 47.2945 80.7463C50.9856 81.2068 52.8397 82.0308 54.4606 83.6744C55.3996 84.6266 56.4963 85.4344 57.7885 85.779L70.7945 89.2472C71.2221 89.3327 71.6095 89.506 71.9548 89.7471L84.7945 85.2471C86.7945 84.7471 89.7945 85.2471 90.7945 87.2471C91.7945 89.2471 91.2945 92.1131 89.5616 92.7471L92.2945 91.7472C95.2945 90.7476 97.4946 92.7476 98.2945 94.7476C99.2946 97.248 98.2945 100.248 95.7947 101.247Z" fill="#F9FAFC"/>
<path d="M67.7945 99.2472L58.7945 97.2477M67.7945 99.2472C70.7945 99.7472 73.2945 97.7472 73.7945 95.7472C74.3126 93.6748 73.6282 90.9152 71.9548 89.7471M67.7945 99.2472C69.2311 99.5031 70.0435 99.6265 71.7945 99.2472L89.5616 92.7471M37.2945 85.2471C37.2945 81.248 43.2945 80.2471 47.2945 80.7463C50.9856 81.2068 52.8397 82.0308 54.4606 83.6744C55.3996 84.6266 56.4963 85.4344 57.7885 85.779L70.7945 89.2472C71.2221 89.3327 71.6095 89.506 71.9548 89.7471M37.2945 85.2471L37.2945 100.247M37.2945 85.2471C37.2945 85.2471 37.2945 83.749 37.2945 82.248C37.2945 80.7471 35.7945 79.7471 34.7945 79.748C33.7945 79.749 30.7945 79.7461 29.2945 79.7471C27.7945 79.748 26.2945 80.7471 26.2945 82.2471C26.2945 83.7471 26.2945 102.247 26.2945 104.247C26.2945 106.247 27.2945 107.247 29.2945 107.247C31.2945 107.247 33.2945 107.247 34.7945 107.247C36.2945 107.247 37.2945 106.247 37.2945 105.247C37.2945 104.247 37.2945 100.247 37.2945 100.247M37.2945 100.247C37.2945 103.247 39.4268 104.914 42.7945 106.247L61.7945 111.747C63.7945 112.247 65.7945 112.247 67.2945 111.748L95.7947 101.247C98.2945 100.248 99.2946 97.248 98.2945 94.7476C97.4946 92.7476 95.2945 90.7476 92.2945 91.7472L89.5616 92.7471M89.5616 92.7471C91.2945 92.1131 91.7945 89.2471 90.7945 87.2471C89.7945 85.2471 86.7945 84.7471 84.7945 85.2471L71.9548 89.7471" stroke="#2B2727" stroke-width="3" stroke-linecap="round" stroke-linejoin="round"/>
</g>
<defs>
<clipPath id="clip0_2839_5611">
<rect width="128" height="128" fill="white" transform="translate(0.293945 0.74707)"/>
</clipPath>
</defs>
</svg>
