<svg width="129" height="129" viewBox="0 0 129 129" fill="none" xmlns="http://www.w3.org/2000/svg">
<g clip-path="url(#clip0_2839_5554)">
<rect x="15.7939" y="28.2471" width="85" height="67" rx="10.5" fill="#F9FAFC" stroke="#0057F2" stroke-width="3" stroke-linecap="round" stroke-linejoin="round"/>
<rect x="24.7939" y="37.2471" width="34" height="23" rx="6.5" fill="#F9FAFC" stroke="#0057F2" stroke-width="3" stroke-linecap="round" stroke-linejoin="round"/>
<path d="M32.2939 54.7471V50.7266M38.2939 54.7471V45.2023M44.2939 54.7471V48.2714M50.2939 54.7471V42.7471" stroke="#2B2727" stroke-width="2" stroke-linecap="round" stroke-linejoin="round"/>
<path d="M74.7939 40.2471H90.2939M74.7939 46.2471H84.7939M74.7939 52.2471H88.7939M74.7939 58.2471H81.7939" stroke="#2B2727" stroke-width="2" stroke-linecap="round" stroke-linejoin="round"/>
<mask id="path-5-inside-1_2839_5554" fill="white">
<path d="M70.2939 40.2471C70.2939 41.0755 69.6224 41.7471 68.7939 41.7471C67.9655 41.7471 67.2939 41.0755 67.2939 40.2471C67.2939 39.4186 67.9655 38.7471 68.7939 38.7471C69.6224 38.7471 70.2939 39.4186 70.2939 40.2471Z"/>
<path d="M70.2939 46.2471C70.2939 47.0755 69.6224 47.7471 68.7939 47.7471C67.9655 47.7471 67.2939 47.0755 67.2939 46.2471C67.2939 45.4186 67.9655 44.7471 68.7939 44.7471C69.6224 44.7471 70.2939 45.4186 70.2939 46.2471Z"/>
<path d="M70.2939 52.2471C70.2939 53.0755 69.6224 53.7471 68.7939 53.7471C67.9655 53.7471 67.2939 53.0755 67.2939 52.2471C67.2939 51.4186 67.9655 50.7471 68.7939 50.7471C69.6224 50.7471 70.2939 51.4186 70.2939 52.2471Z"/>
<path d="M70.2939 58.2471C70.2939 59.0755 69.6224 59.7471 68.7939 59.7471C67.9655 59.7471 67.2939 59.0755 67.2939 58.2471C67.2939 57.4186 67.9655 56.7471 68.7939 56.7471C69.6224 56.7471 70.2939 57.4186 70.2939 58.2471Z"/>
</mask>
<path d="M70.2939 40.2471C70.2939 41.0755 69.6224 41.7471 68.7939 41.7471C67.9655 41.7471 67.2939 41.0755 67.2939 40.2471C67.2939 39.4186 67.9655 38.7471 68.7939 38.7471C69.6224 38.7471 70.2939 39.4186 70.2939 40.2471Z" fill="#2B2727"/>
<path d="M70.2939 46.2471C70.2939 47.0755 69.6224 47.7471 68.7939 47.7471C67.9655 47.7471 67.2939 47.0755 67.2939 46.2471C67.2939 45.4186 67.9655 44.7471 68.7939 44.7471C69.6224 44.7471 70.2939 45.4186 70.2939 46.2471Z" fill="#2B2727"/>
<path d="M70.2939 52.2471C70.2939 53.0755 69.6224 53.7471 68.7939 53.7471C67.9655 53.7471 67.2939 53.0755 67.2939 52.2471C67.2939 51.4186 67.9655 50.7471 68.7939 50.7471C69.6224 50.7471 70.2939 51.4186 70.2939 52.2471Z" fill="#2B2727"/>
<path d="M70.2939 58.2471C70.2939 59.0755 69.6224 59.7471 68.7939 59.7471C67.9655 59.7471 67.2939 59.0755 67.2939 58.2471C67.2939 57.4186 67.9655 56.7471 68.7939 56.7471C69.6224 56.7471 70.2939 57.4186 70.2939 58.2471Z" fill="#2B2727"/>
<path d="M67.2939 40.2471C67.2939 39.4186 67.9655 38.7471 68.7939 38.7471V44.7471C71.2792 44.7471 73.2939 42.7324 73.2939 40.2471H67.2939ZM68.7939 38.7471C69.6224 38.7471 70.2939 39.4186 70.2939 40.2471H64.2939C64.2939 42.7324 66.3087 44.7471 68.7939 44.7471V38.7471ZM70.2939 40.2471C70.2939 41.0755 69.6224 41.7471 68.7939 41.7471V35.7471C66.3087 35.7471 64.2939 37.7618 64.2939 40.2471H70.2939ZM68.7939 41.7471C67.9655 41.7471 67.2939 41.0755 67.2939 40.2471H73.2939C73.2939 37.7618 71.2792 35.7471 68.7939 35.7471V41.7471ZM67.2939 46.2471C67.2939 45.4186 67.9655 44.7471 68.7939 44.7471V50.7471C71.2792 50.7471 73.2939 48.7324 73.2939 46.2471H67.2939ZM68.7939 44.7471C69.6224 44.7471 70.2939 45.4186 70.2939 46.2471H64.2939C64.2939 48.7324 66.3087 50.7471 68.7939 50.7471V44.7471ZM70.2939 46.2471C70.2939 47.0755 69.6224 47.7471 68.7939 47.7471V41.7471C66.3087 41.7471 64.2939 43.7618 64.2939 46.2471H70.2939ZM68.7939 47.7471C67.9655 47.7471 67.2939 47.0755 67.2939 46.2471H73.2939C73.2939 43.7618 71.2792 41.7471 68.7939 41.7471V47.7471ZM67.2939 52.2471C67.2939 51.4186 67.9655 50.7471 68.7939 50.7471V56.7471C71.2792 56.7471 73.2939 54.7324 73.2939 52.2471H67.2939ZM68.7939 50.7471C69.6224 50.7471 70.2939 51.4186 70.2939 52.2471H64.2939C64.2939 54.7324 66.3087 56.7471 68.7939 56.7471V50.7471ZM70.2939 52.2471C70.2939 53.0755 69.6224 53.7471 68.7939 53.7471V47.7471C66.3087 47.7471 64.2939 49.7618 64.2939 52.2471H70.2939ZM68.7939 53.7471C67.9655 53.7471 67.2939 53.0755 67.2939 52.2471H73.2939C73.2939 49.7618 71.2792 47.7471 68.7939 47.7471V53.7471ZM67.2939 58.2471C67.2939 57.4186 67.9655 56.7471 68.7939 56.7471V62.7471C71.2792 62.7471 73.2939 60.7324 73.2939 58.2471H67.2939ZM68.7939 56.7471C69.6224 56.7471 70.2939 57.4186 70.2939 58.2471H64.2939C64.2939 60.7324 66.3087 62.7471 68.7939 62.7471V56.7471ZM70.2939 58.2471C70.2939 59.0755 69.6224 59.7471 68.7939 59.7471V53.7471C66.3087 53.7471 64.2939 55.7618 64.2939 58.2471H70.2939ZM68.7939 59.7471C67.9655 59.7471 67.2939 59.0755 67.2939 58.2471H73.2939C73.2939 55.7618 71.2792 53.7471 68.7939 53.7471V59.7471Z" fill="#2B2727" mask="url(#path-5-inside-1_2839_5554)"/>
<path d="M29.2939 81.7471L36.5899 77.5365L43.4299 81.2208H52.0939L58.4779 79.6418L62.1259 74.905L71.2459 79.1155L76.2619 71.7471L86.2939 72.7997" stroke="#0057F2" stroke-width="2" stroke-linecap="round" stroke-linejoin="round"/>
<rect x="24.7939" y="67.2471" width="66" height="19" rx="6.5" stroke="#0057F2" stroke-width="3" stroke-linecap="round" stroke-linejoin="round"/>
<rect x="94.7939" y="68.2471" width="17" height="27" rx="6.5" stroke="#0057F2" stroke-width="3"/>
<rect x="88.7939" y="84.2471" width="30" height="30" rx="15" fill="#F9FAFC" stroke="#0057F2" stroke-width="3"/>
<rect x="99.9609" y="92.7251" width="7.66667" height="13.0435" rx="3.83333" stroke="#0057F2"/>
<rect x="97.7939" y="90.2471" width="12" height="18" rx="6" stroke="#0057F2"/>
<rect x="102.127" y="95.2036" width="3.33333" height="8.08696" rx="1.66667" stroke="#0057F2"/>
<rect x="99.2939" y="97.7471" width="2" height="2" fill="#F9FAFC"/>
<rect x="96.2939" y="100.747" width="2" height="2" fill="#F9FAFC"/>
<rect x="103.294" y="104.747" width="2" height="2" fill="#F9FAFC"/>
<rect x="104.294" y="96.7471" width="2" height="2" fill="#F9FAFC"/>
<rect x="102.294" y="89.7471" width="2" height="2" fill="#F9FAFC"/>
<rect x="108.294" y="94.7471" width="2" height="2" fill="#F9FAFC"/>
<rect x="104.294" y="106.747" width="2" height="2" fill="#F9FAFC"/>
<rect x="106.294" y="99.7471" width="2" height="2" fill="#F9FAFC"/>
<rect x="9.79395" y="24.2471" width="85" height="67" rx="10.5" fill="#F9FAFC" stroke="#2B2727" stroke-width="3" stroke-linecap="round" stroke-linejoin="round"/>
<rect x="18.7939" y="33.2471" width="34" height="23" rx="6.5" fill="#F9FAFC" stroke="#2B2727" stroke-width="3" stroke-linecap="round" stroke-linejoin="round"/>
<path d="M26.2939 50.7471V46.7266M32.2939 50.7471V41.2023M38.2939 50.7471V44.2714M44.2939 50.7471V38.7471" stroke="#2B2727" stroke-width="2" stroke-linecap="round" stroke-linejoin="round"/>
<path d="M68.7939 36.2471H84.2939M68.7939 42.2471H78.7939M68.7939 48.2471H82.7939M68.7939 54.2471H75.7939" stroke="#2B2727" stroke-width="2" stroke-linecap="round" stroke-linejoin="round"/>
<mask id="path-26-inside-2_2839_5554" fill="white">
<path d="M64.2939 36.2471C64.2939 37.0755 63.6224 37.7471 62.7939 37.7471C61.9655 37.7471 61.2939 37.0755 61.2939 36.2471C61.2939 35.4186 61.9655 34.7471 62.7939 34.7471C63.6224 34.7471 64.2939 35.4186 64.2939 36.2471Z"/>
<path d="M64.2939 42.2471C64.2939 43.0755 63.6224 43.7471 62.7939 43.7471C61.9655 43.7471 61.2939 43.0755 61.2939 42.2471C61.2939 41.4186 61.9655 40.7471 62.7939 40.7471C63.6224 40.7471 64.2939 41.4186 64.2939 42.2471Z"/>
<path d="M64.2939 48.2471C64.2939 49.0755 63.6224 49.7471 62.7939 49.7471C61.9655 49.7471 61.2939 49.0755 61.2939 48.2471C61.2939 47.4186 61.9655 46.7471 62.7939 46.7471C63.6224 46.7471 64.2939 47.4186 64.2939 48.2471Z"/>
<path d="M64.2939 54.2471C64.2939 55.0755 63.6224 55.7471 62.7939 55.7471C61.9655 55.7471 61.2939 55.0755 61.2939 54.2471C61.2939 53.4186 61.9655 52.7471 62.7939 52.7471C63.6224 52.7471 64.2939 53.4186 64.2939 54.2471Z"/>
</mask>
<path d="M64.2939 36.2471C64.2939 37.0755 63.6224 37.7471 62.7939 37.7471C61.9655 37.7471 61.2939 37.0755 61.2939 36.2471C61.2939 35.4186 61.9655 34.7471 62.7939 34.7471C63.6224 34.7471 64.2939 35.4186 64.2939 36.2471Z" fill="#2B2727"/>
<path d="M64.2939 42.2471C64.2939 43.0755 63.6224 43.7471 62.7939 43.7471C61.9655 43.7471 61.2939 43.0755 61.2939 42.2471C61.2939 41.4186 61.9655 40.7471 62.7939 40.7471C63.6224 40.7471 64.2939 41.4186 64.2939 42.2471Z" fill="#2B2727"/>
<path d="M64.2939 48.2471C64.2939 49.0755 63.6224 49.7471 62.7939 49.7471C61.9655 49.7471 61.2939 49.0755 61.2939 48.2471C61.2939 47.4186 61.9655 46.7471 62.7939 46.7471C63.6224 46.7471 64.2939 47.4186 64.2939 48.2471Z" fill="#2B2727"/>
<path d="M64.2939 54.2471C64.2939 55.0755 63.6224 55.7471 62.7939 55.7471C61.9655 55.7471 61.2939 55.0755 61.2939 54.2471C61.2939 53.4186 61.9655 52.7471 62.7939 52.7471C63.6224 52.7471 64.2939 53.4186 64.2939 54.2471Z" fill="#2B2727"/>
<path d="M61.2939 36.2471C61.2939 35.4186 61.9655 34.7471 62.7939 34.7471V40.7471C65.2792 40.7471 67.2939 38.7324 67.2939 36.2471H61.2939ZM62.7939 34.7471C63.6224 34.7471 64.2939 35.4186 64.2939 36.2471H58.2939C58.2939 38.7324 60.3087 40.7471 62.7939 40.7471V34.7471ZM64.2939 36.2471C64.2939 37.0755 63.6224 37.7471 62.7939 37.7471V31.7471C60.3087 31.7471 58.2939 33.7618 58.2939 36.2471H64.2939ZM62.7939 37.7471C61.9655 37.7471 61.2939 37.0755 61.2939 36.2471H67.2939C67.2939 33.7618 65.2792 31.7471 62.7939 31.7471V37.7471ZM61.2939 42.2471C61.2939 41.4186 61.9655 40.7471 62.7939 40.7471V46.7471C65.2792 46.7471 67.2939 44.7324 67.2939 42.2471H61.2939ZM62.7939 40.7471C63.6224 40.7471 64.2939 41.4186 64.2939 42.2471H58.2939C58.2939 44.7324 60.3087 46.7471 62.7939 46.7471V40.7471ZM64.2939 42.2471C64.2939 43.0755 63.6224 43.7471 62.7939 43.7471V37.7471C60.3087 37.7471 58.2939 39.7618 58.2939 42.2471H64.2939ZM62.7939 43.7471C61.9655 43.7471 61.2939 43.0755 61.2939 42.2471H67.2939C67.2939 39.7618 65.2792 37.7471 62.7939 37.7471V43.7471ZM61.2939 48.2471C61.2939 47.4186 61.9655 46.7471 62.7939 46.7471V52.7471C65.2792 52.7471 67.2939 50.7324 67.2939 48.2471H61.2939ZM62.7939 46.7471C63.6224 46.7471 64.2939 47.4186 64.2939 48.2471H58.2939C58.2939 50.7324 60.3087 52.7471 62.7939 52.7471V46.7471ZM64.2939 48.2471C64.2939 49.0755 63.6224 49.7471 62.7939 49.7471V43.7471C60.3087 43.7471 58.2939 45.7618 58.2939 48.2471H64.2939ZM62.7939 49.7471C61.9655 49.7471 61.2939 49.0755 61.2939 48.2471H67.2939C67.2939 45.7618 65.2792 43.7471 62.7939 43.7471V49.7471ZM61.2939 54.2471C61.2939 53.4186 61.9655 52.7471 62.7939 52.7471V58.7471C65.2792 58.7471 67.2939 56.7324 67.2939 54.2471H61.2939ZM62.7939 52.7471C63.6224 52.7471 64.2939 53.4186 64.2939 54.2471H58.2939C58.2939 56.7324 60.3087 58.7471 62.7939 58.7471V52.7471ZM64.2939 54.2471C64.2939 55.0755 63.6224 55.7471 62.7939 55.7471V49.7471C60.3087 49.7471 58.2939 51.7618 58.2939 54.2471H64.2939ZM62.7939 55.7471C61.9655 55.7471 61.2939 55.0755 61.2939 54.2471H67.2939C67.2939 51.7618 65.2792 49.7471 62.7939 49.7471V55.7471Z" fill="#2B2727" mask="url(#path-26-inside-2_2839_5554)"/>
<path d="M23.2939 77.7471L30.5899 73.5365L37.4299 77.2208H46.0939L52.4779 75.6418L56.1259 70.905L65.2459 75.1155L70.2619 67.7471L80.2939 68.7997" stroke="#2B2727" stroke-width="2" stroke-linecap="round" stroke-linejoin="round"/>
<rect x="18.7939" y="63.2471" width="66" height="19" rx="6.5" stroke="#2B2727" stroke-width="3" stroke-linecap="round" stroke-linejoin="round"/>
<rect x="88.7939" y="64.2471" width="17" height="27" rx="6.5" stroke="#2B2727" stroke-width="3"/>
<rect x="82.7939" y="80.2471" width="30" height="30" rx="15" fill="#F9FAFC" stroke="#2B2727" stroke-width="3"/>
<rect x="93.9609" y="88.7251" width="7.66667" height="13.0435" rx="3.83333" stroke="#2B2727"/>
<rect x="91.7939" y="86.2471" width="12" height="18" rx="6" stroke="#2B2727"/>
<rect x="96.127" y="91.2036" width="3.33333" height="8.08696" rx="1.66667" stroke="#2B2727"/>
<rect x="93.2939" y="93.7471" width="2" height="2" fill="#F9FAFC"/>
<rect x="90.2939" y="96.7471" width="2" height="2" fill="#F9FAFC"/>
<rect x="97.2939" y="100.747" width="2" height="2" fill="#F9FAFC"/>
<rect x="98.2939" y="92.7471" width="2" height="2" fill="#F9FAFC"/>
<rect x="96.2939" y="85.7471" width="2" height="2" fill="#F9FAFC"/>
<rect x="102.294" y="90.7471" width="2" height="2" fill="#F9FAFC"/>
<rect x="98.2939" y="102.747" width="2" height="2" fill="#F9FAFC"/>
<rect x="100.294" y="95.7471" width="2" height="2" fill="#F9FAFC"/>
</g>
<defs>
<clipPath id="clip0_2839_5554">
<rect width="128" height="128" fill="white" transform="translate(0.293945 0.74707)"/>
</clipPath>
</defs>
</svg>
