<svg width="204" height="128" viewBox="0 0 204 128" fill="none" xmlns="http://www.w3.org/2000/svg">
<path fill-rule="evenodd" clip-rule="evenodd" d="M102.044 31.3416C84.0072 31.3416 69.3855 45.9633 69.3855 64C69.3855 65.8202 67.91 67.2958 66.0897 67.2958C64.2695 67.2958 62.7939 65.8202 62.7939 64C62.7939 42.3228 80.3668 24.75 102.044 24.75C123.721 24.75 141.294 42.3228 141.294 64C141.294 85.6772 123.721 103.25 102.044 103.25H66.0897C64.2695 103.25 62.7939 101.774 62.7939 99.9542C62.7939 98.134 64.2695 96.6584 66.0897 96.6584H102.044C120.081 96.6584 134.702 82.0367 134.702 64C134.702 45.9633 120.081 31.3416 102.044 31.3416Z" fill="#FCE300"/>
<path fill-rule="evenodd" clip-rule="evenodd" d="M102.044 43.3263C90.6262 43.3263 81.3703 52.5823 81.3703 64C81.3703 65.8202 79.8947 67.2958 78.0745 67.2958C76.2543 67.2958 74.7787 65.8202 74.7787 64C74.7787 48.9418 86.9858 36.7347 102.044 36.7347C117.102 36.7347 129.309 48.9418 129.309 64C129.309 79.0582 117.102 91.2653 102.044 91.2653H66.0897C64.2695 91.2653 62.7939 89.7897 62.7939 87.9695C62.7939 86.1492 64.2695 84.6737 66.0897 84.6737H102.044C113.462 84.6737 122.718 75.4178 122.718 64C122.718 52.5823 113.462 43.3263 102.044 43.3263Z" fill="#30FF86"/>
<path fill-rule="evenodd" clip-rule="evenodd" d="M102.044 55.3111C97.2452 55.3111 93.355 59.2012 93.355 64C93.355 65.8202 91.8794 67.2958 90.0592 67.2958C88.239 67.2958 86.7634 65.8202 86.7634 64C86.7634 55.5608 93.6047 48.7195 102.044 48.7195C110.483 48.7195 117.324 55.5608 117.324 64C117.324 72.4392 110.483 79.2805 102.044 79.2805H66.0897C64.2695 79.2805 62.7939 77.805 62.7939 75.9847C62.7939 74.1645 64.2695 72.6889 66.0897 72.6889H102.044C106.843 72.6889 110.733 68.7988 110.733 64C110.733 59.2012 106.843 55.3111 102.044 55.3111Z" fill="#004BD0"/>
</svg>
