<svg width="204" height="128" viewBox="0 0 204 128" fill="none" xmlns="http://www.w3.org/2000/svg">
<path fill-rule="evenodd" clip-rule="evenodd" d="M102.044 31.3416C84.0072 31.3416 69.3855 45.9633 69.3855 64C69.3855 75.4178 78.6415 84.6737 90.0592 84.6737H102.044C113.462 84.6737 122.718 75.4178 122.718 64C122.718 52.5823 113.462 43.3263 102.044 43.3263C90.6262 43.3263 81.3703 52.5823 81.3703 64C81.3703 68.7988 85.2604 72.6889 90.0592 72.6889H101.894C101.919 72.6889 101.944 72.6892 101.969 72.6898C101.994 72.6892 102.019 72.6889 102.044 72.6889C106.843 72.6889 110.733 68.7988 110.733 64C110.733 59.2012 106.843 55.3111 102.044 55.3111C97.2452 55.3111 93.355 59.2012 93.355 64C93.355 65.8202 91.8794 67.2958 90.0592 67.2958C88.239 67.2958 86.7634 65.8202 86.7634 64C86.7634 55.5608 93.6047 48.7195 102.044 48.7195C110.483 48.7195 117.324 55.5608 117.324 64C117.324 72.4392 110.483 79.2805 102.044 79.2805C102.019 79.2805 101.994 79.2803 101.969 79.2797C101.944 79.2803 101.919 79.2805 101.894 79.2805H90.0592C81.62 79.2805 74.7787 72.4392 74.7787 64C74.7787 48.9418 86.9858 36.7347 102.044 36.7347C117.102 36.7347 129.309 48.9418 129.309 64C129.309 78.9816 117.226 91.141 102.274 91.2643C102.247 91.265 102.22 91.2653 102.194 91.2653H90.0592C75.001 91.2653 62.7939 79.0582 62.7939 64C62.7939 42.3228 80.3668 24.75 102.044 24.75C123.721 24.75 141.294 42.3228 141.294 64C141.294 85.6772 123.721 103.25 102.044 103.25H90.0592C88.239 103.25 86.7634 101.774 86.7634 99.9542C86.7634 98.134 88.239 96.6584 90.0592 96.6584H102.044C120.081 96.6584 134.702 82.0367 134.702 64C134.702 45.9633 120.081 31.3416 102.044 31.3416Z" fill="url(#paint0_radial_2838_4349)"/>
<defs>
<radialGradient id="paint0_radial_2838_4349" cx="0" cy="0" r="1" gradientUnits="userSpaceOnUse" gradientTransform="translate(102.044 64) rotate(90) scale(35.9542)">
<stop offset="0.22" stop-color="#FCE300"/>
<stop offset="0.515" stop-color="#30FF86"/>
<stop offset="1" stop-color="#0158F2"/>
</radialGradient>
</defs>
</svg>
