<svg width="177" height="59" viewBox="0 0 177 59" fill="none" xmlns="http://www.w3.org/2000/svg">
<path d="M30.1558 9.23874C19.6447 9.23874 10.9884 17.0834 9.79187 27.1859C9.73148 27.6961 9.68617 28.2097 9.66181 28.7291C9.63986 29.1972 10.0242 29.5773 10.4962 29.5773H13.6113C14.0833 29.5773 14.4637 29.197 14.4939 28.7294C14.5275 28.208 14.5894 27.6943 14.6689 27.1859C15.832 19.7353 22.315 14.0216 30.1558 14.0216C38.8191 14.0216 45.8383 20.9881 45.8383 29.5773C45.8383 38.1666 38.8191 45.1256 30.1558 45.1256H6.62226C5.95108 45.1256 5.5462 45.8561 5.9303 46.4025C6.73582 47.5485 7.62055 48.6362 8.57946 49.6535C8.73847 49.8222 8.9616 49.916 9.19432 49.916H30.1558C41.4848 49.916 50.6701 40.8096 50.6699 29.5773C50.6699 18.3452 41.4848 9.23874 30.1558 9.23874Z" fill="url(#paint0_radial_2869_2641)"/>
<path d="M30.1558 0.343262C20.9718 0.343262 12.7647 4.49026 7.34232 11.0043C3.56297 15.544 1.2094 21.2743 0.722254 27.1413C0.720811 27.1563 0.715762 27.1706 0.71456 27.1859C0.672809 27.6982 0.634691 28.2115 0.613024 28.7291C0.593424 29.1973 0.976939 29.5773 1.44891 29.5773H4.56407C5.03605 29.5773 5.41715 29.1973 5.43424 28.729C5.45316 28.2107 5.48885 27.6973 5.53888 27.1859C6.75368 14.7658 17.3098 5.0517 30.1558 5.0517C43.8173 5.0517 54.893 16.0327 54.893 29.5773C54.893 43.1221 43.8173 54.1031 30.1558 54.1028H16.7166C15.8692 54.1028 15.5691 55.1488 16.3184 55.5418C20.0284 57.4879 24.2091 58.6633 28.6455 58.8859H30.1558C45.4625 58.8859 58.0455 47.352 59.5594 32.5723C59.6577 31.6115 59.7147 30.6379 59.7171 29.6519C59.7171 28.6401 59.6604 27.6348 59.5594 26.6495C58.0455 11.8697 45.4625 0.343262 30.1558 0.343262Z" fill="url(#paint1_radial_2869_2641)"/>
<path d="M30.1558 18.2086C24.6546 18.2086 20.0698 22.0607 18.9594 27.1859C18.8501 27.6905 18.7682 28.2048 18.7245 28.7298C18.6857 29.1968 19.0715 29.5773 19.5434 29.5773H22.666C23.138 29.5773 23.5149 29.1957 23.5784 28.7314C23.6519 28.1934 23.793 27.6766 23.9866 27.1859C24.953 24.737 27.3432 22.9988 30.1558 22.999C33.8212 22.999 36.7908 25.9433 36.7911 29.5773C36.7911 33.2112 33.8212 36.1555 30.1558 36.1557H6.31253C6.13008 35.4936 5.96055 34.8049 5.76891 34.1451C5.63435 33.6818 5.21482 33.3616 4.78797 33.3616H1.69946C1.27779 33.3616 0.901401 33.8489 0.98257 34.3106C1.37335 36.3763 1.84079 38.5362 2.68364 40.4734C2.81534 40.7761 3.13769 40.9388 3.44007 40.9388H30.1558C36.4866 40.9388 41.6152 35.8542 41.6152 29.5773C41.6152 23.3006 36.4866 18.2086 30.1558 18.2086Z" fill="url(#paint2_radial_2869_2641)"/>
<path fill-rule="evenodd" clip-rule="evenodd" d="M118.396 19.6688C118.396 19.1636 118.809 18.7541 119.319 18.7541H128.733C129.243 18.7541 129.657 19.1636 129.657 19.6688V42.2622C129.657 42.7674 129.243 43.1769 128.733 43.1769H126.837C126.327 43.1769 125.913 42.7674 125.913 42.2622V42.1917C125.913 41.6865 125.5 41.277 124.99 41.277H122.877C122.367 41.277 121.953 41.6865 121.953 42.1917V42.5073C121.953 43.0125 121.54 43.422 121.03 43.422H119.319C118.809 43.422 118.396 43.0125 118.396 42.5073V19.6688ZM121.953 23.2235C121.953 22.7183 122.367 22.3087 122.877 22.3087H124.99C125.5 22.3087 125.913 22.7183 125.913 23.2235V36.8076C125.913 37.3128 125.5 37.7224 124.99 37.7224H122.877C122.367 37.7224 121.953 37.3128 121.953 36.8076V23.2235Z" fill="#004BD0"/>
<path d="M103.541 24.3618C103.031 24.3618 102.617 23.9523 102.617 23.4471V21.6606C102.617 21.1555 103.031 20.7459 103.541 20.7459H105.367C105.875 20.7459 106.287 20.3402 106.29 19.8375C106.293 19.0386 106.294 18.2264 106.296 17.4015C106.296 17.1363 106.296 16.8698 106.297 16.602C106.298 16.0978 106.711 15.6897 107.22 15.6897H109.024C109.535 15.6897 109.949 16.1007 109.947 16.6068C109.943 17.694 109.938 18.765 109.927 19.8183C109.922 20.3285 110.337 20.7459 110.852 20.7459H115.617C116.071 20.7459 116.632 20.8434 116.632 21.5929V22.4313C116.354 35.5467 116.137 40.2658 115.147 41.706C114.435 42.7172 113.786 43.085 112.765 43.2688C112.02 43.441 110.975 43.475 109.856 43.45C109.382 43.4394 109.003 43.0643 108.924 42.6012C108.857 42.2078 108.76 41.7878 108.636 41.3741C108.421 40.6565 108.999 39.8041 109.754 39.8244C110.216 39.8368 110.604 39.8368 110.878 39.8368C111.342 39.8674 111.62 39.7142 111.93 39.2852C112.509 38.4647 112.769 34.8615 112.972 25.2949C112.983 24.7828 112.566 24.3618 112.049 24.3618H110.719C110.222 24.3618 109.815 24.7521 109.793 25.2441C109.472 32.5478 108.465 38.7181 105.205 43.0918C104.842 43.5798 104.098 43.5375 103.688 43.0863C103.341 42.7036 102.946 42.3186 102.554 41.9857C102.123 41.6185 102.034 40.9564 102.374 40.5046C105.17 36.793 105.965 31.594 106.196 25.3028C106.215 24.788 105.797 24.3618 105.277 24.3618H103.541Z" fill="#004BD0"/>
<path d="M144.115 28.4739C144.653 28.341 145.187 28.7022 145.257 29.2465L145.457 30.8038C145.515 31.2566 145.228 31.6827 144.783 31.8014C144.07 31.9915 143.348 32.1821 142.627 32.371C142.222 32.4773 141.939 32.8405 141.939 33.256V40.1738C141.939 41.9512 141.599 42.8398 140.578 43.3914C139.661 43.8991 138.414 44.034 136.653 44.0602C136.19 44.0671 135.799 43.7256 135.692 43.2794C135.603 42.9051 135.487 42.4996 135.358 42.1043C135.146 41.4579 135.629 40.7436 136.315 40.75C136.961 40.7561 137.498 40.7561 137.732 40.7561C138.165 40.7561 138.319 40.6028 138.319 40.1738V34.6643C138.319 34.0665 137.75 33.6294 137.165 33.7776C136.686 33.8991 136.218 34.017 135.766 34.1307C135.278 34.2535 134.78 33.9646 134.649 33.4824L134.182 31.7671C134.043 31.2579 134.367 30.7385 134.888 30.6282C135.719 30.4521 136.634 30.2494 137.605 30.028C138.024 29.9326 138.319 29.5633 138.319 29.1381V25.4298C138.319 24.9246 137.906 24.5151 137.396 24.5151H135.499C134.989 24.5151 134.576 24.1055 134.576 23.6003V21.9977C134.576 21.4925 134.989 21.083 135.499 21.083H137.396C137.906 21.083 138.319 20.6735 138.319 20.1683V16.1755C138.319 15.6703 138.733 15.2607 139.243 15.2607H141.016C141.526 15.2607 141.939 15.6703 141.939 16.1755V20.1683C141.939 20.6735 142.353 21.083 142.863 21.083H143.831C144.341 21.083 144.754 21.4925 144.754 21.9977V23.6003C144.754 24.1055 144.341 24.5151 143.831 24.5151H142.863C142.353 24.5151 141.939 24.9246 141.939 25.4298V27.8412C141.939 28.4344 142.5 28.8706 143.081 28.7283C143.426 28.6439 143.771 28.559 144.115 28.4739Z" fill="#004BD0"/>
<path fill-rule="evenodd" clip-rule="evenodd" d="M152.087 16.5738C152.087 16.0686 152.5 15.6591 153.01 15.6591H154.876C155.386 15.6591 155.799 16.0686 155.799 16.5738V19.9231C155.799 20.4283 156.213 20.8378 156.723 20.8378H161.899C162.409 20.8378 162.822 21.2474 162.822 21.7526V23.3245C162.822 23.8297 162.409 24.2393 161.899 24.2393H146.544C146.034 24.2393 145.621 23.8297 145.621 23.3245V21.7526C145.621 21.2474 146.034 20.8378 146.544 20.8378H151.163C151.673 20.8378 152.087 20.4283 152.087 19.9231V16.5738ZM147.62 26.9626C147.497 26.4488 147.827 25.933 148.351 25.8341L149.804 25.5599C150.274 25.4715 150.734 25.7513 150.859 26.2078C151.815 29.7021 152.603 33.8355 152.817 36.725C152.849 37.162 152.549 37.5496 152.118 37.6497L150.403 38.0486C149.834 38.1809 149.285 37.7647 149.246 37.1875C149.05 34.3351 148.437 30.3654 147.62 26.9626Z" fill="#004BD0"/>
<path d="M156.626 26.1486C156.685 25.6273 157.167 25.2554 157.691 25.3343L159.676 25.6332C160.183 25.7094 160.53 26.1791 160.447 26.6796C159.802 30.5686 158.957 34.7184 158.119 38.0423C157.973 38.6249 158.415 39.1932 159.021 39.1932H162.363C162.873 39.1932 163.286 39.6028 163.286 40.108V41.7412C163.286 42.2464 162.873 42.656 162.363 42.656H145.09C144.58 42.656 144.167 42.2464 144.167 41.7412V40.108C144.167 39.6028 144.58 39.1932 145.09 39.1932H153.523C153.942 39.1932 154.309 38.9146 154.411 38.5121C155.313 34.9521 156.178 30.1312 156.626 26.1486Z" fill="#004BD0"/>
<path fill-rule="evenodd" clip-rule="evenodd" d="M97.61 20.3169C98.1201 20.3169 98.5335 19.9074 98.5335 19.4022V18.2286C98.5335 17.7234 98.1201 17.3138 97.61 17.3138H92.8054C92.2954 17.3138 91.8819 16.9043 91.8819 16.3991V16.1755C91.8819 15.6703 91.4685 15.2607 90.9584 15.2607H89.0001C88.4901 15.2607 88.0766 15.6703 88.0766 16.1755V16.3991C88.0766 16.9043 87.6631 17.3138 87.1531 17.3138H81.6988C81.1888 17.3138 80.7753 16.9043 80.7753 16.3991V16.1755C80.7753 15.6703 80.3618 15.2607 79.8518 15.2607H77.8935C77.3834 15.2607 76.97 15.6703 76.97 16.1755V16.3991C76.97 16.9043 76.5565 17.3138 76.0464 17.3138H71.2419C70.7318 17.3138 70.3184 17.7234 70.3184 18.2286V19.4022C70.3184 19.9074 70.7318 20.3169 71.2419 20.3169H76.0728C76.5683 20.3169 76.97 20.7148 76.97 21.2056C76.97 21.6964 77.3716 22.0942 77.8672 22.0942H79.8781C80.3736 22.0942 80.7753 21.6964 80.7753 21.2056C80.7753 20.7148 81.177 20.3169 81.6725 20.3169H87.3341C87.7442 20.3169 88.0766 20.6462 88.0766 21.0523V21.6023C88.0766 21.7048 88.1604 21.7878 88.2638 21.7878C88.4766 21.7878 88.5245 22.0833 88.3225 22.1494L87.5825 22.3914C87.3824 22.4568 87.3034 22.6957 87.4202 22.8694C87.5435 23.0528 87.6668 23.2455 87.7867 23.442C88.0989 23.9535 87.7115 24.5763 87.1081 24.5763H82.4722C81.9622 24.5763 81.5487 24.9859 81.5487 25.4911V26.8648C81.5487 27.2256 81.8441 27.5181 82.2083 27.5181H83.9234C84.2961 27.5181 84.3931 28.0288 84.0459 28.1629C83.8444 28.2407 83.768 28.4838 83.8836 28.6648C84.2989 29.315 84.7044 30.0642 84.9794 30.705C84.9813 30.705 84.9828 30.7065 84.9828 30.7084V30.713L84.9794 30.705H82.4723C81.9622 30.705 81.5487 31.1146 81.5487 31.6197V34.3209C81.5487 36.3511 81.3426 38.9256 79.6299 41.0296C79.217 41.5368 79.3058 42.357 79.8497 42.7235C80.2164 42.9707 80.5905 43.2415 80.9128 43.4939C81.3001 43.7973 81.8714 43.8087 82.1998 43.4436C84.5087 40.8763 84.9828 37.2402 84.9828 34.4129C84.9828 34.0575 85.2737 33.7694 85.6325 33.7694H97.4553C97.9654 33.7694 98.3788 33.3598 98.3788 32.8546V31.6197C98.3788 31.1146 97.9654 30.705 97.4553 30.705H96.174C95.4474 30.705 95.0009 29.9096 95.3715 29.2906C95.5011 29.074 95.6318 28.8535 95.7628 28.6307C95.868 28.4518 95.7805 28.2225 95.5824 28.1565C95.2271 28.0381 95.3131 27.5181 95.6879 27.5181H97.2906C97.6182 27.5181 97.8838 27.255 97.8838 26.9305V25.4911C97.8838 24.9859 97.4704 24.5763 96.9603 24.5763H92.0057C91.7664 24.5763 91.7048 24.2481 91.9281 24.1629C92.0393 24.1204 92.095 23.9966 92.0476 23.8883C91.8465 23.4292 91.5428 22.9014 91.1977 22.4007C91.0227 22.1467 91.2005 21.7878 91.5109 21.7878C91.7158 21.7878 91.8819 21.6233 91.8819 21.4203V21.0523C91.8819 20.6462 92.2144 20.3169 92.6244 20.3169H97.61ZM87.998 29.0139C87.6347 28.364 88.0798 27.5181 88.8298 27.5181H91.2063C91.85 27.5181 92.2893 28.1518 92.0227 28.7321C91.7688 29.2846 91.4874 29.846 91.2218 30.3436C91.1024 30.5673 90.8667 30.705 90.6112 30.705H88.3662C88.0677 30.705 87.9889 30.2965 88.2665 30.1876C88.4022 30.1344 88.4712 29.9842 88.4148 29.8509C88.3048 29.5909 88.1617 29.3066 87.998 29.0139Z" fill="#004BD0"/>
<path d="M75.3566 25.9859C74.8465 25.9859 74.4331 26.3955 74.4331 26.9007V43.1815C74.4331 43.6867 74.0196 44.0962 73.5096 44.0962H72.0772C71.5671 44.0962 71.1537 43.6867 71.1537 43.1815V23.867C71.1537 23.3618 71.5671 22.9522 72.0772 22.9522H77.7909C77.8621 22.9522 77.9331 22.9441 78.0024 22.9279L78.1012 22.9049C78.3099 22.8563 78.5292 22.8811 78.7214 22.975L80.0594 23.6291C80.4838 23.8365 80.6815 24.328 80.5144 24.7665C79.9292 26.3024 79.2549 27.998 78.6206 29.4976C78.4826 29.8236 78.5474 30.1978 78.7701 30.4741C80.1599 32.198 80.5278 33.7596 80.5278 35.087C80.5587 36.8031 80.1565 37.9369 79.1975 38.611C78.7334 38.9481 78.1765 39.132 77.5578 39.2239C77.1954 39.2806 76.7624 39.3139 76.3096 39.324C75.8269 39.3348 75.4434 38.9448 75.3536 38.4749C75.3043 38.217 75.2384 37.9516 75.1584 37.6921C74.9844 37.1282 75.4156 36.4353 76.0109 36.4353C76.3512 36.4353 76.6296 36.3741 76.8153 36.2515C77.1556 36.037 77.3103 35.4854 77.3103 34.8112C77.3103 33.7432 76.9719 32.3657 75.6505 30.8207C75.424 30.5559 75.3452 30.1928 75.4615 29.8654C75.7676 29.0033 76.0732 28.0656 76.3546 27.1545C76.5347 26.5714 76.0913 25.9859 75.4756 25.9859H75.3566Z" fill="#004BD0"/>
<defs>
<radialGradient id="paint0_radial_2869_2641" cx="0" cy="0" r="1" gradientUnits="userSpaceOnUse" gradientTransform="translate(51.3169 8.91884) rotate(135.293) scale(58.8409 60.2929)">
<stop offset="0.0665658" stop-color="#FCE300"/>
<stop offset="0.290127" stop-color="#2FFF86"/>
<stop offset="0.640574" stop-color="#0096E1"/>
<stop offset="0.83191" stop-color="#0057F2"/>
<stop offset="1" stop-color="#004BD0"/>
</radialGradient>
<radialGradient id="paint1_radial_2869_2641" cx="0" cy="0" r="1" gradientUnits="userSpaceOnUse" gradientTransform="translate(51.3169 8.91884) rotate(135.293) scale(58.8409 60.2929)">
<stop offset="0.0665658" stop-color="#FCE300"/>
<stop offset="0.290127" stop-color="#2FFF86"/>
<stop offset="0.640574" stop-color="#0096E1"/>
<stop offset="0.83191" stop-color="#0057F2"/>
<stop offset="1" stop-color="#004BD0"/>
</radialGradient>
<radialGradient id="paint2_radial_2869_2641" cx="0" cy="0" r="1" gradientUnits="userSpaceOnUse" gradientTransform="translate(51.3169 8.91884) rotate(135.293) scale(58.8409 60.2929)">
<stop offset="0.0665658" stop-color="#FCE300"/>
<stop offset="0.290127" stop-color="#2FFF86"/>
<stop offset="0.640574" stop-color="#0096E1"/>
<stop offset="0.83191" stop-color="#0057F2"/>
<stop offset="1" stop-color="#004BD0"/>
</radialGradient>
</defs>
</svg>
