<svg width="205" height="128" viewBox="0 0 205 128" fill="none" xmlns="http://www.w3.org/2000/svg">
<path fill-rule="evenodd" clip-rule="evenodd" d="M102.544 31.3416C84.5072 31.3416 69.8855 45.9633 69.8855 64C69.8855 65.8202 68.41 67.2958 66.5897 67.2958C64.7695 67.2958 63.2939 65.8202 63.2939 64C63.2939 42.3228 80.8668 24.75 102.544 24.75C124.221 24.75 141.794 42.3228 141.794 64C141.794 85.6772 124.221 103.25 102.544 103.25H90.5592C88.739 103.25 87.2634 101.774 87.2634 99.9542C87.2634 98.134 88.739 96.6584 90.5592 96.6584H102.544C120.581 96.6584 135.202 82.0367 135.202 64C135.202 45.9633 120.581 31.3416 102.544 31.3416Z" fill="url(#paint0_radial_2838_4352)"/>
<path fill-rule="evenodd" clip-rule="evenodd" d="M102.544 43.3263C91.1262 43.3263 81.8703 52.5823 81.8703 64C81.8703 65.8202 80.3947 67.2958 78.5745 67.2958C76.7543 67.2958 75.2787 65.8202 75.2787 64C75.2787 48.9418 87.4858 36.7347 102.544 36.7347C117.602 36.7347 129.809 48.9418 129.809 64C129.809 79.0582 117.602 91.2653 102.544 91.2653H78.5745C76.7543 91.2653 75.2787 89.7897 75.2787 87.9695C75.2787 86.1492 76.7543 84.6737 78.5745 84.6737H102.544C113.962 84.6737 123.218 75.4178 123.218 64C123.218 52.5823 113.962 43.3263 102.544 43.3263Z" fill="url(#paint1_radial_2838_4352)"/>
<path fill-rule="evenodd" clip-rule="evenodd" d="M102.544 55.3111C97.7452 55.3111 93.855 59.2012 93.855 64C93.855 65.8202 92.3794 67.2958 90.5592 67.2958C88.739 67.2958 87.2634 65.8202 87.2634 64C87.2634 55.5608 94.1047 48.7195 102.544 48.7195C110.983 48.7195 117.824 55.5608 117.824 64C117.824 72.4392 110.983 79.2805 102.544 79.2805H66.5897C64.7695 79.2805 63.2939 77.805 63.2939 75.9847C63.2939 74.1645 64.7695 72.6889 66.5897 72.6889H102.544C107.343 72.6889 111.233 68.7988 111.233 64C111.233 59.2012 107.343 55.3111 102.544 55.3111Z" fill="url(#paint2_radial_2838_4352)"/>
<defs>
<radialGradient id="paint0_radial_2838_4352" cx="0" cy="0" r="1" gradientUnits="userSpaceOnUse" gradientTransform="translate(126.963 35.8359) rotate(133.157) scale(88.9222 91.1252)">
<stop offset="0.0148713" stop-color="#FCE300"/>
<stop offset="0.439976" stop-color="#30FF86"/>
<stop offset="0.837573" stop-color="#0158F2"/>
</radialGradient>
<radialGradient id="paint1_radial_2838_4352" cx="0" cy="0" r="1" gradientUnits="userSpaceOnUse" gradientTransform="translate(126.963 35.8359) rotate(133.157) scale(88.9222 91.1252)">
<stop offset="0.0148713" stop-color="#FCE300"/>
<stop offset="0.439976" stop-color="#30FF86"/>
<stop offset="0.837573" stop-color="#0158F2"/>
</radialGradient>
<radialGradient id="paint2_radial_2838_4352" cx="0" cy="0" r="1" gradientUnits="userSpaceOnUse" gradientTransform="translate(126.963 35.8359) rotate(133.157) scale(88.9222 91.1252)">
<stop offset="0.0148713" stop-color="#FCE300"/>
<stop offset="0.439976" stop-color="#30FF86"/>
<stop offset="0.837573" stop-color="#0158F2"/>
</radialGradient>
</defs>
</svg>
