<svg width="177" height="59" viewBox="0 0 177 59" fill="none" xmlns="http://www.w3.org/2000/svg">
<path d="M138.649 9.39153C128.152 9.39153 119.507 17.1332 118.312 27.1031C118.252 27.6067 118.206 28.1136 118.182 28.6261C118.16 29.0881 118.544 29.4631 119.015 29.4631H122.126C122.598 29.4631 122.978 29.0879 123.008 28.6264C123.041 28.1118 123.103 27.6049 123.183 27.1031C124.344 19.7504 130.819 14.1116 138.649 14.1116C147.301 14.1116 154.311 20.9867 154.311 29.4631C154.311 37.9398 147.301 44.8074 138.649 44.8074H115.147C114.476 44.8074 114.072 45.5283 114.456 46.0676C115.26 47.1985 116.144 48.2719 117.101 49.2759C117.26 49.4424 117.483 49.535 117.715 49.535H138.649C149.963 49.535 159.136 40.548 159.136 29.4631C159.136 18.3785 149.963 9.39153 138.649 9.39153Z" fill="url(#paint0_radial_2869_2640)"/>
<path d="M138.649 0.612793C129.477 0.612793 121.281 4.70536 115.866 11.134C112.091 15.6141 109.741 21.2692 109.254 27.0591C109.253 27.0739 109.248 27.0881 109.247 27.1031C109.205 27.6087 109.167 28.1153 109.145 28.6261C109.126 29.0881 109.509 29.4631 109.98 29.4631H113.091C113.562 29.4631 113.943 29.0881 113.96 28.626C113.979 28.1145 114.015 27.6078 114.065 27.1031C115.278 14.8461 125.82 5.25943 138.649 5.25943C152.292 5.25943 163.354 16.0963 163.354 29.4631C163.354 42.8302 152.292 53.6671 138.649 53.6668H125.228C124.381 53.6668 124.082 54.699 124.83 55.0869C128.535 57.0074 132.71 58.1675 137.141 58.3871H138.649C153.935 58.3871 166.502 47.0046 168.014 32.4189C168.112 31.4707 168.169 30.5099 168.171 29.5368C168.171 28.5383 168.115 27.5461 168.014 26.5737C166.502 11.988 153.935 0.612793 138.649 0.612793Z" fill="url(#paint1_radial_2869_2640)"/>
<path d="M138.649 18.2437C133.155 18.2437 128.576 22.0452 127.467 27.1031C127.358 27.6011 127.276 28.1086 127.233 28.6268C127.194 29.0876 127.579 29.4631 128.051 29.4631H131.169C131.64 29.4631 132.017 29.0866 132.08 28.6284C132.154 28.0975 132.295 27.5875 132.488 27.1031C133.453 24.6864 135.84 22.971 138.649 22.9712C142.31 22.9712 145.275 25.8769 145.276 29.4631C145.276 33.0494 142.31 35.955 138.649 35.9553H114.837C114.655 35.3018 114.486 34.6222 114.294 33.971C114.16 33.5138 113.741 33.1978 113.315 33.1978H110.23C109.809 33.1978 109.433 33.6787 109.514 34.1343C109.905 36.173 110.371 38.3045 111.213 40.2163C111.345 40.515 111.667 40.6755 111.969 40.6755H138.649C144.971 40.6755 150.093 35.6576 150.093 29.4631C150.093 23.2689 144.971 18.2437 138.649 18.2437Z" fill="url(#paint2_radial_2869_2640)"/>
<path d="M79.5818 27.6231C79.8829 26.8497 79.2619 26.1428 78.4889 26.1428C77.9926 26.1428 77.5903 25.7491 77.5903 25.2633V23.4988C77.5903 23.0002 78.0033 22.5961 78.5126 22.5961H87.9821C90.9868 22.5961 93.163 23.2165 94.5107 24.4574C96.5201 26.294 96.5471 29.1236 96.5471 31.6242C96.5471 34.741 95.7785 37.0958 94.2411 38.6884C92.7038 40.281 90.4378 41.0773 87.4431 41.0773C84.5082 41.0773 82.337 40.3299 80.9295 38.835C79.5219 37.3303 78.8182 35.0684 78.8182 32.0492C78.8182 30.5323 79.02 29.0437 79.5818 27.6231ZM84.4726 26.1428C84.1426 26.1428 83.8321 26.313 83.7048 26.611C82.9845 28.2979 83.0258 30.2223 83.0258 32.0199C83.0258 33.8568 83.4001 35.2394 84.1488 36.1676C84.8975 37.086 86.0255 37.5452 87.5329 37.5452C89.21 37.5452 90.4228 37.0714 91.1715 36.1236C91.9302 35.1758 92.3095 33.637 92.3095 31.507C92.3095 30.0177 92.4285 28.2445 91.2164 27.1395C90.4977 26.475 89.3198 26.1428 87.6826 26.1428H84.4726Z" fill="#004BD0"/>
<path d="M61.3893 35.4787L60.5922 40.0339C60.5164 40.4673 60.1325 40.7842 59.6832 40.7842H57.3965C56.8135 40.7842 56.3767 40.2613 56.4926 39.702C57.0762 36.8869 57.3924 33.798 58.5144 31.1259C58.9169 30.154 59.5309 29.3483 60.441 28.7922C60.9468 28.4831 61.1363 27.8186 60.7796 27.351L58.2526 24.0389C57.7984 23.4436 58.2324 22.5961 58.9916 22.5961H61.5914C61.8877 22.5961 62.1659 22.7353 62.3392 22.9704L67.5247 30.0008C67.8463 30.4369 68.4909 30.5056 68.8279 30.0808C69.796 28.8606 70.1046 27.3096 70.2688 25.8058L70.5032 23.4126C70.5486 22.9496 70.946 22.5961 71.4213 22.5961H73.6956C74.2417 22.5961 74.6682 23.058 74.6132 23.5898L74.3566 26.0696C74.1229 28.1696 73.3428 30.0173 71.8859 31.5949C71.5589 31.9498 71.1559 32.3468 70.677 32.7859C70.3304 33.1037 70.2736 33.6248 70.5547 33.9995L74.5663 39.3472C75.0136 39.9434 74.5786 40.7842 73.8229 40.7842H71.2349C70.9385 40.7842 70.6602 40.6448 70.4868 40.4095L63.7812 31.3077C63.5032 30.9303 62.9592 30.8103 62.6448 31.1593C62.4387 31.3881 62.2748 31.6555 62.153 31.9613C61.9334 32.5475 61.6688 33.72 61.3893 35.4787Z" fill="#004BD0"/>
<path d="M47.1499 22.8013C48.33 23.0708 49.1768 23.8524 49.7104 24.8971C50.167 25.7715 50.6605 27.3366 51.2227 29.6163L53.5972 39.6783C53.7307 40.2441 53.2917 40.7842 52.6985 40.7842H50.5686C50.137 40.7842 49.7631 40.4912 49.6686 40.079L48.5416 35.159C48.4275 34.6608 47.9042 34.3364 47.4341 34.5578C47.1612 34.6863 46.9467 34.832 46.7905 34.9951C46.491 35.3078 46.2365 35.8012 46.0269 36.4753C45.6818 37.6575 45.4468 38.8716 45.1811 40.0726C45.0892 40.4879 44.7138 40.7842 44.2797 40.7842H42.0618C41.4698 40.7842 41.0311 40.246 41.1626 39.681C41.4448 38.4681 41.6934 37.2425 42.0588 36.0503C42.4307 34.8169 42.9792 33.5873 44.0353 32.7674C44.6243 32.3081 45.4329 31.9271 46.4611 31.6242L46.848 31.5106C47.3067 31.3759 47.5852 30.9197 47.478 30.4629C47.2588 29.5288 47.0383 28.7623 46.8504 28.18C46.6008 27.4277 46.3114 26.9001 45.9819 26.5972C45.6525 26.2943 45.1184 26.1428 44.3797 26.1428H43.2806C42.7712 26.1428 42.3583 25.7387 42.3583 25.2401V23.4988C42.3583 23.0002 42.7712 22.5961 43.2806 22.5961C44.5636 22.5961 45.8922 22.5092 47.1499 22.8013Z" fill="#004BD0"/>
<path d="M35.9651 30.2465V39.8815C35.9651 40.3801 35.5522 40.7842 35.0428 40.7842H32.8295C32.3201 40.7842 31.9072 40.3801 31.9072 39.8815V30.2172C31.9072 28.7028 31.5728 27.6475 30.904 27.0515C30.2451 26.4457 29.1321 26.1428 27.5648 26.1428H22.258C21.7487 26.1428 21.3357 25.7387 21.3357 25.2401V23.4988C21.3357 23.0002 21.7487 22.5961 22.258 22.5961H27.8044C29.7709 22.5961 31.3482 22.855 32.5361 23.3729C33.734 23.8809 34.6025 24.6968 35.1415 25.8204C35.6906 26.9343 35.9651 28.4096 35.9651 30.2465Z" fill="#004BD0"/>
<path d="M18.6261 30.2465V39.8815C18.6261 40.3801 18.2132 40.7842 17.7038 40.7842H15.4905C14.9811 40.7842 14.5682 40.3801 14.5682 39.8815V30.2172C14.5682 28.7223 14.2438 27.672 13.5949 27.0662C12.946 26.4506 11.818 26.1428 10.2108 26.1428H3.54143C3.03207 26.1428 2.61914 25.7387 2.61914 25.2401V23.4988C2.61914 23.0002 3.03207 22.5961 3.54143 22.5961H10.4654C12.4319 22.5961 14.0092 22.855 15.1971 23.3729C16.395 23.8907 17.2635 24.7114 17.8025 25.8351C18.3516 26.9489 18.6261 28.4194 18.6261 30.2465ZM6.03924 29.7336C6.5486 29.7336 6.96153 30.1377 6.96153 30.6363V39.8815C6.96153 40.3801 6.5486 40.7842 6.03924 40.7842H3.84091C3.33154 40.7842 2.91862 40.3801 2.91862 39.8815V30.6363C2.91862 30.1377 3.33154 29.7336 3.84091 29.7336H6.03924Z" fill="#004BD0"/>
<defs>
<radialGradient id="paint0_radial_2869_2640" cx="0" cy="0" r="1" gradientUnits="userSpaceOnUse" gradientTransform="translate(159.782 9.07583) rotate(135.633) scale(58.4205 59.8506)">
<stop offset="0.0665658" stop-color="#FCE300"/>
<stop offset="0.290127" stop-color="#2FFF86"/>
<stop offset="0.640574" stop-color="#0096E1"/>
<stop offset="0.83191" stop-color="#0057F2"/>
<stop offset="1" stop-color="#004BD0"/>
</radialGradient>
<radialGradient id="paint1_radial_2869_2640" cx="0" cy="0" r="1" gradientUnits="userSpaceOnUse" gradientTransform="translate(159.782 9.07583) rotate(135.633) scale(58.4205 59.8506)">
<stop offset="0.0665658" stop-color="#FCE300"/>
<stop offset="0.290127" stop-color="#2FFF86"/>
<stop offset="0.640574" stop-color="#0096E1"/>
<stop offset="0.83191" stop-color="#0057F2"/>
<stop offset="1" stop-color="#004BD0"/>
</radialGradient>
<radialGradient id="paint2_radial_2869_2640" cx="0" cy="0" r="1" gradientUnits="userSpaceOnUse" gradientTransform="translate(159.782 9.07583) rotate(135.633) scale(58.4205 59.8506)">
<stop offset="0.0665658" stop-color="#FCE300"/>
<stop offset="0.290127" stop-color="#2FFF86"/>
<stop offset="0.640574" stop-color="#0096E1"/>
<stop offset="0.83191" stop-color="#0057F2"/>
<stop offset="1" stop-color="#004BD0"/>
</radialGradient>
</defs>
</svg>
