<svg width="203" height="128" viewBox="0 0 203 128" fill="none" xmlns="http://www.w3.org/2000/svg">
<path d="M101.282 36.678C87.32 36.678 75.8217 47.1968 74.2324 60.7433C74.1522 61.4276 74.092 62.1163 74.0596 62.8127C74.0305 63.4403 74.541 63.95 75.1679 63.95H79.3058C79.9327 63.95 80.438 63.4401 80.4781 62.8131C80.5227 62.1139 80.605 61.4251 80.7105 60.7433C82.2555 50.7529 90.8669 43.0913 101.282 43.0913C112.79 43.0913 122.113 52.4328 122.113 63.95C122.113 75.4675 112.79 84.7988 101.282 84.7988H70.0221C69.1306 84.7988 68.5928 85.7783 69.103 86.511C70.173 88.0477 71.3482 89.5061 72.6219 90.8703C72.8331 91.0965 73.1295 91.2223 73.4386 91.2223H101.282C116.33 91.2223 128.531 79.0114 128.531 63.95C128.531 48.8889 116.33 36.678 101.282 36.678Z" fill="url(#paint0_radial_2838_4372)"/>
<path d="M101.282 24.75C89.0827 24.75 78.1812 30.3107 70.9786 39.0455C65.9585 45.1328 62.8322 52.8165 62.1851 60.6835C62.1832 60.7037 62.1765 60.7229 62.1749 60.7433C62.1194 61.4303 62.0688 62.1186 62.04 62.8126C62.014 63.4404 62.5234 63.95 63.1503 63.95H67.2882C67.9152 63.95 68.4214 63.4405 68.4441 62.8125C68.4692 62.1176 68.5166 61.429 68.5831 60.7433C70.1967 44.0893 84.2185 31.0636 101.282 31.0636C119.429 31.0636 134.141 45.788 134.141 63.95C134.141 82.1122 119.429 96.8367 101.282 96.8364H83.4306C82.305 96.8364 81.9064 98.2389 82.9016 98.7659C87.8297 101.375 93.3829 102.952 99.2759 103.25H101.282C121.614 103.25 138.328 87.7842 140.339 67.966C140.47 66.6777 140.545 65.3722 140.549 64.05C140.549 62.6933 140.473 61.3453 140.339 60.0241C138.328 40.2059 121.614 24.75 101.282 24.75Z" fill="url(#paint1_radial_2838_4372)"/>
<path d="M101.282 48.7057C93.9747 48.7057 87.8847 53.871 86.4096 60.7433C86.2645 61.42 86.1558 62.1096 86.0977 62.8136C86.0461 63.4398 86.5585 63.95 87.1855 63.95H91.3333C91.9602 63.95 92.4608 63.4384 92.5451 62.8157C92.6428 62.0944 92.8303 61.4014 93.0874 60.7433C94.3711 57.4596 97.546 55.1289 101.282 55.1292C106.151 55.1292 110.095 59.0772 110.096 63.95C110.096 68.8228 106.151 72.7707 101.282 72.771H69.6107C69.3684 71.8832 69.1432 70.9598 68.8886 70.075C68.7099 69.4537 68.1526 69.0244 67.5856 69.0244H63.4831C62.923 69.0244 62.4231 69.6779 62.5309 70.2969C63.05 73.0669 63.6709 75.9631 64.7904 78.5606C64.9654 78.9665 65.3936 79.1847 65.7952 79.1847H101.282C109.691 79.1847 116.504 72.3667 116.504 63.95C116.504 55.5336 109.691 48.7057 101.282 48.7057Z" fill="url(#paint2_radial_2838_4372)"/>
<defs>
<radialGradient id="paint0_radial_2838_4372" cx="0" cy="0" r="1" gradientUnits="userSpaceOnUse" gradientTransform="translate(129.39 36.249) rotate(135.022) scale(78.5265 80.4685)">
<stop offset="0.0665658" stop-color="#FCE300"/>
<stop offset="0.290127" stop-color="#2FFF86"/>
<stop offset="0.640574" stop-color="#0096E1"/>
<stop offset="0.83191" stop-color="#0057F2"/>
<stop offset="1" stop-color="#004BD0"/>
</radialGradient>
<radialGradient id="paint1_radial_2838_4372" cx="0" cy="0" r="1" gradientUnits="userSpaceOnUse" gradientTransform="translate(129.39 36.249) rotate(135.022) scale(78.5265 80.4685)">
<stop offset="0.0665658" stop-color="#FCE300"/>
<stop offset="0.290127" stop-color="#2FFF86"/>
<stop offset="0.640574" stop-color="#0096E1"/>
<stop offset="0.83191" stop-color="#0057F2"/>
<stop offset="1" stop-color="#004BD0"/>
</radialGradient>
<radialGradient id="paint2_radial_2838_4372" cx="0" cy="0" r="1" gradientUnits="userSpaceOnUse" gradientTransform="translate(129.39 36.249) rotate(135.022) scale(78.5265 80.4685)">
<stop offset="0.0665658" stop-color="#FCE300"/>
<stop offset="0.290127" stop-color="#2FFF86"/>
<stop offset="0.640574" stop-color="#0096E1"/>
<stop offset="0.83191" stop-color="#0057F2"/>
<stop offset="1" stop-color="#004BD0"/>
</radialGradient>
</defs>
</svg>
