<svg width="195" height="69" viewBox="0 0 195 69" fill="none" xmlns="http://www.w3.org/2000/svg">
<g clip-path="url(#clip0_2821_13547)">
<path d="M84.0692 25.9472C87.4262 23.3981 92.4503 23.6818 96.0128 25.6621C96.0972 25.709 96.1484 25.7982 96.1484 25.8947V29.419C96.1484 29.6166 95.9424 29.7476 95.7602 29.6708C94.3326 29.0689 92.7327 28.768 90.9607 28.768C88.3813 28.768 87.0918 29.3974 87.0918 30.656C87.0918 32.2828 89.6835 32.7765 90.8726 33.0817C93.1477 33.6652 95.3478 34.4982 96.7089 36.5174C97.4492 37.6149 97.8192 39.0125 97.8192 40.71C97.8192 45.1777 93.3661 47.2738 89.4438 47.2738C86.9187 47.2738 84.5904 46.6846 82.4587 45.5065C82.3738 45.4595 82.3216 45.3697 82.3216 45.2727V41.1257C82.3216 40.9105 82.5625 40.7811 82.7461 40.8935C84.6021 42.0297 86.5782 42.5979 88.6745 42.5979C90.2754 42.5979 92.4115 42.5106 92.4115 40.4467C92.4115 38.7657 89.8712 38.16 88.6194 37.8015C86.4695 37.1858 84.2286 36.5356 82.794 34.7061C80.7764 32.1328 81.5343 27.8721 84.0692 25.9472Z" fill="#003DAE"/>
<path d="M164.278 46.9226C164.129 46.9226 164.009 46.8019 164.009 46.6531V26.6768C164.009 26.5732 164.068 26.4785 164.162 26.4353C164.512 26.2754 164.966 26.0907 165.525 25.8814C168.462 24.7819 171.824 24.2215 174.946 24.1418C175.096 24.138 175.22 24.2594 175.22 24.4099V28.5461C175.22 28.6936 175.101 28.8136 174.953 28.8166C172.899 28.8595 171.118 29.0884 169.611 29.5034C169.495 29.5352 169.416 29.6409 169.416 29.7608V46.6531C169.416 46.8019 169.296 46.9226 169.147 46.9226H164.278Z" fill="#003DAE"/>
<path d="M130.283 24.1388C123.725 24.1388 120.523 29.7818 120.523 35.6415C120.523 41.9511 124.085 46.6177 130.661 46.6177C131.635 46.6042 132.66 46.4963 133.742 46.3005C133.909 46.2703 134.064 46.3977 134.064 46.5672C134.064 47.25 134.13 47.9793 133.959 48.6459C133.493 50.4628 131.532 50.7272 129.951 50.819C129.807 50.8273 129.694 50.9456 129.694 51.0894V55.3876C129.694 55.5383 129.818 55.6599 129.969 55.6554C134.016 55.5357 138.389 53.8648 139.278 49.5153C139.41 48.8712 139.472 48.1865 139.472 47.4694V31.5147C139.472 26.3617 134.86 24.1388 130.283 24.1388ZM130.283 28.9417C130.298 28.9417 130.324 28.9417 130.354 28.9417C132.83 28.9417 134.064 29.7759 134.064 31.4444V41.6713C134.064 41.8003 133.973 41.9115 133.846 41.9344C132.861 42.112 131.861 42.2009 130.837 42.2009C126.891 42.2009 125.931 39.2008 125.931 35.7295C125.931 32.7464 126.563 28.9417 130.283 28.9417Z" fill="#003DAE"/>
<path d="M103.511 24.7777C103.395 24.8093 103.315 24.9153 103.315 25.0357V28.8708C103.315 29.0482 103.484 29.1773 103.656 29.1349C105.045 28.7938 106.571 28.6168 108.257 28.6168C111.318 28.6168 112.909 29.9208 113.025 32.5371C113.032 32.7013 112.885 32.828 112.722 32.8058C110.059 32.4428 107.204 32.3224 104.608 33.1214C101.652 34.0309 99.4023 36.4387 99.4023 39.593C99.4023 44.9769 104.265 47.2761 109.03 47.2761C113.661 47.2761 118.483 44.9628 118.483 39.7245V33.6659C118.483 30.5779 117.633 28.2114 115.933 26.5797C112.789 23.5622 107.468 23.7033 103.511 24.7777ZM109.839 35.9928C110.678 36.0065 111.681 36.0872 112.843 36.242C112.976 36.2598 113.075 36.3738 113.075 36.5083V39.11C113.075 41.3784 111.727 42.5083 109.03 42.5083C109.016 42.5083 109.001 42.5083 108.986 42.5083C106.158 42.5083 104.739 41.3082 104.739 38.908C104.754 36.9616 106.454 35.9928 109.839 35.9928Z" fill="#003DAE"/>
<path d="M145.955 24.7776C145.839 24.8092 145.759 24.9152 145.759 25.0356V28.8708C145.759 29.0482 145.927 29.1772 146.1 29.1349C147.49 28.7938 149.024 28.6168 150.709 28.6168C153.77 28.6168 155.354 29.9208 155.469 32.5371C155.476 32.7013 155.329 32.828 155.166 32.8058C152.505 32.4431 149.655 32.3231 147.06 33.1214C144.074 34.0401 141.846 36.403 141.846 39.593C141.846 44.9706 146.718 47.2761 151.474 47.2761C156.114 47.2761 160.927 44.9691 160.927 39.7245V33.6659C160.927 30.5779 160.077 28.2114 158.377 26.5797C155.234 23.5624 149.912 23.7013 145.955 24.7776ZM152.292 35.9928C153.131 36.0065 154.126 36.0871 155.287 36.242C155.42 36.2598 155.519 36.3738 155.519 36.5083V39.11C155.519 41.3784 154.171 42.5083 151.474 42.5083C151.46 42.5083 151.445 42.5083 151.43 42.5083C148.602 42.5083 147.192 41.3082 147.192 38.908C147.207 36.9616 148.907 35.9928 152.292 35.9928Z" fill="#003DAE"/>
<path d="M180.028 24.7776C179.911 24.8092 179.832 24.9152 179.832 25.0356V28.8708C179.832 29.0482 180 29.1773 180.173 29.135C181.563 28.7938 183.097 28.6168 184.782 28.6168C187.843 28.6168 189.427 29.9208 189.541 32.5371C189.549 32.7013 189.402 32.828 189.239 32.8058C186.578 32.4431 183.728 32.3232 181.133 33.1214C178.171 34.0326 175.919 36.3907 175.919 39.593C175.919 44.9705 180.791 47.2761 185.547 47.2761C190.187 47.2761 195 44.9691 195 39.7245V33.6659C195 30.5779 194.15 28.2114 192.45 26.5797C189.306 23.5623 183.985 23.7014 180.028 24.7776ZM186.365 35.9928C187.203 36.0065 188.199 36.0871 189.36 36.242C189.493 36.2598 189.592 36.3738 189.592 36.5083V39.11C189.592 41.3784 188.244 42.5083 185.547 42.5083C185.533 42.5083 185.518 42.5083 185.503 42.5083C182.675 42.5083 181.265 41.3082 181.265 38.908C181.28 36.9616 182.98 35.9928 186.365 35.9928Z" fill="#003DAE"/>
<path d="M34.4897 10.6802C22.3188 10.6802 12.2957 19.8507 10.9103 31.6608C10.8403 32.2573 10.7879 32.8577 10.7597 33.4649C10.7343 34.0121 11.1793 34.4564 11.7258 34.4564H15.3328C15.8793 34.4564 16.3198 34.0119 16.3547 33.4652C16.3936 32.8557 16.4653 32.2552 16.5573 31.6608C17.9041 22.951 25.4108 16.2715 34.4897 16.2715C44.5209 16.2715 52.6485 24.4155 52.6485 34.4564C52.6485 44.4975 44.5209 52.6327 34.4897 52.6327H7.24018C6.46302 52.6327 5.99421 53.4866 6.43896 54.1255C7.37167 55.4651 8.3961 56.7366 9.50642 57.9259C9.69054 58.1231 9.9489 58.2328 10.2184 58.2328H34.4897C47.6076 58.2328 58.2432 47.5872 58.2429 34.4564C58.2429 21.3259 47.6076 10.6802 34.4897 10.6802Z" fill="url(#paint0_radial_2821_13547)"/>
<path d="M34.4897 0.28125C23.8555 0.28125 14.3525 5.12917 8.07394 12.7443C3.69783 18.0513 0.972627 24.7501 0.40856 31.6087C0.40689 31.6262 0.401044 31.6429 0.399651 31.6608C0.351308 32.2597 0.307172 32.8598 0.282083 33.4648C0.259388 34.0121 0.703461 34.4564 1.24996 34.4564H4.85701C5.4035 34.4564 5.84479 34.0122 5.86458 33.4648C5.88648 32.8589 5.9278 32.2586 5.98574 31.6608C7.39235 17.1415 19.6153 5.7855 34.4897 5.7855C50.3083 5.7855 63.1329 18.6225 63.1329 34.4564C63.1329 50.2905 50.3083 63.1275 34.4897 63.1273H18.9285C17.9473 63.1273 17.5998 64.35 18.4673 64.8094C22.7632 67.0844 27.604 68.4586 32.7409 68.7188H34.4897C52.2133 68.7188 66.7831 55.2354 68.5361 37.9576C68.65 36.8345 68.716 35.6963 68.7188 34.5436C68.7188 33.3608 68.653 32.1856 68.5361 31.0337C66.7831 13.7559 52.2133 0.28125 34.4897 0.28125Z" fill="url(#paint1_radial_2821_13547)"/>
<path d="M34.4897 21.1662C28.1199 21.1662 22.8111 25.6694 21.5253 31.6608C21.3988 32.2507 21.304 32.8519 21.2534 33.4657C21.2084 34.0116 21.6551 34.4564 22.2016 34.4564H25.8173C26.3638 34.4564 26.8002 34.0104 26.8737 33.4675C26.9588 32.8386 27.1222 32.2345 27.3464 31.6608C28.4654 28.798 31.233 26.766 34.4897 26.7663C38.7338 26.7663 42.1724 30.2082 42.1727 34.4564C42.1727 38.7046 38.7338 42.1465 34.4897 42.1467H6.88154C6.67028 41.3727 6.47399 40.5676 6.25209 39.7963C6.09628 39.2546 5.6105 38.8804 5.11626 38.8804H1.54007C1.05181 38.8804 0.615995 39.45 0.70998 39.9897C1.16246 42.4046 1.70371 44.9296 2.67965 47.1942C2.83215 47.548 3.20539 47.7382 3.55552 47.7382H34.4897C41.8202 47.7382 47.7585 41.7942 47.7585 34.4564C47.7585 27.1189 41.8202 21.1662 34.4897 21.1662Z" fill="url(#paint2_radial_2821_13547)"/>
</g>
<defs>
<radialGradient id="paint0_radial_2821_13547" cx="0" cy="0" r="1" gradientUnits="userSpaceOnUse" gradientTransform="translate(58.9921 10.3063) rotate(135.019) scale(68.4564 70.1494)">
<stop offset="0.0665658" stop-color="#FCE300"/>
<stop offset="0.290127" stop-color="#2FFF86"/>
<stop offset="0.640574" stop-color="#0096E1"/>
<stop offset="0.83191" stop-color="#0057F2"/>
<stop offset="1" stop-color="#004BD0"/>
</radialGradient>
<radialGradient id="paint1_radial_2821_13547" cx="0" cy="0" r="1" gradientUnits="userSpaceOnUse" gradientTransform="translate(58.9921 10.3063) rotate(135.019) scale(68.4564 70.1494)">
<stop offset="0.0665658" stop-color="#FCE300"/>
<stop offset="0.290127" stop-color="#2FFF86"/>
<stop offset="0.640574" stop-color="#0096E1"/>
<stop offset="0.83191" stop-color="#0057F2"/>
<stop offset="1" stop-color="#004BD0"/>
</radialGradient>
<radialGradient id="paint2_radial_2821_13547" cx="0" cy="0" r="1" gradientUnits="userSpaceOnUse" gradientTransform="translate(58.9921 10.3063) rotate(135.019) scale(68.4564 70.1494)">
<stop offset="0.0665658" stop-color="#FCE300"/>
<stop offset="0.290127" stop-color="#2FFF86"/>
<stop offset="0.640574" stop-color="#0096E1"/>
<stop offset="0.83191" stop-color="#0057F2"/>
<stop offset="1" stop-color="#004BD0"/>
</radialGradient>
<clipPath id="clip0_2821_13547">
<rect width="195" height="69" fill="white"/>
</clipPath>
</defs>
</svg>
