<svg width="177" height="60" viewBox="0 0 177 60" fill="none" xmlns="http://www.w3.org/2000/svg">
<path d="M29.8581 9.46498C19.3466 9.46498 10.69 17.3709 9.49339 27.5523C9.43299 28.0666 9.38769 28.5842 9.36332 29.1076C9.34137 29.5794 9.72572 29.9624 10.1977 29.9624H13.313C13.785 29.9624 14.1654 29.5792 14.1955 29.1079C14.2292 28.5824 14.2911 28.0647 14.3706 27.5523C15.5337 20.0436 22.017 14.2852 29.8581 14.2852C38.5217 14.2852 45.5412 21.3062 45.5412 29.9624C45.5412 38.6189 38.5217 45.6322 29.8581 45.6322H6.32366C5.65245 45.6322 5.24756 46.3684 5.63168 46.9191C6.43722 48.074 7.32198 49.1702 8.28093 50.1955C8.43995 50.3655 8.66308 50.4601 8.89582 50.4601H29.8581C41.1875 50.4601 50.3732 41.2825 50.3729 29.9624C50.3729 18.6426 41.1875 9.46498 29.8581 9.46498Z" fill="url(#paint0_radial_2869_2638)"/>
<path d="M29.8581 0.5C20.6737 0.5 12.4663 4.6794 7.04375 11.2444C3.26426 15.8195 0.910595 21.5946 0.42343 27.5074C0.421987 27.5225 0.416938 27.5369 0.415736 27.5523C0.373983 28.0686 0.335864 28.586 0.314196 29.1076C0.294595 29.5794 0.678125 29.9624 1.15011 29.9624H4.26539C4.73738 29.9624 5.11851 29.5794 5.1356 29.1075C5.15451 28.5852 5.1902 28.0677 5.24024 27.5523C6.45508 15.0353 17.0116 5.24522 29.8581 5.24522C43.5201 5.24522 54.5963 16.312 54.5963 29.9624C54.5963 43.613 43.5201 54.6798 29.8581 54.6796H16.4184C15.571 54.6796 15.2709 55.7337 16.0202 56.1298C19.7303 58.091 23.9112 59.2757 28.3478 59.5H29.8581C45.1653 59.5 57.7488 47.876 59.2628 32.9808C59.3611 32.0126 59.4181 31.0313 59.4205 30.0376C59.4205 29.0179 59.3638 28.0047 59.2628 27.0117C57.7488 12.1165 45.1653 0.5 29.8581 0.5Z" fill="url(#paint1_radial_2869_2638)"/>
<path d="M29.8581 18.5049C24.3567 18.5049 19.7717 22.3871 18.6612 27.5523C18.552 28.0609 18.4701 28.5792 18.4264 29.1083C18.3875 29.5789 18.7733 29.9624 19.2453 29.9624H22.368C22.84 29.9624 23.2169 29.5779 23.2804 29.1099C23.3539 28.5677 23.4951 28.0469 23.6887 27.5523C24.6551 25.0843 27.0454 23.3325 29.8581 23.3328C33.5236 23.3328 36.4934 26.3001 36.4936 29.9624C36.4936 33.6247 33.5236 36.592 29.8581 36.5923H6.01391C5.83146 35.925 5.66192 35.2309 5.47028 34.5659C5.33571 34.099 4.91616 33.7763 4.4893 33.7763H1.40067C0.978982 33.7763 0.602584 34.2674 0.683756 34.7327C1.07455 36.8146 1.54201 38.9914 2.38489 40.9437C2.51659 41.2487 2.83896 41.4127 3.14134 41.4127H29.8581C36.1892 41.4127 41.3179 36.2883 41.3179 29.9624C41.3179 23.6367 36.1892 18.5049 29.8581 18.5049Z" fill="url(#paint2_radial_2869_2638)"/>
<path d="M75.2836 32.1023C75.9177 32.2491 76.2023 32.9879 75.9012 33.564C75.3547 34.6095 75.0876 35.6017 75.0876 36.5771C75.0876 39.2022 77.408 40.2831 81.6467 40.314C84.4367 40.314 86.7821 40.0814 88.7353 39.7563C89.3307 39.6571 89.8749 40.1283 89.8417 40.7299L89.7311 42.7332C89.7075 43.1612 89.3918 43.5174 88.9679 43.5854C87.2029 43.8685 84.6663 44.1743 81.3991 44.1743C75.0567 44.1743 71.0965 41.7346 71.0965 37.2566C71.0965 35.5716 71.5668 33.9854 72.4188 32.1666C72.5996 31.7805 73.0295 31.5803 73.4455 31.6766L75.2836 32.1023Z" fill="#004BD0"/>
<path d="M134.217 18.4352C134.349 17.9226 134.884 17.6249 135.396 17.7628C138.246 18.5311 143.022 19.402 145.816 19.7745C146.371 19.8486 146.747 20.3849 146.615 20.9283L146.135 22.891C146.023 23.3501 145.583 23.6508 145.116 23.5776C142.101 23.1057 137.05 22.0714 134.395 21.4466C133.898 21.3298 133.603 20.8287 133.729 20.3355L134.217 18.4352ZM133.651 23.5626C134.197 23.6353 134.562 24.1663 134.455 24.706C134.217 25.9047 133.973 27.4753 133.779 28.8479C133.666 29.6469 134.587 30.2015 135.297 29.8159C137.593 28.5694 140.062 27.9917 142.627 27.9917C148.041 27.9917 151.197 31.3271 151.197 35.0639C151.197 40.6216 146.859 44.8951 134.504 43.9781C134.126 43.9501 133.8 43.6888 133.692 43.3261L133.075 41.2558C132.883 40.6127 133.425 39.9864 134.094 40.0566C142.477 40.9375 146.866 38.7169 146.866 34.9712C146.866 32.9638 144.978 31.5124 142.256 31.5124C138.76 31.5124 135.635 32.8094 133.686 35.1565C133.356 35.5406 133.102 35.8705 132.899 36.204C132.66 36.5952 132.21 36.8371 131.764 36.7296L129.819 36.2609C129.335 36.1444 129.031 35.6678 129.119 35.1793C129.645 32.2629 130.215 27.5907 130.441 24.1432C130.477 23.6046 130.959 23.2043 131.495 23.2757L133.651 23.5626Z" fill="#004BD0"/>
<path d="M81.6466 20.4562C81.5068 19.9979 81.3027 19.3723 81.0756 18.7123C80.8823 18.1502 81.2538 17.548 81.8451 17.4781L84.013 17.2216C84.493 17.1648 84.9346 17.4874 85.0384 17.9587C85.28 19.0552 85.5736 20.1518 85.892 21.1974C86.0236 21.6294 86.4549 21.8961 86.9012 21.8227C88.4657 21.5655 89.9968 21.2439 91.4473 20.8521C92.0019 20.7022 92.5689 21.0713 92.6374 21.6408L92.8766 23.6305C92.9306 24.0794 92.6509 24.5024 92.2121 24.6145C91.1268 24.8916 89.9119 25.1362 88.6668 25.3408C88.064 25.4398 87.708 26.0776 87.9727 26.6271C88.7447 28.2297 89.5869 29.6664 90.2476 30.5858C90.6286 31.1451 91.0259 31.6396 91.4276 32.1162C91.6968 32.4356 91.7229 32.8944 91.4865 33.2387L90.3436 34.9032C90.1351 35.2068 89.7668 35.3569 89.4029 35.2975C87.7203 35.0232 84.9083 34.7264 82.669 34.5264C82.157 34.4807 81.7788 34.0291 81.8271 33.5183L81.9614 32.0974C82.0096 31.5878 82.4644 31.2148 82.975 31.2617C83.5547 31.3148 84.1605 31.3665 84.7241 31.4141C85.4828 31.4781 86.0071 30.6429 85.64 29.9771C85.0669 28.9378 84.4766 27.7708 83.94 26.5638C83.7782 26.1998 83.4055 25.9745 83.0076 26.003C79.6941 26.2402 75.8773 26.242 71.282 25.8959C70.8084 25.8602 70.441 25.4687 70.4336 24.9947L70.4015 22.9609C70.3927 22.4033 70.8781 21.9661 71.4337 22.0244C75.0929 22.4088 78.3008 22.5043 81.0826 22.4031C81.6938 22.3808 82.1033 21.7721 81.9055 21.1944C81.8148 20.9294 81.7292 20.6829 81.6466 20.4562Z" fill="#004BD0"/>
<path fill-rule="evenodd" clip-rule="evenodd" d="M108.086 18.0902C108.636 18.1496 109.012 18.676 108.902 19.2174C108.836 19.5392 108.772 19.8644 108.711 20.174C108.671 20.3799 108.632 20.5788 108.594 20.7651C108.427 21.5178 108.241 22.4245 108.052 23.3478C107.993 23.6361 108.226 23.9008 108.52 23.8809C109.324 23.8264 110.026 23.7916 110.544 23.7916C113.823 23.7916 116.143 25.2431 116.143 29.7211C116.143 33.3653 115.679 38.3683 114.38 41.0243C113.359 43.1861 111.626 43.8655 109.306 43.8655C108.316 43.8655 107.159 43.7407 106.195 43.5594C105.829 43.4907 105.553 43.1945 105.492 42.8278L105.152 40.7898C105.041 40.1232 105.665 39.5585 106.329 39.6919C107.243 39.8755 108.166 40.0051 108.687 40.0051C109.739 40.0051 110.544 39.6963 111.008 38.6772C111.874 36.9477 112.276 33.18 112.276 30.1535C112.276 27.6829 111.224 27.3123 109.275 27.3123C108.903 27.3123 108.385 27.3405 107.782 27.3871C107.392 27.4173 107.067 27.6929 106.967 28.0707C105.793 32.5217 103.763 38.9748 101.225 43.3599C101.001 43.7462 100.526 43.9001 100.111 43.7355L97.8942 42.8572C97.3299 42.6335 97.131 41.9359 97.4647 41.4295C99.8374 37.8299 101.584 32.9789 102.677 29.1903C102.858 28.5639 102.336 27.9648 101.688 28.0453C101.161 28.1107 100.714 28.1674 100.396 28.2079C100.277 28.2242 100.146 28.2421 100.006 28.2613L100.004 28.2616C99.4026 28.344 98.6326 28.4494 97.9465 28.55C97.4144 28.628 96.9207 28.2455 96.8731 27.7107L96.6846 25.594C96.6348 25.0344 97.0939 24.5609 97.6568 24.5668C98.3659 24.5743 99.07 24.5553 99.8117 24.5352L99.9006 24.5328C100.71 24.5126 101.885 24.4263 103.179 24.3192C103.592 24.285 103.932 23.979 104.003 23.571C104.298 21.8762 104.484 20.2559 104.531 18.7482C104.549 18.1952 105.027 17.7601 105.578 17.8196L108.086 18.0902ZM118.277 20.6742C118.557 21.2022 118.36 21.8986 117.809 22.1322L117.208 22.3871C116.644 22.6267 116.462 23.3412 116.804 23.8496C118.547 26.4395 120.178 30.3893 121.025 33.3814C121.184 33.9439 121.809 34.246 122.34 33.9997L124.496 32.9996C124.92 32.803 125.132 32.3226 124.973 31.8836C123.814 28.6749 122.404 25.3026 120.538 22.408C120.363 22.1375 120.471 21.7728 120.768 21.647C121.261 21.4376 121.473 20.8539 121.219 20.3821C120.75 19.508 120.162 18.4653 119.641 17.6407C119.412 17.2775 118.954 17.1413 118.555 17.3008L117.838 17.587C117.287 17.8069 117.081 18.4829 117.388 18.9896C117.709 19.5192 117.978 20.1106 118.277 20.6742ZM122.194 15.8969C122.598 15.7285 123.066 15.8658 123.302 16.2339C123.842 17.0765 124.452 18.1132 124.924 18.9651C125.184 19.4337 124.974 20.0171 124.48 20.2266L123.734 20.5431C123.278 20.7363 122.752 20.5366 122.524 20.0982C122.101 19.2841 121.586 18.3806 121.084 17.5865C120.768 17.0866 120.964 16.4101 121.51 16.1823L122.194 15.8969Z" fill="#004BD0"/>
<defs>
<radialGradient id="paint0_radial_2869_2638" cx="0" cy="0" r="1" gradientUnits="userSpaceOnUse" gradientTransform="translate(51.02 9.14258) rotate(135.071) scale(59.0699 60.5306)">
<stop offset="0.0665658" stop-color="#FCE300"/>
<stop offset="0.290127" stop-color="#2FFF86"/>
<stop offset="0.640574" stop-color="#0096E1"/>
<stop offset="0.83191" stop-color="#0057F2"/>
<stop offset="1" stop-color="#004BD0"/>
</radialGradient>
<radialGradient id="paint1_radial_2869_2638" cx="0" cy="0" r="1" gradientUnits="userSpaceOnUse" gradientTransform="translate(51.02 9.14258) rotate(135.071) scale(59.0699 60.5306)">
<stop offset="0.0665658" stop-color="#FCE300"/>
<stop offset="0.290127" stop-color="#2FFF86"/>
<stop offset="0.640574" stop-color="#0096E1"/>
<stop offset="0.83191" stop-color="#0057F2"/>
<stop offset="1" stop-color="#004BD0"/>
</radialGradient>
<radialGradient id="paint2_radial_2869_2638" cx="0" cy="0" r="1" gradientUnits="userSpaceOnUse" gradientTransform="translate(51.02 9.14258) rotate(135.071) scale(59.0699 60.5306)">
<stop offset="0.0665658" stop-color="#FCE300"/>
<stop offset="0.290127" stop-color="#2FFF86"/>
<stop offset="0.640574" stop-color="#0096E1"/>
<stop offset="0.83191" stop-color="#0057F2"/>
<stop offset="1" stop-color="#004BD0"/>
</radialGradient>
</defs>
</svg>
