<svg width="33" height="16" viewBox="0 0 33 16" fill="none" xmlns="http://www.w3.org/2000/svg">
<path fill-rule="evenodd" clip-rule="evenodd" d="M0.293945 11.5C0.293945 10.9477 0.74166 10.5 1.29394 10.5H27.2939C27.8462 10.5 28.2939 10.9477 28.2939 11.5C28.2939 12.0523 27.8462 12.5 27.2939 12.5H1.29395C0.741661 12.5 0.293945 12.0523 0.293945 11.5Z" fill="black"/>
<path fill-rule="evenodd" clip-rule="evenodd" d="M27.2939 4.5C25.6371 4.5 24.2939 5.84315 24.2939 7.5C24.2939 8.05228 23.8462 8.5 23.2939 8.5C22.7417 8.5 22.2939 8.05228 22.2939 7.5C22.2939 4.73858 24.5325 2.5 27.2939 2.5C30.0554 2.5 32.2939 4.73858 32.2939 7.5C32.2939 10.2614 30.0554 12.5 27.2939 12.5C26.7417 12.5 26.2939 12.0523 26.2939 11.5C26.2939 10.9477 26.7417 10.5 27.2939 10.5C28.9508 10.5 30.2939 9.15685 30.2939 7.5C30.2939 5.84315 28.9508 4.5 27.2939 4.5Z" fill="black"/>
</svg>
