<svg width="204" height="128" viewBox="0 0 204 128" fill="none" xmlns="http://www.w3.org/2000/svg"><path d="M107.085 84.6567C105.561 84.576 104.044 84.3233 102.576 83.9087C99.3287 82.9922 96.2874 81.286 93.719 78.9657C93.2023 78.4988 92.7667 78.0352 92.1122 77.2976C92.0379 77.2141 91.6928 76.8402 91.6202 76.7619C91.5942 76.7341 91.3516 76.4645 91.3189 76.4285C91.1587 76.2513 91.0234 76.0848 90.8771 75.8928C90.3258 75.1686 89.8496 74.3527 89.3609 73.3553C88.0045 70.5887 87.3383 67.4858 87.3023 64.1265C87.2501 60.8176 89.872 58.0836 93.1666 58.031C96.4619 57.9785 99.1798 60.6178 99.232 63.9342C99.2696 65.6215 99.677 67.2944 100.447 69.0189C100.476 69.0842 100.721 69.6017 100.778 69.7365C100.839 69.8789 100.88 69.9736 100.949 70.1812C100.95 70.1845 101.017 70.3872 101.029 70.414C101.084 70.526 101.158 70.6455 101.331 70.8992C101.381 70.9726 101.517 71.1698 101.552 71.2227C101.996 71.9008 102.516 72.5192 103.098 73.0523C104.056 73.9286 105.198 74.6201 106.452 75.0942C107.532 75.5023 108.685 75.737 109.866 75.7916C114.435 76.0022 118.767 73.4774 121.003 69.3425C121.392 68.6232 121.975 67.2461 122.68 65.39C122.805 65.06 122.929 64.7168 123.062 64.359C123.541 63.0645 123.897 62.0671 124.618 60.0223C126.513 54.6477 131.308 51.1249 136.678 51.4706C139.297 51.6391 141.847 52.6479 144.059 54.3111C144.031 54.2902 144.261 54.4573 144.36 54.5334C144.535 54.6672 144.704 54.8047 144.883 54.9578C145.364 55.3721 145.823 55.84 146.258 56.3731C146.48 56.6438 146.694 56.9259 146.891 57.2223C148.136 59.0937 148.701 61.3857 148.719 63.9545C148.771 67.2569 146.149 69.9873 142.854 70.0399C139.559 70.0924 136.841 67.4531 136.789 64.1363C136.762 63.2911 136.457 61.9463 136.016 61.306C135.175 60.0869 133.036 59.9243 131.517 60.9626C130.882 61.4076 129.929 63.2653 128.946 66.0166C128.459 67.381 127.249 71.2358 127.149 71.5156C126.44 73.4928 125.413 75.3508 124.116 77.0048C122.946 78.4962 121.552 79.823 119.999 80.937C116.291 83.5962 111.707 84.9018 107.085 84.6567Z" fill="#014CD0"/><path d="M67.4092 76.5294C64.7905 76.361 62.2507 75.3521 60.0384 73.689C60.0663 73.7099 59.8366 73.5427 59.7371 73.4667C59.5619 73.3328 59.3835 73.1953 59.2048 73.0422C58.7232 72.6279 58.2649 72.1601 57.8293 71.6269C57.6081 71.3562 57.3937 71.0742 57.1966 70.7777C55.9518 68.9063 55.3864 66.6144 55.3689 64.0456C55.317 60.7431 57.9487 58.0127 61.2436 57.9602C64.5385 57.9076 67.2467 60.557 67.2986 63.8735C67.3255 64.7191 67.6408 66.0538 68.0819 66.694C68.9222 67.9131 71.0518 68.0757 72.5707 67.0375C73.2057 66.5925 74.1583 64.7348 75.1414 61.9835C75.6292 60.6191 76.8487 56.7643 76.9489 56.4845C77.6572 54.5073 78.6844 52.6492 79.9817 50.9952C81.1519 49.5039 82.5356 48.1773 84.0888 47.063C87.7969 44.4038 92.3908 43.0982 97.0129 43.3434C98.5363 43.424 100.043 43.6767 101.511 44.0914C104.759 45.0078 107.8 46.714 110.369 49.0344C110.885 49.5012 111.321 49.9649 111.975 50.7024C112.05 50.7863 112.394 51.1699 112.467 51.2479C112.493 51.276 112.736 51.5356 112.768 51.5715C112.929 51.7488 113.064 51.9153 113.211 52.1073C113.762 52.8314 114.248 53.6473 114.737 54.6447C116.093 57.4114 116.749 60.5143 116.785 63.8735C116.837 67.1824 114.216 69.9164 110.921 69.969C107.626 70.0216 104.908 67.3823 104.856 64.0658C104.818 62.3785 104.411 60.7056 103.64 58.9811C103.611 58.9158 103.367 58.3983 103.309 58.2635C103.248 58.1211 103.218 58.0265 103.148 57.8188C103.147 57.8155 103.081 57.6229 103.068 57.5961C103.013 57.4842 102.929 57.3545 102.757 57.1009C102.707 57.0274 102.58 56.8302 102.546 56.7773C102.102 56.0992 101.582 55.491 100.999 54.9578C100.042 54.0815 98.8898 53.3799 97.6353 52.9058C96.5553 52.4977 95.4026 52.263 94.221 52.2085C89.6531 51.9979 85.3203 54.5327 83.0847 58.6677C82.6958 59.3869 82.123 60.7539 81.4176 62.61C81.2924 62.9401 81.1588 63.2832 81.0261 63.641C80.5464 64.9356 80.1906 65.933 79.4696 67.9778C77.5742 73.3524 72.7799 76.8752 67.4092 76.5294Z" fill="#014CD0"/></svg>