<svg width="129" height="129" viewBox="0 0 129 129" fill="none" xmlns="http://www.w3.org/2000/svg"><g clip-path="url(#clip0_2839_5584)"><path d="M40.3756 111.835C38.6966 112.131 37.526 112.337 36.6017 112.423C35.6948 112.507 35.1572 112.462 34.7332 112.332C33.8245 112.054 33.027 111.496 32.4551 110.737C32.1882 110.383 31.9615 109.893 31.7308 109.012C31.4957 108.114 31.2882 106.944 30.9921 105.265L19.5709 40.492C19.2749 38.813 19.0697 37.6424 18.9834 36.7181C18.8988 35.8112 18.9444 35.2736 19.0741 34.8496C19.3519 33.9409 19.9103 33.1434 20.6693 32.5715C21.0234 32.3046 21.513 32.0779 22.394 31.8472C23.2921 31.6121 24.4623 31.4046 26.1413 31.1085L62.0604 24.775C63.7394 24.479 64.91 24.2738 65.8344 24.1875C66.7412 24.103 67.2788 24.1485 67.7028 24.2782C68.6116 24.556 69.4091 25.1144 69.981 25.8734C70.2478 26.2275 70.4745 26.7171 70.7052 27.5981C70.9403 28.4962 71.1479 29.6664 71.4439 31.3454L82.8651 96.1183C83.1612 97.7973 83.3664 98.9679 83.4526 99.8922C83.5372 100.799 83.4916 101.337 83.362 101.761C83.0841 102.669 82.5257 103.467 81.7668 104.039C81.4127 104.306 80.9231 104.532 80.042 104.763C79.1439 104.998 77.9737 105.206 76.2947 105.502L40.3756 111.835Z" fill="#F9FAFC" stroke="#0057F2" stroke-width="3" stroke-linejoin="round"/><g clip-path="url(#clip1_2839_5584)"><path d="M46.401 66.168C46.9588 68.8357 49.4282 70.6123 52.0802 70.3747C52.2142 70.3627 52.3482 70.3467 52.4826 70.3251C52.6037 70.3056 52.6806 70.1877 52.6556 70.0679L52.4903 69.2773C52.4652 69.1575 52.3476 69.0813 52.2262 69.0987C52.0908 69.1181 51.9559 69.1299 51.8214 69.137C49.8506 69.241 48.0426 67.9018 47.6265 65.9118C47.1668 63.7131 48.5793 61.5584 50.7801 61.0983C52.981 60.6381 55.1366 62.0467 55.5963 64.2454L56.8451 70.218C56.8807 70.3884 57.0894 70.452 57.209 70.3252C57.4599 70.0594 57.6917 69.7766 57.9015 69.4787C57.9363 69.4293 57.9484 69.3677 57.9361 69.3086L56.8237 63.9887C56.2226 61.1135 53.4018 59.2702 50.5237 59.8721C47.6457 60.4738 45.7998 63.2928 46.401 66.168Z" fill="#2B2727"/><path d="M44.1217 66.6446C44.609 68.9755 46.1072 70.8362 48.064 71.8634C49.4278 72.5793 51.0209 72.8696 52.5501 72.6789C52.554 72.6785 52.5579 72.679 52.5619 72.6785C52.6954 72.6617 52.829 72.6438 52.9627 72.6216C53.0837 72.6015 53.1607 72.4838 53.1357 72.364L52.9704 71.5734C52.9453 71.4536 52.8278 71.3773 52.7069 71.398C52.5731 71.421 52.4396 71.4394 52.3059 71.4541C49.0591 71.8112 46.0098 69.6526 45.3281 66.3924C44.6032 62.9252 46.8291 59.5259 50.2996 58.8002C53.7702 58.0746 57.1716 60.2972 57.8965 63.7644L58.6097 67.1752C58.6547 67.3902 58.9386 67.4104 58.9995 67.1992C59.3013 66.1533 59.3806 65.0293 59.2022 63.8914L59.1221 63.5081C58.3098 59.6234 54.6868 57.0479 50.8194 57.4555C50.568 57.482 50.3155 57.5197 50.0627 57.5719C49.8035 57.6261 49.5489 57.6944 49.3018 57.7728C45.5951 58.9489 43.3094 62.7599 44.1217 66.6446Z" fill="#2B2727"/><path d="M48.6993 65.6875C48.9913 67.0836 50.2216 68.0409 51.5937 68.0481C51.7288 68.0488 51.8649 68.042 52.0018 68.025C52.1235 68.0098 52.2005 67.8915 52.1755 67.7717L52.0098 66.9792C51.9847 66.8595 51.867 66.7843 51.7446 66.793C51.6029 66.8032 51.463 66.795 51.327 66.7722C50.6482 66.6581 50.076 66.1447 49.9268 65.4308C49.7323 64.5006 50.3291 63.5892 51.2602 63.3944C52.1914 63.1997 53.1034 63.7957 53.2979 64.7259L54.5632 70.7772C54.4032 70.859 54.2358 70.9389 54.0769 71.0229C53.9653 71.0819 53.9055 71.2055 53.9282 71.3138L54.0921 72.0977C54.1145 72.2047 54.2593 72.2741 54.3733 72.2288C54.8818 72.0189 55.4105 71.7846 55.8621 71.4669C55.9327 71.4172 55.9573 71.3267 55.9412 71.25L54.5235 64.4697C54.1875 62.863 52.6126 61.8338 51.0042 62.1701C49.396 62.5064 48.3634 64.0808 48.6993 65.6875Z" fill="#2B2727"/></g><path d="M113.794 45.7471V106.247H102.794V58.7471C102.794 57.9186 102.122 57.2471 101.294 57.2471H38.2939C37.4655 57.2471 36.7939 57.9186 36.7939 58.7471V106.247H26.7939V45.2471C26.7939 44.759 26.7948 44.5874 26.8036 44.4528C26.9513 42.1994 28.7462 40.4044 30.9996 40.2567C31.1343 40.2479 31.3059 40.2471 31.7939 40.2471C32.282 40.2471 32.4536 40.2479 32.5883 40.2567C34.8417 40.4044 36.6366 42.1994 36.7843 44.4528C36.7931 44.5874 36.7939 44.759 36.7939 45.2471V46.7471C36.7939 47.5755 37.4655 48.2471 38.2939 48.2471H101.294C102.122 48.2471 102.794 47.5755 102.794 46.7471V45.7471C102.794 44.7706 102.797 44.4276 102.832 44.1597C103.098 42.1404 104.687 40.5514 106.707 40.2856C106.974 40.2503 107.317 40.2471 108.294 40.2471C109.27 40.2471 109.613 40.2503 109.881 40.2856C111.901 40.5514 113.49 42.1404 113.755 44.1597C113.791 44.4276 113.794 44.7706 113.794 45.7471Z" fill="#F9FAFC" stroke="#0057F2" stroke-width="3" stroke-linejoin="round"/><rect x="75.7699" y="111.71" width="68.7608" height="31.7931" rx="4.5" transform="rotate(-80 75.7699 111.71)" fill="#F9FAFC" stroke="#0057F2" stroke-width="3"/><path d="M83.5593 107.983C82.4715 107.791 81.7452 106.753 81.937 105.666L82.1864 104.251C82.3782 103.163 83.4155 102.437 84.5033 102.629L85.9179 102.878C87.0057 103.07 87.732 104.107 87.5402 105.195L87.2908 106.61C87.099 107.697 86.0617 108.424 84.9739 108.232L83.5593 107.983Z" stroke="#0057F2"/><path d="M84.8811 100.487C83.7933 100.295 83.0669 99.2579 83.2587 98.1701L83.5082 96.7555C83.7 95.6677 84.7373 94.9414 85.8251 95.1332L87.2397 95.3826C88.3275 95.5744 89.0538 96.6118 88.862 97.6995L88.6126 99.1141C88.4208 100.202 87.3834 100.928 86.2957 100.736L84.8811 100.487Z" stroke="#0057F2"/><path d="M86.2026 92.9917C85.1148 92.7999 84.3885 91.7626 84.5803 90.6748L84.8297 89.2602C85.0215 88.1724 86.0588 87.4461 87.1466 87.6379L88.5612 87.8873C89.649 88.0792 90.3753 89.1165 90.1835 90.2043L89.9341 91.6189C89.7423 92.7066 88.705 93.433 87.6172 93.2412L86.2026 92.9917Z" stroke="#0057F2"/><path d="M87.5243 85.4963C86.4365 85.3045 85.7101 84.2672 85.9019 83.1794L86.1514 81.7648C86.3432 80.677 87.3805 79.9507 88.4683 80.1425L89.8829 80.3919C90.9707 80.5837 91.697 81.6211 91.5052 82.7088L91.2558 84.1234C91.064 85.2112 90.0266 85.9376 88.9389 85.7458L87.5243 85.4963Z" stroke="#0057F2"/><path d="M88.846 78.001C87.7583 77.8092 87.0319 76.7719 87.2237 75.6841L87.4732 74.2695C87.665 73.1817 88.7023 72.4554 89.7901 72.6472L91.2047 72.8966C92.2925 73.0884 93.0188 74.1258 92.827 75.2135L92.5776 76.6281C92.3858 77.7159 91.3484 78.4423 90.2606 78.2505L88.846 78.001Z" stroke="#0057F2"/><path d="M90.1676 70.5055C89.0798 70.3137 88.3534 69.2764 88.5452 68.1886L88.7947 66.774C88.9865 65.6862 90.0238 64.9599 91.1116 65.1517L92.5262 65.4011C93.614 65.5929 94.3403 66.6302 94.1485 67.718L93.8991 69.1326C93.7073 70.2204 92.67 70.9467 91.5822 70.7549L90.1676 70.5055Z" stroke="#0057F2"/><path d="M91.4891 63.0105C90.4013 62.8187 89.675 61.7813 89.8668 60.6936L90.1162 59.279C90.3081 58.1912 91.3454 57.4648 92.4332 57.6566L93.8478 57.9061C94.9355 58.0979 95.6619 59.1352 95.4701 60.223L95.2206 61.6376C95.0288 62.7254 93.9915 63.4517 92.9037 63.2599L91.4891 63.0105Z" stroke="#0057F2"/><path d="M92.8109 55.5149C91.7231 55.3231 90.9968 54.2858 91.1886 53.198L91.438 51.7834C91.6298 50.6956 92.6671 49.9693 93.7549 50.1611L95.1695 50.4105C96.2573 50.6023 96.9837 51.6396 96.7918 52.7274L96.5424 54.142C96.3506 55.2298 95.3133 55.9562 94.2255 55.7644L92.8109 55.5149Z" stroke="#0057F2"/><path d="M91.0548 109.304C89.967 109.112 89.2407 108.075 89.4325 106.987L89.6819 105.572C89.8737 104.485 90.911 103.758 91.9988 103.95L93.4134 104.199C94.5012 104.391 95.2275 105.429 95.0357 106.516L94.7863 107.931C94.5945 109.019 93.5572 109.745 92.4694 109.553L91.0548 109.304Z" stroke="#0057F2"/><path d="M92.3764 101.809C91.2886 101.617 90.5622 100.58 90.754 99.4919L91.0035 98.0773C91.1953 96.9895 92.2326 96.2632 93.3204 96.455L94.735 96.7044C95.8228 96.8962 96.5491 97.9335 96.3573 99.0213L96.1079 100.436C95.9161 101.524 94.8787 102.25 93.791 102.058L92.3764 101.809Z" stroke="#0057F2"/><path d="M93.698 94.3134C92.6102 94.1216 91.8839 93.0843 92.0757 91.9965L92.3251 90.5819C92.5169 89.4941 93.5543 88.7678 94.642 88.9596L96.0566 89.209C97.1444 89.4008 97.8708 90.4381 97.679 91.5259L97.4295 92.9405C97.2377 94.0283 96.2004 94.7546 95.1126 94.5628L93.698 94.3134Z" stroke="#0057F2"/><path d="M95.0197 86.818C93.9319 86.6262 93.2055 85.5889 93.3974 84.5011L93.6468 83.0865C93.8386 81.9987 94.8759 81.2724 95.9637 81.4642L97.3783 81.7136C98.4661 81.9054 99.1924 82.9427 99.0006 84.0305L98.7512 85.4451C98.5594 86.5329 97.5221 87.2592 96.4343 87.0674L95.0197 86.818Z" stroke="#0057F2"/><path d="M96.3413 79.3227C95.2536 79.1309 94.5272 78.0936 94.719 77.0058L94.9685 75.5912C95.1603 74.5034 96.1976 73.7771 97.2854 73.9689L98.7 74.2183C99.7877 74.4101 100.514 75.4474 100.322 76.5352L100.073 77.9498C99.881 79.0376 98.8437 79.7639 97.7559 79.5721L96.3413 79.3227Z" stroke="#0057F2"/><path d="M97.6629 71.8273C96.5751 71.6355 95.8487 70.5982 96.0406 69.5104L96.29 68.0958C96.4818 67.008 97.5191 66.2817 98.6069 66.4735L100.021 66.7229C101.109 66.9147 101.836 67.952 101.644 69.0398L101.394 70.4544C101.203 71.5422 100.165 72.2685 99.0775 72.0767L97.6629 71.8273Z" stroke="#0057F2"/><path d="M98.9846 64.3317C97.8969 64.1399 97.1705 63.1026 97.3623 62.0148L97.6118 60.6002C97.8036 59.5124 98.8409 58.7861 99.9287 58.9779L101.343 59.2273C102.431 59.4192 103.157 60.4565 102.966 61.5443L102.716 62.9589C102.524 64.0466 101.487 64.773 100.399 64.5812L98.9846 64.3317Z" stroke="#0057F2"/><path d="M100.306 56.8366C99.2183 56.6448 98.4919 55.6075 98.6838 54.5197L98.9332 53.1051C99.125 52.0173 100.162 51.291 101.25 51.4828L102.665 51.7322C103.752 51.924 104.479 52.9613 104.287 54.0491L104.038 55.4637C103.846 56.5515 102.808 57.2778 101.721 57.086L100.306 56.8366Z" stroke="#0057F2"/><path d="M98.5501 110.626C97.4623 110.434 96.736 109.397 96.9278 108.309L97.1772 106.894C97.369 105.806 98.4063 105.08 99.4941 105.272L100.909 105.521C101.997 105.713 102.723 106.75 102.531 107.838L102.282 109.253C102.09 110.341 101.052 111.067 99.9647 110.875L98.5501 110.626Z" stroke="#0057F2"/><path d="M99.8717 103.13C98.784 102.938 98.0576 101.901 98.2494 100.813L105.107 61.9219C105.299 60.8341 106.336 60.1078 107.424 60.2996L108.839 60.549C109.926 60.7408 110.653 61.7781 110.461 62.8659L103.603 101.757C103.411 102.845 102.374 103.571 101.286 103.38L99.8717 103.13Z" stroke="#0057F2"/><path d="M107.801 58.1581C106.714 57.9663 105.987 56.929 106.179 55.8412L106.428 54.4266C106.62 53.3388 107.658 52.6125 108.745 52.8043L110.16 53.0537C111.248 53.2455 111.974 54.2829 111.782 55.3707L111.533 56.7853C111.341 57.873 110.304 58.5994 109.216 58.4076L107.801 58.1581Z" stroke="#0057F2"/><path d="M59.7939 79.7351C59.7939 77.4701 59.7951 75.8616 59.898 74.6028C59.9994 73.3616 60.1921 72.5931 60.5024 71.9841C61.1256 70.7611 62.12 69.7667 63.343 69.1435C63.952 68.8332 64.7205 68.6405 65.9617 68.5391C67.2205 68.4362 68.829 68.4351 71.0939 68.4351H76.3997C78.6647 68.4351 80.2732 68.4362 81.5319 68.5391C82.7732 68.6405 83.5417 68.8332 84.1506 69.1435C85.3737 69.7667 86.3681 70.7611 86.9912 71.9841C87.3015 72.5931 87.4943 73.3616 87.5957 74.6028C87.6985 75.8616 87.6997 77.4701 87.6997 79.7351V105.022C87.6997 107.287 87.6985 108.896 87.5957 110.154C87.4943 111.396 87.3015 112.164 86.9912 112.773C86.3681 113.996 85.3737 114.99 84.1506 115.614C83.5417 115.924 82.7732 116.117 81.5319 116.218C80.2732 116.321 78.6646 116.322 76.3997 116.322H71.0939C68.829 116.322 67.2205 116.321 65.9617 116.218C64.7205 116.117 63.952 115.924 63.343 115.614C62.12 114.99 61.1256 113.996 60.5024 112.773C60.1921 112.164 59.9994 111.396 59.898 110.154C59.7951 108.896 59.7939 107.287 59.7939 105.022L59.7939 79.7351Z" fill="#F9FAFC" stroke="#0057F2" stroke-width="3" stroke-linejoin="round"/><path d="M70.2939 73.625L77.0546 73.625" stroke="#0057F2" stroke-width="3" stroke-linecap="round"/><path d="M68.2939 112.438L78.9178 112.438" stroke="#0057F2" stroke-linecap="round"/><path d="M26.7939 87.1471C26.7939 86.0022 26.7951 85.2338 26.8435 84.642C26.8904 84.0678 26.9741 83.7932 27.0664 83.6121C27.3061 83.1417 27.6886 82.7592 28.159 82.5196C28.3401 82.4273 28.6147 82.3435 29.1889 82.2966C29.7807 82.2482 30.5491 82.2471 31.6939 82.2471H108.894C110.039 82.2471 110.807 82.2482 111.399 82.2966C111.973 82.3435 112.248 82.4273 112.429 82.5196C112.899 82.7592 113.282 83.1417 113.521 83.6121C113.614 83.7932 113.698 84.0678 113.744 84.642C113.793 85.2338 113.794 86.0022 113.794 87.1471V105.947C113.794 108.212 113.793 109.821 113.69 111.079C113.589 112.321 113.396 113.089 113.085 113.698C112.462 114.921 111.468 115.915 110.245 116.539C109.636 116.849 108.867 117.042 107.626 117.143C106.367 117.246 104.759 117.247 102.494 117.247H38.094C35.829 117.247 34.2205 117.246 32.9617 117.143C31.7205 117.042 30.952 116.849 30.343 116.539C29.12 115.915 28.1256 114.921 27.5024 113.698C27.1921 113.089 26.9994 112.321 26.898 111.079C26.7951 109.821 26.7939 108.212 26.7939 105.947V87.1471Z" fill="#F9FAFC" stroke="#0057F2" stroke-width="3" stroke-linejoin="round"/><path d="M25.2939 100.247H115.294" stroke="#0057F2"/><path d="M34.3756 107.835C32.6966 108.131 31.526 108.337 30.6017 108.423C29.6948 108.507 29.1572 108.462 28.7332 108.332C27.8245 108.054 27.027 107.496 26.4551 106.737C26.1882 106.383 25.9615 105.893 25.7308 105.012C25.4957 104.114 25.2882 102.944 24.9921 101.265L13.5709 36.492C13.2749 34.813 13.0697 33.6424 12.9834 32.7181C12.8988 31.8112 12.9444 31.2736 13.0741 30.8496C13.3519 29.9409 13.9103 29.1434 14.6693 28.5715C15.0234 28.3046 15.513 28.0779 16.394 27.8472C17.2921 27.6121 18.4623 27.4046 20.1413 27.1085L56.0604 20.775C57.7394 20.479 58.91 20.2738 59.8344 20.1875C60.7412 20.103 61.2788 20.1485 61.7028 20.2782C62.6116 20.556 63.4091 21.1144 63.981 21.8734C64.2478 22.2275 64.4745 22.7171 64.7052 23.5981C64.9403 24.4962 65.1479 25.6664 65.4439 27.3454L76.8651 92.1183C77.1612 93.7973 77.3664 94.9679 77.4526 95.8922C77.5372 96.7991 77.4916 97.3367 77.362 97.7607C77.0841 98.6695 76.5257 99.4669 75.7668 100.039C75.4127 100.306 74.9231 100.532 74.042 100.763C73.1439 100.998 71.9737 101.206 70.2947 101.502L34.3756 107.835Z" fill="#F9FAFC" stroke="#2B2727" stroke-width="3" stroke-linejoin="round"/><g clip-path="url(#clip2_2839_5584)"><path d="M40.401 62.168C40.9588 64.8357 43.4282 66.6123 46.0802 66.3747C46.2142 66.3627 46.3482 66.3467 46.4826 66.3251C46.6037 66.3056 46.6806 66.1877 46.6556 66.0679L46.4903 65.2773C46.4652 65.1575 46.3476 65.0813 46.2262 65.0987C46.0908 65.1181 45.9559 65.1299 45.8214 65.137C43.8506 65.241 42.0426 63.9018 41.6265 61.9118C41.1668 59.7131 42.5793 57.5584 44.7801 57.0983C46.981 56.6381 49.1366 58.0467 49.5963 60.2454L50.8451 66.218C50.8807 66.3884 51.0894 66.452 51.209 66.3252C51.4599 66.0594 51.6917 65.7766 51.9015 65.4787C51.9363 65.4293 51.9484 65.3677 51.9361 65.3086L50.8237 59.9887C50.2226 57.1135 47.4018 55.2702 44.5237 55.8721C41.6457 56.4738 39.7998 59.2928 40.401 62.168Z" fill="#2B2727"/><path d="M38.1217 62.6446C38.609 64.9755 40.1072 66.8362 42.064 67.8634C43.4278 68.5793 45.0209 68.8696 46.5501 68.6789C46.554 68.6785 46.5579 68.679 46.5619 68.6785C46.6954 68.6617 46.829 68.6438 46.9627 68.6216C47.0837 68.6015 47.1607 68.4838 47.1357 68.364L46.9704 67.5734C46.9453 67.4536 46.8278 67.3773 46.7069 67.398C46.5731 67.421 46.4396 67.4394 46.3059 67.4541C43.0591 67.8112 40.0098 65.6526 39.3281 62.3924C38.6032 58.9252 40.8291 55.5259 44.2996 54.8002C47.7702 54.0746 51.1716 56.2972 51.8965 59.7644L52.6097 63.1752C52.6547 63.3902 52.9386 63.4104 52.9995 63.1992C53.3013 62.1533 53.3806 61.0293 53.2022 59.8914L53.1221 59.5081C52.3098 55.6234 48.6868 53.0479 44.8194 53.4555C44.568 53.482 44.3155 53.5197 44.0627 53.5719C43.8035 53.6261 43.5489 53.6944 43.3018 53.7728C39.5951 54.9489 37.3094 58.7599 38.1217 62.6446Z" fill="#2B2727"/><path d="M42.6993 61.6875C42.9913 63.0836 44.2216 64.0409 45.5937 64.0481C45.7288 64.0488 45.8649 64.042 46.0018 64.025C46.1235 64.0098 46.2005 63.8915 46.1755 63.7717L46.0098 62.9792C45.9847 62.8595 45.867 62.7843 45.7446 62.793C45.6029 62.8032 45.463 62.795 45.327 62.7722C44.6482 62.6581 44.076 62.1447 43.9268 61.4308C43.7323 60.5006 44.3291 59.5892 45.2602 59.3944C46.1914 59.1997 47.1034 59.7957 47.2979 60.7259L48.5632 66.7772C48.4032 66.859 48.2358 66.9389 48.0769 67.0229C47.9653 67.0819 47.9055 67.2055 47.9282 67.3138L48.0921 68.0977C48.1145 68.2047 48.2593 68.2741 48.3733 68.2288C48.8818 68.0189 49.4105 67.7846 49.8621 67.4669C49.9327 67.4172 49.9573 67.3267 49.9412 67.25L48.5235 60.4697C48.1875 58.863 46.6126 57.8338 45.0042 58.1701C43.396 58.5064 42.3634 60.0808 42.6993 61.6875Z" fill="#2B2727"/></g><path d="M107.794 41.7471V102.247H96.7939V54.7471C96.7939 53.9186 96.1224 53.2471 95.2939 53.2471H32.2939C31.4655 53.2471 30.7939 53.9186 30.7939 54.7471V102.247H20.7939V41.2471C20.7939 40.759 20.7948 40.5874 20.8036 40.4528C20.9513 38.1994 22.7462 36.4044 24.9996 36.2567C25.1343 36.2479 25.3059 36.2471 25.7939 36.2471C26.282 36.2471 26.4536 36.2479 26.5883 36.2567C28.8417 36.4044 30.6366 38.1994 30.7843 40.4528C30.7931 40.5874 30.7939 40.759 30.7939 41.2471V42.7471C30.7939 43.5755 31.4655 44.2471 32.2939 44.2471H95.2939C96.1224 44.2471 96.7939 43.5755 96.7939 42.7471V41.7471C96.7939 40.7706 96.7972 40.4276 96.8324 40.1597C97.0983 38.1404 98.6873 36.5514 100.707 36.2856C100.974 36.2503 101.317 36.2471 102.294 36.2471C103.27 36.2471 103.613 36.2503 103.881 36.2856C105.901 36.5514 107.49 38.1404 107.755 40.1597C107.791 40.4276 107.794 40.7706 107.794 41.7471Z" fill="#F9FAFC" stroke="#2B2727" stroke-width="3" stroke-linejoin="round"/><rect x="69.7699" y="107.71" width="68.7608" height="31.7931" rx="4.5" transform="rotate(-80 69.7699 107.71)" fill="#F9FAFC" stroke="#2B2727" stroke-width="3"/><path d="M77.5593 103.983C76.4715 103.791 75.7452 102.753 75.937 101.666L76.1864 100.251C76.3782 99.1633 77.4155 98.4369 78.5033 98.6287L79.9179 98.8782C81.0057 99.07 81.732 100.107 81.5402 101.195L81.2908 102.61C81.099 103.697 80.0617 104.424 78.9739 104.232L77.5593 103.983Z" stroke="#2B2727"/><path d="M78.8811 96.487C77.7933 96.2952 77.0669 95.2579 77.2587 94.1701L77.5082 92.7555C77.7 91.6677 78.7373 90.9414 79.8251 91.1332L81.2397 91.3826C82.3275 91.5744 83.0538 92.6118 82.862 93.6995L82.6126 95.1141C82.4208 96.2019 81.3834 96.9283 80.2957 96.7365L78.8811 96.487Z" stroke="#2B2727"/><path d="M80.2026 88.9917C79.1148 88.7999 78.3885 87.7626 78.5803 86.6748L78.8297 85.2602C79.0215 84.1724 80.0588 83.4461 81.1466 83.6379L82.5612 83.8873C83.649 84.0792 84.3753 85.1165 84.1835 86.2043L83.9341 87.6189C83.7423 88.7066 82.705 89.433 81.6172 89.2412L80.2026 88.9917Z" stroke="#2B2727"/><path d="M81.5243 81.4963C80.4365 81.3045 79.7101 80.2672 79.9019 79.1794L80.1514 77.7648C80.3432 76.677 81.3805 75.9507 82.4683 76.1425L83.8829 76.3919C84.9707 76.5837 85.697 77.6211 85.5052 78.7088L85.2558 80.1234C85.064 81.2112 84.0266 81.9376 82.9389 81.7458L81.5243 81.4963Z" stroke="#2B2727"/><path d="M82.846 74.001C81.7583 73.8092 81.0319 72.7719 81.2237 71.6841L81.4732 70.2695C81.665 69.1817 82.7023 68.4554 83.7901 68.6472L85.2047 68.8966C86.2925 69.0884 87.0188 70.1258 86.827 71.2135L86.5776 72.6281C86.3858 73.7159 85.3484 74.4423 84.2606 74.2505L82.846 74.001Z" stroke="#2B2727"/><path d="M84.1676 66.5055C83.0798 66.3137 82.3534 65.2764 82.5452 64.1886L82.7947 62.774C82.9865 61.6862 84.0238 60.9599 85.1116 61.1517L86.5262 61.4011C87.614 61.5929 88.3403 62.6302 88.1485 63.718L87.8991 65.1326C87.7073 66.2204 86.67 66.9467 85.5822 66.7549L84.1676 66.5055Z" stroke="#2B2727"/><path d="M85.4891 59.0105C84.4013 58.8187 83.675 57.7813 83.8668 56.6936L84.1162 55.279C84.3081 54.1912 85.3454 53.4648 86.4332 53.6566L87.8478 53.9061C88.9355 54.0979 89.6619 55.1352 89.4701 56.223L89.2206 57.6376C89.0288 58.7254 87.9915 59.4517 86.9037 59.2599L85.4891 59.0105Z" stroke="#2B2727"/><path d="M86.8109 51.5149C85.7231 51.3231 84.9968 50.2858 85.1886 49.198L85.438 47.7834C85.6298 46.6956 86.6671 45.9693 87.7549 46.1611L89.1695 46.4105C90.2573 46.6023 90.9837 47.6396 90.7918 48.7274L90.5424 50.142C90.3506 51.2298 89.3133 51.9562 88.2255 51.7644L86.8109 51.5149Z" stroke="#2B2727"/><path d="M85.0548 105.304C83.967 105.112 83.2407 104.075 83.4325 102.987L83.6819 101.572C83.8737 100.485 84.911 99.7582 85.9988 99.95L87.4134 100.199C88.5012 100.391 89.2275 101.429 89.0357 102.516L88.7863 103.931C88.5945 105.019 87.5572 105.745 86.4694 105.553L85.0548 105.304Z" stroke="#2B2727"/><path d="M86.3764 97.8088C85.2886 97.617 84.5622 96.5797 84.754 95.4919L85.0035 94.0773C85.1953 92.9895 86.2326 92.2632 87.3204 92.455L88.735 92.7044C89.8228 92.8962 90.5491 93.9335 90.3573 95.0213L90.1079 96.4359C89.9161 97.5237 88.8787 98.2501 87.791 98.0582L86.3764 97.8088Z" stroke="#2B2727"/><path d="M87.698 90.3134C86.6102 90.1216 85.8839 89.0843 86.0757 87.9965L86.3251 86.5819C86.5169 85.4941 87.5543 84.7678 88.642 84.9596L90.0566 85.209C91.1444 85.4008 91.8708 86.4381 91.679 87.5259L91.4295 88.9405C91.2377 90.0283 90.2004 90.7546 89.1126 90.5628L87.698 90.3134Z" stroke="#2B2727"/><path d="M89.0197 82.818C87.9319 82.6262 87.2055 81.5889 87.3974 80.5011L87.6468 79.0865C87.8386 77.9987 88.8759 77.2724 89.9637 77.4642L91.3783 77.7136C92.4661 77.9054 93.1924 78.9427 93.0006 80.0305L92.7512 81.4451C92.5594 82.5329 91.5221 83.2592 90.4343 83.0674L89.0197 82.818Z" stroke="#2B2727"/><path d="M90.3413 75.3227C89.2536 75.1309 88.5272 74.0936 88.719 73.0058L88.9685 71.5912C89.1603 70.5034 90.1976 69.7771 91.2854 69.9689L92.7 70.2183C93.7877 70.4101 94.5141 71.4474 94.3223 72.5352L94.0728 73.9498C93.881 75.0376 92.8437 75.7639 91.7559 75.5721L90.3413 75.3227Z" stroke="#2B2727"/><path d="M91.6629 67.8273C90.5751 67.6355 89.8487 66.5982 90.0406 65.5104L90.29 64.0958C90.4818 63.008 91.5191 62.2817 92.6069 62.4735L94.0215 62.7229C95.1093 62.9147 95.8356 63.952 95.6438 65.0398L95.3944 66.4544C95.2026 67.5422 94.1653 68.2685 93.0775 68.0767L91.6629 67.8273Z" stroke="#2B2727"/><path d="M92.9846 60.3317C91.8969 60.1399 91.1705 59.1026 91.3623 58.0148L91.6118 56.6002C91.8036 55.5124 92.8409 54.7861 93.9287 54.9779L95.3433 55.2273C96.4311 55.4192 97.1574 56.4565 96.9656 57.5443L96.7162 58.9589C96.5243 60.0466 95.487 60.773 94.3992 60.5812L92.9846 60.3317Z" stroke="#2B2727"/><path d="M94.3061 52.8366C93.2183 52.6448 92.4919 51.6075 92.6838 50.5197L92.9332 49.1051C93.125 48.0173 94.1623 47.291 95.2501 47.4828L96.6647 47.7322C97.7525 47.924 98.4788 48.9613 98.287 50.0491L98.0376 51.4637C97.8458 52.5515 96.8085 53.2778 95.7207 53.086L94.3061 52.8366Z" stroke="#2B2727"/><path d="M92.5501 106.626C91.4623 106.434 90.736 105.397 90.9278 104.309L91.1772 102.894C91.369 101.806 92.4063 101.08 93.4941 101.272L94.9087 101.521C95.9965 101.713 96.7229 102.75 96.531 103.838L96.2816 105.253C96.0898 106.341 95.0525 107.067 93.9647 106.875L92.5501 106.626Z" stroke="#2B2727"/><path d="M93.8717 99.1302C92.784 98.9384 92.0576 97.9011 92.2494 96.8133L99.107 57.9219C99.2988 56.8341 100.336 56.1078 101.424 56.2996L102.839 56.549C103.926 56.7408 104.653 57.7781 104.461 58.8659L97.6033 97.7573C97.4115 98.8451 96.3741 99.5715 95.2863 99.3797L93.8717 99.1302Z" stroke="#2B2727"/><path d="M101.801 54.1581C100.714 53.9663 99.9872 52.929 100.179 51.8412L100.428 50.4266C100.62 49.3388 101.658 48.6125 102.745 48.8043L104.16 49.0537C105.248 49.2455 105.974 50.2829 105.782 51.3707L105.533 52.7853C105.341 53.873 104.304 54.5994 103.216 54.4076L101.801 54.1581Z" stroke="#2B2727"/><path d="M53.7939 75.7351C53.7939 73.4701 53.7951 71.8616 53.898 70.6028C53.9994 69.3616 54.1921 68.5931 54.5024 67.9841C55.1256 66.7611 56.12 65.7667 57.343 65.1435C57.952 64.8332 58.7205 64.6405 59.9617 64.5391C61.2205 64.4362 62.829 64.4351 65.0939 64.4351H70.3997C72.6647 64.4351 74.2732 64.4362 75.5319 64.5391C76.7732 64.6405 77.5417 64.8332 78.1506 65.1435C79.3737 65.7667 80.3681 66.7611 80.9912 67.9841C81.3015 68.5931 81.4943 69.3616 81.5957 70.6028C81.6985 71.8616 81.6997 73.4701 81.6997 75.7351V101.022C81.6997 103.287 81.6985 104.896 81.5957 106.154C81.4943 107.396 81.3015 108.164 80.9912 108.773C80.3681 109.996 79.3737 110.99 78.1506 111.614C77.5417 111.924 76.7732 112.117 75.5319 112.218C74.2732 112.321 72.6646 112.322 70.3997 112.322H65.0939C62.829 112.322 61.2205 112.321 59.9617 112.218C58.7205 112.117 57.952 111.924 57.343 111.614C56.12 110.99 55.1256 109.996 54.5024 108.773C54.1921 108.164 53.9994 107.396 53.898 106.154C53.7951 104.896 53.7939 103.287 53.7939 101.022L53.7939 75.7351Z" fill="#F9FAFC" stroke="#2B2727" stroke-width="3" stroke-linejoin="round"/><path d="M64.2939 69.625L71.0546 69.625" stroke="#2B2727" stroke-width="3" stroke-linecap="round"/><path d="M62.2939 108.438L72.9178 108.438" stroke="#2B2727" stroke-linecap="round"/><path d="M20.7939 83.1471C20.7939 82.0022 20.7951 81.2338 20.8435 80.642C20.8904 80.0678 20.9741 79.7932 21.0664 79.6121C21.3061 79.1417 21.6886 78.7592 22.159 78.5196C22.3401 78.4273 22.6147 78.3435 23.1889 78.2966C23.7807 78.2482 24.5491 78.2471 25.6939 78.2471H102.894C104.039 78.2471 104.807 78.2482 105.399 78.2966C105.973 78.3435 106.248 78.4273 106.429 78.5196C106.899 78.7592 107.282 79.1417 107.521 79.6121C107.614 79.7932 107.698 80.0678 107.744 80.642C107.793 81.2338 107.794 82.0022 107.794 83.1471V101.947C107.794 104.212 107.793 105.821 107.69 107.079C107.589 108.321 107.396 109.089 107.085 109.698C106.462 110.921 105.468 111.915 104.245 112.539C103.636 112.849 102.867 113.042 101.626 113.143C100.367 113.246 98.7589 113.247 96.4939 113.247H32.094C29.829 113.247 28.2205 113.246 26.9617 113.143C25.7205 113.042 24.952 112.849 24.343 112.539C23.12 111.915 22.1256 110.921 21.5024 109.698C21.1921 109.089 20.9994 108.321 20.898 107.079C20.7951 105.821 20.7939 104.212 20.7939 101.947V83.1471Z" fill="#F9FAFC" stroke="#2B2727" stroke-width="3" stroke-linejoin="round"/><path d="M19.2939 96.2471H109.294" stroke="#2B2727"/></g><defs><clipPath id="clip0_2839_5584"><rect width="128" height="128" fill="white" transform="translate(0.293945 0.74707)"/></clipPath><clipPath id="clip1_2839_5584"><rect width="16.3465" height="16.3465" fill="white" transform="translate(45.2939 74.7471) rotate(-101.81)"/></clipPath><clipPath id="clip2_2839_5584"><rect width="16.3465" height="16.3465" fill="white" transform="translate(39.2939 70.7471) rotate(-101.81)"/></clipPath></defs></svg>