<svg width="129" height="129" viewBox="0 0 129 129" fill="none" xmlns="http://www.w3.org/2000/svg"><g clip-path="url(#clip0_2839_5575)"><path d="M42.3009 113.945C43.8708 114.747 45.9258 114.747 50.0358 114.747H90.5521C94.6621 114.747 96.7171 114.747 98.287 113.945C99.6678 113.239 100.791 112.113 101.494 110.728C102.294 109.154 102.294 107.093 102.294 102.971V89.0249C102.294 88.53 101.824 88.1697 101.33 88.1697C99.1409 88.1697 97.3662 86.3391 97.3662 84.0809C97.3662 81.8226 99.1409 79.992 101.33 79.992C101.824 79.992 102.294 79.6317 102.294 79.1368V34.5231C102.294 30.4011 102.294 28.3401 101.494 26.7657C100.79 25.3808 99.6678 24.2549 98.287 23.5493C96.7171 22.7471 94.6621 22.7471 90.5521 22.7471L50.0358 22.7471C45.9258 22.7471 43.8708 22.7471 42.3009 23.5493C40.9201 24.2549 39.7974 25.3808 39.0938 26.7657C38.2939 28.3401 38.2939 30.4011 38.2939 34.5231L38.2939 79.1368C38.2939 79.6317 38.7643 79.992 39.2578 79.992C41.447 79.992 43.2217 81.8226 43.2217 84.0809C43.2217 86.3391 41.447 88.1697 39.2578 88.1697C38.7643 88.1697 38.2939 88.53 38.2939 89.0249L38.2939 102.971C38.2939 107.093 38.2939 109.154 39.0938 110.728C39.7974 112.113 40.9201 113.239 42.3009 113.945Z" fill="#F9FAFC" stroke="#0057F2" stroke-width="3" stroke-linejoin="round"/><path d="M52.2939 96.3232H89.2939M52.294 102.747H78.7225M89.2939 48.3828V38.7471M52.2939 60.1598H58.6368" stroke="#0057F2" stroke-width="2" stroke-linecap="round"/><path d="M46.2939 83.7471H94.2939" stroke="#0057F2" stroke-width="3" stroke-linecap="round" stroke-linejoin="round" stroke-dasharray="4 8"/><path d="M51.2939 40.3941C51.2939 38.9322 52.4791 37.7471 53.941 37.7471H63.6469C65.1088 37.7471 66.2939 38.9322 66.2939 40.3941V50.1C66.2939 51.5619 65.1088 52.7471 63.6469 52.7471H53.941C52.4791 52.7471 51.2939 51.5619 51.2939 50.1V40.3941Z" fill="#0057F2"/><path d="M36.3009 109.945C37.8708 110.747 39.9258 110.747 44.0358 110.747H84.5521C88.6621 110.747 90.7171 110.747 92.287 109.945C93.6678 109.239 94.7905 108.113 95.4941 106.728C96.2939 105.154 96.2939 103.093 96.2939 98.9711V85.0249C96.2939 84.53 95.8236 84.1697 95.3301 84.1697C93.1409 84.1697 91.3662 82.3391 91.3662 80.0809C91.3662 77.8226 93.1409 75.992 95.3301 75.992C95.8236 75.992 96.2939 75.6317 96.2939 75.1368V30.5231C96.2939 26.4011 96.2939 24.3401 95.4941 22.7657C94.7905 21.3808 93.6678 20.2549 92.287 19.5493C90.7171 18.7471 88.6621 18.7471 84.5521 18.7471L44.0358 18.7471C39.9258 18.7471 37.8708 18.7471 36.3009 19.5493C34.9201 20.2549 33.7974 21.3808 33.0938 22.7657C32.2939 24.3401 32.2939 26.4011 32.2939 30.5231L32.2939 75.1368C32.2939 75.6317 32.7643 75.992 33.2578 75.992C35.447 75.992 37.2217 77.8226 37.2217 80.0809C37.2217 82.3391 35.447 84.1697 33.2578 84.1697C32.7643 84.1697 32.2939 84.53 32.2939 85.0249L32.2939 98.9711C32.2939 103.093 32.2939 105.154 33.0938 106.728C33.7974 108.113 34.9201 109.239 36.3009 109.945Z" fill="#F9FAFC" stroke="#2B2727" stroke-width="3" stroke-linejoin="round"/><path d="M46.2939 92.3232H83.2939M46.294 98.7471H72.7225M83.2939 44.3828V34.7471M46.2939 56.1598H52.6368" stroke="#2B2727" stroke-width="2" stroke-linecap="round"/><path d="M40.2939 79.7471H88.2939" stroke="#2B2727" stroke-width="3" stroke-linecap="round" stroke-linejoin="round" stroke-dasharray="4 8"/><path d="M45.2939 36.3941C45.2939 34.9322 46.4791 33.7471 47.941 33.7471H57.6469C59.1088 33.7471 60.2939 34.9322 60.2939 36.3941V46.1C60.2939 47.5619 59.1088 48.7471 57.6469 48.7471H47.941C46.4791 48.7471 45.2939 47.5619 45.2939 46.1V36.3941Z" fill="#2B2727"/></g><defs><clipPath id="clip0_2839_5575"><rect width="128" height="128" fill="white" transform="translate(0.293945 0.74707)"/></clipPath></defs></svg>