<svg width="129" height="129" viewBox="0 0 129 129" fill="none" xmlns="http://www.w3.org/2000/svg"><g clip-path="url(#clip0_2839_5620)"><path d="M36.7939 33.8801C36.7939 31.6151 36.7951 30.0066 36.898 28.7478C36.9994 27.5066 37.1921 26.7381 37.5024 26.1291C38.1256 24.9061 39.12 23.9117 40.343 23.2885C40.952 22.9783 41.7205 22.7855 42.9617 22.6841C44.2205 22.5812 45.829 22.5801 48.0939 22.5801H82.4939C84.7589 22.5801 86.3674 22.5812 87.6262 22.6841C88.8674 22.7855 89.6359 22.9783 90.2449 23.2885C91.4679 23.9117 92.4623 24.9061 93.0855 26.1291C93.3958 26.7381 93.5885 27.5066 93.6899 28.7478C93.7928 30.0066 93.7939 31.6151 93.7939 33.8801V84.9467C93.7939 87.2117 93.7928 88.8202 93.6899 90.079C93.5885 91.3202 93.3958 92.0887 93.0855 92.6977C92.4623 93.9207 91.4679 94.9151 90.2449 95.5383C89.6359 95.8485 88.8674 96.0413 87.6262 96.1427C86.3674 96.2456 84.7589 96.2467 82.4939 96.2467H48.0939C45.829 96.2467 44.2205 96.2456 42.9617 96.1427C41.7205 96.0413 40.952 95.8485 40.343 95.5383C39.12 94.9151 38.1256 93.9207 37.5024 92.6977C37.1921 92.0887 36.9994 91.3202 36.898 90.079C36.7951 88.8202 36.7939 87.2117 36.7939 84.9467V33.8801Z" fill="#F9FAFC" stroke="#0057F2" stroke-width="3" stroke-linejoin="round"/><path d="M65.2906 51.9159C61.2892 51.9159 57.9939 54.9309 57.5384 58.8136C57.5154 59.0097 57.4982 59.2071 57.4889 59.4068C57.4806 59.5867 57.6269 59.7327 57.8065 59.7327H58.9924C59.1721 59.7327 59.3169 59.5866 59.3284 59.4069C59.3412 59.2065 59.3647 59.009 59.395 58.8136C59.8378 55.9501 62.3057 53.7541 65.2906 53.7541C68.5885 53.7541 71.2606 56.4316 71.2606 59.7327C71.2606 63.0339 68.5885 65.7085 65.2906 65.7085H56.3318C56.0763 65.7085 55.9222 65.9893 56.0684 66.1993C56.375 66.6397 56.7118 67.0577 57.0769 67.4487C57.1374 67.5136 57.2224 67.5496 57.3109 67.5496H65.2906C69.6033 67.5496 73.0999 64.0497 73.0998 59.7327C73.0998 55.4159 69.6033 51.9159 65.2906 51.9159Z" fill="#2B2727"/><path d="M65.2906 48.4971C61.7944 48.4971 58.6701 50.0909 56.6059 52.5945C55.1672 54.3393 54.2712 56.5416 54.0858 58.7965C54.0853 58.8023 54.0833 58.8078 54.0829 58.8136C54.067 59.0105 54.0525 59.2078 54.0442 59.4067C54.0368 59.5867 54.1828 59.7327 54.3624 59.7327H55.5483C55.728 59.7327 55.8731 59.5867 55.8796 59.4067C55.8868 59.2075 55.9003 59.0102 55.9194 58.8136C56.3818 54.0402 60.4004 50.3067 65.2906 50.3067C70.4912 50.3067 74.7075 54.5271 74.7075 59.7327C74.7075 64.9385 70.4912 69.1589 65.2906 69.1588H60.1745C59.8519 69.1588 59.7377 69.5608 60.0229 69.7118C61.4353 70.4598 63.0268 70.9115 64.7156 70.9971H65.2906C71.1175 70.9971 75.9076 66.5642 76.4839 60.8838C76.5213 60.5146 76.543 60.1404 76.5439 59.7614C76.5439 59.3725 76.5223 58.9862 76.4839 58.6075C75.9076 52.9271 71.1175 48.4971 65.2906 48.4971Z" fill="#2B2727"/><path d="M65.2906 55.3634C63.1964 55.3634 61.451 56.8438 61.0283 58.8136C60.9867 59.0076 60.9555 59.2052 60.9389 59.407C60.9241 59.5865 61.071 59.7327 61.2506 59.7327H62.4394C62.619 59.7327 62.7625 59.5861 62.7867 59.4076C62.8146 59.2009 62.8684 59.0023 62.9421 58.8136C63.31 57.8724 64.2199 57.2044 65.2906 57.2045C66.6859 57.2045 67.8164 58.3361 67.8165 59.7327C67.8165 61.1294 66.6859 62.261 65.2906 62.2611H56.2139C56.1444 62.0066 56.0799 61.7419 56.007 61.4883C55.9557 61.3102 55.796 61.1872 55.6335 61.1872H54.4578C54.2973 61.1872 54.154 61.3745 54.1849 61.5519C54.3337 62.3459 54.5116 63.176 54.8325 63.9205C54.8826 64.0368 55.0053 64.0994 55.1204 64.0994H65.2906C67.7006 64.0994 69.6529 62.1452 69.6529 59.7327C69.6529 57.3204 67.7006 55.3634 65.2906 55.3634Z" fill="#2B2727"/><path d="M60.2939 92.5801H69.4606" stroke="#0057F2" stroke-linecap="round"/><path d="M102.966 62.0605L103.466 87.9131C103.45 89.2589 102.892 90.8676 101.932 92.337L92.211 106.087C90.1994 108.424 88.2644 109.674 85.8513 108.838L89.8731 110.232C90.6776 110.511 91.203 111.594 90.7848 112.801L89.2513 117.225C88.6937 118.833 87.6105 119.359 86.0017 118.801L68.3055 112.668C67.099 112.249 66.7136 110.764 67.131 109.557C67.5485 108.351 68.3873 105.938 68.6653 105.134C68.9433 104.329 70.1659 103.401 71.3733 103.82L73.7856 104.656C70.5689 103.541 71.4366 98.4355 72.9534 95.3571C74.2794 92.6658 75.4082 91.3918 77.0319 90.5462C78.218 89.9284 79.3504 89.173 80.0992 88.0649L86.3435 78.8244C86.5315 78.5043 86.7789 78.241 87.069 78.0304C88.4752 77.0101 90.8858 77.2289 92.4083 78.2235C93.8776 79.1833 94.7893 81.7519 93.5507 84.0256C94.1571 82.9414 94.4829 82.3223 94.666 80.8081L94.3911 64.7043L94.3489 62.2273C94.3813 59.5354 96.6034 58.3233 98.4352 58.2375C100.725 58.1302 102.859 59.771 102.966 62.0605Z" fill="#F9FAFC"/><path d="M93.5507 84.0256L89.433 90.7075M93.5507 84.0256C94.7893 81.7519 93.8776 79.1833 92.4083 78.2235C90.8858 77.2289 88.4752 77.0101 87.069 78.0304C86.7789 78.241 86.5315 78.5043 86.3435 78.8244L80.0992 88.0649C79.3504 89.173 78.218 89.9284 77.0319 90.5462C75.4082 91.3918 74.2794 92.6658 72.9534 95.3571C71.4366 98.4355 70.5689 103.541 73.7856 104.656M93.5507 84.0256C94.1571 82.9414 94.4829 82.3223 94.666 80.8081L94.3911 64.7043L94.3489 62.2273C94.3813 59.5354 96.6034 58.3233 98.4352 58.2375C100.725 58.1302 102.859 59.771 102.966 62.0605L103.466 87.9131C103.45 89.2589 102.892 90.8676 101.932 92.337L92.211 106.087C90.1994 108.424 88.2644 109.674 85.8513 108.838M73.7856 104.656L85.8513 108.838M73.7856 104.656C73.7856 104.656 72.5806 104.238 71.3733 103.82C70.1659 103.401 68.9433 104.329 68.6653 105.134C68.3873 105.938 67.5485 108.351 67.131 109.557C66.7136 110.764 67.099 112.249 68.3055 112.668C69.5121 113.086 84.393 118.244 86.0017 118.801C87.6105 119.359 88.6937 118.833 89.2513 117.225C89.8089 115.616 90.3666 114.007 90.7848 112.801C91.203 111.594 90.6776 110.511 89.8731 110.232C89.0686 109.953 85.8513 108.838 85.8513 108.838" stroke="#0057F2" stroke-width="3" stroke-linecap="round" stroke-linejoin="round"/><path d="M30.7939 29.8801C30.7939 27.6151 30.7951 26.0066 30.898 24.7478C30.9994 23.5066 31.1921 22.7381 31.5024 22.1291C32.1256 20.9061 33.12 19.9117 34.343 19.2885C34.952 18.9783 35.7205 18.7855 36.9617 18.6841C38.2205 18.5812 39.829 18.5801 42.0939 18.5801H76.4939C78.7589 18.5801 80.3674 18.5812 81.6262 18.6841C82.8674 18.7855 83.6359 18.9783 84.2449 19.2885C85.4679 19.9117 86.4623 20.9061 87.0855 22.1291C87.3958 22.7381 87.5885 23.5066 87.6899 24.7478C87.7928 26.0066 87.7939 27.6151 87.7939 29.8801V80.9467C87.7939 83.2117 87.7928 84.8202 87.6899 86.079C87.5885 87.3202 87.3958 88.0887 87.0855 88.6977C86.4623 89.9207 85.4679 90.9151 84.2449 91.5383C83.6359 91.8485 82.8674 92.0413 81.6262 92.1427C80.3674 92.2456 78.7589 92.2467 76.4939 92.2467H42.0939C39.829 92.2467 38.2205 92.2456 36.9617 92.1427C35.7205 92.0413 34.952 91.8485 34.343 91.5383C33.12 90.9151 32.1256 89.9207 31.5024 88.6977C31.1921 88.0887 30.9994 87.3202 30.898 86.079C30.7951 84.8202 30.7939 83.2117 30.7939 80.9467V29.8801Z" fill="#F9FAFC" stroke="#2B2727" stroke-width="3" stroke-linejoin="round"/><path d="M59.2906 47.9159C55.2892 47.9159 51.9939 50.9309 51.5384 54.8136C51.5154 55.0097 51.4982 55.2071 51.4889 55.4068C51.4806 55.5867 51.6269 55.7327 51.8065 55.7327H52.9924C53.1721 55.7327 53.3169 55.5866 53.3284 55.4069C53.3412 55.2065 53.3647 55.009 53.395 54.8136C53.8378 51.9501 56.3057 49.7541 59.2906 49.7541C62.5885 49.7541 65.2606 52.4316 65.2606 55.7327C65.2606 59.0339 62.5885 61.7085 59.2906 61.7085H50.3318C50.0763 61.7085 49.9222 61.9893 50.0684 62.1993C50.375 62.6397 50.7118 63.0577 51.0769 63.4487C51.1374 63.5136 51.2224 63.5496 51.3109 63.5496H59.2906C63.6033 63.5496 67.0999 60.0497 67.0998 55.7327C67.0998 51.4159 63.6033 47.9159 59.2906 47.9159Z" fill="#2B2727"/><path d="M59.2906 44.4971C55.7944 44.4971 52.6701 46.0909 50.6059 48.5945C49.1672 50.3393 48.2712 52.5416 48.0858 54.7965C48.0853 54.8023 48.0833 54.8078 48.0829 54.8136C48.067 55.0105 48.0525 55.2078 48.0442 55.4067C48.0368 55.5867 48.1828 55.7327 48.3624 55.7327H49.5483C49.728 55.7327 49.8731 55.5867 49.8796 55.4067C49.8868 55.2075 49.9003 55.0102 49.9194 54.8136C50.3818 50.0402 54.4004 46.3067 59.2906 46.3067C64.4912 46.3067 68.7075 50.5271 68.7075 55.7327C68.7075 60.9385 64.4912 65.1589 59.2906 65.1588H54.1745C53.8519 65.1588 53.7377 65.5608 54.0229 65.7118C55.4353 66.4598 57.0268 66.9115 58.7156 66.9971H59.2906C65.1175 66.9971 69.9076 62.5642 70.4839 56.8838C70.5213 56.5146 70.543 56.1404 70.5439 55.7614C70.5439 55.3725 70.5223 54.9862 70.4839 54.6075C69.9076 48.9271 65.1175 44.4971 59.2906 44.4971Z" fill="#2B2727"/><path d="M59.2906 51.3634C57.1964 51.3634 55.451 52.8438 55.0283 54.8136C54.9867 55.0076 54.9555 55.2052 54.9389 55.407C54.9241 55.5865 55.071 55.7327 55.2506 55.7327H56.4394C56.619 55.7327 56.7625 55.5861 56.7867 55.4076C56.8146 55.2009 56.8684 55.0023 56.9421 54.8136C57.31 53.8724 58.2199 53.2044 59.2906 53.2045C60.6859 53.2045 61.8164 54.3361 61.8165 55.7327C61.8165 57.1294 60.6859 58.261 59.2906 58.2611H50.2139C50.1444 58.0066 50.0799 57.7419 50.007 57.4883C49.9557 57.3102 49.796 57.1872 49.6335 57.1872H48.4578C48.2973 57.1872 48.154 57.3745 48.1849 57.5519C48.3337 58.3459 48.5116 59.176 48.8325 59.9205C48.8826 60.0368 49.0053 60.0994 49.1204 60.0994H59.2906C61.7006 60.0994 63.6529 58.1452 63.6529 55.7327C63.6529 53.3204 61.7006 51.3634 59.2906 51.3634Z" fill="#2B2727"/><path d="M54.2939 88.5801H63.4606" stroke="#2B2727" stroke-linecap="round"/><path d="M96.9663 58.0605L97.4664 83.9131C97.4499 85.2589 96.892 86.8676 95.9323 88.337L86.211 102.087C84.1994 104.424 82.2644 105.674 79.8513 104.838L83.8731 106.232C84.6776 106.511 85.203 107.594 84.7848 108.801L83.2513 113.225C82.6937 114.833 81.6105 115.359 80.0017 114.801L62.3055 108.668C61.099 108.249 60.7136 106.764 61.131 105.557C61.5485 104.351 62.3873 101.938 62.6653 101.134C62.9433 100.329 64.1659 99.4011 65.3733 99.8196L67.7856 100.656C64.5689 99.5408 65.4366 94.4355 66.9534 91.3571C68.2794 88.6658 69.4082 87.3918 71.0319 86.5462C72.218 85.9284 73.3504 85.173 74.0992 84.0649L80.3435 74.8244C80.5315 74.5043 80.7789 74.241 81.069 74.0304C82.4752 73.0101 84.8858 73.2289 86.4083 74.2235C87.8776 75.1833 88.7893 77.7519 87.5507 80.0256C88.1571 78.9414 88.4829 78.3223 88.666 76.8081L88.3911 60.7043L88.3489 58.2273C88.3813 55.5354 90.6034 54.3233 92.4352 54.2375C94.7253 54.1302 96.8593 55.771 96.9663 58.0605Z" fill="#F9FAFC"/><path d="M87.5507 80.0256L83.433 86.7075M87.5507 80.0256C88.7893 77.7519 87.8776 75.1833 86.4083 74.2235C84.8858 73.2289 82.4752 73.0101 81.069 74.0304C80.7789 74.241 80.5315 74.5043 80.3435 74.8244L74.0992 84.0649C73.3504 85.173 72.218 85.9284 71.0319 86.5462C69.4082 87.3918 68.2794 88.6658 66.9534 91.3571C65.4366 94.4355 64.5689 99.5408 67.7856 100.656M87.5507 80.0256C88.1571 78.9414 88.4829 78.3223 88.666 76.8081L88.3911 60.7043L88.3489 58.2273C88.3813 55.5354 90.6034 54.3233 92.4352 54.2375C94.7253 54.1302 96.8593 55.771 96.9663 58.0605L97.4664 83.9131C97.4499 85.2589 96.892 86.8676 95.9323 88.337L86.211 102.087C84.1994 104.424 82.2644 105.674 79.8513 104.838M67.7856 100.656L79.8513 104.838M67.7856 100.656C67.7856 100.656 66.5806 100.238 65.3733 99.8196C64.1659 99.4011 62.9433 100.329 62.6653 101.134C62.3873 101.938 61.5485 104.351 61.131 105.557C60.7136 106.764 61.099 108.249 62.3055 108.668C63.5121 109.086 78.393 114.244 80.0017 114.801C81.6105 115.359 82.6937 114.833 83.2513 113.225C83.8089 111.616 84.3666 110.007 84.7848 108.801C85.203 107.594 84.6776 106.511 83.8731 106.232C83.0686 105.953 79.8513 104.838 79.8513 104.838" stroke="#2B2727" stroke-width="3" stroke-linecap="round" stroke-linejoin="round"/></g><defs><clipPath id="clip0_2839_5620"><rect width="128" height="128" fill="white" transform="translate(0.293945 0.74707)"/></clipPath></defs></svg>