<svg width="129" height="129" viewBox="0 0 129 129" fill="none" xmlns="http://www.w3.org/2000/svg"><g clip-path="url(#clip0_2839_5590)"><circle cx="70.2939" cy="68.7471" r="46.5" fill="#F9FAFC" stroke="#0057F2" stroke-width="3"/><path d="M76.0349 59.9173L93.1388 54.913C95.7467 54.222 98.4274 55.7523 99.1262 58.331C99.825 60.9097 98.2773 63.5602 95.6693 64.2512L77.7532 69.2343V78.8723L85.3284 94.4956C86.6784 96.8075 85.8773 99.7638 83.539 101.099C81.2008 102.433 78.2109 101.641 76.861 99.3294L70.6575 85.649L62.6693 99.3293C61.3193 101.641 58.3295 102.433 55.9912 101.099C53.653 99.7638 52.8519 96.8075 54.2019 94.4955L63.0869 78.8723L63.0871 69.0842L44.9186 64.507C42.3106 63.816 40.7629 61.1655 41.4617 58.5868C42.1605 56.0081 44.8412 54.4778 47.4491 55.1688L65.4796 59.9173H76.0349Z" fill="#F9FAFC" stroke="#2B2727" stroke-width="3" stroke-linejoin="round"/><path d="M80.2939 46.2471C80.2939 51.4938 76.0407 55.7471 70.7939 55.7471C65.5472 55.7471 61.2939 51.4938 61.2939 46.2471C61.2939 41.0004 65.5472 36.7471 70.7939 36.7471C76.0407 36.7471 80.2939 41.0004 80.2939 46.2471Z" fill="#F9FAFC" stroke="#2B2727" stroke-width="3" stroke-linejoin="round"/><circle cx="64.2939" cy="64.7471" r="46.5" fill="#F9FAFC" stroke="#2B2727" stroke-width="3"/><path d="M70.0349 55.9173L87.1388 50.913C89.7467 50.222 92.4274 51.7523 93.1262 54.331C93.825 56.9097 92.2773 59.5602 89.6693 60.2512L71.7532 65.2343V74.8723L79.3284 90.4956C80.6784 92.8075 79.8773 95.7638 77.539 97.0987C75.2008 98.4335 72.2109 97.6413 70.861 95.3294L64.6575 81.649L56.6693 95.3293C55.3193 97.6413 52.3295 98.4334 49.9912 97.0986C47.653 95.7638 46.8519 92.8075 48.2019 90.4955L57.0869 74.8723L57.0871 65.0842L38.9186 60.507C36.3106 59.816 34.7629 57.1655 35.4617 54.5868C36.1605 52.0081 38.8412 50.4778 41.4491 51.1688L59.4796 55.9173H70.0349Z" fill="#F9FAFC" stroke="#2B2727" stroke-width="3" stroke-linejoin="round"/><path d="M74.2939 42.2471C74.2939 47.4938 70.0407 51.7471 64.7939 51.7471C59.5472 51.7471 55.2939 47.4938 55.2939 42.2471C55.2939 37.0004 59.5472 32.7471 64.7939 32.7471C70.0407 32.7471 74.2939 37.0004 74.2939 42.2471Z" fill="#F9FAFC" stroke="#2B2727" stroke-width="3" stroke-linejoin="round"/></g><defs><clipPath id="clip0_2839_5590"><rect width="128" height="128" fill="white" transform="translate(0.293945 0.74707)"/></clipPath></defs></svg>