<svg width="129" height="129" viewBox="0 0 129 129" fill="none" xmlns="http://www.w3.org/2000/svg"><g clip-path="url(#clip0_2839_5623)"><path d="M23.2939 48.7471C23.2939 44.8811 26.428 41.7471 30.2939 41.7471H111.294C115.16 41.7471 118.294 44.8811 118.294 48.7471V82.7471C118.294 86.6131 115.16 89.7471 111.294 89.7471H30.2939C26.428 89.7471 23.2939 86.6131 23.2939 82.7471V48.7471Z" fill="#F9FAFC"/><path d="M34.2939 51.7471H106.294V80.7471H34.2939V51.7471Z" fill="#F9FAFC"/><path d="M41.2939 60.7471H77.2939M41.2939 66.7471H77.2939M41.2939 72.7471H77.2939M30.2939 89.7471H111.294C115.16 89.7471 118.294 86.6131 118.294 82.7471V48.7471C118.294 44.8811 115.16 41.7471 111.294 41.7471H30.2939C26.428 41.7471 23.2939 44.8811 23.2939 48.7471V82.7471C23.2939 86.6131 26.428 89.7471 30.2939 89.7471ZM34.2939 51.7471H106.294V80.7471H34.2939V51.7471Z" stroke="#0057F2" stroke-width="3" stroke-linecap="round"/><path d="M98.2734 60.8018C98.2598 60.5471 98.159 60.3071 97.9907 60.1288C97.8224 59.9505 97.5986 59.8466 97.3634 59.8376C96.8134 59.7997 95.0334 59.7726 94.5184 59.7726C95.4334 60.4551 95.5584 61.7443 95.6484 64.1384C95.6984 65.5576 95.6484 70.5301 95.6484 70.7468L95.6234 72.1009L90.8084 66.8793V65.2543L94.6384 69.398C94.6484 68.5747 94.6584 67.5022 94.6584 66.5272C94.6584 65.5738 94.6434 64.7126 94.6184 64.2522C94.4734 61.6468 94.2484 60.4226 92.9934 59.9405C92.5601 59.7942 92.1068 59.73 91.6534 59.7509C91.1534 59.7509 87.7184 59.7509 87.2184 59.778C86.9808 59.7849 86.7548 59.8906 86.5873 60.0731C86.4197 60.2557 86.3234 60.501 86.3184 60.7584C86.2884 61.2893 86.2834 71.1422 86.3184 71.6838C86.3434 72.2147 86.7184 72.6155 87.2184 72.648C87.7684 72.6805 89.5534 72.6859 90.0684 72.6859C89.1534 72.0034 89.0284 70.7143 88.9384 68.3201C88.8884 66.9009 88.9384 61.9284 88.9384 61.7118L88.9634 60.3576L93.7784 65.5793V67.2043L89.9434 63.0659C89.9334 63.8893 89.9234 64.9618 89.9234 65.9368C89.9234 66.8901 89.9384 67.7513 89.9634 68.2118C90.1084 70.8172 90.3334 72.0413 91.5884 72.518C91.9734 72.6697 92.3334 72.7022 92.9284 72.713C93.4284 72.713 96.8634 72.713 97.3584 72.6859C97.5976 72.6818 97.8261 72.5773 97.9958 72.3945C98.1655 72.2117 98.2632 71.9647 98.2684 71.7055C98.2934 71.1747 98.2984 61.3434 98.2684 60.8072L98.2734 60.8018Z" fill="#0057F2"/><path d="M17.2939 44.7471C17.2939 40.8811 20.428 37.7471 24.2939 37.7471H105.294C109.16 37.7471 112.294 40.8811 112.294 44.7471V78.7471C112.294 82.6131 109.16 85.7471 105.294 85.7471H24.2939C20.428 85.7471 17.2939 82.6131 17.2939 78.7471V44.7471Z" fill="#F9FAFC"/><path d="M28.2939 47.7471H100.294V76.7471H28.2939V47.7471Z" fill="#F9FAFC"/><path d="M35.2939 56.7471H71.2939M35.2939 62.7471H71.2939M35.2939 68.7471H71.2939M24.2939 85.7471H105.294C109.16 85.7471 112.294 82.6131 112.294 78.7471V44.7471C112.294 40.8811 109.16 37.7471 105.294 37.7471H24.2939C20.428 37.7471 17.2939 40.8811 17.2939 44.7471V78.7471C17.2939 82.6131 20.428 85.7471 24.2939 85.7471ZM28.2939 47.7471H100.294V76.7471H28.2939V47.7471Z" stroke="#2B2727" stroke-width="3" stroke-linecap="round"/><path d="M92.2734 56.8018C92.2598 56.5471 92.159 56.3071 91.9907 56.1288C91.8224 55.9505 91.5986 55.8466 91.3634 55.8376C90.8134 55.7997 89.0334 55.7726 88.5184 55.7726C89.4334 56.4551 89.5584 57.7443 89.6484 60.1384C89.6984 61.5576 89.6484 66.5301 89.6484 66.7468L89.6234 68.1009L84.8084 62.8793V61.2543L88.6384 65.398C88.6484 64.5747 88.6584 63.5022 88.6584 62.5272C88.6584 61.5738 88.6434 60.7126 88.6184 60.2522C88.4734 57.6468 88.2484 56.4226 86.9934 55.9405C86.5601 55.7942 86.1068 55.73 85.6534 55.7509C85.1534 55.7509 81.7184 55.7509 81.2184 55.778C80.9808 55.7849 80.7548 55.8906 80.5873 56.0731C80.4197 56.2557 80.3234 56.501 80.3184 56.7584C80.2884 57.2893 80.2834 67.1422 80.3184 67.6838C80.3434 68.2147 80.7184 68.6155 81.2184 68.648C81.7684 68.6805 83.5534 68.6859 84.0684 68.6859C83.1534 68.0034 83.0284 66.7143 82.9384 64.3201C82.8884 62.9009 82.9384 57.9284 82.9384 57.7118L82.9634 56.3576L87.7784 61.5793V63.2043L83.9434 59.0659C83.9334 59.8893 83.9234 60.9618 83.9234 61.9368C83.9234 62.8901 83.9384 63.7513 83.9634 64.2118C84.1084 66.8172 84.3334 68.0413 85.5884 68.518C85.9734 68.6697 86.3334 68.7022 86.9284 68.713C87.4284 68.713 90.8634 68.713 91.3584 68.6859C91.5976 68.6818 91.8261 68.5773 91.9958 68.3945C92.1655 68.2117 92.2632 67.9647 92.2684 67.7055C92.2934 67.1747 92.2984 57.3434 92.2684 56.8072L92.2734 56.8018Z" fill="#2B2727"/></g><defs><clipPath id="clip0_2839_5623"><rect width="128" height="128" fill="white" transform="translate(0.293945 0.74707)"/></clipPath></defs></svg>