<svg width="129" height="129" viewBox="0 0 129 129" fill="none" xmlns="http://www.w3.org/2000/svg"><g clip-path="url(#clip0_2839_5563)"><path d="M71.2939 91.7471C71.2939 90.0902 72.6371 88.7471 74.2939 88.7471H117.294V94.7471H74.2939C72.6371 94.7471 71.2939 93.4039 71.2939 91.7471Z" fill="#F9FAFC" stroke="#0057F2" stroke-width="3"/><path d="M72.2939 68.7476H78.2939V89.7476C78.2939 91.4044 76.9508 92.7476 75.2939 92.7476C73.6371 92.7476 72.2939 91.4044 72.2939 89.7476V68.7476Z" fill="#F9FAFC" stroke="#0057F2" stroke-width="3"/><circle cx="74.7939" cy="69.2476" r="7.5" fill="#F9FAFC" stroke="#0057F2" stroke-width="3"/><circle cx="75.2939" cy="91.7471" r="6" fill="#F9FAFC" stroke="#0057F2" stroke-width="3"/><path d="M109.294 86.1471C109.294 83.9069 109.294 82.7868 109.73 81.9311C110.113 81.1785 110.725 80.5665 111.478 80.183C112.334 79.7471 113.454 79.7471 115.694 79.7471H117.694C118.254 79.7471 118.534 79.7471 118.748 79.8561C118.936 79.9519 119.089 80.1049 119.185 80.2931C119.294 80.507 119.294 80.787 119.294 81.3471V105.147C119.294 105.707 119.294 105.987 119.185 106.201C119.089 106.389 118.936 106.542 118.748 106.638C118.534 106.747 118.254 106.747 117.694 106.747H115.694C113.454 106.747 112.334 106.747 111.478 106.311C110.725 105.928 110.113 105.316 109.73 104.563C109.294 103.707 109.294 102.587 109.294 100.347V86.1471Z" fill="#F9FAFC" stroke="#0057F2" stroke-width="3"/><path d="M26.2146 63.6699C25.9708 62.298 25.8489 61.612 25.8321 61.0222C25.7314 57.4998 27.9473 54.3264 31.2888 53.2076C31.8484 53.0202 32.5343 52.8983 33.9063 52.6546L39.4587 51.6681L42.7824 70.3751L37.2299 71.3616C35.858 71.6054 35.172 71.7272 34.5822 71.7441C31.0598 71.8448 27.8864 69.6288 26.7676 66.2874C26.5802 65.7278 26.4583 65.0418 26.2146 63.6699Z" fill="#F9FAFC" stroke="#0057F2" stroke-width="3"/><path d="M34.2184 56.2713C33.6306 52.9628 33.3367 51.3086 33.756 49.9305C34.1249 48.7183 34.8681 47.654 35.879 46.8901C37.0283 46.0217 38.6825 45.7278 41.991 45.14L84.1311 37.653C87.4396 37.0652 89.0938 36.7713 90.4719 37.1906C91.6841 37.5595 92.7484 38.3027 93.5123 39.3136C94.3807 40.4629 94.6746 42.1171 95.2624 45.4256L97.1517 56.0591C97.7395 59.3676 98.0334 61.0219 97.614 62.3999C97.2451 63.6121 96.502 64.6764 95.491 65.4403C94.3418 66.3087 92.6875 66.6026 89.379 67.1904L47.2389 74.6774C43.9304 75.2652 42.2762 75.5592 40.8981 75.1398C39.6859 74.7709 38.6216 74.0278 37.8578 73.0168C36.9894 71.8675 36.6955 70.2133 36.1076 66.9048L34.2184 56.2713Z" fill="#F9FAFC" stroke="#0057F2" stroke-width="3"/><path d="M23.9435 46.3573C23.0422 44.43 22.5915 43.4664 22.6863 42.6257C22.7694 41.8891 23.1222 41.2093 23.6768 40.7175C24.3097 40.1561 25.3571 39.97 27.4519 39.5978L89.4269 28.5867C91.0812 28.2928 91.9083 28.1458 92.5974 28.3555C93.2035 28.54 93.7356 28.9115 94.1175 29.417C94.5517 29.9917 94.6987 30.8188 94.9926 32.473L96.6369 41.7281C96.9308 43.3823 97.0778 44.2095 96.8681 44.8985C96.6837 45.5046 96.3121 46.0368 95.8066 46.4187C95.232 46.8529 94.4049 46.9998 92.7506 47.2937L33.2537 57.8646C31.9552 58.0953 31.306 58.2106 30.7231 58.0822C30.2088 57.9688 29.7334 57.7221 29.3446 57.3667C28.9041 56.964 28.6248 56.3667 28.0661 55.172L23.9435 46.3573Z" fill="#F9FAFC" stroke="#0057F2" stroke-width="3"/><g clip-path="url(#clip1_2839_5563)"><path d="M78.5641 35.8488C76.5942 36.1986 75.2356 37.9709 75.3508 39.9222C75.3566 40.0208 75.3654 40.1195 75.3782 40.2186C75.3899 40.3079 75.4747 40.367 75.5631 40.3513L76.1469 40.2476C76.2354 40.2319 76.2939 40.1473 76.2838 40.0578C76.2726 39.958 76.2669 39.8588 76.2648 39.7599C76.2324 38.3115 77.2554 37.0147 78.7248 36.7537C80.3484 36.4654 81.8979 37.5499 82.1865 39.175C82.4751 40.8002 81.3935 42.3505 79.7699 42.6388L75.3595 43.4221C75.2338 43.4444 75.1824 43.5961 75.2728 43.6867C75.4622 43.8767 75.6646 44.0531 75.8785 44.2136C75.914 44.2403 75.9589 44.2506 76.0025 44.2428L79.9309 43.5452C82.054 43.1682 83.4694 41.1395 83.092 39.0142C82.7146 36.8891 80.6872 35.4717 78.5641 35.8488Z" fill="#2B2727"/><path d="M78.2652 34.1657C76.544 34.4713 75.1453 35.5291 74.348 36.9421C73.7923 37.9268 73.5437 39.0894 73.6496 40.2156C73.6498 40.2185 73.6493 40.2214 73.6496 40.2243C73.659 40.3227 73.6691 40.4211 73.6824 40.5197C73.6945 40.6089 73.7791 40.6681 73.8676 40.6524L74.4514 40.5487C74.5398 40.533 74.5985 40.4484 74.586 40.3592C74.5721 40.2605 74.5615 40.1622 74.5537 40.0638C74.3641 37.6734 76.016 35.4841 78.4234 35.0566C80.9837 34.6019 83.4283 36.311 83.8834 38.8737C84.3385 41.4365 82.6318 43.8828 80.0716 44.3374L77.553 44.7847C77.3941 44.8129 77.373 45.0207 77.5267 45.0702C78.2873 45.3149 79.1103 45.3982 79.9492 45.2926L80.2323 45.2424C83.1009 44.733 85.0715 42.1319 84.8586 39.2851C84.8447 39.1 84.8227 38.9139 84.79 38.7273C84.756 38.5358 84.7116 38.3475 84.6596 38.1644C83.8792 35.4184 81.1338 33.6563 78.2652 34.1657Z" fill="#2B2727"/><path d="M78.8655 37.5459C77.8345 37.729 77.1047 38.6105 77.0688 39.6171C77.0653 39.7162 77.0672 39.8163 77.0767 39.9171C77.0851 40.0067 77.1702 40.0659 77.2586 40.0502L77.8438 39.9462C77.9323 39.9305 77.9901 39.8458 77.9864 39.7558C77.9821 39.6516 77.9912 39.5491 78.011 39.4498C78.1098 38.9543 78.4993 38.5459 79.0265 38.4523C79.7134 38.3303 80.3688 38.7886 80.491 39.4761C80.6131 40.1637 80.1554 40.8196 79.4685 40.9417L75.0001 41.7352C74.9437 41.616 74.8888 41.4913 74.8307 41.3729C74.7899 41.2897 74.7005 41.2431 74.6205 41.2573L74.0417 41.3601C73.9627 41.3741 73.9085 41.4788 73.9392 41.5635C74.0819 41.9413 74.2421 42.3344 74.4651 42.6729C74.5 42.7258 74.5658 42.7458 74.6225 42.7358L79.6292 41.8466C80.8157 41.636 81.606 40.5032 81.395 39.3156C81.1841 38.128 80.0519 37.3352 78.8655 37.5459Z" fill="#2B2727"/></g><rect x="19.2939" y="87.7471" width="35" height="25" rx="6" fill="#F9FAFC" stroke="#0057F2" stroke-width="3" stroke-linecap="round" stroke-linejoin="round"/><path d="M27.2939 105.747V102.062M33.2939 105.747V96.9977M39.2939 105.747V99.811M45.2939 105.747V94.7471" stroke="#0057F2" stroke-width="2" stroke-linecap="round" stroke-linejoin="round"/><path d="M65.2939 87.7471C65.2939 86.0902 66.6371 84.7471 68.2939 84.7471H111.294V90.7471H68.2939C66.6371 90.7471 65.2939 89.4039 65.2939 87.7471Z" fill="#F9FAFC" stroke="#2B2727" stroke-width="3"/><path d="M66.2939 64.7476H72.2939V85.7476C72.2939 87.4044 70.9508 88.7476 69.2939 88.7476C67.6371 88.7476 66.2939 87.4044 66.2939 85.7476V64.7476Z" fill="#F9FAFC" stroke="#2B2727" stroke-width="3"/><circle cx="68.7939" cy="65.2476" r="7.5" fill="#F9FAFC" stroke="#2B2727" stroke-width="3"/><circle cx="69.2939" cy="87.7471" r="6" fill="#F9FAFC" stroke="#2B2727" stroke-width="3"/><path d="M103.294 82.1471C103.294 79.9069 103.294 78.7868 103.73 77.9311C104.113 77.1785 104.725 76.5665 105.478 76.183C106.334 75.7471 107.454 75.7471 109.694 75.7471H111.694C112.254 75.7471 112.534 75.7471 112.748 75.8561C112.936 75.9519 113.089 76.1049 113.185 76.2931C113.294 76.507 113.294 76.787 113.294 77.3471V101.147C113.294 101.707 113.294 101.987 113.185 102.201C113.089 102.389 112.936 102.542 112.748 102.638C112.534 102.747 112.254 102.747 111.694 102.747H109.694C107.454 102.747 106.334 102.747 105.478 102.311C104.725 101.928 104.113 101.316 103.73 100.563C103.294 99.7074 103.294 98.5873 103.294 96.3471V82.1471Z" fill="#F9FAFC" stroke="#2B2727" stroke-width="3"/><path d="M20.2146 59.6699C19.9708 58.298 19.8489 57.612 19.8321 57.0222C19.7314 53.4998 21.9473 50.3264 25.2888 49.2076C25.8484 49.0202 26.5343 48.8983 27.9063 48.6546L33.4587 47.6681L36.7824 66.3751L31.2299 67.3616C29.858 67.6054 29.172 67.7272 28.5822 67.7441C25.0598 67.8448 21.8864 65.6288 20.7676 62.2874C20.5802 61.7278 20.4583 61.0418 20.2146 59.6699Z" fill="#F9FAFC" stroke="#2B2727" stroke-width="3"/><path d="M28.2184 52.2713C27.6306 48.9628 27.3367 47.3086 27.756 45.9305C28.1249 44.7183 28.8681 43.654 29.879 42.8901C31.0283 42.0217 32.6825 41.7278 35.991 41.14L78.1311 33.653C81.4396 33.0652 83.0938 32.7713 84.4719 33.1906C85.6841 33.5595 86.7484 34.3027 87.5123 35.3136C88.3807 36.4629 88.6746 38.1171 89.2624 41.4256L91.1517 52.0591C91.7395 55.3676 92.0334 57.0219 91.614 58.3999C91.2451 59.6121 90.502 60.6764 89.491 61.4403C88.3418 62.3087 86.6875 62.6026 83.379 63.1904L41.2389 70.6774C37.9304 71.2652 36.2762 71.5592 34.8981 71.1398C33.6859 70.7709 32.6216 70.0278 31.8578 69.0168C30.9894 67.8675 30.6955 66.2133 30.1076 62.9048L28.2184 52.2713Z" fill="#F9FAFC" stroke="#2B2727" stroke-width="3"/><path d="M17.9435 42.3573C17.0422 40.43 16.5915 39.4664 16.6863 38.6257C16.7694 37.8891 17.1222 37.2093 17.6768 36.7175C18.3097 36.1561 19.3571 35.97 21.4519 35.5978L83.4269 24.5867C85.0812 24.2928 85.9083 24.1458 86.5974 24.3555C87.2035 24.54 87.7356 24.9115 88.1175 25.417C88.5517 25.9917 88.6987 26.8188 88.9926 28.473L90.6369 37.7281C90.9308 39.3823 91.0778 40.2095 90.8681 40.8985C90.6837 41.5046 90.3121 42.0368 89.8066 42.4187C89.232 42.8529 88.4049 42.9998 86.7506 43.2937L27.2537 53.8646C25.9552 54.0953 25.306 54.2106 24.7231 54.0822C24.2088 53.9688 23.7334 53.7221 23.3446 53.3667C22.9041 52.964 22.6248 52.3667 22.0661 51.172L17.9435 42.3573Z" fill="#F9FAFC" stroke="#2B2727" stroke-width="3"/><g clip-path="url(#clip2_2839_5563)"><path d="M72.5641 31.8488C70.5942 32.1986 69.2356 33.9709 69.3508 35.9222C69.3566 36.0208 69.3654 36.1195 69.3782 36.2186C69.3899 36.3079 69.4747 36.367 69.5631 36.3513L70.1469 36.2476C70.2354 36.2319 70.2939 36.1473 70.2838 36.0578C70.2726 35.958 70.2669 35.8588 70.2648 35.7599C70.2324 34.3115 71.2554 33.0147 72.7248 32.7537C74.3484 32.4654 75.8979 33.5499 76.1865 35.175C76.4751 36.8002 75.3935 38.3505 73.7699 38.6388L69.3595 39.4221C69.2338 39.4444 69.1824 39.5961 69.2728 39.6867C69.4622 39.8767 69.6646 40.0531 69.8785 40.2136C69.914 40.2403 69.9589 40.2506 70.0025 40.2428L73.9309 39.5452C76.054 39.1682 77.4694 37.1395 77.092 35.0142C76.7146 32.8891 74.6872 31.4717 72.5641 31.8488Z" fill="#2B2727"/><path d="M72.2652 30.1657C70.544 30.4713 69.1453 31.5291 68.348 32.9421C67.7923 33.9268 67.5437 35.0894 67.6496 36.2156C67.6498 36.2185 67.6493 36.2214 67.6496 36.2243C67.659 36.3227 67.6691 36.4211 67.6824 36.5197C67.6945 36.6089 67.7791 36.6681 67.8676 36.6524L68.4514 36.5487C68.5398 36.533 68.5985 36.4484 68.586 36.3592C68.5721 36.2605 68.5615 36.1622 68.5537 36.0638C68.3641 33.6734 70.016 31.4841 72.4234 31.0566C74.9837 30.6019 77.4283 32.311 77.8834 34.8737C78.3385 37.4365 76.6318 39.8828 74.0716 40.3374L71.553 40.7847C71.3941 40.8129 71.373 41.0207 71.5267 41.0702C72.2873 41.3149 73.1103 41.3982 73.9492 41.2926L74.2323 41.2424C77.1009 40.733 79.0715 38.1319 78.8586 35.2851C78.8447 35.1 78.8227 34.9139 78.79 34.7273C78.756 34.5358 78.7116 34.3475 78.6596 34.1644C77.8792 31.4184 75.1338 29.6563 72.2652 30.1657Z" fill="#2B2727"/><path d="M72.8655 33.5459C71.8345 33.729 71.1047 34.6105 71.0688 35.6171C71.0653 35.7162 71.0672 35.8163 71.0767 35.9171C71.0851 36.0067 71.1702 36.0659 71.2586 36.0502L71.8438 35.9462C71.9323 35.9305 71.9901 35.8458 71.9864 35.7558C71.9821 35.6516 71.9912 35.5491 72.011 35.4498C72.1098 34.9543 72.4993 34.5459 73.0265 34.4523C73.7134 34.3303 74.3688 34.7886 74.491 35.4761C74.6131 36.1637 74.1554 36.8196 73.4685 36.9417L69.0001 37.7352C68.9437 37.616 68.8888 37.4913 68.8307 37.3729C68.7899 37.2897 68.7005 37.2431 68.6205 37.2573L68.0417 37.3601C67.9627 37.3741 67.9085 37.4788 67.9392 37.5635C68.0819 37.9413 68.2421 38.3344 68.4651 38.6729C68.5 38.7258 68.5658 38.7458 68.6225 38.7358L73.6292 37.8466C74.8157 37.636 75.606 36.5032 75.395 35.3156C75.1841 34.128 74.0519 33.3352 72.8655 33.5459Z" fill="#2B2727"/></g><rect x="13.2939" y="83.7471" width="35" height="25" rx="6" fill="#F9FAFC" stroke="#2B2727" stroke-width="3" stroke-linecap="round" stroke-linejoin="round"/><path d="M21.2939 101.747V98.0616M27.2939 101.747V92.9977M33.2939 101.747V95.811M39.2939 101.747V90.7471" stroke="#2B2727" stroke-width="2" stroke-linecap="round" stroke-linejoin="round"/></g><defs><clipPath id="clip0_2839_5563"><rect width="128" height="128" fill="white" transform="translate(0.293945 0.74707)"/></clipPath><clipPath id="clip1_2839_5563"><rect width="12" height="12" fill="white" transform="translate(72.2939 34.8452) rotate(-10.07)"/></clipPath><clipPath id="clip2_2839_5563"><rect width="12" height="12" fill="white" transform="translate(66.2939 30.8452) rotate(-10.07)"/></clipPath></defs></svg>