<svg width="129" height="129" viewBox="0 0 129 129" fill="none" xmlns="http://www.w3.org/2000/svg"><g clip-path="url(#clip0_2839_5641)"><path d="M31.0439 18.7471C26.2115 18.7471 22.2939 22.6646 22.2939 27.4971V93.9971C22.2939 98.8296 26.2115 102.747 31.0439 102.747H64.2939V88.7471C60.428 88.7471 57.2939 85.6131 57.2939 81.7471C57.2939 77.8811 60.428 74.7471 64.2939 74.7471V60.7471H78.2939C78.2939 64.6131 81.4279 67.7471 85.2939 67.7471C89.1599 67.7471 92.2939 64.6131 92.2939 60.7471H106.294V27.4971C106.294 22.6646 102.376 18.7471 97.5439 18.7471H31.0439Z" fill="#F9FAFC"/><path d="M64.2939 60.7471V74.7471C60.428 74.7471 57.2939 77.8811 57.2939 81.7471C57.2939 85.6131 60.428 88.7471 64.2939 88.7471V102.747H31.0439C26.2115 102.747 22.2939 98.8296 22.2939 93.9971V27.4971C22.2939 22.6646 26.2115 18.7471 31.0439 18.7471H97.5439C102.376 18.7471 106.294 22.6646 106.294 27.4971V60.7471H92.2939C92.2939 64.6131 89.1599 67.7471 85.2939 67.7471C81.4279 67.7471 78.2939 64.6131 78.2939 60.7471H64.2939ZM64.2939 60.7471H50.2939C50.2939 56.8811 47.1599 53.7471 43.2939 53.7471C39.428 53.7471 36.2939 56.8811 36.2939 60.7471H22.2939M64.2939 60.7471V46.7471C68.1599 46.7471 71.2939 43.6131 71.2939 39.7471C71.2939 35.8811 68.1599 32.7471 64.2939 32.7471V18.7471" stroke="#0057F2" stroke-width="3" stroke-linecap="round" stroke-linejoin="round"/><path d="M98.0581 82.6574C101.851 83.0116 105.209 80.1711 105.557 76.3129L119.294 77.5957L116.298 110.779C115.863 115.602 111.666 119.153 106.925 118.71L74.2997 115.663L75.561 101.691C71.7677 101.337 68.975 97.9218 69.3233 94.0635C69.6716 90.2053 73.029 87.3648 76.8223 87.719L78.0836 73.7471L91.8204 75.03C91.4721 78.8882 94.2648 82.3031 98.0581 82.6574Z" fill="#F9FAFC" stroke="#0057F2" stroke-width="3" stroke-linecap="round" stroke-linejoin="round"/><path d="M25.0439 14.7471C20.2115 14.7471 16.2939 18.6646 16.2939 23.4971V89.9971C16.2939 94.8296 20.2115 98.7471 25.0439 98.7471H58.2939V84.7471C54.428 84.7471 51.2939 81.6131 51.2939 77.7471C51.2939 73.8811 54.428 70.7471 58.2939 70.7471V56.7471H72.2939C72.2939 60.6131 75.4279 63.7471 79.2939 63.7471C83.1599 63.7471 86.2939 60.6131 86.2939 56.7471H100.294V23.4971C100.294 18.6646 96.3764 14.7471 91.5439 14.7471H25.0439Z" fill="#F9FAFC"/><path d="M58.2939 56.7471V70.7471C54.428 70.7471 51.2939 73.8811 51.2939 77.7471C51.2939 81.6131 54.428 84.7471 58.2939 84.7471V98.7471H25.0439C20.2115 98.7471 16.2939 94.8296 16.2939 89.9971V23.4971C16.2939 18.6646 20.2115 14.7471 25.0439 14.7471H91.5439C96.3764 14.7471 100.294 18.6646 100.294 23.4971V56.7471H86.2939C86.2939 60.6131 83.1599 63.7471 79.2939 63.7471C75.4279 63.7471 72.2939 60.6131 72.2939 56.7471H58.2939ZM58.2939 56.7471H44.2939C44.2939 52.8811 41.1599 49.7471 37.2939 49.7471C33.428 49.7471 30.2939 52.8811 30.2939 56.7471H16.2939M58.2939 56.7471V42.7471C62.1599 42.7471 65.2939 39.6131 65.2939 35.7471C65.2939 31.8811 62.1599 28.7471 58.2939 28.7471V14.7471" stroke="#2B2727" stroke-width="3" stroke-linecap="round" stroke-linejoin="round"/><path d="M92.0581 78.6574C95.8514 79.0116 99.2089 76.1711 99.5572 72.3129L113.294 73.5957L110.298 106.779C109.863 111.602 105.666 115.153 100.925 114.71L68.2997 111.663L69.561 97.691C65.7677 97.3367 62.975 93.9218 63.3233 90.0635C63.6716 86.2053 67.029 83.3648 70.8223 83.719L72.0836 69.7471L85.8204 71.03C85.4721 74.8882 88.2648 78.3031 92.0581 78.6574Z" fill="#F9FAFC" stroke="#2B2727" stroke-width="3" stroke-linecap="round" stroke-linejoin="round"/></g><defs><clipPath id="clip0_2839_5641"><rect width="128" height="128" fill="white" transform="translate(0.293945 0.74707)"/></clipPath></defs></svg>