<svg width="129" height="129" viewBox="0 0 129 129" fill="none" xmlns="http://www.w3.org/2000/svg"><g clip-path="url(#clip0_2839_5632)"><path fill-rule="evenodd" clip-rule="evenodd" d="M100.188 56.1511C100.258 55.3145 100.294 54.4681 100.294 53.6132C100.294 37.1183 86.9222 23.7466 70.4273 23.7466C53.9324 23.7466 40.5606 37.1183 40.5606 53.6132C40.5606 54.4309 40.5935 55.241 40.6579 56.042C29.873 60.5467 22.2939 71.1949 22.2939 83.6132C22.2939 100.108 35.6657 113.48 52.1606 113.48C58.9804 113.48 65.2662 111.194 70.2939 107.347C75.3217 111.194 81.6075 113.48 88.4273 113.48C104.922 113.48 118.294 100.108 118.294 83.6132C118.294 71.294 110.835 60.7169 100.188 56.1511Z" fill="#F9FAFC"/><path d="M100.188 56.1511L98.6929 56.0253C98.6387 56.669 99.0028 57.2751 99.5965 57.5297L100.188 56.1511ZM40.6579 56.042L41.2361 57.4262C41.8351 57.176 42.2052 56.5688 42.1531 55.9217L40.6579 56.042ZM70.2939 107.347L71.2055 106.156C70.6675 105.744 69.9204 105.744 69.3824 106.156L70.2939 107.347ZM98.7939 53.6132C98.7939 54.426 98.7598 55.2305 98.6929 56.0253L101.682 56.2769C101.756 55.3985 101.794 54.5101 101.794 53.6132H98.7939ZM70.4273 25.2466C86.0937 25.2466 98.7939 37.9468 98.7939 53.6132H101.794C101.794 36.2899 87.7506 22.2466 70.4273 22.2466V25.2466ZM42.0606 53.6132C42.0606 37.9468 54.7608 25.2466 70.4273 25.2466V22.2466C53.1039 22.2466 39.0606 36.2899 39.0606 53.6132H42.0606ZM42.1531 55.9217C42.0919 55.1606 42.0606 54.3907 42.0606 53.6132H39.0606C39.0606 54.4711 39.0951 55.3213 39.1628 56.1624L42.1531 55.9217ZM23.7939 83.6132C23.7939 71.8209 30.9899 61.7058 41.2361 57.4262L40.0798 54.6579C28.7562 59.3876 20.7939 70.5688 20.7939 83.6132H23.7939ZM52.1606 111.98C36.4941 111.98 23.7939 99.2797 23.7939 83.6132H20.7939C20.7939 100.937 34.8373 114.98 52.1606 114.98V111.98ZM69.3824 106.156C64.6072 109.81 58.6395 111.98 52.1606 111.98V114.98C59.3212 114.98 65.9252 112.579 71.2055 108.538L69.3824 106.156ZM88.4273 111.98C81.9484 111.98 75.9807 109.81 71.2055 106.156L69.3824 108.538C74.6627 112.579 81.2667 114.98 88.4273 114.98V111.98ZM116.794 83.6132C116.794 99.2797 104.094 111.98 88.4273 111.98V114.98C105.751 114.98 119.794 100.937 119.794 83.6132H116.794ZM99.5965 57.5297C109.713 61.8675 116.794 71.9151 116.794 83.6132H119.794C119.794 70.673 111.958 59.5662 100.779 54.7725L99.5965 57.5297Z" fill="#0057F2"/><circle cx="52.1606" cy="83.6128" r="29.8667" stroke="#0057F2" stroke-width="3" stroke-linecap="round" stroke-linejoin="round" stroke-dasharray="6 6"/><circle cx="88.4272" cy="83.6128" r="29.8667" stroke="#0057F2" stroke-width="3" stroke-linecap="round" stroke-linejoin="round" stroke-dasharray="6 6"/><circle cx="70.4272" cy="53.6132" r="29.8667" stroke="#0057F2" stroke-width="3" stroke-linecap="round" stroke-linejoin="round" stroke-dasharray="6 6"/><path fill-rule="evenodd" clip-rule="evenodd" d="M94.1876 52.1511C94.258 51.3145 94.2939 50.4681 94.2939 49.6132C94.2939 33.1183 80.9222 19.7466 64.4273 19.7466C47.9324 19.7466 34.5606 33.1183 34.5606 49.6132C34.5606 50.4309 34.5935 51.241 34.6579 52.042C23.873 56.5467 16.2939 67.1949 16.2939 79.6132C16.2939 96.1081 29.6657 109.48 46.1606 109.48C52.9804 109.48 59.2662 107.194 64.2939 103.347C69.3217 107.194 75.6075 109.48 82.4273 109.48C98.9222 109.48 112.294 96.1081 112.294 79.6132C112.294 67.294 104.835 56.7169 94.1876 52.1511Z" fill="#F9FAFC"/><path d="M94.1876 52.1511L92.6929 52.0253C92.6387 52.669 93.0028 53.2751 93.5965 53.5297L94.1876 52.1511ZM34.6579 52.042L35.2361 53.4262C35.8351 53.176 36.2052 52.5688 36.1531 51.9217L34.6579 52.042ZM64.2939 103.347L65.2055 102.156C64.6675 101.744 63.9204 101.744 63.3824 102.156L64.2939 103.347ZM92.7939 49.6132C92.7939 50.426 92.7598 51.2305 92.6929 52.0253L95.6824 52.2769C95.7563 51.3985 95.7939 50.5101 95.7939 49.6132H92.7939ZM64.4273 21.2466C80.0937 21.2466 92.7939 33.9468 92.7939 49.6132H95.7939C95.7939 32.2899 81.7506 18.2466 64.4273 18.2466V21.2466ZM36.0606 49.6132C36.0606 33.9468 48.7608 21.2466 64.4273 21.2466V18.2466C47.1039 18.2466 33.0606 32.2899 33.0606 49.6132H36.0606ZM36.1531 51.9217C36.0919 51.1606 36.0606 50.3907 36.0606 49.6132H33.0606C33.0606 50.4711 33.0951 51.3213 33.1628 52.1624L36.1531 51.9217ZM17.7939 79.6132C17.7939 67.8209 24.9899 57.7058 35.2361 53.4262L34.0798 50.6579C22.7562 55.3876 14.7939 66.5688 14.7939 79.6132H17.7939ZM46.1606 107.98C30.4941 107.98 17.7939 95.2797 17.7939 79.6132H14.7939C14.7939 96.9366 28.8373 110.98 46.1606 110.98V107.98ZM63.3824 102.156C58.6072 105.81 52.6395 107.98 46.1606 107.98V110.98C53.3212 110.98 59.9252 108.579 65.2055 104.538L63.3824 102.156ZM82.4273 107.98C75.9484 107.98 69.9807 105.81 65.2055 102.156L63.3824 104.538C68.6627 108.579 75.2667 110.98 82.4273 110.98V107.98ZM110.794 79.6132C110.794 95.2797 98.0938 107.98 82.4273 107.98V110.98C99.7506 110.98 113.794 96.9366 113.794 79.6132H110.794ZM93.5965 53.5297C103.713 57.8675 110.794 67.9151 110.794 79.6132H113.794C113.794 66.673 105.958 55.5662 94.7788 50.7725L93.5965 53.5297Z" fill="#2B2727"/><circle cx="46.1606" cy="79.6128" r="29.8667" stroke="#2B2727" stroke-width="3" stroke-linecap="round" stroke-linejoin="round" stroke-dasharray="6 6"/><circle cx="82.4272" cy="79.6128" r="29.8667" stroke="#2B2727" stroke-width="3" stroke-linecap="round" stroke-linejoin="round" stroke-dasharray="6 6"/><circle cx="64.4272" cy="49.6132" r="29.8667" stroke="#2B2727" stroke-width="3" stroke-linecap="round" stroke-linejoin="round" stroke-dasharray="6 6"/></g><defs><clipPath id="clip0_2839_5632"><rect width="128" height="128" fill="white" transform="translate(0.293945 0.74707)"/></clipPath></defs></svg>