<svg width="129" height="129" viewBox="0 0 129 129" fill="none" xmlns="http://www.w3.org/2000/svg"><g clip-path="url(#clip0_2839_5578)"><path d="M25.2939 34.2688C25.2939 29.8858 25.2939 27.6943 26.1417 26.0202C26.8874 24.5476 28.0772 23.3504 29.5407 22.6001C31.2044 21.7471 33.3824 21.7471 37.7384 21.7471H82.8495C87.2055 21.7471 89.3834 21.7471 91.0472 22.6001C92.5107 23.3504 93.7005 24.5476 94.4462 26.0202C95.2939 27.6943 95.2939 29.8858 95.2939 34.2688V99.2253C95.2939 103.608 95.2939 105.8 94.4462 107.474C93.7005 108.947 92.5107 110.144 91.0472 110.894C89.3834 111.747 87.2055 111.747 82.8495 111.747H37.7384C33.3824 111.747 31.2044 111.747 29.5407 110.894C28.0772 110.144 26.8874 108.947 26.1417 107.474C25.2939 105.8 25.2939 103.608 25.2939 99.2253V34.2688Z" fill="#F9FAFC" stroke="#0057F2" stroke-width="3" stroke-linejoin="round"/><path d="M54.2939 107.747H65.2939" stroke="#0057F2" stroke-linecap="round"/><path d="M60.2906 58.9159C56.2892 58.9159 52.9939 61.9309 52.5384 65.8136C52.5154 66.0097 52.4982 66.2071 52.4889 66.4068C52.4806 66.5867 52.6269 66.7327 52.8065 66.7327H53.9924C54.1721 66.7327 54.3169 66.5866 54.3284 66.4069C54.3412 66.2065 54.3647 66.009 54.395 65.8136C54.8378 62.9501 57.3057 60.7541 60.2906 60.7541C63.5885 60.7541 66.2606 63.4316 66.2606 66.7327C66.2606 70.0339 63.5885 72.7085 60.2906 72.7085H51.3318C51.0763 72.7085 50.9222 72.9893 51.0684 73.1993C51.375 73.6397 51.7118 74.0577 52.0769 74.4487C52.1374 74.5136 52.2224 74.5496 52.3109 74.5496H60.2906C64.6033 74.5496 68.0999 71.0497 68.0998 66.7327C68.0998 62.4159 64.6033 58.9159 60.2906 58.9159Z" fill="#2B2727"/><path d="M60.2906 55.4971C56.7944 55.4971 53.6701 57.0909 51.6059 59.5945C50.1672 61.3393 49.2712 63.5416 49.0858 65.7965C49.0853 65.8023 49.0833 65.8078 49.0829 65.8136C49.067 66.0105 49.0525 66.2078 49.0442 66.4067C49.0368 66.5867 49.1828 66.7327 49.3624 66.7327H50.5483C50.728 66.7327 50.8731 66.5867 50.8796 66.4067C50.8868 66.2075 50.9003 66.0102 50.9194 65.8136C51.3818 61.0402 55.4004 57.3067 60.2906 57.3067C65.4912 57.3067 69.7075 61.5271 69.7075 66.7327C69.7075 71.9385 65.4912 76.1589 60.2906 76.1588H55.1745C54.8519 76.1588 54.7377 76.5608 55.0229 76.7118C56.4353 77.4598 58.0268 77.9115 59.7156 77.9971H60.2906C66.1175 77.9971 70.9076 73.5642 71.4839 67.8838C71.5213 67.5146 71.543 67.1404 71.5439 66.7614C71.5439 66.3725 71.5223 65.9862 71.4839 65.6075C70.9076 59.9271 66.1175 55.4971 60.2906 55.4971Z" fill="#2B2727"/><path d="M60.2906 62.3634C58.1964 62.3634 56.451 63.8438 56.0283 65.8136C55.9867 66.0076 55.9555 66.2052 55.9389 66.407C55.9241 66.5865 56.071 66.7327 56.2506 66.7327H57.4394C57.619 66.7327 57.7625 66.5861 57.7867 66.4076C57.8146 66.2009 57.8684 66.0023 57.9421 65.8136C58.31 64.8724 59.2199 64.2044 60.2906 64.2045C61.6859 64.2045 62.8164 65.3361 62.8165 66.7327C62.8165 68.1294 61.6859 69.261 60.2906 69.2611H51.2139C51.1444 69.0066 51.0799 68.7419 51.007 68.4883C50.9557 68.3102 50.796 68.1872 50.6335 68.1872H49.4578C49.2973 68.1872 49.154 68.3745 49.1849 68.5519C49.3337 69.3459 49.5116 70.176 49.8325 70.9205C49.8826 71.0368 50.0053 71.0994 50.1204 71.0994H60.2906C62.7006 71.0994 64.6529 69.1452 64.6529 66.7327C64.6529 64.3204 62.7006 62.3634 60.2906 62.3634Z" fill="#2B2727"/><path d="M85.2939 75.0899C85.2939 70.7695 85.2939 68.6093 86.1114 66.9591C86.8304 65.5076 87.9778 64.3275 89.389 63.5879C90.9934 62.7471 93.0936 62.7471 97.2939 62.7471H103.294C107.494 62.7471 109.595 62.7471 111.199 63.5879C112.61 64.3275 113.757 65.5076 114.476 66.9591C115.294 68.6093 115.294 70.7695 115.294 75.0899V104.404C115.294 108.725 115.294 110.885 114.476 112.535C113.757 113.987 112.61 115.167 111.199 115.906C109.595 116.747 107.494 116.747 103.294 116.747H97.2939C93.0936 116.747 90.9934 116.747 89.389 115.906C87.9778 115.167 86.8304 113.987 86.1114 112.535C85.2939 110.885 85.2939 108.725 85.2939 104.404V75.0899Z" fill="#F9FAFC" stroke="#0057F2" stroke-width="3" stroke-linejoin="round"/><g clip-path="url(#clip1_2839_5578)"><path d="M100.792 86.6578C98.9584 86.6578 97.4481 88.0396 97.2393 89.8192C97.2288 89.9091 97.2209 89.9996 97.2166 90.0911C97.2128 90.1735 97.2799 90.2405 97.3622 90.2405H97.9057C97.9881 90.2405 98.0545 90.1735 98.0597 90.0911C98.0656 89.9993 98.0764 89.9088 98.0903 89.8192C98.2932 88.5068 99.4243 87.5003 100.792 87.5003C102.304 87.5003 103.529 88.7275 103.529 90.2405C103.529 91.7535 102.304 92.9794 100.792 92.9794H96.6863C96.5692 92.9794 96.4986 93.1081 96.5656 93.2043C96.7061 93.4062 96.8605 93.5978 97.0278 93.777C97.0555 93.8067 97.0945 93.8232 97.1351 93.8232H100.792C102.769 93.8232 104.372 92.2191 104.372 90.2405C104.372 88.2619 102.769 86.6578 100.792 86.6578Z" fill="#2B2727"/><path d="M100.792 85.0908C99.19 85.0908 97.758 85.8213 96.8119 86.9688C96.1525 87.7685 95.7419 88.7779 95.6569 89.8114C95.6566 89.814 95.6557 89.8166 95.6555 89.8192C95.6483 89.9095 95.6416 89.9999 95.6378 90.0911C95.6344 90.1736 95.7013 90.2405 95.7837 90.2405H96.3272C96.4095 90.2405 96.476 90.1736 96.479 90.0911C96.4823 89.9998 96.4885 89.9093 96.4973 89.8192C96.7092 87.6314 98.551 85.9202 100.792 85.9202C103.176 85.9202 105.108 87.8546 105.108 90.2405C105.108 92.6265 103.176 94.5608 100.792 94.5608H98.4476C98.2997 94.5608 98.2473 94.745 98.3781 94.8142C99.0254 95.1571 99.7548 95.3641 100.529 95.4033H100.792C103.463 95.4033 105.659 93.3716 105.923 90.7681C105.94 90.5988 105.95 90.4273 105.95 90.2536C105.95 90.0754 105.94 89.8983 105.923 89.7248C105.659 87.1213 103.463 85.0908 100.792 85.0908Z" fill="#2B2727"/><path d="M100.792 88.2379C99.8326 88.2379 99.0326 88.9164 98.8389 89.8192C98.8198 89.9081 98.8055 89.9987 98.7979 90.0912C98.7911 90.1735 98.8584 90.2405 98.9408 90.2405H99.4856C99.5679 90.2405 99.6337 90.1733 99.6448 90.0915C99.6576 89.9967 99.6822 89.9057 99.716 89.8192C99.8846 89.3879 100.302 89.0817 100.792 89.0817C101.432 89.0817 101.95 89.6004 101.95 90.2405C101.95 90.8806 101.432 91.3993 100.792 91.3993H96.6323C96.6004 91.2827 96.5708 91.1614 96.5374 91.0451C96.5139 90.9635 96.4407 90.9071 96.3663 90.9071H95.8274C95.7538 90.9071 95.6881 90.993 95.7023 91.0743C95.7705 91.4382 95.852 91.8187 95.9991 92.1599C96.0221 92.2132 96.0783 92.2419 96.1311 92.2419H100.792C101.897 92.2419 102.792 91.3462 102.792 90.2405C102.792 89.1348 101.897 88.2379 100.792 88.2379Z" fill="#2B2727"/></g><path d="M96.2939 68.8843H103.294" stroke="#0057F2" stroke-width="3" stroke-linecap="round"/><path d="M94.2939 112.257H105.294" stroke="#0057F2" stroke-linecap="round"/><path d="M19.2939 30.2688C19.2939 25.8858 19.2939 23.6943 20.1417 22.0202C20.8874 20.5476 22.0772 19.3504 23.5407 18.6001C25.2044 17.7471 27.3824 17.7471 31.7384 17.7471H76.8495C81.2055 17.7471 83.3834 17.7471 85.0472 18.6001C86.5107 19.3504 87.7005 20.5476 88.4462 22.0202C89.2939 23.6943 89.2939 25.8858 89.2939 30.2688V95.2253C89.2939 99.6084 89.2939 101.8 88.4462 103.474C87.7005 104.947 86.5107 106.144 85.0472 106.894C83.3834 107.747 81.2055 107.747 76.8495 107.747H31.7384C27.3824 107.747 25.2044 107.747 23.5407 106.894C22.0772 106.144 20.8874 104.947 20.1417 103.474C19.2939 101.8 19.2939 99.6084 19.2939 95.2253V30.2688Z" fill="#F9FAFC" stroke="#2B2727" stroke-width="3" stroke-linejoin="round"/><path d="M48.2939 103.747H59.2939" stroke="#2B2727" stroke-linecap="round"/><path d="M54.2906 54.9159C50.2892 54.9159 46.9939 57.9309 46.5384 61.8136C46.5154 62.0097 46.4982 62.2071 46.4889 62.4068C46.4806 62.5867 46.6269 62.7327 46.8065 62.7327H47.9924C48.1721 62.7327 48.3169 62.5866 48.3284 62.4069C48.3412 62.2065 48.3647 62.009 48.395 61.8136C48.8378 58.9501 51.3057 56.7541 54.2906 56.7541C57.5885 56.7541 60.2606 59.4316 60.2606 62.7327C60.2606 66.0339 57.5885 68.7085 54.2906 68.7085H45.3318C45.0763 68.7085 44.9222 68.9893 45.0684 69.1993C45.375 69.6397 45.7118 70.0577 46.0769 70.4487C46.1374 70.5136 46.2224 70.5496 46.3109 70.5496H54.2906C58.6033 70.5496 62.0999 67.0497 62.0998 62.7327C62.0998 58.4159 58.6033 54.9159 54.2906 54.9159Z" fill="#2B2727"/><path d="M54.2906 51.4971C50.7944 51.4971 47.6701 53.0909 45.6059 55.5945C44.1672 57.3393 43.2712 59.5416 43.0858 61.7965C43.0853 61.8023 43.0833 61.8078 43.0829 61.8136C43.067 62.0105 43.0525 62.2078 43.0442 62.4067C43.0368 62.5867 43.1828 62.7327 43.3624 62.7327H44.5483C44.728 62.7327 44.8731 62.5867 44.8796 62.4067C44.8868 62.2075 44.9003 62.0102 44.9194 61.8136C45.3818 57.0402 49.4004 53.3067 54.2906 53.3067C59.4912 53.3067 63.7075 57.5271 63.7075 62.7327C63.7075 67.9385 59.4912 72.1589 54.2906 72.1588H49.1745C48.8519 72.1588 48.7377 72.5608 49.0229 72.7118C50.4353 73.4598 52.0268 73.9115 53.7156 73.9971H54.2906C60.1175 73.9971 64.9076 69.5642 65.4839 63.8838C65.5213 63.5146 65.543 63.1404 65.5439 62.7614C65.5439 62.3725 65.5223 61.9862 65.4839 61.6075C64.9076 55.9271 60.1175 51.4971 54.2906 51.4971Z" fill="#2B2727"/><path d="M54.2906 58.3634C52.1964 58.3634 50.451 59.8438 50.0283 61.8136C49.9867 62.0076 49.9555 62.2052 49.9389 62.407C49.9241 62.5865 50.071 62.7327 50.2506 62.7327H51.4394C51.619 62.7327 51.7625 62.5861 51.7867 62.4076C51.8146 62.2009 51.8684 62.0023 51.9421 61.8136C52.31 60.8724 53.2199 60.2044 54.2906 60.2045C55.6859 60.2045 56.8164 61.3361 56.8165 62.7327C56.8165 64.1294 55.6859 65.261 54.2906 65.2611H45.2139C45.1444 65.0066 45.0799 64.7419 45.007 64.4883C44.9557 64.3102 44.796 64.1872 44.6335 64.1872H43.4578C43.2973 64.1872 43.154 64.3745 43.1849 64.5519C43.3337 65.3459 43.5116 66.176 43.8325 66.9205C43.8826 67.0368 44.0053 67.0994 44.1204 67.0994H54.2906C56.7006 67.0994 58.6529 65.1452 58.6529 62.7327C58.6529 60.3204 56.7006 58.3634 54.2906 58.3634Z" fill="#2B2727"/><path d="M79.2939 71.0899C79.2939 66.7695 79.2939 64.6093 80.1114 62.9591C80.8304 61.5076 81.9778 60.3275 83.389 59.5879C84.9934 58.7471 87.0936 58.7471 91.2939 58.7471H97.2939C101.494 58.7471 103.595 58.7471 105.199 59.5879C106.61 60.3275 107.757 61.5076 108.476 62.9591C109.294 64.6093 109.294 66.7695 109.294 71.0899V100.404C109.294 104.725 109.294 106.885 108.476 108.535C107.757 109.987 106.61 111.167 105.199 111.906C103.595 112.747 101.494 112.747 97.2939 112.747H91.2939C87.0936 112.747 84.9934 112.747 83.389 111.906C81.9778 111.167 80.8304 109.987 80.1114 108.535C79.2939 106.885 79.2939 104.725 79.2939 100.404V71.0899Z" fill="#F9FAFC" stroke="#2B2727" stroke-width="3" stroke-linejoin="round"/><g clip-path="url(#clip2_2839_5578)"><path d="M94.7924 82.6578C92.9584 82.6578 91.4481 84.0396 91.2393 85.8192C91.2288 85.9091 91.2209 85.9996 91.2166 86.0911C91.2128 86.1735 91.2799 86.2405 91.3622 86.2405H91.9057C91.9881 86.2405 92.0545 86.1735 92.0597 86.0911C92.0656 85.9993 92.0764 85.9088 92.0903 85.8192C92.2932 84.5068 93.4243 83.5003 94.7924 83.5003C96.3039 83.5003 97.5286 84.7275 97.5286 86.2405C97.5286 87.7535 96.3039 88.9794 94.7924 88.9794H90.6863C90.5692 88.9794 90.4986 89.1081 90.5656 89.2043C90.7061 89.4062 90.8605 89.5978 91.0278 89.777C91.0555 89.8067 91.0945 89.8232 91.1351 89.8232H94.7924C96.7691 89.8232 98.3717 88.2191 98.3716 86.2405C98.3716 84.2619 96.7691 82.6578 94.7924 82.6578Z" fill="#2B2727"/><path d="M94.7924 81.0908C93.19 81.0908 91.758 81.8213 90.8119 82.9688C90.1525 83.7685 89.7419 84.7779 89.6569 85.8114C89.6566 85.814 89.6557 85.8166 89.6555 85.8192C89.6483 85.9095 89.6416 85.9999 89.6378 86.0911C89.6344 86.1736 89.7013 86.2405 89.7837 86.2405H90.3272C90.4095 86.2405 90.476 86.1736 90.479 86.0911C90.4823 85.9998 90.4885 85.9093 90.4973 85.8192C90.7092 83.6314 92.551 81.9202 94.7924 81.9202C97.176 81.9202 99.1085 83.8546 99.1085 86.2405C99.1085 88.6265 97.176 90.5608 94.7924 90.5608H92.4476C92.2997 90.5608 92.2473 90.745 92.3781 90.8142C93.0254 91.1571 93.7548 91.3641 94.5289 91.4033H94.7924C97.4631 91.4033 99.6585 89.3716 99.9227 86.7681C99.9398 86.5988 99.9498 86.4273 99.9502 86.2536C99.9502 86.0754 99.9403 85.8983 99.9227 85.7248C99.6585 83.1213 97.4631 81.0908 94.7924 81.0908Z" fill="#2B2727"/><path d="M94.7924 84.2379C93.8326 84.2379 93.0326 84.9164 92.8389 85.8192C92.8198 85.9081 92.8055 85.9987 92.7979 86.0912C92.7911 86.1735 92.8584 86.2405 92.9408 86.2405H93.4856C93.5679 86.2405 93.6337 86.1733 93.6448 86.0915C93.6576 85.9967 93.6822 85.9057 93.716 85.8192C93.8846 85.3879 94.3017 85.0817 94.7924 85.0817C95.4319 85.0817 95.9501 85.6004 95.9501 86.2405C95.9501 86.8806 95.4319 87.3993 94.7924 87.3993H90.6323C90.6004 87.2827 90.5708 87.1614 90.5374 87.0451C90.5139 86.9635 90.4407 86.9071 90.3663 86.9071H89.8274C89.7538 86.9071 89.6881 86.993 89.7023 87.0743C89.7705 87.4382 89.852 87.8187 89.9991 88.1599C90.0221 88.2132 90.0783 88.2419 90.1311 88.2419H94.7924C95.897 88.2419 96.7918 87.3462 96.7918 86.2405C96.7918 85.1348 95.897 84.2379 94.7924 84.2379Z" fill="#2B2727"/></g><path d="M90.2939 64.8843H97.2939" stroke="#2B2727" stroke-width="3" stroke-linecap="round"/><path d="M88.2939 108.257H99.2939" stroke="#2B2727" stroke-linecap="round"/></g><defs><clipPath id="clip0_2839_5578"><rect width="128" height="128" fill="white" transform="translate(0.293945 0.74707)"/></clipPath><clipPath id="clip1_2839_5578"><rect width="11" height="11" fill="white" transform="translate(95.2939 84.7471)"/></clipPath><clipPath id="clip2_2839_5578"><rect width="11" height="11" fill="white" transform="translate(89.2939 80.7471)"/></clipPath></defs></svg>