<svg width="129" height="129" viewBox="0 0 129 129" fill="none" xmlns="http://www.w3.org/2000/svg"><g clip-path="url(#clip0_2839_5599)"><rect x="15.7939" y="22.2471" width="76" height="60" rx="21.5" fill="#F9FAFC" stroke="#0057F2" stroke-width="3" stroke-linecap="round" stroke-linejoin="round"/><path d="M54.2906 44.9159C50.2892 44.9159 46.9939 47.9309 46.5384 51.8136C46.5154 52.0097 46.4982 52.2071 46.4889 52.4068C46.4806 52.5867 46.6269 52.7327 46.8065 52.7327H47.9924C48.1721 52.7327 48.3169 52.5866 48.3284 52.4069C48.3412 52.2065 48.3647 52.009 48.395 51.8136C48.8378 48.9501 51.3057 46.7541 54.2906 46.7541C57.5885 46.7541 60.2606 49.4316 60.2606 52.7327C60.2606 56.0339 57.5885 58.7085 54.2906 58.7085H45.3318C45.0763 58.7085 44.9222 58.9893 45.0684 59.1993C45.375 59.6397 45.7118 60.0577 46.0769 60.4487C46.1374 60.5136 46.2224 60.5496 46.3109 60.5496H54.2906C58.6033 60.5496 62.0999 57.0497 62.0998 52.7327C62.0998 48.4159 58.6033 44.9159 54.2906 44.9159Z" fill="#2B2727"/><path d="M54.2906 41.4971C50.7944 41.4971 47.6701 43.0909 45.6059 45.5945C44.1672 47.3393 43.2712 49.5416 43.0858 51.7965C43.0853 51.8023 43.0833 51.8078 43.0829 51.8136C43.067 52.0105 43.0525 52.2078 43.0442 52.4067C43.0368 52.5867 43.1828 52.7327 43.3624 52.7327H44.5483C44.728 52.7327 44.8731 52.5867 44.8796 52.4067C44.8868 52.2075 44.9003 52.0102 44.9194 51.8136C45.3818 47.0402 49.4004 43.3067 54.2906 43.3067C59.4912 43.3067 63.7075 47.5271 63.7075 52.7327C63.7075 57.9385 59.4912 62.1589 54.2906 62.1588H49.1745C48.8519 62.1588 48.7377 62.5608 49.0229 62.7118C50.4353 63.4598 52.0268 63.9115 53.7156 63.9971H54.2906C60.1175 63.9971 64.9076 59.5642 65.4839 53.8838C65.5213 53.5146 65.543 53.1404 65.5439 52.7614C65.5439 52.3725 65.5223 51.9862 65.4839 51.6075C64.9076 45.9271 60.1175 41.4971 54.2906 41.4971Z" fill="#2B2727"/><path d="M54.2906 48.3634C52.1964 48.3634 50.451 49.8438 50.0283 51.8136C49.9867 52.0076 49.9555 52.2052 49.9389 52.407C49.9241 52.5865 50.071 52.7327 50.2506 52.7327H51.4394C51.619 52.7327 51.7625 52.5861 51.7867 52.4076C51.8146 52.2009 51.8684 52.0023 51.9421 51.8136C52.31 50.8724 53.2199 50.2044 54.2906 50.2045C55.6859 50.2045 56.8164 51.3361 56.8165 52.7327C56.8165 54.1294 55.6859 55.261 54.2906 55.2611H45.2139C45.1444 55.0066 45.0799 54.7419 45.007 54.4883C44.9557 54.3102 44.796 54.1872 44.6335 54.1872H43.4578C43.2973 54.1872 43.154 54.3745 43.1849 54.5519C43.3337 55.3459 43.5116 56.176 43.8325 56.9205C43.8826 57.0368 44.0053 57.0994 44.1204 57.0994H54.2906C56.7006 57.0994 58.6529 55.1452 58.6529 52.7327C58.6529 50.3204 56.7006 48.3634 54.2906 48.3634Z" fill="#2B2727"/><path d="M56.177 104.247L84.6772 114.748C86.1772 115.247 88.1772 115.247 90.1772 114.747L109.177 109.247C112.545 107.914 114.677 106.247 114.677 103.247L114.677 108.247C114.677 109.247 115.677 110.247 117.177 110.247L122.677 110.247C124.677 110.247 125.677 109.247 125.677 107.247L125.677 85.2471C125.677 83.7471 124.177 82.748 122.677 82.7471C121.177 82.7461 118.177 82.749 117.177 82.748C116.177 82.7471 114.677 83.7471 114.677 85.248L114.677 88.2471C114.677 84.248 108.677 83.2471 104.677 83.7463C100.986 84.2068 99.132 85.0308 97.5111 86.6744C96.572 87.6266 95.4754 88.4344 94.1832 88.779L81.1772 92.2472C80.7496 92.3328 80.3622 92.506 80.0169 92.7471L67.1772 88.2471C65.1772 87.7471 62.1772 88.2471 61.1772 90.2471C60.1772 92.2471 60.6772 95.1131 62.4101 95.7471L59.6772 94.7472C56.6772 93.7476 54.4771 95.7476 53.6772 97.7476C52.6771 100.248 53.6772 103.248 56.177 104.247Z" fill="#F9FAFC"/><path d="M84.1772 102.247L93.1772 100.248M84.1772 102.247C81.1772 102.747 78.6772 100.747 78.1772 98.7472C77.6591 96.6748 78.3435 93.9152 80.0169 92.7471M84.1772 102.247C82.7406 102.503 81.9282 102.627 80.1772 102.247L62.4101 95.7471M114.677 88.2471C114.677 84.248 108.677 83.2471 104.677 83.7463C100.986 84.2068 99.132 85.0308 97.5111 86.6744C96.572 87.6266 95.4754 88.4344 94.1832 88.779L81.1772 92.2472C80.7496 92.3327 80.3622 92.506 80.0169 92.7471M114.677 88.2471L114.677 103.247M114.677 88.2471C114.677 88.2471 114.677 86.749 114.677 85.248C114.677 83.7471 116.177 82.7471 117.177 82.748C118.177 82.749 121.177 82.7461 122.677 82.7471C124.177 82.748 125.677 83.7471 125.677 85.2471C125.677 86.7471 125.677 105.247 125.677 107.247C125.677 109.247 124.677 110.247 122.677 110.247C120.677 110.247 118.677 110.247 117.177 110.247C115.677 110.247 114.677 109.247 114.677 108.247C114.677 107.247 114.677 103.247 114.677 103.247M114.677 103.247C114.677 106.247 112.545 107.914 109.177 109.247L90.1772 114.747C88.1772 115.247 86.1772 115.247 84.6772 114.748L56.177 104.247C53.6772 103.248 52.6771 100.248 53.6772 97.7476C54.4771 95.7476 56.6772 93.7476 59.6772 94.7472L62.4101 95.7471M62.4101 95.7471C60.6772 95.1131 60.1772 92.2471 61.1772 90.2471C62.1772 88.2471 65.1772 87.7471 67.1772 88.2471L80.0169 92.7471" stroke="#0057F2" stroke-width="3" stroke-linecap="round" stroke-linejoin="round"/><rect x="9.79395" y="18.2471" width="76" height="60" rx="21.5" fill="#F9FAFC" stroke="#2B2727" stroke-width="3" stroke-linecap="round" stroke-linejoin="round"/><path d="M48.2906 40.9159C44.2892 40.9159 40.9939 43.9309 40.5384 47.8136C40.5154 48.0097 40.4982 48.2071 40.4889 48.4068C40.4806 48.5867 40.6269 48.7327 40.8065 48.7327H41.9924C42.1721 48.7327 42.3169 48.5866 42.3284 48.4069C42.3412 48.2065 42.3647 48.009 42.395 47.8136C42.8378 44.9501 45.3057 42.7541 48.2906 42.7541C51.5885 42.7541 54.2606 45.4316 54.2606 48.7327C54.2606 52.0339 51.5885 54.7085 48.2906 54.7085H39.3318C39.0763 54.7085 38.9222 54.9893 39.0684 55.1993C39.375 55.6397 39.7118 56.0577 40.0769 56.4487C40.1374 56.5136 40.2224 56.5496 40.3109 56.5496H48.2906C52.6033 56.5496 56.0999 53.0497 56.0998 48.7327C56.0998 44.4159 52.6033 40.9159 48.2906 40.9159Z" fill="#2B2727"/><path d="M48.2906 37.4971C44.7944 37.4971 41.6701 39.0909 39.6059 41.5945C38.1672 43.3393 37.2712 45.5416 37.0858 47.7965C37.0853 47.8023 37.0833 47.8078 37.0829 47.8136C37.067 48.0105 37.0525 48.2078 37.0442 48.4067C37.0368 48.5867 37.1828 48.7327 37.3624 48.7327H38.5483C38.728 48.7327 38.8731 48.5867 38.8796 48.4067C38.8868 48.2075 38.9003 48.0102 38.9194 47.8136C39.3818 43.0402 43.4004 39.3067 48.2906 39.3067C53.4912 39.3067 57.7075 43.5271 57.7075 48.7327C57.7075 53.9385 53.4912 58.1589 48.2906 58.1588H43.1745C42.8519 58.1588 42.7377 58.5608 43.0229 58.7118C44.4353 59.4598 46.0268 59.9115 47.7156 59.9971H48.2906C54.1175 59.9971 58.9076 55.5642 59.4839 49.8838C59.5213 49.5146 59.543 49.1404 59.5439 48.7614C59.5439 48.3725 59.5223 47.9862 59.4839 47.6075C58.9076 41.9271 54.1175 37.4971 48.2906 37.4971Z" fill="#2B2727"/><path d="M48.2906 44.3634C46.1964 44.3634 44.451 45.8438 44.0283 47.8136C43.9867 48.0076 43.9555 48.2052 43.9389 48.407C43.9241 48.5865 44.071 48.7327 44.2506 48.7327H45.4394C45.619 48.7327 45.7625 48.5861 45.7867 48.4076C45.8146 48.2009 45.8684 48.0023 45.9421 47.8136C46.31 46.8724 47.2199 46.2044 48.2906 46.2045C49.6859 46.2045 50.8164 47.3361 50.8165 48.7327C50.8165 50.1294 49.6859 51.261 48.2906 51.2611H39.2139C39.1444 51.0066 39.0799 50.7419 39.007 50.4883C38.9557 50.3102 38.796 50.1872 38.6335 50.1872H37.4578C37.2973 50.1872 37.154 50.3745 37.1849 50.5519C37.3337 51.3459 37.5116 52.176 37.8325 52.9205C37.8826 53.0368 38.0053 53.0994 38.1204 53.0994H48.2906C50.7006 53.0994 52.6529 51.1452 52.6529 48.7327C52.6529 46.3204 50.7006 44.3634 48.2906 44.3634Z" fill="#2B2727"/><path d="M50.177 100.247L78.6772 110.748C80.1772 111.247 82.1772 111.247 84.1772 110.747L103.177 105.247C106.545 103.914 108.677 102.247 108.677 99.2472L108.677 104.247C108.677 105.247 109.677 106.247 111.177 106.247L116.677 106.247C118.677 106.247 119.677 105.247 119.677 103.247L119.677 81.2471C119.677 79.7471 118.177 78.748 116.677 78.7471C115.177 78.7461 112.177 78.749 111.177 78.748C110.177 78.7471 108.677 79.7471 108.677 81.248L108.677 84.2471C108.677 80.248 102.677 79.2471 98.6772 79.7463C94.9861 80.2068 93.132 81.0308 91.5111 82.6744C90.572 83.6266 89.4754 84.4344 88.1832 84.779L75.1772 88.2472C74.7496 88.3328 74.3622 88.506 74.0169 88.7471L61.1772 84.2471C59.1772 83.7471 56.1772 84.2471 55.1772 86.2471C54.1772 88.2471 54.6772 91.1131 56.4101 91.7471L53.6772 90.7472C50.6772 89.7476 48.4771 91.7476 47.6772 93.7476C46.6771 96.248 47.6772 99.2477 50.177 100.247Z" fill="#F9FAFC"/><path d="M78.1772 98.2472L87.1772 96.2477M78.1772 98.2472C75.1772 98.7472 72.6772 96.7472 72.1772 94.7472C71.6591 92.6748 72.3435 89.9152 74.0169 88.7471M78.1772 98.2472C76.7406 98.5031 75.9282 98.6265 74.1772 98.2472L56.4101 91.7471M108.677 84.2471C108.677 80.248 102.677 79.2471 98.6772 79.7463C94.9861 80.2068 93.132 81.0308 91.5111 82.6744C90.572 83.6266 89.4754 84.4344 88.1832 84.779L75.1772 88.2472C74.7496 88.3327 74.3622 88.506 74.0169 88.7471M108.677 84.2471L108.677 99.2472M108.677 84.2471C108.677 84.2471 108.677 82.749 108.677 81.248C108.677 79.7471 110.177 78.7471 111.177 78.748C112.177 78.749 115.177 78.7461 116.677 78.7471C118.177 78.748 119.677 79.7471 119.677 81.2471C119.677 82.7471 119.677 101.247 119.677 103.247C119.677 105.247 118.677 106.247 116.677 106.247C114.677 106.247 112.677 106.247 111.177 106.247C109.677 106.247 108.677 105.247 108.677 104.247C108.677 103.247 108.677 99.2472 108.677 99.2472M108.677 99.2472C108.677 102.247 106.545 103.914 103.177 105.247L84.1772 110.747C82.1772 111.247 80.1772 111.247 78.6772 110.748L50.177 100.247C47.6772 99.2477 46.6771 96.248 47.6772 93.7476C48.4771 91.7476 50.6772 89.7476 53.6772 90.7472L56.4101 91.7471M56.4101 91.7471C54.6772 91.1131 54.1772 88.2471 55.1772 86.2471C56.1772 84.2471 59.1772 83.7471 61.1772 84.2471L74.0169 88.7471" stroke="#2B2727" stroke-width="3" stroke-linecap="round" stroke-linejoin="round"/></g><defs><clipPath id="clip0_2839_5599"><rect width="128" height="128" fill="white" transform="translate(0.293945 0.74707)"/></clipPath></defs></svg>