<svg width="129" height="129" viewBox="0 0 129 129" fill="none" xmlns="http://www.w3.org/2000/svg"><g clip-path="url(#clip0_2839_5605)"><path d="M39.425 107.639C39.425 106.811 38.7534 106.139 37.925 106.139H35.9802C34.7262 106.139 34.0258 104.692 34.8039 103.708L41.7891 94.8794C42.3897 94.1204 43.5412 94.1204 44.1418 94.8794L51.127 103.708C51.9051 104.692 51.2047 106.139 49.9507 106.139H48.1085C47.2801 106.139 46.6085 106.811 46.6085 107.639V113.747C46.6085 115.68 45.0415 117.247 43.1085 117.247H42.925C40.992 117.247 39.425 115.68 39.425 113.747V107.639ZM67.1981 98.3812C67.1981 97.5527 66.5265 96.8812 65.6981 96.8812H63.7533C62.4993 96.8812 61.7989 95.4339 62.577 94.4504L69.5622 85.6216C70.1627 84.8626 71.3143 84.8626 71.9149 85.6216L78.9001 94.4504C79.6782 95.4339 78.9777 96.8812 77.7238 96.8812H75.8816C75.0532 96.8812 74.3816 97.5527 74.3816 98.3812V113.747C74.3816 115.68 72.8146 117.247 70.8816 117.247H70.6981C68.7651 117.247 67.1981 115.68 67.1981 113.747V98.3812ZM94.9713 89.1238C94.9713 88.2953 94.2997 87.6238 93.4713 87.6238H91.5265C90.2725 87.6238 89.5721 86.1765 90.3501 85.193L97.3353 76.3642C97.9359 75.6052 99.0875 75.6052 99.688 76.3642L106.673 85.1931C107.451 86.1765 106.751 87.6238 105.497 87.6238H103.655C102.826 87.6238 102.155 88.2953 102.155 89.1238V113.748C102.155 115.681 100.588 117.248 98.6547 117.248H98.4713C96.5383 117.248 94.9713 115.681 94.9713 113.748V89.1238Z" fill="#F9FAFC" stroke="#0057F2" stroke-width="3" stroke-linejoin="round"/><path d="M80.2942 28.7471C80.2942 33.1653 76.7125 36.7471 72.2942 36.7471C67.8759 36.7471 64.2942 33.1653 64.2942 28.7471C64.2942 24.3288 67.8759 20.7471 72.2942 20.7471C76.7125 20.7471 80.2942 24.3288 80.2942 28.7471Z" fill="#F9FAFC"/><path d="M51.6157 58.7659C50.5111 56.8527 51.1666 54.4063 53.0798 53.3018L89.8575 32.0681C91.7707 30.9635 94.2171 31.619 95.3216 33.5322C96.4262 35.4454 95.7707 37.8917 93.8575 38.9963L78.2942 47.9818V56.6844L90.606 49.5762C92.5192 48.4716 94.9655 49.1271 96.0701 51.0403C96.2119 51.2859 96.3247 51.5403 96.4095 51.7995C96.539 52.1931 96.6091 52.6136 96.6091 53.0506V66.1551C96.6091 68.3642 94.8182 70.1551 92.6091 70.1551C90.3999 70.1551 88.6091 68.3642 88.6091 66.1551V59.9667L57.8282 77.738C55.915 78.8426 53.4687 78.1871 52.3641 76.2739C51.2595 74.3608 51.915 71.9144 53.8282 70.8098L70.2942 61.3032V52.6006L57.0798 60.23C55.1666 61.3345 52.7202 60.679 51.6157 58.7659Z" fill="#F9FAFC"/><path d="M80.2942 28.7471C80.2942 33.1653 76.7125 36.7471 72.2942 36.7471C67.8759 36.7471 64.2942 33.1653 64.2942 28.7471C64.2942 24.3288 67.8759 20.7471 72.2942 20.7471C76.7125 20.7471 80.2942 24.3288 80.2942 28.7471Z" stroke="#0057F2" stroke-width="3"/><path d="M51.6157 58.7659C50.5111 56.8527 51.1666 54.4063 53.0798 53.3018L89.8575 32.0681C91.7707 30.9635 94.2171 31.619 95.3216 33.5322C96.4262 35.4454 95.7707 37.8917 93.8575 38.9963L78.2942 47.9818V56.6844L90.606 49.5762C92.5192 48.4716 94.9655 49.1271 96.0701 51.0403C96.2119 51.2859 96.3247 51.5403 96.4095 51.7995C96.539 52.1931 96.6091 52.6136 96.6091 53.0506V66.1551C96.6091 68.3642 94.8182 70.1551 92.6091 70.1551C90.3999 70.1551 88.6091 68.3642 88.6091 66.1551V59.9667L57.8282 77.738C55.915 78.8426 53.4687 78.1871 52.3641 76.2739C51.2595 74.3608 51.915 71.9144 53.8282 70.8098L70.2942 61.3032V52.6006L57.0798 60.23C55.1666 61.3345 52.7202 60.679 51.6157 58.7659Z" stroke="#0057F2" stroke-width="3"/><path d="M30.9952 67.4973C30.5809 66.7799 30.8268 65.8625 31.5442 65.4483L38.4724 61.4483C39.1898 61.0341 40.1072 61.2799 40.5214 61.9973C40.9357 62.7148 40.6898 63.6321 39.9724 64.0464L33.0442 68.0464C32.3268 68.4606 31.4094 68.2148 30.9952 67.4973Z" fill="#0057F2"/><path d="M33.9952 87.4973C33.5809 86.7799 33.8268 85.8625 34.5442 85.4483L41.4724 81.4483C42.1898 81.0341 43.1072 81.2799 43.5214 81.9973C43.9357 82.7148 43.6898 83.6321 42.9724 84.0464L36.0442 88.0464C35.3268 88.4606 34.4094 88.2148 33.9952 87.4973Z" fill="#0057F2"/><path d="M29.5442 77.4483C28.8268 77.8625 28.5809 78.7799 28.9952 79.4973C29.4094 80.2148 30.3268 80.4606 31.0442 80.0464L44.9006 72.0464C45.618 71.6321 45.8639 70.7148 45.4496 69.9973C45.0354 69.2799 44.118 69.0341 43.4006 69.4483L29.5442 77.4483Z" fill="#0057F2"/><path d="M33.425 103.639C33.425 102.811 32.7534 102.139 31.925 102.139H29.9802C28.7262 102.139 28.0258 100.692 28.8039 99.7083L35.7891 90.8794C36.3897 90.1204 37.5412 90.1204 38.1418 90.8794L45.127 99.7083C45.9051 100.692 45.2047 102.139 43.9507 102.139H42.1085C41.2801 102.139 40.6085 102.811 40.6085 103.639V109.747C40.6085 111.68 39.0415 113.247 37.1085 113.247H36.925C34.992 113.247 33.425 111.68 33.425 109.747V103.639ZM61.1981 94.3812C61.1981 93.5527 60.5265 92.8812 59.6981 92.8812H57.7533C56.4993 92.8812 55.7989 91.4339 56.577 90.4504L63.5622 81.6216C64.1627 80.8626 65.3143 80.8626 65.9149 81.6216L72.9001 90.4504C73.6782 91.4339 72.9777 92.8812 71.7238 92.8812H69.8816C69.0532 92.8812 68.3816 93.5527 68.3816 94.3812V109.747C68.3816 111.68 66.8146 113.247 64.8816 113.247H64.6981C62.7651 113.247 61.1981 111.68 61.1981 109.747V94.3812ZM88.9713 85.1238C88.9713 84.2953 88.2997 83.6238 87.4713 83.6238H85.5265C84.2725 83.6238 83.5721 82.1765 84.3501 81.193L91.3353 72.3642C91.9359 71.6052 93.0875 71.6052 93.688 72.3642L100.673 81.1931C101.451 82.1765 100.751 83.6238 99.4969 83.6238H97.6547C96.8263 83.6238 96.1547 84.2953 96.1547 85.1238V109.748C96.1547 111.681 94.5877 113.248 92.6547 113.248H92.4713C90.5383 113.248 88.9713 111.681 88.9713 109.748V85.1238Z" fill="#F9FAFC" stroke="#2B2727" stroke-width="3" stroke-linejoin="round"/><path d="M74.2942 24.7471C74.2942 29.1653 70.7125 32.7471 66.2942 32.7471C61.8759 32.7471 58.2942 29.1653 58.2942 24.7471C58.2942 20.3288 61.8759 16.7471 66.2942 16.7471C70.7125 16.7471 74.2942 20.3288 74.2942 24.7471Z" fill="#F9FAFC"/><path d="M45.6157 54.7659C44.5111 52.8527 45.1666 50.4063 47.0798 49.3018L83.8575 28.0681C85.7707 26.9635 88.2171 27.619 89.3216 29.5322C90.4262 31.4454 89.7707 33.8917 87.8575 34.9963L72.2942 43.9818V52.6844L84.606 45.5762C86.5192 44.4716 88.9655 45.1271 90.0701 47.0403C90.2119 47.2859 90.3247 47.5403 90.4095 47.7995C90.539 48.1931 90.6091 48.6136 90.6091 49.0506V62.1551C90.6091 64.3642 88.8182 66.1551 86.6091 66.1551C84.3999 66.1551 82.6091 64.3642 82.6091 62.1551V55.9667L51.8282 73.738C49.915 74.8426 47.4687 74.1871 46.3641 72.2739C45.2595 70.3608 45.915 67.9144 47.8282 66.8098L64.2942 57.3032V48.6006L51.0798 56.23C49.1666 57.3345 46.7202 56.679 45.6157 54.7659Z" fill="#F9FAFC"/><path d="M74.2942 24.7471C74.2942 29.1653 70.7125 32.7471 66.2942 32.7471C61.8759 32.7471 58.2942 29.1653 58.2942 24.7471C58.2942 20.3288 61.8759 16.7471 66.2942 16.7471C70.7125 16.7471 74.2942 20.3288 74.2942 24.7471Z" stroke="#2B2727" stroke-width="3"/><path d="M45.6157 54.7659C44.5111 52.8527 45.1666 50.4063 47.0798 49.3018L83.8575 28.0681C85.7707 26.9635 88.2171 27.619 89.3216 29.5322C90.4262 31.4454 89.7707 33.8917 87.8575 34.9963L72.2942 43.9818V52.6844L84.606 45.5762C86.5192 44.4716 88.9655 45.1271 90.0701 47.0403C90.2119 47.2859 90.3247 47.5403 90.4095 47.7995C90.539 48.1931 90.6091 48.6136 90.6091 49.0506V62.1551C90.6091 64.3642 88.8182 66.1551 86.6091 66.1551C84.3999 66.1551 82.6091 64.3642 82.6091 62.1551V55.9667L51.8282 73.738C49.915 74.8426 47.4687 74.1871 46.3641 72.2739C45.2595 70.3608 45.915 67.9144 47.8282 66.8098L64.2942 57.3032V48.6006L51.0798 56.23C49.1666 57.3345 46.7202 56.679 45.6157 54.7659Z" stroke="#2B2727" stroke-width="3"/><path d="M24.9952 63.4973C24.5809 62.7799 24.8268 61.8625 25.5442 61.4483L32.4724 57.4483C33.1898 57.0341 34.1072 57.2799 34.5214 57.9973C34.9357 58.7148 34.6898 59.6321 33.9724 60.0464L27.0442 64.0464C26.3268 64.4606 25.4094 64.2148 24.9952 63.4973Z" fill="#2B2727"/><path d="M27.9952 83.4973C27.5809 82.7799 27.8268 81.8625 28.5442 81.4483L35.4724 77.4483C36.1898 77.0341 37.1072 77.2799 37.5214 77.9973C37.9357 78.7148 37.6898 79.6321 36.9724 80.0464L30.0442 84.0464C29.3268 84.4606 28.4094 84.2148 27.9952 83.4973Z" fill="#2B2727"/><path d="M23.5442 73.4483C22.8268 73.8625 22.5809 74.7799 22.9952 75.4973C23.4094 76.2148 24.3268 76.4606 25.0442 76.0464L38.9006 68.0464C39.618 67.6321 39.8639 66.7148 39.4496 65.9973C39.0354 65.2799 38.118 65.0341 37.4006 65.4483L23.5442 73.4483Z" fill="#2B2727"/></g><defs><clipPath id="clip0_2839_5605"><rect width="128" height="128" fill="white" transform="translate(0.293945 0.74707)"/></clipPath></defs></svg>