<svg width="129" height="129" viewBox="0 0 129 129" fill="none" xmlns="http://www.w3.org/2000/svg"><g clip-path="url(#clip0_2839_5593)"><path d="M74.4416 69.1961C75.4457 77.5897 73.5016 83.3708 69.9367 87.2736C66.3313 91.2208 60.8569 93.48 54.3727 94.3613C48.099 95.214 41.2092 93.2637 36.4731 89.1515C31.8026 85.0963 29.2086 78.9399 31.3661 71.1071C32.8008 65.8987 34.6998 62.6013 36.8521 58.8642C37.3763 57.9539 37.9156 57.0175 38.4668 56.021C41.2898 50.9181 44.2121 44.5647 46.5417 32.7735C46.9332 30.7921 49.0862 30.0644 50.3756 31.1273C61.9615 40.6781 72.6871 54.5281 74.4416 69.1961Z" fill="#F9FAFC" stroke="#0057F2" stroke-width="3" stroke-linejoin="round"/><path d="M54.2943 81.7471C54.2943 81.7471 55.2943 101.247 47.7502 109.88" stroke="#0057F2" stroke-width="3" stroke-linecap="round"/><path d="M108.959 93.3773C106.652 101.693 102.419 106.331 97.2626 108.519C92.0342 110.737 85.5863 110.553 78.6852 108.638C71.9759 106.777 65.786 101.991 62.6415 96.0928C59.5435 90.2815 59.3857 83.4022 64.6388 76.9466C68.143 72.6403 71.357 70.3323 74.9985 67.7173C75.9193 67.0561 76.8675 66.3752 77.8546 65.6375C82.7546 61.9751 88.2658 57.1275 95.3713 46.7621C96.471 45.1579 98.6622 45.2921 99.488 46.7263C107.549 60.7259 113.056 78.6112 108.959 93.3773Z" fill="#F9FAFC" stroke="#0057F2" stroke-width="3" stroke-linejoin="round"/><path d="M84.2935 97.7474C84.2935 97.7474 77.2936 115.747 65.8938 120.444" stroke="#0057F2" stroke-width="3" stroke-linecap="round"/><path d="M68.4416 65.1961C69.4457 73.5897 67.5016 79.3708 63.9367 83.2736C60.3313 87.2208 54.8569 89.48 48.3727 90.3613C42.099 91.214 35.2092 89.2637 30.4731 85.1515C25.8026 81.0963 23.2086 74.9399 25.3661 67.1071C26.8008 61.8987 28.6998 58.6013 30.8521 54.8642C31.3763 53.9539 31.9156 53.0175 32.4668 52.021C35.2898 46.9181 38.2121 40.5647 40.5417 28.7735C40.9332 26.7921 43.0862 26.0644 44.3756 27.1273C55.9615 36.6781 66.6871 50.5281 68.4416 65.1961Z" fill="#F9FAFC" stroke="#2B2727" stroke-width="3" stroke-linejoin="round"/><path d="M48.2943 77.7471C48.2943 77.7471 49.2943 97.2471 41.7502 105.88" stroke="#2B2727" stroke-width="3" stroke-linecap="round"/><path d="M102.959 89.3773C100.652 97.6931 96.4193 102.331 91.2626 104.519C86.0342 106.737 79.5863 106.553 72.6852 104.638C65.9759 102.777 59.786 97.9914 56.6415 92.0928C53.5435 86.2815 53.3857 79.4022 58.6388 72.9466C62.143 68.6403 65.357 66.3323 68.9985 63.7173C69.9193 63.0561 70.8675 62.3752 71.8546 61.6375C76.7546 57.9751 82.2658 53.1275 89.3713 42.7621C90.471 41.1579 92.6622 41.2921 93.488 42.7263C101.549 56.7259 107.056 74.6112 102.959 89.3773Z" fill="#F9FAFC" stroke="#2B2727" stroke-width="3" stroke-linejoin="round"/><path d="M78.2935 93.7474C78.2935 93.7474 71.2936 111.747 59.8938 116.444" stroke="#2B2727" stroke-width="3" stroke-linecap="round"/></g><defs><clipPath id="clip0_2839_5593"><rect width="128" height="128" fill="white" transform="translate(0.293945 0.74707)"/></clipPath></defs></svg>