<svg width="129" height="129" viewBox="0 0 129 129" fill="none" xmlns="http://www.w3.org/2000/svg"><g clip-path="url(#clip0_2839_5635)"><rect x="23.7939" y="29.2471" width="85" height="67" rx="10.5" fill="#F9FAFC" stroke="#0057F2" stroke-width="3"/><path d="M35.2109 43.2471H53.2943M45.2939 53.2471H63.3773M67.2939 63.2471H85.3773M37.9609 73.2471H56.0443M59.0439 80.2471H77.1273M81.9609 88.2471H95.4609" stroke="#0057F2" stroke-width="3" stroke-linecap="round"/><path d="M31.7939 37.7471V88.7471M41.7939 37.7471V88.7471M51.7939 37.7471V88.7471M61.7939 37.7471V88.7471M71.7939 37.7471V88.7471M81.7939 37.7471V88.7471M91.7939 37.7471V88.7471M101.794 37.7471V88.7471" stroke="#2B2727" stroke-width="0.5" stroke-linecap="round"/><path d="M102.294 38.6045L31.2939 38.6045M102.294 48.4616L31.2939 48.4616M102.294 58.3188L31.2939 58.3188M102.294 68.1759L31.2939 68.1759M102.294 78.0331L31.2939 78.0331M102.294 87.8902L31.2939 87.8902" stroke="#2B2727" stroke-width="0.5" stroke-linecap="round"/><rect x="48.7939" y="76.2471" width="68.7608" height="31.7931" rx="4.5" fill="#F9FAFC" stroke="#0057F2" stroke-width="3"/><rect x="54.3174" y="81.771" width="4.43642" height="4.43642" rx="1.5" stroke="#0057F2"/><rect x="61.9287" y="81.771" width="4.43642" height="4.43642" rx="1.5" stroke="#0057F2"/><rect x="69.5391" y="81.771" width="4.43642" height="4.43642" rx="1.5" stroke="#0057F2"/><rect x="77.1504" y="81.771" width="4.43642" height="4.43642" rx="1.5" stroke="#0057F2"/><rect x="84.7617" y="81.771" width="4.43642" height="4.43642" rx="1.5" stroke="#0057F2"/><rect x="92.373" y="81.771" width="4.43642" height="4.43642" rx="1.5" stroke="#0057F2"/><rect x="99.9834" y="81.771" width="4.43642" height="4.43642" rx="1.5" stroke="#0057F2"/><rect x="107.595" y="81.771" width="4.43642" height="4.43642" rx="1.5" stroke="#0057F2"/><rect x="54.3174" y="89.3818" width="4.43642" height="4.43642" rx="1.5" stroke="#0057F2"/><rect x="61.9287" y="89.3818" width="4.43642" height="4.43642" rx="1.5" stroke="#0057F2"/><rect x="69.5391" y="89.3818" width="4.43642" height="4.43642" rx="1.5" stroke="#0057F2"/><rect x="77.1504" y="89.3818" width="4.43642" height="4.43642" rx="1.5" stroke="#0057F2"/><rect x="84.7617" y="89.3818" width="4.43642" height="4.43642" rx="1.5" stroke="#0057F2"/><rect x="92.3721" y="89.3818" width="4.43642" height="4.43642" rx="1.5" stroke="#0057F2"/><rect x="99.9834" y="89.3818" width="4.43642" height="4.43642" rx="1.5" stroke="#0057F2"/><rect x="107.595" y="89.3818" width="4.43642" height="4.43642" rx="1.5" stroke="#0057F2"/><rect x="54.3174" y="96.9932" width="4.43642" height="4.43642" rx="1.5" stroke="#0057F2"/><rect x="61.9287" y="96.9932" width="42.4914" height="4.43642" rx="1.5" stroke="#0057F2"/><rect x="107.595" y="96.9927" width="4.43642" height="4.43642" rx="1.5" stroke="#0057F2"/><rect x="17.7939" y="25.2471" width="85" height="67" rx="10.5" fill="#F9FAFC" stroke="#2B2727" stroke-width="3"/><path d="M29.2109 39.2471H47.2943M39.2939 49.2471H57.3773M61.2939 59.2471H79.3773M31.9609 69.2471H50.0443M53.0439 76.2471H71.1273M75.9609 84.2471H89.4609" stroke="#2B2727" stroke-width="3" stroke-linecap="round"/><path d="M25.7939 33.7471V84.7471M35.7939 33.7471V84.7471M45.7939 33.7471V84.7471M55.7939 33.7471V84.7471M65.7939 33.7471V84.7471M75.7939 33.7471V84.7471M85.7939 33.7471V84.7471M95.7939 33.7471V84.7471" stroke="#2B2727" stroke-width="0.5" stroke-linecap="round"/><path d="M96.2939 34.6045L25.2939 34.6045M96.2939 44.4616L25.2939 44.4616M96.2939 54.3188L25.2939 54.3188M96.2939 64.1759L25.2939 64.1759M96.2939 74.0331L25.2939 74.0331M96.2939 83.8902L25.2939 83.8902" stroke="#2B2727" stroke-width="0.5" stroke-linecap="round"/><rect x="42.7939" y="72.2471" width="68.7608" height="31.7931" rx="4.5" fill="#F9FAFC" stroke="#2B2727" stroke-width="3"/><rect x="48.3174" y="77.771" width="4.43642" height="4.43642" rx="1.5" stroke="#2B2727"/><rect x="55.9287" y="77.771" width="4.43642" height="4.43642" rx="1.5" stroke="#2B2727"/><rect x="63.5391" y="77.771" width="4.43642" height="4.43642" rx="1.5" stroke="#2B2727"/><rect x="71.1504" y="77.771" width="4.43642" height="4.43642" rx="1.5" stroke="#2B2727"/><rect x="78.7617" y="77.771" width="4.43642" height="4.43642" rx="1.5" stroke="#2B2727"/><rect x="86.373" y="77.771" width="4.43642" height="4.43642" rx="1.5" stroke="#2B2727"/><rect x="93.9834" y="77.771" width="4.43642" height="4.43642" rx="1.5" stroke="#2B2727"/><rect x="101.595" y="77.771" width="4.43642" height="4.43642" rx="1.5" stroke="#2B2727"/><rect x="48.3174" y="85.3818" width="4.43642" height="4.43642" rx="1.5" stroke="#2B2727"/><rect x="55.9287" y="85.3818" width="4.43642" height="4.43642" rx="1.5" stroke="#2B2727"/><rect x="63.5391" y="85.3818" width="4.43642" height="4.43642" rx="1.5" stroke="#2B2727"/><rect x="71.1504" y="85.3818" width="4.43642" height="4.43642" rx="1.5" stroke="#2B2727"/><rect x="78.7617" y="85.3818" width="4.43642" height="4.43642" rx="1.5" stroke="#2B2727"/><rect x="86.3721" y="85.3818" width="4.43642" height="4.43642" rx="1.5" stroke="#2B2727"/><rect x="93.9834" y="85.3818" width="4.43642" height="4.43642" rx="1.5" stroke="#2B2727"/><rect x="101.595" y="85.3818" width="4.43642" height="4.43642" rx="1.5" stroke="#2B2727"/><rect x="48.3174" y="92.9932" width="4.43642" height="4.43642" rx="1.5" stroke="#2B2727"/><rect x="55.9287" y="92.9932" width="42.4914" height="4.43642" rx="1.5" stroke="#2B2727"/><rect x="101.595" y="92.9927" width="4.43642" height="4.43642" rx="1.5" stroke="#2B2727"/></g><defs><clipPath id="clip0_2839_5635"><rect width="128" height="128" fill="white" transform="translate(0.293945 0.74707)"/></clipPath></defs></svg>