<svg width="129" height="129" viewBox="0 0 129 129" fill="none" xmlns="http://www.w3.org/2000/svg"><g clip-path="url(#clip0_2839_5581)"><path d="M17.2939 35.8643V88.3643C17.2939 93.1967 20.7199 97.1143 24.9461 97.1143H57.7939L75.2939 27.1143H24.9461C20.7199 27.1143 17.2939 31.0318 17.2939 35.8643Z" fill="#F9FAFC"/><path d="M75.2939 27.1143H24.9461C20.7199 27.1143 17.2939 31.0318 17.2939 35.8643V88.3643C17.2939 93.1967 20.7199 97.1143 24.9461 97.1143H57.7939" stroke="#0057F2" stroke-width="3" stroke-linecap="round" stroke-linejoin="round"/><g clip-path="url(#clip1_2839_5581)"><rect width="12" height="12" transform="translate(26.2939 34.7471)" fill="#F9FAFC"/><path d="M32.2923 36.8315C30.2916 36.8315 28.6439 38.339 28.4162 40.2803C28.4047 40.3784 28.3961 40.4771 28.3914 40.5769C28.3872 40.6669 28.4604 40.7399 28.5502 40.7399H29.1432C29.233 40.7399 29.3054 40.6668 29.3112 40.577C29.3176 40.4768 29.3293 40.3781 29.3445 40.2803C29.5659 38.8486 30.7998 37.7506 32.2923 37.7506C33.9412 37.7506 35.2773 39.0893 35.2773 40.7399C35.2773 42.3905 33.9412 43.7278 32.2923 43.7278H27.8129C27.6851 43.7278 27.6081 43.8682 27.6812 43.9732C27.8345 44.1934 28.0029 44.4024 28.1854 44.5979C28.2157 44.6303 28.2581 44.6484 28.3024 44.6484H32.2923C34.4486 44.6484 36.1969 42.8984 36.1969 40.7399C36.1969 38.5815 34.4486 36.8315 32.2923 36.8315Z" fill="#2B2727"/><path d="M32.2923 35.1221C30.5442 35.1221 28.982 35.919 27.9499 37.1708C27.2306 38.0432 26.7826 39.1443 26.6899 40.2718C26.6896 40.2747 26.6886 40.2774 26.6884 40.2803C26.6805 40.3788 26.6732 40.4774 26.6691 40.5769C26.6654 40.6669 26.7383 40.7399 26.8282 40.7399H27.4211C27.511 40.7399 27.5835 40.6669 27.5868 40.5769C27.5904 40.4773 27.5971 40.3786 27.6067 40.2803C27.8379 37.8936 29.8471 36.0269 32.2923 36.0269C34.8926 36.0269 37.0007 38.1371 37.0007 40.7399C37.0007 43.3428 34.8926 45.453 32.2923 45.4529H29.7342C29.5729 45.4529 29.5158 45.6539 29.6584 45.7294C30.3646 46.1034 31.1604 46.3293 32.0048 46.3721H32.2923C35.2057 46.3721 37.6008 44.1556 37.8889 41.3154C37.9076 41.1308 37.9185 40.9437 37.9189 40.7542C37.9189 40.5598 37.9081 40.3666 37.8889 40.1773C37.6008 37.3371 35.2057 35.1221 32.2923 35.1221Z" fill="#2B2727"/><path d="M32.2923 38.5552C31.2452 38.5552 30.3725 39.2955 30.1611 40.2803C30.1403 40.3773 30.1247 40.4761 30.1164 40.577C30.109 40.6668 30.1825 40.7399 30.2723 40.7399H30.8667C30.9565 40.7399 31.0282 40.6666 31.0403 40.5774C31.0543 40.474 31.0812 40.3747 31.118 40.2803C31.302 39.8098 31.7569 39.4757 32.2923 39.4758C32.9899 39.4758 33.5552 40.0416 33.5552 40.7399C33.5552 41.4382 32.9899 42.004 32.2923 42.0041H27.7539C27.7192 41.8768 27.6869 41.7445 27.6505 41.6177C27.6248 41.5287 27.545 41.4671 27.4637 41.4671H26.8759C26.7956 41.4671 26.724 41.5608 26.7394 41.6495C26.8138 42.0465 26.9028 42.4615 27.0632 42.8338C27.0883 42.892 27.1496 42.9232 27.2072 42.9232H32.2923C33.4973 42.9232 34.4734 41.9461 34.4734 40.7399C34.4734 39.5337 33.4973 38.5552 32.2923 38.5552Z" fill="#2B2727"/></g><path d="M49.5537 41.1143H61.6114M69.6499 41.1143H71.6883" stroke="#0057F2" stroke-width="2" stroke-linecap="round"/><path d="M27.2939 75.1471C27.2939 72.9069 27.2939 71.7868 27.7299 70.9311C28.1134 70.1785 28.7253 69.5665 29.478 69.1831C30.3336 68.7471 31.4537 68.7471 33.6939 68.7471H41.8939C44.1342 68.7471 45.2543 68.7471 46.1099 69.1831C46.8626 69.5665 47.4745 70.1785 47.858 70.9311C48.2939 71.7868 48.2939 72.9069 48.2939 75.1471V80.3471C48.2939 82.5873 48.2939 83.7074 47.858 84.563C47.4745 85.3157 46.8626 85.9276 46.1099 86.3111C45.2543 86.7471 44.1342 86.7471 41.8939 86.7471H33.6939C31.4537 86.7471 30.3336 86.7471 29.478 86.3111C28.7253 85.9276 28.1134 85.3157 27.7299 84.563C27.2939 83.7074 27.2939 82.5873 27.2939 80.3471V75.1471Z" fill="#F9FAFC"/><path d="M69.7939 48.7471H33.6939C31.4537 48.7471 30.3336 48.7471 29.478 49.183C28.7253 49.5665 28.1134 50.1785 27.7299 50.9311C27.2939 51.7868 27.2939 52.9069 27.2939 55.1471V58.3471C27.2939 60.5873 27.2939 61.7074 27.7299 62.563C28.1134 63.3157 28.7253 63.9276 29.478 64.3111C30.3336 64.7471 31.4537 64.7471 33.6939 64.7471H65.7939M64.7939 68.7471H58.6939C56.4537 68.7471 55.3336 68.7471 54.478 69.1831C53.7253 69.5665 53.1134 70.1785 52.7299 70.9311C52.2939 71.7868 52.2939 72.9069 52.2939 75.1471V80.3471C52.2939 82.5873 52.2939 83.7074 52.7299 84.563C53.1134 85.3157 53.7253 85.9276 54.478 86.3111C55.3336 86.7471 56.4537 86.7471 58.6939 86.7471H60.2939M33.6939 86.7471H41.8939C44.1342 86.7471 45.2543 86.7471 46.1099 86.3111C46.8626 85.9276 47.4745 85.3157 47.858 84.563C48.2939 83.7074 48.2939 82.5873 48.2939 80.3471V75.1471C48.2939 72.9069 48.2939 71.7868 47.858 70.9311C47.4745 70.1785 46.8626 69.5665 46.1099 69.1831C45.2543 68.7471 44.1342 68.7471 41.8939 68.7471H33.6939C31.4537 68.7471 30.3336 68.7471 29.478 69.1831C28.7253 69.5665 28.1134 70.1785 27.7299 70.9311C27.2939 71.7868 27.2939 72.9069 27.2939 75.1471V80.3471C27.2939 82.5873 27.2939 83.7074 27.7299 84.563C28.1134 85.3157 28.7253 85.9276 29.478 86.3111C30.3336 86.7471 31.4537 86.7471 33.6939 86.7471Z" stroke="#0057F2" stroke-width="2" stroke-linecap="round" stroke-linejoin="round"/><path d="M119.294 47.9971V97.4971C119.294 102.053 116.024 105.747 111.99 105.747H65.8848L81.5893 39.7471H111.99C116.024 39.7471 119.294 43.4407 119.294 47.9971Z" fill="#F9FAFC"/><path d="M81.5893 39.7471H111.99C116.024 39.7471 119.294 43.4407 119.294 47.9971V97.4971C119.294 102.053 116.024 105.747 111.99 105.747H65.8848" stroke="#0057F2" stroke-width="3" stroke-linecap="round" stroke-linejoin="round"/><path d="M85.6494 52.1143H93.6879M101.726 52.1143H109.765" stroke="#0057F2" stroke-width="2" stroke-linecap="round"/><path d="M76.5632 59.7471H103.222C105.347 59.7471 106.41 59.7471 107.222 60.1574C107.936 60.5183 108.517 61.0943 108.88 61.8026C109.294 62.608 109.294 63.6622 109.294 65.7706V69.7235C109.294 71.832 109.294 72.8862 108.88 73.6915C108.517 74.3999 107.936 74.9758 107.222 75.3367C106.41 75.7471 105.347 75.7471 103.222 75.7471H72.2939" stroke="#0057F2" stroke-width="2" stroke-linecap="round" stroke-linejoin="round"/><path d="M88.9024 85.8102C88.9024 83.6879 88.9024 82.6268 89.3257 81.8162C89.6981 81.1031 90.2923 80.5234 91.0231 80.1601C91.8539 79.7471 92.9416 79.7471 95.1169 79.7471H103.079C105.254 79.7471 106.342 79.7471 107.173 80.1601C107.904 80.5234 108.498 81.1031 108.87 81.8162C109.294 82.6268 109.294 83.6879 109.294 85.8102V91.6839C109.294 93.8062 109.294 94.8674 108.87 95.678C108.498 96.391 107.904 96.9707 107.173 97.334C106.342 97.7471 105.254 97.7471 103.079 97.7471H95.1169C92.9416 97.7471 91.8539 97.7471 91.0231 97.334C90.2923 96.9707 89.6981 96.391 89.3257 95.678C88.9024 94.8674 88.9024 93.8062 88.9024 91.6839V85.8102Z" fill="#F9FAFC"/><path d="M67.7188 97.334C68.5496 97.7471 69.6372 97.7471 71.8125 97.7471H79.7748C81.9501 97.7471 83.0377 97.7471 83.8686 97.334C84.5994 96.9707 85.1936 96.391 85.566 95.678C85.9893 94.8674 85.9893 93.8062 85.9893 91.6839V85.8102C85.9893 83.6879 85.9893 82.6268 85.566 81.8162C85.1936 81.1031 84.5994 80.5234 83.8686 80.1601C83.0377 79.7471 81.9501 79.7471 79.7748 79.7471H71.8125M95.1169 97.7471H103.079C105.254 97.7471 106.342 97.7471 107.173 97.334C107.904 96.9707 108.498 96.391 108.87 95.678C109.294 94.8674 109.294 93.8062 109.294 91.6839V85.8102C109.294 83.6879 109.294 82.6268 108.87 81.8162C108.498 81.1031 107.904 80.5234 107.173 80.1601C106.342 79.7471 105.254 79.7471 103.079 79.7471H95.1169C92.9416 79.7471 91.8539 79.7471 91.0231 80.1601C90.2923 80.5234 89.6981 81.1031 89.3257 81.8162C88.9024 82.6268 88.9024 83.6879 88.9024 85.8102V91.6839C88.9024 93.8062 88.9024 94.8674 89.3257 95.678C89.6981 96.391 90.2923 96.9707 91.0231 97.334C91.8539 97.7471 92.9416 97.7471 95.1169 97.7471Z" stroke="#0057F2" stroke-width="2" stroke-linecap="round" stroke-linejoin="round"/><path d="M58.2939 116.747L83.2939 12.7471" stroke="#0057F2" stroke-width="3" stroke-linecap="round"/><path d="M11.2939 31.8643V84.3643C11.2939 89.1967 14.7199 93.1143 18.9461 93.1143H51.7939L69.2939 23.1143H18.9461C14.7199 23.1143 11.2939 27.0318 11.2939 31.8643Z" fill="#F9FAFC"/><path d="M69.2939 23.1143H18.9461C14.7199 23.1143 11.2939 27.0318 11.2939 31.8643V84.3643C11.2939 89.1967 14.7199 93.1143 18.9461 93.1143H51.7939" stroke="#2B2727" stroke-width="3" stroke-linecap="round" stroke-linejoin="round"/><g clip-path="url(#clip2_2839_5581)"><rect width="12" height="12" transform="translate(20.2939 30.7471)" fill="#F9FAFC"/><path d="M26.2923 32.8315C24.2916 32.8315 22.6439 34.339 22.4162 36.2803C22.4047 36.3784 22.3961 36.4771 22.3914 36.5769C22.3872 36.6669 22.4604 36.7399 22.5502 36.7399H23.1432C23.233 36.7399 23.3054 36.6668 23.3112 36.577C23.3176 36.4768 23.3293 36.3781 23.3445 36.2803C23.5659 34.8486 24.7998 33.7506 26.2923 33.7506C27.9412 33.7506 29.2773 35.0893 29.2773 36.7399C29.2773 38.3905 27.9412 39.7278 26.2923 39.7278H21.8129C21.6851 39.7278 21.6081 39.8682 21.6812 39.9732C21.8345 40.1934 22.0029 40.4024 22.1854 40.5979C22.2157 40.6303 22.2581 40.6484 22.3024 40.6484H26.2923C28.4486 40.6484 30.1969 38.8984 30.1969 36.7399C30.1969 34.5815 28.4486 32.8315 26.2923 32.8315Z" fill="#2B2727"/><path d="M26.2923 31.1221C24.5442 31.1221 22.982 31.919 21.9499 33.1708C21.2306 34.0432 20.7826 35.1443 20.6899 36.2718C20.6896 36.2747 20.6886 36.2774 20.6884 36.2803C20.6805 36.3788 20.6732 36.4774 20.6691 36.5769C20.6654 36.6669 20.7383 36.7399 20.8282 36.7399H21.4211C21.511 36.7399 21.5835 36.6669 21.5868 36.5769C21.5904 36.4773 21.5971 36.3786 21.6067 36.2803C21.8379 33.8936 23.8471 32.0269 26.2923 32.0269C28.8926 32.0269 31.0007 34.1371 31.0007 36.7399C31.0007 39.3428 28.8926 41.453 26.2923 41.4529H23.7342C23.5729 41.4529 23.5158 41.6539 23.6584 41.7294C24.3646 42.1034 25.1604 42.3293 26.0048 42.3721H26.2923C29.2057 42.3721 31.6008 40.1556 31.8889 37.3154C31.9076 37.1308 31.9185 36.9437 31.9189 36.7542C31.9189 36.5598 31.9081 36.3666 31.8889 36.1773C31.6008 33.3371 29.2057 31.1221 26.2923 31.1221Z" fill="#2B2727"/><path d="M26.2923 34.5552C25.2452 34.5552 24.3725 35.2955 24.1611 36.2803C24.1403 36.3773 24.1247 36.4761 24.1164 36.577C24.109 36.6668 24.1825 36.7399 24.2723 36.7399H24.8667C24.9565 36.7399 25.0282 36.6666 25.0403 36.5774C25.0543 36.474 25.0812 36.3747 25.118 36.2803C25.302 35.8098 25.7569 35.4757 26.2923 35.4758C26.9899 35.4758 27.5552 36.0416 27.5552 36.7399C27.5552 37.4382 26.9899 38.004 26.2923 38.0041H21.7539C21.7192 37.8768 21.6869 37.7445 21.6505 37.6177C21.6248 37.5287 21.545 37.4671 21.4637 37.4671H20.8759C20.7956 37.4671 20.724 37.5608 20.7394 37.6495C20.8138 38.0465 20.9028 38.4615 21.0632 38.8338C21.0883 38.892 21.1496 38.9232 21.2072 38.9232H26.2923C27.4973 38.9232 28.4734 37.9461 28.4734 36.7399C28.4734 35.5337 27.4973 34.5552 26.2923 34.5552Z" fill="#2B2727"/></g><path d="M43.5537 37.1143H55.6114M63.6499 37.1143H65.6883" stroke="#2B2727" stroke-width="2" stroke-linecap="round"/><path d="M21.2939 71.1471C21.2939 68.9069 21.2939 67.7868 21.7299 66.9311C22.1134 66.1785 22.7253 65.5665 23.478 65.1831C24.3336 64.7471 25.4537 64.7471 27.6939 64.7471H35.8939C38.1342 64.7471 39.2543 64.7471 40.1099 65.1831C40.8626 65.5665 41.4745 66.1785 41.858 66.9311C42.2939 67.7868 42.2939 68.9069 42.2939 71.1471V76.3471C42.2939 78.5873 42.2939 79.7074 41.858 80.563C41.4745 81.3157 40.8626 81.9276 40.1099 82.3111C39.2543 82.7471 38.1342 82.7471 35.8939 82.7471H27.6939C25.4537 82.7471 24.3336 82.7471 23.478 82.3111C22.7253 81.9276 22.1134 81.3157 21.7299 80.563C21.2939 79.7074 21.2939 78.5873 21.2939 76.3471V71.1471Z" fill="#F9FAFC"/><path d="M63.7939 44.7471H27.6939C25.4537 44.7471 24.3336 44.7471 23.478 45.183C22.7253 45.5665 22.1134 46.1785 21.7299 46.9311C21.2939 47.7868 21.2939 48.9069 21.2939 51.1471V54.3471C21.2939 56.5873 21.2939 57.7074 21.7299 58.563C22.1134 59.3157 22.7253 59.9276 23.478 60.3111C24.3336 60.7471 25.4537 60.7471 27.6939 60.7471H59.7939M58.7939 64.7471H52.6939C50.4537 64.7471 49.3336 64.7471 48.478 65.1831C47.7253 65.5665 47.1134 66.1785 46.7299 66.9311C46.2939 67.7868 46.2939 68.9069 46.2939 71.1471V76.3471C46.2939 78.5873 46.2939 79.7074 46.7299 80.563C47.1134 81.3157 47.7253 81.9276 48.478 82.3111C49.3336 82.7471 50.4537 82.7471 52.6939 82.7471H54.2939M27.6939 82.7471H35.8939C38.1342 82.7471 39.2543 82.7471 40.1099 82.3111C40.8626 81.9276 41.4745 81.3157 41.858 80.563C42.2939 79.7074 42.2939 78.5873 42.2939 76.3471V71.1471C42.2939 68.9069 42.2939 67.7868 41.858 66.9311C41.4745 66.1785 40.8626 65.5665 40.1099 65.1831C39.2543 64.7471 38.1342 64.7471 35.8939 64.7471H27.6939C25.4537 64.7471 24.3336 64.7471 23.478 65.1831C22.7253 65.5665 22.1134 66.1785 21.7299 66.9311C21.2939 67.7868 21.2939 68.9069 21.2939 71.1471V76.3471C21.2939 78.5873 21.2939 79.7074 21.7299 80.563C22.1134 81.3157 22.7253 81.9276 23.478 82.3111C24.3336 82.7471 25.4537 82.7471 27.6939 82.7471Z" stroke="#2B2727" stroke-width="2" stroke-linecap="round" stroke-linejoin="round"/><path d="M113.294 43.9971V93.4971C113.294 98.0534 110.024 101.747 105.99 101.747H59.8848L75.5893 35.7471H105.99C110.024 35.7471 113.294 39.4407 113.294 43.9971Z" fill="#F9FAFC"/><path d="M75.5893 35.7471H105.99C110.024 35.7471 113.294 39.4407 113.294 43.9971V93.4971C113.294 98.0534 110.024 101.747 105.99 101.747H59.8848" stroke="#2B2727" stroke-width="3" stroke-linecap="round" stroke-linejoin="round"/><path d="M79.6494 48.1143H87.6879M95.7263 48.1143H103.765" stroke="#2B2727" stroke-width="2" stroke-linecap="round"/><path d="M70.5632 55.7471H97.2221C99.3475 55.7471 100.41 55.7471 101.222 56.1574C101.936 56.5183 102.517 57.0943 102.88 57.8026C103.294 58.608 103.294 59.6622 103.294 61.7706V65.7235C103.294 67.832 103.294 68.8862 102.88 69.6915C102.517 70.3999 101.936 70.9758 101.222 71.3367C100.41 71.7471 99.3475 71.7471 97.2221 71.7471H66.2939" stroke="#2B2727" stroke-width="2" stroke-linecap="round" stroke-linejoin="round"/><path d="M82.9024 81.8102C82.9024 79.6879 82.9024 78.6268 83.3257 77.8162C83.6981 77.1031 84.2923 76.5234 85.0231 76.1601C85.8539 75.7471 86.9416 75.7471 89.1169 75.7471H97.0792C99.2545 75.7471 100.342 75.7471 101.173 76.1601C101.904 76.5234 102.498 77.1031 102.87 77.8162C103.294 78.6268 103.294 79.6879 103.294 81.8102V87.6839C103.294 89.8062 103.294 90.8674 102.87 91.678C102.498 92.391 101.904 92.9707 101.173 93.334C100.342 93.7471 99.2545 93.7471 97.0792 93.7471H89.1169C86.9416 93.7471 85.8539 93.7471 85.0231 93.334C84.2923 92.9707 83.6981 92.391 83.3257 91.678C82.9024 90.8674 82.9024 89.8062 82.9024 87.6839V81.8102Z" fill="#F9FAFC"/><path d="M61.7188 93.334C62.5496 93.7471 63.6372 93.7471 65.8125 93.7471H73.7748C75.9501 93.7471 77.0377 93.7471 77.8686 93.334C78.5994 92.9707 79.1936 92.391 79.566 91.678C79.9893 90.8674 79.9893 89.8062 79.9893 87.6839V81.8102C79.9893 79.6879 79.9893 78.6268 79.566 77.8162C79.1936 77.1031 78.5994 76.5234 77.8686 76.1601C77.0377 75.7471 75.9501 75.7471 73.7748 75.7471H65.8125M89.1169 93.7471H97.0792C99.2545 93.7471 100.342 93.7471 101.173 93.334C101.904 92.9707 102.498 92.391 102.87 91.678C103.294 90.8674 103.294 89.8062 103.294 87.6839V81.8102C103.294 79.6879 103.294 78.6268 102.87 77.8162C102.498 77.1031 101.904 76.5234 101.173 76.1601C100.342 75.7471 99.2545 75.7471 97.0792 75.7471H89.1169C86.9416 75.7471 85.8539 75.7471 85.0231 76.1601C84.2923 76.5234 83.6981 77.1031 83.3257 77.8162C82.9024 78.6268 82.9024 79.6879 82.9024 81.8102V87.6839C82.9024 89.8062 82.9024 90.8674 83.3257 91.678C83.6981 92.391 84.2923 92.9707 85.0231 93.334C85.8539 93.7471 86.9416 93.7471 89.1169 93.7471Z" stroke="#2B2727" stroke-width="2" stroke-linecap="round" stroke-linejoin="round"/><path d="M52.2939 112.747L77.2939 8.74708" stroke="#2B2727" stroke-width="3" stroke-linecap="round"/></g><defs><clipPath id="clip0_2839_5581"><rect width="128" height="128" fill="white" transform="translate(0.293945 0.74707)"/></clipPath><clipPath id="clip1_2839_5581"><rect width="12" height="12" fill="white" transform="translate(26.2939 34.7471)"/></clipPath><clipPath id="clip2_2839_5581"><rect width="12" height="12" fill="white" transform="translate(20.2939 30.7471)"/></clipPath></defs></svg>