<svg width="129" height="129" viewBox="0 0 129 129" fill="none" xmlns="http://www.w3.org/2000/svg"><g clip-path="url(#clip0_2839_5572)"><rect x="19.7939" y="94.2471" width="56" height="85" rx="6.5" transform="rotate(-90 19.7939 94.2471)" fill="#F9FAFC" stroke="#0057F2" stroke-width="3" stroke-linejoin="round"/><rect x="18.2939" y="47.7471" width="88" height="12" fill="#0057F2"/><path d="M26.2939 71.7471H61.2939" stroke="#0057F2" stroke-width="2" stroke-linecap="round"/><path d="M26.2939 79.7471H51.2939" stroke="#0057F2" stroke-width="2" stroke-linecap="round"/><g clip-path="url(#clip1_2839_5572)"><path d="M92.2923 78.8315C90.2916 78.8315 88.6439 80.339 88.4162 82.2803C88.4047 82.3784 88.3961 82.4771 88.3914 82.5769C88.3872 82.6669 88.4604 82.7399 88.5502 82.7399H89.1432C89.233 82.7399 89.3054 82.6668 89.3112 82.577C89.3176 82.4768 89.3293 82.3781 89.3445 82.2803C89.5659 80.8486 90.7998 79.7506 92.2923 79.7506C93.9412 79.7506 95.2773 81.0893 95.2773 82.7399C95.2773 84.3905 93.9412 85.7278 92.2923 85.7278H87.8129C87.6851 85.7278 87.6081 85.8682 87.6812 85.9732C87.8345 86.1934 88.0029 86.4024 88.1854 86.5979C88.2157 86.6303 88.2581 86.6484 88.3024 86.6484H92.2923C94.4486 86.6484 96.1969 84.8984 96.1969 82.7399C96.1969 80.5815 94.4486 78.8315 92.2923 78.8315Z" fill="#2B2727"/><path d="M92.2923 77.1221C90.5442 77.1221 88.982 77.919 87.9499 79.1708C87.2306 80.0432 86.7826 81.1443 86.6899 82.2718C86.6896 82.2747 86.6886 82.2774 86.6884 82.2803C86.6805 82.3788 86.6732 82.4774 86.6691 82.5769C86.6654 82.6669 86.7383 82.7399 86.8282 82.7399H87.4211C87.511 82.7399 87.5835 82.6669 87.5868 82.5769C87.5904 82.4773 87.5971 82.3786 87.6067 82.2803C87.8379 79.8936 89.8471 78.0269 92.2923 78.0269C94.8926 78.0269 97.0007 80.1371 97.0007 82.7399C97.0007 85.3428 94.8926 87.453 92.2923 87.4529H89.7342C89.5729 87.4529 89.5158 87.6539 89.6584 87.7294C90.3646 88.1034 91.1604 88.3293 92.0048 88.3721H92.2923C95.2057 88.3721 97.6008 86.1556 97.8889 83.3154C97.9076 83.1308 97.9185 82.9437 97.9189 82.7542C97.9189 82.5598 97.9081 82.3666 97.8889 82.1773C97.6008 79.3371 95.2057 77.1221 92.2923 77.1221Z" fill="#2B2727"/><path d="M92.2923 80.5552C91.2452 80.5552 90.3725 81.2955 90.1611 82.2803C90.1403 82.3773 90.1247 82.4761 90.1164 82.577C90.109 82.6668 90.1825 82.7399 90.2723 82.7399H90.8667C90.9565 82.7399 91.0282 82.6666 91.0403 82.5774C91.0543 82.474 91.0812 82.3747 91.118 82.2803C91.302 81.8098 91.7569 81.4757 92.2923 81.4758C92.9899 81.4758 93.5552 82.0416 93.5552 82.7399C93.5552 83.4382 92.9899 84.004 92.2923 84.0041H87.7539C87.7192 83.8768 87.6869 83.7445 87.6505 83.6177C87.6248 83.5287 87.545 83.4671 87.4637 83.4671H86.8759C86.7956 83.4671 86.724 83.5608 86.7394 83.6495C86.8138 84.0465 86.9028 84.4615 87.0632 84.8338C87.0883 84.892 87.1496 84.9232 87.2072 84.9232H92.2923C93.4973 84.9232 94.4734 83.9461 94.4734 82.7399C94.4734 81.5337 93.4973 80.5552 92.2923 80.5552Z" fill="#2B2727"/></g><rect x="95.7939" y="65.2471" width="17" height="27" rx="6.5" stroke="#0057F2" stroke-width="3"/><rect x="89.7939" y="81.2471" width="30" height="30" rx="15" fill="#F9FAFC" stroke="#0057F2" stroke-width="3"/><path d="M99.2955 94.2229C99.6456 94.1998 99.958 93.9948 100.119 93.6829C100.658 92.635 101.864 92.0045 103.061 92.1586C103.403 92.2027 103.744 92.0673 103.962 91.8006C104.488 91.1589 105.294 90.7471 106.201 90.7471C107.71 90.7471 108.93 91.8839 109.06 93.3067C109.107 93.8223 109.54 94.2166 110.058 94.2157L110.072 94.2156C110.072 94.2156 110.072 94.2156 110.072 94.2156C111.865 94.216 113.294 95.6451 113.294 97.3779C113.294 99.1109 111.865 100.54 110.072 100.54H110.05H110.028H110.007H109.985H109.964H109.942H109.92H109.899H109.877H109.856H109.834H109.813H109.791H109.769H109.748H109.726H109.705H109.683H109.662H109.64H109.619H109.597H109.576H109.554H109.533H109.511H109.49H109.468H109.447H109.425H109.404H109.382H109.361H109.339H109.318H109.296H109.275H109.254H109.232H109.211H109.189H109.168H109.146H109.125H109.104H109.082H109.061H109.039H109.018H108.997H108.975H108.954H108.933H108.911H108.89H108.868H108.847H108.826H108.804H108.783H108.762H108.741H108.719H108.698H108.677H108.655H108.634H108.613H108.591H108.57H108.549H108.528H108.506H108.485H108.464H108.443H108.421H108.4H108.379H108.358H108.336H108.315H108.294H108.273H108.252H108.23H108.209H108.188H108.167H108.146H108.124H108.103H108.082H108.061H108.04H108.019H107.997H107.976H107.955H107.934H107.913H107.892H107.871H107.849H107.828H107.807H107.786H107.765H107.744H107.723H107.702H107.681H107.66H107.638H107.617H107.596H107.575H107.554H107.533H107.512H107.491H107.47H107.449H107.428H107.407H107.386H107.365H107.344H107.323H107.302H107.281H107.26H107.239H107.218H107.197H107.176H107.155H107.134H107.113H107.092H107.071H107.05H107.029H107.008H106.987H106.966H106.945H106.924H106.903H106.883H106.862H106.841H106.82H106.799H106.778H106.757H106.736H106.715H106.694H106.674H106.653H106.632H106.611H106.59H106.569H106.548H106.527H106.507H106.486H106.465H106.444H106.423H106.402H106.382H106.361H106.34H106.319H106.298H106.278H106.257H106.236H106.215H106.194H106.174H106.153H106.132H106.111H106.09H106.07H106.049H106.028H106.007H105.987H105.966H105.945H105.924H105.904H105.883H105.862H105.841H105.821H105.8H105.779H105.759H105.738H105.717H105.696H105.676H105.655H105.634H105.614H105.593H105.572H105.552H105.531H105.51H105.49H105.469H105.448H105.428H105.407H105.386H105.366H105.345H105.325H105.304H105.283H105.263H105.242H105.221H105.201H105.18H105.16H105.139H105.118H105.098H105.077H105.057H105.036H105.015H104.995H104.974H104.954H104.933H104.913H104.892H104.871H104.851H104.83H104.81H104.789H104.769H104.748H104.728H104.707H104.687H104.666H104.645H104.625H104.604H104.584H104.563H104.543H104.522H104.502H104.481H104.461H104.44H104.42H104.399H104.379H104.358H104.338H104.318H104.297H104.277H104.256H104.236H104.215H104.195H104.174H104.154H104.133H104.113H104.093H104.072H104.052H104.031H104.011H103.99H103.97H103.95H103.929H103.909H103.888H103.868H103.848H103.827H103.807H103.786H103.766H103.746H103.725H103.705H103.684H103.664H103.644H103.623H103.603H103.583H103.562H103.542H103.521H103.501H103.481H103.46H103.44H103.42H103.399H103.379H103.359H103.338H103.318H103.298H103.277H103.257H103.237H103.216H103.196H103.176H103.156H103.135H103.115H103.095H103.074H103.054H103.034H103.013H102.993H102.973H102.953H102.932H102.912H102.892H102.872H102.851H102.831H102.811H102.79H102.77H102.75H102.73H102.709H102.689H102.669H102.649H102.628H102.608H102.588H102.568H102.548H102.527H102.507H102.487H102.467H102.446H102.426H102.406H102.386H102.366H102.345H102.325H102.305H102.285H102.265H102.244H102.224H102.204H102.184H102.164H102.143H102.123H102.103H102.083H102.063H102.043H102.022H102.002H101.982H101.962H101.942H101.922H101.901H101.881H101.861H101.841H101.821H101.801H101.781H101.76H101.74H101.72H101.7H101.68H101.66H101.64H101.619H101.599H101.579H101.559H101.539H101.519H101.499H101.479H101.459H101.438H101.418H101.398H101.378H101.358H101.338H101.318H101.298H101.278H101.258H101.237H101.217H101.197H101.177H101.157H101.137H101.117H101.097H101.077H101.057H101.037H101.017H100.997H100.976H100.956H100.936H100.916H100.896H100.876H100.856H100.836H100.816H100.796H100.776H100.756H100.736H100.716H100.696H100.676H100.656H100.636H100.616H100.596H100.576H100.556H100.536H100.516H100.495H100.475H100.455H100.435H100.415H100.395H100.375H100.355H100.335H100.315H100.295H100.275H100.255H100.235H100.215H100.195H100.175H100.155H100.135H100.115H100.095H100.075H100.055H100.035H100.015H99.9954H99.9754H99.9554H99.9355H99.9155H99.8955H99.8755H99.8556H99.8356H99.8156H99.7956H99.7757H99.7557H99.7357H99.7158H99.6958H99.6758H99.6559H99.6359H99.6159H99.596H99.576H99.5561H99.5361H99.5162C97.7231 100.54 96.2939 99.1109 96.2939 97.3779C96.2939 95.7164 97.6071 94.3344 99.2955 94.2229Z" fill="#F9FAFC" stroke="#0057F2" stroke-width="2" stroke-linejoin="round"/><rect x="13.7939" y="90.2471" width="56" height="85" rx="6.5" transform="rotate(-90 13.7939 90.2471)" fill="#F9FAFC" stroke="#2B2727" stroke-width="3" stroke-linejoin="round"/><rect x="12.2939" y="43.7471" width="88" height="12" fill="#2B2727"/><path d="M20.2939 67.7471H55.2939" stroke="#2B2727" stroke-width="2" stroke-linecap="round"/><path d="M20.2939 75.7471H45.2939" stroke="#2B2727" stroke-width="2" stroke-linecap="round"/><g clip-path="url(#clip2_2839_5572)"><path d="M86.2923 74.8315C84.2916 74.8315 82.6439 76.339 82.4162 78.2803C82.4047 78.3784 82.3961 78.4771 82.3914 78.5769C82.3872 78.6669 82.4604 78.7399 82.5502 78.7399H83.1432C83.233 78.7399 83.3054 78.6668 83.3112 78.577C83.3176 78.4768 83.3293 78.3781 83.3445 78.2803C83.5659 76.8486 84.7998 75.7506 86.2923 75.7506C87.9412 75.7506 89.2773 77.0893 89.2773 78.7399C89.2773 80.3905 87.9412 81.7278 86.2923 81.7278H81.8129C81.6851 81.7278 81.6081 81.8682 81.6812 81.9732C81.8345 82.1934 82.0029 82.4024 82.1854 82.5979C82.2157 82.6303 82.2581 82.6484 82.3024 82.6484H86.2923C88.4486 82.6484 90.1969 80.8984 90.1969 78.7399C90.1969 76.5815 88.4486 74.8315 86.2923 74.8315Z" fill="#2B2727"/><path d="M86.2923 73.1221C84.5442 73.1221 82.982 73.919 81.9499 75.1708C81.2306 76.0432 80.7826 77.1443 80.6899 78.2718C80.6896 78.2747 80.6886 78.2774 80.6884 78.2803C80.6805 78.3788 80.6732 78.4774 80.6691 78.5769C80.6654 78.6669 80.7383 78.7399 80.8282 78.7399H81.4211C81.511 78.7399 81.5835 78.6669 81.5868 78.5769C81.5904 78.4773 81.5971 78.3786 81.6067 78.2803C81.8379 75.8936 83.8471 74.0269 86.2923 74.0269C88.8926 74.0269 91.0007 76.1371 91.0007 78.7399C91.0007 81.3428 88.8926 83.453 86.2923 83.4529H83.7342C83.5729 83.4529 83.5158 83.6539 83.6584 83.7294C84.3646 84.1034 85.1604 84.3293 86.0048 84.3721H86.2923C89.2057 84.3721 91.6008 82.1556 91.8889 79.3154C91.9076 79.1308 91.9185 78.9437 91.9189 78.7542C91.9189 78.5598 91.9081 78.3666 91.8889 78.1773C91.6008 75.3371 89.2057 73.1221 86.2923 73.1221Z" fill="#2B2727"/><path d="M86.2923 76.5552C85.2452 76.5552 84.3725 77.2955 84.1611 78.2803C84.1403 78.3773 84.1247 78.4761 84.1164 78.577C84.109 78.6668 84.1825 78.7399 84.2723 78.7399H84.8667C84.9565 78.7399 85.0282 78.6666 85.0403 78.5774C85.0543 78.474 85.0812 78.3747 85.118 78.2803C85.302 77.8098 85.7569 77.4757 86.2923 77.4758C86.9899 77.4758 87.5552 78.0416 87.5552 78.7399C87.5552 79.4382 86.9899 80.004 86.2923 80.0041H81.7539C81.7192 79.8768 81.6869 79.7445 81.6505 79.6177C81.6248 79.5287 81.545 79.4671 81.4637 79.4671H80.8759C80.7956 79.4671 80.724 79.5608 80.7394 79.6495C80.8138 80.0465 80.9028 80.4615 81.0632 80.8338C81.0883 80.892 81.1496 80.9232 81.2072 80.9232H86.2923C87.4973 80.9232 88.4734 79.9461 88.4734 78.7399C88.4734 77.5337 87.4973 76.5552 86.2923 76.5552Z" fill="#2B2727"/></g><rect x="89.7939" y="61.2471" width="17" height="27" rx="6.5" stroke="#2B2727" stroke-width="3"/><rect x="83.7939" y="77.2471" width="30" height="30" rx="15" fill="#F9FAFC" stroke="#2B2727" stroke-width="3"/><path d="M93.2955 90.2229C93.6456 90.1998 93.958 89.9948 94.1186 89.6829C94.6583 88.635 95.8642 88.0045 97.0612 88.1586C97.4032 88.2027 97.7438 88.0673 97.9624 87.8006C98.4882 87.1589 99.2936 86.7471 100.201 86.7471C101.71 86.7471 102.93 87.8839 103.06 89.3067C103.107 89.8223 103.54 90.2166 104.058 90.2157L104.072 90.2156C104.072 90.2156 104.072 90.2156 104.072 90.2156C105.865 90.216 107.294 91.6451 107.294 93.3779C107.294 95.1109 105.865 96.5402 104.072 96.5402H104.05H104.028H104.007H103.985H103.964H103.942H103.92H103.899H103.877H103.856H103.834H103.813H103.791H103.769H103.748H103.726H103.705H103.683H103.662H103.64H103.619H103.597H103.576H103.554H103.533H103.511H103.49H103.468H103.447H103.425H103.404H103.382H103.361H103.339H103.318H103.296H103.275H103.254H103.232H103.211H103.189H103.168H103.146H103.125H103.104H103.082H103.061H103.039H103.018H102.997H102.975H102.954H102.933H102.911H102.89H102.868H102.847H102.826H102.804H102.783H102.762H102.741H102.719H102.698H102.677H102.655H102.634H102.613H102.591H102.57H102.549H102.528H102.506H102.485H102.464H102.443H102.421H102.4H102.379H102.358H102.336H102.315H102.294H102.273H102.252H102.23H102.209H102.188H102.167H102.146H102.124H102.103H102.082H102.061H102.04H102.019H101.997H101.976H101.955H101.934H101.913H101.892H101.871H101.849H101.828H101.807H101.786H101.765H101.744H101.723H101.702H101.681H101.66H101.638H101.617H101.596H101.575H101.554H101.533H101.512H101.491H101.47H101.449H101.428H101.407H101.386H101.365H101.344H101.323H101.302H101.281H101.26H101.239H101.218H101.197H101.176H101.155H101.134H101.113H101.092H101.071H101.05H101.029H101.008H100.987H100.966H100.945H100.924H100.903H100.883H100.862H100.841H100.82H100.799H100.778H100.757H100.736H100.715H100.694H100.674H100.653H100.632H100.611H100.59H100.569H100.548H100.527H100.507H100.486H100.465H100.444H100.423H100.402H100.382H100.361H100.34H100.319H100.298H100.278H100.257H100.236H100.215H100.194H100.174H100.153H100.132H100.111H100.09H100.07H100.049H100.028H100.007H99.9866H99.9659H99.9451H99.9244H99.9037H99.8829H99.8622H99.8415H99.8208H99.8H99.7793H99.7586H99.7379H99.7172H99.6965H99.6758H99.6551H99.6344H99.6137H99.593H99.5724H99.5517H99.531H99.5104H99.4897H99.469H99.4484H99.4277H99.4071H99.3864H99.3658H99.3451H99.3245H99.3039H99.2832H99.2626H99.242H99.2214H99.2008H99.1802H99.1595H99.1389H99.1183H99.0977H99.0772H99.0566H99.036H99.0154H98.9948H98.9742H98.9537H98.9331H98.9125H98.892H98.8714H98.8508H98.8303H98.8097H98.7892H98.7687H98.7481H98.7276H98.707H98.6865H98.666H98.6455H98.6249H98.6044H98.5839H98.5634H98.5429H98.5224H98.5019H98.4814H98.4609H98.4404H98.4199H98.3994H98.379H98.3585H98.338H98.3175H98.2971H98.2766H98.2561H98.2357H98.2152H98.1948H98.1743H98.1539H98.1334H98.113H98.0925H98.0721H98.0517H98.0312H98.0108H97.9904H97.97H97.9496H97.9291H97.9087H97.8883H97.8679H97.8475H97.8271H97.8067H97.7863H97.7659H97.7455H97.7252H97.7048H97.6844H97.664H97.6437H97.6233H97.6029H97.5826H97.5622H97.5418H97.5215H97.5011H97.4808H97.4604H97.4401H97.4197H97.3994H97.3791H97.3587H97.3384H97.3181H97.2977H97.2774H97.2571H97.2368H97.2165H97.1962H97.1759H97.1555H97.1352H97.1149H97.0946H97.0743H97.0541H97.0338H97.0135H96.9932H96.9729H96.9526H96.9323H96.9121H96.8918H96.8715H96.8513H96.831H96.8107H96.7905H96.7702H96.75H96.7297H96.7095H96.6892H96.669H96.6487H96.6285H96.6083H96.588H96.5678H96.5476H96.5273H96.5071H96.4869H96.4667H96.4464H96.4262H96.406H96.3858H96.3656H96.3454H96.3252H96.305H96.2848H96.2646H96.2444H96.2242H96.204H96.1838H96.1636H96.1435H96.1233H96.1031H96.0829H96.0628H96.0426H96.0224H96.0022H95.9821H95.9619H95.9418H95.9216H95.9014H95.8813H95.8611H95.841H95.8208H95.8007H95.7806H95.7604H95.7403H95.7201H95.7H95.6799H95.6597H95.6396H95.6195H95.5994H95.5792H95.5591H95.539H95.5189H95.4988H95.4787H95.4586H95.4384H95.4183H95.3982H95.3781H95.358H95.3379H95.3178H95.2977H95.2777H95.2576H95.2375H95.2174H95.1973H95.1772H95.1571H95.1371H95.117H95.0969H95.0768H95.0568H95.0367H95.0166H94.9966H94.9765H94.9564H94.9364H94.9163H94.8963H94.8762H94.8562H94.8361H94.8161H94.796H94.776H94.7559H94.7359H94.7158H94.6958H94.6757H94.6557H94.6357H94.6156H94.5956H94.5756H94.5556H94.5355H94.5155H94.4955H94.4755H94.4554H94.4354H94.4154H94.3954H94.3754H94.3554H94.3354H94.3153H94.2953H94.2753H94.2553H94.2353H94.2153H94.1953H94.1753H94.1553H94.1353H94.1153H94.0953H94.0754H94.0554H94.0354H94.0154H93.9954H93.9754H93.9554H93.9355H93.9155H93.8955H93.8755H93.8556H93.8356H93.8156H93.7956H93.7757H93.7557H93.7357H93.7158H93.6958H93.6758H93.6559H93.6359H93.6159H93.596H93.576H93.5561H93.5361H93.5162C91.7231 96.5402 90.2939 95.1109 90.2939 93.3779C90.2939 91.7164 91.6071 90.3344 93.2955 90.2229Z" fill="#F9FAFC" stroke="#2B2727" stroke-width="2" stroke-linejoin="round"/></g><defs><clipPath id="clip0_2839_5572"><rect width="128" height="128" fill="white" transform="translate(0.293945 0.74707)"/></clipPath><clipPath id="clip1_2839_5572"><rect width="12" height="12" fill="white" transform="translate(86.2939 76.7471)"/></clipPath><clipPath id="clip2_2839_5572"><rect width="12" height="12" fill="white" transform="translate(80.2939 72.7471)"/></clipPath></defs></svg>