<svg width="129" height="129" viewBox="0 0 129 129" fill="none" xmlns="http://www.w3.org/2000/svg"><g clip-path="url(#clip0_2839_5551)"><rect x="15.7939" y="35.2471" width="85" height="67" rx="10.5" fill="#F9FAFC" stroke="#0057F2" stroke-width="3"/><path d="M33.2109 47.2471H51.2943M43.2939 55.2471H61.3773M65.2939 63.2471H83.3773M35.9609 76.2471H54.0443M57.0439 84.2471H75.1273M79.9609 92.2471H93.4609" stroke="#0057F2" stroke-width="3" stroke-linecap="round"/><path d="M25.5439 47.2471C25.5439 48.0755 24.8724 48.7471 24.0439 48.7471C23.2155 48.7471 22.5439 48.0755 22.5439 47.2471C22.5439 46.4186 23.2155 45.7471 24.0439 45.7471C24.8724 45.7471 25.5439 46.4186 25.5439 47.2471Z" fill="#0057F2"/><path d="M25.5439 55.2471C25.5439 56.0755 24.8724 56.7471 24.0439 56.7471C23.2155 56.7471 22.5439 56.0755 22.5439 55.2471C22.5439 54.4186 23.2155 53.7471 24.0439 53.7471C24.8724 53.7471 25.5439 54.4186 25.5439 55.2471Z" fill="#0057F2"/><path d="M25.5439 63.2471C25.5439 64.0755 24.8724 64.7471 24.0439 64.7471C23.2155 64.7471 22.5439 64.0755 22.5439 63.2471C22.5439 62.4186 23.2155 61.7471 24.0439 61.7471C24.8724 61.7471 25.5439 62.4186 25.5439 63.2471Z" fill="#0057F2"/><path d="M25.5439 76.2471C25.5439 77.0755 24.8724 77.7471 24.0439 77.7471C23.2155 77.7471 22.5439 77.0755 22.5439 76.2471C22.5439 75.4186 23.2155 74.7471 24.0439 74.7471C24.8724 74.7471 25.5439 75.4186 25.5439 76.2471Z" fill="#0057F2"/><path d="M25.5439 84.2471C25.5439 85.0755 24.8724 85.7471 24.0439 85.7471C23.2155 85.7471 22.5439 85.0755 22.5439 84.2471C22.5439 83.4186 23.2155 82.7471 24.0439 82.7471C24.8724 82.7471 25.5439 83.4186 25.5439 84.2471Z" fill="#0057F2"/><path d="M25.5439 92.2471C25.5439 93.0755 24.8724 93.7471 24.0439 93.7471C23.2155 93.7471 22.5439 93.0755 22.5439 92.2471C22.5439 91.4186 23.2155 90.7471 24.0439 90.7471C24.8724 90.7471 25.5439 91.4186 25.5439 92.2471Z" fill="#0057F2"/><circle cx="100.294" cy="90.7471" r="24.5" fill="#F9FAFC" stroke="#0057F2" stroke-width="3"/><path d="M99.8377 71.1328V75.6942M99.8377 105.799V110.361M109.645 73.7606L108.732 75.3407M90.9429 106.153L90.0307 107.733M116.824 80.9398L115.244 81.8521M84.4315 99.6416L82.8514 100.554M116.824 100.554L115.244 99.6416M84.4315 81.8522L82.8514 80.9399M109.645 107.733L108.732 106.153M90.9429 75.3407L90.0307 73.7606M80.2236 90.7468H84.785M114.89 90.7468H119.452" stroke="#0057F2" stroke-width="2" stroke-linecap="round"/><path d="M90.9277 89.1286L99.838 91.203L112.5 78.3687" stroke="#0057F2" stroke-width="3" stroke-linecap="round" stroke-linejoin="round"/><rect x="9.79395" y="31.2471" width="85" height="67" rx="10.5" fill="#F9FAFC" stroke="#2B2727" stroke-width="3"/><path d="M27.2109 43.2471H45.2943M37.2939 51.2471H55.3773M59.2939 59.2471H77.3773M29.9609 72.2471H48.0443M51.0439 80.2471H69.1273M73.9609 88.2471H87.4609" stroke="#2B2727" stroke-width="3" stroke-linecap="round"/><path d="M19.5439 43.2471C19.5439 44.0755 18.8724 44.7471 18.0439 44.7471C17.2155 44.7471 16.5439 44.0755 16.5439 43.2471C16.5439 42.4186 17.2155 41.7471 18.0439 41.7471C18.8724 41.7471 19.5439 42.4186 19.5439 43.2471Z" fill="#2B2727"/><path d="M19.5439 51.2471C19.5439 52.0755 18.8724 52.7471 18.0439 52.7471C17.2155 52.7471 16.5439 52.0755 16.5439 51.2471C16.5439 50.4186 17.2155 49.7471 18.0439 49.7471C18.8724 49.7471 19.5439 50.4186 19.5439 51.2471Z" fill="#2B2727"/><path d="M19.5439 59.2471C19.5439 60.0755 18.8724 60.7471 18.0439 60.7471C17.2155 60.7471 16.5439 60.0755 16.5439 59.2471C16.5439 58.4186 17.2155 57.7471 18.0439 57.7471C18.8724 57.7471 19.5439 58.4186 19.5439 59.2471Z" fill="#2B2727"/><path d="M19.5439 72.2471C19.5439 73.0755 18.8724 73.7471 18.0439 73.7471C17.2155 73.7471 16.5439 73.0755 16.5439 72.2471C16.5439 71.4186 17.2155 70.7471 18.0439 70.7471C18.8724 70.7471 19.5439 71.4186 19.5439 72.2471Z" fill="#2B2727"/><path d="M19.5439 80.2471C19.5439 81.0755 18.8724 81.7471 18.0439 81.7471C17.2155 81.7471 16.5439 81.0755 16.5439 80.2471C16.5439 79.4186 17.2155 78.7471 18.0439 78.7471C18.8724 78.7471 19.5439 79.4186 19.5439 80.2471Z" fill="#2B2727"/><path d="M19.5439 88.2471C19.5439 89.0755 18.8724 89.7471 18.0439 89.7471C17.2155 89.7471 16.5439 89.0755 16.5439 88.2471C16.5439 87.4186 17.2155 86.7471 18.0439 86.7471C18.8724 86.7471 19.5439 87.4186 19.5439 88.2471Z" fill="#2B2727"/><circle cx="94.2939" cy="86.7471" r="24.5" fill="#F9FAFC" stroke="#2B2727" stroke-width="3"/><path d="M93.8377 67.1328V71.6942M93.8377 101.799V106.361M103.645 69.7606L102.732 71.3407M84.9429 102.153L84.0307 103.733M110.824 76.9398L109.244 77.8521M78.4315 95.6416L76.8514 96.5539M110.824 96.5539L109.244 95.6416M78.4315 77.8522L76.8514 76.9399M103.645 103.733L102.732 102.153M84.9429 71.3407L84.0307 69.7606M74.2236 86.7468H78.785M108.89 86.7468H113.452" stroke="#2B2727" stroke-width="2" stroke-linecap="round"/><path d="M84.9277 85.1286L93.838 87.203L106.5 74.3687" stroke="#2B2727" stroke-width="3" stroke-linecap="round" stroke-linejoin="round"/></g><defs><clipPath id="clip0_2839_5551"><rect width="128" height="128" fill="white" transform="translate(0.293945 0.74707)"/></clipPath></defs></svg>