<svg width="129" height="129" viewBox="0 0 129 129" fill="none" xmlns="http://www.w3.org/2000/svg"><g clip-path="url(#clip0_2839_5596)"><path d="M42.2939 42.7471C36.6939 43.1471 23.2939 39.9137 18.2939 38.7471V72.2471C22.4606 74.2471 31.3939 79.1471 33.7939 82.7471C36.1939 86.3471 49.4606 96.9137 55.7939 101.747C57.7939 103.08 62.2939 105.547 64.2939 104.747C66.2939 103.947 67.7939 102.414 68.2939 101.747C69.9606 102.414 73.7939 103.347 75.7939 101.747C77.7939 100.147 79.2939 97.7471 78.7939 95.7471C81.2939 96.7471 85.8457 99.6695 88.7939 95.2471C90.7939 92.2471 90.2939 90.2471 89.7939 88.7471C92.2939 90.2471 98.9353 92.285 101.294 88.7471C103.294 85.7471 99.4606 77.4137 98.2939 75.2471L87.2939 59.2471L60.7939 39.7471C56.9606 40.5804 47.8939 42.3471 42.2939 42.7471Z" fill="#F9FAFC"/><path d="M89.7939 88.7471C92.2939 90.2471 98.9353 92.285 101.294 88.7471C103.294 85.7471 99.4606 77.4137 98.2939 75.2471L87.2939 59.2471L60.7939 39.7471C56.9606 40.5804 47.8939 42.3471 42.2939 42.7471C36.6939 43.1471 23.2939 39.9137 18.2939 38.7471V72.2471C22.4606 74.2471 31.3939 79.1471 33.7939 82.7471C36.1939 86.3471 49.4606 96.9137 55.7939 101.747C57.7939 103.08 62.2939 105.547 64.2939 104.747C66.2939 103.947 67.7939 102.414 68.2939 101.747M89.7939 88.7471C90.2939 90.2471 90.7939 92.2471 88.7939 95.2471C85.8457 99.6695 81.2939 96.7471 78.7939 95.7471M89.7939 88.7471C84.0359 84.1406 77.2939 80.7471 70.7939 76.2471M78.7939 95.7471C79.2939 97.7471 77.7939 100.147 75.7939 101.747C73.7939 103.347 69.9606 102.414 68.2939 101.747M78.7939 95.7471L63.2939 85.7471M68.2939 101.747L54.7939 92.7471" stroke="#0057F2" stroke-width="3" stroke-linecap="round" stroke-linejoin="round"/><path d="M99.2754 47.7122C105.893 49.8801 121.294 49.3575 121.294 49.3575V83.9081L103.035 87.7471C101.782 85.005 103.035 81.166 84.7754 71.2944C73.0476 64.9539 68.4853 53.9277 67.5902 49.3575H55.2384C53.9853 51.0028 50.6307 55.1421 46.6458 57.5838C39.7939 61.7822 34.7939 58.7471 33.7939 55.2471L48.7939 38.389L73.4976 31.808C73.4976 31.808 76.1828 31.2597 79.4051 33.4532C82.6273 35.6468 90.2446 44.7536 99.2754 47.7122Z" fill="#F9FAFC" stroke="#0057F2" stroke-width="3" stroke-linejoin="round"/><path d="M28.2944 73.2469L21.7944 81.747C20.2944 83.7471 20.7943 86.7471 22.2944 87.7471C24.4255 89.1678 27.2944 88.5804 28.2944 87.2471L35.071 78.9272C36.6307 76.9684 38.2944 72.7471 35.7944 70.7469C32.7946 68.7471 29.7944 71.247 28.2944 73.2469Z" fill="#F9FAFC"/><path d="M50.6796 93.3606L45.2944 99.7471C43.4623 101.908 44.2624 104.056 45.4309 105.112C47.7944 107.247 49.7944 106.747 51.2944 105.112L57.418 98.1481C59.7944 95.2471 59.7944 92.8785 57.2406 91.1845C55.1411 89.7918 52.7944 90.7471 50.6796 93.3606Z" fill="#F9FAFC"/><path d="M44.556 85.7471L36.7944 94.747C35.2944 96.2471 35.3974 99.6805 37.7943 101.247C40.1913 102.813 43.2944 102.106 45.2944 99.7471L50.6796 93.3606C53.6036 89.7471 56.2027 85.7471 52.3772 83.247C49.6778 81.4829 46.6718 83.4399 44.556 85.7471Z" fill="#F9FAFC"/><path d="M35.071 78.9272L28.2944 87.2471C26.7944 89.2471 26.582 93.0772 29.2943 95.247C31.7943 97.247 35.2944 96.2471 36.7944 94.747L44.556 85.7471C46.686 83.4243 49.3199 77.9692 46.0391 74.8473C41.7944 71.2471 36.6307 76.9684 35.071 78.9272Z" fill="#F9FAFC"/><path d="M28.2944 87.2471C27.2944 88.5804 24.4255 89.1678 22.2944 87.7471C20.7943 86.7471 20.2944 83.7471 21.7944 81.747L28.2944 73.2469C29.7944 71.247 32.7946 68.7471 35.7944 70.7469C38.2944 72.7471 36.6307 76.9684 35.071 78.9272M28.2944 87.2471L35.071 78.9272M28.2944 87.2471C26.7944 89.2471 26.582 93.0772 29.2943 95.247C31.7943 97.247 35.2944 96.2471 36.7944 94.747M35.071 78.9272C36.6307 76.9684 41.7944 71.2471 46.0391 74.8473C49.3199 77.9692 46.686 83.4243 44.556 85.7471M50.6796 93.3606L45.2944 99.7471M50.6796 93.3606C52.7944 90.7471 55.1411 89.7918 57.2406 91.1845C59.7944 92.8785 59.7944 95.2471 57.418 98.1481L51.2944 105.112C49.7944 106.747 47.7944 107.247 45.4309 105.112C44.2624 104.056 43.4623 101.908 45.2944 99.7471M50.6796 93.3606C53.6036 89.7471 56.2027 85.7471 52.3772 83.247C49.6778 81.4829 46.6718 83.4399 44.556 85.7471M45.2944 99.7471C43.2944 102.106 40.1913 102.813 37.7943 101.247C35.3974 99.6805 35.2944 96.2471 36.7944 94.747M44.556 85.7471L36.7944 94.747" stroke="#2B2727" stroke-width="3" stroke-linecap="round" stroke-linejoin="round"/><path d="M36.2939 38.7471C30.6939 39.1471 17.2939 35.9137 12.2939 34.7471V68.2471C16.4606 70.2471 25.3939 75.1471 27.7939 78.7471C30.1939 82.3471 43.4606 92.9137 49.7939 97.7471C51.7939 99.0804 56.2939 101.547 58.2939 100.747C60.2939 99.9471 61.7939 98.4137 62.2939 97.7471C63.9606 98.4137 67.7939 99.3471 69.7939 97.7471C71.7939 96.1471 73.2939 93.7471 72.7939 91.7471C75.2939 92.7471 79.8457 95.6695 82.7939 91.2471C84.7939 88.2471 84.2939 86.2471 83.7939 84.7471C86.2939 86.2471 92.9353 88.285 95.2939 84.7471C97.2939 81.7471 93.4606 73.4137 92.2939 71.2471L81.2939 55.2471L54.7939 35.7471C50.9606 36.5804 41.8939 38.3471 36.2939 38.7471Z" fill="#F9FAFC"/><path d="M83.7939 84.7471C86.2939 86.2471 92.9353 88.285 95.2939 84.7471C97.2939 81.7471 93.4606 73.4137 92.2939 71.2471L81.2939 55.2471L54.7939 35.7471C50.9606 36.5804 41.8939 38.3471 36.2939 38.7471C30.6939 39.1471 17.2939 35.9137 12.2939 34.7471V68.2471C16.4606 70.2471 25.3939 75.1471 27.7939 78.7471C30.1939 82.3471 43.4606 92.9137 49.7939 97.7471C51.7939 99.0804 56.2939 101.547 58.2939 100.747C60.2939 99.9471 61.7939 98.4137 62.2939 97.7471M83.7939 84.7471C84.2939 86.2471 84.7939 88.2471 82.7939 91.2471C79.8457 95.6695 75.2939 92.7471 72.7939 91.7471M83.7939 84.7471C78.0359 80.1406 71.2939 76.7471 64.7939 72.2471M72.7939 91.7471C73.2939 93.7471 71.7939 96.1471 69.7939 97.7471C67.7939 99.3471 63.9606 98.4137 62.2939 97.7471M72.7939 91.7471L57.2939 81.7471M62.2939 97.7471L48.7939 88.7471" stroke="#2B2727" stroke-width="3" stroke-linecap="round" stroke-linejoin="round"/><path d="M93.2754 43.7122C99.8927 45.8801 115.294 45.3575 115.294 45.3575V79.9081L97.0347 83.7471C95.7816 81.005 97.0347 77.166 78.7754 67.2944C67.0476 60.9539 62.4853 49.9277 61.5902 45.3575H49.2384C47.9853 47.0028 44.6307 51.1421 40.6458 53.5838C33.7939 57.7822 28.7939 54.7471 27.7939 51.2471L42.7939 34.389L67.4976 27.808C67.4976 27.808 70.1828 27.2597 73.4051 29.4532C76.6273 31.6468 84.2446 40.7536 93.2754 43.7122Z" fill="#F9FAFC" stroke="#2B2727" stroke-width="3" stroke-linejoin="round"/><path d="M22.2944 69.2469L15.7944 77.747C14.2944 79.7471 14.7943 82.7471 16.2944 83.7471C18.4255 85.1678 21.2944 84.5804 22.2944 83.2471L29.071 74.9272C30.6307 72.9684 32.2944 68.7471 29.7944 66.7469C26.7946 64.7471 23.7944 67.247 22.2944 69.2469Z" fill="#F9FAFC"/><path d="M44.6796 89.3606L39.2944 95.7471C37.4623 97.9075 38.2624 100.056 39.4309 101.112C41.7944 103.247 43.7944 102.747 45.2944 101.112L51.418 94.1481C53.7944 91.2471 53.7944 88.8785 51.2406 87.1845C49.1411 85.7918 46.7944 86.7471 44.6796 89.3606Z" fill="#F9FAFC"/><path d="M38.556 81.7471L30.7944 90.747C29.2944 92.2471 29.3974 95.6805 31.7943 97.2469C34.1913 98.8134 37.2944 98.1055 39.2944 95.7471L44.6796 89.3606C47.6036 85.7471 50.2027 81.7471 46.3772 79.247C43.6778 77.4829 40.6718 79.4399 38.556 81.7471Z" fill="#F9FAFC"/><path d="M29.071 74.9272L22.2944 83.2471C20.7944 85.2471 20.582 89.0772 23.2943 91.247C25.7943 93.247 29.2944 92.2471 30.7944 90.747L38.556 81.7471C40.686 79.4243 43.3199 73.9692 40.0391 70.8473C35.7944 67.2471 30.6307 72.9684 29.071 74.9272Z" fill="#F9FAFC"/><path d="M22.2944 83.2471C21.2944 84.5804 18.4255 85.1678 16.2944 83.7471C14.7943 82.7471 14.2944 79.7471 15.7944 77.747L22.2944 69.2469C23.7944 67.247 26.7946 64.7471 29.7944 66.7469C32.2944 68.7471 30.6307 72.9684 29.071 74.9272M22.2944 83.2471L29.071 74.9272M22.2944 83.2471C20.7944 85.2471 20.582 89.0772 23.2943 91.247C25.7943 93.247 29.2944 92.2471 30.7944 90.747M29.071 74.9272C30.6307 72.9684 35.7944 67.2471 40.0391 70.8473C43.3199 73.9692 40.686 79.4243 38.556 81.7471M44.6796 89.3606L39.2944 95.7471M44.6796 89.3606C46.7944 86.7471 49.1411 85.7918 51.2406 87.1845C53.7944 88.8785 53.7944 91.2471 51.418 94.1481L45.2944 101.112C43.7944 102.747 41.7944 103.247 39.4309 101.112C38.2624 100.056 37.4623 97.9075 39.2944 95.7471M44.6796 89.3606C47.6036 85.7471 50.2027 81.7471 46.3772 79.247C43.6778 77.4829 40.6718 79.4399 38.556 81.7471M39.2944 95.7471C37.2944 98.1055 34.1913 98.8134 31.7943 97.2469C29.3974 95.6805 29.2944 92.2471 30.7944 90.747M38.556 81.7471L30.7944 90.747" stroke="#2B2727" stroke-width="3" stroke-linecap="round" stroke-linejoin="round"/></g><defs><clipPath id="clip0_2839_5596"><rect width="128" height="128" fill="white" transform="translate(0.293945 0.74707)"/></clipPath></defs></svg>