<svg width="129" height="129" viewBox="0 0 129 129" fill="none" xmlns="http://www.w3.org/2000/svg"><g clip-path="url(#clip0_2839_5545)"><path d="M115.294 68.7471C115.294 93.5999 95.1468 113.747 70.2939 113.747C45.4411 113.747 25.2939 93.5999 25.2939 68.7471C25.2939 43.8943 45.4411 23.7471 70.2939 23.7471C95.1468 23.7471 115.294 43.8943 115.294 68.7471Z" fill="#F9FAFC"/><path d="M47.2939 44.747L70.2939 67.747M70.2939 67.747L93.2939 90.747M70.2939 67.747L47.294 90.747M70.2939 67.747L93.294 44.747M115.294 68.7471C115.294 93.5999 95.1468 113.747 70.2939 113.747C45.4411 113.747 25.2939 93.5999 25.2939 68.7471C25.2939 43.8943 45.4411 23.7471 70.2939 23.7471C95.1468 23.7471 115.294 43.8943 115.294 68.7471Z" stroke="#0057F2" stroke-width="3" stroke-linecap="round" stroke-linejoin="round"/><path d="M109.294 64.7471C109.294 89.5999 89.1468 109.747 64.2939 109.747C39.4411 109.747 19.2939 89.5999 19.2939 64.7471C19.2939 39.8943 39.4411 19.7471 64.2939 19.7471C89.1468 19.7471 109.294 39.8943 109.294 64.7471Z" fill="#F9FAFC"/><path d="M41.2939 40.747L64.2939 63.747M64.2939 63.747L87.2939 86.747M64.2939 63.747L41.294 86.747M64.2939 63.747L87.294 40.747M109.294 64.7471C109.294 89.5999 89.1468 109.747 64.2939 109.747C39.4411 109.747 19.2939 89.5999 19.2939 64.7471C19.2939 39.8943 39.4411 19.7471 64.2939 19.7471C89.1468 19.7471 109.294 39.8943 109.294 64.7471Z" stroke="#2B2727" stroke-width="3" stroke-linecap="round" stroke-linejoin="round"/></g><defs><clipPath id="clip0_2839_5545"><rect width="128" height="128" fill="white" transform="translate(0.293945 0.74707)"/></clipPath></defs></svg>