<svg width="129" height="129" viewBox="0 0 129 129" fill="none" xmlns="http://www.w3.org/2000/svg"><g clip-path="url(#clip0_2839_5629)"><path d="M30.2939 34.7471C30.2939 31.4334 32.9802 28.7471 36.2939 28.7471H105.294C108.608 28.7471 111.294 31.4334 111.294 34.7471V103.747C111.294 107.061 108.608 109.747 105.294 109.747H36.2939C32.9802 109.747 30.2939 107.061 30.2939 103.747V34.7471Z" fill="#F9FAFC"/><path d="M41.2939 39.7471H101.294V99.7471H41.2939V39.7471Z" fill="#F9FAFC"/><path d="M50.2939 48.7471H75.2939M50.2939 76.7471H81.2939M50.2939 54.7471H75.2939M50.2939 82.7471H91.2939M50.2939 88.7471H85.2939M36.2939 109.747H105.294C108.608 109.747 111.294 107.061 111.294 103.747V34.7471C111.294 31.4334 108.608 28.7471 105.294 28.7471H36.2939C32.9802 28.7471 30.2939 31.4334 30.2939 34.7471V103.747C30.2939 107.061 32.9802 109.747 36.2939 109.747ZM41.2939 39.7471H101.294V99.7471H41.2939V39.7471Z" stroke="#0057F2" stroke-width="3" stroke-linecap="round"/><path d="M24.2939 30.7471C24.2939 27.4334 26.9802 24.7471 30.2939 24.7471H99.2939C102.608 24.7471 105.294 27.4334 105.294 30.7471V99.7471C105.294 103.061 102.608 105.747 99.2939 105.747H30.2939C26.9802 105.747 24.2939 103.061 24.2939 99.7471V30.7471Z" fill="#F9FAFC"/><path d="M35.2939 35.7471H95.2939V95.7471H35.2939V35.7471Z" fill="#F9FAFC"/><path d="M44.2939 44.7471H69.2939M44.2939 72.7471H75.2939M44.2939 50.7471H69.2939M44.2939 78.7471H85.2939M44.2939 84.7471H79.2939M30.2939 105.747H99.2939C102.608 105.747 105.294 103.061 105.294 99.7471V30.7471C105.294 27.4334 102.608 24.7471 99.2939 24.7471H30.2939C26.9802 24.7471 24.2939 27.4334 24.2939 30.7471V99.7471C24.2939 103.061 26.9802 105.747 30.2939 105.747ZM35.2939 35.7471H95.2939V95.7471H35.2939V35.7471Z" stroke="#2B2727" stroke-width="3" stroke-linecap="round"/></g><defs><clipPath id="clip0_2839_5629"><rect width="128" height="128" fill="white" transform="translate(0.293945 0.74707)"/></clipPath></defs></svg>