<svg width="177" height="59" viewBox="0 0 177 59" fill="none" xmlns="http://www.w3.org/2000/svg"><path d="M29.9507 8.96498C19.5118 8.96498 10.9151 16.8709 9.72677 27.0523C9.66679 27.5666 9.6218 28.0842 9.59761 28.6076C9.5758 29.0794 9.9575 29.4624 10.4262 29.4624H13.52C13.9887 29.4624 14.3665 29.0792 14.3964 28.6079C14.4298 28.0824 14.4913 27.5647 14.5702 27.0523C15.7253 19.5436 22.1637 13.7852 29.9507 13.7852C38.5543 13.7852 45.5253 20.8062 45.5253 29.4624C45.5253 38.1189 38.5543 45.1322 29.9507 45.1322H6.57896C5.9124 45.1322 5.51031 45.8684 5.89177 46.4191C6.69174 47.574 7.57038 48.6702 8.5227 49.6955C8.68062 49.8655 8.90221 49.9601 9.13333 49.9601H29.9507C41.2017 49.9601 50.3238 40.7825 50.3236 29.4624C50.3236 18.1426 41.2017 8.96498 29.9507 8.96498Z" fill="url(#paint0_radial_2869_2642)"/><path d="M29.9507 0C20.8298 0 12.6791 4.1794 7.29407 10.7444C3.54072 15.3195 1.20334 21.0946 0.719545 27.0074C0.718112 27.0225 0.713097 27.0369 0.711903 27.0523C0.67044 27.5686 0.632584 28.086 0.611066 28.6076C0.591601 29.0794 0.972478 29.4624 1.4412 29.4624H4.53494C5.00366 29.4624 5.38215 29.0794 5.39912 28.6075C5.41791 28.0852 5.45335 27.5677 5.50304 27.0523C6.70948 14.5353 17.193 4.74522 29.9507 4.74522C43.5181 4.74522 54.5177 15.812 54.5177 29.4624C54.5177 43.113 43.5181 54.1798 29.9507 54.1796H16.6039C15.7623 54.1796 15.4643 55.2337 16.2084 55.6298C19.8929 57.591 24.0448 58.7757 28.4507 59H29.9507C45.152 59 57.6484 47.376 59.1519 32.4808C59.2496 31.5126 59.3062 30.5313 59.3086 29.5376C59.3086 28.5179 59.2522 27.5047 59.1519 26.5117C57.6484 11.6165 45.152 0 29.9507 0Z" fill="url(#paint1_radial_2869_2642)"/><path d="M29.9507 18.0049C24.4873 18.0049 19.934 21.8871 18.8312 27.0523C18.7227 27.5609 18.6414 28.0792 18.598 28.6083C18.5594 29.0789 18.9425 29.4624 19.4112 29.4624H22.5124C22.9811 29.4624 23.3554 29.0779 23.4184 28.6099C23.4915 28.0677 23.6316 27.5469 23.8239 27.0523C24.7836 24.5843 27.1574 22.8325 29.9507 22.8328C33.5908 22.8328 36.54 25.8001 36.5402 29.4624C36.5402 33.1247 33.5908 36.092 29.9507 36.0923H6.27136C6.09017 35.425 5.9218 34.7309 5.73149 34.0659C5.59785 33.599 5.1812 33.2763 4.75729 33.2763H1.69003C1.27125 33.2763 0.897459 33.7674 0.97807 34.2327C1.36616 36.3146 1.83038 38.4914 2.66744 40.4437C2.79823 40.7487 3.11836 40.9127 3.41866 40.9127H29.9507C36.2379 40.9127 41.3311 35.7883 41.3311 29.4624C41.3311 23.1367 36.2379 18.0049 29.9507 18.0049Z" fill="url(#paint2_radial_2869_2642)"/><path d="M77.6401 21.0922H80.1288C80.5531 21.0922 80.897 21.4379 80.897 21.8643V25.2614C80.897 30.0063 82.6342 34.8307 86.4983 37.2856C86.9864 37.5957 87.1485 38.2617 86.8006 38.7249L85.4771 40.4876C85.2093 40.8443 84.7228 40.9601 84.342 40.7294C82.4635 39.5911 81.0098 37.9192 79.9439 35.8994C79.5341 35.1228 78.2415 35.1263 77.8416 35.9082C76.6818 38.1755 75.0669 40.0437 72.9653 41.2684C72.5834 41.491 72.1025 41.3718 71.8382 41.0164L70.5107 39.2318C70.1626 38.7638 70.3323 38.0936 70.829 37.7898C74.9313 35.2813 76.8105 30.1915 76.8105 25.2614V21.926C76.8105 21.4655 77.182 21.0922 77.6401 21.0922Z" fill="#004BD0"/><path d="M147.657 18.8687C147.151 18.8687 146.74 19.2814 146.74 19.7905V46.6369C146.74 47.146 147.151 47.5588 147.657 47.5588H149.879C150.385 47.5588 150.796 47.1461 150.796 46.6369V33.9966C150.796 33.4875 151.206 33.0747 151.713 33.0747H153.996C154.502 33.0747 154.913 32.662 154.913 32.1528V30.5995C154.913 30.0904 154.502 29.6776 153.996 29.6776H151.713C151.206 29.6776 150.796 29.2649 150.796 28.7557V19.7905C150.796 19.2814 150.385 18.8687 149.879 18.8687H147.657Z" fill="#004BD0"/><path d="M88.609 18.8995C88.1025 18.8995 87.6919 19.3122 87.6919 19.8214V46.5751C87.6919 47.0842 88.1025 47.497 88.609 47.497H90.8918C91.3984 47.497 91.809 47.0842 91.809 46.5751V34.2437C91.809 33.7345 92.2196 33.3218 92.7261 33.3218H95.0088C95.5154 33.3218 95.926 32.909 95.926 32.3999V30.8157C95.926 30.3065 95.5154 29.8938 95.0088 29.8938H92.7261C92.2196 29.8938 91.809 29.4811 91.809 28.9719V19.8214C91.809 19.3122 91.3984 18.8995 90.8918 18.8995H88.609Z" fill="#004BD0"/><path d="M113.713 21.8333C114.22 21.8333 114.632 22.2466 114.618 22.7556C114.394 30.7344 111.203 37.5813 102.601 42.1958C102.206 42.4078 101.716 42.2896 101.452 41.9264L100.269 40.3045C99.9368 39.8483 100.09 39.2016 100.581 38.9254C106.232 35.7458 109.421 31.6812 110.349 26.1622C110.44 25.6189 110.013 25.1378 109.465 25.1378H102.121C101.614 25.1378 101.204 24.7251 101.204 24.2159V22.7552C101.204 22.2461 101.614 21.8333 102.121 21.8333H113.713Z" fill="#004BD0"/><path d="M118.102 18.8687C117.596 18.8687 117.185 19.2814 117.185 19.7905V46.5443C117.185 47.0534 117.596 47.4661 118.102 47.4661H120.385C120.892 47.4661 121.302 47.0534 121.302 46.5443V34.0893C121.302 33.5801 121.713 33.1674 122.22 33.1674H124.318C124.824 33.1674 125.235 32.7547 125.235 32.2455V30.7231C125.235 30.2139 124.824 29.8012 124.318 29.8012H122.22C121.713 29.8012 121.302 29.3884 121.302 28.8793V19.7905C121.302 19.2814 120.892 18.8687 120.385 18.8687H118.102Z" fill="#004BD0"/><path d="M131.461 21.3084H142.715C143.222 21.3084 143.632 21.7211 143.632 22.2303V31.4734C143.632 31.9826 143.222 32.3953 142.715 32.3953H135.547C135.041 32.3953 134.63 32.8081 134.63 33.3172V36.6153C134.63 37.1278 135.046 37.5423 135.556 37.534C138.858 37.4808 141.727 37.2998 144.767 36.8176C145.286 36.7352 145.775 37.0982 145.838 37.6229L146.016 39.0962C146.075 39.5818 145.746 40.0298 145.266 40.1083C141.295 40.7576 137.588 40.919 132.971 40.919H131.491C130.985 40.919 130.574 40.5063 130.574 39.9971C130.574 36.6793 130.574 33.3614 130.574 30.0436C130.574 29.5345 130.985 29.1217 131.491 29.1217H138.659C139.166 29.1217 139.577 28.709 139.577 28.1999V25.5038C139.577 24.9947 139.166 24.582 138.659 24.582H131.461C130.954 24.582 130.544 24.1692 130.544 23.6601V22.2303C130.544 21.7211 130.954 21.3084 131.461 21.3084Z" fill="#004BD0"/><defs><radialGradient id="paint0_radial_2869_2642" cx="0" cy="0" r="1" gradientUnits="userSpaceOnUse" gradientTransform="translate(50.9661 8.64258) rotate(134.872) scale(58.8655 60.3207)"><stop offset="0.0665658" stop-color="#FCE300"/><stop offset="0.290127" stop-color="#2FFF86"/><stop offset="0.640574" stop-color="#0096E1"/><stop offset="0.83191" stop-color="#0057F2"/><stop offset="1" stop-color="#004BD0"/></radialGradient><radialGradient id="paint1_radial_2869_2642" cx="0" cy="0" r="1" gradientUnits="userSpaceOnUse" gradientTransform="translate(50.9661 8.64258) rotate(134.872) scale(58.8655 60.3207)"><stop offset="0.0665658" stop-color="#FCE300"/><stop offset="0.290127" stop-color="#2FFF86"/><stop offset="0.640574" stop-color="#0096E1"/><stop offset="0.83191" stop-color="#0057F2"/><stop offset="1" stop-color="#004BD0"/></radialGradient><radialGradient id="paint2_radial_2869_2642" cx="0" cy="0" r="1" gradientUnits="userSpaceOnUse" gradientTransform="translate(50.9661 8.64258) rotate(134.872) scale(58.8655 60.3207)"><stop offset="0.0665658" stop-color="#FCE300"/><stop offset="0.290127" stop-color="#2FFF86"/><stop offset="0.640574" stop-color="#0096E1"/><stop offset="0.83191" stop-color="#0057F2"/><stop offset="1" stop-color="#004BD0"/></radialGradient></defs></svg>