<svg width="204" height="128" viewBox="0 0 204 128" fill="none" xmlns="http://www.w3.org/2000/svg"><path d="M118.395 93.5345C118.395 93.5345 114.335 93.1326 112.738 92.8147C107.025 91.677 104.278 91.1334 99.5363 88.303C98.8635 87.9014 94.4677 85.5959 92.1512 78.3944C91.3242 75.8238 88.9033 75.3023 85.8068 75.427C80.7507 75.6303 78.0657 80.484 78.8366 85.3431C79.2807 88.142 81.1034 90.8884 82.9472 92.9448C85.2751 95.5418 88.517 97.1719 91.7418 98.3516C101.33 101.859 110.989 99.8597 118.395 93.5345Z" fill="#0196E1"/><path d="M85.6943 34.465C83.5199 36.3984 81.8232 39.3312 81.2448 40.4421C77.2394 48.1361 77.882 56.5966 83.8256 63.0322C86.7639 66.2138 91.5758 68.2505 96.9504 70.1633C100.785 71.528 104.195 72.7199 107.153 74.8529C106.075 70.454 104.009 65.7705 102.531 62.6042C101.757 60.946 98.7889 56.3563 96.9343 53.2185C94.679 49.4022 95.1761 45.4361 98.8453 43.0882C101.542 41.3622 104.345 40.6807 107.645 42.0912C106.168 40.5702 104.886 39.8962 104.549 39.6956C99.808 36.8654 97.0603 36.3208 91.3471 35.1832C89.7501 34.8653 85.6943 34.465 85.6943 34.465Z" fill="#0158F2"/><path d="M96.9343 53.1477C96.9454 53.1927 96.9605 53.2395 96.9719 53.2846C98.8285 56.4207 101.762 60.9545 102.531 62.6022C103.994 65.7359 106.03 70.3574 107.116 74.717C107.128 74.7367 107.142 74.7638 107.153 74.7831C109.409 78.5994 108.912 82.5655 105.243 84.9133C102.546 86.6393 99.7432 87.3212 96.4425 85.9104C97.9199 87.4313 99.2024 88.1054 99.5383 88.306C104.28 91.1365 107.028 91.6807 112.741 92.8184C114.338 93.1363 118.394 93.5365 118.394 93.5365C120.568 91.6035 122.265 88.6703 122.843 87.5594C126.848 79.8658 126.206 71.405 120.262 64.9694C117.324 61.7878 112.509 59.7477 107.135 57.8349C103.301 56.4702 99.8924 55.2803 96.9343 53.1477Z" fill="#014CD0"/><path d="M85.692 34.4654C85.692 34.4654 89.7518 34.8673 91.3487 35.1852C97.062 36.3229 99.8094 36.8665 104.551 39.6969C105.224 40.0985 109.619 42.404 111.936 49.6055C112.763 52.1761 115.184 52.6976 118.28 52.5729C123.336 52.3696 126.021 47.5159 125.25 42.6568C124.806 39.8579 122.984 37.1115 121.14 35.0551C118.812 32.4581 115.57 30.828 112.345 29.6483C102.757 26.1404 93.0978 28.1402 85.692 34.4654Z" fill="#0196E1"/></svg>