<svg width="203" height="128" viewBox="0 0 203 128" fill="none" xmlns="http://www.w3.org/2000/svg"><path d="M101.283 48.7057C93.981 48.7057 87.8957 53.871 86.4218 60.7433C86.2768 61.42 86.1682 62.1096 86.1102 62.8136C86.0586 63.4398 86.5706 63.95 87.197 63.95H91.3416C91.968 63.95 92.4683 63.4384 92.5525 62.8157C92.6501 62.0944 92.8374 61.4014 93.0944 60.7433C94.3771 57.4596 97.5495 55.1289 101.283 55.1292C106.147 55.1292 110.089 59.0772 110.089 63.95C110.089 68.8228 106.147 72.7707 101.283 72.771H73.6641C72.9362 72.771 72.396 73.4493 72.5809 74.1555C72.968 75.6334 73.1734 76.553 73.9839 78.483C74.1513 78.9098 74.5654 79.1847 75.0227 79.1847H101.283C109.685 79.1847 116.492 72.3667 116.492 63.95C116.492 55.5336 109.685 48.7057 101.283 48.7057Z" fill="url(#paint0_radial_2838_4369)"/><path d="M101.283 36.678C87.3314 36.678 75.8422 47.1968 74.2541 60.7433C74.1739 61.4276 74.1138 62.1163 74.0815 62.8127C74.0523 63.4403 74.5624 63.95 75.1889 63.95H79.3235C79.95 63.95 80.4549 63.4401 80.4949 62.8131C80.5395 62.1139 80.6217 61.4251 80.7272 60.7433C82.2709 50.7529 90.8756 43.0913 101.283 43.0913C112.781 43.0913 122.097 52.4328 122.097 63.95C122.097 75.4675 112.781 84.7988 101.283 84.7988H70.0472C69.1563 84.7988 68.6189 85.7783 69.1287 86.511C70.1979 88.0477 71.3722 89.5061 72.6449 90.8703C72.8559 91.0965 73.1521 91.2223 73.461 91.2223H101.283C116.319 91.2223 128.511 79.0114 128.51 63.95C128.51 48.8889 116.319 36.678 101.283 36.678Z" fill="url(#paint1_radial_2838_4369)"/><path d="M101.283 24.75C89.0928 24.75 78.1998 30.3107 71.0029 39.0455C65.9867 45.1328 62.8628 52.8165 62.2162 60.6835C62.2143 60.7037 62.2076 60.7229 62.206 60.7433C62.1506 61.4303 62.1 62.1186 62.0713 62.8126C62.0453 63.4404 62.5543 63.95 63.1807 63.95H67.3154C67.9418 63.95 68.4476 63.4405 68.4703 62.8125C68.4954 62.1176 68.5428 61.4291 68.6092 60.7433C70.2216 44.0893 84.2324 31.0636 101.283 31.0636C119.415 31.0636 134.116 45.788 134.116 63.95C134.116 82.1122 119.415 96.8367 101.283 96.8364H83.4451C82.3204 96.8364 81.9221 98.2389 82.9166 98.7659C87.8408 101.375 93.3897 102.952 99.278 103.25H101.283C121.599 103.25 138.3 87.7842 140.309 67.966C140.44 66.6777 140.515 65.3722 140.518 64.05C140.518 62.6933 140.443 61.3453 140.309 60.0241C138.3 40.2059 121.599 24.75 101.283 24.75Z" fill="url(#paint2_radial_2838_4369)"/><path fill-rule="evenodd" clip-rule="evenodd" d="M65.4251 76.721C63.7717 75.0322 63.0269 72.6741 62.5557 70.1823C62.4613 69.6831 62.8025 69.2093 63.3038 69.1267L67.8422 68.3791C68.3436 68.2966 68.8147 68.6373 68.9133 69.1357C69.3199 71.1914 69.7407 71.9242 70.0265 72.2161C70.1804 72.3733 70.6308 72.765 72.7401 72.7395L72.7596 72.7393H95.4705C95.9785 72.7393 96.3904 73.1511 96.3904 73.6592V78.2588C96.3904 78.7668 95.9785 79.1787 95.4705 79.1787H72.7979C70.1281 79.2087 67.4431 78.7821 65.4251 76.721Z" fill="url(#paint3_radial_2838_4369)"/><defs><radialGradient id="paint0_radial_2838_4369" cx="0" cy="0" r="1" gradientUnits="userSpaceOnUse" gradientTransform="translate(125.697 35.8359) rotate(133.138) scale(88.8947 91.0931)"><stop offset="0.0148713" stop-color="#FCE300"/><stop offset="0.439976" stop-color="#30FF86"/><stop offset="0.837573" stop-color="#0158F2"/></radialGradient><radialGradient id="paint1_radial_2838_4369" cx="0" cy="0" r="1" gradientUnits="userSpaceOnUse" gradientTransform="translate(125.697 35.8359) rotate(133.138) scale(88.8947 91.0931)"><stop offset="0.0148713" stop-color="#FCE300"/><stop offset="0.439976" stop-color="#30FF86"/><stop offset="0.837573" stop-color="#0158F2"/></radialGradient><radialGradient id="paint2_radial_2838_4369" cx="0" cy="0" r="1" gradientUnits="userSpaceOnUse" gradientTransform="translate(125.697 35.8359) rotate(133.138) scale(88.8947 91.0931)"><stop offset="0.0148713" stop-color="#FCE300"/><stop offset="0.439976" stop-color="#30FF86"/><stop offset="0.837573" stop-color="#0158F2"/></radialGradient><radialGradient id="paint3_radial_2838_4369" cx="0" cy="0" r="1" gradientUnits="userSpaceOnUse" gradientTransform="translate(125.697 35.8359) rotate(133.138) scale(88.8947 91.0931)"><stop offset="0.0148713" stop-color="#FCE300"/><stop offset="0.439976" stop-color="#30FF86"/><stop offset="0.837573" stop-color="#0158F2"/></radialGradient></defs></svg>