<svg width="177" height="61" viewBox="0 0 177 61" fill="none" xmlns="http://www.w3.org/2000/svg"><path d="M127.636 9.66246C117.125 9.66246 108.468 17.64 107.272 27.9138C107.211 28.4327 107.166 28.955 107.141 29.4832C107.12 29.9592 107.504 30.3457 107.976 30.3457H111.091C111.563 30.3457 111.943 29.959 111.974 29.4835C112.007 28.9532 112.069 28.4308 112.149 27.9138C113.312 20.337 119.795 14.5263 127.636 14.5263C136.299 14.5263 143.319 21.611 143.319 30.3457C143.319 39.0807 136.299 46.1576 127.636 46.1576H104.102C103.431 46.1576 103.026 46.9004 103.41 47.4562C104.215 48.6216 105.1 49.7276 106.059 50.7622C106.218 50.9338 106.441 51.0292 106.674 51.0292H127.636C138.965 51.0292 148.15 41.7684 148.15 30.3457C148.15 18.9233 138.965 9.66246 127.636 9.66246Z" fill="url(#paint0_radial_2869_2639)"/><path d="M127.636 0.616211C118.452 0.616211 110.244 4.8335 104.822 11.458C101.043 16.0746 98.6889 21.902 98.2017 27.8684C98.2003 27.8837 98.1953 27.8983 98.1941 27.9138C98.1523 28.4348 98.1142 28.9568 98.0925 29.4832C98.0729 29.9593 98.4564 30.3457 98.9284 30.3457H102.044C102.516 30.3457 102.897 29.9593 102.914 29.4831C102.933 28.956 102.968 28.4338 103.018 27.9138C104.233 15.2832 114.79 5.40445 127.636 5.40445C141.298 5.40445 152.374 16.5716 152.374 30.3457C152.374 44.1201 141.298 55.2872 127.636 55.287H114.196C113.349 55.287 113.049 56.3506 113.798 56.7503C117.508 58.7294 121.689 59.9248 126.126 60.1511H127.636C142.943 60.1511 155.526 48.4217 157.04 33.3915C157.138 32.4145 157.195 31.4243 157.198 30.4216C157.198 29.3927 157.141 28.3703 157.04 27.3683C155.526 12.3381 142.943 0.616211 127.636 0.616211Z" fill="url(#paint1_radial_2869_2639)"/><path d="M127.636 18.7844C122.135 18.7844 117.55 22.7017 116.439 27.9138C116.33 28.4269 116.248 28.9499 116.204 29.4839C116.165 29.9588 116.551 30.3457 117.023 30.3457H120.146C120.618 30.3457 120.995 29.9577 121.058 29.4855C121.132 28.9384 121.273 28.4129 121.467 27.9138C122.433 25.4234 124.823 23.6558 127.636 23.656C131.301 23.656 134.271 26.6502 134.271 30.3457C134.271 34.0413 131.301 37.0354 127.636 37.0357H103.792C103.61 36.3623 103.44 35.662 103.248 34.991C103.114 34.5198 102.694 34.1942 102.268 34.1942H99.179C98.7573 34.1942 98.3809 34.6898 98.4621 35.1592C98.8529 37.26 99.3203 39.4565 100.163 41.4265C100.295 41.7344 100.617 41.8998 100.92 41.8998H127.636C133.967 41.8998 139.095 36.729 139.095 30.3457C139.095 23.9627 133.967 18.7844 127.636 18.7844Z" fill="url(#paint2_radial_2869_2639)"/><path d="M52.898 41.5785C54.5149 42.1852 56.2978 42.1681 58.0005 42.1662C59.0757 42.1649 60.0502 42.0825 60.9238 41.9188C61.8041 41.7332 62.582 41.3517 63.2576 40.7743C63.2653 40.7679 63.273 40.7615 63.2807 40.755C63.6317 40.459 64.1988 40.5043 64.5166 40.8362C65.0693 41.4136 65.6937 41.7847 66.3897 41.9497C67.9436 42.2627 69.6264 42.2627 71.1801 41.9497C72.0535 41.7786 72.8414 41.2931 73.3788 40.5798C73.5881 40.3021 74.0564 40.3312 74.2508 40.6197C75.3049 42.053 77.2997 42.1662 78.9183 42.1662C80.6583 42.1662 82.4421 41.6816 83.7394 40.465C85.0756 39.2119 85.6125 37.4087 85.6125 35.609C85.6125 33.8185 85.2152 31.9781 84.7527 30.2581C84.5813 29.5531 84.39 28.8783 84.1787 28.2335C84.0264 27.7685 83.5309 27.5211 83.065 27.6609L80.4898 28.4335C79.985 28.585 79.7086 29.1301 79.8758 29.6332C80.2176 30.6619 80.5228 31.6538 80.7915 32.6088C81.1395 33.846 81.3135 34.846 81.3135 35.609C81.3135 36.1451 81.2009 36.5781 80.9757 36.9081C80.771 37.238 80.4639 37.4751 80.0545 37.6195C79.6655 37.7638 79.1947 37.836 78.6419 37.836C77.864 37.836 77.2601 37.7638 76.8302 37.6195C76.4208 37.4751 76.1342 37.2895 75.9704 37.0627C75.8271 36.8153 75.7555 36.5575 75.7555 36.2895C75.7555 35.2213 75.9859 34.1584 76.1538 33.1066C76.2356 32.5941 75.8917 32.109 75.3829 32.0275L73.1833 31.675C72.6732 31.5932 72.1969 31.9491 72.116 32.4629C71.9535 33.496 71.7848 34.3488 71.61 35.0213C71.4052 35.8667 71.1596 36.4957 70.873 36.9081C70.6069 37.2998 70.2793 37.5576 69.8903 37.6813C69.5219 37.7844 69.0817 37.836 68.5699 37.836C67.5464 37.836 66.8503 37.671 66.4818 37.3411C66.1133 36.9905 65.9291 36.5266 65.9291 35.9492C65.9291 35.6193 65.9598 35.2481 66.0212 34.8357C66.0826 34.4027 66.1543 33.98 66.2362 33.5676L66.2673 33.4108C66.3684 32.9018 66.0362 32.4079 65.5294 32.3136L63.3616 31.9105C62.8623 31.8177 62.383 32.1486 62.2817 32.6498C62.083 33.6338 61.8965 34.4449 61.7222 35.0832C61.5175 35.8874 61.2718 36.4957 60.9852 36.9081C60.7191 37.2998 60.3711 37.5576 59.9412 37.6813C59.1849 37.8627 58.3989 37.836 57.627 37.836C56.7262 37.836 56.0404 37.7535 55.5696 37.5885C55.1192 37.4236 54.8121 37.1039 54.6483 36.6297C54.4846 36.1554 54.3822 35.444 54.3413 34.4955L53.7344 20.2609C53.7132 19.7632 53.3063 19.3706 52.8117 19.3706H50.3565C49.8327 19.3706 49.4138 19.8088 49.4336 20.3359L50.0422 36.5678C50.1037 37.8463 50.3391 38.9082 50.7485 39.7536C51.1579 40.5784 51.8745 41.1867 52.898 41.5785Z" fill="#004BD0"/><path d="M23.5054 41.5785C25.1225 42.1853 26.9048 42.1672 28.6076 42.1661C30.4399 42.1649 32.0489 42.0309 33.4348 41.764C35.7226 41.3235 37.9404 40.5633 39.9755 39.4133C41.513 38.5653 42.9975 37.5661 44.643 36.9389C45.1234 36.7479 45.6233 36.608 46.1427 36.5193C46.6718 36.4288 47.0757 35.956 47.0116 35.4193L46.7368 33.1185C46.681 32.6511 46.2873 32.2994 45.8199 32.2994H45.5028C44.9091 32.2994 44.295 32.1757 43.6603 31.9282C42.2219 31.3487 40.8894 30.5401 39.4841 29.8868C37.7272 29.0485 35.8099 28.5878 33.8647 28.5878C32.914 28.5878 31.939 28.6846 31.0044 28.8654C30.547 28.9539 30.261 29.4001 30.3283 29.8644L30.681 32.2982C30.7586 32.8333 31.2712 33.1849 31.804 33.1185C32.554 33.025 33.292 32.9489 34.0489 32.9489C34.9497 32.9489 35.7993 33.0211 36.5977 33.1654C37.6368 33.3224 38.648 33.6155 39.609 34.0423C40.2273 34.3169 40.251 35.1444 39.656 35.467C38.3008 36.2017 36.8331 36.7323 35.3386 37.0936C34.3151 37.341 33.2608 37.5266 32.1758 37.6503C31.0994 37.7731 30.0128 37.8349 28.9162 37.8359C28.0077 37.8367 27.0464 37.8931 26.1769 37.5885C25.7266 37.4236 25.4195 37.1039 25.2557 36.6297C25.0919 36.1554 24.9896 35.444 24.9486 34.4955L24.3418 20.2609C24.3205 19.7632 23.9137 19.3706 23.4191 19.3706H20.9638C20.4401 19.3706 20.0212 19.8088 20.041 20.3359L20.6496 36.5678C20.711 37.8463 20.9465 38.9082 21.3559 39.7536C21.7653 40.5784 22.4818 41.1867 23.5054 41.5785Z" fill="#004BD0"/><path d="M36.2599 48.6615C36.6898 49.0739 37.2016 49.2801 37.7952 49.2801C38.3889 49.2801 38.8905 49.0739 39.2999 48.6615C39.7298 48.2491 39.9448 47.7439 39.9448 47.1459C39.9448 46.5479 39.7298 46.0221 39.2999 45.5685C38.8905 45.1354 38.3889 44.9189 37.7952 44.9189C37.2016 44.9189 36.6898 45.1354 36.2599 45.5685C35.8504 46.0221 35.6457 46.5479 35.6457 47.1459C35.6457 47.7439 35.8504 48.2491 36.2599 48.6615Z" fill="#004BD0"/><path d="M7.25903 48.8208C6.79743 48.9983 6.2849 48.7612 6.10202 48.2989L5.21996 46.069C5.02534 45.577 5.27818 45.0226 5.76846 44.8312C7.1179 44.3043 8.23883 43.7356 9.13124 43.125C10.2367 42.3827 11.0453 41.5888 11.5571 40.7434C12.4122 39.3853 12.5134 37.8446 12.1099 36.3204C11.8135 35.1638 11.3285 34.0494 10.8045 32.9801C10.5712 32.5039 10.757 31.9213 11.2321 31.6912L13.577 30.5553C14.026 30.3378 14.5669 30.5175 14.784 30.9691C15.3087 32.0609 15.7275 33.1126 16.0404 34.1243C16.7217 36.2173 16.866 38.4288 16.2553 40.5578C15.7468 42.4786 14.5672 44.176 13.0925 45.4757C11.405 46.963 9.34301 48.0192 7.25903 48.8208Z" fill="#004BD0"/><path d="M1.98415 42.0115C1.48441 42.0115 1.07533 41.6111 1.061 41.108L0.469138 20.3275C0.454214 19.8035 0.871861 19.3706 1.39229 19.3706H3.8435C4.34324 19.3706 4.75232 19.771 4.76665 20.2742L5.35851 41.0546C5.37344 41.5786 4.95579 42.0115 4.43536 42.0115H1.98415Z" fill="#004BD0"/><defs><radialGradient id="paint0_radial_2869_2639" cx="0" cy="0" r="1" gradientUnits="userSpaceOnUse" gradientTransform="translate(148.797 9.33714) rotate(134.812) scale(59.337 60.8032)"><stop offset="0.0665658" stop-color="#FCE300"/><stop offset="0.290127" stop-color="#2FFF86"/><stop offset="0.640574" stop-color="#0096E1"/><stop offset="0.83191" stop-color="#0057F2"/><stop offset="1" stop-color="#004BD0"/></radialGradient><radialGradient id="paint1_radial_2869_2639" cx="0" cy="0" r="1" gradientUnits="userSpaceOnUse" gradientTransform="translate(148.797 9.33714) rotate(134.812) scale(59.337 60.8032)"><stop offset="0.0665658" stop-color="#FCE300"/><stop offset="0.290127" stop-color="#2FFF86"/><stop offset="0.640574" stop-color="#0096E1"/><stop offset="0.83191" stop-color="#0057F2"/><stop offset="1" stop-color="#004BD0"/></radialGradient><radialGradient id="paint2_radial_2869_2639" cx="0" cy="0" r="1" gradientUnits="userSpaceOnUse" gradientTransform="translate(148.797 9.33714) rotate(134.812) scale(59.337 60.8032)"><stop offset="0.0665658" stop-color="#FCE300"/><stop offset="0.290127" stop-color="#2FFF86"/><stop offset="0.640574" stop-color="#0096E1"/><stop offset="0.83191" stop-color="#0057F2"/><stop offset="1" stop-color="#004BD0"/></radialGradient></defs></svg>