<svg width="177" height="60" viewBox="0 0 177 60" fill="none" xmlns="http://www.w3.org/2000/svg"><path d="M29.8936 9.46498C19.3694 9.46498 10.7024 17.3709 9.50443 27.5523C9.44395 28.0666 9.39859 28.5842 9.3742 29.1076C9.35222 29.5794 9.73703 29.9624 10.2096 29.9624H13.3286C13.8012 29.9624 14.1821 29.5792 14.2122 29.1079C14.2459 28.5824 14.3079 28.0647 14.3875 27.5523C15.552 20.0436 22.043 14.2852 29.8936 14.2852C38.5676 14.2852 45.5956 21.3062 45.5956 29.9624C45.5956 38.6189 38.5676 45.6322 29.8936 45.6322H6.33088C5.65887 45.6322 5.25349 46.3684 5.63807 46.9191C6.44458 48.074 7.33041 49.1702 8.2905 50.1955C8.44972 50.3655 8.67312 50.4601 8.90613 50.4601H29.8936C41.2367 50.4601 50.4333 41.2825 50.4331 29.9624C50.4331 18.6426 41.2367 9.46498 29.8936 9.46498Z" fill="url(#paint0_radial_2869_2637)"/><path d="M29.8936 0.5C20.6982 0.5 12.4809 4.6794 7.05184 11.2444C3.2678 15.8195 0.911312 21.5946 0.423562 27.5074C0.422118 27.5225 0.417062 27.5369 0.415859 27.5523C0.374056 28.0686 0.335891 28.586 0.314197 29.1076C0.294573 29.5794 0.678563 29.9624 1.15112 29.9624H4.27014C4.7427 29.9624 5.12428 29.5794 5.14139 29.1075C5.16033 28.5852 5.19606 28.0677 5.24616 27.5523C6.46247 15.0353 17.0317 5.24522 29.8936 5.24522C43.572 5.24522 54.6615 16.312 54.6615 29.9624C54.6615 43.613 43.572 54.6798 29.8936 54.6796H16.4378C15.5893 54.6796 15.2888 55.7337 16.039 56.1298C19.7537 58.091 23.9395 59.2757 28.3814 59.5H29.8936C45.2193 59.5 57.8178 47.876 59.3336 32.9808C59.4321 32.0126 59.4892 31.0313 59.4916 30.0376C59.4916 29.0179 59.4347 28.0047 59.3336 27.0117C57.8178 12.1165 45.2193 0.5 29.8936 0.5Z" fill="url(#paint1_radial_2869_2637)"/><path d="M29.8936 18.5049C24.3856 18.5049 19.7951 22.3871 18.6833 27.5523C18.5739 28.0609 18.4919 28.5792 18.4482 29.1083C18.4093 29.5789 18.7955 29.9624 19.2681 29.9624H22.3946C22.8671 29.9624 23.2445 29.5779 23.308 29.1099C23.3816 28.5677 23.523 28.0469 23.7168 27.5523C24.6844 25.0843 27.0775 23.3325 29.8936 23.3328C33.5635 23.3328 36.5368 26.3001 36.5371 29.9624C36.5371 33.6247 33.5635 36.592 29.8936 36.5923H6.02077C5.83809 35.925 5.66835 35.2309 5.47648 34.5659C5.34175 34.099 4.92169 33.7763 4.49432 33.7763H1.40198C0.979782 33.7763 0.602931 34.2674 0.684201 34.7327C1.07546 36.8146 1.54348 38.9914 2.38738 40.9437C2.51924 41.2487 2.84199 41.4127 3.14474 41.4127H29.8936C36.2323 41.4127 41.3672 36.2883 41.3672 29.9624C41.3672 23.6367 36.2323 18.5049 29.8936 18.5049Z" fill="url(#paint2_radial_2869_2637)"/><path fill-rule="evenodd" clip-rule="evenodd" d="M83.247 32.3105H85.9403C86.451 32.3105 86.8649 32.7232 86.8649 33.2324V38.5279C86.8649 39.037 87.2789 39.4497 87.7896 39.4497H90.0686C90.5793 39.4497 90.9933 39.037 90.9933 38.5279V24.6862C90.9933 24.1771 91.4073 23.7644 91.9179 23.7644H95.0076C95.5183 23.7644 95.9323 24.1771 95.9323 24.6862V38.5279C95.9323 39.037 96.3463 39.4497 96.8569 39.4497H99.136C99.6466 39.4497 100.061 39.037 100.061 38.5279V24.6862C100.061 24.1771 100.475 23.7644 100.985 23.7644H105.051C105.561 23.7644 105.975 24.1771 105.975 24.6862V28.0449C105.975 28.2185 105.834 28.3592 105.66 28.3592C104.94 28.3592 104.399 28.5189 104.039 28.8382C103.679 29.1575 103.498 29.6713 103.498 30.3798C103.498 30.9685 103.739 31.617 104.219 32.3255C104.699 33.0339 105.305 33.6326 106.035 34.1215C106.766 34.6005 107.432 34.8399 108.032 34.8399C108.743 34.8399 109.263 34.6503 109.593 34.2712C109.924 33.882 110.089 33.3033 110.089 32.535V24.6862C110.089 24.1771 110.503 23.7644 111.013 23.7644H113.788C114.298 23.7644 114.712 24.1771 114.712 24.6862V38.5279C114.712 39.037 115.126 39.4497 115.637 39.4497H117.901C118.412 39.4497 118.826 39.037 118.826 38.5279V24.6862C118.826 24.1771 119.24 23.7644 119.75 23.7644H128.015C128.438 23.7644 128.814 24.0497 128.87 24.4674C128.909 24.7628 128.929 25.0672 128.929 25.3808C128.929 26.3436 128.582 27.1478 127.888 27.7933C127.567 28.0922 127.078 28.0189 126.719 27.7669C126.115 27.3436 125.441 27.1319 124.696 27.1319C123.915 27.1319 123.309 27.3515 122.879 27.7905C122.459 28.2195 122.249 28.7683 122.249 29.4368C122.249 29.836 122.324 30.2501 122.474 30.6791C122.634 31.0982 123.004 31.6869 123.585 32.4452C124.165 33.1936 125.161 34.2412 126.572 35.5883C127.812 36.7722 129.215 38.0409 130.78 39.3945C131.148 39.7128 131.701 39.6885 132.042 39.3412L133.373 37.9837C133.763 37.5864 133.714 36.9387 133.276 36.5949C131.87 35.4912 130.479 34.2825 129.101 32.9689C128.615 32.5051 128.791 31.6979 129.391 31.3942C130.41 30.8786 131.217 30.271 131.811 29.5716C132.642 28.5837 133.057 27.4163 133.057 26.0693C133.057 25.6854 133.037 25.3178 132.996 24.9666C132.925 24.3568 133.372 23.7644 133.988 23.7644H134.294C134.805 23.7644 135.219 23.3516 135.219 22.8425V21.3037C135.219 20.7946 134.805 20.3818 134.294 20.3818H71.3963C70.8857 20.3818 70.4717 20.7946 70.4717 21.3037V22.8425C70.4717 23.3516 70.8857 23.7644 71.3963 23.7644H75.9654C76.3824 23.7644 76.7552 24.0417 76.8206 24.4523C76.8714 24.7718 76.8969 25.0913 76.8969 25.4107C76.8969 25.9777 76.8344 26.5022 76.7095 26.9842C76.5596 27.5629 75.8517 27.6718 75.3042 27.4282C74.8605 27.2307 74.3805 27.1319 73.8644 27.1319C73.0838 27.1319 72.4783 27.3515 72.048 27.7905C71.6276 28.2195 71.4174 28.7683 71.4174 29.4368C71.4174 29.826 71.4875 30.2301 71.6276 30.6492C71.7777 31.0583 72.118 31.622 72.6484 32.3404C73.1889 33.0489 74.0946 34.0567 75.3656 35.3638C76.497 36.5181 77.8742 37.8476 79.4973 39.3522C79.8628 39.691 80.4323 39.677 80.7821 39.3222L82.0639 38.0223C82.4479 37.6329 82.4096 36.9983 81.9881 36.6495C80.2553 35.2151 78.7306 33.7776 77.4139 32.337C77.2 32.103 77.2806 31.7311 77.5602 31.581C77.6994 31.5063 77.867 31.5012 78.0119 31.5639C79.1614 32.0616 80.9064 32.3105 83.247 32.3105ZM81.0252 26.0693C81.0252 25.6854 81.0047 25.3178 80.9637 24.9666C80.8925 24.3568 81.3399 23.7644 81.9557 23.7644H85.9403C86.451 23.7644 86.8649 24.1771 86.8649 24.6862V28.0061C86.8649 28.5152 86.451 28.928 85.9403 28.928H82.2262C82.045 28.928 81.8761 28.9274 81.7196 28.9263C81.0763 28.9219 80.6962 28.2668 80.8462 27.643C80.9655 27.1468 81.0252 26.6222 81.0252 26.0693Z" fill="#004BD0"/><defs><radialGradient id="paint0_radial_2869_2637" cx="0" cy="0" r="1" gradientUnits="userSpaceOnUse" gradientTransform="translate(51.0809 9.14258) rotate(135.105) scale(59.1055 60.5668)"><stop offset="0.0665658" stop-color="#FCE300"/><stop offset="0.290127" stop-color="#2FFF86"/><stop offset="0.640574" stop-color="#0096E1"/><stop offset="0.83191" stop-color="#0057F2"/><stop offset="1" stop-color="#004BD0"/></radialGradient><radialGradient id="paint1_radial_2869_2637" cx="0" cy="0" r="1" gradientUnits="userSpaceOnUse" gradientTransform="translate(51.0809 9.14258) rotate(135.105) scale(59.1055 60.5668)"><stop offset="0.0665658" stop-color="#FCE300"/><stop offset="0.290127" stop-color="#2FFF86"/><stop offset="0.640574" stop-color="#0096E1"/><stop offset="0.83191" stop-color="#0057F2"/><stop offset="1" stop-color="#004BD0"/></radialGradient><radialGradient id="paint2_radial_2869_2637" cx="0" cy="0" r="1" gradientUnits="userSpaceOnUse" gradientTransform="translate(51.0809 9.14258) rotate(135.105) scale(59.1055 60.5668)"><stop offset="0.0665658" stop-color="#FCE300"/><stop offset="0.290127" stop-color="#2FFF86"/><stop offset="0.640574" stop-color="#0096E1"/><stop offset="0.83191" stop-color="#0057F2"/><stop offset="1" stop-color="#004BD0"/></radialGradient></defs></svg>