<svg width="177" height="60" viewBox="0 0 177 60" fill="none" xmlns="http://www.w3.org/2000/svg"><path d="M29.6848 9.46498C19.2349 9.46498 10.6291 17.3709 9.43953 27.5523C9.37949 28.0666 9.33445 28.5842 9.31023 29.1076C9.2884 29.5794 9.6705 29.9624 10.1397 29.9624H13.2367C13.7059 29.9624 14.0841 29.5792 14.1141 29.1079C14.1475 28.5824 14.2091 28.0647 14.2881 27.5523C15.4444 20.0436 21.8896 14.2852 29.6848 14.2852C38.2975 14.2852 45.2758 21.3062 45.2758 29.9624C45.2758 38.6189 38.2975 45.6322 29.6848 45.6322H6.28839C5.62113 45.6322 5.21861 46.3684 5.60047 46.9191C6.40129 48.074 7.28086 49.1702 8.23418 50.1955C8.39227 50.3655 8.61409 50.4601 8.84546 50.4601H29.6848C40.9477 50.4601 50.0794 41.2825 50.0792 29.9624C50.0792 18.6426 40.9477 9.46498 29.6848 9.46498Z" fill="url(#paint0_radial_2869_2636)"/><path d="M29.6848 0.5C20.5542 0.5 12.395 4.6794 7.00426 11.2444C3.24694 15.8195 0.907091 21.5946 0.422785 27.5074C0.421351 27.5225 0.416331 27.5369 0.415136 27.5523C0.373628 28.0686 0.335733 28.586 0.314192 29.1076C0.294706 29.5794 0.675985 29.9624 1.14521 29.9624H4.24221C4.71143 29.9624 5.09031 29.5794 5.1073 29.1075C5.12611 28.5852 5.16159 28.0677 5.21133 27.5523C6.41905 15.0353 16.9136 5.24522 29.6848 5.24522C43.2666 5.24522 54.2778 16.312 54.2778 29.9624C54.2778 43.613 43.2666 54.6798 29.6848 54.6796H16.3239C15.4815 54.6796 15.1831 55.7337 15.928 56.1298C19.6164 58.091 23.7727 59.2757 28.1833 59.5H29.6848C44.9022 59.5 57.4118 47.876 58.9169 32.9808C59.0147 32.0126 59.0713 31.0313 59.0737 30.0376C59.0737 29.0179 59.0173 28.0047 58.9169 27.0117C57.4118 12.1165 44.9022 0.5 29.6848 0.5Z" fill="url(#paint1_radial_2869_2636)"/><path d="M29.6848 18.5049C24.2156 18.5049 19.6575 22.3871 18.5536 27.5523C18.445 28.0609 18.3636 28.5792 18.3201 29.1083C18.2815 29.5789 18.665 29.9624 19.1342 29.9624H22.2386C22.7079 29.9624 23.0826 29.5779 23.1456 29.1099C23.2187 28.5677 23.3591 28.0469 23.5515 27.5523C24.5123 25.0843 26.8885 23.3325 29.6848 23.3328C33.3287 23.3328 36.2811 26.3001 36.2813 29.9624C36.2813 33.6247 33.3287 36.592 29.6848 36.5923H5.98047C5.79908 35.925 5.63054 35.2309 5.44002 34.5659C5.30624 34.099 4.88916 33.7763 4.4648 33.7763H1.39429C0.975077 33.7763 0.600887 34.2674 0.681583 34.7327C1.07008 36.8146 1.5348 38.9914 2.37274 40.9437C2.50367 41.2487 2.82414 41.4127 3.12475 41.4127H29.6848C35.9787 41.4127 41.0773 36.2883 41.0773 29.9624C41.0773 23.6367 35.9787 18.5049 29.6848 18.5049Z" fill="url(#paint2_radial_2869_2636)"/><path d="M129.811 26.7871L129.821 26.8012L129.833 26.8145C130.178 27.2192 130.63 27.4336 131.159 27.4336C131.423 27.4336 131.757 27.3632 132.136 27.2513L132.144 27.2489L132.152 27.2463C132.535 27.118 132.798 27.0268 132.923 26.9768C133.339 26.8182 133.923 26.672 134.69 26.5437L134.694 26.5429L134.699 26.542C135.494 26.3911 136.376 26.2505 137.347 26.1205C138.314 25.9911 139.303 25.8939 140.314 25.8291C141.349 25.7642 142.328 25.7319 143.251 25.7319C144.135 25.7319 145.095 25.7535 146.133 25.7969C147.173 25.8404 148.19 25.8948 149.186 25.96L149.187 25.96C150.2 26.0249 151.101 26.1113 151.892 26.2186L151.898 26.2194L151.904 26.2201C152.703 26.3067 153.27 26.4018 153.624 26.5005L153.647 26.507L153.671 26.511C153.757 26.5253 153.939 26.5775 154.244 26.6868L154.262 26.6932L154.28 26.6981C154.646 26.796 155.022 26.8446 155.409 26.8446C155.952 26.8446 156.415 26.6352 156.748 26.2102L156.752 26.2042L156.757 26.198C157.048 25.7996 157.204 25.3564 157.204 24.8782C157.204 24.4677 157.073 24.0958 156.809 23.7853C156.552 23.4833 156.191 23.2635 155.764 23.1043L155.761 23.1032C155.003 22.8264 154.056 22.6133 152.93 22.458C151.83 22.3035 150.667 22.1934 149.44 22.1273C148.24 22.0397 147.081 21.9848 145.966 21.9629L144.508 22.3997C144.508 22.3997 144.508 22.3997 144.508 22.3997L145.966 21.9629C144.878 21.941 143.973 21.93 143.251 21.93C142.479 21.93 141.545 21.9633 140.453 22.029C139.357 22.0951 138.207 22.2051 137.004 22.3587C135.819 22.4911 134.665 22.6786 133.544 22.9213C132.414 23.1439 131.417 23.4353 130.557 23.7988L130.555 23.8C130.172 23.9646 129.866 24.2212 129.659 24.5726C129.483 24.8531 129.364 25.155 129.364 25.4673C129.364 25.9455 129.52 26.3886 129.811 26.7871Z" fill="#004BD0"/><path d="M147.436 36.29L147.428 36.3071L147.421 36.3249C147.314 36.5933 147.258 36.8694 147.258 37.1507C147.258 37.6813 147.471 38.1349 147.873 38.4818C148.262 38.8193 148.701 39.0188 149.183 39.0188C149.407 39.0188 149.642 38.978 149.883 38.9069C150.225 38.8317 150.495 38.623 150.696 38.3374C151.502 37.2515 152.392 36.2733 153.366 35.4018C154.377 34.516 155.32 33.7631 156.195 33.1416L156.198 33.1399L156.2 33.1381C156.481 32.9331 156.711 32.6927 156.878 32.4134C157.07 32.0917 157.139 31.678 157.139 31.2271C157.139 30.3867 156.626 29.7646 155.815 29.3447L155.812 29.3434L155.81 29.3422C155.104 28.9879 154.188 28.7159 153.078 28.5154C151.975 28.316 150.797 28.1724 149.546 28.0841C148.321 27.9743 147.138 27.9084 145.998 27.8864C144.888 27.8645 143.973 27.8535 143.251 27.8535C142.476 27.8535 141.551 27.8979 140.481 27.9856C139.404 28.0519 138.275 28.1732 137.093 28.3489C135.929 28.5033 134.776 28.7128 133.634 28.9773C132.505 29.2221 131.479 29.5349 130.56 29.9177L130.557 29.9188L130.555 29.9199C130.172 30.0845 129.865 30.3411 129.659 30.6925C129.477 30.9823 129.364 31.2938 129.364 31.6199C129.364 32.0823 129.524 32.514 129.811 32.907L129.821 32.9211L129.833 32.9344C130.178 33.3391 130.63 33.5535 131.159 33.5535C131.423 33.5535 131.757 33.4831 132.136 33.3711L132.144 33.3688L132.152 33.3662C132.552 33.2324 132.772 33.1668 132.846 33.1518L132.884 33.1443L132.92 33.1306C133.346 32.9675 133.941 32.7987 134.712 32.6265C135.502 32.4551 136.38 32.3045 137.347 32.1749L137.352 32.1743L137.357 32.1735C138.324 32.0225 139.313 31.9037 140.324 31.8173L140.329 31.817L140.333 31.8165C141.362 31.7089 142.335 31.6554 143.251 31.6554C144.223 31.6554 145.292 31.677 146.461 31.7205L146.465 31.7207L146.47 31.7207C147.656 31.7424 148.788 31.7965 149.864 31.883L149.865 31.883C150.522 31.9348 151.107 32.0097 151.621 32.1063C150.983 32.6088 150.394 33.1068 149.855 33.6004C149.102 34.2669 148.436 34.9473 147.855 35.6417C147.697 35.8279 147.558 36.0458 147.436 36.29Z" fill="#004BD0"/><path d="M117.829 35.263L117.841 35.2746L117.854 35.2852C118.245 35.5988 118.68 35.7789 119.152 35.7789C119.363 35.7789 119.589 35.7525 119.828 35.7045L119.849 35.7002L119.87 35.694C120.2 35.5946 120.464 35.3825 120.664 35.0974C121.472 34.0101 122.34 33.0537 123.269 32.2266L123.27 32.2262C124.242 31.359 125.053 30.6949 125.708 30.2285L125.709 30.2277C126.176 29.8926 126.54 29.5743 126.759 29.2728L126.764 29.2652L126.769 29.2574C127.007 28.8993 127.107 28.4643 127.107 27.9872C127.107 27.565 126.955 27.1824 126.682 26.85C126.418 26.5019 125.926 26.1712 125.297 25.8445C124.221 25.2703 122.664 24.7692 120.653 24.3301C118.61 23.8622 116.13 23.6318 113.22 23.6318C110.687 23.6318 108.405 23.9192 106.379 24.5004L106.378 24.5008C104.409 25.0718 102.735 25.6789 101.361 26.3239C100.618 26.6535 100.038 27.0105 99.7433 27.4247C99.4834 27.7902 99.3319 28.1873 99.3319 28.609C99.3319 28.9902 99.4748 29.353 99.7069 29.6895C99.9894 30.0993 100.403 30.3135 100.899 30.3135C101.301 30.3135 101.751 30.2071 102.236 30.0215L102.245 30.0182L102.253 30.0145C102.703 29.8208 103.209 29.6157 103.769 29.3992L103.772 29.3981L103.775 29.397C104.096 29.2682 104.689 29.0407 105.558 28.7133C106.396 28.3979 107.467 28.1093 108.778 27.8504L108.78 27.8498L108.783 27.8492C110.094 27.5734 111.572 27.4336 113.22 27.4336C115.66 27.4336 117.566 27.5968 118.952 27.913L118.956 27.9139L118.96 27.9148C120.05 28.1435 120.979 28.4196 121.752 28.7395C121.05 29.2852 120.407 29.8254 119.823 30.3604C119.071 31.027 118.404 31.7074 117.823 32.4019C117.659 32.5956 117.518 32.8311 117.397 33.0982L117.393 33.1078L117.389 33.1177C117.285 33.3799 117.226 33.6454 117.226 33.9107C117.226 34.4402 117.437 34.8982 117.829 35.263Z" fill="#004BD0"/><path d="M74.987 35.9119L82.6524 38.8269L82.6566 38.8283C82.9886 38.9474 83.3043 39.0188 83.5932 39.0188C84.1432 39.0188 84.6134 38.7941 84.9779 38.3749C85.3253 37.9968 85.519 37.5518 85.519 37.0525C85.519 36.5227 85.2765 36.0872 84.8506 35.7704C84.5057 35.4943 84.1678 35.2869 83.8397 35.1764L78.0708 33.1476C78.6021 32.5984 79.3127 31.9954 80.2111 31.3393C81.4047 30.4834 82.7952 29.6559 84.3852 28.8577C85.9714 28.0613 87.6557 27.3718 89.4384 26.7894C91.2365 26.2092 92.9988 25.8235 94.7257 25.6308C95.6326 25.5297 96.3734 25.3309 96.8997 24.9982C97.4512 24.6496 97.7742 24.1447 97.7742 23.5037C97.7742 23.0233 97.5833 22.6073 97.1632 22.3575C96.8525 22.1609 96.4802 22.0479 96.0667 21.9988C95.7008 21.953 95.3347 21.93 94.9684 21.93C93.6787 21.93 92.1928 22.1568 90.5166 22.5997L90.5151 22.6001C88.9227 23.0265 87.2825 23.5957 85.5945 24.3068C83.6131 23.3511 81.4191 22.5643 79.0144 21.9446C76.5452 21.3027 74.0948 20.981 71.664 20.981C71.0091 20.981 70.4267 21.0863 69.9355 21.3199C69.6653 21.4484 69.4374 21.6326 69.2798 21.8825C69.1221 22.1325 69.0537 22.418 69.0537 22.7182C69.0537 23.031 69.1252 23.3305 69.2651 23.6116C69.4235 23.9297 69.6769 24.1634 69.9999 24.3126C70.2625 24.4421 70.5882 24.4872 70.9354 24.4882C72.7004 24.575 74.221 24.7261 75.4997 24.9401C76.7868 25.1555 77.9391 25.4238 78.9584 25.7436C79.6872 25.9723 80.4107 26.228 81.1291 26.5108C79.9284 27.1938 78.7919 27.921 77.7197 28.6925L77.7182 28.6936L77.7167 28.6947C76.4164 29.6462 75.3069 30.6468 74.392 31.6979C74.1625 31.9294 73.9259 32.2019 73.6823 32.5132L73.6758 32.5215L73.6697 32.5301C73.4146 32.8887 73.2583 33.2752 73.2583 33.6816C73.2583 34.2581 73.4313 34.7663 73.8165 35.153C74.1462 35.4841 74.5377 35.7365 74.9851 35.9112L74.987 35.9119Z" fill="#004BD0"/><defs><radialGradient id="paint0_radial_2869_2636" cx="0" cy="0" r="1" gradientUnits="userSpaceOnUse" gradientTransform="translate(50.7224 9.14258) rotate(134.902) scale(58.8964 60.3527)"><stop offset="0.0665658" stop-color="#FCE300"/><stop offset="0.290127" stop-color="#2FFF86"/><stop offset="0.640574" stop-color="#0096E1"/><stop offset="0.83191" stop-color="#0057F2"/><stop offset="1" stop-color="#004BD0"/></radialGradient><radialGradient id="paint1_radial_2869_2636" cx="0" cy="0" r="1" gradientUnits="userSpaceOnUse" gradientTransform="translate(50.7224 9.14258) rotate(134.902) scale(58.8964 60.3527)"><stop offset="0.0665658" stop-color="#FCE300"/><stop offset="0.290127" stop-color="#2FFF86"/><stop offset="0.640574" stop-color="#0096E1"/><stop offset="0.83191" stop-color="#0057F2"/><stop offset="1" stop-color="#004BD0"/></radialGradient><radialGradient id="paint2_radial_2869_2636" cx="0" cy="0" r="1" gradientUnits="userSpaceOnUse" gradientTransform="translate(50.7224 9.14258) rotate(134.902) scale(58.8964 60.3527)"><stop offset="0.0665658" stop-color="#FCE300"/><stop offset="0.290127" stop-color="#2FFF86"/><stop offset="0.640574" stop-color="#0096E1"/><stop offset="0.83191" stop-color="#0057F2"/><stop offset="1" stop-color="#004BD0"/></radialGradient></defs></svg>