<svg width="205" height="128" viewBox="0 0 205 128" fill="none" xmlns="http://www.w3.org/2000/svg"><path fill-rule="evenodd" clip-rule="evenodd" d="M109.491 34.6136C95.3032 34.6136 83.8019 46.2405 83.8019 60.583V67.4171H77.7177V60.583C77.7177 42.8436 91.943 28.4629 109.491 28.4629C127.039 28.4629 141.263 42.8437 141.263 60.583V67.4171C141.263 85.1564 127.039 99.5372 109.491 99.5372H63.8242V93.3866H109.491C123.678 93.3866 135.179 81.7596 135.179 67.4171V60.583C135.179 46.2405 123.678 34.6136 109.491 34.6136ZM109.491 44.8647C100.904 44.8647 93.9422 51.9022 93.9422 60.583V67.4171H87.858V60.583C87.858 48.5053 97.5435 38.714 109.491 38.714C121.438 38.714 131.123 48.5054 131.123 60.583V67.4171C131.123 79.4951 121.438 89.2861 109.491 89.2861H63.8242V83.1354H109.491C118.078 83.1354 125.039 76.0982 125.039 67.4171V60.583C125.039 51.9022 118.078 44.8647 109.491 44.8647ZM109.491 55.1158C106.504 55.1158 104.082 57.5636 104.082 60.583V67.4171H97.9983V60.583C97.9983 54.1667 103.144 48.9651 109.491 48.9651C115.838 48.9651 120.983 54.1667 120.983 60.583V67.4171C120.983 73.8334 115.838 79.035 109.491 79.035H63.8594V72.8843H109.491C112.478 72.8843 114.899 70.4366 114.899 67.4171V60.583C114.899 57.5635 112.478 55.1158 109.491 55.1158Z" fill="#014CD0"/></svg>