<svg width="205" height="128" viewBox="0 0 205 128" fill="none" xmlns="http://www.w3.org/2000/svg"><path d="M102.365 33.2384C93.4089 33.2384 85.3779 37.1744 79.8117 43.4041C81.6677 42.9492 83.5954 42.6824 85.5898 42.6824C99.1159 42.6824 110.077 53.7687 110.077 67.4488C110.077 79.7633 101.185 89.9506 89.545 91.8677C93.4452 93.7065 97.7779 94.7635 102.365 94.7635C119.163 94.7635 132.777 80.9862 132.777 63.9965C132.777 47.0068 119.163 33.2384 102.365 33.2384Z" fill="#0158F2"/><path d="M102.45 33.2365C87.5644 33.2365 75.2138 44.0768 72.6054 58.3682C72.3907 59.8538 72.3105 60.993 72.3105 62.4099C72.3105 71.3161 79.1988 78.5867 88.0048 78.5867C95.5989 78.5867 101.945 73.2107 103.55 66.0208C105.242 58.9456 112.116 53.9159 119.724 53.9159C124.86 53.9159 129.454 56.2409 132.544 59.9076C130.573 44.8603 117.866 33.2368 102.45 33.2365Z" fill="#0196E1"/></svg>