<svg width="177" height="60" viewBox="0 0 177 60" fill="none" xmlns="http://www.w3.org/2000/svg"><path d="M29.6277 9.54484C19.1981 9.54484 10.609 17.42 9.4218 27.5618C9.36187 28.0741 9.31692 28.5897 9.29275 29.1111C9.27096 29.581 9.65232 29.9625 10.1206 29.9625H13.2116C13.6799 29.9625 14.0574 29.5808 14.0873 29.1114C14.1206 28.5879 14.1821 28.0722 14.2609 27.5618C15.415 20.0823 21.8477 14.3463 29.6277 14.3463C38.2237 14.3463 45.1885 21.3399 45.1885 29.9625C45.1885 38.5853 38.2237 45.5713 29.6277 45.5713H6.27679C5.61082 45.5713 5.20908 46.3047 5.5902 46.8532C6.38946 48.0037 7.26732 49.0955 8.21879 50.1169C8.37657 50.2862 8.59797 50.3804 8.82889 50.3804H29.6277C40.8688 50.3804 49.9827 41.2385 49.9825 29.9625C49.9825 18.6867 40.8688 9.54484 29.6277 9.54484Z" fill="url(#paint0_radial_2869_2635)"/><path d="M29.6277 0.614746C20.5149 0.614746 12.3715 4.77788 6.99126 11.3173C3.24124 15.8747 0.905938 21.6273 0.422573 27.517C0.421141 27.5321 0.416131 27.5465 0.414938 27.5618C0.373511 28.0761 0.33569 28.5914 0.31419 29.111C0.294743 29.581 0.675281 29.9625 1.14359 29.9625H4.23457C4.70288 29.9625 5.08103 29.581 5.09799 29.1109C5.11676 28.5907 5.15217 28.0752 5.20182 27.5618C6.40719 15.0935 16.8814 5.3415 29.6277 5.3415C43.1831 5.3415 54.1729 16.3652 54.1729 29.9625C54.1729 43.56 43.1831 54.5837 29.6277 54.5835H16.2928C15.452 54.5835 15.1542 55.6335 15.8977 56.028C19.5789 57.9817 23.7271 59.1617 28.1291 59.3852H29.6277C44.8156 59.3852 57.3009 47.8064 58.803 32.9692C58.9006 32.0047 58.9572 31.0273 58.9596 30.0374C58.9596 29.0217 58.9032 28.0124 58.803 27.0233C57.3009 12.1861 44.8156 0.614746 29.6277 0.614746Z" fill="url(#paint1_radial_2869_2635)"/><path d="M29.6277 18.5496C24.1692 18.5496 19.62 22.4167 18.5181 27.5618C18.4097 28.0684 18.3285 28.5846 18.2851 29.1117C18.2466 29.5805 18.6294 29.9625 19.0977 29.9625H22.196C22.6644 29.9625 23.0383 29.5795 23.1013 29.1133C23.1742 28.5733 23.3143 28.0545 23.5064 27.5618C24.4653 25.1034 26.8369 23.3584 29.6277 23.3587C33.2646 23.3587 36.2112 26.3144 36.2114 29.9625C36.2114 33.6106 33.2646 36.5663 29.6277 36.5666H5.96946C5.78842 35.9019 5.62021 35.2105 5.43006 34.5481C5.29654 34.083 4.88027 33.7616 4.45673 33.7616H1.39219C0.973792 33.7616 0.600329 34.2508 0.680868 34.7142C1.06861 36.788 1.53242 38.9563 2.36874 40.901C2.49941 41.2049 2.81926 41.3682 3.11929 41.3682H29.6277C35.9094 41.3682 40.9981 36.2638 40.9981 29.9625C40.9981 23.6614 35.9094 18.5496 29.6277 18.5496Z" fill="url(#paint2_radial_2869_2635)"/><path d="M160.202 38.9158C159.747 38.9158 159.259 38.8614 158.738 38.7528C158.24 38.6441 157.676 38.4811 157.047 38.2638L148.276 35.3744C147.9 35.2506 147.646 34.8987 147.646 34.5021V34.194C147.646 33.8336 147.857 33.5083 148.18 33.3498C149.782 32.5641 151.014 31.6811 151.875 30.7008C152.85 29.5924 153.338 28.3971 153.338 27.1148V26.9192C153.338 25.6805 152.634 25.0611 151.224 25.0611H149.54C148.831 25.0611 148.391 25.8324 148.75 26.4446L148.981 26.8397C149.34 27.4519 148.9 28.2232 148.191 28.2232H147.399C147.086 28.2232 146.795 28.0637 146.627 27.8L143.268 22.5414C143.08 22.2477 143.074 21.8728 143.253 21.5738L143.28 21.5298C143.445 21.2532 143.744 21.084 144.066 21.084H152.362C155.941 21.084 157.73 22.7465 157.73 26.0717C157.73 28.4135 156.984 30.4092 155.492 32.0588C154.996 32.6063 155.174 33.5429 155.878 33.763L158.803 34.6779C158.89 34.6996 158.966 34.7213 159.031 34.7431C159.096 34.7648 159.161 34.7757 159.226 34.7757C159.877 34.7757 160.202 34.4497 160.202 33.7977V29.1034C160.202 23.7571 162.935 21.084 168.4 21.084C173.757 21.084 176.435 23.7028 176.435 28.9404V37.9649C176.435 38.472 176.025 38.8832 175.519 38.8832H173.09C172.584 38.8832 172.173 38.472 172.173 37.9649V28.5818C172.173 26.2999 170.894 25.1589 168.335 25.1589C165.754 25.1589 164.464 26.3325 164.464 28.6796V35.4928C164.464 36.6881 164.084 37.5575 163.325 38.1008C162.566 38.6441 161.525 38.9158 160.202 38.9158Z" fill="#004BD0"/><path d="M119.809 38.8832C119.303 38.8832 118.893 38.472 118.893 37.9649V27.6364C118.893 25.8761 118.004 24.9959 116.225 24.9959C114.447 24.9959 113.558 25.9087 113.558 27.7342C113.558 29.1733 114.228 30.1543 115.569 30.6773C116.03 30.8572 116.349 31.3166 116.26 31.8046L115.999 33.2303C115.908 33.7253 115.435 34.0588 114.948 33.939C114.05 33.7184 113.24 33.4105 112.517 33.0153C111.563 32.472 110.814 31.7548 110.272 30.8638C109.73 29.9727 109.459 28.8861 109.459 27.6038C109.459 25.5827 110.034 23.9962 111.183 22.8443C112.332 21.6708 113.851 21.084 115.737 21.084C117.581 21.084 119.029 21.5685 120.081 22.5376C120.602 23.0182 121.529 23.0114 122.034 22.5131C122.999 21.5603 124.261 21.084 125.822 21.084C127.441 21.084 128.741 21.5579 129.722 22.5056C130.235 23.001 131.172 23.0024 131.693 22.5165C132.719 21.5615 134.123 21.084 135.906 21.084C140.287 21.084 142.477 23.1703 142.477 27.343V37.9649C142.477 38.472 142.067 38.8832 141.561 38.8832H139.132C138.626 38.8832 138.216 38.472 138.216 37.9649V27.6364C138.216 25.8761 137.305 24.9959 135.483 24.9959C133.64 24.9959 132.718 25.9087 132.718 27.7342V37.9649C132.718 38.472 132.308 38.8832 131.802 38.8832H129.405C128.899 38.8832 128.489 38.472 128.489 37.9649V27.6364C128.489 25.8761 127.6 24.9959 125.822 24.9959C124.022 24.9959 123.122 25.9087 123.122 27.7342V37.9649C123.122 38.472 122.711 38.8832 122.205 38.8832H119.809Z" fill="#004BD0"/><path d="M76.6678 38.1169C76.5777 38.5585 76.1806 38.8733 75.733 38.8293C74.0226 38.6611 72.6664 38.1792 71.6645 37.3836C70.5151 36.4491 69.9404 35.0691 69.9404 33.2435V29.8858C69.9404 24.0179 73.0959 21.084 79.4067 21.084C85.7176 21.084 88.873 24.007 88.873 29.8532V30.2458C88.873 30.4949 88.974 30.7333 89.1528 30.9063L92.6791 34.3193C93.0911 34.7322 93.4598 34.9387 93.7851 34.9387C94.349 34.9387 94.6309 34.504 94.6309 33.6347V27.669C94.6309 23.279 96.8429 21.084 101.267 21.084C105.648 21.084 107.838 23.2247 107.838 27.506V37.9649C107.838 38.472 107.428 38.8832 106.922 38.8832H104.493C103.987 38.8832 103.577 38.472 103.577 37.9649V27.4734C103.577 25.9304 102.807 25.1589 101.267 25.1589C99.6839 25.1589 98.8923 25.963 98.8923 27.5712V34.8735C98.8923 36.1774 98.567 37.1771 97.9164 37.8726C97.2875 38.568 96.3767 38.9158 95.1839 38.9158C94.4899 38.9158 93.7959 38.7419 93.102 38.3942C92.408 38.0247 91.6815 37.4923 90.9224 36.7968L90.2681 36.1718C89.7038 35.6328 88.7126 36.0186 88.3335 36.7012C88.0527 37.2069 87.6578 37.6191 87.1489 37.9378C86.108 38.568 84.7851 38.8832 83.1802 38.8832C81.7055 38.8832 80.4911 38.5137 79.5369 37.7748C78.5826 37.0141 78.1055 35.8949 78.1055 34.4171C78.1055 33.0044 78.5609 31.9069 79.4718 31.1245C80.361 30.3422 81.5971 29.951 83.1802 29.951C83.488 29.951 83.8895 29.9766 84.3849 30.0279C84.4885 30.0386 84.579 29.9575 84.579 29.8532C84.579 26.7236 82.8549 25.1589 79.4067 25.1589C76.0453 25.1589 74.3645 26.7236 74.3645 29.8532V33.0805C74.3645 34.3666 74.9702 35.2171 76.1816 35.632C76.6814 35.8032 77.0403 36.2895 76.9346 36.808L76.6678 38.1169ZM83.2453 35.7862C84.1561 35.7862 84.6116 35.2864 84.6116 34.2867V33.674C84.6116 33.2575 84.3089 32.8983 83.8959 32.8523C83.7007 32.8306 83.5272 32.8197 83.3754 32.8197C82.3561 32.8197 81.8465 33.363 81.8465 34.4497C81.8465 35.3407 82.3128 35.7862 83.2453 35.7862Z" fill="#004BD0"/><defs><radialGradient id="paint0_radial_2869_2635" cx="0" cy="0" r="1" gradientUnits="userSpaceOnUse" gradientTransform="translate(50.6245 9.22369) rotate(134.958) scale(58.7245 60.1767)"><stop offset="0.0665658" stop-color="#FCE300"/><stop offset="0.290127" stop-color="#2FFF86"/><stop offset="0.640574" stop-color="#0096E1"/><stop offset="0.83191" stop-color="#0057F2"/><stop offset="1" stop-color="#004BD0"/></radialGradient><radialGradient id="paint1_radial_2869_2635" cx="0" cy="0" r="1" gradientUnits="userSpaceOnUse" gradientTransform="translate(50.6245 9.22369) rotate(134.958) scale(58.7245 60.1767)"><stop offset="0.0665658" stop-color="#FCE300"/><stop offset="0.290127" stop-color="#2FFF86"/><stop offset="0.640574" stop-color="#0096E1"/><stop offset="0.83191" stop-color="#0057F2"/><stop offset="1" stop-color="#004BD0"/></radialGradient><radialGradient id="paint2_radial_2869_2635" cx="0" cy="0" r="1" gradientUnits="userSpaceOnUse" gradientTransform="translate(50.6245 9.22369) rotate(134.958) scale(58.7245 60.1767)"><stop offset="0.0665658" stop-color="#FCE300"/><stop offset="0.290127" stop-color="#2FFF86"/><stop offset="0.640574" stop-color="#0096E1"/><stop offset="0.83191" stop-color="#0057F2"/><stop offset="1" stop-color="#004BD0"/></radialGradient></defs></svg>