<svg width="205" height="128" viewBox="0 0 205 128" fill="none" xmlns="http://www.w3.org/2000/svg"><path d="M102.533 48.7057C95.231 48.7057 89.1457 53.871 87.6718 60.7433C87.5268 61.42 87.4182 62.1096 87.3602 62.8136C87.3086 63.4398 87.8206 63.95 88.447 63.95H92.5916C93.218 63.95 93.7183 63.4384 93.8025 62.8157C93.9001 62.0944 94.0874 61.4014 94.3444 60.7433C95.6271 57.4596 98.7995 55.1289 102.533 55.1292C107.397 55.1292 111.339 59.0772 111.339 63.95C111.339 68.8228 107.397 72.7707 102.533 72.771H65.7149C64.987 72.771 64.4468 73.4493 64.6317 74.1555C65.0188 75.6334 65.484 77.0793 66.0346 78.483C66.2021 78.9098 66.6162 79.1847 67.0735 79.1847H102.533C110.935 79.1847 117.742 72.3667 117.742 63.95C117.742 55.5336 110.935 48.7057 102.533 48.7057Z" fill="url(#paint0_angular_2838_4365)"/><path d="M102.533 36.678C88.5814 36.678 77.0922 47.1968 75.5041 60.7433C75.4239 61.4276 75.3638 62.1163 75.3315 62.8127C75.3023 63.4403 75.8124 63.95 76.4389 63.95H80.5735C81.2 63.95 81.7049 63.4401 81.7449 62.8131C81.7895 62.1139 81.8717 61.4251 81.9772 60.7433C83.5209 50.7529 92.1256 43.0913 102.533 43.0913C114.031 43.0913 123.347 52.4328 123.347 63.95C123.347 75.4675 114.031 84.7988 102.533 84.7988H71.2972C70.4063 84.7988 69.8689 85.7783 70.3787 86.511C71.4479 88.0477 72.6221 89.5061 73.8949 90.8703C74.1059 91.0965 74.4021 91.2223 74.711 91.2223H102.533C117.569 91.2223 129.761 79.0114 129.76 63.95C129.76 48.8889 117.569 36.678 102.533 36.678Z" fill="url(#paint1_angular_2838_4365)"/><path d="M102.533 24.75C90.3428 24.75 79.4498 30.3107 72.2529 39.0455C67.2367 45.1328 64.1128 52.8165 63.4662 60.6835C63.4643 60.7037 63.4576 60.7229 63.456 60.7433C63.4006 61.4303 63.35 62.1186 63.3213 62.8126C63.2953 63.4404 63.8043 63.95 64.4307 63.95H68.5654C69.1918 63.95 69.6976 63.4404 69.7203 62.8125C69.7454 62.1176 69.7928 61.4291 69.8592 60.7433C71.4716 44.0893 85.4824 31.0636 102.533 31.0636C120.665 31.0636 135.366 45.788 135.366 63.95C135.366 82.1122 120.665 96.8367 102.533 96.8364H84.6951C83.5704 96.8364 83.1721 98.2389 84.1666 98.7659C89.0908 101.375 94.6397 102.952 100.528 103.25H102.533C122.849 103.25 139.55 87.7842 141.559 67.966C141.69 66.6777 141.765 65.3722 141.768 64.05C141.768 62.6933 141.693 61.3453 141.559 60.0241C139.55 40.2059 122.849 24.75 102.533 24.75Z" fill="url(#paint2_angular_2838_4365)"/><defs><radialGradient id="paint0_angular_2838_4365" cx="0" cy="0" r="1" gradientUnits="userSpaceOnUse" gradientTransform="translate(102.996 64.5688) rotate(90) scale(38.6812 39.6991)"><stop offset="0.00135264" stop-color="#0096E1"/><stop offset="0.114087" stop-color="#0057F2"/><stop offset="0.185972" stop-color="#004BD0"/><stop offset="0.240276" stop-color="#003DAE"/><stop offset="0.248093" stop-color="#00FD6A"/></radialGradient><radialGradient id="paint1_angular_2838_4365" cx="0" cy="0" r="1" gradientUnits="userSpaceOnUse" gradientTransform="translate(102.996 64.5688) rotate(90) scale(38.6812 39.6991)"><stop offset="0.00135264" stop-color="#0096E1"/><stop offset="0.114087" stop-color="#0057F2"/><stop offset="0.185972" stop-color="#004BD0"/><stop offset="0.240276" stop-color="#003DAE"/><stop offset="0.248093" stop-color="#00FD6A"/></radialGradient><radialGradient id="paint2_angular_2838_4365" cx="0" cy="0" r="1" gradientUnits="userSpaceOnUse" gradientTransform="translate(102.996 64.5688) rotate(90) scale(38.6812 39.6991)"><stop offset="0.00135264" stop-color="#0096E1"/><stop offset="0.114087" stop-color="#0057F2"/><stop offset="0.185972" stop-color="#004BD0"/><stop offset="0.240276" stop-color="#003DAE"/><stop offset="0.248093" stop-color="#00FD6A"/></radialGradient></defs></svg>