<svg width="144" height="144" viewBox="0 0 144 144" fill="none" xmlns="http://www.w3.org/2000/svg"><path d="M71.5258 21.8806C46.078 21.8806 25.1208 41.1764 22.224 66.026C22.0778 67.2811 21.9681 68.5445 21.9091 69.822C21.856 70.9734 22.7865 71.9082 23.9291 71.9082H31.4711C32.6137 71.9082 33.5347 70.973 33.6077 69.8227C33.689 68.5402 33.839 67.2766 34.0314 66.026C36.8473 47.6996 52.5428 33.6451 71.5258 33.6451C92.4998 33.6451 109.494 50.7811 109.494 71.9082C109.494 93.0359 92.4998 110.153 71.5258 110.153H14.5503C12.9253 110.153 11.9451 111.95 12.875 113.294C14.8252 116.113 16.9672 118.788 19.2887 121.291C19.6737 121.706 20.2139 121.936 20.7773 121.936H71.5258C98.9536 121.936 121.191 99.5368 121.191 71.9082C121.191 44.2802 98.9536 21.8806 71.5258 21.8806Z" fill="white" style="mix-blend-mode:difference"/><path d="M71.5258 0C49.2909 0 29.4213 10.2006 16.2936 26.2236C7.14366 37.39 1.44559 51.4851 0.266191 65.9163C0.262698 65.9533 0.250474 65.9884 0.247563 66.026C0.146483 67.2862 0.054199 68.5488 0.00174145 69.8219C-0.0457101 70.9735 0.882792 71.9082 2.02545 71.9082H9.56736C10.71 71.9082 11.6327 70.9736 11.6741 69.8217C11.7199 68.5469 11.8063 67.2839 11.9274 66.026C14.8685 35.4759 40.4252 11.5815 71.5258 11.5815C104.601 11.5815 131.415 38.5921 131.415 71.9082C131.415 105.225 104.601 132.236 71.5258 132.235H38.9891C36.9375 132.235 36.2109 134.808 38.0249 135.774C47.007 140.561 57.1286 143.453 67.8693 144H71.5258C108.584 144 139.047 115.63 142.713 79.2753C142.951 76.912 143.089 74.5172 143.095 72.0918C143.095 69.6031 142.957 67.1302 142.713 64.7066C139.047 28.3522 108.584 0 71.5258 0Z" fill="white" style="mix-blend-mode:difference"/><path d="M71.5258 43.9442C58.2072 43.9442 47.1072 53.4194 44.4188 66.026C44.1543 67.2672 43.9561 68.5322 43.8503 69.8237C43.7562 70.9724 44.6902 71.9082 45.8328 71.9082H53.3928C54.5355 71.9082 55.4479 70.9697 55.6016 69.8276C55.7796 68.5043 56.1213 67.2332 56.59 66.026C58.9297 60.0024 64.7163 55.7269 71.5258 55.7275C80.3997 55.7275 87.5893 62.9696 87.5899 71.9082C87.5899 80.8468 80.3997 88.089 71.5258 88.0896H13.8004C13.3587 86.461 12.9483 84.7669 12.4843 83.144C12.1585 82.0043 11.1428 81.2168 10.1094 81.2168H2.63203C1.61115 81.2168 0.699911 82.4154 0.896424 83.5509C1.84251 88.6322 2.9742 93.945 5.01477 98.71C5.33362 99.4545 6.11403 99.8547 6.8461 99.8547H71.5258C86.8529 99.8547 99.2692 87.3478 99.2692 71.9082C99.2692 56.4693 86.8529 43.9442 71.5258 43.9442Z" fill="white" style="mix-blend-mode:difference"/></svg>