<svg xmlns="http://www.w3.org/2000/svg" viewBox="0 0 231 231" width="1000" height="1000" fill="#fff" data-dot="7"><path d="M0 0h231v231H0z"/><g fill="#000"><path d="M28 203v-21h21v21z"/><path clip-rule="evenodd" class="svgeye" d="M14 217h49v-49H14zm7-7v-35h35v35z"/><path d="M203 28v21h-21V28z"/><path clip-rule="evenodd" class="svgeye" d="M217 14h-49v49h49zm-7 7v35h-35V21z"/><path d="M28 28h21v21H28z"/><path clip-rule="evenodd" class="svgeye" d="M14 14v49h49V14zm7 7h35v35H21z"/><path d="M77 14h7v7h-7zM84 14h7v7h-7zM91 14h7v7h-7zM98 14h7v7h-7zM119 14h7v7h-7zM126 14h7v7h-7zM133 14h7v7h-7zM147 14h7v7h-7zM154 14h7v7h-7zM84 21h7v7h-7zM91 21h7v7h-7zM112 21h7v7h-7zM154 21h7v7h-7zM77 28h7v7h-7zM84 28h7v7h-7zM91 28h7v7h-7zM112 28h7v7h-7zM126 28h7v7h-7zM133 28h7v7h-7zM147 28h7v7h-7zM154 28h7v7h-7zM70 35h7v7h-7zM77 35h7v7h-7zM98 35h7v7h-7zM105 35h7v7h-7zM112 35h7v7h-7zM126 35h7v7h-7zM133 35h7v7h-7zM140 35h7v7h-7zM84 42h7v7h-7zM98 42h7v7h-7zM105 42h7v7h-7zM112 42h7v7h-7zM140 42h7v7h-7zM70 49h7v7h-7zM77 49h7v7h-7zM84 49h7v7h-7zM98 49h7v7h-7zM133 49h7v7h-7zM140 49h7v7h-7zM154 49h7v7h-7zM70 56h7v7h-7zM84 56h7v7h-7zM98 56h7v7h-7zM112 56h7v7h-7zM126 56h7v7h-7zM140 56h7v7h-7zM154 56h7v7h-7zM70 63h7v7h-7zM84 63h7v7h-7zM91 63h7v7h-7zM105 63h7v7h-7zM133 63h7v7h-7zM147 63h7v7h-7zM154 63h7v7h-7zM21 70h7v7h-7zM28 70h7v7h-7zM56 70h7v7h-7zM91 70h7v7h-7zM98 70h7v7h-7zM105 70h7v7h-7zM112 70h7v7h-7zM133 70h7v7h-7zM147 70h7v7h-7zM154 70h7v7h-7zM168 70h7v7h-7zM175 70h7v7h-7zM189 70h7v7h-7zM28 77h7v7h-7zM77 77h7v7h-7zM91 77h7v7h-7zM112 77h7v7h-7zM119 77h7v7h-7zM154 77h7v7h-7zM175 77h7v7h-7zM182 77h7v7h-7zM189 77h7v7h-7zM196 77h7v7h-7zM203 77h7v7h-7zM210 77h7v7h-7zM14 84h7v7h-7zM28 84h7v7h-7zM35 84h7v7h-7zM49 84h7v7h-7zM56 84h7v7h-7zM63 84h7v7h-7zM70 84h7v7h-7zM91 84h7v7h-7zM105 84h7v7h-7zM119 84h7v7h-7zM133 84h7v7h-7zM140 84h7v7h-7zM154 84h7v7h-7zM161 84h7v7h-7zM175 84h7v7h-7zM210 84h7v7h-7zM14 91h7v7h-7zM84 91h7v7h-7zM91 91h7v7h-7zM140 91h7v7h-7zM147 91h7v7h-7zM154 91h7v7h-7zM168 91h7v7h-7zM175 91h7v7h-7zM182 91h7v7h-7zM189 91h7v7h-7zM14 98h7v7h-7zM28 98h7v7h-7zM35 98h7v7h-7zM56 98h7v7h-7zM70 98h7v7h-7zM77 98h7v7h-7zM98 98h7v7h-7zM119 98h7v7h-7zM126 98h7v7h-7zM161 98h7v7h-7zM168 98h7v7h-7zM189 98h7v7h-7zM203 98h7v7h-7zM21 105h7v7h-7zM28 105h7v7h-7zM42 105h7v7h-7zM49 105h7v7h-7zM84 105h7v7h-7zM91 105h7v7h-7zM105 105h7v7h-7zM112 105h7v7h-7zM147 105h7v7h-7zM154 105h7v7h-7zM168 105h7v7h-7zM189 105h7v7h-7zM210 105h7v7h-7zM14 112h7v7h-7zM21 112h7v7h-7zM28 112h7v7h-7zM35 112h7v7h-7zM42 112h7v7h-7zM56 112h7v7h-7zM70 112h7v7h-7zM105 112h7v7h-7zM133 112h7v7h-7zM140 112h7v7h-7zM147 112h7v7h-7zM154 112h7v7h-7zM161 112h7v7h-7zM168 112h7v7h-7zM189 112h7v7h-7zM196 112h7v7h-7zM203 112h7v7h-7zM210 112h7v7h-7zM14 119h7v7h-7zM21 119h7v7h-7zM63 119h7v7h-7zM70 119h7v7h-7zM77 119h7v7h-7zM91 119h7v7h-7zM105 119h7v7h-7zM126 119h7v7h-7zM140 119h7v7h-7zM154 119h7v7h-7zM161 119h7v7h-7zM189 119h7v7h-7zM203 119h7v7h-7zM28 126h7v7h-7zM49 126h7v7h-7zM56 126h7v7h-7zM70 126h7v7h-7zM84 126h7v7h-7zM91 126h7v7h-7zM112 126h7v7h-7zM119 126h7v7h-7zM126 126h7v7h-7zM133 126h7v7h-7zM140 126h7v7h-7zM147 126h7v7h-7zM161 126h7v7h-7zM168 126h7v7h-7zM175 126h7v7h-7zM182 126h7v7h-7zM21 133h7v7h-7zM28 133h7v7h-7zM35 133h7v7h-7zM49 133h7v7h-7zM70 133h7v7h-7zM77 133h7v7h-7zM91 133h7v7h-7zM126 133h7v7h-7zM133 133h7v7h-7zM140 133h7v7h-7zM161 133h7v7h-7zM210 133h7v7h-7zM14 140h7v7h-7zM21 140h7v7h-7zM35 140h7v7h-7zM49 140h7v7h-7zM56 140h7v7h-7zM63 140h7v7h-7zM70 140h7v7h-7zM84 140h7v7h-7zM91 140h7v7h-7zM98 140h7v7h-7zM105 140h7v7h-7zM126 140h7v7h-7zM147 140h7v7h-7zM182 140h7v7h-7zM196 140h7v7h-7zM210 140h7v7h-7zM42 147h7v7h-7zM49 147h7v7h-7zM63 147h7v7h-7zM70 147h7v7h-7zM77 147h7v7h-7zM91 147h7v7h-7zM105 147h7v7h-7zM112 147h7v7h-7zM119 147h7v7h-7zM126 147h7v7h-7zM161 147h7v7h-7zM168 147h7v7h-7zM182 147h7v7h-7zM189 147h7v7h-7zM203 147h7v7h-7zM14 154h7v7h-7zM21 154h7v7h-7zM35 154h7v7h-7zM42 154h7v7h-7zM56 154h7v7h-7zM63 154h7v7h-7zM70 154h7v7h-7zM77 154h7v7h-7zM84 154h7v7h-7zM91 154h7v7h-7zM126 154h7v7h-7zM140 154h7v7h-7zM147 154h7v7h-7zM154 154h7v7h-7zM161 154h7v7h-7zM168 154h7v7h-7zM175 154h7v7h-7zM182 154h7v7h-7zM189 154h7v7h-7zM210 154h7v7h-7zM70 161h7v7h-7zM77 161h7v7h-7zM91 161h7v7h-7zM98 161h7v7h-7zM112 161h7v7h-7zM119 161h7v7h-7zM126 161h7v7h-7zM133 161h7v7h-7zM154 161h7v7h-7zM182 161h7v7h-7zM189 161h7v7h-7zM210 161h7v7h-7zM84 168h7v7h-7zM98 168h7v7h-7zM105 168h7v7h-7zM119 168h7v7h-7zM154 168h7v7h-7zM168 168h7v7h-7zM182 168h7v7h-7zM189 168h7v7h-7zM196 168h7v7h-7zM210 168h7v7h-7zM91 175h7v7h-7zM119 175h7v7h-7zM133 175h7v7h-7zM147 175h7v7h-7zM154 175h7v7h-7zM182 175h7v7h-7zM189 175h7v7h-7zM203 175h7v7h-7zM210 175h7v7h-7zM77 182h7v7h-7zM84 182h7v7h-7zM98 182h7v7h-7zM105 182h7v7h-7zM119 182h7v7h-7zM133 182h7v7h-7zM147 182h7v7h-7zM154 182h7v7h-7zM161 182h7v7h-7zM168 182h7v7h-7zM175 182h7v7h-7zM182 182h7v7h-7zM84 189h7v7h-7zM91 189h7v7h-7zM98 189h7v7h-7zM112 189h7v7h-7zM133 189h7v7h-7zM147 189h7v7h-7zM154 189h7v7h-7zM175 189h7v7h-7zM182 189h7v7h-7zM203 189h7v7h-7zM70 196h7v7h-7zM77 196h7v7h-7zM91 196h7v7h-7zM105 196h7v7h-7zM119 196h7v7h-7zM161 196h7v7h-7zM182 196h7v7h-7zM196 196h7v7h-7zM203 196h7v7h-7zM210 196h7v7h-7zM70 203h7v7h-7zM77 203h7v7h-7zM91 203h7v7h-7zM161 203h7v7h-7zM168 203h7v7h-7zM189 203h7v7h-7zM112 210h7v7h-7zM119 210h7v7h-7zM126 210h7v7h-7zM161 210h7v7h-7zM175 210h7v7h-7zM182 210h7v7h-7zM189 210h7v7h-7zM210 210h7v7h-7z"/></g></svg>