<svg xmlns="http://www.w3.org/2000/svg" viewBox="0 0 232 232" width="1000" height="1000" fill="#fff" data-dot="8"><path d="M0 0h232v232H0z"/><g fill="#000"><path d="M32 200v-24h24v24z"/><path clip-rule="evenodd" class="svgeye" d="M16 216h56v-56H16zm8-8v-40h40v40z"/><path d="M200 32v24h-24V32z"/><path clip-rule="evenodd" class="svgeye" d="M216 16h-56v56h56zm-8 8v40h-40V24z"/><path d="M32 32h24v24H32z"/><path clip-rule="evenodd" class="svgeye" d="M16 16v56h56V16zm8 8h40v40H24z"/><path d="M80 16h8v8h-8zM88 16h8v8h-8zM104 16h8v8h-8zM128 16h8v8h-8zM144 16h8v8h-8zM80 24h8v8h-8zM88 24h8v8h-8zM120 24h8v8h-8zM128 24h8v8h-8zM144 24h8v8h-8zM88 32h8v8h-8zM104 32h8v8h-8zM128 32h8v8h-8zM136 32h8v8h-8zM144 32h8v8h-8zM88 40h8v8h-8zM112 40h8v8h-8zM120 40h8v8h-8zM136 40h8v8h-8zM144 40h8v8h-8zM88 48h8v8h-8zM96 48h8v8h-8zM104 48h8v8h-8zM120 48h8v8h-8zM144 48h8v8h-8zM88 56h8v8h-8zM96 56h8v8h-8zM128 56h8v8h-8zM144 56h8v8h-8zM80 64h8v8h-8zM96 64h8v8h-8zM112 64h8v8h-8zM128 64h8v8h-8zM144 64h8v8h-8zM104 72h8v8h-8zM112 72h8v8h-8zM128 72h8v8h-8zM136 72h8v8h-8zM144 72h8v8h-8zM24 80h8v8h-8zM64 80h8v8h-8zM72 80h8v8h-8zM80 80h8v8h-8zM88 80h8v8h-8zM120 80h8v8h-8zM128 80h8v8h-8zM152 80h8v8h-8zM200 80h8v8h-8zM208 80h8v8h-8zM16 88h8v8h-8zM48 88h8v8h-8zM56 88h8v8h-8zM80 88h8v8h-8zM112 88h8v8h-8zM128 88h8v8h-8zM136 88h8v8h-8zM152 88h8v8h-8zM168 88h8v8h-8zM176 88h8v8h-8zM184 88h8v8h-8zM192 88h8v8h-8zM200 88h8v8h-8zM16 96h8v8h-8zM24 96h8v8h-8zM64 96h8v8h-8zM72 96h8v8h-8zM80 96h8v8h-8zM112 96h8v8h-8zM128 96h8v8h-8zM136 96h8v8h-8zM144 96h8v8h-8zM152 96h8v8h-8zM160 96h8v8h-8zM184 96h8v8h-8zM200 96h8v8h-8zM208 96h8v8h-8zM24 104h8v8h-8zM32 104h8v8h-8zM56 104h8v8h-8zM72 104h8v8h-8zM80 104h8v8h-8zM104 104h8v8h-8zM128 104h8v8h-8zM136 104h8v8h-8zM152 104h8v8h-8zM168 104h8v8h-8zM184 104h8v8h-8zM208 104h8v8h-8zM32 112h8v8h-8zM40 112h8v8h-8zM48 112h8v8h-8zM56 112h8v8h-8zM64 112h8v8h-8zM72 112h8v8h-8zM96 112h8v8h-8zM104 112h8v8h-8zM120 112h8v8h-8zM128 112h8v8h-8zM136 112h8v8h-8zM144 112h8v8h-8zM160 112h8v8h-8zM168 112h8v8h-8zM208 112h8v8h-8zM16 120h8v8h-8zM32 120h8v8h-8zM40 120h8v8h-8zM56 120h8v8h-8zM72 120h8v8h-8zM80 120h8v8h-8zM96 120h8v8h-8zM120 120h8v8h-8zM136 120h8v8h-8zM144 120h8v8h-8zM168 120h8v8h-8zM200 120h8v8h-8zM16 128h8v8h-8zM40 128h8v8h-8zM48 128h8v8h-8zM56 128h8v8h-8zM64 128h8v8h-8zM72 128h8v8h-8zM80 128h8v8h-8zM88 128h8v8h-8zM96 128h8v8h-8zM112 128h8v8h-8zM136 128h8v8h-8zM160 128h8v8h-8zM168 128h8v8h-8zM176 128h8v8h-8zM184 128h8v8h-8zM200 128h8v8h-8zM208 128h8v8h-8zM16 136h8v8h-8zM32 136h8v8h-8zM40 136h8v8h-8zM48 136h8v8h-8zM56 136h8v8h-8zM120 136h8v8h-8zM128 136h8v8h-8zM136 136h8v8h-8zM152 136h8v8h-8zM160 136h8v8h-8zM168 136h8v8h-8zM184 136h8v8h-8zM192 136h8v8h-8zM208 136h8v8h-8zM16 144h8v8h-8zM32 144h8v8h-8zM40 144h8v8h-8zM48 144h8v8h-8zM56 144h8v8h-8zM64 144h8v8h-8zM112 144h8v8h-8zM120 144h8v8h-8zM144 144h8v8h-8zM152 144h8v8h-8zM160 144h8v8h-8zM168 144h8v8h-8zM176 144h8v8h-8zM192 144h8v8h-8zM80 152h8v8h-8zM88 152h8v8h-8zM96 152h8v8h-8zM104 152h8v8h-8zM112 152h8v8h-8zM144 152h8v8h-8zM176 152h8v8h-8zM80 160h8v8h-8zM88 160h8v8h-8zM96 160h8v8h-8zM144 160h8v8h-8zM160 160h8v8h-8zM176 160h8v8h-8zM208 160h8v8h-8zM96 168h8v8h-8zM120 168h8v8h-8zM128 168h8v8h-8zM144 168h8v8h-8zM176 168h8v8h-8zM208 168h8v8h-8zM88 176h8v8h-8zM104 176h8v8h-8zM112 176h8v8h-8zM120 176h8v8h-8zM136 176h8v8h-8zM144 176h8v8h-8zM152 176h8v8h-8zM160 176h8v8h-8zM168 176h8v8h-8zM176 176h8v8h-8zM192 176h8v8h-8zM200 176h8v8h-8zM208 176h8v8h-8zM88 184h8v8h-8zM96 184h8v8h-8zM104 184h8v8h-8zM120 184h8v8h-8zM152 184h8v8h-8zM160 184h8v8h-8zM200 184h8v8h-8zM208 184h8v8h-8zM96 192h8v8h-8zM112 192h8v8h-8zM128 192h8v8h-8zM144 192h8v8h-8zM184 192h8v8h-8zM192 192h8v8h-8zM208 192h8v8h-8zM80 200h8v8h-8zM88 200h8v8h-8zM96 200h8v8h-8zM104 200h8v8h-8zM120 200h8v8h-8zM128 200h8v8h-8zM144 200h8v8h-8zM160 200h8v8h-8zM168 200h8v8h-8zM176 200h8v8h-8zM208 200h8v8h-8zM88 208h8v8h-8zM96 208h8v8h-8zM104 208h8v8h-8zM112 208h8v8h-8zM128 208h8v8h-8zM144 208h8v8h-8zM160 208h8v8h-8zM184 208h8v8h-8zM208 208h8v8h-8z"/></g></svg>