<svg xmlns="http://www.w3.org/2000/svg" viewBox="0 0 232 232" width="1000" height="1000" fill="#fff" data-dot="8"><path d="M0 0h232v232H0z"/><g fill="#000"><path d="M32 200v-24h24v24z"/><path clip-rule="evenodd" class="svgeye" d="M16 216h56v-56H16zm8-8v-40h40v40z"/><path d="M200 32v24h-24V32z"/><path clip-rule="evenodd" class="svgeye" d="M216 16h-56v56h56zm-8 8v40h-40V24z"/><path d="M32 32h24v24H32z"/><path clip-rule="evenodd" class="svgeye" d="M16 16v56h56V16zm8 8h40v40H24z"/><path d="M88 16h8v8h-8zM96 16h8v8h-8zM112 16h8v8h-8zM128 16h8v8h-8zM88 24h8v8h-8zM96 24h8v8h-8zM104 24h8v8h-8zM112 24h8v8h-8zM144 24h8v8h-8zM80 32h8v8h-8zM96 32h8v8h-8zM112 32h8v8h-8zM120 32h8v8h-8zM136 32h8v8h-8zM88 40h8v8h-8zM96 40h8v8h-8zM112 40h8v8h-8zM128 40h8v8h-8zM144 40h8v8h-8zM80 48h8v8h-8zM88 48h8v8h-8zM104 48h8v8h-8zM112 48h8v8h-8zM120 48h8v8h-8zM128 48h8v8h-8zM136 48h8v8h-8zM144 48h8v8h-8zM80 56h8v8h-8zM88 56h8v8h-8zM104 56h8v8h-8zM120 56h8v8h-8zM128 56h8v8h-8zM144 56h8v8h-8zM80 64h8v8h-8zM96 64h8v8h-8zM112 64h8v8h-8zM128 64h8v8h-8zM144 64h8v8h-8zM96 72h8v8h-8zM128 72h8v8h-8zM24 80h8v8h-8zM48 80h8v8h-8zM64 80h8v8h-8zM80 80h8v8h-8zM88 80h8v8h-8zM112 80h8v8h-8zM120 80h8v8h-8zM128 80h8v8h-8zM136 80h8v8h-8zM152 80h8v8h-8zM168 80h8v8h-8zM176 80h8v8h-8zM192 80h8v8h-8zM24 88h8v8h-8zM32 88h8v8h-8zM40 88h8v8h-8zM56 88h8v8h-8zM80 88h8v8h-8zM88 88h8v8h-8zM104 88h8v8h-8zM136 88h8v8h-8zM144 88h8v8h-8zM152 88h8v8h-8zM176 88h8v8h-8zM184 88h8v8h-8zM200 88h8v8h-8zM16 96h8v8h-8zM24 96h8v8h-8zM32 96h8v8h-8zM40 96h8v8h-8zM48 96h8v8h-8zM56 96h8v8h-8zM64 96h8v8h-8zM88 96h8v8h-8zM112 96h8v8h-8zM120 96h8v8h-8zM128 96h8v8h-8zM136 96h8v8h-8zM184 96h8v8h-8zM192 96h8v8h-8zM16 104h8v8h-8zM24 104h8v8h-8zM32 104h8v8h-8zM40 104h8v8h-8zM48 104h8v8h-8zM56 104h8v8h-8zM80 104h8v8h-8zM120 104h8v8h-8zM144 104h8v8h-8zM160 104h8v8h-8zM168 104h8v8h-8zM192 104h8v8h-8zM200 104h8v8h-8zM32 112h8v8h-8zM40 112h8v8h-8zM64 112h8v8h-8zM72 112h8v8h-8zM80 112h8v8h-8zM96 112h8v8h-8zM112 112h8v8h-8zM120 112h8v8h-8zM152 112h8v8h-8zM160 112h8v8h-8zM168 112h8v8h-8zM184 112h8v8h-8zM192 112h8v8h-8zM200 112h8v8h-8zM208 112h8v8h-8zM16 120h8v8h-8zM32 120h8v8h-8zM40 120h8v8h-8zM56 120h8v8h-8zM72 120h8v8h-8zM112 120h8v8h-8zM120 120h8v8h-8zM128 120h8v8h-8zM136 120h8v8h-8zM144 120h8v8h-8zM176 120h8v8h-8zM200 120h8v8h-8zM48 128h8v8h-8zM64 128h8v8h-8zM80 128h8v8h-8zM88 128h8v8h-8zM96 128h8v8h-8zM104 128h8v8h-8zM120 128h8v8h-8zM128 128h8v8h-8zM136 128h8v8h-8zM144 128h8v8h-8zM152 128h8v8h-8zM168 128h8v8h-8zM176 128h8v8h-8zM184 128h8v8h-8zM192 128h8v8h-8zM32 136h8v8h-8zM40 136h8v8h-8zM56 136h8v8h-8zM80 136h8v8h-8zM88 136h8v8h-8zM112 136h8v8h-8zM120 136h8v8h-8zM128 136h8v8h-8zM168 136h8v8h-8zM176 136h8v8h-8zM192 136h8v8h-8zM200 136h8v8h-8zM16 144h8v8h-8zM24 144h8v8h-8zM32 144h8v8h-8zM40 144h8v8h-8zM48 144h8v8h-8zM64 144h8v8h-8zM72 144h8v8h-8zM80 144h8v8h-8zM128 144h8v8h-8zM136 144h8v8h-8zM144 144h8v8h-8zM152 144h8v8h-8zM160 144h8v8h-8zM168 144h8v8h-8zM176 144h8v8h-8zM184 144h8v8h-8zM192 144h8v8h-8zM80 152h8v8h-8zM88 152h8v8h-8zM104 152h8v8h-8zM144 152h8v8h-8zM176 152h8v8h-8zM112 160h8v8h-8zM128 160h8v8h-8zM144 160h8v8h-8zM160 160h8v8h-8zM176 160h8v8h-8zM88 168h8v8h-8zM96 168h8v8h-8zM104 168h8v8h-8zM112 168h8v8h-8zM120 168h8v8h-8zM136 168h8v8h-8zM144 168h8v8h-8zM176 168h8v8h-8zM184 168h8v8h-8zM192 168h8v8h-8zM80 176h8v8h-8zM88 176h8v8h-8zM96 176h8v8h-8zM112 176h8v8h-8zM120 176h8v8h-8zM144 176h8v8h-8zM152 176h8v8h-8zM160 176h8v8h-8zM168 176h8v8h-8zM176 176h8v8h-8zM184 176h8v8h-8zM192 176h8v8h-8zM208 176h8v8h-8zM128 184h8v8h-8zM144 184h8v8h-8zM152 184h8v8h-8zM160 184h8v8h-8zM168 184h8v8h-8zM192 184h8v8h-8zM200 184h8v8h-8zM208 184h8v8h-8zM120 192h8v8h-8zM152 192h8v8h-8zM160 192h8v8h-8zM184 192h8v8h-8zM200 192h8v8h-8zM80 200h8v8h-8zM88 200h8v8h-8zM96 200h8v8h-8zM104 200h8v8h-8zM120 200h8v8h-8zM136 200h8v8h-8zM152 200h8v8h-8zM168 200h8v8h-8zM176 200h8v8h-8zM184 200h8v8h-8zM192 200h8v8h-8zM200 200h8v8h-8zM120 208h8v8h-8zM136 208h8v8h-8zM152 208h8v8h-8zM160 208h8v8h-8zM192 208h8v8h-8zM200 208h8v8h-8zM208 208h8v8h-8z"/></g></svg>