<svg xmlns="http://www.w3.org/2000/svg" viewBox="0 0 231 231" width="1000" height="1000" fill="#fff" data-dot="7"><path d="M0 0h231v231H0z"/><g fill="#000"><path d="M28 203v-21h21v21z"/><path clip-rule="evenodd" class="svgeye" d="M14 217h49v-49H14zm7-7v-35h35v35z"/><path d="M203 28v21h-21V28z"/><path clip-rule="evenodd" class="svgeye" d="M217 14h-49v49h49zm-7 7v35h-35V21z"/><path d="M28 28h21v21H28z"/><path clip-rule="evenodd" class="svgeye" d="M14 14v49h49V14zm7 7h35v35H21z"/><path d="M77 14h7v7h-7zM84 14h7v7h-7zM98 14h7v7h-7zM119 14h7v7h-7zM140 14h7v7h-7zM147 14h7v7h-7zM84 21h7v7h-7zM98 21h7v7h-7zM105 21h7v7h-7zM119 21h7v7h-7zM126 21h7v7h-7zM140 21h7v7h-7zM154 21h7v7h-7zM70 28h7v7h-7zM84 28h7v7h-7zM91 28h7v7h-7zM98 28h7v7h-7zM112 28h7v7h-7zM119 28h7v7h-7zM133 28h7v7h-7zM140 28h7v7h-7zM147 28h7v7h-7zM154 28h7v7h-7zM84 35h7v7h-7zM98 35h7v7h-7zM105 35h7v7h-7zM126 35h7v7h-7zM140 35h7v7h-7zM147 35h7v7h-7zM70 42h7v7h-7zM77 42h7v7h-7zM84 42h7v7h-7zM98 42h7v7h-7zM126 42h7v7h-7zM140 42h7v7h-7zM70 49h7v7h-7zM77 49h7v7h-7zM119 49h7v7h-7zM126 49h7v7h-7zM140 49h7v7h-7zM147 49h7v7h-7zM70 56h7v7h-7zM84 56h7v7h-7zM98 56h7v7h-7zM112 56h7v7h-7zM126 56h7v7h-7zM140 56h7v7h-7zM154 56h7v7h-7zM77 63h7v7h-7zM84 63h7v7h-7zM98 63h7v7h-7zM105 63h7v7h-7zM112 63h7v7h-7zM126 63h7v7h-7zM133 63h7v7h-7zM140 63h7v7h-7zM147 63h7v7h-7zM154 63h7v7h-7zM21 70h7v7h-7zM42 70h7v7h-7zM56 70h7v7h-7zM70 70h7v7h-7zM91 70h7v7h-7zM105 70h7v7h-7zM140 70h7v7h-7zM147 70h7v7h-7zM161 70h7v7h-7zM175 70h7v7h-7zM182 70h7v7h-7zM196 70h7v7h-7zM21 77h7v7h-7zM35 77h7v7h-7zM63 77h7v7h-7zM70 77h7v7h-7zM77 77h7v7h-7zM84 77h7v7h-7zM105 77h7v7h-7zM112 77h7v7h-7zM126 77h7v7h-7zM147 77h7v7h-7zM154 77h7v7h-7zM168 77h7v7h-7zM175 77h7v7h-7zM182 77h7v7h-7zM203 77h7v7h-7zM210 77h7v7h-7zM14 84h7v7h-7zM28 84h7v7h-7zM35 84h7v7h-7zM42 84h7v7h-7zM56 84h7v7h-7zM63 84h7v7h-7zM77 84h7v7h-7zM84 84h7v7h-7zM112 84h7v7h-7zM119 84h7v7h-7zM133 84h7v7h-7zM154 84h7v7h-7zM161 84h7v7h-7zM189 84h7v7h-7zM196 84h7v7h-7zM210 84h7v7h-7zM28 91h7v7h-7zM35 91h7v7h-7zM42 91h7v7h-7zM77 91h7v7h-7zM112 91h7v7h-7zM119 91h7v7h-7zM126 91h7v7h-7zM133 91h7v7h-7zM140 91h7v7h-7zM161 91h7v7h-7zM182 91h7v7h-7zM189 91h7v7h-7zM203 91h7v7h-7zM210 91h7v7h-7zM14 98h7v7h-7zM42 98h7v7h-7zM49 98h7v7h-7zM56 98h7v7h-7zM84 98h7v7h-7zM91 98h7v7h-7zM98 98h7v7h-7zM105 98h7v7h-7zM126 98h7v7h-7zM133 98h7v7h-7zM147 98h7v7h-7zM175 98h7v7h-7zM210 98h7v7h-7zM21 105h7v7h-7zM42 105h7v7h-7zM63 105h7v7h-7zM70 105h7v7h-7zM77 105h7v7h-7zM91 105h7v7h-7zM119 105h7v7h-7zM133 105h7v7h-7zM140 105h7v7h-7zM168 105h7v7h-7zM182 105h7v7h-7zM196 105h7v7h-7zM210 105h7v7h-7zM14 112h7v7h-7zM21 112h7v7h-7zM28 112h7v7h-7zM42 112h7v7h-7zM56 112h7v7h-7zM63 112h7v7h-7zM77 112h7v7h-7zM105 112h7v7h-7zM112 112h7v7h-7zM119 112h7v7h-7zM126 112h7v7h-7zM140 112h7v7h-7zM161 112h7v7h-7zM182 112h7v7h-7zM203 112h7v7h-7zM210 112h7v7h-7zM14 119h7v7h-7zM42 119h7v7h-7zM77 119h7v7h-7zM98 119h7v7h-7zM112 119h7v7h-7zM119 119h7v7h-7zM154 119h7v7h-7zM161 119h7v7h-7zM168 119h7v7h-7zM175 119h7v7h-7zM189 119h7v7h-7zM210 119h7v7h-7zM21 126h7v7h-7zM35 126h7v7h-7zM56 126h7v7h-7zM63 126h7v7h-7zM84 126h7v7h-7zM91 126h7v7h-7zM98 126h7v7h-7zM112 126h7v7h-7zM119 126h7v7h-7zM126 126h7v7h-7zM147 126h7v7h-7zM154 126h7v7h-7zM161 126h7v7h-7zM203 126h7v7h-7zM210 126h7v7h-7zM14 133h7v7h-7zM42 133h7v7h-7zM63 133h7v7h-7zM70 133h7v7h-7zM84 133h7v7h-7zM91 133h7v7h-7zM105 133h7v7h-7zM133 133h7v7h-7zM140 133h7v7h-7zM147 133h7v7h-7zM168 133h7v7h-7zM182 133h7v7h-7zM189 133h7v7h-7zM196 133h7v7h-7zM210 133h7v7h-7zM28 140h7v7h-7zM42 140h7v7h-7zM49 140h7v7h-7zM56 140h7v7h-7zM84 140h7v7h-7zM98 140h7v7h-7zM105 140h7v7h-7zM112 140h7v7h-7zM119 140h7v7h-7zM140 140h7v7h-7zM147 140h7v7h-7zM189 140h7v7h-7zM196 140h7v7h-7zM210 140h7v7h-7zM28 147h7v7h-7zM42 147h7v7h-7zM49 147h7v7h-7zM63 147h7v7h-7zM112 147h7v7h-7zM119 147h7v7h-7zM126 147h7v7h-7zM133 147h7v7h-7zM147 147h7v7h-7zM154 147h7v7h-7zM175 147h7v7h-7zM182 147h7v7h-7zM189 147h7v7h-7zM203 147h7v7h-7zM210 147h7v7h-7zM14 154h7v7h-7zM21 154h7v7h-7zM42 154h7v7h-7zM56 154h7v7h-7zM84 154h7v7h-7zM91 154h7v7h-7zM98 154h7v7h-7zM133 154h7v7h-7zM140 154h7v7h-7zM154 154h7v7h-7zM161 154h7v7h-7zM168 154h7v7h-7zM175 154h7v7h-7zM182 154h7v7h-7zM189 154h7v7h-7zM210 154h7v7h-7zM70 161h7v7h-7zM91 161h7v7h-7zM98 161h7v7h-7zM112 161h7v7h-7zM119 161h7v7h-7zM126 161h7v7h-7zM140 161h7v7h-7zM147 161h7v7h-7zM154 161h7v7h-7zM182 161h7v7h-7zM196 161h7v7h-7zM210 161h7v7h-7zM91 168h7v7h-7zM105 168h7v7h-7zM119 168h7v7h-7zM133 168h7v7h-7zM147 168h7v7h-7zM154 168h7v7h-7zM168 168h7v7h-7zM182 168h7v7h-7zM210 168h7v7h-7zM77 175h7v7h-7zM84 175h7v7h-7zM91 175h7v7h-7zM98 175h7v7h-7zM112 175h7v7h-7zM126 175h7v7h-7zM133 175h7v7h-7zM140 175h7v7h-7zM147 175h7v7h-7zM154 175h7v7h-7zM182 175h7v7h-7zM189 175h7v7h-7zM70 182h7v7h-7zM77 182h7v7h-7zM84 182h7v7h-7zM112 182h7v7h-7zM140 182h7v7h-7zM147 182h7v7h-7zM154 182h7v7h-7zM161 182h7v7h-7zM168 182h7v7h-7zM175 182h7v7h-7zM182 182h7v7h-7zM203 182h7v7h-7zM210 182h7v7h-7zM84 189h7v7h-7zM105 189h7v7h-7zM126 189h7v7h-7zM133 189h7v7h-7zM175 189h7v7h-7zM189 189h7v7h-7zM196 189h7v7h-7zM203 189h7v7h-7zM77 196h7v7h-7zM91 196h7v7h-7zM98 196h7v7h-7zM126 196h7v7h-7zM140 196h7v7h-7zM147 196h7v7h-7zM154 196h7v7h-7zM161 196h7v7h-7zM189 196h7v7h-7zM203 196h7v7h-7zM210 196h7v7h-7zM70 203h7v7h-7zM84 203h7v7h-7zM91 203h7v7h-7zM98 203h7v7h-7zM105 203h7v7h-7zM133 203h7v7h-7zM161 203h7v7h-7zM175 203h7v7h-7zM189 203h7v7h-7zM203 203h7v7h-7zM210 203h7v7h-7zM84 210h7v7h-7zM98 210h7v7h-7zM119 210h7v7h-7zM133 210h7v7h-7zM147 210h7v7h-7zM154 210h7v7h-7zM161 210h7v7h-7zM182 210h7v7h-7zM203 210h7v7h-7z"/></g></svg>