<svg xmlns="http://www.w3.org/2000/svg" viewBox="0 0 246 246" width="1000" height="1000" fill="#fff" data-dot="6"><path d="M0 0h246v246H0z"/><g fill="#000"><path d="M24 222v-18h18v18z"/><path clip-rule="evenodd" class="svgeye" d="M12 234h42v-42H12zm6-6v-30h30v30z"/><path d="M222 24v18h-18V24z"/><path clip-rule="evenodd" class="svgeye" d="M234 12h-42v42h42zm-6 6v30h-30V18z"/><path d="M24 24h18v18H24z"/><path clip-rule="evenodd" class="svgeye" d="M12 12v42h42V12zm6 6h30v30H18z"/><path d="M72 12h6v6h-6zM78 12h6v6h-6zM102 12h6v6h-6zM108 12h6v6h-6zM120 12h6v6h-6zM126 12h6v6h-6zM132 12h6v6h-6zM138 12h6v6h-6zM144 12h6v6h-6zM150 12h6v6h-6zM162 12h6v6h-6zM168 12h6v6h-6zM60 18h6v6h-6zM72 18h6v6h-6zM78 18h6v6h-6zM84 18h6v6h-6zM90 18h6v6h-6zM96 18h6v6h-6zM102 18h6v6h-6zM108 18h6v6h-6zM150 18h6v6h-6zM156 18h6v6h-6zM162 18h6v6h-6zM180 18h6v6h-6zM72 24h6v6h-6zM90 24h6v6h-6zM108 24h6v6h-6zM114 24h6v6h-6zM120 24h6v6h-6zM126 24h6v6h-6zM138 24h6v6h-6zM150 24h6v6h-6zM162 24h6v6h-6zM168 24h6v6h-6zM174 24h6v6h-6zM60 30h6v6h-6zM78 30h6v6h-6zM84 30h6v6h-6zM90 30h6v6h-6zM108 30h6v6h-6zM114 30h6v6h-6zM138 30h6v6h-6zM150 30h6v6h-6zM156 30h6v6h-6zM162 30h6v6h-6zM180 30h6v6h-6zM60 36h6v6h-6zM66 36h6v6h-6zM90 36h6v6h-6zM102 36h6v6h-6zM126 36h6v6h-6zM138 36h6v6h-6zM156 36h6v6h-6zM162 36h6v6h-6zM66 42h6v6h-6zM78 42h6v6h-6zM84 42h6v6h-6zM90 42h6v6h-6zM102 42h6v6h-6zM126 42h6v6h-6zM150 42h6v6h-6zM156 42h6v6h-6zM162 42h6v6h-6zM168 42h6v6h-6zM60 48h6v6h-6zM72 48h6v6h-6zM84 48h6v6h-6zM96 48h6v6h-6zM108 48h6v6h-6zM120 48h6v6h-6zM132 48h6v6h-6zM144 48h6v6h-6zM156 48h6v6h-6zM168 48h6v6h-6zM180 48h6v6h-6zM60 54h6v6h-6zM66 54h6v6h-6zM90 54h6v6h-6zM96 54h6v6h-6zM108 54h6v6h-6zM120 54h6v6h-6zM126 54h6v6h-6zM144 54h6v6h-6zM150 54h6v6h-6zM168 54h6v6h-6zM174 54h6v6h-6zM180 54h6v6h-6zM18 60h6v6h-6zM30 60h6v6h-6zM36 60h6v6h-6zM42 60h6v6h-6zM48 60h6v6h-6zM60 60h6v6h-6zM90 60h6v6h-6zM102 60h6v6h-6zM114 60h6v6h-6zM150 60h6v6h-6zM156 60h6v6h-6zM162 60h6v6h-6zM168 60h6v6h-6zM186 60h6v6h-6zM192 60h6v6h-6zM204 60h6v6h-6zM210 60h6v6h-6zM222 60h6v6h-6zM12 66h6v6h-6zM30 66h6v6h-6zM36 66h6v6h-6zM54 66h6v6h-6zM60 66h6v6h-6zM72 66h6v6h-6zM84 66h6v6h-6zM102 66h6v6h-6zM108 66h6v6h-6zM126 66h6v6h-6zM138 66h6v6h-6zM144 66h6v6h-6zM150 66h6v6h-6zM162 66h6v6h-6zM168 66h6v6h-6zM180 66h6v6h-6zM198 66h6v6h-6zM204 66h6v6h-6zM216 66h6v6h-6zM222 66h6v6h-6zM30 72h6v6h-6zM48 72h6v6h-6zM54 72h6v6h-6zM66 72h6v6h-6zM78 72h6v6h-6zM96 72h6v6h-6zM102 72h6v6h-6zM114 72h6v6h-6zM126 72h6v6h-6zM138 72h6v6h-6zM144 72h6v6h-6zM150 72h6v6h-6zM162 72h6v6h-6zM174 72h6v6h-6zM180 72h6v6h-6zM186 72h6v6h-6zM192 72h6v6h-6zM216 72h6v6h-6zM228 72h6v6h-6zM12 78h6v6h-6zM36 78h6v6h-6zM54 78h6v6h-6zM60 78h6v6h-6zM66 78h6v6h-6zM72 78h6v6h-6zM90 78h6v6h-6zM96 78h6v6h-6zM102 78h6v6h-6zM114 78h6v6h-6zM120 78h6v6h-6zM168 78h6v6h-6zM180 78h6v6h-6zM186 78h6v6h-6zM192 78h6v6h-6zM198 78h6v6h-6zM204 78h6v6h-6zM210 78h6v6h-6zM216 78h6v6h-6zM228 78h6v6h-6zM18 84h6v6h-6zM30 84h6v6h-6zM36 84h6v6h-6zM48 84h6v6h-6zM54 84h6v6h-6zM60 84h6v6h-6zM66 84h6v6h-6zM72 84h6v6h-6zM78 84h6v6h-6zM102 84h6v6h-6zM114 84h6v6h-6zM120 84h6v6h-6zM126 84h6v6h-6zM132 84h6v6h-6zM150 84h6v6h-6zM156 84h6v6h-6zM174 84h6v6h-6zM180 84h6v6h-6zM192 84h6v6h-6zM210 84h6v6h-6zM222 84h6v6h-6zM18 90h6v6h-6zM30 90h6v6h-6zM42 90h6v6h-6zM54 90h6v6h-6zM72 90h6v6h-6zM78 90h6v6h-6zM84 90h6v6h-6zM96 90h6v6h-6zM102 90h6v6h-6zM108 90h6v6h-6zM114 90h6v6h-6zM126 90h6v6h-6zM144 90h6v6h-6zM150 90h6v6h-6zM168 90h6v6h-6zM174 90h6v6h-6zM180 90h6v6h-6zM186 90h6v6h-6zM204 90h6v6h-6zM216 90h6v6h-6zM12 96h6v6h-6zM18 96h6v6h-6zM36 96h6v6h-6zM42 96h6v6h-6zM48 96h6v6h-6zM66 96h6v6h-6zM72 96h6v6h-6zM102 96h6v6h-6zM108 96h6v6h-6zM120 96h6v6h-6zM132 96h6v6h-6zM138 96h6v6h-6zM144 96h6v6h-6zM174 96h6v6h-6zM180 96h6v6h-6zM192 96h6v6h-6zM210 96h6v6h-6zM216 96h6v6h-6zM222 96h6v6h-6zM228 96h6v6h-6zM24 102h6v6h-6zM30 102h6v6h-6zM36 102h6v6h-6zM42 102h6v6h-6zM72 102h6v6h-6zM90 102h6v6h-6zM96 102h6v6h-6zM102 102h6v6h-6zM114 102h6v6h-6zM120 102h6v6h-6zM126 102h6v6h-6zM156 102h6v6h-6zM186 102h6v6h-6zM198 102h6v6h-6zM210 102h6v6h-6zM216 102h6v6h-6zM222 102h6v6h-6zM12 108h6v6h-6zM18 108h6v6h-6zM24 108h6v6h-6zM48 108h6v6h-6zM60 108h6v6h-6zM66 108h6v6h-6zM72 108h6v6h-6zM78 108h6v6h-6zM90 108h6v6h-6zM114 108h6v6h-6zM126 108h6v6h-6zM132 108h6v6h-6zM138 108h6v6h-6zM150 108h6v6h-6zM162 108h6v6h-6zM174 108h6v6h-6zM180 108h6v6h-6zM192 108h6v6h-6zM198 108h6v6h-6zM216 108h6v6h-6zM222 108h6v6h-6zM228 108h6v6h-6zM18 114h6v6h-6zM30 114h6v6h-6zM36 114h6v6h-6zM54 114h6v6h-6zM78 114h6v6h-6zM84 114h6v6h-6zM90 114h6v6h-6zM96 114h6v6h-6zM108 114h6v6h-6zM120 114h6v6h-6zM132 114h6v6h-6zM138 114h6v6h-6zM150 114h6v6h-6zM156 114h6v6h-6zM174 114h6v6h-6zM198 114h6v6h-6zM210 114h6v6h-6zM222 114h6v6h-6zM30 120h6v6h-6zM36 120h6v6h-6zM48 120h6v6h-6zM60 120h6v6h-6zM66 120h6v6h-6zM84 120h6v6h-6zM102 120h6v6h-6zM120 120h6v6h-6zM126 120h6v6h-6zM132 120h6v6h-6zM150 120h6v6h-6zM168 120h6v6h-6zM174 120h6v6h-6zM180 120h6v6h-6zM186 120h6v6h-6zM192 120h6v6h-6zM228 120h6v6h-6zM12 126h6v6h-6zM18 126h6v6h-6zM66 126h6v6h-6zM72 126h6v6h-6zM84 126h6v6h-6zM96 126h6v6h-6zM108 126h6v6h-6zM114 126h6v6h-6zM156 126h6v6h-6zM162 126h6v6h-6zM174 126h6v6h-6zM210 126h6v6h-6zM12 132h6v6h-6zM18 132h6v6h-6zM24 132h6v6h-6zM30 132h6v6h-6zM48 132h6v6h-6zM54 132h6v6h-6zM60 132h6v6h-6zM66 132h6v6h-6zM84 132h6v6h-6zM102 132h6v6h-6zM108 132h6v6h-6zM132 132h6v6h-6zM144 132h6v6h-6zM156 132h6v6h-6zM168 132h6v6h-6zM180 132h6v6h-6zM186 132h6v6h-6zM192 132h6v6h-6zM204 132h6v6h-6zM210 132h6v6h-6zM228 132h6v6h-6zM12 138h6v6h-6zM18 138h6v6h-6zM24 138h6v6h-6zM30 138h6v6h-6zM54 138h6v6h-6zM60 138h6v6h-6zM72 138h6v6h-6zM78 138h6v6h-6zM90 138h6v6h-6zM102 138h6v6h-6zM108 138h6v6h-6zM120 138h6v6h-6zM132 138h6v6h-6zM144 138h6v6h-6zM150 138h6v6h-6zM168 138h6v6h-6zM174 138h6v6h-6zM180 138h6v6h-6zM198 138h6v6h-6zM204 138h6v6h-6zM210 138h6v6h-6zM216 138h6v6h-6zM12 144h6v6h-6zM18 144h6v6h-6zM24 144h6v6h-6zM36 144h6v6h-6zM42 144h6v6h-6zM48 144h6v6h-6zM54 144h6v6h-6zM72 144h6v6h-6zM78 144h6v6h-6zM84 144h6v6h-6zM114 144h6v6h-6zM126 144h6v6h-6zM132 144h6v6h-6zM150 144h6v6h-6zM168 144h6v6h-6zM174 144h6v6h-6zM192 144h6v6h-6zM204 144h6v6h-6zM210 144h6v6h-6zM228 144h6v6h-6zM12 150h6v6h-6zM18 150h6v6h-6zM24 150h6v6h-6zM36 150h6v6h-6zM66 150h6v6h-6zM78 150h6v6h-6zM84 150h6v6h-6zM90 150h6v6h-6zM120 150h6v6h-6zM126 150h6v6h-6zM144 150h6v6h-6zM168 150h6v6h-6zM174 150h6v6h-6zM180 150h6v6h-6zM198 150h6v6h-6zM210 150h6v6h-6zM216 150h6v6h-6zM222 150h6v6h-6zM228 150h6v6h-6zM18 156h6v6h-6zM24 156h6v6h-6zM36 156h6v6h-6zM42 156h6v6h-6zM48 156h6v6h-6zM54 156h6v6h-6zM66 156h6v6h-6zM90 156h6v6h-6zM108 156h6v6h-6zM114 156h6v6h-6zM120 156h6v6h-6zM126 156h6v6h-6zM132 156h6v6h-6zM150 156h6v6h-6zM162 156h6v6h-6zM168 156h6v6h-6zM180 156h6v6h-6zM186 156h6v6h-6zM192 156h6v6h-6zM198 156h6v6h-6zM210 156h6v6h-6zM228 156h6v6h-6zM12 162h6v6h-6zM18 162h6v6h-6zM24 162h6v6h-6zM36 162h6v6h-6zM54 162h6v6h-6zM66 162h6v6h-6zM78 162h6v6h-6zM84 162h6v6h-6zM90 162h6v6h-6zM96 162h6v6h-6zM102 162h6v6h-6zM114 162h6v6h-6zM120 162h6v6h-6zM126 162h6v6h-6zM132 162h6v6h-6zM144 162h6v6h-6zM150 162h6v6h-6zM162 162h6v6h-6zM180 162h6v6h-6zM192 162h6v6h-6zM204 162h6v6h-6zM216 162h6v6h-6zM12 168h6v6h-6zM18 168h6v6h-6zM30 168h6v6h-6zM48 168h6v6h-6zM60 168h6v6h-6zM66 168h6v6h-6zM72 168h6v6h-6zM84 168h6v6h-6zM96 168h6v6h-6zM108 168h6v6h-6zM120 168h6v6h-6zM138 168h6v6h-6zM144 168h6v6h-6zM162 168h6v6h-6zM168 168h6v6h-6zM180 168h6v6h-6zM192 168h6v6h-6zM210 168h6v6h-6zM216 168h6v6h-6zM222 168h6v6h-6zM228 168h6v6h-6zM12 174h6v6h-6zM24 174h6v6h-6zM60 174h6v6h-6zM66 174h6v6h-6zM78 174h6v6h-6zM84 174h6v6h-6zM96 174h6v6h-6zM108 174h6v6h-6zM114 174h6v6h-6zM120 174h6v6h-6zM126 174h6v6h-6zM132 174h6v6h-6zM144 174h6v6h-6zM168 174h6v6h-6zM174 174h6v6h-6zM186 174h6v6h-6zM210 174h6v6h-6zM216 174h6v6h-6zM222 174h6v6h-6zM12 180h6v6h-6zM24 180h6v6h-6zM30 180h6v6h-6zM36 180h6v6h-6zM42 180h6v6h-6zM48 180h6v6h-6zM72 180h6v6h-6zM84 180h6v6h-6zM90 180h6v6h-6zM96 180h6v6h-6zM108 180h6v6h-6zM114 180h6v6h-6zM126 180h6v6h-6zM144 180h6v6h-6zM156 180h6v6h-6zM162 180h6v6h-6zM180 180h6v6h-6zM186 180h6v6h-6zM192 180h6v6h-6zM198 180h6v6h-6zM204 180h6v6h-6zM210 180h6v6h-6zM216 180h6v6h-6zM222 180h6v6h-6zM228 180h6v6h-6zM60 186h6v6h-6zM72 186h6v6h-6zM84 186h6v6h-6zM90 186h6v6h-6zM102 186h6v6h-6zM120 186h6v6h-6zM138 186h6v6h-6zM144 186h6v6h-6zM162 186h6v6h-6zM168 186h6v6h-6zM180 186h6v6h-6zM204 186h6v6h-6zM210 186h6v6h-6zM216 186h6v6h-6zM222 186h6v6h-6zM66 192h6v6h-6zM72 192h6v6h-6zM78 192h6v6h-6zM90 192h6v6h-6zM96 192h6v6h-6zM114 192h6v6h-6zM120 192h6v6h-6zM150 192h6v6h-6zM162 192h6v6h-6zM168 192h6v6h-6zM180 192h6v6h-6zM192 192h6v6h-6zM204 192h6v6h-6zM210 192h6v6h-6zM216 192h6v6h-6zM228 192h6v6h-6zM60 198h6v6h-6zM120 198h6v6h-6zM138 198h6v6h-6zM150 198h6v6h-6zM162 198h6v6h-6zM174 198h6v6h-6zM180 198h6v6h-6zM204 198h6v6h-6zM210 198h6v6h-6zM60 204h6v6h-6zM78 204h6v6h-6zM84 204h6v6h-6zM96 204h6v6h-6zM108 204h6v6h-6zM114 204h6v6h-6zM126 204h6v6h-6zM132 204h6v6h-6zM138 204h6v6h-6zM156 204h6v6h-6zM174 204h6v6h-6zM180 204h6v6h-6zM186 204h6v6h-6zM192 204h6v6h-6zM198 204h6v6h-6zM204 204h6v6h-6zM222 204h6v6h-6zM60 210h6v6h-6zM66 210h6v6h-6zM72 210h6v6h-6zM96 210h6v6h-6zM108 210h6v6h-6zM132 210h6v6h-6zM138 210h6v6h-6zM144 210h6v6h-6zM162 210h6v6h-6zM168 210h6v6h-6zM174 210h6v6h-6zM180 210h6v6h-6zM192 210h6v6h-6zM210 210h6v6h-6zM222 210h6v6h-6zM72 216h6v6h-6zM102 216h6v6h-6zM108 216h6v6h-6zM114 216h6v6h-6zM138 216h6v6h-6zM156 216h6v6h-6zM168 216h6v6h-6zM204 216h6v6h-6zM222 216h6v6h-6zM228 216h6v6h-6zM60 222h6v6h-6zM72 222h6v6h-6zM78 222h6v6h-6zM90 222h6v6h-6zM108 222h6v6h-6zM114 222h6v6h-6zM168 222h6v6h-6zM174 222h6v6h-6zM192 222h6v6h-6zM198 222h6v6h-6zM216 222h6v6h-6zM222 222h6v6h-6zM228 222h6v6h-6zM66 228h6v6h-6zM78 228h6v6h-6zM84 228h6v6h-6zM96 228h6v6h-6zM102 228h6v6h-6zM126 228h6v6h-6zM156 228h6v6h-6zM180 228h6v6h-6zM192 228h6v6h-6zM204 228h6v6h-6zM210 228h6v6h-6zM228 228h6v6h-6z"/></g></svg>