<?xml version="1.0" encoding="utf-8"?><!DOCTYPE svg PUBLIC "-//W3C//DTD SVG 1.1//EN" "http://www.w3.org/Graphics/SVG/1.1/DTD/svg11.dtd"><svg xmlns:xlink="http://www.w3.org/1999/xlink" xmlns="http://www.w3.org/2000/svg" id="map" viewBox="0 0 246 246" width="1000" height="1000" fill="#ffffff" data-dot="6"><rect x="0" y="0" height="246" width="246"/><defs/><g fill="#000000"><rect x="24" y="204" width="18" height="18" transform="rotate(-90,33,213)"/><path clip-rule="evenodd" class="svgeye" d="M 12 192v 42h 42v -42zM 18 198h 30v 30h -30z" transform="rotate(-90,33,213)"/><rect x="204" y="24" width="18" height="18" transform="rotate(90,213,33)"/><path clip-rule="evenodd" class="svgeye" d="M 192 12v 42h 42v -42zM 198 18h 30v 30h -30z" transform="rotate(90,213,33)"/><rect x="24" y="24" width="18" height="18" transform="rotate(0,33,33)"/><path clip-rule="evenodd" class="svgeye" d="M 12 12v 42h 42v -42zM 18 18h 30v 30h -30z" transform="rotate(0,33,33)"/><rect x="72" y="12" width="6" height="6" transform="rotate(0,75,15)"/><rect x="78" y="12" width="6" height="6" transform="rotate(0,81,15)"/><rect x="102" y="12" width="6" height="6" transform="rotate(0,105,15)"/><rect x="108" y="12" width="6" height="6" transform="rotate(0,111,15)"/><rect x="120" y="12" width="6" height="6" transform="rotate(0,123,15)"/><rect x="126" y="12" width="6" height="6" transform="rotate(0,129,15)"/><rect x="132" y="12" width="6" height="6" transform="rotate(0,135,15)"/><rect x="138" y="12" width="6" height="6" transform="rotate(0,141,15)"/><rect x="144" y="12" width="6" height="6" transform="rotate(0,147,15)"/><rect x="150" y="12" width="6" height="6" transform="rotate(0,153,15)"/><rect x="162" y="12" width="6" height="6" transform="rotate(0,165,15)"/><rect x="168" y="12" width="6" height="6" transform="rotate(0,171,15)"/><rect x="60" y="18" width="6" height="6" transform="rotate(0,63,21)"/><rect x="72" y="18" width="6" height="6" transform="rotate(0,75,21)"/><rect x="78" y="18" width="6" height="6" transform="rotate(0,81,21)"/><rect x="84" y="18" width="6" height="6" transform="rotate(0,87,21)"/><rect x="90" y="18" width="6" height="6" transform="rotate(0,93,21)"/><rect x="96" y="18" width="6" height="6" transform="rotate(0,99,21)"/><rect x="102" y="18" width="6" height="6" transform="rotate(0,105,21)"/><rect x="108" y="18" width="6" height="6" transform="rotate(0,111,21)"/><rect x="150" y="18" width="6" height="6" transform="rotate(0,153,21)"/><rect x="156" y="18" width="6" height="6" transform="rotate(0,159,21)"/><rect x="162" y="18" width="6" height="6" transform="rotate(0,165,21)"/><rect x="180" y="18" width="6" height="6" transform="rotate(0,183,21)"/><rect x="72" y="24" width="6" height="6" transform="rotate(0,75,27)"/><rect x="90" y="24" width="6" height="6" transform="rotate(0,93,27)"/><rect x="108" y="24" width="6" height="6" transform="rotate(0,111,27)"/><rect x="114" y="24" width="6" height="6" transform="rotate(0,117,27)"/><rect x="120" y="24" width="6" height="6" transform="rotate(0,123,27)"/><rect x="126" y="24" width="6" height="6" transform="rotate(0,129,27)"/><rect x="138" y="24" width="6" height="6" transform="rotate(0,141,27)"/><rect x="150" y="24" width="6" height="6" transform="rotate(0,153,27)"/><rect x="162" y="24" width="6" height="6" transform="rotate(0,165,27)"/><rect x="168" y="24" width="6" height="6" transform="rotate(0,171,27)"/><rect x="174" y="24" width="6" height="6" transform="rotate(0,177,27)"/><rect x="60" y="30" width="6" height="6" transform="rotate(0,63,33)"/><rect x="78" y="30" width="6" height="6" transform="rotate(0,81,33)"/><rect x="84" y="30" width="6" height="6" transform="rotate(0,87,33)"/><rect x="90" y="30" width="6" height="6" transform="rotate(0,93,33)"/><rect x="108" y="30" width="6" height="6" transform="rotate(0,111,33)"/><rect x="114" y="30" width="6" height="6" transform="rotate(0,117,33)"/><rect x="138" y="30" width="6" height="6" transform="rotate(0,141,33)"/><rect x="150" y="30" width="6" height="6" transform="rotate(0,153,33)"/><rect x="156" y="30" width="6" height="6" transform="rotate(0,159,33)"/><rect x="162" y="30" width="6" height="6" transform="rotate(0,165,33)"/><rect x="180" y="30" width="6" height="6" transform="rotate(0,183,33)"/><rect x="60" y="36" width="6" height="6" transform="rotate(0,63,39)"/><rect x="66" y="36" width="6" height="6" transform="rotate(0,69,39)"/><rect x="90" y="36" width="6" height="6" transform="rotate(0,93,39)"/><rect x="102" y="36" width="6" height="6" transform="rotate(0,105,39)"/><rect x="126" y="36" width="6" height="6" transform="rotate(0,129,39)"/><rect x="138" y="36" width="6" height="6" transform="rotate(0,141,39)"/><rect x="156" y="36" width="6" height="6" transform="rotate(0,159,39)"/><rect x="162" y="36" width="6" height="6" transform="rotate(0,165,39)"/><rect x="66" y="42" width="6" height="6" transform="rotate(0,69,45)"/><rect x="78" y="42" width="6" height="6" transform="rotate(0,81,45)"/><rect x="84" y="42" width="6" height="6" transform="rotate(0,87,45)"/><rect x="90" y="42" width="6" height="6" transform="rotate(0,93,45)"/><rect x="102" y="42" width="6" height="6" transform="rotate(0,105,45)"/><rect x="126" y="42" width="6" height="6" transform="rotate(0,129,45)"/><rect x="150" y="42" width="6" height="6" transform="rotate(0,153,45)"/><rect x="156" y="42" width="6" height="6" transform="rotate(0,159,45)"/><rect x="162" y="42" width="6" height="6" transform="rotate(0,165,45)"/><rect x="168" y="42" width="6" height="6" transform="rotate(0,171,45)"/><rect x="60" y="48" width="6" height="6" transform="rotate(0,63,51)"/><rect x="72" y="48" width="6" height="6" transform="rotate(0,75,51)"/><rect x="84" y="48" width="6" height="6" transform="rotate(0,87,51)"/><rect x="96" y="48" width="6" height="6" transform="rotate(0,99,51)"/><rect x="108" y="48" width="6" height="6" transform="rotate(0,111,51)"/><rect x="120" y="48" width="6" height="6" transform="rotate(0,123,51)"/><rect x="132" y="48" width="6" height="6" transform="rotate(0,135,51)"/><rect x="144" y="48" width="6" height="6" transform="rotate(0,147,51)"/><rect x="156" y="48" width="6" height="6" transform="rotate(0,159,51)"/><rect x="168" y="48" width="6" height="6" transform="rotate(0,171,51)"/><rect x="180" y="48" width="6" height="6" transform="rotate(0,183,51)"/><rect x="60" y="54" width="6" height="6" transform="rotate(0,63,57)"/><rect x="66" y="54" width="6" height="6" transform="rotate(0,69,57)"/><rect x="90" y="54" width="6" height="6" transform="rotate(0,93,57)"/><rect x="96" y="54" width="6" height="6" transform="rotate(0,99,57)"/><rect x="108" y="54" width="6" height="6" transform="rotate(0,111,57)"/><rect x="120" y="54" width="6" height="6" transform="rotate(0,123,57)"/><rect x="126" y="54" width="6" height="6" transform="rotate(0,129,57)"/><rect x="144" y="54" width="6" height="6" transform="rotate(0,147,57)"/><rect x="150" y="54" width="6" height="6" transform="rotate(0,153,57)"/><rect x="168" y="54" width="6" height="6" transform="rotate(0,171,57)"/><rect x="174" y="54" width="6" height="6" transform="rotate(0,177,57)"/><rect x="180" y="54" width="6" height="6" transform="rotate(0,183,57)"/><rect x="18" y="60" width="6" height="6" transform="rotate(0,21,63)"/><rect x="30" y="60" width="6" height="6" transform="rotate(0,33,63)"/><rect x="36" y="60" width="6" height="6" transform="rotate(0,39,63)"/><rect x="42" y="60" width="6" height="6" transform="rotate(0,45,63)"/><rect x="48" y="60" width="6" height="6" transform="rotate(0,51,63)"/><rect x="60" y="60" width="6" height="6" transform="rotate(0,63,63)"/><rect x="90" y="60" width="6" height="6" transform="rotate(0,93,63)"/><rect x="102" y="60" width="6" height="6" transform="rotate(0,105,63)"/><rect x="114" y="60" width="6" height="6" transform="rotate(0,117,63)"/><rect x="150" y="60" width="6" height="6" transform="rotate(0,153,63)"/><rect x="156" y="60" width="6" height="6" transform="rotate(0,159,63)"/><rect x="162" y="60" width="6" height="6" transform="rotate(0,165,63)"/><rect x="168" y="60" width="6" height="6" transform="rotate(0,171,63)"/><rect x="186" y="60" width="6" height="6" transform="rotate(0,189,63)"/><rect x="192" y="60" width="6" height="6" transform="rotate(0,195,63)"/><rect x="204" y="60" width="6" height="6" transform="rotate(0,207,63)"/><rect x="210" y="60" width="6" height="6" transform="rotate(0,213,63)"/><rect x="222" y="60" width="6" height="6" transform="rotate(0,225,63)"/><rect x="12" y="66" width="6" height="6" transform="rotate(0,15,69)"/><rect x="30" y="66" width="6" height="6" transform="rotate(0,33,69)"/><rect x="36" y="66" width="6" height="6" transform="rotate(0,39,69)"/><rect x="54" y="66" width="6" height="6" transform="rotate(0,57,69)"/><rect x="60" y="66" width="6" height="6" transform="rotate(0,63,69)"/><rect x="72" y="66" width="6" height="6" transform="rotate(0,75,69)"/><rect x="84" y="66" width="6" height="6" transform="rotate(0,87,69)"/><rect x="102" y="66" width="6" height="6" transform="rotate(0,105,69)"/><rect x="108" y="66" width="6" height="6" transform="rotate(0,111,69)"/><rect x="126" y="66" width="6" height="6" transform="rotate(0,129,69)"/><rect x="138" y="66" width="6" height="6" transform="rotate(0,141,69)"/><rect x="144" y="66" width="6" height="6" transform="rotate(0,147,69)"/><rect x="150" y="66" width="6" height="6" transform="rotate(0,153,69)"/><rect x="162" y="66" width="6" height="6" transform="rotate(0,165,69)"/><rect x="168" y="66" width="6" height="6" transform="rotate(0,171,69)"/><rect x="180" y="66" width="6" height="6" transform="rotate(0,183,69)"/><rect x="198" y="66" width="6" height="6" transform="rotate(0,201,69)"/><rect x="204" y="66" width="6" height="6" transform="rotate(0,207,69)"/><rect x="216" y="66" width="6" height="6" transform="rotate(0,219,69)"/><rect x="222" y="66" width="6" height="6" transform="rotate(0,225,69)"/><rect x="30" y="72" width="6" height="6" transform="rotate(0,33,75)"/><rect x="48" y="72" width="6" height="6" transform="rotate(0,51,75)"/><rect x="54" y="72" width="6" height="6" transform="rotate(0,57,75)"/><rect x="66" y="72" width="6" height="6" transform="rotate(0,69,75)"/><rect x="78" y="72" width="6" height="6" transform="rotate(0,81,75)"/><rect x="96" y="72" width="6" height="6" transform="rotate(0,99,75)"/><rect x="102" y="72" width="6" height="6" transform="rotate(0,105,75)"/><rect x="114" y="72" width="6" height="6" transform="rotate(0,117,75)"/><rect x="126" y="72" width="6" height="6" transform="rotate(0,129,75)"/><rect x="138" y="72" width="6" height="6" transform="rotate(0,141,75)"/><rect x="144" y="72" width="6" height="6" transform="rotate(0,147,75)"/><rect x="150" y="72" width="6" height="6" transform="rotate(0,153,75)"/><rect x="162" y="72" width="6" height="6" transform="rotate(0,165,75)"/><rect x="174" y="72" width="6" height="6" transform="rotate(0,177,75)"/><rect x="180" y="72" width="6" height="6" transform="rotate(0,183,75)"/><rect x="186" y="72" width="6" height="6" transform="rotate(0,189,75)"/><rect x="192" y="72" width="6" height="6" transform="rotate(0,195,75)"/><rect x="216" y="72" width="6" height="6" transform="rotate(0,219,75)"/><rect x="228" y="72" width="6" height="6" transform="rotate(0,231,75)"/><rect x="12" y="78" width="6" height="6" transform="rotate(0,15,81)"/><rect x="36" y="78" width="6" height="6" transform="rotate(0,39,81)"/><rect x="54" y="78" width="6" height="6" transform="rotate(0,57,81)"/><rect x="60" y="78" width="6" height="6" transform="rotate(0,63,81)"/><rect x="66" y="78" width="6" height="6" transform="rotate(0,69,81)"/><rect x="72" y="78" width="6" height="6" transform="rotate(0,75,81)"/><rect x="90" y="78" width="6" height="6" transform="rotate(0,93,81)"/><rect x="96" y="78" width="6" height="6" transform="rotate(0,99,81)"/><rect x="102" y="78" width="6" height="6" transform="rotate(0,105,81)"/><rect x="114" y="78" width="6" height="6" transform="rotate(0,117,81)"/><rect x="120" y="78" width="6" height="6" transform="rotate(0,123,81)"/><rect x="168" y="78" width="6" height="6" transform="rotate(0,171,81)"/><rect x="180" y="78" width="6" height="6" transform="rotate(0,183,81)"/><rect x="186" y="78" width="6" height="6" transform="rotate(0,189,81)"/><rect x="192" y="78" width="6" height="6" transform="rotate(0,195,81)"/><rect x="198" y="78" width="6" height="6" transform="rotate(0,201,81)"/><rect x="204" y="78" width="6" height="6" transform="rotate(0,207,81)"/><rect x="210" y="78" width="6" height="6" transform="rotate(0,213,81)"/><rect x="216" y="78" width="6" height="6" transform="rotate(0,219,81)"/><rect x="228" y="78" width="6" height="6" transform="rotate(0,231,81)"/><rect x="18" y="84" width="6" height="6" transform="rotate(0,21,87)"/><rect x="30" y="84" width="6" height="6" transform="rotate(0,33,87)"/><rect x="36" y="84" width="6" height="6" transform="rotate(0,39,87)"/><rect x="48" y="84" width="6" height="6" transform="rotate(0,51,87)"/><rect x="54" y="84" width="6" height="6" transform="rotate(0,57,87)"/><rect x="60" y="84" width="6" height="6" transform="rotate(0,63,87)"/><rect x="66" y="84" width="6" height="6" transform="rotate(0,69,87)"/><rect x="72" y="84" width="6" height="6" transform="rotate(0,75,87)"/><rect x="78" y="84" width="6" height="6" transform="rotate(0,81,87)"/><rect x="102" y="84" width="6" height="6" transform="rotate(0,105,87)"/><rect x="114" y="84" width="6" height="6" transform="rotate(0,117,87)"/><rect x="120" y="84" width="6" height="6" transform="rotate(0,123,87)"/><rect x="126" y="84" width="6" height="6" transform="rotate(0,129,87)"/><rect x="132" y="84" width="6" height="6" transform="rotate(0,135,87)"/><rect x="150" y="84" width="6" height="6" transform="rotate(0,153,87)"/><rect x="156" y="84" width="6" height="6" transform="rotate(0,159,87)"/><rect x="174" y="84" width="6" height="6" transform="rotate(0,177,87)"/><rect x="180" y="84" width="6" height="6" transform="rotate(0,183,87)"/><rect x="192" y="84" width="6" height="6" transform="rotate(0,195,87)"/><rect x="210" y="84" width="6" height="6" transform="rotate(0,213,87)"/><rect x="222" y="84" width="6" height="6" transform="rotate(0,225,87)"/><rect x="18" y="90" width="6" height="6" transform="rotate(0,21,93)"/><rect x="30" y="90" width="6" height="6" transform="rotate(0,33,93)"/><rect x="42" y="90" width="6" height="6" transform="rotate(0,45,93)"/><rect x="54" y="90" width="6" height="6" transform="rotate(0,57,93)"/><rect x="72" y="90" width="6" height="6" transform="rotate(0,75,93)"/><rect x="78" y="90" width="6" height="6" transform="rotate(0,81,93)"/><rect x="84" y="90" width="6" height="6" transform="rotate(0,87,93)"/><rect x="96" y="90" width="6" height="6" transform="rotate(0,99,93)"/><rect x="102" y="90" width="6" height="6" transform="rotate(0,105,93)"/><rect x="108" y="90" width="6" height="6" transform="rotate(0,111,93)"/><rect x="114" y="90" width="6" height="6" transform="rotate(0,117,93)"/><rect x="126" y="90" width="6" height="6" transform="rotate(0,129,93)"/><rect x="144" y="90" width="6" height="6" transform="rotate(0,147,93)"/><rect x="150" y="90" width="6" height="6" transform="rotate(0,153,93)"/><rect x="168" y="90" width="6" height="6" transform="rotate(0,171,93)"/><rect x="174" y="90" width="6" height="6" transform="rotate(0,177,93)"/><rect x="180" y="90" width="6" height="6" transform="rotate(0,183,93)"/><rect x="186" y="90" width="6" height="6" transform="rotate(0,189,93)"/><rect x="204" y="90" width="6" height="6" transform="rotate(0,207,93)"/><rect x="216" y="90" width="6" height="6" transform="rotate(0,219,93)"/><rect x="12" y="96" width="6" height="6" transform="rotate(0,15,99)"/><rect x="18" y="96" width="6" height="6" transform="rotate(0,21,99)"/><rect x="36" y="96" width="6" height="6" transform="rotate(0,39,99)"/><rect x="42" y="96" width="6" height="6" transform="rotate(0,45,99)"/><rect x="48" y="96" width="6" height="6" transform="rotate(0,51,99)"/><rect x="66" y="96" width="6" height="6" transform="rotate(0,69,99)"/><rect x="72" y="96" width="6" height="6" transform="rotate(0,75,99)"/><rect x="102" y="96" width="6" height="6" transform="rotate(0,105,99)"/><rect x="108" y="96" width="6" height="6" transform="rotate(0,111,99)"/><rect x="120" y="96" width="6" height="6" transform="rotate(0,123,99)"/><rect x="132" y="96" width="6" height="6" transform="rotate(0,135,99)"/><rect x="138" y="96" width="6" height="6" transform="rotate(0,141,99)"/><rect x="144" y="96" width="6" height="6" transform="rotate(0,147,99)"/><rect x="174" y="96" width="6" height="6" transform="rotate(0,177,99)"/><rect x="180" y="96" width="6" height="6" transform="rotate(0,183,99)"/><rect x="192" y="96" width="6" height="6" transform="rotate(0,195,99)"/><rect x="210" y="96" width="6" height="6" transform="rotate(0,213,99)"/><rect x="216" y="96" width="6" height="6" transform="rotate(0,219,99)"/><rect x="222" y="96" width="6" height="6" transform="rotate(0,225,99)"/><rect x="228" y="96" width="6" height="6" transform="rotate(0,231,99)"/><rect x="24" y="102" width="6" height="6" transform="rotate(0,27,105)"/><rect x="30" y="102" width="6" height="6" transform="rotate(0,33,105)"/><rect x="36" y="102" width="6" height="6" transform="rotate(0,39,105)"/><rect x="42" y="102" width="6" height="6" transform="rotate(0,45,105)"/><rect x="72" y="102" width="6" height="6" transform="rotate(0,75,105)"/><rect x="90" y="102" width="6" height="6" transform="rotate(0,93,105)"/><rect x="96" y="102" width="6" height="6" transform="rotate(0,99,105)"/><rect x="102" y="102" width="6" height="6" transform="rotate(0,105,105)"/><rect x="114" y="102" width="6" height="6" transform="rotate(0,117,105)"/><rect x="120" y="102" width="6" height="6" transform="rotate(0,123,105)"/><rect x="126" y="102" width="6" height="6" transform="rotate(0,129,105)"/><rect x="156" y="102" width="6" height="6" transform="rotate(0,159,105)"/><rect x="186" y="102" width="6" height="6" transform="rotate(0,189,105)"/><rect x="198" y="102" width="6" height="6" transform="rotate(0,201,105)"/><rect x="210" y="102" width="6" height="6" transform="rotate(0,213,105)"/><rect x="216" y="102" width="6" height="6" transform="rotate(0,219,105)"/><rect x="222" y="102" width="6" height="6" transform="rotate(0,225,105)"/><rect x="12" y="108" width="6" height="6" transform="rotate(0,15,111)"/><rect x="18" y="108" width="6" height="6" transform="rotate(0,21,111)"/><rect x="24" y="108" width="6" height="6" transform="rotate(0,27,111)"/><rect x="48" y="108" width="6" height="6" transform="rotate(0,51,111)"/><rect x="60" y="108" width="6" height="6" transform="rotate(0,63,111)"/><rect x="66" y="108" width="6" height="6" transform="rotate(0,69,111)"/><rect x="72" y="108" width="6" height="6" transform="rotate(0,75,111)"/><rect x="78" y="108" width="6" height="6" transform="rotate(0,81,111)"/><rect x="90" y="108" width="6" height="6" transform="rotate(0,93,111)"/><rect x="114" y="108" width="6" height="6" transform="rotate(0,117,111)"/><rect x="126" y="108" width="6" height="6" transform="rotate(0,129,111)"/><rect x="132" y="108" width="6" height="6" transform="rotate(0,135,111)"/><rect x="138" y="108" width="6" height="6" transform="rotate(0,141,111)"/><rect x="150" y="108" width="6" height="6" transform="rotate(0,153,111)"/><rect x="162" y="108" width="6" height="6" transform="rotate(0,165,111)"/><rect x="174" y="108" width="6" height="6" transform="rotate(0,177,111)"/><rect x="180" y="108" width="6" height="6" transform="rotate(0,183,111)"/><rect x="192" y="108" width="6" height="6" transform="rotate(0,195,111)"/><rect x="198" y="108" width="6" height="6" transform="rotate(0,201,111)"/><rect x="216" y="108" width="6" height="6" transform="rotate(0,219,111)"/><rect x="222" y="108" width="6" height="6" transform="rotate(0,225,111)"/><rect x="228" y="108" width="6" height="6" transform="rotate(0,231,111)"/><rect x="18" y="114" width="6" height="6" transform="rotate(0,21,117)"/><rect x="30" y="114" width="6" height="6" transform="rotate(0,33,117)"/><rect x="36" y="114" width="6" height="6" transform="rotate(0,39,117)"/><rect x="54" y="114" width="6" height="6" transform="rotate(0,57,117)"/><rect x="78" y="114" width="6" height="6" transform="rotate(0,81,117)"/><rect x="84" y="114" width="6" height="6" transform="rotate(0,87,117)"/><rect x="90" y="114" width="6" height="6" transform="rotate(0,93,117)"/><rect x="96" y="114" width="6" height="6" transform="rotate(0,99,117)"/><rect x="108" y="114" width="6" height="6" transform="rotate(0,111,117)"/><rect x="120" y="114" width="6" height="6" transform="rotate(0,123,117)"/><rect x="132" y="114" width="6" height="6" transform="rotate(0,135,117)"/><rect x="138" y="114" width="6" height="6" transform="rotate(0,141,117)"/><rect x="150" y="114" width="6" height="6" transform="rotate(0,153,117)"/><rect x="156" y="114" width="6" height="6" transform="rotate(0,159,117)"/><rect x="174" y="114" width="6" height="6" transform="rotate(0,177,117)"/><rect x="198" y="114" width="6" height="6" transform="rotate(0,201,117)"/><rect x="210" y="114" width="6" height="6" transform="rotate(0,213,117)"/><rect x="222" y="114" width="6" height="6" transform="rotate(0,225,117)"/><rect x="30" y="120" width="6" height="6" transform="rotate(0,33,123)"/><rect x="36" y="120" width="6" height="6" transform="rotate(0,39,123)"/><rect x="48" y="120" width="6" height="6" transform="rotate(0,51,123)"/><rect x="60" y="120" width="6" height="6" transform="rotate(0,63,123)"/><rect x="66" y="120" width="6" height="6" transform="rotate(0,69,123)"/><rect x="84" y="120" width="6" height="6" transform="rotate(0,87,123)"/><rect x="102" y="120" width="6" height="6" transform="rotate(0,105,123)"/><rect x="120" y="120" width="6" height="6" transform="rotate(0,123,123)"/><rect x="126" y="120" width="6" height="6" transform="rotate(0,129,123)"/><rect x="132" y="120" width="6" height="6" transform="rotate(0,135,123)"/><rect x="150" y="120" width="6" height="6" transform="rotate(0,153,123)"/><rect x="168" y="120" width="6" height="6" transform="rotate(0,171,123)"/><rect x="174" y="120" width="6" height="6" transform="rotate(0,177,123)"/><rect x="180" y="120" width="6" height="6" transform="rotate(0,183,123)"/><rect x="186" y="120" width="6" height="6" transform="rotate(0,189,123)"/><rect x="192" y="120" width="6" height="6" transform="rotate(0,195,123)"/><rect x="228" y="120" width="6" height="6" transform="rotate(0,231,123)"/><rect x="12" y="126" width="6" height="6" transform="rotate(0,15,129)"/><rect x="18" y="126" width="6" height="6" transform="rotate(0,21,129)"/><rect x="66" y="126" width="6" height="6" transform="rotate(0,69,129)"/><rect x="72" y="126" width="6" height="6" transform="rotate(0,75,129)"/><rect x="84" y="126" width="6" height="6" transform="rotate(0,87,129)"/><rect x="96" y="126" width="6" height="6" transform="rotate(0,99,129)"/><rect x="108" y="126" width="6" height="6" transform="rotate(0,111,129)"/><rect x="114" y="126" width="6" height="6" transform="rotate(0,117,129)"/><rect x="156" y="126" width="6" height="6" transform="rotate(0,159,129)"/><rect x="162" y="126" width="6" height="6" transform="rotate(0,165,129)"/><rect x="174" y="126" width="6" height="6" transform="rotate(0,177,129)"/><rect x="210" y="126" width="6" height="6" transform="rotate(0,213,129)"/><rect x="12" y="132" width="6" height="6" transform="rotate(0,15,135)"/><rect x="18" y="132" width="6" height="6" transform="rotate(0,21,135)"/><rect x="24" y="132" width="6" height="6" transform="rotate(0,27,135)"/><rect x="30" y="132" width="6" height="6" transform="rotate(0,33,135)"/><rect x="48" y="132" width="6" height="6" transform="rotate(0,51,135)"/><rect x="54" y="132" width="6" height="6" transform="rotate(0,57,135)"/><rect x="60" y="132" width="6" height="6" transform="rotate(0,63,135)"/><rect x="66" y="132" width="6" height="6" transform="rotate(0,69,135)"/><rect x="84" y="132" width="6" height="6" transform="rotate(0,87,135)"/><rect x="102" y="132" width="6" height="6" transform="rotate(0,105,135)"/><rect x="108" y="132" width="6" height="6" transform="rotate(0,111,135)"/><rect x="132" y="132" width="6" height="6" transform="rotate(0,135,135)"/><rect x="144" y="132" width="6" height="6" transform="rotate(0,147,135)"/><rect x="156" y="132" width="6" height="6" transform="rotate(0,159,135)"/><rect x="168" y="132" width="6" height="6" transform="rotate(0,171,135)"/><rect x="180" y="132" width="6" height="6" transform="rotate(0,183,135)"/><rect x="186" y="132" width="6" height="6" transform="rotate(0,189,135)"/><rect x="192" y="132" width="6" height="6" transform="rotate(0,195,135)"/><rect x="204" y="132" width="6" height="6" transform="rotate(0,207,135)"/><rect x="210" y="132" width="6" height="6" transform="rotate(0,213,135)"/><rect x="228" y="132" width="6" height="6" transform="rotate(0,231,135)"/><rect x="12" y="138" width="6" height="6" transform="rotate(0,15,141)"/><rect x="18" y="138" width="6" height="6" transform="rotate(0,21,141)"/><rect x="24" y="138" width="6" height="6" transform="rotate(0,27,141)"/><rect x="30" y="138" width="6" height="6" transform="rotate(0,33,141)"/><rect x="54" y="138" width="6" height="6" transform="rotate(0,57,141)"/><rect x="60" y="138" width="6" height="6" transform="rotate(0,63,141)"/><rect x="72" y="138" width="6" height="6" transform="rotate(0,75,141)"/><rect x="78" y="138" width="6" height="6" transform="rotate(0,81,141)"/><rect x="90" y="138" width="6" height="6" transform="rotate(0,93,141)"/><rect x="102" y="138" width="6" height="6" transform="rotate(0,105,141)"/><rect x="108" y="138" width="6" height="6" transform="rotate(0,111,141)"/><rect x="120" y="138" width="6" height="6" transform="rotate(0,123,141)"/><rect x="132" y="138" width="6" height="6" transform="rotate(0,135,141)"/><rect x="144" y="138" width="6" height="6" transform="rotate(0,147,141)"/><rect x="150" y="138" width="6" height="6" transform="rotate(0,153,141)"/><rect x="168" y="138" width="6" height="6" transform="rotate(0,171,141)"/><rect x="174" y="138" width="6" height="6" transform="rotate(0,177,141)"/><rect x="180" y="138" width="6" height="6" transform="rotate(0,183,141)"/><rect x="198" y="138" width="6" height="6" transform="rotate(0,201,141)"/><rect x="204" y="138" width="6" height="6" transform="rotate(0,207,141)"/><rect x="210" y="138" width="6" height="6" transform="rotate(0,213,141)"/><rect x="216" y="138" width="6" height="6" transform="rotate(0,219,141)"/><rect x="12" y="144" width="6" height="6" transform="rotate(0,15,147)"/><rect x="18" y="144" width="6" height="6" transform="rotate(0,21,147)"/><rect x="24" y="144" width="6" height="6" transform="rotate(0,27,147)"/><rect x="36" y="144" width="6" height="6" transform="rotate(0,39,147)"/><rect x="42" y="144" width="6" height="6" transform="rotate(0,45,147)"/><rect x="48" y="144" width="6" height="6" transform="rotate(0,51,147)"/><rect x="54" y="144" width="6" height="6" transform="rotate(0,57,147)"/><rect x="72" y="144" width="6" height="6" transform="rotate(0,75,147)"/><rect x="78" y="144" width="6" height="6" transform="rotate(0,81,147)"/><rect x="84" y="144" width="6" height="6" transform="rotate(0,87,147)"/><rect x="114" y="144" width="6" height="6" transform="rotate(0,117,147)"/><rect x="126" y="144" width="6" height="6" transform="rotate(0,129,147)"/><rect x="132" y="144" width="6" height="6" transform="rotate(0,135,147)"/><rect x="150" y="144" width="6" height="6" transform="rotate(0,153,147)"/><rect x="168" y="144" width="6" height="6" transform="rotate(0,171,147)"/><rect x="174" y="144" width="6" height="6" transform="rotate(0,177,147)"/><rect x="192" y="144" width="6" height="6" transform="rotate(0,195,147)"/><rect x="204" y="144" width="6" height="6" transform="rotate(0,207,147)"/><rect x="210" y="144" width="6" height="6" transform="rotate(0,213,147)"/><rect x="228" y="144" width="6" height="6" transform="rotate(0,231,147)"/><rect x="12" y="150" width="6" height="6" transform="rotate(0,15,153)"/><rect x="18" y="150" width="6" height="6" transform="rotate(0,21,153)"/><rect x="24" y="150" width="6" height="6" transform="rotate(0,27,153)"/><rect x="36" y="150" width="6" height="6" transform="rotate(0,39,153)"/><rect x="66" y="150" width="6" height="6" transform="rotate(0,69,153)"/><rect x="78" y="150" width="6" height="6" transform="rotate(0,81,153)"/><rect x="84" y="150" width="6" height="6" transform="rotate(0,87,153)"/><rect x="90" y="150" width="6" height="6" transform="rotate(0,93,153)"/><rect x="120" y="150" width="6" height="6" transform="rotate(0,123,153)"/><rect x="126" y="150" width="6" height="6" transform="rotate(0,129,153)"/><rect x="144" y="150" width="6" height="6" transform="rotate(0,147,153)"/><rect x="168" y="150" width="6" height="6" transform="rotate(0,171,153)"/><rect x="174" y="150" width="6" height="6" transform="rotate(0,177,153)"/><rect x="180" y="150" width="6" height="6" transform="rotate(0,183,153)"/><rect x="198" y="150" width="6" height="6" transform="rotate(0,201,153)"/><rect x="210" y="150" width="6" height="6" transform="rotate(0,213,153)"/><rect x="216" y="150" width="6" height="6" transform="rotate(0,219,153)"/><rect x="222" y="150" width="6" height="6" transform="rotate(0,225,153)"/><rect x="228" y="150" width="6" height="6" transform="rotate(0,231,153)"/><rect x="18" y="156" width="6" height="6" transform="rotate(0,21,159)"/><rect x="24" y="156" width="6" height="6" transform="rotate(0,27,159)"/><rect x="36" y="156" width="6" height="6" transform="rotate(0,39,159)"/><rect x="42" y="156" width="6" height="6" transform="rotate(0,45,159)"/><rect x="48" y="156" width="6" height="6" transform="rotate(0,51,159)"/><rect x="54" y="156" width="6" height="6" transform="rotate(0,57,159)"/><rect x="66" y="156" width="6" height="6" transform="rotate(0,69,159)"/><rect x="90" y="156" width="6" height="6" transform="rotate(0,93,159)"/><rect x="108" y="156" width="6" height="6" transform="rotate(0,111,159)"/><rect x="114" y="156" width="6" height="6" transform="rotate(0,117,159)"/><rect x="120" y="156" width="6" height="6" transform="rotate(0,123,159)"/><rect x="126" y="156" width="6" height="6" transform="rotate(0,129,159)"/><rect x="132" y="156" width="6" height="6" transform="rotate(0,135,159)"/><rect x="150" y="156" width="6" height="6" transform="rotate(0,153,159)"/><rect x="162" y="156" width="6" height="6" transform="rotate(0,165,159)"/><rect x="168" y="156" width="6" height="6" transform="rotate(0,171,159)"/><rect x="180" y="156" width="6" height="6" transform="rotate(0,183,159)"/><rect x="186" y="156" width="6" height="6" transform="rotate(0,189,159)"/><rect x="192" y="156" width="6" height="6" transform="rotate(0,195,159)"/><rect x="198" y="156" width="6" height="6" transform="rotate(0,201,159)"/><rect x="210" y="156" width="6" height="6" transform="rotate(0,213,159)"/><rect x="228" y="156" width="6" height="6" transform="rotate(0,231,159)"/><rect x="12" y="162" width="6" height="6" transform="rotate(0,15,165)"/><rect x="18" y="162" width="6" height="6" transform="rotate(0,21,165)"/><rect x="24" y="162" width="6" height="6" transform="rotate(0,27,165)"/><rect x="36" y="162" width="6" height="6" transform="rotate(0,39,165)"/><rect x="54" y="162" width="6" height="6" transform="rotate(0,57,165)"/><rect x="66" y="162" width="6" height="6" transform="rotate(0,69,165)"/><rect x="78" y="162" width="6" height="6" transform="rotate(0,81,165)"/><rect x="84" y="162" width="6" height="6" transform="rotate(0,87,165)"/><rect x="90" y="162" width="6" height="6" transform="rotate(0,93,165)"/><rect x="96" y="162" width="6" height="6" transform="rotate(0,99,165)"/><rect x="102" y="162" width="6" height="6" transform="rotate(0,105,165)"/><rect x="114" y="162" width="6" height="6" transform="rotate(0,117,165)"/><rect x="120" y="162" width="6" height="6" transform="rotate(0,123,165)"/><rect x="126" y="162" width="6" height="6" transform="rotate(0,129,165)"/><rect x="132" y="162" width="6" height="6" transform="rotate(0,135,165)"/><rect x="144" y="162" width="6" height="6" transform="rotate(0,147,165)"/><rect x="150" y="162" width="6" height="6" transform="rotate(0,153,165)"/><rect x="162" y="162" width="6" height="6" transform="rotate(0,165,165)"/><rect x="180" y="162" width="6" height="6" transform="rotate(0,183,165)"/><rect x="192" y="162" width="6" height="6" transform="rotate(0,195,165)"/><rect x="204" y="162" width="6" height="6" transform="rotate(0,207,165)"/><rect x="216" y="162" width="6" height="6" transform="rotate(0,219,165)"/><rect x="12" y="168" width="6" height="6" transform="rotate(0,15,171)"/><rect x="18" y="168" width="6" height="6" transform="rotate(0,21,171)"/><rect x="30" y="168" width="6" height="6" transform="rotate(0,33,171)"/><rect x="48" y="168" width="6" height="6" transform="rotate(0,51,171)"/><rect x="60" y="168" width="6" height="6" transform="rotate(0,63,171)"/><rect x="66" y="168" width="6" height="6" transform="rotate(0,69,171)"/><rect x="72" y="168" width="6" height="6" transform="rotate(0,75,171)"/><rect x="84" y="168" width="6" height="6" transform="rotate(0,87,171)"/><rect x="96" y="168" width="6" height="6" transform="rotate(0,99,171)"/><rect x="108" y="168" width="6" height="6" transform="rotate(0,111,171)"/><rect x="120" y="168" width="6" height="6" transform="rotate(0,123,171)"/><rect x="138" y="168" width="6" height="6" transform="rotate(0,141,171)"/><rect x="144" y="168" width="6" height="6" transform="rotate(0,147,171)"/><rect x="162" y="168" width="6" height="6" transform="rotate(0,165,171)"/><rect x="168" y="168" width="6" height="6" transform="rotate(0,171,171)"/><rect x="180" y="168" width="6" height="6" transform="rotate(0,183,171)"/><rect x="192" y="168" width="6" height="6" transform="rotate(0,195,171)"/><rect x="210" y="168" width="6" height="6" transform="rotate(0,213,171)"/><rect x="216" y="168" width="6" height="6" transform="rotate(0,219,171)"/><rect x="222" y="168" width="6" height="6" transform="rotate(0,225,171)"/><rect x="228" y="168" width="6" height="6" transform="rotate(0,231,171)"/><rect x="12" y="174" width="6" height="6" transform="rotate(0,15,177)"/><rect x="24" y="174" width="6" height="6" transform="rotate(0,27,177)"/><rect x="60" y="174" width="6" height="6" transform="rotate(0,63,177)"/><rect x="66" y="174" width="6" height="6" transform="rotate(0,69,177)"/><rect x="78" y="174" width="6" height="6" transform="rotate(0,81,177)"/><rect x="84" y="174" width="6" height="6" transform="rotate(0,87,177)"/><rect x="96" y="174" width="6" height="6" transform="rotate(0,99,177)"/><rect x="108" y="174" width="6" height="6" transform="rotate(0,111,177)"/><rect x="114" y="174" width="6" height="6" transform="rotate(0,117,177)"/><rect x="120" y="174" width="6" height="6" transform="rotate(0,123,177)"/><rect x="126" y="174" width="6" height="6" transform="rotate(0,129,177)"/><rect x="132" y="174" width="6" height="6" transform="rotate(0,135,177)"/><rect x="144" y="174" width="6" height="6" transform="rotate(0,147,177)"/><rect x="168" y="174" width="6" height="6" transform="rotate(0,171,177)"/><rect x="174" y="174" width="6" height="6" transform="rotate(0,177,177)"/><rect x="186" y="174" width="6" height="6" transform="rotate(0,189,177)"/><rect x="210" y="174" width="6" height="6" transform="rotate(0,213,177)"/><rect x="216" y="174" width="6" height="6" transform="rotate(0,219,177)"/><rect x="222" y="174" width="6" height="6" transform="rotate(0,225,177)"/><rect x="12" y="180" width="6" height="6" transform="rotate(0,15,183)"/><rect x="24" y="180" width="6" height="6" transform="rotate(0,27,183)"/><rect x="30" y="180" width="6" height="6" transform="rotate(0,33,183)"/><rect x="36" y="180" width="6" height="6" transform="rotate(0,39,183)"/><rect x="42" y="180" width="6" height="6" transform="rotate(0,45,183)"/><rect x="48" y="180" width="6" height="6" transform="rotate(0,51,183)"/><rect x="72" y="180" width="6" height="6" transform="rotate(0,75,183)"/><rect x="84" y="180" width="6" height="6" transform="rotate(0,87,183)"/><rect x="90" y="180" width="6" height="6" transform="rotate(0,93,183)"/><rect x="96" y="180" width="6" height="6" transform="rotate(0,99,183)"/><rect x="108" y="180" width="6" height="6" transform="rotate(0,111,183)"/><rect x="114" y="180" width="6" height="6" transform="rotate(0,117,183)"/><rect x="126" y="180" width="6" height="6" transform="rotate(0,129,183)"/><rect x="144" y="180" width="6" height="6" transform="rotate(0,147,183)"/><rect x="156" y="180" width="6" height="6" transform="rotate(0,159,183)"/><rect x="162" y="180" width="6" height="6" transform="rotate(0,165,183)"/><rect x="180" y="180" width="6" height="6" transform="rotate(0,183,183)"/><rect x="186" y="180" width="6" height="6" transform="rotate(0,189,183)"/><rect x="192" y="180" width="6" height="6" transform="rotate(0,195,183)"/><rect x="198" y="180" width="6" height="6" transform="rotate(0,201,183)"/><rect x="204" y="180" width="6" height="6" transform="rotate(0,207,183)"/><rect x="210" y="180" width="6" height="6" transform="rotate(0,213,183)"/><rect x="216" y="180" width="6" height="6" transform="rotate(0,219,183)"/><rect x="222" y="180" width="6" height="6" transform="rotate(0,225,183)"/><rect x="228" y="180" width="6" height="6" transform="rotate(0,231,183)"/><rect x="60" y="186" width="6" height="6" transform="rotate(0,63,189)"/><rect x="72" y="186" width="6" height="6" transform="rotate(0,75,189)"/><rect x="84" y="186" width="6" height="6" transform="rotate(0,87,189)"/><rect x="90" y="186" width="6" height="6" transform="rotate(0,93,189)"/><rect x="102" y="186" width="6" height="6" transform="rotate(0,105,189)"/><rect x="120" y="186" width="6" height="6" transform="rotate(0,123,189)"/><rect x="138" y="186" width="6" height="6" transform="rotate(0,141,189)"/><rect x="144" y="186" width="6" height="6" transform="rotate(0,147,189)"/><rect x="162" y="186" width="6" height="6" transform="rotate(0,165,189)"/><rect x="168" y="186" width="6" height="6" transform="rotate(0,171,189)"/><rect x="180" y="186" width="6" height="6" transform="rotate(0,183,189)"/><rect x="204" y="186" width="6" height="6" transform="rotate(0,207,189)"/><rect x="210" y="186" width="6" height="6" transform="rotate(0,213,189)"/><rect x="216" y="186" width="6" height="6" transform="rotate(0,219,189)"/><rect x="222" y="186" width="6" height="6" transform="rotate(0,225,189)"/><rect x="66" y="192" width="6" height="6" transform="rotate(0,69,195)"/><rect x="72" y="192" width="6" height="6" transform="rotate(0,75,195)"/><rect x="78" y="192" width="6" height="6" transform="rotate(0,81,195)"/><rect x="90" y="192" width="6" height="6" transform="rotate(0,93,195)"/><rect x="96" y="192" width="6" height="6" transform="rotate(0,99,195)"/><rect x="114" y="192" width="6" height="6" transform="rotate(0,117,195)"/><rect x="120" y="192" width="6" height="6" transform="rotate(0,123,195)"/><rect x="150" y="192" width="6" height="6" transform="rotate(0,153,195)"/><rect x="162" y="192" width="6" height="6" transform="rotate(0,165,195)"/><rect x="168" y="192" width="6" height="6" transform="rotate(0,171,195)"/><rect x="180" y="192" width="6" height="6" transform="rotate(0,183,195)"/><rect x="192" y="192" width="6" height="6" transform="rotate(0,195,195)"/><rect x="204" y="192" width="6" height="6" transform="rotate(0,207,195)"/><rect x="210" y="192" width="6" height="6" transform="rotate(0,213,195)"/><rect x="216" y="192" width="6" height="6" transform="rotate(0,219,195)"/><rect x="228" y="192" width="6" height="6" transform="rotate(0,231,195)"/><rect x="60" y="198" width="6" height="6" transform="rotate(0,63,201)"/><rect x="120" y="198" width="6" height="6" transform="rotate(0,123,201)"/><rect x="138" y="198" width="6" height="6" transform="rotate(0,141,201)"/><rect x="150" y="198" width="6" height="6" transform="rotate(0,153,201)"/><rect x="162" y="198" width="6" height="6" transform="rotate(0,165,201)"/><rect x="174" y="198" width="6" height="6" transform="rotate(0,177,201)"/><rect x="180" y="198" width="6" height="6" transform="rotate(0,183,201)"/><rect x="204" y="198" width="6" height="6" transform="rotate(0,207,201)"/><rect x="210" y="198" width="6" height="6" transform="rotate(0,213,201)"/><rect x="60" y="204" width="6" height="6" transform="rotate(0,63,207)"/><rect x="78" y="204" width="6" height="6" transform="rotate(0,81,207)"/><rect x="84" y="204" width="6" height="6" transform="rotate(0,87,207)"/><rect x="96" y="204" width="6" height="6" transform="rotate(0,99,207)"/><rect x="108" y="204" width="6" height="6" transform="rotate(0,111,207)"/><rect x="114" y="204" width="6" height="6" transform="rotate(0,117,207)"/><rect x="126" y="204" width="6" height="6" transform="rotate(0,129,207)"/><rect x="132" y="204" width="6" height="6" transform="rotate(0,135,207)"/><rect x="138" y="204" width="6" height="6" transform="rotate(0,141,207)"/><rect x="156" y="204" width="6" height="6" transform="rotate(0,159,207)"/><rect x="174" y="204" width="6" height="6" transform="rotate(0,177,207)"/><rect x="180" y="204" width="6" height="6" transform="rotate(0,183,207)"/><rect x="186" y="204" width="6" height="6" transform="rotate(0,189,207)"/><rect x="192" y="204" width="6" height="6" transform="rotate(0,195,207)"/><rect x="198" y="204" width="6" height="6" transform="rotate(0,201,207)"/><rect x="204" y="204" width="6" height="6" transform="rotate(0,207,207)"/><rect x="222" y="204" width="6" height="6" transform="rotate(0,225,207)"/><rect x="60" y="210" width="6" height="6" transform="rotate(0,63,213)"/><rect x="66" y="210" width="6" height="6" transform="rotate(0,69,213)"/><rect x="72" y="210" width="6" height="6" transform="rotate(0,75,213)"/><rect x="96" y="210" width="6" height="6" transform="rotate(0,99,213)"/><rect x="108" y="210" width="6" height="6" transform="rotate(0,111,213)"/><rect x="132" y="210" width="6" height="6" transform="rotate(0,135,213)"/><rect x="138" y="210" width="6" height="6" transform="rotate(0,141,213)"/><rect x="144" y="210" width="6" height="6" transform="rotate(0,147,213)"/><rect x="162" y="210" width="6" height="6" transform="rotate(0,165,213)"/><rect x="168" y="210" width="6" height="6" transform="rotate(0,171,213)"/><rect x="174" y="210" width="6" height="6" transform="rotate(0,177,213)"/><rect x="180" y="210" width="6" height="6" transform="rotate(0,183,213)"/><rect x="192" y="210" width="6" height="6" transform="rotate(0,195,213)"/><rect x="210" y="210" width="6" height="6" transform="rotate(0,213,213)"/><rect x="222" y="210" width="6" height="6" transform="rotate(0,225,213)"/><rect x="72" y="216" width="6" height="6" transform="rotate(0,75,219)"/><rect x="102" y="216" width="6" height="6" transform="rotate(0,105,219)"/><rect x="108" y="216" width="6" height="6" transform="rotate(0,111,219)"/><rect x="114" y="216" width="6" height="6" transform="rotate(0,117,219)"/><rect x="138" y="216" width="6" height="6" transform="rotate(0,141,219)"/><rect x="156" y="216" width="6" height="6" transform="rotate(0,159,219)"/><rect x="168" y="216" width="6" height="6" transform="rotate(0,171,219)"/><rect x="204" y="216" width="6" height="6" transform="rotate(0,207,219)"/><rect x="222" y="216" width="6" height="6" transform="rotate(0,225,219)"/><rect x="228" y="216" width="6" height="6" transform="rotate(0,231,219)"/><rect x="60" y="222" width="6" height="6" transform="rotate(0,63,225)"/><rect x="72" y="222" width="6" height="6" transform="rotate(0,75,225)"/><rect x="78" y="222" width="6" height="6" transform="rotate(0,81,225)"/><rect x="90" y="222" width="6" height="6" transform="rotate(0,93,225)"/><rect x="108" y="222" width="6" height="6" transform="rotate(0,111,225)"/><rect x="114" y="222" width="6" height="6" transform="rotate(0,117,225)"/><rect x="168" y="222" width="6" height="6" transform="rotate(0,171,225)"/><rect x="174" y="222" width="6" height="6" transform="rotate(0,177,225)"/><rect x="192" y="222" width="6" height="6" transform="rotate(0,195,225)"/><rect x="198" y="222" width="6" height="6" transform="rotate(0,201,225)"/><rect x="216" y="222" width="6" height="6" transform="rotate(0,219,225)"/><rect x="222" y="222" width="6" height="6" transform="rotate(0,225,225)"/><rect x="228" y="222" width="6" height="6" transform="rotate(0,231,225)"/><rect x="66" y="228" width="6" height="6" transform="rotate(0,69,231)"/><rect x="78" y="228" width="6" height="6" transform="rotate(0,81,231)"/><rect x="84" y="228" width="6" height="6" transform="rotate(0,87,231)"/><rect x="96" y="228" width="6" height="6" transform="rotate(0,99,231)"/><rect x="102" y="228" width="6" height="6" transform="rotate(0,105,231)"/><rect x="126" y="228" width="6" height="6" transform="rotate(0,129,231)"/><rect x="156" y="228" width="6" height="6" transform="rotate(0,159,231)"/><rect x="180" y="228" width="6" height="6" transform="rotate(0,183,231)"/><rect x="192" y="228" width="6" height="6" transform="rotate(0,195,231)"/><rect x="204" y="228" width="6" height="6" transform="rotate(0,207,231)"/><rect x="210" y="228" width="6" height="6" transform="rotate(0,213,231)"/><rect x="228" y="228" width="6" height="6" transform="rotate(0,231,231)"/></g></svg>