<svg xmlns="http://www.w3.org/2000/svg" viewBox="0 0 222 222" width="1000" height="1000" fill="#fff" data-dot="6"><path d="M0 0h222v222H0z"/><g fill="#000"><path d="M24 198v-18h18v18z"/><path clip-rule="evenodd" class="svgeye" d="M12 210h42v-42H12zm6-6v-30h30v30z"/><path d="M198 24v18h-18V24z"/><path clip-rule="evenodd" class="svgeye" d="M210 12h-42v42h42zm-6 6v30h-30V18z"/><path d="M24 24h18v18H24z"/><path clip-rule="evenodd" class="svgeye" d="M12 12v42h42V12zm6 6h30v30H18z"/><path d="M60 12h6v6h-6zM66 12h6v6h-6zM78 12h6v6h-6zM90 12h6v6h-6zM96 12h6v6h-6zM114 12h6v6h-6zM120 12h6v6h-6zM126 12h6v6h-6zM132 12h6v6h-6zM150 12h6v6h-6zM156 12h6v6h-6zM66 18h6v6h-6zM78 18h6v6h-6zM96 18h6v6h-6zM108 18h6v6h-6zM114 18h6v6h-6zM156 18h6v6h-6zM66 24h6v6h-6zM72 24h6v6h-6zM84 24h6v6h-6zM96 24h6v6h-6zM114 24h6v6h-6zM120 24h6v6h-6zM132 24h6v6h-6zM138 24h6v6h-6zM150 24h6v6h-6zM66 30h6v6h-6zM72 30h6v6h-6zM84 30h6v6h-6zM102 30h6v6h-6zM108 30h6v6h-6zM126 30h6v6h-6zM132 30h6v6h-6zM144 30h6v6h-6zM150 30h6v6h-6zM156 30h6v6h-6zM60 36h6v6h-6zM66 36h6v6h-6zM78 36h6v6h-6zM84 36h6v6h-6zM90 36h6v6h-6zM108 36h6v6h-6zM114 36h6v6h-6zM120 36h6v6h-6zM150 36h6v6h-6zM60 42h6v6h-6zM78 42h6v6h-6zM84 42h6v6h-6zM90 42h6v6h-6zM96 42h6v6h-6zM114 42h6v6h-6zM132 42h6v6h-6zM144 42h6v6h-6zM60 48h6v6h-6zM72 48h6v6h-6zM84 48h6v6h-6zM96 48h6v6h-6zM108 48h6v6h-6zM120 48h6v6h-6zM132 48h6v6h-6zM144 48h6v6h-6zM156 48h6v6h-6zM66 54h6v6h-6zM78 54h6v6h-6zM96 54h6v6h-6zM138 54h6v6h-6zM156 54h6v6h-6zM18 60h6v6h-6zM24 60h6v6h-6zM30 60h6v6h-6zM36 60h6v6h-6zM42 60h6v6h-6zM48 60h6v6h-6zM54 60h6v6h-6zM90 60h6v6h-6zM108 60h6v6h-6zM114 60h6v6h-6zM144 60h6v6h-6zM156 60h6v6h-6zM174 60h6v6h-6zM180 60h6v6h-6zM204 60h6v6h-6zM12 66h6v6h-6zM18 66h6v6h-6zM24 66h6v6h-6zM36 66h6v6h-6zM66 66h6v6h-6zM72 66h6v6h-6zM78 66h6v6h-6zM84 66h6v6h-6zM102 66h6v6h-6zM120 66h6v6h-6zM126 66h6v6h-6zM132 66h6v6h-6zM138 66h6v6h-6zM150 66h6v6h-6zM168 66h6v6h-6zM174 66h6v6h-6zM186 66h6v6h-6zM192 66h6v6h-6zM204 66h6v6h-6zM24 72h6v6h-6zM30 72h6v6h-6zM48 72h6v6h-6zM54 72h6v6h-6zM60 72h6v6h-6zM66 72h6v6h-6zM78 72h6v6h-6zM96 72h6v6h-6zM108 72h6v6h-6zM120 72h6v6h-6zM132 72h6v6h-6zM138 72h6v6h-6zM180 72h6v6h-6zM192 72h6v6h-6zM198 72h6v6h-6zM12 78h6v6h-6zM18 78h6v6h-6zM30 78h6v6h-6zM54 78h6v6h-6zM60 78h6v6h-6zM66 78h6v6h-6zM72 78h6v6h-6zM78 78h6v6h-6zM84 78h6v6h-6zM96 78h6v6h-6zM102 78h6v6h-6zM108 78h6v6h-6zM132 78h6v6h-6zM138 78h6v6h-6zM144 78h6v6h-6zM156 78h6v6h-6zM162 78h6v6h-6zM180 78h6v6h-6zM186 78h6v6h-6zM192 78h6v6h-6zM42 84h6v6h-6zM48 84h6v6h-6zM54 84h6v6h-6zM66 84h6v6h-6zM84 84h6v6h-6zM90 84h6v6h-6zM102 84h6v6h-6zM120 84h6v6h-6zM138 84h6v6h-6zM156 84h6v6h-6zM162 84h6v6h-6zM174 84h6v6h-6zM180 84h6v6h-6zM186 84h6v6h-6zM198 84h6v6h-6zM18 90h6v6h-6zM36 90h6v6h-6zM60 90h6v6h-6zM72 90h6v6h-6zM78 90h6v6h-6zM102 90h6v6h-6zM114 90h6v6h-6zM132 90h6v6h-6zM138 90h6v6h-6zM150 90h6v6h-6zM162 90h6v6h-6zM168 90h6v6h-6zM198 90h6v6h-6zM204 90h6v6h-6zM12 96h6v6h-6zM18 96h6v6h-6zM30 96h6v6h-6zM48 96h6v6h-6zM54 96h6v6h-6zM66 96h6v6h-6zM72 96h6v6h-6zM78 96h6v6h-6zM90 96h6v6h-6zM102 96h6v6h-6zM108 96h6v6h-6zM120 96h6v6h-6zM126 96h6v6h-6zM162 96h6v6h-6zM168 96h6v6h-6zM186 96h6v6h-6zM192 96h6v6h-6zM198 96h6v6h-6zM24 102h6v6h-6zM42 102h6v6h-6zM60 102h6v6h-6zM78 102h6v6h-6zM84 102h6v6h-6zM90 102h6v6h-6zM96 102h6v6h-6zM102 102h6v6h-6zM108 102h6v6h-6zM120 102h6v6h-6zM126 102h6v6h-6zM132 102h6v6h-6zM138 102h6v6h-6zM144 102h6v6h-6zM150 102h6v6h-6zM156 102h6v6h-6zM162 102h6v6h-6zM168 102h6v6h-6zM180 102h6v6h-6zM186 102h6v6h-6zM192 102h6v6h-6zM12 108h6v6h-6zM30 108h6v6h-6zM48 108h6v6h-6zM66 108h6v6h-6zM78 108h6v6h-6zM90 108h6v6h-6zM108 108h6v6h-6zM114 108h6v6h-6zM126 108h6v6h-6zM144 108h6v6h-6zM156 108h6v6h-6zM162 108h6v6h-6zM174 108h6v6h-6zM180 108h6v6h-6zM204 108h6v6h-6zM12 114h6v6h-6zM18 114h6v6h-6zM24 114h6v6h-6zM30 114h6v6h-6zM36 114h6v6h-6zM42 114h6v6h-6zM60 114h6v6h-6zM66 114h6v6h-6zM72 114h6v6h-6zM96 114h6v6h-6zM108 114h6v6h-6zM126 114h6v6h-6zM132 114h6v6h-6zM150 114h6v6h-6zM168 114h6v6h-6zM174 114h6v6h-6zM186 114h6v6h-6zM192 114h6v6h-6zM198 114h6v6h-6zM204 114h6v6h-6zM12 120h6v6h-6zM24 120h6v6h-6zM30 120h6v6h-6zM36 120h6v6h-6zM48 120h6v6h-6zM60 120h6v6h-6zM78 120h6v6h-6zM84 120h6v6h-6zM108 120h6v6h-6zM114 120h6v6h-6zM120 120h6v6h-6zM132 120h6v6h-6zM144 120h6v6h-6zM174 120h6v6h-6zM180 120h6v6h-6zM192 120h6v6h-6zM198 120h6v6h-6zM24 126h6v6h-6zM30 126h6v6h-6zM36 126h6v6h-6zM42 126h6v6h-6zM60 126h6v6h-6zM66 126h6v6h-6zM96 126h6v6h-6zM102 126h6v6h-6zM114 126h6v6h-6zM132 126h6v6h-6zM156 126h6v6h-6zM174 126h6v6h-6zM180 126h6v6h-6zM186 126h6v6h-6zM192 126h6v6h-6zM198 126h6v6h-6zM12 132h6v6h-6zM18 132h6v6h-6zM30 132h6v6h-6zM36 132h6v6h-6zM48 132h6v6h-6zM72 132h6v6h-6zM96 132h6v6h-6zM102 132h6v6h-6zM108 132h6v6h-6zM120 132h6v6h-6zM126 132h6v6h-6zM132 132h6v6h-6zM138 132h6v6h-6zM144 132h6v6h-6zM162 132h6v6h-6zM174 132h6v6h-6zM180 132h6v6h-6zM186 132h6v6h-6zM198 132h6v6h-6zM204 132h6v6h-6zM12 138h6v6h-6zM42 138h6v6h-6zM60 138h6v6h-6zM66 138h6v6h-6zM72 138h6v6h-6zM90 138h6v6h-6zM108 138h6v6h-6zM114 138h6v6h-6zM120 138h6v6h-6zM150 138h6v6h-6zM168 138h6v6h-6zM174 138h6v6h-6zM204 138h6v6h-6zM12 144h6v6h-6zM30 144h6v6h-6zM48 144h6v6h-6zM66 144h6v6h-6zM72 144h6v6h-6zM78 144h6v6h-6zM96 144h6v6h-6zM102 144h6v6h-6zM108 144h6v6h-6zM114 144h6v6h-6zM132 144h6v6h-6zM144 144h6v6h-6zM162 144h6v6h-6zM174 144h6v6h-6zM186 144h6v6h-6zM198 144h6v6h-6zM12 150h6v6h-6zM24 150h6v6h-6zM42 150h6v6h-6zM60 150h6v6h-6zM66 150h6v6h-6zM72 150h6v6h-6zM78 150h6v6h-6zM96 150h6v6h-6zM102 150h6v6h-6zM108 150h6v6h-6zM114 150h6v6h-6zM138 150h6v6h-6zM144 150h6v6h-6zM186 150h6v6h-6zM192 150h6v6h-6zM204 150h6v6h-6zM12 156h6v6h-6zM24 156h6v6h-6zM36 156h6v6h-6zM42 156h6v6h-6zM48 156h6v6h-6zM60 156h6v6h-6zM72 156h6v6h-6zM78 156h6v6h-6zM102 156h6v6h-6zM108 156h6v6h-6zM120 156h6v6h-6zM144 156h6v6h-6zM150 156h6v6h-6zM156 156h6v6h-6zM162 156h6v6h-6zM168 156h6v6h-6zM174 156h6v6h-6zM180 156h6v6h-6zM198 156h6v6h-6zM60 162h6v6h-6zM66 162h6v6h-6zM90 162h6v6h-6zM102 162h6v6h-6zM120 162h6v6h-6zM126 162h6v6h-6zM132 162h6v6h-6zM138 162h6v6h-6zM156 162h6v6h-6zM180 162h6v6h-6zM192 162h6v6h-6zM204 162h6v6h-6zM60 168h6v6h-6zM72 168h6v6h-6zM96 168h6v6h-6zM102 168h6v6h-6zM108 168h6v6h-6zM114 168h6v6h-6zM120 168h6v6h-6zM132 168h6v6h-6zM138 168h6v6h-6zM150 168h6v6h-6zM156 168h6v6h-6zM168 168h6v6h-6zM180 168h6v6h-6zM192 168h6v6h-6zM60 174h6v6h-6zM72 174h6v6h-6zM84 174h6v6h-6zM90 174h6v6h-6zM102 174h6v6h-6zM114 174h6v6h-6zM126 174h6v6h-6zM132 174h6v6h-6zM138 174h6v6h-6zM144 174h6v6h-6zM150 174h6v6h-6zM156 174h6v6h-6zM180 174h6v6h-6zM186 174h6v6h-6zM192 174h6v6h-6zM204 174h6v6h-6zM60 180h6v6h-6zM72 180h6v6h-6zM78 180h6v6h-6zM84 180h6v6h-6zM90 180h6v6h-6zM120 180h6v6h-6zM126 180h6v6h-6zM138 180h6v6h-6zM156 180h6v6h-6zM162 180h6v6h-6zM168 180h6v6h-6zM174 180h6v6h-6zM180 180h6v6h-6zM186 180h6v6h-6zM198 180h6v6h-6zM204 180h6v6h-6zM60 186h6v6h-6zM66 186h6v6h-6zM78 186h6v6h-6zM84 186h6v6h-6zM90 186h6v6h-6zM96 186h6v6h-6zM102 186h6v6h-6zM114 186h6v6h-6zM132 186h6v6h-6zM144 186h6v6h-6zM150 186h6v6h-6zM162 186h6v6h-6zM180 186h6v6h-6zM186 186h6v6h-6zM192 186h6v6h-6zM204 186h6v6h-6zM60 192h6v6h-6zM84 192h6v6h-6zM108 192h6v6h-6zM114 192h6v6h-6zM126 192h6v6h-6zM138 192h6v6h-6zM144 192h6v6h-6zM150 192h6v6h-6zM156 192h6v6h-6zM162 192h6v6h-6zM168 192h6v6h-6zM174 192h6v6h-6zM186 192h6v6h-6zM192 192h6v6h-6zM60 198h6v6h-6zM78 198h6v6h-6zM84 198h6v6h-6zM108 198h6v6h-6zM126 198h6v6h-6zM132 198h6v6h-6zM138 198h6v6h-6zM144 198h6v6h-6zM180 198h6v6h-6zM186 198h6v6h-6zM192 198h6v6h-6zM96 204h6v6h-6zM102 204h6v6h-6zM108 204h6v6h-6zM114 204h6v6h-6zM120 204h6v6h-6zM126 204h6v6h-6zM156 204h6v6h-6zM162 204h6v6h-6zM174 204h6v6h-6zM186 204h6v6h-6zM198 204h6v6h-6z"/></g></svg>