<svg width="33" height="51" viewBox="0 0 33 51"
    xmlns="http://www.w3.org/2000/svg">
    <g id="logo">
        <g class="right-hand">
            <rect x="25.4991" y="39.1853" width="16" height="3.35392" rx="1.67696"
                transform="rotate(-135 25.4991 39.1853)" />
        </g>
        <g class="left-hand">
            <rect width="16" height="3.35392" rx="1.67696"
                transform="matrix(0.707107 -0.707107 -0.707107 -0.707107 7.18628 39.1853)" />
        </g>
        <path
            d="M13.2316 49.0351C13.3154 48.9293 13.3811 48.8088 13.424 48.6755L16.3427 39.6175L19.2614 48.6755C19.3044 48.8088 19.3701 48.9293 19.4538 49.0351C19.8136 49.5502 20.475 49.8024 21.1105 49.6139L25.904 48.192C26.6982 47.9564 27.1511 47.1216 26.9155 46.3273C26.6799 45.5331 25.8451 45.0803 25.0508 45.3159L21.6553 46.3231L17.8041 34.3713C17.618 33.7935 17.0045 33.4556 16.3427 33.5187C15.6809 33.4556 15.0675 33.7935 14.8813 34.3713L11.0301 46.3231L7.63462 45.3159C6.84039 45.0803 6.00556 45.5331 5.76997 46.3273C5.53438 47.1216 5.98723 47.9564 6.78145 48.192L11.575 49.6139C12.2104 49.8024 12.8719 49.5502 13.2316 49.0351Z" />
        <path
            d="M8.32734 17.811C9.42664 21.2432 12.1857 25.6718 16.7202 24.3307C25.0014 21.8814 24.8652 15.4656 24.7585 10.4344V6.4552L22.5 7.00001L22.4956 11.1927C22.5334 15.24 22.3495 20.123 16.2164 22.153C13.2403 23.138 11.4193 19.6297 10.539 16.7779C9.94865 14.8652 9.5 13.5 9.5 13.5L7.5 14.5L8.32734 17.811Z" />
        <g class="hat">
            <path class="hat"
                d="M7.51171 14.4902C7.41209 13.7972 7.19779 12.2678 7.09685 11.2504C6.96284 9.89958 6.76146 5.41454 8.10303 4.87791C8.93505 4.5451 10.0148 4.6251 11.1374 4.70828C12.2774 4.79275 13.4616 4.88049 14.4755 4.54252C15.5464 4.18556 16.4233 3.43831 17.2643 2.72167C18.0036 2.09165 18.7152 1.4853 19.5063 1.1886C22.11 0.212228 24.1024 3.18508 24.7054 6.45873L29.4422 4.24607C30.2813 3.8541 31.2793 4.21659 31.6713 5.05571C32.0633 5.89484 31.7008 6.89284 30.8617 7.2848L24.7523 10.1386L8.32732 17.811L2.93884 20.328C2.09972 20.72 1.10172 20.3575 0.709747 19.5184C0.317777 18.6793 0.680268 17.6813 1.51939 17.2893L7.51171 14.4902Z" />
        </g>
    </g>
</svg>