<svg xmlns="http://www.w3.org/2000/svg" width="196" height="69">
    <g viewBox="0 0 196 69">
      <g fill="#003DAE">
        <path d="M85.07 25.947c3.356-2.549 8.38-2.265 11.943-.285a.265.265 0 0 1 .135.233v3.524a.278.278 0 0 1-.388.252c-1.427-.602-3.027-.903-4.8-.903-2.579 0-3.868.63-3.868 1.888 0 1.627 2.591 2.12 3.78 2.426 2.276.583 4.476 1.416 5.837 3.435.74 1.098 1.11 2.495 1.11 4.193 0 4.468-4.453 6.564-8.375 6.564-2.525 0-4.854-.59-6.985-1.767a.267.267 0 0 1-.137-.234v-4.147c0-.215.24-.345.424-.232 1.856 1.136 3.832 1.704 5.928 1.704 1.601 0 3.737-.087 3.737-2.151 0-1.681-2.54-2.287-3.792-2.646-2.15-.615-4.39-1.265-5.825-3.095-2.018-2.573-1.26-6.834 1.275-8.759Zm80.208 20.976a.269.269 0 0 1-.269-.27V26.677c0-.104.059-.198.153-.242.35-.16.804-.344 1.363-.554 2.937-1.1 6.299-1.66 9.421-1.74a.268.268 0 0 1 .274.269v4.136a.272.272 0 0 1-.267.27c-2.054.044-3.835.272-5.342.687a.266.266 0 0 0-.195.258v16.892a.27.27 0 0 1-.269.27h-4.869Zm-33.995-22.784c-6.558 0-9.76 5.643-9.76 11.503 0 6.31 3.562 10.976 10.138 10.976a18.794 18.794 0 0 0 3.081-.318.273.273 0 0 1 .322.267c0 .683.066 1.412-.105 2.079-.466 1.817-2.427 2.081-4.008 2.173a.272.272 0 0 0-.257.27v4.299c0 .15.124.272.275.267 4.047-.12 8.42-1.79 9.309-6.14a10.2 10.2 0 0 0 .194-2.046V31.515c0-5.153-4.612-7.376-9.189-7.376Zm0 4.803h.071c2.476 0 3.71.834 3.71 2.502v10.227c0 .13-.091.24-.218.263-.985.178-1.985.267-3.009.267-3.946 0-4.906-3-4.906-6.471 0-2.984.632-6.788 4.352-6.788Zm-26.772-4.164a.267.267 0 0 0-.196.258v3.835c0 .177.169.306.341.264 1.389-.341 2.915-.518 4.601-.518 3.061 0 4.652 1.304 4.768 3.92a.264.264 0 0 1-.303.269c-2.663-.363-5.518-.484-8.114.315-2.956.91-5.206 3.318-5.206 6.472 0 5.384 4.863 7.683 9.628 7.683 4.631 0 9.453-2.313 9.453-7.552v-6.058c0-3.088-.85-5.455-2.55-7.086-3.144-3.018-8.465-2.877-12.422-1.802Zm6.328 11.215c.839.014 1.842.094 3.004.249a.268.268 0 0 1 .232.266v2.602c0 2.268-1.348 3.398-4.045 3.398h-.044c-2.828 0-4.247-1.2-4.247-3.6.015-1.946 1.715-2.915 5.1-2.915Zm36.116-11.215a.267.267 0 0 0-.196.258v3.835c0 .177.168.306.341.264 1.39-.341 2.924-.518 4.609-.518 3.061 0 4.645 1.304 4.76 3.92a.264.264 0 0 1-.303.269c-2.661-.363-5.511-.483-8.106.315-2.986.92-5.214 3.282-5.214 6.472 0 5.378 4.872 7.683 9.628 7.683 4.64 0 9.453-2.307 9.453-7.552v-6.058c0-3.088-.85-5.455-2.55-7.086-3.143-3.018-8.465-2.879-12.422-1.802Zm6.337 11.215c.839.014 1.834.094 2.995.249a.268.268 0 0 1 .232.266v2.602c0 2.268-1.348 3.398-4.045 3.398h-.044c-2.828 0-4.238-1.2-4.238-3.6.015-1.946 1.715-2.915 5.1-2.915Zm27.736-11.215a.266.266 0 0 0-.196.258v3.835c0 .177.168.306.341.264 1.39-.341 2.924-.518 4.609-.518 3.061 0 4.645 1.304 4.759 3.92a.263.263 0 0 1-.302.269c-2.661-.363-5.511-.483-8.106.315-2.962.912-5.214 3.27-5.214 6.472 0 5.377 4.872 7.683 9.628 7.683 4.64 0 9.453-2.307 9.453-7.552v-6.058c0-3.088-.85-5.455-2.55-7.086-3.144-3.018-8.465-2.879-12.422-1.802Zm6.337 11.215c.838.014 1.834.094 2.995.249a.268.268 0 0 1 .232.266v2.602c0 2.268-1.348 3.398-4.045 3.398h-.044c-2.828 0-4.238-1.2-4.238-3.6.015-1.946 1.715-2.915 5.1-2.915Z"/>
        <path fill="url(#b)" d="M35.49 10.68c-12.171 0-22.194 9.17-23.58 20.98-.07.597-.122 1.198-.15 1.805a.955.955 0 0 0 .966.991h3.607c.546 0 .987-.444 1.022-.99.039-.61.11-1.21.202-1.805 1.347-8.71 8.854-15.39 17.933-15.39 10.03 0 18.158 8.145 18.158 18.185 0 10.041-8.127 18.177-18.158 18.177H8.24c-.777 0-1.246.854-.801 1.492a34.227 34.227 0 0 0 3.067 3.8.973.973 0 0 0 .712.308H35.49c13.118 0 23.753-10.646 23.753-23.777 0-13.13-10.635-23.776-23.753-23.776Z"/>
        <path fill="url(#b)" d="M35.49.281C24.855.281 15.352 5.13 9.074 12.744 4.698 18.051 1.973 24.75 1.409 31.61c-.002.017-.008.034-.01.052a46.17 46.17 0 0 0-.117 1.804.959.959 0 0 0 .968.991h3.607a1.02 1.02 0 0 0 1.008-.991 29.86 29.86 0 0 1 .12-1.804C8.393 17.14 20.616 5.785 35.49 5.785c15.818 0 28.643 12.837 28.643 28.671S51.308 63.127 35.49 63.127H19.928c-.98 0-1.328 1.223-.46 1.682a34.115 34.115 0 0 0 14.273 3.91h1.749c17.723 0 32.293-13.484 34.046-30.761.114-1.123.18-2.262.183-3.414 0-1.183-.066-2.358-.183-3.51C67.783 13.756 53.213.28 35.49.28Z"/>
        <path fill="url(#b)" d="M35.49 21.166c-6.37 0-11.679 4.503-12.965 10.495a14.14 14.14 0 0 0-.272 1.805c-.045.546.402.99.949.99h3.615c.547 0 .983-.446 1.057-.989a7.854 7.854 0 0 1 .472-1.806c1.12-2.863 3.887-4.895 7.144-4.895 4.244 0 7.682 3.442 7.683 7.69a7.686 7.686 0 0 1-7.683 7.69H7.882c-.212-.773-.408-1.578-.63-2.35-.156-.541-.641-.916-1.136-.916H2.54c-.488 0-.924.57-.83 1.11.452 2.415.994 4.94 1.97 7.204.152.354.525.544.876.544H35.49c7.33 0 13.268-5.944 13.268-13.282 0-7.337-5.938-13.29-13.268-13.29Z"/>
      </g>
      <defs>
        <radialGradient id="b" cx="0" cy="0" r="1" gradientTransform="rotate(135.019 27.863 17.572) scale(68.4564 70.1494)" gradientUnits="userSpaceOnUse">
          <stop offset=".067" stop-color="#FCE300"/>
          <stop offset=".29" stop-color="#2FFF86"/>
          <stop offset=".641" stop-color="#0096E1"/>
          <stop offset=".832" stop-color="#0057F2"/>
          <stop offset="1" stop-color="#004BD0"/>
        </radialGradient>
      </defs>
    </g>
</svg>