<svg width="1024" height="1024" viewBox="0 0 1024 1024" fill="none" xmlns="http://www.w3.org/2000/svg">
<path d="M459.896 924.722C461.359 922.876 462.505 920.772 463.255 918.446L514.202 760.335L565.15 918.446C565.899 920.772 567.046 922.876 568.508 924.722C574.787 933.714 586.333 938.116 597.425 934.826L681.098 910.006C694.962 905.893 702.866 891.321 698.754 877.457C694.642 863.594 680.069 855.689 666.206 859.802L606.936 877.383L539.712 668.759C536.462 658.675 525.754 652.776 514.202 653.877C502.651 652.776 491.942 658.675 488.693 668.759L421.469 877.383L362.199 859.802C348.335 855.689 333.763 863.594 329.65 877.457C325.538 891.321 333.443 905.893 347.306 910.006L430.98 934.826C442.072 938.116 453.617 933.714 459.896 924.722Z" fill="black"/>
<path d="M375.073 721.602C363.642 732.936 345.108 732.936 333.676 721.602C322.245 710.269 322.245 691.893 333.676 680.56L489.765 525.806C496.434 519.193 505.521 516.439 514.204 517.542C522.887 516.44 531.973 519.194 538.641 525.806L694.73 680.56C706.161 691.893 706.161 710.269 694.73 721.603C683.298 732.936 664.764 732.936 653.333 721.603L514.203 583.662L375.073 721.602Z" fill="black"/>
<path fill-rule="evenodd" clip-rule="evenodd" d="M352.814 265.175C354.576 282.935 358.316 309.632 360.055 321.727L255.457 370.587C240.81 377.429 234.482 394.85 241.324 409.497C248.166 424.144 265.587 430.472 280.234 423.63L374.292 379.693C393.481 439.604 441.643 516.907 520.794 493.497C665.345 450.744 662.969 338.754 661.105 250.933V245.718L767.638 195.955C782.285 189.113 788.613 171.692 781.771 157.045C774.929 142.398 757.508 136.07 742.861 142.912L660.177 181.535C649.652 124.392 614.875 72.5 569.426 89.543C555.616 94.722 543.195 105.306 530.29 116.303C515.61 128.813 500.303 141.856 481.611 148.087C463.912 153.986 443.241 152.455 423.342 150.98C403.747 149.529 384.9 148.132 370.377 153.941C346.959 163.308 350.474 241.597 352.814 265.175ZM621.606 264.169L412.899 361.66C428.265 411.44 460.051 472.678 511.999 455.484C619.056 420.05 622.265 334.815 621.606 264.169Z" fill="black"/>
</svg>
