<svg width="62" height="48" fill="none" xmlns="http://www.w3.org/2000/svg"><path fill-rule="evenodd" clip-rule="evenodd" d="M61.522 17.53c-5.419.3-9.782 1.218-12.534 3.09-2.893 2.078-4.687 4.45-5.057 7.21-.248.85-.3 8.878-.298 13.562L30.999 48 18.2 41.637l.168-12.4c-.09-6.39 1.681-12.556 5.708-18.445C26.87 7.49 29.503 3.497 34.023.875c.955-.74 2.616-1.033 5.118-.793 2.31.219 4.09.756 5.516 1.51-7.117 2.878-12.79 7.025-16.449 12.94-2.192 3.765-3.626 7.745-3.908 12.049l-.153 12.191 3.844 2.178.213-12.506c.457-5.906 2.44-10.495 5.577-13.97 2.265-2.675 5.886-5.302 10.156-7.363 1.819-.862 4.06-1.118 6.313-.59 2.201.536 4.117 1.288 5.78 2.232-6.568 1.253-12.476 3.725-15.416 6.511-3.529 3.512-6.1 7.124-6.495 10.961-.233 1.604-.264 9.65-.3 14.558l4.047-1.935-.015-10.885c.437-3.332 2.038-6.182 4.383-8.727 1.342-1.454 5.338-3.911 8.642-5.04 3.968-1.603 7.977.59 10.646 3.334Z" fill="#49A85E"/><path fill-rule="evenodd" clip-rule="evenodd" d="M.479 17.53c5.416.3 9.781 1.218 12.533 3.09 2.893 2.078 4.688 4.45 5.057 7.21.248.85.133 9.122.13 13.807L31 48l12.633-6.608V29.237c.09-6.39-1.683-12.556-5.707-18.445-2.795-3.302-5.43-7.295-9.947-9.917-.956-.74-2.618-1.033-5.119-.793-2.31.219-4.09.756-5.516 1.51 7.115 2.878 12.79 7.025 16.449 12.94 2.192 3.765 3.626 7.745 3.909 12.049l.165 12.267-4.048 1.935-.022-12.339c-.457-5.906-2.44-10.495-5.577-13.97-2.265-2.675-5.886-5.302-10.156-7.363-1.819-.862-4.061-1.118-6.313-.59-2.201.536-4.117 1.288-5.78 2.232 6.568 1.253 12.476 3.725 15.416 6.511 3.529 3.512 6.1 7.124 6.496 10.961.232 1.604.071 9.815.108 14.725l-3.843-2.178v-10.81c-.435-3.331-2.036-6.18-4.381-8.726-1.342-1.454-5.338-3.911-8.642-5.04-3.968-1.603-7.977.59-10.645 3.334Z" fill="#263D93"/></svg>