<svg width="1000" height="425" fill="none" xmlns="http://www.w3.org/2000/svg"><path d="M0 10C0 4.477 4.477 0 10 0h980c5.523 0 10 4.477 10 10v289H0V10Z" fill="#263D93"/><path d="M181.333 46v48h16v-9.333h5.334V94h16V46h-37.334Zm5.334 5.333H192v5.334h-5.333v-5.334Zm10.666 0h5.334v5.334h-5.334v-5.334Zm10.667 0h5.333v5.334H208v-5.334ZM186.667 62H192v5.333h-5.333V62Zm10.666 0h5.334v5.333h-5.334V62ZM208 62h5.333v5.333H208V62Zm-21.333 10.667H192V78h-5.333v-5.333Zm10.666 0h5.334V78h-5.334v-5.333Zm10.667 0h5.333V78H208v-5.333Zm-21.333 10.666H192v5.334h-5.333v-5.334Zm21.333 0h5.333v5.334H208v-5.334ZM177.958 123v-9.8h3.822c.859 0 1.592.135 2.198.406.607.271 1.074.663 1.4 1.176.327.513.49 1.125.49 1.834 0 .709-.163 1.321-.49 1.834-.326.504-.793.896-1.4 1.176-.606.271-1.339.406-2.198.406h-3.052l.63-.658V123h-1.4Zm1.4-3.486-.63-.7h3.01c.896 0 1.573-.191 2.03-.574.467-.383.7-.924.7-1.624 0-.7-.233-1.241-.7-1.624-.457-.383-1.134-.574-2.03-.574h-3.01l.63-.7v5.796Zm8.515 3.486v-7.42h1.288v2.016l-.126-.504c.205-.513.55-.905 1.036-1.176.485-.271 1.082-.406 1.792-.406v1.302a1.058 1.058 0 0 0-.168-.014h-.14c-.719 0-1.288.215-1.708.644-.42.429-.63 1.05-.63 1.862V123h-1.344Zm9.036.084c-.747 0-1.41-.163-1.988-.49a3.65 3.65 0 0 1-1.372-1.344c-.336-.579-.504-1.232-.504-1.96 0-.737.168-1.391.504-1.96a3.542 3.542 0 0 1 1.372-1.33c.578-.327 1.241-.49 1.988-.49.737 0 1.395.163 1.974.49a3.424 3.424 0 0 1 1.372 1.33c.336.56.504 1.213.504 1.96 0 .737-.168 1.391-.504 1.96a3.525 3.525 0 0 1-1.372 1.344c-.579.327-1.237.49-1.974.49Zm0-1.176c.476 0 .9-.107 1.274-.322.382-.215.681-.518.896-.91.214-.401.322-.863.322-1.386 0-.532-.108-.989-.322-1.372a2.281 2.281 0 0 0-.896-.91 2.508 2.508 0 0 0-1.274-.322c-.476 0-.901.107-1.274.322a2.396 2.396 0 0 0-.896.91c-.224.383-.336.84-.336 1.372 0 .523.112.985.336 1.386.224.392.522.695.896.91.373.215.798.322 1.274.322Zm6.184 1.092v-8.078c0-.728.21-1.307.63-1.736.43-.439 1.036-.658 1.82-.658.29 0 .565.037.826.112.271.065.5.173.686.322l-.406 1.022a1.45 1.45 0 0 0-.476-.252 1.613 1.613 0 0 0-.56-.098c-.392 0-.69.112-.896.336-.205.215-.308.537-.308.966v.994l.028.616V123h-1.344Zm-1.26-6.314v-1.106h4.732v1.106h-4.732Zm6.006 6.314v-7.42h1.344V123h-1.344Zm.672-8.848a.922.922 0 0 1-.658-.252.837.837 0 0 1-.252-.616c0-.252.084-.462.252-.63a.922.922 0 0 1 .658-.252c.262 0 .476.084.644.252a.77.77 0 0 1 .266.602.902.902 0 0 1-.252.644c-.168.168-.387.252-.658.252Zm3.512 8.848v-10.388h1.344V123h-1.344Zm7.494.084c-.793 0-1.493-.163-2.1-.49a3.6 3.6 0 0 1-1.4-1.344c-.326-.569-.49-1.223-.49-1.96 0-.737.159-1.391.476-1.96a3.503 3.503 0 0 1 1.33-1.33 3.784 3.784 0 0 1 1.918-.49c.719 0 1.354.159 1.904.476.551.317.98.765 1.288 1.344.318.569.476 1.237.476 2.002 0 .056-.004.121-.014.196 0 .075-.004.145-.014.21h-6.314v-.966h5.614l-.546.336a2.48 2.48 0 0 0-.294-1.274 2.181 2.181 0 0 0-.854-.868c-.354-.215-.77-.322-1.246-.322-.466 0-.882.107-1.246.322a2.161 2.161 0 0 0-.854.882 2.633 2.633 0 0 0-.308 1.288v.224c0 .495.112.938.336 1.33.234.383.556.681.966.896.411.215.882.322 1.414.322.439 0 .836-.075 1.19-.224.364-.149.682-.373.952-.672l.742.868a3.237 3.237 0 0 1-1.26.896 4.312 4.312 0 0 1-1.666.308Z" fill="#fff"/><path opacity=".25" stroke="#fff" d="M300.5 65v48"/><path d="M404 59.333h-4v13.334l11.413 6.773 1.92-3.227L404 70.667V59.333ZM402.667 46a24 24 0 0 0-24 24h-8l10.56 10.747L392 70h-8a18.665 18.665 0 0 1 31.866-13.2 18.665 18.665 0 0 1 0 26.4 18.668 18.668 0 0 1-13.199 5.467 18.517 18.517 0 0 1-13.174-5.494l-3.786 3.787a23.72 23.72 0 0 0 16.96 7.04 24 24 0 0 0 0-48ZM382.413 113.2h1.4v9.8h-1.4v-9.8Zm-5.628 9.8h-1.4v-9.8h1.4v9.8Zm5.754-4.368h-5.894v-1.218h5.894v1.218ZM386.83 123v-7.42h1.344V123h-1.344Zm.672-8.848a.922.922 0 0 1-.658-.252.837.837 0 0 1-.252-.616c0-.252.084-.462.252-.63a.922.922 0 0 1 .658-.252c.262 0 .476.084.644.252a.77.77 0 0 1 .266.602.902.902 0 0 1-.252.644c-.168.168-.387.252-.658.252Zm5.646 8.932a6.106 6.106 0 0 1-1.764-.252c-.55-.168-.984-.373-1.302-.616l.56-1.064c.318.215.71.397 1.176.546.467.149.943.224 1.428.224.626 0 1.074-.089 1.344-.266.28-.177.42-.425.42-.742a.653.653 0 0 0-.252-.546 1.712 1.712 0 0 0-.672-.294 9.598 9.598 0 0 0-.91-.168 18.85 18.85 0 0 1-1.008-.196 4.5 4.5 0 0 1-.924-.336 1.82 1.82 0 0 1-.672-.602c-.168-.261-.252-.607-.252-1.036 0-.448.126-.84.378-1.176.252-.336.607-.593 1.064-.77.467-.187 1.018-.28 1.652-.28.486 0 .976.061 1.47.182.504.112.915.275 1.232.49l-.574 1.064a3.171 3.171 0 0 0-1.05-.462 4.842 4.842 0 0 0-1.092-.126c-.588 0-1.026.098-1.316.294-.289.187-.434.429-.434.728 0 .252.084.448.252.588.178.131.402.233.672.308.28.075.588.14.924.196.336.047.672.112 1.008.196.336.075.64.182.91.322.28.14.504.336.672.588.178.252.266.588.266 1.008a1.8 1.8 0 0 1-.392 1.162c-.261.327-.63.583-1.106.77-.476.177-1.045.266-1.708.266Zm7.714 0c-.747 0-1.325-.201-1.736-.602-.411-.401-.616-.975-.616-1.722v-6.804h1.344v6.748c0 .401.098.709.294.924.205.215.495.322.868.322.42 0 .77-.117 1.05-.35l.42.966a1.954 1.954 0 0 1-.742.392c-.28.084-.574.126-.882.126Zm-3.612-6.398v-1.106h4.732v1.106h-4.732Zm10.073 6.398c-.747 0-1.41-.163-1.988-.49a3.65 3.65 0 0 1-1.372-1.344c-.336-.579-.504-1.232-.504-1.96 0-.737.168-1.391.504-1.96a3.542 3.542 0 0 1 1.372-1.33c.578-.327 1.241-.49 1.988-.49.737 0 1.395.163 1.974.49a3.424 3.424 0 0 1 1.372 1.33c.336.56.504 1.213.504 1.96 0 .737-.168 1.391-.504 1.96a3.525 3.525 0 0 1-1.372 1.344c-.579.327-1.237.49-1.974.49Zm0-1.176c.476 0 .9-.107 1.274-.322.382-.215.681-.518.896-.91.214-.401.322-.863.322-1.386 0-.532-.108-.989-.322-1.372a2.281 2.281 0 0 0-.896-.91 2.508 2.508 0 0 0-1.274-.322c-.476 0-.901.107-1.274.322a2.396 2.396 0 0 0-.896.91c-.224.383-.336.84-.336 1.372 0 .523.112.985.336 1.386.224.392.522.695.896.91.373.215.798.322 1.274.322Zm5.989 1.092v-7.42h1.288v2.016l-.126-.504c.205-.513.55-.905 1.036-1.176.485-.271 1.082-.406 1.792-.406v1.302a1.058 1.058 0 0 0-.168-.014h-.14c-.719 0-1.288.215-1.708.644-.42.429-.63 1.05-.63 1.862V123h-1.344Zm6.549 2.8c-.355 0-.7-.061-1.036-.182a2.357 2.357 0 0 1-.868-.504l.574-1.008c.186.177.392.313.616.406.224.093.462.14.714.14.326 0 .597-.084.812-.252.214-.168.415-.467.602-.896l.462-1.022.14-.168 2.912-6.734h1.316l-3.598 8.162c-.215.523-.458.933-.728 1.232a2.204 2.204 0 0 1-.868.63 2.73 2.73 0 0 1-1.05.196Zm1.764-2.562-3.388-7.658h1.4l2.884 6.608-.896 1.05Z" fill="#fff"/><path opacity=".25" stroke="#fff" d="M500.5 65v48"/><path d="M620 81c-.347 0-.693 0-1.04.107l-4.293-8.667A6.664 6.664 0 0 0 610 61c-.347 0-.667 0-1.04.107l-4.347-8.667a6.478 6.478 0 0 0 2.054-4.773 6.668 6.668 0 0 0-11.381-4.714 6.668 6.668 0 0 0-1.953 4.714c0 1.893.774 3.573 2.027 4.773l-4.32 8.667C590.667 61 590.347 61 590 61a6.666 6.666 0 0 0-4.667 11.44l-4.293 8.667C580.693 81 580.347 81 580 81a6.666 6.666 0 1 0 6.667 6.667 6.604 6.604 0 0 0-2.027-4.774l4.32-8.666c.373.106.693.106 1.04.106.347 0 .667 0 1.04-.106l4.347 8.666a6.623 6.623 0 0 0-2.054 4.774 6.668 6.668 0 0 0 13.334 0A6.668 6.668 0 0 0 600 81c-.347 0-.693 0-1.04.107l-4.293-8.667c1.226-1.2 2-2.88 2-4.773a6.642 6.642 0 0 0-2-4.774l4.293-8.666c.347.106.693.106 1.04.106.347 0 .693 0 1.04-.106l4.293 8.666c-1.2 1.2-2 2.907-2 4.774A6.668 6.668 0 0 0 610 74.333c.347 0 .667 0 1.04-.106l4.347 8.666a6.623 6.623 0 0 0-2.054 4.774 6.668 6.668 0 0 0 13.334 0A6.668 6.668 0 0 0 620 81ZM557.914 123.112a5.677 5.677 0 0 1-2.086-.378 5.056 5.056 0 0 1-1.652-1.05 4.973 4.973 0 0 1-1.092-1.596 4.977 4.977 0 0 1-.392-1.988c0-.719.131-1.381.392-1.988a4.818 4.818 0 0 1 1.092-1.582 4.947 4.947 0 0 1 1.652-1.064 5.605 5.605 0 0 1 2.086-.378c.747 0 1.433.126 2.058.378a4.759 4.759 0 0 1 1.652 1.05c.476.448.84.975 1.092 1.582.262.607.392 1.274.392 2.002 0 .728-.13 1.395-.392 2.002a4.675 4.675 0 0 1-1.092 1.596 5.035 5.035 0 0 1-1.652 1.05 5.633 5.633 0 0 1-2.058.364Zm0-1.246c.542 0 1.041-.093 1.498-.28a3.54 3.54 0 0 0 2.002-1.988c.196-.457.294-.957.294-1.498s-.098-1.041-.294-1.498a3.454 3.454 0 0 0-.798-1.19 3.446 3.446 0 0 0-1.204-.798 3.917 3.917 0 0 0-1.498-.28c-.55 0-1.059.093-1.526.28a3.64 3.64 0 0 0-1.204.798 3.652 3.652 0 0 0-.812 1.19 3.94 3.94 0 0 0-.28 1.498c0 .541.094 1.041.28 1.498.196.457.467.859.812 1.204.346.336.747.597 1.204.784.467.187.976.28 1.526.28Zm7.418 1.134v-7.42h1.288v2.016l-.126-.504a2.282 2.282 0 0 1 1.036-1.176c.485-.271 1.083-.406 1.792-.406v1.302a1.058 1.058 0 0 0-.168-.014h-.14c-.719 0-1.288.215-1.708.644-.42.429-.63 1.05-.63 1.862V123h-1.344Zm9.106 2.8a6.792 6.792 0 0 1-1.988-.294c-.635-.187-1.153-.457-1.554-.812l.644-1.036c.345.299.77.532 1.274.7a4.738 4.738 0 0 0 1.582.266c.877 0 1.521-.205 1.932-.616.411-.411.616-1.036.616-1.876v-1.568l.14-1.47-.07-1.484v-2.03h1.274v6.412c0 1.307-.327 2.268-.98 2.884-.653.616-1.61.924-2.87.924Zm-.168-3.108c-.719 0-1.363-.149-1.932-.448a3.598 3.598 0 0 1-1.344-1.274c-.327-.541-.49-1.167-.49-1.876 0-.719.163-1.344.49-1.876a3.493 3.493 0 0 1 1.344-1.26c.569-.299 1.213-.448 1.932-.448.635 0 1.213.131 1.736.392.523.252.938.644 1.246 1.176.317.532.476 1.204.476 2.016 0 .803-.159 1.47-.476 2.002a3.031 3.031 0 0 1-1.246 1.204 3.831 3.831 0 0 1-1.736.392Zm.154-1.176c.495 0 .933-.103 1.316-.308.383-.205.681-.49.896-.854.224-.364.336-.784.336-1.26s-.112-.896-.336-1.26a2.162 2.162 0 0 0-.896-.84 2.744 2.744 0 0 0-1.316-.308c-.495 0-.938.103-1.33.308a2.254 2.254 0 0 0-.91.84 2.43 2.43 0 0 0-.322 1.26c0 .476.107.896.322 1.26.224.364.527.649.91.854.392.205.835.308 1.33.308ZM585.742 123v-1.568l-.07-.294v-2.674c0-.569-.168-1.008-.504-1.316-.327-.317-.821-.476-1.484-.476-.439 0-.868.075-1.288.224a3.21 3.21 0 0 0-1.064.574l-.56-1.008c.383-.308.84-.541 1.372-.7a5.68 5.68 0 0 1 1.694-.252c1.017 0 1.801.247 2.352.742.551.495.826 1.251.826 2.268V123h-1.274Zm-2.436.084c-.551 0-1.036-.093-1.456-.28-.411-.187-.728-.443-.952-.77a1.998 1.998 0 0 1-.336-1.134c0-.401.093-.765.28-1.092.196-.327.509-.588.938-.784.439-.196 1.027-.294 1.764-.294h2.352v.966H583.6c-.672 0-1.125.112-1.358.336-.233.224-.35.495-.35.812 0 .364.145.658.434.882.289.215.691.322 1.204.322.504 0 .943-.112 1.316-.336.383-.224.658-.551.826-.98l.266.924c-.177.439-.49.789-.938 1.05-.448.252-1.013.378-1.694.378Zm10.439-7.574c.607 0 1.139.117 1.596.35.467.233.831.588 1.092 1.064.262.476.392 1.078.392 1.806V123h-1.344v-4.116c0-.719-.177-1.26-.532-1.624-.345-.364-.835-.546-1.47-.546-.476 0-.891.093-1.246.28-.354.187-.63.462-.826.826-.186.364-.28.817-.28 1.358V123h-1.344v-7.42h1.288v2.002l-.21-.532a2.582 2.582 0 0 1 1.12-1.134c.504-.271 1.092-.406 1.764-.406Zm5.848 7.49v-7.42h1.344V123h-1.344Zm.672-8.848a.918.918 0 0 1-.658-.252.837.837 0 0 1-.252-.616c0-.252.084-.462.252-.63a.918.918 0 0 1 .658-.252c.261 0 .476.084.644.252a.774.774 0 0 1 .266.602.902.902 0 0 1-.252.644c-.168.168-.388.252-.658.252Zm2.804 8.848v-.868l4.76-5.908.266.462h-4.942v-1.106h6.02v.882l-4.76 5.894-.308-.462h5.18V123h-6.216Zm12.901 0v-1.568l-.07-.294v-2.674c0-.569-.168-1.008-.504-1.316-.327-.317-.822-.476-1.484-.476-.439 0-.868.075-1.288.224a3.21 3.21 0 0 0-1.064.574l-.56-1.008a3.97 3.97 0 0 1 1.372-.7 5.68 5.68 0 0 1 1.694-.252c1.017 0 1.801.247 2.352.742.55.495.826 1.251.826 2.268V123h-1.274Zm-2.436.084c-.551 0-1.036-.093-1.456-.28-.411-.187-.728-.443-.952-.77a1.998 1.998 0 0 1-.336-1.134c0-.401.093-.765.28-1.092.196-.327.508-.588.938-.784.438-.196 1.026-.294 1.764-.294h2.352v.966h-2.296c-.672 0-1.125.112-1.358.336-.234.224-.35.495-.35.812 0 .364.144.658.434.882.289.215.69.322 1.204.322.504 0 .942-.112 1.316-.336.382-.224.658-.551.826-.98l.266.924c-.178.439-.49.789-.938 1.05-.448.252-1.013.378-1.694.378Zm9.025 0c-.747 0-1.326-.201-1.736-.602-.411-.401-.616-.975-.616-1.722v-6.804h1.344v6.748c0 .401.098.709.294.924.205.215.494.322.868.322.42 0 .77-.117 1.05-.35l.42.966a1.961 1.961 0 0 1-.742.392c-.28.084-.574.126-.882.126Zm-3.612-6.398v-1.106h4.732v1.106h-4.732Zm7.141 6.314v-7.42h1.344V123h-1.344Zm.672-8.848a.918.918 0 0 1-.658-.252.837.837 0 0 1-.252-.616c0-.252.084-.462.252-.63a.918.918 0 0 1 .658-.252c.261 0 .476.084.644.252a.774.774 0 0 1 .266.602.902.902 0 0 1-.252.644c-.168.168-.388.252-.658.252Zm6.696 8.932c-.747 0-1.41-.163-1.988-.49a3.65 3.65 0 0 1-1.372-1.344c-.336-.579-.504-1.232-.504-1.96 0-.737.168-1.391.504-1.96a3.542 3.542 0 0 1 1.372-1.33c.578-.327 1.241-.49 1.988-.49.737 0 1.395.163 1.974.49a3.424 3.424 0 0 1 1.372 1.33c.336.56.504 1.213.504 1.96 0 .737-.168 1.391-.504 1.96a3.525 3.525 0 0 1-1.372 1.344c-.579.327-1.237.49-1.974.49Zm0-1.176c.476 0 .9-.107 1.274-.322.382-.215.681-.518.896-.91.214-.401.322-.863.322-1.386 0-.532-.108-.989-.322-1.372a2.281 2.281 0 0 0-.896-.91 2.508 2.508 0 0 0-1.274-.322c-.476 0-.901.107-1.274.322a2.396 2.396 0 0 0-.896.91c-.224.383-.336.84-.336 1.372 0 .523.112.985.336 1.386.224.392.522.695.896.91.373.215.798.322 1.274.322Zm9.951-6.398c.606 0 1.138.117 1.596.35.466.233.83.588 1.092 1.064.261.476.392 1.078.392 1.806V123h-1.344v-4.116c0-.719-.178-1.26-.532-1.624-.346-.364-.836-.546-1.47-.546-.476 0-.892.093-1.246.28-.355.187-.63.462-.826.826-.187.364-.28.817-.28 1.358V123h-1.344v-7.42h1.288v2.002l-.21-.532a2.577 2.577 0 0 1 1.12-1.134c.504-.271 1.092-.406 1.764-.406Zm-73.813 24.602a6.811 6.811 0 0 1-2.142-.336c-.682-.233-1.218-.532-1.61-.896l.518-1.092c.373.327.849.597 1.428.812.578.215 1.18.322 1.806.322.569 0 1.031-.065 1.386-.196.354-.131.616-.308.784-.532a1.31 1.31 0 0 0 .252-.784c0-.336-.112-.607-.336-.812a2.294 2.294 0 0 0-.854-.49 8.329 8.329 0 0 0-1.148-.336 23.08 23.08 0 0 1-1.274-.322 6.21 6.21 0 0 1-1.162-.49 2.403 2.403 0 0 1-.84-.784c-.215-.336-.322-.765-.322-1.288 0-.504.13-.966.392-1.386.27-.429.681-.77 1.232-1.022.56-.261 1.269-.392 2.128-.392.569 0 1.134.075 1.694.224.56.149 1.045.364 1.456.644l-.462 1.12a4.367 4.367 0 0 0-1.33-.602 5.02 5.02 0 0 0-1.358-.196c-.551 0-1.004.07-1.358.21-.355.14-.616.327-.784.56a1.36 1.36 0 0 0-.238.784c0 .345.107.621.322.826.224.205.508.369.854.49.354.121.742.233 1.162.336.42.093.84.201 1.26.322.429.121.816.28 1.162.476.354.196.639.457.854.784.214.327.322.747.322 1.26 0 .495-.136.957-.406 1.386-.271.42-.691.761-1.26 1.022-.56.252-1.27.378-2.128.378Zm8.471-.028c-.747 0-1.325-.201-1.736-.602-.411-.401-.616-.975-.616-1.722v-6.804h1.344v6.748c0 .401.098.709.294.924.205.215.495.322.868.322.42 0 .77-.117 1.05-.35l.42.966a1.954 1.954 0 0 1-.742.392c-.28.084-.574.126-.882.126Zm-3.612-6.398v-1.106h4.732v1.106h-4.732Zm7.141 6.314v-7.42h1.288v2.016l-.126-.504a2.282 2.282 0 0 1 1.036-1.176c.485-.271 1.083-.406 1.792-.406v1.302a1.058 1.058 0 0 0-.168-.014h-.14c-.719 0-1.288.215-1.708.644-.42.429-.63 1.05-.63 1.862V140h-1.344Zm9.144.084c-.635 0-1.195-.117-1.68-.35a2.566 2.566 0 0 1-1.12-1.064c-.261-.485-.392-1.092-.392-1.82v-4.27h1.344v4.116c0 .728.173 1.274.518 1.638.355.364.849.546 1.484.546.467 0 .873-.093 1.218-.28.345-.196.611-.476.798-.84.187-.373.28-.821.28-1.344v-3.836h1.344V140h-1.274v-2.002l.21.532a2.6 2.6 0 0 1-1.092 1.148 3.3 3.3 0 0 1-1.638.406Zm9.867 0c-.756 0-1.433-.163-2.03-.49a3.624 3.624 0 0 1-1.386-1.344c-.336-.569-.504-1.223-.504-1.96 0-.737.168-1.391.504-1.96a3.519 3.519 0 0 1 1.386-1.33c.597-.327 1.274-.49 2.03-.49.672 0 1.269.135 1.792.406.532.261.942.653 1.232 1.176l-1.022.658a2.219 2.219 0 0 0-.896-.798 2.423 2.423 0 0 0-1.12-.266c-.486 0-.92.107-1.302.322a2.368 2.368 0 0 0-.91.91c-.224.383-.336.84-.336 1.372 0 .532.112.994.336 1.386.224.392.527.695.91.91.382.215.816.322 1.302.322a2.53 2.53 0 0 0 1.12-.252c.354-.177.653-.448.896-.812l1.022.644c-.29.513-.7.91-1.232 1.19-.523.271-1.12.406-1.792.406Zm7.687 0c-.746 0-1.325-.201-1.736-.602-.41-.401-.616-.975-.616-1.722v-6.804h1.344v6.748c0 .401.098.709.294.924.206.215.495.322.868.322.42 0 .77-.117 1.05-.35l.42.966a1.946 1.946 0 0 1-.742.392c-.28.084-.574.126-.882.126Zm-3.612-6.398v-1.106h4.732v1.106h-4.732Zm10.263 6.398c-.634 0-1.194-.117-1.68-.35a2.566 2.566 0 0 1-1.12-1.064c-.261-.485-.392-1.092-.392-1.82v-4.27h1.344v4.116c0 .728.173 1.274.518 1.638.355.364.85.546 1.484.546.467 0 .873-.093 1.218-.28.346-.196.612-.476.798-.84.187-.373.28-.821.28-1.344v-3.836h1.344V140h-1.274v-2.002l.21.532a2.589 2.589 0 0 1-1.092 1.148 3.3 3.3 0 0 1-1.638.406Zm6.633-.084v-7.42h1.288v2.016l-.126-.504a2.282 2.282 0 0 1 1.036-1.176c.485-.271 1.083-.406 1.792-.406v1.302a1.058 1.058 0 0 0-.168-.014h-.14c-.719 0-1.288.215-1.708.644-.42.429-.63 1.05-.63 1.862V140h-1.344Zm9.162.084c-.793 0-1.493-.163-2.1-.49a3.6 3.6 0 0 1-1.4-1.344c-.327-.569-.49-1.223-.49-1.96 0-.737.159-1.391.476-1.96a3.503 3.503 0 0 1 1.33-1.33c.569-.327 1.209-.49 1.918-.49.719 0 1.353.159 1.904.476.551.317.98.765 1.288 1.344.317.569.476 1.237.476 2.002 0 .056-.005.121-.014.196 0 .075-.005.145-.014.21h-6.314v-.966h5.614l-.546.336a2.5 2.5 0 0 0-.294-1.274 2.181 2.181 0 0 0-.854-.868c-.355-.215-.77-.322-1.246-.322-.467 0-.882.107-1.246.322a2.155 2.155 0 0 0-.854.882 2.633 2.633 0 0 0-.308 1.288v.224c0 .495.112.938.336 1.33.233.383.555.681.966.896.411.215.882.322 1.414.322.439 0 .835-.075 1.19-.224.364-.149.681-.373.952-.672l.742.868a3.237 3.237 0 0 1-1.26.896 4.316 4.316 0 0 1-1.666.308Z" fill="#fff"/><path opacity=".25" stroke="#fff" d="M700.5 65v48"/><path d="M800 46c5.893 0 10.667 4.773 10.667 10.667 0 5.893-4.774 10.666-10.667 10.666s-10.667-4.773-10.667-10.666C789.333 50.773 794.107 46 800 46Zm10.667 28.107c0 2.826-.747 9.413-5.84 16.773L802.667 78l2.506-5.013c-1.653-.187-3.386-.32-5.173-.32s-3.52.133-5.173.32L797.333 78l-2.16 12.88c-5.093-7.36-5.84-13.947-5.84-16.773-6.373 1.866-10.666 5.226-10.666 9.226V94h42.666V83.333c0-4-4.266-7.36-10.666-9.226ZM746.019 123v-9.8h1.148l4.396 7.406h-.616l4.34-7.406h1.148l.014 9.8h-1.344l-.014-7.686h.322l-3.864 6.496h-.644l-3.892-6.496h.35V123h-1.344Zm13.455 0v-7.42h1.344V123h-1.344Zm.672-8.848a.92.92 0 0 1-.658-.252.837.837 0 0 1-.252-.616c0-.252.084-.462.252-.63a.92.92 0 0 1 .658-.252c.261 0 .476.084.644.252a.774.774 0 0 1 .266.602.902.902 0 0 1-.252.644c-.168.168-.387.252-.658.252Zm7.48 1.358c.607 0 1.139.117 1.596.35.467.233.831.588 1.092 1.064.261.476.392 1.078.392 1.806V123h-1.344v-4.116c0-.719-.177-1.26-.532-1.624-.345-.364-.835-.546-1.47-.546-.476 0-.891.093-1.246.28-.355.187-.63.462-.826.826-.187.364-.28.817-.28 1.358V123h-1.344v-7.42h1.288v2.002l-.21-.532a2.582 2.582 0 0 1 1.12-1.134c.504-.271 1.092-.406 1.764-.406Zm5.847 7.49v-7.42h1.344V123h-1.344Zm.672-8.848a.922.922 0 0 1-.658-.252.837.837 0 0 1-.252-.616c0-.252.084-.462.252-.63a.922.922 0 0 1 .658-.252c.262 0 .476.084.644.252a.77.77 0 0 1 .266.602.902.902 0 0 1-.252.644c-.168.168-.387.252-.658.252Zm5.646 8.932a6.106 6.106 0 0 1-1.764-.252c-.55-.168-.984-.373-1.302-.616l.56-1.064c.318.215.71.397 1.176.546.467.149.943.224 1.428.224.626 0 1.074-.089 1.344-.266.28-.177.42-.425.42-.742a.653.653 0 0 0-.252-.546 1.712 1.712 0 0 0-.672-.294 9.598 9.598 0 0 0-.91-.168 18.85 18.85 0 0 1-1.008-.196 4.5 4.5 0 0 1-.924-.336 1.82 1.82 0 0 1-.672-.602c-.168-.261-.252-.607-.252-1.036 0-.448.126-.84.378-1.176.252-.336.607-.593 1.064-.77.467-.187 1.018-.28 1.652-.28.486 0 .976.061 1.47.182.504.112.915.275 1.232.49l-.574 1.064a3.171 3.171 0 0 0-1.05-.462 4.842 4.842 0 0 0-1.092-.126c-.588 0-1.026.098-1.316.294-.289.187-.434.429-.434.728 0 .252.084.448.252.588.178.131.402.233.672.308.28.075.588.14.924.196.336.047.672.112 1.008.196.336.075.64.182.91.322.28.14.504.336.672.588.178.252.266.588.266 1.008a1.8 1.8 0 0 1-.392 1.162c-.261.327-.63.583-1.106.77-.476.177-1.045.266-1.708.266Zm7.714 0c-.747 0-1.325-.201-1.736-.602-.411-.401-.616-.975-.616-1.722v-6.804h1.344v6.748c0 .401.098.709.294.924.206.215.495.322.868.322.42 0 .77-.117 1.05-.35l.42.966a1.946 1.946 0 0 1-.742.392c-.28.084-.574.126-.882.126Zm-3.612-6.398v-1.106h4.732v1.106h-4.732Zm10.199 6.398c-.793 0-1.493-.163-2.1-.49a3.6 3.6 0 0 1-1.4-1.344c-.327-.569-.49-1.223-.49-1.96 0-.737.159-1.391.476-1.96a3.503 3.503 0 0 1 1.33-1.33c.569-.327 1.209-.49 1.918-.49.719 0 1.353.159 1.904.476.551.317.98.765 1.288 1.344.317.569.476 1.237.476 2.002 0 .056-.005.121-.014.196 0 .075-.005.145-.014.21h-6.314v-.966h5.614l-.546.336a2.5 2.5 0 0 0-.294-1.274 2.181 2.181 0 0 0-.854-.868c-.355-.215-.77-.322-1.246-.322-.467 0-.882.107-1.246.322a2.155 2.155 0 0 0-.854.882 2.633 2.633 0 0 0-.308 1.288v.224c0 .495.112.938.336 1.33.233.383.555.681.966.896.411.215.882.322 1.414.322.439 0 .835-.075 1.19-.224.364-.149.681-.373.952-.672l.742.868a3.237 3.237 0 0 1-1.26.896 4.316 4.316 0 0 1-1.666.308Zm5.548-.084v-7.42h1.288v2.016l-.126-.504a2.286 2.286 0 0 1 1.036-1.176c.486-.271 1.083-.406 1.792-.406v1.302a1.058 1.058 0 0 0-.168-.014h-.14c-.718 0-1.288.215-1.708.644-.42.429-.63 1.05-.63 1.862V123h-1.344Zm10.258 0v-9.8h3.822c.859 0 1.591.135 2.198.406s1.073.663 1.4 1.176c.327.513.49 1.125.49 1.834 0 .709-.163 1.321-.49 1.834-.327.504-.793.896-1.4 1.176-.607.271-1.339.406-2.198.406h-3.052l.63-.658V123h-1.4Zm1.4-3.486-.63-.7h3.01c.896 0 1.573-.191 2.03-.574.467-.383.7-.924.7-1.624 0-.7-.233-1.241-.7-1.624-.457-.383-1.134-.574-2.03-.574h-3.01l.63-.7v5.796Zm8.514 3.486v-7.42h1.288v2.016l-.126-.504a2.286 2.286 0 0 1 1.036-1.176c.486-.271 1.083-.406 1.792-.406v1.302a1.058 1.058 0 0 0-.168-.014h-.14c-.718 0-1.288.215-1.708.644-.42.429-.63 1.05-.63 1.862V123h-1.344Zm9.036.084c-.746 0-1.409-.163-1.988-.49a3.657 3.657 0 0 1-1.372-1.344c-.336-.579-.504-1.232-.504-1.96 0-.737.168-1.391.504-1.96a3.55 3.55 0 0 1 1.372-1.33c.579-.327 1.242-.49 1.988-.49.738 0 1.396.163 1.974.49a3.418 3.418 0 0 1 1.372 1.33c.336.56.504 1.213.504 1.96 0 .737-.168 1.391-.504 1.96a3.518 3.518 0 0 1-1.372 1.344c-.578.327-1.236.49-1.974.49Zm0-1.176c.476 0 .901-.107 1.274-.322.383-.215.682-.518.896-.91.215-.401.322-.863.322-1.386 0-.532-.107-.989-.322-1.372a2.268 2.268 0 0 0-.896-.91 2.505 2.505 0 0 0-1.274-.322c-.476 0-.9.107-1.274.322a2.403 2.403 0 0 0-.896.91c-.224.383-.336.84-.336 1.372 0 .523.112.985.336 1.386.224.392.523.695.896.91.374.215.798.322 1.274.322Zm6.185 1.092v-8.078c0-.728.21-1.307.63-1.736.429-.439 1.036-.658 1.82-.658.289 0 .565.037.826.112.271.065.499.173.686.322l-.406 1.022a1.46 1.46 0 0 0-.476-.252 1.613 1.613 0 0 0-.56-.098c-.392 0-.691.112-.896.336-.205.215-.308.537-.308.966v.994l.028.616V123h-1.344Zm-1.26-6.314v-1.106h4.732v1.106h-4.732Zm6.006 6.314v-7.42h1.344V123h-1.344Zm.672-8.848a.92.92 0 0 1-.658-.252.837.837 0 0 1-.252-.616c0-.252.084-.462.252-.63a.92.92 0 0 1 .658-.252c.261 0 .476.084.644.252a.774.774 0 0 1 .266.602.902.902 0 0 1-.252.644c-.168.168-.387.252-.658.252Zm3.512 8.848v-10.388h1.344V123h-1.344Zm7.494.084c-.793 0-1.493-.163-2.1-.49a3.6 3.6 0 0 1-1.4-1.344c-.327-.569-.49-1.223-.49-1.96 0-.737.159-1.391.476-1.96a3.503 3.503 0 0 1 1.33-1.33c.569-.327 1.209-.49 1.918-.49.719 0 1.353.159 1.904.476.551.317.98.765 1.288 1.344.317.569.476 1.237.476 2.002 0 .056-.005.121-.014.196 0 .075-.005.145-.014.21h-6.314v-.966h5.614l-.546.336a2.5 2.5 0 0 0-.294-1.274 2.181 2.181 0 0 0-.854-.868c-.355-.215-.77-.322-1.246-.322-.467 0-.882.107-1.246.322a2.155 2.155 0 0 0-.854.882 2.633 2.633 0 0 0-.308 1.288v.224c0 .495.112.938.336 1.33.233.383.555.681.966.896.411.215.882.322 1.414.322.439 0 .835-.075 1.19-.224.364-.149.681-.373.952-.672l.742.868a3.237 3.237 0 0 1-1.26.896 4.316 4.316 0 0 1-1.666.308ZM412 218.667a6.662 6.662 0 0 0 4.714-1.953 6.665 6.665 0 0 0 0-9.428A6.668 6.668 0 1 0 412 218.667ZM392 216a8 8 0 1 0 0-16 8 8 0 0 0 0 16Zm20 8c-4.88 0-14.667 2.453-14.667 7.333v6h29.334v-6c0-4.88-9.787-7.333-14.667-7.333Zm-20-2.667c-6.213 0-18.667 3.12-18.667 9.334v6.666H392v-6c0-2.266.88-6.24 6.32-9.253-2.32-.48-4.56-.747-6.32-.747ZM368.77 260.428h5.04v1.19h-5.04v-1.19Zm.126 4.354h5.712V266h-7.112v-9.8h6.916v1.218h-5.516v7.364Zm11.202 1.302c-.756 0-1.433-.163-2.03-.49a3.624 3.624 0 0 1-1.386-1.344c-.336-.569-.504-1.223-.504-1.96 0-.737.168-1.391.504-1.96a3.519 3.519 0 0 1 1.386-1.33c.597-.327 1.274-.49 2.03-.49.672 0 1.269.135 1.792.406.532.261.942.653 1.232 1.176l-1.022.658a2.219 2.219 0 0 0-.896-.798 2.423 2.423 0 0 0-1.12-.266c-.486 0-.92.107-1.302.322a2.368 2.368 0 0 0-.91.91c-.224.383-.336.84-.336 1.372 0 .532.112.994.336 1.386.224.392.527.695.91.91.382.215.816.322 1.302.322a2.53 2.53 0 0 0 1.12-.252c.354-.177.653-.448.896-.812l1.022.644c-.29.513-.7.91-1.232 1.19-.523.271-1.12.406-1.792.406Zm8.91-7.574c.607 0 1.139.117 1.596.35.467.233.831.588 1.092 1.064.261.476.392 1.078.392 1.806V266h-1.344v-4.116c0-.719-.177-1.26-.532-1.624-.345-.364-.835-.546-1.47-.546-.476 0-.891.093-1.246.28-.355.187-.63.462-.826.826-.187.364-.28.817-.28 1.358V266h-1.344v-10.388h1.344v4.97l-.266-.532a2.582 2.582 0 0 1 1.12-1.134c.504-.271 1.092-.406 1.764-.406Zm9.151 7.574c-.793 0-1.493-.163-2.1-.49a3.6 3.6 0 0 1-1.4-1.344c-.326-.569-.49-1.223-.49-1.96 0-.737.159-1.391.476-1.96a3.503 3.503 0 0 1 1.33-1.33 3.784 3.784 0 0 1 1.918-.49c.719 0 1.354.159 1.904.476.551.317.98.765 1.288 1.344.318.569.476 1.237.476 2.002 0 .056-.004.121-.014.196 0 .075-.004.145-.014.21h-6.314v-.966h5.614l-.546.336a2.48 2.48 0 0 0-.294-1.274 2.181 2.181 0 0 0-.854-.868c-.354-.215-.77-.322-1.246-.322-.466 0-.882.107-1.246.322a2.161 2.161 0 0 0-.854.882 2.633 2.633 0 0 0-.308 1.288v.224c0 .495.112.938.336 1.33.234.383.556.681.966.896.411.215.882.322 1.414.322.439 0 .836-.075 1.19-.224.364-.149.682-.373.952-.672l.742.868a3.237 3.237 0 0 1-1.26.896 4.312 4.312 0 0 1-1.666.308Zm5.549-.084v-10.388h1.344V266h-1.344Zm7.368.084c-.747 0-1.41-.163-1.988-.49a3.65 3.65 0 0 1-1.372-1.344c-.336-.579-.504-1.232-.504-1.96 0-.737.168-1.391.504-1.96a3.542 3.542 0 0 1 1.372-1.33c.578-.327 1.241-.49 1.988-.49.737 0 1.395.163 1.974.49a3.424 3.424 0 0 1 1.372 1.33c.336.56.504 1.213.504 1.96 0 .737-.168 1.391-.504 1.96a3.525 3.525 0 0 1-1.372 1.344c-.579.327-1.237.49-1.974.49Zm0-1.176c.476 0 .9-.107 1.274-.322.382-.215.681-.518.896-.91.214-.401.322-.863.322-1.386 0-.532-.108-.989-.322-1.372a2.281 2.281 0 0 0-.896-.91 2.508 2.508 0 0 0-1.274-.322c-.476 0-.901.107-1.274.322a2.396 2.396 0 0 0-.896.91c-.224.383-.336.84-.336 1.372 0 .523.112.985.336 1.386.224.392.522.695.896.91.373.215.798.322 1.274.322Zm9.95-6.398c.607 0 1.139.117 1.596.35.467.233.831.588 1.092 1.064.262.476.392 1.078.392 1.806V266h-1.344v-4.116c0-.719-.177-1.26-.532-1.624-.345-.364-.835-.546-1.47-.546-.476 0-.891.093-1.246.28-.354.187-.63.462-.826.826-.186.364-.28.817-.28 1.358V266h-1.344v-7.42h1.288v2.002l-.21-.532a2.582 2.582 0 0 1 1.12-1.134c.504-.271 1.092-.406 1.764-.406ZM431.11 266v-9.8h1.4v9.8h-1.4Z" fill="#fff"/><path opacity=".25" stroke="#fff" d="M500.5 208v31"/><path fill-rule="evenodd" clip-rule="evenodd" d="M571 203.8c5.174.287 9.34 1.167 11.967 2.961 2.762 1.991 4.476 4.265 4.829 6.91.237.814.287 8.507.285 12.996L600.144 233l12.22-6.098-.16-11.883c.086-6.124-1.605-12.033-5.449-17.677-2.669-3.164-5.182-6.991-9.498-9.503-.912-.71-2.499-.99-4.887-.76-2.206.209-3.905.724-5.268 1.447 6.796 2.757 12.213 6.732 15.706 12.4 2.094 3.609 3.463 7.423 3.733 11.547l.145 11.684-3.67 2.087-.204-11.985c-.436-5.661-2.33-10.058-5.325-13.389-2.162-2.562-5.62-5.081-9.697-7.055-1.736-.827-3.876-1.072-6.028-.565-2.101.513-3.931 1.233-5.518 2.138 6.27 1.201 11.911 3.57 14.719 6.24 3.369 3.366 5.824 6.827 6.202 10.504.222 1.537.252 9.249.287 13.952l-3.865-1.855.014-10.431c-.417-3.194-1.946-5.924-4.185-8.364-1.281-1.393-5.097-3.748-8.252-4.829-3.788-1.537-7.616.564-10.164 3.195Z" fill="#fff"/><path fill-rule="evenodd" clip-rule="evenodd" d="M629.285 203.8c-5.171.287-9.34 1.167-11.967 2.961-2.763 1.991-4.476 4.265-4.829 6.91-.237.814-.127 8.742-.125 13.231L600.144 233l-12.063-6.333v-11.648c-.086-6.124 1.607-12.033 5.45-17.677 2.668-3.164 5.184-6.991 9.497-9.503.912-.71 2.499-.99 4.887-.76 2.206.209 3.905.724 5.268 1.447-6.794 2.757-12.213 6.732-15.706 12.4-2.094 3.609-3.462 7.423-3.733 11.547l-.157 11.756 3.865 1.855.021-11.825c.436-5.661 2.33-10.058 5.325-13.389 2.162-2.562 5.62-5.081 9.697-7.055 1.736-.827 3.878-1.072 6.027-.565 2.102.513 3.932 1.233 5.519 2.138-6.27 1.201-11.911 3.57-14.719 6.24-3.369 3.366-5.824 6.827-6.202 10.504-.222 1.537-.069 9.407-.104 14.112l3.67-2.087v-10.359c.415-3.194 1.944-5.924 4.183-8.364 1.281-1.393 5.097-3.748 8.252-4.829 3.788-1.537 7.616.564 10.164 3.195Z" fill="#fff"/><path d="M583.222 266v-9.8h1.4v8.582h5.306V266h-6.706Zm11.479.084c-.747 0-1.41-.163-1.988-.49a3.65 3.65 0 0 1-1.372-1.344c-.336-.579-.504-1.232-.504-1.96 0-.737.168-1.391.504-1.96a3.542 3.542 0 0 1 1.372-1.33c.578-.327 1.241-.49 1.988-.49.737 0 1.395.163 1.974.49a3.424 3.424 0 0 1 1.372 1.33c.336.56.504 1.213.504 1.96 0 .737-.168 1.391-.504 1.96a3.525 3.525 0 0 1-1.372 1.344c-.579.327-1.237.49-1.974.49Zm0-1.176c.476 0 .9-.107 1.274-.322.382-.215.681-.518.896-.91.214-.401.322-.863.322-1.386 0-.532-.108-.989-.322-1.372a2.281 2.281 0 0 0-.896-.91 2.508 2.508 0 0 0-1.274-.322c-.476 0-.901.107-1.274.322a2.396 2.396 0 0 0-.896.91c-.224.383-.336.84-.336 1.372 0 .523.112.985.336 1.386.224.392.522.695.896.91.373.215.798.322 1.274.322Zm9.236 3.892a6.792 6.792 0 0 1-1.988-.294c-.634-.187-1.152-.457-1.554-.812l.644-1.036c.346.299.77.532 1.274.7a4.743 4.743 0 0 0 1.582.266c.878 0 1.522-.205 1.932-.616.411-.411.616-1.036.616-1.876v-1.568l.14-1.47-.07-1.484v-2.03h1.274v6.412c0 1.307-.326 2.268-.98 2.884-.653.616-1.61.924-2.87.924Zm-.168-3.108c-.718 0-1.362-.149-1.932-.448a3.598 3.598 0 0 1-1.344-1.274c-.326-.541-.49-1.167-.49-1.876 0-.719.164-1.344.49-1.876a3.493 3.493 0 0 1 1.344-1.26c.57-.299 1.214-.448 1.932-.448.635 0 1.214.131 1.736.392.523.252.938.644 1.246 1.176.318.532.476 1.204.476 2.016 0 .803-.158 1.47-.476 2.002a3.031 3.031 0 0 1-1.246 1.204 3.828 3.828 0 0 1-1.736.392Zm.154-1.176c.495 0 .934-.103 1.316-.308.383-.205.682-.49.896-.854.224-.364.336-.784.336-1.26s-.112-.896-.336-1.26a2.156 2.156 0 0 0-.896-.84 2.741 2.741 0 0 0-1.316-.308c-.494 0-.938.103-1.33.308a2.26 2.26 0 0 0-.91.84 2.44 2.44 0 0 0-.322 1.26c0 .476.108.896.322 1.26.224.364.528.649.91.854.392.205.836.308 1.33.308Zm9.89 1.568c-.746 0-1.409-.163-1.988-.49a3.657 3.657 0 0 1-1.372-1.344c-.336-.579-.504-1.232-.504-1.96 0-.737.168-1.391.504-1.96a3.55 3.55 0 0 1 1.372-1.33c.579-.327 1.242-.49 1.988-.49.738 0 1.396.163 1.974.49a3.418 3.418 0 0 1 1.372 1.33c.336.56.504 1.213.504 1.96 0 .737-.168 1.391-.504 1.96a3.518 3.518 0 0 1-1.372 1.344c-.578.327-1.236.49-1.974.49Zm0-1.176c.476 0 .901-.107 1.274-.322.383-.215.682-.518.896-.91.215-.401.322-.863.322-1.386 0-.532-.107-.989-.322-1.372a2.268 2.268 0 0 0-.896-.91 2.505 2.505 0 0 0-1.274-.322c-.476 0-.9.107-1.274.322a2.403 2.403 0 0 0-.896.91c-.224.383-.336.84-.336 1.372 0 .523.112.985.336 1.386.224.392.523.695.896.91.374.215.798.322 1.274.322Z" fill="#fff"/><path d="M0 299h1000v116c0 5.523-4.477 10-10 10H10c-5.523 0-10-4.477-10-10V299Z" fill="#49A85E"/><path d="M75.134 328.9h2.916v12.6h-2.916v-12.6Zm-5.724 12.6h-2.916v-12.6h2.916v12.6Zm5.94-5.166h-6.156v-2.466h6.156v2.466Zm9.21 5.31c-.805 0-1.525-.156-2.16-.468a3.335 3.335 0 0 1-1.459-1.422c-.348-.648-.522-1.47-.522-2.466v-5.472h2.808v5.058c0 .804.168 1.398.504 1.782.348.372.834.558 1.458.558.432 0 .816-.09 1.152-.27.336-.192.6-.48.792-.864.192-.396.288-.888.288-1.476v-4.788h2.808v9.684h-2.664v-2.664l.486.774a3.36 3.36 0 0 1-1.44 1.53 4.259 4.259 0 0 1-2.052.504Zm20.313-9.972c.768 0 1.446.156 2.034.468.6.3 1.068.768 1.404 1.404.348.624.522 1.428.522 2.412v5.544h-2.808v-5.112c0-.78-.162-1.356-.486-1.728-.324-.372-.78-.558-1.368-.558-.408 0-.774.096-1.098.288a1.82 1.82 0 0 0-.756.828c-.18.372-.27.846-.27 1.422v4.86h-2.808v-5.112c0-.78-.163-1.356-.487-1.728-.311-.372-.761-.558-1.35-.558-.407 0-.773.096-1.097.288a1.82 1.82 0 0 0-.757.828c-.18.372-.27.846-.27 1.422v4.86H92.47v-9.684h2.683v2.646l-.505-.774c.337-.66.81-1.158 1.422-1.494.625-.348 1.333-.522 2.125-.522.888 0 1.662.228 2.322.684.672.444 1.116 1.128 1.332 2.052l-.99-.27a3.891 3.891 0 0 1 1.548-1.8c.72-.444 1.542-.666 2.466-.666Zm12.056 9.828v-1.89l-.18-.414v-3.384c0-.6-.186-1.068-.558-1.404-.36-.336-.918-.504-1.674-.504a4.81 4.81 0 0 0-1.53.252 3.904 3.904 0 0 0-1.26.648l-1.008-1.962c.528-.372 1.164-.66 1.908-.864a8.54 8.54 0 0 1 2.268-.306c1.476 0 2.622.348 3.438 1.044.816.696 1.224 1.782 1.224 3.258v5.526h-2.628Zm-2.952.144c-.756 0-1.404-.126-1.944-.378-.54-.264-.954-.618-1.242-1.062a2.686 2.686 0 0 1-.432-1.494c0-.576.138-1.08.414-1.512.288-.432.738-.768 1.35-1.008.612-.252 1.41-.378 2.394-.378h2.574v1.638h-2.268c-.66 0-1.116.108-1.368.324-.24.216-.36.486-.36.81 0 .36.138.648.414.864.288.204.678.306 1.17.306.468 0 .888-.108 1.26-.324.372-.228.642-.558.81-.99l.432 1.296c-.204.624-.576 1.098-1.116 1.422-.54.324-1.236.486-2.088.486Zm13.648-9.972c.768 0 1.452.156 2.052.468.612.3 1.092.768 1.44 1.404.348.624.522 1.428.522 2.412v5.544h-2.808v-5.112c0-.78-.174-1.356-.522-1.728-.336-.372-.816-.558-1.44-.558-.444 0-.846.096-1.206.288-.348.18-.624.462-.828.846-.192.384-.288.876-.288 1.476v4.788h-2.808v-9.684h2.682v2.682l-.504-.81a3.587 3.587 0 0 1 1.494-1.494c.648-.348 1.386-.522 2.214-.522Zm11.135 9.828v-12.6h5.454c1.128 0 2.1.186 2.916.558.816.36 1.446.882 1.89 1.566.444.684.666 1.5.666 2.448 0 .936-.222 1.746-.666 2.43-.444.672-1.074 1.188-1.89 1.548-.816.36-1.788.54-2.916.54h-3.834l1.296-1.278v4.788h-2.916Zm8.01 0-3.15-4.572h3.114l3.186 4.572h-3.15Zm-5.094-4.464-1.296-1.368h3.672c.9 0 1.572-.192 2.016-.576.444-.396.666-.936.666-1.62 0-.696-.222-1.236-.666-1.62-.444-.384-1.116-.576-2.016-.576h-3.672l1.296-1.386v7.146Zm14.568 4.608c-1.104 0-2.076-.216-2.916-.648-.828-.432-1.47-1.02-1.926-1.764-.456-.756-.684-1.614-.684-2.574 0-.972.222-1.83.666-2.574a4.764 4.764 0 0 1 1.854-1.764c.78-.432 1.662-.648 2.646-.648.948 0 1.8.204 2.556.612a4.422 4.422 0 0 1 1.818 1.728c.444.744.666 1.638.666 2.682 0 .108-.006.234-.018.378a42.22 42.22 0 0 1-.036.378h-7.866v-1.638h6.39l-1.08.486c0-.504-.102-.942-.306-1.314a2.171 2.171 0 0 0-.846-.864c-.36-.216-.78-.324-1.26-.324s-.906.108-1.278.324c-.36.204-.642.498-.846.882-.204.372-.306.816-.306 1.332v.432c0 .528.114.996.342 1.404.24.396.57.702.99.918.432.204.936.306 1.512.306.516 0 .966-.078 1.35-.234.396-.156.756-.39 1.08-.702l1.494 1.62a4.437 4.437 0 0 1-1.674 1.17c-.672.264-1.446.396-2.322.396Zm9.448 0a9.834 9.834 0 0 1-2.394-.288c-.756-.204-1.356-.456-1.8-.756l.936-2.016c.444.276.966.504 1.566.684a6.782 6.782 0 0 0 1.8.252c.648 0 1.104-.078 1.368-.234.276-.156.414-.372.414-.648 0-.228-.108-.396-.324-.504-.204-.12-.48-.21-.828-.27-.348-.06-.732-.12-1.152-.18-.408-.06-.822-.138-1.242-.234a4.462 4.462 0 0 1-1.152-.468 2.429 2.429 0 0 1-.846-.828c-.204-.348-.306-.798-.306-1.35 0-.612.174-1.152.522-1.62.36-.468.876-.834 1.548-1.098.672-.276 1.476-.414 2.412-.414.66 0 1.332.072 2.016.216.684.144 1.254.354 1.71.63l-.936 1.998a4.553 4.553 0 0 0-1.422-.558 6.075 6.075 0 0 0-1.368-.162c-.624 0-1.08.084-1.368.252-.288.168-.432.384-.432.648 0 .24.102.42.306.54.216.12.498.216.846.288.348.072.726.138 1.134.198.42.048.84.126 1.26.234.42.108.798.264 1.134.468.348.192.63.462.846.81.216.336.324.78.324 1.332 0 .6-.18 1.134-.54 1.602-.36.456-.882.816-1.566 1.08-.672.264-1.494.396-2.466.396Zm10.552 0c-1.032 0-1.95-.216-2.754-.648a5.044 5.044 0 0 1-1.89-1.764c-.456-.756-.684-1.614-.684-2.574 0-.972.228-1.83.684-2.574a4.861 4.861 0 0 1 1.89-1.764c.804-.432 1.722-.648 2.754-.648 1.02 0 1.932.216 2.736.648a4.743 4.743 0 0 1 1.89 1.746c.456.744.684 1.608.684 2.592 0 .96-.228 1.818-.684 2.574a4.872 4.872 0 0 1-1.89 1.764c-.804.432-1.716.648-2.736.648Zm0-2.304c.468 0 .888-.108 1.26-.324.372-.216.666-.522.882-.918.216-.408.324-.888.324-1.44 0-.564-.108-1.044-.324-1.44a2.322 2.322 0 0 0-.882-.918 2.463 2.463 0 0 0-1.26-.324c-.468 0-.888.108-1.26.324a2.45 2.45 0 0 0-.9.918c-.216.396-.324.876-.324 1.44 0 .552.108 1.032.324 1.44.228.396.528.702.9.918.372.216.792.324 1.26.324Zm10.913 2.304c-.804 0-1.524-.156-2.16-.468a3.335 3.335 0 0 1-1.458-1.422c-.348-.648-.522-1.47-.522-2.466v-5.472h2.808v5.058c0 .804.168 1.398.504 1.782.348.372.834.558 1.458.558.432 0 .816-.09 1.152-.27.336-.192.6-.48.792-.864.192-.396.288-.888.288-1.476v-4.788h2.808v9.684h-2.664v-2.664l.486.774a3.36 3.36 0 0 1-1.44 1.53 4.259 4.259 0 0 1-2.052.504Zm7.911-.144v-9.684h2.682v2.736l-.378-.792c.288-.684.75-1.2 1.386-1.548.636-.36 1.41-.54 2.322-.54v2.592a3.287 3.287 0 0 0-.324-.018 2.47 2.47 0 0 0-.306-.018c-.768 0-1.392.222-1.872.666-.468.432-.702 1.11-.702 2.034v4.572h-2.808Zm11.932.144c-1.044 0-1.974-.21-2.79-.63a4.929 4.929 0 0 1-1.926-1.782c-.456-.756-.684-1.614-.684-2.574 0-.972.228-1.83.684-2.574a4.8 4.8 0 0 1 1.926-1.764c.816-.432 1.746-.648 2.79-.648 1.02 0 1.908.216 2.664.648a3.849 3.849 0 0 1 1.674 1.818l-2.178 1.17c-.252-.456-.57-.792-.954-1.008a2.394 2.394 0 0 0-1.224-.324c-.48 0-.912.108-1.296.324-.384.216-.69.522-.918.918-.216.396-.324.876-.324 1.44s.108 1.044.324 1.44c.228.396.534.702.918.918.384.216.816.324 1.296.324.444 0 .852-.102 1.224-.306.384-.216.702-.558.954-1.026l2.178 1.188a3.961 3.961 0 0 1-1.674 1.818c-.756.42-1.644.63-2.664.63Zm10.277 0c-1.104 0-2.076-.216-2.916-.648-.828-.432-1.47-1.02-1.926-1.764-.456-.756-.684-1.614-.684-2.574 0-.972.222-1.83.666-2.574a4.764 4.764 0 0 1 1.854-1.764c.78-.432 1.662-.648 2.646-.648.948 0 1.8.204 2.556.612a4.422 4.422 0 0 1 1.818 1.728c.444.744.666 1.638.666 2.682 0 .108-.006.234-.018.378a42.22 42.22 0 0 1-.036.378h-7.866v-1.638h6.39l-1.08.486c0-.504-.102-.942-.306-1.314a2.171 2.171 0 0 0-.846-.864c-.36-.216-.78-.324-1.26-.324s-.906.108-1.278.324c-.36.204-.642.498-.846.882-.204.372-.306.816-.306 1.332v.432c0 .528.114.996.342 1.404.24.396.57.702.99.918.432.204.936.306 1.512.306.516 0 .966-.078 1.35-.234.396-.156.756-.39 1.08-.702l1.494 1.62a4.437 4.437 0 0 1-1.674 1.17c-.672.264-1.446.396-2.322.396Zm11.126-.144v-12.6h5.724c1.368 0 2.574.264 3.618.792 1.044.516 1.86 1.242 2.448 2.178.588.936.882 2.046.882 3.33 0 1.272-.294 2.382-.882 3.33-.588.936-1.404 1.668-2.448 2.196-1.044.516-2.25.774-3.618.774h-5.724Zm2.916-2.394h2.664c.84 0 1.566-.156 2.178-.468a3.447 3.447 0 0 0 1.44-1.368c.348-.588.522-1.278.522-2.07 0-.804-.174-1.494-.522-2.07a3.335 3.335 0 0 0-1.44-1.35c-.612-.324-1.338-.486-2.178-.486h-2.664v7.812Zm16.203 2.538c-1.104 0-2.076-.216-2.916-.648-.828-.432-1.47-1.02-1.926-1.764-.456-.756-.684-1.614-.684-2.574 0-.972.222-1.83.666-2.574a4.764 4.764 0 0 1 1.854-1.764c.78-.432 1.662-.648 2.646-.648.948 0 1.8.204 2.556.612a4.422 4.422 0 0 1 1.818 1.728c.444.744.666 1.638.666 2.682 0 .108-.006.234-.018.378a42.22 42.22 0 0 1-.036.378h-7.866v-1.638h6.39l-1.08.486c0-.504-.102-.942-.306-1.314a2.171 2.171 0 0 0-.846-.864c-.36-.216-.78-.324-1.26-.324s-.906.108-1.278.324c-.36.204-.642.498-.846.882-.204.372-.306.816-.306 1.332v.432c0 .528.114.996.342 1.404.24.396.57.702.99.918.432.204.936.306 1.512.306.516 0 .966-.078 1.35-.234.396-.156.756-.39 1.08-.702l1.494 1.62a4.437 4.437 0 0 1-1.674 1.17c-.672.264-1.446.396-2.322.396Zm8.641-.144-4.068-9.684h2.898l3.384 8.334h-1.44l3.51-8.334h2.7l-4.086 9.684h-2.898Zm12.313.144c-1.104 0-2.076-.216-2.916-.648-.828-.432-1.47-1.02-1.926-1.764-.456-.756-.684-1.614-.684-2.574 0-.972.222-1.83.666-2.574a4.764 4.764 0 0 1 1.854-1.764c.78-.432 1.662-.648 2.646-.648.948 0 1.8.204 2.556.612a4.422 4.422 0 0 1 1.818 1.728c.444.744.666 1.638.666 2.682 0 .108-.006.234-.018.378a42.22 42.22 0 0 1-.036.378h-7.866v-1.638h6.39l-1.08.486c0-.504-.102-.942-.306-1.314a2.171 2.171 0 0 0-.846-.864c-.36-.216-.78-.324-1.26-.324s-.906.108-1.278.324c-.36.204-.642.498-.846.882-.204.372-.306.816-.306 1.332v.432c0 .528.114.996.342 1.404.24.396.57.702.99.918.432.204.936.306 1.512.306.516 0 .966-.078 1.35-.234.396-.156.756-.39 1.08-.702l1.494 1.62a4.437 4.437 0 0 1-1.674 1.17c-.672.264-1.446.396-2.322.396Zm6.189-.144v-13.356h2.808V341.5h-2.808Zm9.662.144c-1.032 0-1.95-.216-2.754-.648a5.044 5.044 0 0 1-1.89-1.764c-.456-.756-.684-1.614-.684-2.574 0-.972.228-1.83.684-2.574a4.861 4.861 0 0 1 1.89-1.764c.804-.432 1.722-.648 2.754-.648 1.02 0 1.932.216 2.736.648a4.743 4.743 0 0 1 1.89 1.746c.456.744.684 1.608.684 2.592 0 .96-.228 1.818-.684 2.574a4.872 4.872 0 0 1-1.89 1.764c-.804.432-1.716.648-2.736.648Zm0-2.304c.468 0 .888-.108 1.26-.324.372-.216.666-.522.882-.918.216-.408.324-.888.324-1.44 0-.564-.108-1.044-.324-1.44a2.322 2.322 0 0 0-.882-.918 2.463 2.463 0 0 0-1.26-.324c-.468 0-.888.108-1.26.324a2.45 2.45 0 0 0-.9.918c-.216.396-.324.876-.324 1.44 0 .552.108 1.032.324 1.44.228.396.528.702.9.918.372.216.792.324 1.26.324Zm12.551 2.304c-.816 0-1.53-.18-2.142-.54-.612-.36-1.092-.906-1.44-1.638-.336-.744-.504-1.68-.504-2.808 0-1.14.162-2.076.486-2.808.324-.732.792-1.278 1.404-1.638.612-.36 1.344-.54 2.196-.54.912 0 1.728.21 2.448.63a4.43 4.43 0 0 1 1.728 1.728c.432.744.648 1.62.648 2.628 0 1.02-.216 1.902-.648 2.646a4.43 4.43 0 0 1-1.728 1.728c-.72.408-1.536.612-2.448.612Zm-5.724 3.348v-13.176h2.682v1.98l-.054 2.88.18 2.862v5.454h-2.808Zm5.238-5.652c.468 0 .882-.108 1.242-.324.372-.216.666-.522.882-.918.228-.408.342-.888.342-1.44 0-.564-.114-1.044-.342-1.44a2.322 2.322 0 0 0-.882-.918 2.367 2.367 0 0 0-1.242-.324c-.468 0-.888.108-1.26.324a2.322 2.322 0 0 0-.882.918c-.216.396-.324.876-.324 1.44 0 .552.108 1.032.324 1.44.216.396.51.702.882.918.372.216.792.324 1.26.324Zm19.232-7.668c.768 0 1.446.156 2.034.468.6.3 1.068.768 1.404 1.404.348.624.522 1.428.522 2.412v5.544h-2.808v-5.112c0-.78-.162-1.356-.486-1.728-.324-.372-.78-.558-1.368-.558-.408 0-.774.096-1.098.288a1.82 1.82 0 0 0-.756.828c-.18.372-.27.846-.27 1.422v4.86h-2.808v-5.112c0-.78-.162-1.356-.486-1.728-.312-.372-.762-.558-1.35-.558-.408 0-.774.096-1.098.288a1.82 1.82 0 0 0-.756.828c-.18.372-.27.846-.27 1.422v4.86h-2.808v-9.684h2.682v2.646l-.504-.774c.336-.66.81-1.158 1.422-1.494.624-.348 1.332-.522 2.124-.522.888 0 1.662.228 2.322.684.672.444 1.116 1.128 1.332 2.052l-.99-.27a3.891 3.891 0 0 1 1.548-1.8c.72-.444 1.542-.666 2.466-.666Zm10.993 9.972c-1.104 0-2.076-.216-2.916-.648-.828-.432-1.47-1.02-1.926-1.764-.456-.756-.684-1.614-.684-2.574 0-.972.222-1.83.666-2.574a4.764 4.764 0 0 1 1.854-1.764c.78-.432 1.662-.648 2.646-.648.948 0 1.8.204 2.556.612a4.422 4.422 0 0 1 1.818 1.728c.444.744.666 1.638.666 2.682 0 .108-.006.234-.018.378a42.22 42.22 0 0 1-.036.378h-7.866v-1.638h6.39l-1.08.486c0-.504-.102-.942-.306-1.314a2.171 2.171 0 0 0-.846-.864c-.36-.216-.78-.324-1.26-.324s-.906.108-1.278.324c-.36.204-.642.498-.846.882-.204.372-.306.816-.306 1.332v.432c0 .528.114.996.342 1.404.24.396.57.702.99.918.432.204.936.306 1.512.306.516 0 .966-.078 1.35-.234.396-.156.756-.39 1.08-.702l1.494 1.62a4.437 4.437 0 0 1-1.674 1.17c-.672.264-1.446.396-2.322.396Zm12.075-9.972c.768 0 1.452.156 2.052.468.612.3 1.092.768 1.44 1.404.348.624.522 1.428.522 2.412v5.544h-2.808v-5.112c0-.78-.174-1.356-.522-1.728-.336-.372-.816-.558-1.44-.558-.444 0-.846.096-1.206.288-.348.18-.624.462-.828.846-.192.384-.288.876-.288 1.476v4.788h-2.808v-9.684h2.682v2.682l-.504-.81a3.587 3.587 0 0 1 1.494-1.494c.648-.348 1.386-.522 2.214-.522Zm10.16 9.972c-1.14 0-2.028-.288-2.664-.864-.636-.588-.954-1.458-.954-2.61v-8.496h2.808v8.46c0 .408.108.726.324.954.216.216.51.324.882.324.444 0 .822-.12 1.134-.36l.756 1.98c-.288.204-.636.36-1.044.468-.396.096-.81.144-1.242.144Zm-5.112-7.452v-2.16h6.714v2.16h-6.714ZM66.824 369.5v-11.2h4.832c1.248 0 2.213.251 2.896.752.693.501 1.04 1.211 1.04 2.128 0 .608-.144 1.12-.432 1.536a2.584 2.584 0 0 1-1.152.944c-.48.213-1.008.32-1.584.32l.272-.384c.715 0 1.328.112 1.84.336a2.58 2.58 0 0 1 1.216.976c.288.427.432.96.432 1.6 0 .949-.352 1.685-1.056 2.208-.693.523-1.744.784-3.152.784h-5.152Zm1.184-.976h3.952c.981 0 1.733-.165 2.256-.496.523-.341.784-.88.784-1.616 0-.725-.261-1.253-.784-1.584-.523-.341-1.275-.512-2.256-.512h-4.08v-.976h3.696c.896 0 1.59-.171 2.08-.512.501-.341.752-.848.752-1.52 0-.683-.25-1.189-.752-1.52-.49-.341-1.184-.512-2.08-.512h-3.568v9.248Zm12.223-1.808-.048-1.44 6.783-6.976h1.36l-4.944 5.184-.672.72-2.48 2.512Zm-1.024 2.784v-11.2h1.184v11.2h-1.184Zm8.047 0-4.832-5.568.8-.864 5.44 6.432h-1.408Zm3.647 0v-11.2h4.193c.949 0 1.765.155 2.448.464.682.299 1.205.736 1.567 1.312.374.565.56 1.253.56 2.064 0 .789-.186 1.472-.56 2.048-.362.565-.885 1.003-1.567 1.312-.683.309-1.5.464-2.448.464h-3.536l.527-.56v4.096h-1.183Zm1.184-4-.527-.576h3.503c1.12 0 1.968-.24 2.544-.72.587-.491.88-1.179.88-2.064 0-.896-.293-1.589-.88-2.08-.576-.491-1.424-.736-2.544-.736h-3.504l.528-.56v6.736Zm10.465 4v-11.2h.976l5.12 8.736h-.512l5.072-8.736h.976v11.2h-1.136v-9.424h.272l-4.672 8h-.56l-4.704-8h.304v9.424h-1.136Zm24.204.08a3.936 3.936 0 0 1-1.968-.496 3.78 3.78 0 0 1-1.408-1.456c-.341-.64-.512-1.419-.512-2.336 0-.917.171-1.691.512-2.32.342-.64.806-1.125 1.392-1.456.587-.331 1.248-.496 1.984-.496.8 0 1.515.181 2.144.544.64.352 1.142.853 1.504 1.504.363.64.544 1.381.544 2.224 0 .853-.181 1.6-.544 2.24a3.916 3.916 0 0 1-1.504 1.504c-.629.363-1.344.544-2.144.544Zm-4.336 3.024V361.1h1.088v2.528l-.112 1.68.16 1.696v5.6h-1.136Zm4.256-4.032c.598 0 1.131-.133 1.6-.4.47-.277.843-.661 1.12-1.152.278-.501.416-1.077.416-1.728s-.138-1.221-.416-1.712a3.046 3.046 0 0 0-1.12-1.152 3.086 3.086 0 0 0-1.6-.416c-.597 0-1.136.139-1.616.416a3.06 3.06 0 0 0-1.12 1.152c-.266.491-.4 1.061-.4 1.712s.134 1.227.4 1.728a3.06 3.06 0 0 0 1.12 1.152c.48.267 1.019.4 1.616.4Zm6.908.928v-8.4h1.088v2.288l-.112-.4c.235-.64.629-1.125 1.184-1.456.555-.341 1.243-.512 2.064-.512v1.104h-.128a.51.51 0 0 0-.128-.016c-.885 0-1.579.272-2.08.816-.501.533-.752 1.296-.752 2.288v4.288h-1.136Zm9.963.08c-.811 0-1.541-.181-2.192-.544a4.15 4.15 0 0 1-1.52-1.52c-.373-.651-.56-1.392-.56-2.224 0-.843.187-1.584.56-2.224.373-.64.88-1.141 1.52-1.504s1.371-.544 2.192-.544c.832 0 1.568.181 2.208.544a3.89 3.89 0 0 1 1.52 1.504c.373.64.56 1.381.56 2.224 0 .832-.187 1.573-.56 2.224a3.998 3.998 0 0 1-1.52 1.52c-.651.363-1.387.544-2.208.544Zm0-1.008c.608 0 1.147-.133 1.616-.4a2.942 2.942 0 0 0 1.104-1.152c.277-.501.416-1.077.416-1.728 0-.661-.139-1.237-.416-1.728a2.835 2.835 0 0 0-1.104-1.136 3.088 3.088 0 0 0-1.6-.416c-.597 0-1.131.139-1.6.416a2.94 2.94 0 0 0-1.12 1.136c-.277.491-.416 1.067-.416 1.728 0 .651.139 1.227.416 1.728.277.491.651.875 1.12 1.152.469.267.997.4 1.584.4Zm8.853.928-3.728-8.4h1.184l3.424 7.792h-.56l3.472-7.792h1.12l-3.744 8.4h-1.168Zm6.832 0v-8.4h1.136v8.4h-1.136Zm.576-10.256a.804.804 0 0 1-.592-.24.786.786 0 0 1-.24-.576c0-.224.08-.411.24-.56.16-.16.357-.24.592-.24.234 0 .432.075.592.224.16.149.24.336.24.56 0 .235-.08.432-.24.592a.773.773 0 0 1-.592.24Zm7.384 10.336c-.8 0-1.52-.181-2.16-.544a3.958 3.958 0 0 1-1.488-1.504c-.362-.651-.544-1.397-.544-2.24 0-.853.182-1.6.544-2.24a3.841 3.841 0 0 1 1.488-1.488c.64-.363 1.36-.544 2.16-.544.736 0 1.392.165 1.968.496.587.331 1.051.816 1.392 1.456.352.629.528 1.403.528 2.32 0 .907-.17 1.68-.512 2.32a3.632 3.632 0 0 1-1.392 1.472c-.576.331-1.237.496-1.984.496Zm.08-1.008c.598 0 1.131-.133 1.6-.4a2.9 2.9 0 0 0 1.12-1.152c.278-.501.416-1.077.416-1.728 0-.661-.138-1.237-.416-1.728a2.798 2.798 0 0 0-1.12-1.136 3.086 3.086 0 0 0-1.6-.416c-.586 0-1.114.139-1.584.416a2.947 2.947 0 0 0-1.12 1.136c-.277.491-.416 1.067-.416 1.728 0 .651.139 1.227.416 1.728a3.06 3.06 0 0 0 1.12 1.152c.47.267.998.4 1.584.4Zm3.168.928v-2.528l.112-1.696-.16-1.696v-5.952h1.136V369.5h-1.088Zm8.14.08c-.874 0-1.642-.181-2.304-.544a4.09 4.09 0 0 1-1.552-1.52c-.373-.651-.56-1.392-.56-2.224 0-.832.176-1.568.528-2.208a3.997 3.997 0 0 1 1.472-1.504 4.067 4.067 0 0 1 2.112-.56c.79 0 1.488.181 2.096.544a3.728 3.728 0 0 1 1.456 1.504c.352.64.528 1.381.528 2.224 0 .053-.005.112-.016.176v.176h-7.312v-.848h6.704l-.448.336c0-.608-.133-1.147-.4-1.616a2.817 2.817 0 0 0-1.056-1.12c-.448-.267-.965-.4-1.552-.4-.576 0-1.093.133-1.552.4-.458.267-.816.64-1.072 1.12-.256.48-.384 1.029-.384 1.648v.176c0 .64.139 1.205.416 1.696.288.48.683.859 1.184 1.136.512.267 1.094.4 1.744.4.512 0 .987-.091 1.424-.272a2.962 2.962 0 0 0 1.152-.832l.64.736a3.588 3.588 0 0 1-1.408 1.024 4.668 4.668 0 0 1-1.84.352Zm8.664 0a6.606 6.606 0 0 1-1.968-.288c-.618-.203-1.104-.453-1.456-.752l.512-.896c.342.256.779.48 1.312.672a5.198 5.198 0 0 0 1.68.272c.8 0 1.376-.123 1.728-.368.352-.256.528-.592.528-1.008 0-.309-.101-.549-.304-.72-.192-.181-.448-.315-.768-.4a8.44 8.44 0 0 0-1.072-.24 23.674 23.674 0 0 1-1.184-.224 4.551 4.551 0 0 1-1.056-.368c-.32-.171-.581-.4-.784-.688-.192-.288-.288-.672-.288-1.152 0-.459.128-.869.384-1.232s.63-.645 1.12-.848c.502-.213 1.11-.32 1.824-.32.544 0 1.088.075 1.632.224.544.139.992.325 1.344.56l-.496.912a3.692 3.692 0 0 0-1.2-.544 4.817 4.817 0 0 0-1.28-.176c-.757 0-1.317.133-1.68.4-.352.256-.528.587-.528.992 0 .32.096.571.288.752.203.181.464.325.784.432.331.096.688.176 1.072.24.395.064.784.144 1.168.24.395.085.752.208 1.072.368.331.149.592.368.784.656.203.277.304.645.304 1.104 0 .491-.138.917-.416 1.28-.266.352-.661.629-1.184.832-.512.192-1.136.288-1.872.288Zm13.04 0c-.789 0-1.397-.213-1.824-.64-.426-.427-.64-1.029-.64-1.808v-7.888h1.136v7.824c0 .491.123.869.368 1.136.256.267.619.4 1.088.4.502 0 .918-.144 1.248-.432l.4.816a2.088 2.088 0 0 1-.816.448 3.217 3.217 0 0 1-.96.144Zm-3.968-7.536v-.944h5.2v.944h-5.2Zm12.421-1.024c.682 0 1.28.133 1.792.4.522.256.928.651 1.216 1.184.298.533.448 1.205.448 2.016v4.88h-1.136v-4.768c0-.885-.224-1.552-.672-2-.438-.459-1.056-.688-1.856-.688-.598 0-1.12.123-1.568.368a2.464 2.464 0 0 0-1.024 1.04c-.235.448-.352.992-.352 1.632v4.416h-1.136v-11.872h1.136v5.776l-.224-.432a3.007 3.007 0 0 1 1.28-1.424c.586-.352 1.285-.528 2.096-.528Zm10.412 8.56c-.875 0-1.643-.181-2.304-.544a4.083 4.083 0 0 1-1.552-1.52c-.373-.651-.56-1.392-.56-2.224 0-.832.176-1.568.528-2.208a3.99 3.99 0 0 1 1.472-1.504 4.062 4.062 0 0 1 2.112-.56c.789 0 1.488.181 2.096.544a3.728 3.728 0 0 1 1.456 1.504c.352.64.528 1.381.528 2.224 0 .053-.005.112-.016.176v.176h-7.312v-.848h6.704l-.448.336c0-.608-.133-1.147-.4-1.616a2.817 2.817 0 0 0-1.056-1.12c-.448-.267-.965-.4-1.552-.4-.576 0-1.093.133-1.552.4a2.78 2.78 0 0 0-1.072 1.12c-.256.48-.384 1.029-.384 1.648v.176c0 .64.139 1.205.416 1.696.288.48.683.859 1.184 1.136.512.267 1.093.4 1.744.4.512 0 .987-.091 1.424-.272a2.962 2.962 0 0 0 1.152-.832l.64.736a3.596 3.596 0 0 1-1.408 1.024 4.671 4.671 0 0 1-1.84.352Zm14.26 0c-.8 0-1.52-.181-2.16-.544a3.944 3.944 0 0 1-1.488-1.504c-.363-.651-.544-1.397-.544-2.24 0-.853.181-1.6.544-2.24a3.828 3.828 0 0 1 1.488-1.488c.64-.363 1.36-.544 2.16-.544.736 0 1.392.165 1.968.496.586.331 1.05.816 1.392 1.456.352.629.528 1.403.528 2.32 0 .907-.171 1.68-.512 2.32-.342.64-.806 1.131-1.392 1.472-.576.331-1.238.496-1.984.496Zm.08-1.008c.597 0 1.13-.133 1.6-.4.48-.277.853-.661 1.12-1.152.277-.501.416-1.077.416-1.728 0-.661-.139-1.237-.416-1.728a2.804 2.804 0 0 0-1.12-1.136 3.09 3.09 0 0 0-1.6-.416c-.587 0-1.115.139-1.584.416-.47.267-.843.645-1.12 1.136-.278.491-.416 1.067-.416 1.728 0 .651.138 1.227.416 1.728.277.491.65.875 1.12 1.152.469.267.997.4 1.584.4Zm3.168.928v-2.528l.112-1.696-.16-1.696v-5.952h1.136V369.5h-1.088Zm8.14.08c-.875 0-1.643-.181-2.304-.544a4.076 4.076 0 0 1-1.552-1.52c-.374-.651-.56-1.392-.56-2.224 0-.832.176-1.568.528-2.208a3.982 3.982 0 0 1 1.472-1.504 4.062 4.062 0 0 1 2.112-.56c.789 0 1.488.181 2.096.544a3.734 3.734 0 0 1 1.456 1.504c.352.64.528 1.381.528 2.224 0 .053-.006.112-.016.176v.176h-7.312v-.848h6.704l-.448.336c0-.608-.134-1.147-.4-1.616a2.817 2.817 0 0 0-1.056-1.12c-.448-.267-.966-.4-1.552-.4-.576 0-1.094.133-1.552.4a2.78 2.78 0 0 0-1.072 1.12c-.256.48-.384 1.029-.384 1.648v.176c0 .64.138 1.205.416 1.696.288.48.682.859 1.184 1.136.512.267 1.093.4 1.744.4a3.69 3.69 0 0 0 1.424-.272 2.962 2.962 0 0 0 1.152-.832l.64.736a3.603 3.603 0 0 1-1.408 1.024 4.671 4.671 0 0 1-1.84.352Zm8.411-.08-3.728-8.4h1.184l3.424 7.792h-.56l3.472-7.792h1.12l-3.744 8.4h-1.168Zm10.166.08c-.875 0-1.643-.181-2.304-.544a4.083 4.083 0 0 1-1.552-1.52c-.373-.651-.56-1.392-.56-2.224 0-.832.176-1.568.528-2.208a3.99 3.99 0 0 1 1.472-1.504 4.062 4.062 0 0 1 2.112-.56c.789 0 1.488.181 2.096.544a3.728 3.728 0 0 1 1.456 1.504c.352.64.528 1.381.528 2.224 0 .053-.005.112-.016.176v.176h-7.312v-.848h6.704l-.448.336c0-.608-.133-1.147-.4-1.616a2.817 2.817 0 0 0-1.056-1.12c-.448-.267-.965-.4-1.552-.4-.576 0-1.093.133-1.552.4a2.78 2.78 0 0 0-1.072 1.12c-.256.48-.384 1.029-.384 1.648v.176c0 .64.139 1.205.416 1.696.288.48.683.859 1.184 1.136.512.267 1.093.4 1.744.4.512 0 .987-.091 1.424-.272a2.962 2.962 0 0 0 1.152-.832l.64.736a3.596 3.596 0 0 1-1.408 1.024 4.671 4.671 0 0 1-1.84.352Zm6.408-.08v-11.872h1.136V369.5h-1.136Zm8.041.08c-.811 0-1.541-.181-2.192-.544a4.15 4.15 0 0 1-1.52-1.52c-.373-.651-.56-1.392-.56-2.224 0-.843.187-1.584.56-2.224.373-.64.88-1.141 1.52-1.504s1.371-.544 2.192-.544c.832 0 1.568.181 2.208.544a3.89 3.89 0 0 1 1.52 1.504c.373.64.56 1.381.56 2.224 0 .832-.187 1.573-.56 2.224a3.998 3.998 0 0 1-1.52 1.52c-.651.363-1.387.544-2.208.544Zm0-1.008c.608 0 1.147-.133 1.616-.4a2.942 2.942 0 0 0 1.104-1.152c.277-.501.416-1.077.416-1.728 0-.661-.139-1.237-.416-1.728a2.835 2.835 0 0 0-1.104-1.136 3.088 3.088 0 0 0-1.6-.416c-.597 0-1.131.139-1.6.416a2.94 2.94 0 0 0-1.12 1.136c-.277.491-.416 1.067-.416 1.728 0 .651.139 1.227.416 1.728.277.491.651.875 1.12 1.152.469.267.997.4 1.584.4Zm11.263 1.008a3.936 3.936 0 0 1-1.968-.496 3.78 3.78 0 0 1-1.408-1.456c-.341-.64-.512-1.419-.512-2.336 0-.917.171-1.691.512-2.32.342-.64.806-1.125 1.392-1.456.587-.331 1.248-.496 1.984-.496.8 0 1.515.181 2.144.544.64.352 1.142.853 1.504 1.504.363.64.544 1.381.544 2.224 0 .853-.181 1.6-.544 2.24a3.916 3.916 0 0 1-1.504 1.504c-.629.363-1.344.544-2.144.544Zm-4.336 3.024V361.1h1.088v2.528l-.112 1.68.16 1.696v5.6h-1.136Zm4.256-4.032c.598 0 1.131-.133 1.6-.4.47-.277.843-.661 1.12-1.152.278-.501.416-1.077.416-1.728s-.138-1.221-.416-1.712a3.046 3.046 0 0 0-1.12-1.152 3.086 3.086 0 0 0-1.6-.416c-.597 0-1.136.139-1.616.416a3.06 3.06 0 0 0-1.12 1.152c-.266.491-.4 1.061-.4 1.712s.134 1.227.4 1.728a3.06 3.06 0 0 0 1.12 1.152c.48.267 1.019.4 1.616.4Zm17.404-7.552c.683 0 1.275.133 1.776.4.512.256.907.651 1.184 1.184.288.533.432 1.205.432 2.016v4.88h-1.136v-4.768c0-.885-.213-1.552-.64-2-.416-.459-1.008-.688-1.776-.688-.576 0-1.077.123-1.504.368a2.43 2.43 0 0 0-.976 1.04c-.224.448-.336.992-.336 1.632v4.416h-1.136v-4.768c0-.885-.213-1.552-.64-2-.427-.459-1.024-.688-1.792-.688-.565 0-1.061.123-1.488.368a2.4 2.4 0 0 0-.992 1.04c-.224.448-.336.992-.336 1.632v4.416h-1.136v-8.4H297v2.272l-.176-.4a2.97 2.97 0 0 1 1.232-1.424c.576-.352 1.253-.528 2.032-.528.821 0 1.52.208 2.096.624.576.405.949 1.019 1.12 1.84l-.448-.176a3.278 3.278 0 0 1 1.296-1.648c.629-.427 1.381-.64 2.256-.64Zm10.361 8.56c-.875 0-1.643-.181-2.304-.544a4.083 4.083 0 0 1-1.552-1.52c-.373-.651-.56-1.392-.56-2.224 0-.832.176-1.568.528-2.208a3.99 3.99 0 0 1 1.472-1.504 4.062 4.062 0 0 1 2.112-.56c.789 0 1.488.181 2.096.544a3.728 3.728 0 0 1 1.456 1.504c.352.64.528 1.381.528 2.224 0 .053-.005.112-.016.176v.176h-7.312v-.848h6.704l-.448.336c0-.608-.133-1.147-.4-1.616a2.817 2.817 0 0 0-1.056-1.12c-.448-.267-.965-.4-1.552-.4-.576 0-1.093.133-1.552.4a2.78 2.78 0 0 0-1.072 1.12c-.256.48-.384 1.029-.384 1.648v.176c0 .64.139 1.205.416 1.696.288.48.683.859 1.184 1.136.512.267 1.093.4 1.744.4.512 0 .987-.091 1.424-.272a2.962 2.962 0 0 0 1.152-.832l.64.736a3.596 3.596 0 0 1-1.408 1.024 4.671 4.671 0 0 1-1.84.352Zm10.696-8.56c.683 0 1.28.133 1.792.4.523.256.928.651 1.216 1.184.299.533.448 1.205.448 2.016v4.88h-1.136v-4.768c0-.885-.224-1.552-.672-2-.437-.459-1.056-.688-1.856-.688-.597 0-1.12.123-1.568.368a2.47 2.47 0 0 0-1.024 1.04c-.235.448-.352.992-.352 1.632v4.416h-1.136v-8.4h1.088v2.304l-.176-.432a3.012 3.012 0 0 1 1.28-1.424c.587-.352 1.285-.528 2.096-.528Zm9.501 8.56c-.79 0-1.398-.213-1.824-.64-.427-.427-.64-1.029-.64-1.808v-7.888h1.136v7.824c0 .491.122.869.368 1.136.256.267.618.4 1.088.4.501 0 .917-.144 1.248-.432l.4.816a2.088 2.088 0 0 1-.816.448c-.31.096-.63.144-.96.144Zm-3.968-7.536v-.944h5.2v.944h-5.2Zm16.063 7.536c-.811 0-1.541-.181-2.192-.544a4.15 4.15 0 0 1-1.52-1.52c-.373-.651-.56-1.392-.56-2.224 0-.843.187-1.584.56-2.224.373-.64.88-1.141 1.52-1.504s1.371-.544 2.192-.544c.832 0 1.568.181 2.208.544a3.89 3.89 0 0 1 1.52 1.504c.373.64.56 1.381.56 2.224 0 .832-.187 1.573-.56 2.224a3.998 3.998 0 0 1-1.52 1.52c-.651.363-1.387.544-2.208.544Zm0-1.008c.608 0 1.147-.133 1.616-.4a2.942 2.942 0 0 0 1.104-1.152c.277-.501.416-1.077.416-1.728 0-.661-.139-1.237-.416-1.728a2.835 2.835 0 0 0-1.104-1.136 3.088 3.088 0 0 0-1.6-.416c-.597 0-1.131.139-1.6.416a2.94 2.94 0 0 0-1.12 1.136c-.277.491-.416 1.067-.416 1.728 0 .651.139 1.227.416 1.728.277.491.651.875 1.12 1.152.469.267.997.4 1.584.4Zm7.119.928v-9.456c0-.747.219-1.349.656-1.808.438-.459 1.067-.688 1.888-.688.32 0 .63.043.928.128.299.085.55.219.752.4l-.384.848a1.493 1.493 0 0 0-.56-.304 2.056 2.056 0 0 0-.688-.112c-.48 0-.848.133-1.104.4-.256.267-.384.661-.384 1.184v1.28l.032.528v7.6h-1.136Zm-1.504-7.456v-.944h5.2v.944h-5.2Zm13.818 7.536c-.694 0-1.35-.096-1.968-.288-.619-.203-1.104-.453-1.456-.752l.512-.896c.341.256.778.48 1.312.672a5.19 5.19 0 0 0 1.68.272c.8 0 1.376-.123 1.728-.368.352-.256.528-.592.528-1.008 0-.309-.102-.549-.304-.72-.192-.181-.448-.315-.768-.4a8.48 8.48 0 0 0-1.072-.24c-.395-.064-.79-.139-1.184-.224a4.551 4.551 0 0 1-1.056-.368c-.32-.171-.582-.4-.784-.688-.192-.288-.288-.672-.288-1.152 0-.459.128-.869.384-1.232s.629-.645 1.12-.848c.501-.213 1.109-.32 1.824-.32.544 0 1.088.075 1.632.224.544.139.992.325 1.344.56l-.496.912a3.71 3.71 0 0 0-1.2-.544 4.828 4.828 0 0 0-1.28-.176c-.758 0-1.318.133-1.68.4-.352.256-.528.587-.528.992 0 .32.096.571.288.752.202.181.464.325.784.432.33.096.688.176 1.072.24.394.064.784.144 1.168.24.394.085.752.208 1.072.368.33.149.592.368.784.656.202.277.304.645.304 1.104 0 .491-.139.917-.416 1.28-.267.352-.662.629-1.184.832-.512.192-1.136.288-1.872.288Zm8.532 0c-.789 0-1.397-.213-1.824-.64-.426-.427-.64-1.029-.64-1.808v-7.888h1.136v7.824c0 .491.123.869.368 1.136.256.267.619.4 1.088.4.502 0 .918-.144 1.248-.432l.4.816a2.088 2.088 0 0 1-.816.448 3.217 3.217 0 0 1-.96.144Zm-3.968-7.536v-.944h5.2v.944h-5.2Zm8.132 7.456v-8.4h1.088v2.288l-.112-.4c.235-.64.63-1.125 1.184-1.456.555-.341 1.243-.512 2.064-.512v1.104h-.128a.505.505 0 0 0-.128-.016c-.885 0-1.578.272-2.08.816-.501.533-.752 1.296-.752 2.288v4.288h-1.136Zm10.214.08c-.715 0-1.339-.133-1.872-.4a2.89 2.89 0 0 1-1.248-1.2c-.288-.533-.432-1.2-.432-2v-4.88h1.136v4.752c0 .896.219 1.573.656 2.032.448.448 1.072.672 1.872.672.587 0 1.093-.117 1.52-.352.437-.245.768-.597.992-1.056.235-.459.352-1.008.352-1.648v-4.4h1.136v8.4h-1.088v-2.304l.176.416a3.14 3.14 0 0 1-1.248 1.456c-.555.341-1.205.512-1.952.512Zm11.086 0c-.832 0-1.579-.181-2.24-.544a4.112 4.112 0 0 1-1.536-1.52c-.373-.651-.56-1.392-.56-2.224 0-.843.187-1.584.56-2.224a4 4 0 0 1 1.536-1.504c.661-.363 1.408-.544 2.24-.544.715 0 1.36.139 1.936.416a3.135 3.135 0 0 1 1.36 1.248l-.848.576a2.663 2.663 0 0 0-1.072-.944 3.2 3.2 0 0 0-1.392-.304c-.597 0-1.136.139-1.616.416-.48.267-.859.645-1.136 1.136-.277.491-.416 1.067-.416 1.728s.139 1.237.416 1.728c.277.491.656.875 1.136 1.152.48.267 1.019.4 1.616.4a3.2 3.2 0 0 0 1.392-.304 2.705 2.705 0 0 0 1.072-.928l.848.576c-.331.544-.784.96-1.36 1.248-.576.277-1.221.416-1.936.416Zm8.598 0c-.79 0-1.398-.213-1.824-.64-.427-.427-.64-1.029-.64-1.808v-7.888h1.136v7.824c0 .491.122.869.368 1.136.256.267.618.4 1.088.4.501 0 .917-.144 1.248-.432l.4.816a2.088 2.088 0 0 1-.816.448c-.31.096-.63.144-.96.144Zm-3.968-7.536v-.944h5.2v.944h-5.2Zm11.604 7.536c-.715 0-1.339-.133-1.872-.4a2.879 2.879 0 0 1-1.248-1.2c-.288-.533-.432-1.2-.432-2v-4.88h1.136v4.752c0 .896.218 1.573.656 2.032.448.448 1.072.672 1.872.672.586 0 1.093-.117 1.52-.352.437-.245.768-.597.992-1.056.234-.459.352-1.008.352-1.648v-4.4h1.136v8.4h-1.088v-2.304l.176.416a3.14 3.14 0 0 1-1.248 1.456c-.555.341-1.206.512-1.952.512Zm7.597-.08v-8.4h1.088v2.288l-.112-.4c.235-.64.63-1.125 1.184-1.456.555-.341 1.243-.512 2.064-.512v1.104h-.128a.505.505 0 0 0-.128-.016c-.885 0-1.578.272-2.08.816-.501.533-.752 1.296-.752 2.288v4.288h-1.136Zm11.256 0v-1.856l-.048-.304v-3.104c0-.715-.202-1.264-.608-1.648-.394-.384-.986-.576-1.776-.576a4.45 4.45 0 0 0-1.552.272c-.49.181-.906.421-1.248.72l-.512-.848c.427-.363.939-.64 1.536-.832a5.831 5.831 0 0 1 1.888-.304c1.088 0 1.926.272 2.512.816.598.533.896 1.349.896 2.448v5.216h-1.088Zm-2.896.08c-.629 0-1.178-.101-1.648-.304-.458-.213-.81-.501-1.056-.864a2.28 2.28 0 0 1-.368-1.28c0-.437.102-.832.304-1.184.214-.363.555-.651 1.024-.864.48-.224 1.12-.336 1.92-.336h2.896v.848h-2.864c-.81 0-1.376.144-1.696.432a1.406 1.406 0 0 0-.464 1.072c0 .48.187.864.56 1.152.374.288.896.432 1.568.432.64 0 1.19-.144 1.648-.432a2.55 2.55 0 0 0 1.024-1.28l.256.784a2.653 2.653 0 0 1-1.12 1.328c-.522.331-1.184.496-1.984.496Zm7.39-.08v-11.872h1.136V369.5h-1.136Zm3.929 2.336.704-2.96.128.688a.877.877 0 0 1-.624-.24.844.844 0 0 1-.24-.624c0-.256.08-.464.24-.624.17-.16.373-.24.608-.24.245 0 .442.085.592.256.16.171.24.373.24.608a1.84 1.84 0 0 1-.08.544 8.164 8.164 0 0 1-.128.384l-.672 2.208H446Zm9.098-2.336v-9.456c0-.747.219-1.349.656-1.808.437-.459 1.067-.688 1.888-.688.32 0 .629.043.928.128.299.085.549.219.752.4l-.384.848a1.5 1.5 0 0 0-.56-.304 2.06 2.06 0 0 0-.688-.112c-.48 0-.848.133-1.104.4-.256.267-.384.661-.384 1.184v1.28l.032.528v7.6h-1.136Zm-1.504-7.456v-.944h5.2v.944h-5.2Zm10.526 7.536c-.715 0-1.339-.133-1.872-.4a2.879 2.879 0 0 1-1.248-1.2c-.288-.533-.432-1.2-.432-2v-4.88h1.136v4.752c0 .896.218 1.573.656 2.032.448.448 1.072.672 1.872.672.586 0 1.093-.117 1.52-.352.437-.245.768-.597.992-1.056.234-.459.352-1.008.352-1.648v-4.4h1.136v8.4h-1.088v-2.304l.176.416a3.14 3.14 0 0 1-1.248 1.456c-.555.341-1.206.512-1.952.512Zm11.886-8.56c.682 0 1.28.133 1.792.4.522.256.928.651 1.216 1.184.298.533.448 1.205.448 2.016v4.88h-1.136v-4.768c0-.885-.224-1.552-.672-2-.438-.459-1.056-.688-1.856-.688-.598 0-1.12.123-1.568.368a2.464 2.464 0 0 0-1.024 1.04c-.235.448-.352.992-.352 1.632v4.416h-1.136v-8.4h1.088v2.304l-.176-.432a3.007 3.007 0 0 1 1.28-1.424c.586-.352 1.285-.528 2.096-.528Zm10.332 8.56c-.832 0-1.578-.181-2.24-.544a4.126 4.126 0 0 1-1.536-1.52c-.373-.651-.56-1.392-.56-2.224 0-.843.187-1.584.56-2.224a4.013 4.013 0 0 1 1.536-1.504c.662-.363 1.408-.544 2.24-.544.715 0 1.36.139 1.936.416a3.13 3.13 0 0 1 1.36 1.248l-.848.576a2.663 2.663 0 0 0-1.072-.944 3.194 3.194 0 0 0-1.392-.304c-.597 0-1.136.139-1.616.416-.48.267-.858.645-1.136 1.136-.277.491-.416 1.067-.416 1.728s.139 1.237.416 1.728c.278.491.656.875 1.136 1.152.48.267 1.019.4 1.616.4.502 0 .966-.101 1.392-.304a2.705 2.705 0 0 0 1.072-.928l.848.576c-.33.544-.784.96-1.36 1.248-.576.277-1.221.416-1.936.416Zm8.598 0c-.79 0-1.398-.213-1.824-.64-.427-.427-.64-1.029-.64-1.808v-7.888h1.136v7.824c0 .491.122.869.368 1.136.256.267.618.4 1.088.4.501 0 .917-.144 1.248-.432l.4.816a2.088 2.088 0 0 1-.816.448c-.31.096-.63.144-.96.144Zm-3.968-7.536v-.944h5.2v.944h-5.2Zm8.132 7.456v-8.4h1.136v8.4H499.1Zm.576-10.256a.804.804 0 0 1-.592-.24.786.786 0 0 1-.24-.576c0-.224.08-.411.24-.56.16-.16.357-.24.592-.24.234 0 .432.075.592.224.16.149.24.336.24.56 0 .235-.08.432-.24.592a.773.773 0 0 1-.592.24Zm7.465 10.336c-.811 0-1.542-.181-2.192-.544a4.15 4.15 0 0 1-1.52-1.52c-.374-.651-.56-1.392-.56-2.224 0-.843.186-1.584.56-2.224.373-.64.88-1.141 1.52-1.504s1.37-.544 2.192-.544c.832 0 1.568.181 2.208.544.65.363 1.157.864 1.52 1.504.373.64.56 1.381.56 2.224 0 .832-.187 1.573-.56 2.224a4.005 4.005 0 0 1-1.52 1.52c-.651.363-1.387.544-2.208.544Zm0-1.008c.608 0 1.146-.133 1.616-.4a2.942 2.942 0 0 0 1.104-1.152c.277-.501.416-1.077.416-1.728 0-.661-.139-1.237-.416-1.728a2.835 2.835 0 0 0-1.104-1.136 3.09 3.09 0 0 0-1.6-.416c-.598 0-1.131.139-1.6.416-.47.267-.843.645-1.12 1.136-.278.491-.416 1.067-.416 1.728 0 .651.138 1.227.416 1.728.277.491.65.875 1.12 1.152.469.267.997.4 1.584.4Zm11.215-7.552c.682 0 1.28.133 1.792.4.522.256.928.651 1.216 1.184.298.533.448 1.205.448 2.016v4.88h-1.136v-4.768c0-.885-.224-1.552-.672-2-.438-.459-1.056-.688-1.856-.688-.598 0-1.12.123-1.568.368a2.464 2.464 0 0 0-1.024 1.04c-.235.448-.352.992-.352 1.632v4.416h-1.136v-8.4h1.088v2.304l-.176-.432a3.007 3.007 0 0 1 1.28-1.424c.586-.352 1.285-.528 2.096-.528Zm12.108 8.48v-1.856l-.048-.304v-3.104c0-.715-.202-1.264-.608-1.648-.394-.384-.986-.576-1.776-.576a4.45 4.45 0 0 0-1.552.272c-.49.181-.906.421-1.248.72l-.512-.848c.427-.363.939-.64 1.536-.832a5.831 5.831 0 0 1 1.888-.304c1.088 0 1.926.272 2.512.816.598.533.896 1.349.896 2.448v5.216h-1.088Zm-2.896.08c-.629 0-1.178-.101-1.648-.304-.458-.213-.81-.501-1.056-.864a2.28 2.28 0 0 1-.368-1.28c0-.437.102-.832.304-1.184.214-.363.555-.651 1.024-.864.48-.224 1.12-.336 1.92-.336h2.896v.848h-2.864c-.81 0-1.376.144-1.696.432a1.406 1.406 0 0 0-.464 1.072c0 .48.187.864.56 1.152.374.288.896.432 1.568.432.64 0 1.19-.144 1.648-.432a2.55 2.55 0 0 0 1.024-1.28l.256.784a2.653 2.653 0 0 1-1.12 1.328c-.522.331-1.184.496-1.984.496Zm7.39-.08v-11.872h1.136V369.5h-1.136Zm14.388 0v-1.856l-.048-.304v-3.104c0-.715-.203-1.264-.608-1.648-.395-.384-.987-.576-1.776-.576a4.45 4.45 0 0 0-1.552.272 3.934 3.934 0 0 0-1.248.72l-.512-.848c.427-.363.939-.64 1.536-.832a5.827 5.827 0 0 1 1.888-.304c1.088 0 1.925.272 2.512.816.597.533.896 1.349.896 2.448v5.216h-1.088Zm-2.896.08c-.629 0-1.179-.101-1.648-.304-.459-.213-.811-.501-1.056-.864a2.28 2.28 0 0 1-.368-1.28c0-.437.101-.832.304-1.184.213-.363.555-.651 1.024-.864.48-.224 1.12-.336 1.92-.336h2.896v.848h-2.864c-.811 0-1.376.144-1.696.432a1.406 1.406 0 0 0-.464 1.072c0 .48.187.864.56 1.152.373.288.896.432 1.568.432.64 0 1.189-.144 1.648-.432a2.556 2.556 0 0 0 1.024-1.28l.256.784c-.213.555-.587.997-1.12 1.328-.523.331-1.184.496-1.984.496Zm11.678-8.56c.682 0 1.28.133 1.792.4.522.256.928.651 1.216 1.184.298.533.448 1.205.448 2.016v4.88h-1.136v-4.768c0-.885-.224-1.552-.672-2-.438-.459-1.056-.688-1.856-.688-.598 0-1.12.123-1.568.368a2.464 2.464 0 0 0-1.024 1.04c-.235.448-.352.992-.352 1.632v4.416h-1.136v-8.4h1.088v2.304l-.176-.432a3.007 3.007 0 0 1 1.28-1.424c.586-.352 1.285-.528 2.096-.528Zm10.188 8.56c-.8 0-1.52-.181-2.16-.544a3.958 3.958 0 0 1-1.488-1.504c-.363-.651-.544-1.397-.544-2.24 0-.853.181-1.6.544-2.24a3.841 3.841 0 0 1 1.488-1.488c.64-.363 1.36-.544 2.16-.544.736 0 1.392.165 1.968.496.587.331 1.051.816 1.392 1.456.352.629.528 1.403.528 2.32 0 .907-.171 1.68-.512 2.32a3.632 3.632 0 0 1-1.392 1.472c-.576.331-1.237.496-1.984.496Zm.08-1.008c.597 0 1.131-.133 1.6-.4.48-.277.853-.661 1.12-1.152.277-.501.416-1.077.416-1.728 0-.661-.139-1.237-.416-1.728a2.804 2.804 0 0 0-1.12-1.136 3.088 3.088 0 0 0-1.6-.416c-.587 0-1.115.139-1.584.416a2.94 2.94 0 0 0-1.12 1.136c-.277.491-.416 1.067-.416 1.728 0 .651.139 1.227.416 1.728.277.491.651.875 1.12 1.152.469.267.997.4 1.584.4Zm3.168.928v-2.528l.112-1.696-.16-1.696v-5.952h1.136V369.5h-1.088Zm11.735.08c-.789 0-1.397-.213-1.824-.64-.426-.427-.64-1.029-.64-1.808v-7.888h1.136v7.824c0 .491.123.869.368 1.136.256.267.619.4 1.088.4.502 0 .918-.144 1.248-.432l.4.816a2.088 2.088 0 0 1-.816.448 3.217 3.217 0 0 1-.96.144Zm-3.968-7.536v-.944h5.2v.944h-5.2Zm11.404 7.536c-.875 0-1.643-.181-2.304-.544a4.076 4.076 0 0 1-1.552-1.52c-.374-.651-.56-1.392-.56-2.224 0-.832.176-1.568.528-2.208a3.982 3.982 0 0 1 1.472-1.504 4.062 4.062 0 0 1 2.112-.56c.789 0 1.488.181 2.096.544a3.734 3.734 0 0 1 1.456 1.504c.352.64.528 1.381.528 2.224 0 .053-.006.112-.016.176v.176h-7.312v-.848h6.704l-.448.336c0-.608-.134-1.147-.4-1.616a2.817 2.817 0 0 0-1.056-1.12c-.448-.267-.966-.4-1.552-.4-.576 0-1.094.133-1.552.4a2.78 2.78 0 0 0-1.072 1.12c-.256.48-.384 1.029-.384 1.648v.176c0 .64.138 1.205.416 1.696.288.48.682.859 1.184 1.136.512.267 1.093.4 1.744.4a3.69 3.69 0 0 0 1.424-.272 2.962 2.962 0 0 0 1.152-.832l.64.736a3.603 3.603 0 0 1-1.408 1.024 4.671 4.671 0 0 1-1.84.352Zm9.896 0c-.832 0-1.579-.181-2.24-.544a4.112 4.112 0 0 1-1.536-1.52c-.374-.651-.56-1.392-.56-2.224 0-.843.186-1.584.56-2.224a4 4 0 0 1 1.536-1.504c.661-.363 1.408-.544 2.24-.544.714 0 1.36.139 1.936.416a3.135 3.135 0 0 1 1.36 1.248l-.848.576a2.67 2.67 0 0 0-1.072-.944 3.2 3.2 0 0 0-1.392-.304c-.598 0-1.136.139-1.616.416-.48.267-.859.645-1.136 1.136-.278.491-.416 1.067-.416 1.728s.138 1.237.416 1.728c.277.491.656.875 1.136 1.152.48.267 1.018.4 1.616.4a3.2 3.2 0 0 0 1.392-.304 2.712 2.712 0 0 0 1.072-.928l.848.576c-.331.544-.784.96-1.36 1.248-.576.277-1.222.416-1.936.416Zm10.01-8.56c.683 0 1.28.133 1.792.4.523.256.928.651 1.216 1.184.299.533.448 1.205.448 2.016v4.88h-1.136v-4.768c0-.885-.224-1.552-.672-2-.437-.459-1.056-.688-1.856-.688-.597 0-1.12.123-1.568.368a2.476 2.476 0 0 0-1.024 1.04c-.234.448-.352.992-.352 1.632v4.416h-1.136v-11.872h1.136v5.776l-.224-.432a3.017 3.017 0 0 1 1.28-1.424c.587-.352 1.286-.528 2.096-.528Zm11.133 0c.683 0 1.28.133 1.792.4.523.256.928.651 1.216 1.184.299.533.448 1.205.448 2.016v4.88h-1.136v-4.768c0-.885-.224-1.552-.672-2-.437-.459-1.056-.688-1.856-.688-.597 0-1.12.123-1.568.368a2.47 2.47 0 0 0-1.024 1.04c-.235.448-.352.992-.352 1.632v4.416h-1.136v-8.4h1.088v2.304l-.176-.432a3.012 3.012 0 0 1 1.28-1.424c.587-.352 1.285-.528 2.096-.528Zm6.844 8.48v-8.4h1.136v8.4h-1.136Zm.576-10.256a.805.805 0 0 1-.592-.24.786.786 0 0 1-.24-.576c0-.224.08-.411.24-.56.16-.16.358-.24.592-.24.235 0 .432.075.592.224.16.149.24.336.24.56 0 .235-.08.432-.24.592a.77.77 0 0 1-.592.24Zm7.529 10.336c-.832 0-1.578-.181-2.24-.544a4.126 4.126 0 0 1-1.536-1.52c-.373-.651-.56-1.392-.56-2.224 0-.843.187-1.584.56-2.224a4.013 4.013 0 0 1 1.536-1.504c.662-.363 1.408-.544 2.24-.544.715 0 1.36.139 1.936.416a3.13 3.13 0 0 1 1.36 1.248l-.848.576a2.663 2.663 0 0 0-1.072-.944 3.194 3.194 0 0 0-1.392-.304c-.597 0-1.136.139-1.616.416-.48.267-.858.645-1.136 1.136-.277.491-.416 1.067-.416 1.728s.139 1.237.416 1.728c.278.491.656.875 1.136 1.152.48.267 1.019.4 1.616.4.502 0 .966-.101 1.392-.304a2.705 2.705 0 0 0 1.072-.928l.848.576c-.33.544-.784.96-1.36 1.248-.576.277-1.221.416-1.936.416Zm11.112-.08v-1.856l-.048-.304v-3.104c0-.715-.203-1.264-.608-1.648-.395-.384-.987-.576-1.776-.576a4.45 4.45 0 0 0-1.552.272 3.934 3.934 0 0 0-1.248.72l-.512-.848c.427-.363.939-.64 1.536-.832a5.827 5.827 0 0 1 1.888-.304c1.088 0 1.925.272 2.512.816.597.533.896 1.349.896 2.448v5.216h-1.088Zm-2.896.08c-.629 0-1.179-.101-1.648-.304-.459-.213-.811-.501-1.056-.864a2.28 2.28 0 0 1-.368-1.28c0-.437.101-.832.304-1.184.213-.363.555-.651 1.024-.864.48-.224 1.12-.336 1.92-.336h2.896v.848h-2.864c-.811 0-1.376.144-1.696.432a1.406 1.406 0 0 0-.464 1.072c0 .48.187.864.56 1.152.373.288.896.432 1.568.432.64 0 1.189-.144 1.648-.432a2.556 2.556 0 0 0 1.024-1.28l.256.784c-.213.555-.587.997-1.12 1.328-.523.331-1.184.496-1.984.496Zm7.389-.08v-11.872h1.136V369.5h-1.136ZM70.152 393.58c-.875 0-1.643-.181-2.304-.544a4.083 4.083 0 0 1-1.552-1.52c-.373-.651-.56-1.392-.56-2.224 0-.832.176-1.568.528-2.208a3.99 3.99 0 0 1 1.472-1.504 4.064 4.064 0 0 1 2.112-.56c.79 0 1.488.181 2.096.544a3.73 3.73 0 0 1 1.456 1.504c.352.64.528 1.381.528 2.224 0 .053-.005.112-.016.176v.176H66.6v-.848h6.704l-.448.336c0-.608-.133-1.147-.4-1.616a2.817 2.817 0 0 0-1.056-1.12c-.448-.267-.965-.4-1.552-.4-.576 0-1.093.133-1.552.4-.459.267-.816.64-1.072 1.12-.256.48-.384 1.029-.384 1.648v.176c0 .64.139 1.205.416 1.696.288.48.683.859 1.184 1.136.512.267 1.093.4 1.744.4.512 0 .987-.091 1.424-.272a2.962 2.962 0 0 0 1.152-.832l.64.736a3.596 3.596 0 0 1-1.408 1.024 4.67 4.67 0 0 1-1.84.352Zm9.752 0c-.8 0-1.52-.181-2.16-.544a3.954 3.954 0 0 1-1.488-1.504c-.362-.651-.544-1.397-.544-2.24 0-.853.182-1.6.544-2.24a3.837 3.837 0 0 1 1.488-1.488c.64-.363 1.36-.544 2.16-.544.736 0 1.392.165 1.968.496.587.331 1.05.816 1.392 1.456.352.629.528 1.403.528 2.32 0 .907-.17 1.68-.512 2.32a3.637 3.637 0 0 1-1.392 1.472c-.576.331-1.237.496-1.984.496Zm.08-1.008c.598 0 1.13-.133 1.6-.4.48-.277.854-.661 1.12-1.152.278-.501.416-1.077.416-1.728 0-.661-.138-1.237-.416-1.728a2.8 2.8 0 0 0-1.12-1.136 3.088 3.088 0 0 0-1.6-.416c-.586 0-1.114.139-1.584.416a2.94 2.94 0 0 0-1.12 1.136c-.277.491-.416 1.067-.416 1.728 0 .651.139 1.227.416 1.728.278.491.65.875 1.12 1.152.47.267.998.4 1.584.4Zm3.168.928v-2.528l.112-1.696-.16-1.696v-5.952h1.136V393.5h-1.088Zm8.044.08c-.715 0-1.339-.133-1.872-.4a2.886 2.886 0 0 1-1.248-1.2c-.288-.533-.432-1.2-.432-2v-4.88h1.136v4.752c0 .896.219 1.573.656 2.032.448.448 1.072.672 1.872.672.587 0 1.093-.117 1.52-.352.437-.245.768-.597.992-1.056.235-.459.352-1.008.352-1.648v-4.4h1.136v8.4H94.22v-2.304l.176.416a3.136 3.136 0 0 1-1.248 1.456c-.555.341-1.205.512-1.952.512Zm11.086 0c-.832 0-1.579-.181-2.24-.544a4.116 4.116 0 0 1-1.536-1.52c-.373-.651-.56-1.392-.56-2.224 0-.843.187-1.584.56-2.224a4.003 4.003 0 0 1 1.536-1.504c.661-.363 1.408-.544 2.24-.544.715 0 1.36.139 1.936.416a3.135 3.135 0 0 1 1.36 1.248l-.848.576a2.663 2.663 0 0 0-1.072-.944 3.2 3.2 0 0 0-1.392-.304c-.597 0-1.136.139-1.616.416-.48.267-.859.645-1.136 1.136-.277.491-.416 1.067-.416 1.728s.139 1.237.416 1.728c.277.491.656.875 1.136 1.152.48.267 1.019.4 1.616.4a3.2 3.2 0 0 0 1.392-.304 2.705 2.705 0 0 0 1.072-.928l.848.576c-.331.544-.784.96-1.36 1.248-.576.277-1.221.416-1.936.416Zm11.112-.08v-1.856l-.048-.304v-3.104c0-.715-.203-1.264-.608-1.648-.395-.384-.987-.576-1.776-.576-.544 0-1.062.091-1.552.272a3.934 3.934 0 0 0-1.248.72l-.512-.848c.426-.363.938-.64 1.536-.832a5.823 5.823 0 0 1 1.888-.304c1.088 0 1.925.272 2.512.816.597.533.896 1.349.896 2.448v5.216h-1.088Zm-2.896.08c-.63 0-1.179-.101-1.648-.304-.459-.213-.811-.501-1.056-.864a2.272 2.272 0 0 1-.368-1.28c0-.437.101-.832.304-1.184.213-.363.554-.651 1.024-.864.48-.224 1.12-.336 1.92-.336h2.896v.848h-2.864c-.811 0-1.376.144-1.696.432-.31.288-.464.645-.464 1.072 0 .48.186.864.56 1.152.373.288.896.432 1.568.432.64 0 1.189-.144 1.648-.432.469-.299.81-.725 1.024-1.28l.256.784a2.663 2.663 0 0 1-1.12 1.328c-.523.331-1.184.496-1.984.496Zm10.045 0c-.789 0-1.397-.213-1.824-.64-.427-.427-.64-1.029-.64-1.808v-7.888h1.136v7.824c0 .491.123.869.368 1.136.256.267.619.4 1.088.4.501 0 .917-.144 1.248-.432l.4.816a2.088 2.088 0 0 1-.816.448 3.217 3.217 0 0 1-.96.144Zm-3.968-7.536v-.944h5.2v.944h-5.2Zm8.132 7.456v-8.4h1.136v8.4h-1.136Zm.576-10.256a.804.804 0 0 1-.592-.24.786.786 0 0 1-.24-.576c0-.224.08-.411.24-.56.16-.16.357-.24.592-.24s.432.075.592.224c.16.149.24.336.24.56 0 .235-.08.432-.24.592a.772.772 0 0 1-.592.24Zm7.465 10.336c-.811 0-1.541-.181-2.192-.544a4.15 4.15 0 0 1-1.52-1.52c-.373-.651-.56-1.392-.56-2.224 0-.843.187-1.584.56-2.224.373-.64.88-1.141 1.52-1.504s1.371-.544 2.192-.544c.832 0 1.568.181 2.208.544a3.89 3.89 0 0 1 1.52 1.504c.373.64.56 1.381.56 2.224 0 .832-.187 1.573-.56 2.224a3.998 3.998 0 0 1-1.52 1.52c-.651.363-1.387.544-2.208.544Zm0-1.008c.608 0 1.147-.133 1.616-.4a2.942 2.942 0 0 0 1.104-1.152c.277-.501.416-1.077.416-1.728 0-.661-.139-1.237-.416-1.728a2.835 2.835 0 0 0-1.104-1.136 3.088 3.088 0 0 0-1.6-.416c-.597 0-1.131.139-1.6.416a2.94 2.94 0 0 0-1.12 1.136c-.277.491-.416 1.067-.416 1.728 0 .651.139 1.227.416 1.728.277.491.651.875 1.12 1.152.469.267.997.4 1.584.4Zm11.215-7.552c.683 0 1.28.133 1.792.4.523.256.928.651 1.216 1.184.299.533.448 1.205.448 2.016v4.88h-1.136v-4.768c0-.885-.224-1.552-.672-2-.437-.459-1.056-.688-1.856-.688-.597 0-1.12.123-1.568.368a2.476 2.476 0 0 0-1.024 1.04c-.234.448-.352.992-.352 1.632v4.416h-1.136v-8.4h1.088v2.304l-.176-.432a3.017 3.017 0 0 1 1.28-1.424c.587-.352 1.286-.528 2.096-.528Zm16.616 8.48v-1.856l-.048-.304v-3.104c0-.715-.202-1.264-.608-1.648-.394-.384-.986-.576-1.776-.576a4.45 4.45 0 0 0-1.552.272c-.49.181-.906.421-1.248.72l-.512-.848c.427-.363.939-.64 1.536-.832a5.831 5.831 0 0 1 1.888-.304c1.088 0 1.926.272 2.512.816.598.533.896 1.349.896 2.448v5.216h-1.088Zm-2.896.08c-.629 0-1.178-.101-1.648-.304-.458-.213-.81-.501-1.056-.864a2.28 2.28 0 0 1-.368-1.28c0-.437.102-.832.304-1.184.214-.363.555-.651 1.024-.864.48-.224 1.12-.336 1.92-.336h2.896v.848h-2.864c-.81 0-1.376.144-1.696.432a1.406 1.406 0 0 0-.464 1.072c0 .48.187.864.56 1.152.374.288.896.432 1.568.432.64 0 1.19-.144 1.648-.432a2.55 2.55 0 0 0 1.024-1.28l.256.784a2.653 2.653 0 0 1-1.12 1.328c-.522.331-1.184.496-1.984.496Zm11.678-8.56c.682 0 1.28.133 1.792.4.522.256.928.651 1.216 1.184.298.533.448 1.205.448 2.016v4.88h-1.136v-4.768c0-.885-.224-1.552-.672-2-.438-.459-1.056-.688-1.856-.688-.598 0-1.12.123-1.568.368a2.464 2.464 0 0 0-1.024 1.04c-.235.448-.352.992-.352 1.632v4.416h-1.136v-8.4h1.088v2.304l-.176-.432a3.007 3.007 0 0 1 1.28-1.424c.586-.352 1.285-.528 2.096-.528Zm10.188 8.56c-.8 0-1.52-.181-2.16-.544a3.958 3.958 0 0 1-1.488-1.504c-.362-.651-.544-1.397-.544-2.24 0-.853.182-1.6.544-2.24a3.841 3.841 0 0 1 1.488-1.488c.64-.363 1.36-.544 2.16-.544.736 0 1.392.165 1.968.496.587.331 1.051.816 1.392 1.456.352.629.528 1.403.528 2.32 0 .907-.17 1.68-.512 2.32a3.632 3.632 0 0 1-1.392 1.472c-.576.331-1.237.496-1.984.496Zm.08-1.008c.598 0 1.131-.133 1.6-.4a2.9 2.9 0 0 0 1.12-1.152c.278-.501.416-1.077.416-1.728 0-.661-.138-1.237-.416-1.728a2.798 2.798 0 0 0-1.12-1.136 3.086 3.086 0 0 0-1.6-.416c-.586 0-1.114.139-1.584.416a2.947 2.947 0 0 0-1.12 1.136c-.277.491-.416 1.067-.416 1.728 0 .651.139 1.227.416 1.728a3.06 3.06 0 0 0 1.12 1.152c.47.267.998.4 1.584.4Zm3.168.928v-2.528l.112-1.696-.16-1.696v-5.952h1.136V393.5h-1.088Zm11.736.08c-.79 0-1.398-.213-1.824-.64-.427-.427-.64-1.029-.64-1.808v-7.888h1.136v7.824c0 .491.122.869.368 1.136.256.267.618.4 1.088.4.501 0 .917-.144 1.248-.432l.4.816a2.088 2.088 0 0 1-.816.448c-.31.096-.63.144-.96.144Zm-3.968-7.536v-.944h5.2v.944h-5.2Zm8.132 7.456v-8.4h1.088v2.288l-.112-.4c.234-.64.629-1.125 1.184-1.456.554-.341 1.242-.512 2.064-.512v1.104h-.128a.516.516 0 0 0-.128-.016c-.886 0-1.579.272-2.08.816-.502.533-.752 1.296-.752 2.288v4.288h-1.136Zm11.255 0v-1.856l-.048-.304v-3.104c0-.715-.202-1.264-.608-1.648-.394-.384-.986-.576-1.776-.576a4.45 4.45 0 0 0-1.552.272c-.49.181-.906.421-1.248.72l-.512-.848c.427-.363.939-.64 1.536-.832a5.831 5.831 0 0 1 1.888-.304c1.088 0 1.926.272 2.512.816.598.533.896 1.349.896 2.448v5.216h-1.088Zm-2.896.08c-.629 0-1.178-.101-1.648-.304-.458-.213-.81-.501-1.056-.864a2.28 2.28 0 0 1-.368-1.28c0-.437.102-.832.304-1.184.214-.363.555-.651 1.024-.864.48-.224 1.12-.336 1.92-.336h2.896v.848h-2.864c-.81 0-1.376.144-1.696.432a1.406 1.406 0 0 0-.464 1.072c0 .48.187.864.56 1.152.374.288.896.432 1.568.432.64 0 1.19-.144 1.648-.432a2.55 2.55 0 0 0 1.024-1.28l.256.784a2.653 2.653 0 0 1-1.12 1.328c-.522.331-1.184.496-1.984.496Zm7.39-.08v-8.4h1.136v8.4h-1.136Zm.576-10.256a.804.804 0 0 1-.592-.24.786.786 0 0 1-.24-.576c0-.224.08-.411.24-.56.16-.16.357-.24.592-.24s.432.075.592.224c.16.149.24.336.24.56 0 .235-.08.432-.24.592a.772.772 0 0 1-.592.24Zm8.329 1.776c.682 0 1.28.133 1.792.4.522.256.928.651 1.216 1.184.298.533.448 1.205.448 2.016v4.88h-1.136v-4.768c0-.885-.224-1.552-.672-2-.438-.459-1.056-.688-1.856-.688-.598 0-1.12.123-1.568.368a2.464 2.464 0 0 0-1.024 1.04c-.235.448-.352.992-.352 1.632v4.416h-1.136v-8.4h1.088v2.304l-.176-.432a3.007 3.007 0 0 1 1.28-1.424c.586-.352 1.285-.528 2.096-.528Zm6.844 8.48v-8.4h1.136v8.4h-1.136Zm.576-10.256a.805.805 0 0 1-.592-.24.786.786 0 0 1-.24-.576c0-.224.08-.411.24-.56.16-.16.358-.24.592-.24.235 0 .432.075.592.224.16.149.24.336.24.56 0 .235-.08.432-.24.592a.77.77 0 0 1-.592.24Zm8.329 1.776c.683 0 1.28.133 1.792.4.523.256.928.651 1.216 1.184.299.533.448 1.205.448 2.016v4.88h-1.136v-4.768c0-.885-.224-1.552-.672-2-.437-.459-1.056-.688-1.856-.688-.597 0-1.12.123-1.568.368a2.47 2.47 0 0 0-1.024 1.04c-.235.448-.352.992-.352 1.632v4.416h-1.136v-8.4h1.088v2.304l-.176-.432a3.012 3.012 0 0 1 1.28-1.424c.587-.352 1.285-.528 2.096-.528Zm10.429 11.664a7.238 7.238 0 0 1-2.208-.336c-.704-.224-1.275-.544-1.712-.96l.576-.864c.394.352.88.629 1.456.832.586.213 1.205.32 1.856.32 1.066 0 1.85-.251 2.352-.752.501-.491.752-1.259.752-2.304v-2.096l.16-1.44-.112-1.44V385.1h1.088v7.376c0 1.451-.358 2.512-1.072 3.184-.704.683-1.75 1.024-3.136 1.024Zm-.208-3.504c-.8 0-1.52-.171-2.16-.512a3.983 3.983 0 0 1-1.52-1.456c-.363-.619-.544-1.328-.544-2.128s.181-1.504.544-2.112a3.864 3.864 0 0 1 1.52-1.44c.64-.341 1.36-.512 2.16-.512.746 0 1.418.155 2.016.464a3.464 3.464 0 0 1 1.424 1.376c.352.608.528 1.349.528 2.224 0 .875-.176 1.616-.528 2.224a3.575 3.575 0 0 1-1.424 1.392c-.598.32-1.27.48-2.016.48Zm.112-1.008c.618 0 1.168-.128 1.648-.384.48-.267.858-.629 1.136-1.088.277-.469.416-1.008.416-1.616 0-.608-.139-1.141-.416-1.6a2.894 2.894 0 0 0-1.136-1.072c-.48-.267-1.03-.4-1.648-.4-.608 0-1.158.133-1.648.4-.48.256-.859.613-1.136 1.072-.267.459-.4.992-.4 1.6 0 .608.133 1.147.4 1.616.277.459.656.821 1.136 1.088.49.256 1.04.384 1.648.384Zm12.484 1.328v-9.456c0-.747.219-1.349.656-1.808.438-.459 1.067-.688 1.888-.688.32 0 .63.043.928.128.299.085.55.219.752.4l-.384.848a1.493 1.493 0 0 0-.56-.304 2.056 2.056 0 0 0-.688-.112c-.48 0-.848.133-1.104.4-.256.267-.384.661-.384 1.184v1.28l.032.528v7.6h-1.136Zm-1.504-7.456v-.944h5.2v.944h-5.2Zm10.337 7.536c-.81 0-1.541-.181-2.192-.544a4.157 4.157 0 0 1-1.52-1.52c-.373-.651-.56-1.392-.56-2.224 0-.843.187-1.584.56-2.224.374-.64.88-1.141 1.52-1.504s1.371-.544 2.192-.544c.832 0 1.568.181 2.208.544a3.884 3.884 0 0 1 1.52 1.504c.374.64.56 1.381.56 2.224 0 .832-.186 1.573-.56 2.224a3.991 3.991 0 0 1-1.52 1.52c-.65.363-1.386.544-2.208.544Zm0-1.008c.608 0 1.147-.133 1.616-.4.47-.277.838-.661 1.104-1.152.278-.501.416-1.077.416-1.728 0-.661-.138-1.237-.416-1.728a2.822 2.822 0 0 0-1.104-1.136 3.086 3.086 0 0 0-1.6-.416 3.09 3.09 0 0 0-1.6.416 2.947 2.947 0 0 0-1.12 1.136c-.277.491-.416 1.067-.416 1.728 0 .651.139 1.227.416 1.728a3.06 3.06 0 0 0 1.12 1.152c.47.267.998.4 1.584.4Zm6.928.928v-8.4h1.088v2.288l-.112-.4c.234-.64.629-1.125 1.184-1.456.554-.341 1.242-.512 2.064-.512v1.104h-.128a.516.516 0 0 0-.128-.016c-.886 0-1.579.272-2.08.816-.502.533-.752 1.296-.752 2.288v4.288h-1.136Zm14.673.08c-.811 0-1.541-.181-2.192-.544a4.15 4.15 0 0 1-1.52-1.52c-.373-.651-.56-1.392-.56-2.224 0-.843.187-1.584.56-2.224.373-.64.88-1.141 1.52-1.504s1.371-.544 2.192-.544c.832 0 1.568.181 2.208.544a3.89 3.89 0 0 1 1.52 1.504c.373.64.56 1.381.56 2.224 0 .832-.187 1.573-.56 2.224a3.998 3.998 0 0 1-1.52 1.52c-.651.363-1.387.544-2.208.544Zm0-1.008c.608 0 1.147-.133 1.616-.4a2.942 2.942 0 0 0 1.104-1.152c.277-.501.416-1.077.416-1.728 0-.661-.139-1.237-.416-1.728a2.835 2.835 0 0 0-1.104-1.136 3.088 3.088 0 0 0-1.6-.416c-.597 0-1.131.139-1.6.416a2.94 2.94 0 0 0-1.12 1.136c-.277.491-.416 1.067-.416 1.728 0 .651.139 1.227.416 1.728.277.491.651.875 1.12 1.152.469.267.997.4 1.584.4Zm7.119.928v-9.456c0-.747.219-1.349.656-1.808.438-.459 1.067-.688 1.888-.688.32 0 .63.043.928.128.299.085.55.219.752.4l-.384.848a1.493 1.493 0 0 0-.56-.304 2.056 2.056 0 0 0-.688-.112c-.48 0-.848.133-1.104.4-.256.267-.384.661-.384 1.184v1.28l.032.528v7.6h-1.136Zm-1.504-7.456v-.944h5.2v.944h-5.2Zm7.246 7.456v-9.456c0-.747.219-1.349.656-1.808.438-.459 1.067-.688 1.888-.688.32 0 .63.043.928.128.299.085.55.219.752.4l-.384.848a1.493 1.493 0 0 0-.56-.304 2.056 2.056 0 0 0-.688-.112c-.48 0-.848.133-1.104.4-.256.267-.384.661-.384 1.184v1.28l.032.528v7.6h-1.136Zm-1.504-7.456v-.944h5.2v.944h-5.2Zm6.736 7.456v-8.4h1.136v8.4h-1.136Zm.576-10.256a.805.805 0 0 1-.592-.24.786.786 0 0 1-.24-.576c0-.224.08-.411.24-.56.16-.16.358-.24.592-.24.235 0 .432.075.592.224.16.149.24.336.24.56 0 .235-.08.432-.24.592a.77.77 0 0 1-.592.24Zm7.558 10.336c-.832 0-1.578-.181-2.24-.544a4.126 4.126 0 0 1-1.536-1.52c-.373-.651-.56-1.392-.56-2.224 0-.843.187-1.584.56-2.224a4.013 4.013 0 0 1 1.536-1.504c.662-.363 1.408-.544 2.24-.544.715 0 1.36.139 1.936.416a3.13 3.13 0 0 1 1.36 1.248l-.848.576a2.663 2.663 0 0 0-1.072-.944 3.194 3.194 0 0 0-1.392-.304c-.597 0-1.136.139-1.616.416-.48.267-.858.645-1.136 1.136-.277.491-.416 1.067-.416 1.728s.139 1.237.416 1.728c.278.491.656.875 1.136 1.152.48.267 1.019.4 1.616.4.502 0 .966-.101 1.392-.304a2.705 2.705 0 0 0 1.072-.928l.848.576c-.33.544-.784.96-1.36 1.248-.576.277-1.221.416-1.936.416Zm9.275 0c-.874 0-1.642-.181-2.304-.544a4.09 4.09 0 0 1-1.552-1.52c-.373-.651-.56-1.392-.56-2.224 0-.832.176-1.568.528-2.208a3.997 3.997 0 0 1 1.472-1.504 4.067 4.067 0 0 1 2.112-.56c.79 0 1.488.181 2.096.544a3.728 3.728 0 0 1 1.456 1.504c.352.64.528 1.381.528 2.224 0 .053-.005.112-.016.176v.176h-7.312v-.848h6.704l-.448.336c0-.608-.133-1.147-.4-1.616a2.817 2.817 0 0 0-1.056-1.12c-.448-.267-.965-.4-1.552-.4-.576 0-1.093.133-1.552.4-.458.267-.816.64-1.072 1.12-.256.48-.384 1.029-.384 1.648v.176c0 .64.139 1.205.416 1.696.288.48.683.859 1.184 1.136.512.267 1.094.4 1.744.4.512 0 .987-.091 1.424-.272a2.962 2.962 0 0 0 1.152-.832l.64.736a3.588 3.588 0 0 1-1.408 1.024 4.668 4.668 0 0 1-1.84.352Zm6.408-.08v-8.4h1.088v2.288l-.112-.4c.235-.64.63-1.125 1.184-1.456.555-.341 1.243-.512 2.064-.512v1.104h-.128a.505.505 0 0 0-.128-.016c-.885 0-1.578.272-2.08.816-.501.533-.752 1.296-.752 2.288v4.288h-1.136Zm8.967.08a6.606 6.606 0 0 1-1.968-.288c-.619-.203-1.104-.453-1.456-.752l.512-.896c.341.256.779.48 1.312.672a5.19 5.19 0 0 0 1.68.272c.8 0 1.376-.123 1.728-.368.352-.256.528-.592.528-1.008 0-.309-.101-.549-.304-.72-.192-.181-.448-.315-.768-.4a8.44 8.44 0 0 0-1.072-.24 23.46 23.46 0 0 1-1.184-.224 4.551 4.551 0 0 1-1.056-.368c-.32-.171-.581-.4-.784-.688-.192-.288-.288-.672-.288-1.152 0-.459.128-.869.384-1.232s.629-.645 1.12-.848c.501-.213 1.109-.32 1.824-.32.544 0 1.088.075 1.632.224.544.139.992.325 1.344.56l-.496.912a3.692 3.692 0 0 0-1.2-.544 4.822 4.822 0 0 0-1.28-.176c-.757 0-1.317.133-1.68.4-.352.256-.528.587-.528.992 0 .32.096.571.288.752.203.181.464.325.784.432.331.096.688.176 1.072.24.395.064.784.144 1.168.24.395.085.752.208 1.072.368.331.149.592.368.784.656.203.277.304.645.304 1.104 0 .491-.139.917-.416 1.28-.267.352-.661.629-1.184.832-.512.192-1.136.288-1.872.288Zm13.808 0c-.811 0-1.541-.181-2.192-.544a4.15 4.15 0 0 1-1.52-1.52c-.373-.651-.56-1.392-.56-2.224 0-.843.187-1.584.56-2.224.373-.64.88-1.141 1.52-1.504s1.371-.544 2.192-.544c.832 0 1.568.181 2.208.544a3.89 3.89 0 0 1 1.52 1.504c.373.64.56 1.381.56 2.224 0 .832-.187 1.573-.56 2.224a3.998 3.998 0 0 1-1.52 1.52c-.651.363-1.387.544-2.208.544Zm0-1.008c.608 0 1.147-.133 1.616-.4a2.942 2.942 0 0 0 1.104-1.152c.277-.501.416-1.077.416-1.728 0-.661-.139-1.237-.416-1.728a2.835 2.835 0 0 0-1.104-1.136 3.088 3.088 0 0 0-1.6-.416c-.597 0-1.131.139-1.6.416a2.94 2.94 0 0 0-1.12 1.136c-.277.491-.416 1.067-.416 1.728 0 .651.139 1.227.416 1.728.277.491.651.875 1.12 1.152.469.267.997.4 1.584.4Zm11.215-7.552c.683 0 1.28.133 1.792.4.523.256.928.651 1.216 1.184.299.533.448 1.205.448 2.016v4.88h-1.136v-4.768c0-.885-.224-1.552-.672-2-.437-.459-1.056-.688-1.856-.688-.597 0-1.12.123-1.568.368a2.476 2.476 0 0 0-1.024 1.04c-.234.448-.352.992-.352 1.632v4.416h-1.136v-8.4h1.088v2.304l-.176-.432a3.017 3.017 0 0 1 1.28-1.424c.587-.352 1.286-.528 2.096-.528Zm11.352 8.48v-8.4h1.136v8.4h-1.136Zm.576-10.256a.805.805 0 0 1-.592-.24.786.786 0 0 1-.24-.576c0-.224.08-.411.24-.56.16-.16.358-.24.592-.24.235 0 .432.075.592.224.16.149.24.336.24.56 0 .235-.08.432-.24.592a.77.77 0 0 1-.592.24Zm8.329 1.776c.683 0 1.28.133 1.792.4.523.256.928.651 1.216 1.184.299.533.448 1.205.448 2.016v4.88h-1.136v-4.768c0-.885-.224-1.552-.672-2-.437-.459-1.056-.688-1.856-.688-.597 0-1.12.123-1.568.368a2.476 2.476 0 0 0-1.024 1.04c-.234.448-.352.992-.352 1.632v4.416h-1.136v-8.4h1.088v2.304l-.176-.432a3.017 3.017 0 0 1 1.28-1.424c.587-.352 1.286-.528 2.096-.528Zm8.848 8.48-3.728-8.4h1.184l3.424 7.792h-.56l3.472-7.792h1.12l-3.744 8.4h-1.168Zm10.166.08c-.875 0-1.643-.181-2.304-.544a4.083 4.083 0 0 1-1.552-1.52c-.373-.651-.56-1.392-.56-2.224 0-.832.176-1.568.528-2.208a3.99 3.99 0 0 1 1.472-1.504 4.062 4.062 0 0 1 2.112-.56c.789 0 1.488.181 2.096.544a3.728 3.728 0 0 1 1.456 1.504c.352.64.528 1.381.528 2.224 0 .053-.005.112-.016.176v.176h-7.312v-.848h6.704l-.448.336c0-.608-.133-1.147-.4-1.616a2.817 2.817 0 0 0-1.056-1.12c-.448-.267-.965-.4-1.552-.4-.576 0-1.093.133-1.552.4a2.78 2.78 0 0 0-1.072 1.12c-.256.48-.384 1.029-.384 1.648v.176c0 .64.139 1.205.416 1.696.288.48.683.859 1.184 1.136.512.267 1.093.4 1.744.4.512 0 .987-.091 1.424-.272a2.962 2.962 0 0 0 1.152-.832l.64.736a3.596 3.596 0 0 1-1.408 1.024 4.671 4.671 0 0 1-1.84.352Zm8.664 0a6.606 6.606 0 0 1-1.968-.288c-.618-.203-1.104-.453-1.456-.752l.512-.896c.342.256.779.48 1.312.672a5.198 5.198 0 0 0 1.68.272c.8 0 1.376-.123 1.728-.368.352-.256.528-.592.528-1.008 0-.309-.101-.549-.304-.72-.192-.181-.448-.315-.768-.4a8.44 8.44 0 0 0-1.072-.24 23.674 23.674 0 0 1-1.184-.224 4.551 4.551 0 0 1-1.056-.368c-.32-.171-.581-.4-.784-.688-.192-.288-.288-.672-.288-1.152 0-.459.128-.869.384-1.232s.63-.645 1.12-.848c.502-.213 1.11-.32 1.824-.32.544 0 1.088.075 1.632.224.544.139.992.325 1.344.56l-.496.912a3.692 3.692 0 0 0-1.2-.544 4.817 4.817 0 0 0-1.28-.176c-.757 0-1.317.133-1.68.4-.352.256-.528.587-.528.992 0 .32.096.571.288.752.203.181.464.325.784.432.331.096.688.176 1.072.24.395.064.784.144 1.168.24.395.085.752.208 1.072.368.331.149.592.368.784.656.203.277.304.645.304 1.104 0 .491-.138.917-.416 1.28-.266.352-.661.629-1.184.832-.512.192-1.136.288-1.872.288Zm8.533 0c-.79 0-1.398-.213-1.824-.64-.427-.427-.64-1.029-.64-1.808v-7.888h1.136v7.824c0 .491.122.869.368 1.136.256.267.618.4 1.088.4.501 0 .917-.144 1.248-.432l.4.816a2.088 2.088 0 0 1-.816.448c-.31.096-.63.144-.96.144Zm-3.968-7.536v-.944h5.2v.944h-5.2Zm18.628-1.024c.682 0 1.274.133 1.776.4.512.256.906.651 1.184 1.184.288.533.432 1.205.432 2.016v4.88h-1.136v-4.768c0-.885-.214-1.552-.64-2-.416-.459-1.008-.688-1.776-.688-.576 0-1.078.123-1.504.368a2.424 2.424 0 0 0-.976 1.04c-.224.448-.336.992-.336 1.632v4.416h-1.136v-4.768c0-.885-.214-1.552-.64-2-.427-.459-1.024-.688-1.792-.688-.566 0-1.062.123-1.488.368a2.395 2.395 0 0 0-.992 1.04c-.224.448-.336.992-.336 1.632v4.416h-1.136v-8.4h1.088v2.272l-.176-.4a2.965 2.965 0 0 1 1.232-1.424c.576-.352 1.253-.528 2.032-.528.821 0 1.52.208 2.096.624.576.405.949 1.019 1.12 1.84l-.448-.176a3.278 3.278 0 0 1 1.296-1.648c.629-.427 1.381-.64 2.256-.64Zm10.36 8.56c-.874 0-1.642-.181-2.304-.544a4.09 4.09 0 0 1-1.552-1.52c-.373-.651-.56-1.392-.56-2.224 0-.832.176-1.568.528-2.208a3.997 3.997 0 0 1 1.472-1.504 4.067 4.067 0 0 1 2.112-.56c.79 0 1.488.181 2.096.544a3.728 3.728 0 0 1 1.456 1.504c.352.64.528 1.381.528 2.224 0 .053-.005.112-.016.176v.176h-7.312v-.848h6.704l-.448.336c0-.608-.133-1.147-.4-1.616a2.817 2.817 0 0 0-1.056-1.12c-.448-.267-.965-.4-1.552-.4-.576 0-1.093.133-1.552.4-.458.267-.816.64-1.072 1.12-.256.48-.384 1.029-.384 1.648v.176c0 .64.139 1.205.416 1.696.288.48.683.859 1.184 1.136.512.267 1.094.4 1.744.4.512 0 .987-.091 1.424-.272a2.962 2.962 0 0 0 1.152-.832l.64.736a3.588 3.588 0 0 1-1.408 1.024 4.668 4.668 0 0 1-1.84.352Zm10.697-8.56c.682 0 1.28.133 1.792.4.522.256.928.651 1.216 1.184.298.533.448 1.205.448 2.016v4.88h-1.136v-4.768c0-.885-.224-1.552-.672-2-.438-.459-1.056-.688-1.856-.688-.598 0-1.12.123-1.568.368a2.464 2.464 0 0 0-1.024 1.04c-.235.448-.352.992-.352 1.632v4.416h-1.136v-8.4h1.088v2.304l-.176-.432a3.007 3.007 0 0 1 1.28-1.424c.586-.352 1.285-.528 2.096-.528Zm9.5 8.56c-.789 0-1.397-.213-1.824-.64-.426-.427-.64-1.029-.64-1.808v-7.888h1.136v7.824c0 .491.123.869.368 1.136.256.267.619.4 1.088.4.502 0 .918-.144 1.248-.432l.4.816a2.088 2.088 0 0 1-.816.448 3.217 3.217 0 0 1-.96.144Zm-3.968-7.536v-.944h5.2v.944h-5.2Zm8.4 7.536a.83.83 0 0 1-.608-.256.88.88 0 0 1-.24-.624c0-.256.08-.464.24-.624a.86.86 0 0 1 .608-.24c.235 0 .432.08.592.24.171.16.256.368.256.624a.849.849 0 0 1-.256.624.778.778 0 0 1-.592.256Z" fill="#fff"/><rect x="747.5" y="324" width="142" height="38" rx="19" fill="#263D93"/><path d="M783.725 348.612a5.751 5.751 0 0 1-2.072-.364 5.088 5.088 0 0 1-1.638-1.05 5.081 5.081 0 0 1-1.078-1.596 5.015 5.015 0 0 1-.392-2.002c0-.728.131-1.395.392-2.002a4.818 4.818 0 0 1 1.092-1.582 4.804 4.804 0 0 1 1.638-1.05 5.568 5.568 0 0 1 2.072-.378 5.43 5.43 0 0 1 2.086.392 4.21 4.21 0 0 1 1.638 1.134l-.91.882a3.553 3.553 0 0 0-1.26-.868 3.826 3.826 0 0 0-1.498-.294c-.55 0-1.064.093-1.54.28a3.712 3.712 0 0 0-1.218.784 3.609 3.609 0 0 0-.812 1.204 3.94 3.94 0 0 0-.28 1.498c0 .541.094 1.045.28 1.512.196.457.467.854.812 1.19.346.336.752.597 1.218.784.476.187.99.28 1.54.28.532 0 1.032-.093 1.498-.28a3.637 3.637 0 0 0 1.26-.896l.91.882a4.34 4.34 0 0 1-1.638 1.148 5.466 5.466 0 0 1-2.1.392Zm10.33-.112v-1.568l-.07-.294v-2.674c0-.569-.168-1.008-.504-1.316-.327-.317-.822-.476-1.484-.476-.439 0-.868.075-1.288.224a3.21 3.21 0 0 0-1.064.574l-.56-1.008a3.97 3.97 0 0 1 1.372-.7 5.68 5.68 0 0 1 1.694-.252c1.017 0 1.801.247 2.352.742.55.495.826 1.251.826 2.268v4.48h-1.274Zm-2.436.084c-.551 0-1.036-.093-1.456-.28-.411-.187-.728-.443-.952-.77a1.998 1.998 0 0 1-.336-1.134c0-.401.093-.765.28-1.092.196-.327.508-.588.938-.784.438-.196 1.026-.294 1.764-.294h2.352v.966h-2.296c-.672 0-1.125.112-1.358.336-.234.224-.35.495-.35.812 0 .364.144.658.434.882.289.215.69.322 1.204.322.504 0 .942-.112 1.316-.336.382-.224.658-.551.826-.98l.266.924c-.178.439-.49.789-.938 1.05-.448.252-1.013.378-1.694.378Zm6.477-.084v-7.42h1.288v2.016l-.126-.504a2.282 2.282 0 0 1 1.036-1.176c.485-.271 1.083-.406 1.792-.406v1.302a1.058 1.058 0 0 0-.168-.014h-.14c-.719 0-1.288.215-1.708.644-.42.429-.63 1.05-.63 1.862v3.696h-1.344Zm9.162.084c-.793 0-1.493-.163-2.1-.49a3.6 3.6 0 0 1-1.4-1.344c-.327-.569-.49-1.223-.49-1.96 0-.737.159-1.391.476-1.96a3.503 3.503 0 0 1 1.33-1.33c.569-.327 1.209-.49 1.918-.49.719 0 1.353.159 1.904.476.551.317.98.765 1.288 1.344.317.569.476 1.237.476 2.002 0 .056-.005.121-.014.196 0 .075-.005.145-.014.21h-6.314v-.966h5.614l-.546.336a2.5 2.5 0 0 0-.294-1.274 2.181 2.181 0 0 0-.854-.868c-.355-.215-.77-.322-1.246-.322-.467 0-.882.107-1.246.322a2.155 2.155 0 0 0-.854.882 2.633 2.633 0 0 0-.308 1.288v.224c0 .495.112.938.336 1.33.233.383.555.681.966.896.411.215.882.322 1.414.322.439 0 .835-.075 1.19-.224.364-.149.681-.373.952-.672l.742.868a3.237 3.237 0 0 1-1.26.896 4.316 4.316 0 0 1-1.666.308Zm8.852 0c-.793 0-1.493-.163-2.1-.49a3.6 3.6 0 0 1-1.4-1.344c-.326-.569-.49-1.223-.49-1.96 0-.737.159-1.391.476-1.96a3.503 3.503 0 0 1 1.33-1.33 3.784 3.784 0 0 1 1.918-.49c.719 0 1.354.159 1.904.476.551.317.98.765 1.288 1.344.318.569.476 1.237.476 2.002 0 .056-.004.121-.014.196 0 .075-.004.145-.014.21h-6.314v-.966h5.614l-.546.336a2.48 2.48 0 0 0-.294-1.274 2.181 2.181 0 0 0-.854-.868c-.354-.215-.77-.322-1.246-.322-.466 0-.882.107-1.246.322a2.161 2.161 0 0 0-.854.882 2.633 2.633 0 0 0-.308 1.288v.224c0 .495.112.938.336 1.33.234.383.556.681.966.896.411.215.882.322 1.414.322.439 0 .836-.075 1.19-.224.364-.149.682-.373.952-.672l.742.868a3.237 3.237 0 0 1-1.26.896 4.312 4.312 0 0 1-1.666.308Zm5.549-.084v-7.42h1.288v2.016l-.126-.504c.205-.513.55-.905 1.036-1.176.485-.271 1.082-.406 1.792-.406v1.302a1.058 1.058 0 0 0-.168-.014h-.14c-.719 0-1.288.215-1.708.644-.42.429-.63 1.05-.63 1.862v3.696h-1.344Z" fill="#fff"/><path fill-rule="evenodd" clip-rule="evenodd" d="m850.265 337.822 5.877 1.037a.663.663 0 0 1 .538.768l-1.037 5.877a.662.662 0 1 1-1.306-.23l.759-4.301-9.553 6.689a.663.663 0 1 1-.76-1.087l9.552-6.688-4.301-.759a.662.662 0 1 1 .231-1.306Z" fill="#fff"/><path d="M767.32 385.82h3.37v1.26h-3.37v-1.26Zm.12 2.88h3.81v1.3h-5.42v-7h5.29v1.3h-3.68v4.4Zm5.299 1.3v-7h3.18c.76 0 1.43.147 2.01.44.58.287 1.033.69 1.36 1.21.327.52.49 1.137.49 1.85 0 .707-.163 1.323-.49 1.85-.327.52-.78.927-1.36 1.22-.58.287-1.25.43-2.01.43h-3.18Zm1.62-1.33h1.48c.467 0 .87-.087 1.21-.26.347-.18.613-.433.8-.76.193-.327.29-.71.29-1.15 0-.447-.097-.83-.29-1.15a1.849 1.849 0 0 0-.8-.75c-.34-.18-.743-.27-1.21-.27h-1.48v4.34Zm9.952 1.45c-.994 0-1.77-.277-2.33-.83-.56-.553-.84-1.343-.84-2.37V383h1.62v3.86c0 .667.136 1.147.41 1.44.273.293.656.44 1.15.44.493 0 .876-.147 1.15-.44.273-.293.41-.773.41-1.44V383h1.6v3.92c0 1.027-.28 1.817-.84 2.37-.56.553-1.337.83-2.33.83Zm8.321 0c-.54 0-1.044-.087-1.51-.26a3.567 3.567 0 0 1-2-1.91 3.668 3.668 0 0 1-.28-1.45c0-.527.093-1.01.28-1.45.193-.44.46-.823.8-1.15.346-.327.75-.577 1.21-.75.46-.18.963-.27 1.51-.27.606 0 1.153.107 1.64.32a3.16 3.16 0 0 1 1.24.92l-1.04.96a2.376 2.376 0 0 0-.8-.61 2.204 2.204 0 0 0-.96-.21c-.327 0-.627.053-.9.16-.274.107-.51.26-.71.46-.2.2-.357.437-.47.71-.107.273-.16.577-.16.91 0 .333.053.637.16.91.113.273.27.51.47.71.2.2.436.353.71.46.273.107.573.16.9.16.346 0 .666-.067.96-.2.293-.14.56-.35.8-.63l1.04.96a3.243 3.243 0 0 1-1.24.93c-.487.213-1.037.32-1.65.32Zm3.137-.12 3.12-7h1.6l3.13 7h-1.7l-2.56-6.18h.64l-2.57 6.18h-1.66Zm1.56-1.5.43-1.23h3.6l.44 1.23h-4.47Zm8.314 1.5v-5.68h-2.24V383h6.1v1.32h-2.24V390h-1.62Zm4.932 0v-7h1.62v7h-1.62Zm6.881.12c-.553 0-1.066-.09-1.54-.27a3.704 3.704 0 0 1-1.22-.76 3.582 3.582 0 0 1-.8-1.15c-.186-.44-.28-.92-.28-1.44 0-.52.094-1 .28-1.44.194-.44.464-.823.81-1.15.347-.327.754-.58 1.22-.76.467-.18.974-.27 1.52-.27.554 0 1.06.09 1.52.27.467.18.87.433 1.21.76a3.49 3.49 0 0 1 1.1 2.59 3.6 3.6 0 0 1-.29 1.45 3.49 3.49 0 0 1-.81 1.15c-.34.32-.743.57-1.21.75-.46.18-.963.27-1.51.27Zm-.01-1.38c.314 0 .6-.053.86-.16a2.034 2.034 0 0 0 1.16-1.17c.114-.273.17-.577.17-.91 0-.333-.056-.637-.17-.91a2.034 2.034 0 0 0-.46-.71 1.958 1.958 0 0 0-.69-.46 2.31 2.31 0 0 0-.87-.16c-.313 0-.603.053-.87.16-.26.107-.49.26-.69.46-.2.2-.356.437-.47.71-.106.273-.16.577-.16.91 0 .327.054.63.16.91.114.273.267.51.46.71.2.2.434.353.7.46.267.107.557.16.87.16Zm5.248 1.26v-7h1.34l4.13 5.04h-.65V383h1.6v7h-1.33l-4.14-5.04h.65V390h-1.6Zm13.508.12a3.53 3.53 0 0 1-1.37-.25c-.4-.167-.717-.393-.95-.68a1.527 1.527 0 0 1-.35-.99c0-.347.077-.657.23-.93.153-.28.397-.54.73-.78a7.015 7.015 0 0 1 1.27-.72c.373-.173.667-.327.88-.46.213-.133.363-.26.45-.38a.667.667 0 0 0 .13-.38.536.536 0 0 0-.18-.42c-.113-.107-.283-.16-.51-.16-.24 0-.427.06-.56.18a.592.592 0 0 0-.2.46c0 .1.02.2.06.3.04.093.117.203.23.33.113.12.273.277.48.47l3.69 3.42-.85.99-4.07-3.78a4.453 4.453 0 0 1-.56-.6 2.215 2.215 0 0 1-.31-.55 1.76 1.76 0 0 1-.09-.56c0-.34.09-.64.27-.9.18-.26.433-.46.76-.6.327-.147.71-.22 1.15-.22.407 0 .757.067 1.05.2.3.127.533.31.7.55.173.24.26.527.26.86 0 .293-.073.563-.22.81-.147.24-.377.467-.69.68-.307.213-.71.43-1.21.65-.34.153-.61.303-.81.45-.193.14-.333.283-.42.43a.943.943 0 0 0-.13.49c0 .167.05.317.15.45.107.133.253.237.44.31.187.073.407.11.66.11.407 0 .78-.093 1.12-.28.34-.193.627-.477.86-.85.24-.38.41-.84.51-1.38l1.25.39c-.14.68-.39 1.27-.75 1.77s-.803.887-1.33 1.16a3.79 3.79 0 0 1-1.77.41Zm9.757-.12v-5.68h-2.24V383h6.1v1.32h-2.24V390h-1.62Zm4.932 0v-7h3.03c.627 0 1.167.103 1.62.31.453.2.803.49 1.05.87s.37.833.37 1.36c0 .52-.123.97-.37 1.35a2.37 2.37 0 0 1-1.05.86c-.453.2-.993.3-1.62.3h-2.13l.72-.71V390h-1.62Zm4.45 0-1.75-2.54h1.73l1.77 2.54h-1.75Zm-2.83-2.48-.72-.76h2.04c.5 0 .873-.107 1.12-.32.247-.22.37-.52.37-.9 0-.387-.123-.687-.37-.9-.247-.213-.62-.32-1.12-.32h-2.04l.72-.77v3.97Zm5.013 2.48 3.12-7h1.6l3.13 7h-1.7l-2.56-6.18h.64l-2.57 6.18h-1.66Zm1.56-1.5.43-1.23h3.6l.44 1.23h-4.47Zm7.217 1.5v-7h1.62v7h-1.62Zm3.481 0v-7h1.34l4.13 5.04h-.65V383h1.6v7h-1.33l-4.14-5.04h.65V390h-1.6Zm8.276 0v-7h1.62v7h-1.62Zm3.481 0v-7h1.34l4.13 5.04h-.65V383h1.6v7h-1.33l-4.14-5.04h.65V390h-1.6Zm11.657.12a4.364 4.364 0 0 1-1.53-.26 3.71 3.71 0 0 1-1.21-.76 3.567 3.567 0 0 1-.8-1.15 3.668 3.668 0 0 1-.28-1.45c0-.527.093-1.01.28-1.45a3.49 3.49 0 0 1 .81-1.15 3.55 3.55 0 0 1 1.22-.75c.466-.18.98-.27 1.54-.27.62 0 1.176.103 1.67.31.5.207.92.507 1.26.9l-1.04.96a2.48 2.48 0 0 0-.83-.59c-.3-.133-.627-.2-.98-.2-.34 0-.65.053-.93.16-.28.107-.524.26-.73.46-.2.2-.357.437-.47.71-.107.273-.16.577-.16.91 0 .327.053.627.16.9.113.273.27.513.47.72.206.2.446.353.72.46.28.107.586.16.92.16.32 0 .63-.05.93-.15.306-.107.603-.283.89-.53l.92 1.17c-.38.287-.824.507-1.33.66-.5.153-1 .23-1.5.23Zm1.35-1.1v-2.63h1.48v2.84l-1.48-.21Z" fill="#fff"/><path fill-rule="evenodd" clip-rule="evenodd" d="m910.83 382.261 4.245.748a.48.48 0 0 1 .388.555l-.748 4.245a.48.48 0 0 1-.944-.167l.548-3.106-6.899 4.831a.478.478 0 1 1-.549-.785l6.899-4.83-3.106-.548a.479.479 0 1 1 .166-.943Z" fill="#fff"/><rect x="748" y="372.5" width="186.5" height="27" rx="13.5" stroke="#fff"/></svg>