<svg width="1000" height="323" fill="none" xmlns="http://www.w3.org/2000/svg"><path d="M0 10C0 4.477 4.477 0 10 0h980c5.523 0 10 4.477 10 10v212H0V10Z" fill="#263D93"/><path d="M66.494 57V44.4h5.454c1.128 0 2.1.186 2.916.558.816.36 1.446.882 1.89 1.566.444.684.666 1.5.666 2.448 0 .936-.222 1.746-.666 2.43-.444.684-1.074 1.212-1.89 1.584-.816.36-1.788.54-2.916.54h-3.834l1.296-1.314V57h-2.916Zm2.916-4.464-1.296-1.386h3.672c.9 0 1.572-.192 2.016-.576.444-.384.666-.918.666-1.602 0-.696-.222-1.236-.666-1.62-.444-.384-1.116-.576-2.016-.576h-3.672l1.296-1.386v7.146Zm13.796 4.608c-.804 0-1.524-.156-2.16-.468a3.335 3.335 0 0 1-1.458-1.422c-.348-.648-.522-1.47-.522-2.466v-5.472h2.808v5.058c0 .804.168 1.398.504 1.782.348.372.834.558 1.458.558.432 0 .816-.09 1.152-.27.336-.192.6-.48.792-.864.192-.396.288-.888.288-1.476v-4.788h2.808V57h-2.664v-2.664l.486.774a3.36 3.36 0 0 1-1.44 1.53 4.259 4.259 0 0 1-2.052.504Zm13.635 0c-.852 0-1.584-.18-2.196-.54-.612-.36-1.08-.906-1.404-1.638-.324-.744-.486-1.68-.486-2.808 0-1.14.168-2.076.504-2.808.348-.732.828-1.278 1.44-1.638.612-.36 1.326-.54 2.142-.54.912 0 1.728.204 2.448.612a4.43 4.43 0 0 1 1.728 1.728c.432.744.648 1.626.648 2.646 0 1.008-.216 1.884-.648 2.628a4.558 4.558 0 0 1-1.728 1.746c-.72.408-1.536.612-2.448.612ZM91.117 57V43.644h2.808v5.634l-.18 2.862.054 2.88V57h-2.682Zm5.238-2.16c.468 0 .882-.108 1.242-.324.372-.216.666-.522.882-.918.228-.408.342-.888.342-1.44 0-.564-.114-1.044-.342-1.44a2.322 2.322 0 0 0-.882-.918 2.367 2.367 0 0 0-1.242-.324c-.468 0-.888.108-1.26.324a2.322 2.322 0 0 0-.882.918c-.216.396-.324.876-.324 1.44 0 .552.108 1.032.324 1.44.216.396.51.702.882.918.372.216.792.324 1.26.324Zm6.83 2.16V43.644h2.808V57h-2.808Zm5.054 0v-9.684h2.808V57h-2.808Zm1.404-11.034c-.516 0-.936-.15-1.26-.45a1.46 1.46 0 0 1-.486-1.116c0-.444.162-.816.486-1.116.324-.3.744-.45 1.26-.45s.936.144 1.26.432c.324.276.486.636.486 1.08 0 .468-.162.858-.486 1.17-.312.3-.732.45-1.26.45Zm8.33 11.178c-1.044 0-1.974-.21-2.79-.63a4.929 4.929 0 0 1-1.926-1.782c-.456-.756-.684-1.614-.684-2.574 0-.972.228-1.83.684-2.574a4.8 4.8 0 0 1 1.926-1.764c.816-.432 1.746-.648 2.79-.648 1.02 0 1.908.216 2.664.648a3.849 3.849 0 0 1 1.674 1.818l-2.178 1.17c-.252-.456-.57-.792-.954-1.008a2.394 2.394 0 0 0-1.224-.324c-.48 0-.912.108-1.296.324-.384.216-.69.522-.918.918-.216.396-.324.876-.324 1.44s.108 1.044.324 1.44c.228.396.534.702.918.918.384.216.816.324 1.296.324.444 0 .852-.102 1.224-.306.384-.216.702-.558.954-1.026l2.178 1.188a3.961 3.961 0 0 1-1.674 1.818c-.756.42-1.644.63-2.664.63ZM129.508 57v-1.89l-.18-.414v-3.384c0-.6-.186-1.068-.558-1.404-.36-.336-.918-.504-1.674-.504a4.81 4.81 0 0 0-1.53.252 3.904 3.904 0 0 0-1.26.648l-1.008-1.962c.528-.372 1.164-.66 1.908-.864a8.54 8.54 0 0 1 2.268-.306c1.476 0 2.622.348 3.438 1.044.816.696 1.224 1.782 1.224 3.258V57h-2.628Zm-2.952.144c-.756 0-1.404-.126-1.944-.378-.54-.264-.954-.618-1.242-1.062a2.686 2.686 0 0 1-.432-1.494c0-.576.138-1.08.414-1.512.288-.432.738-.768 1.35-1.008.612-.252 1.41-.378 2.394-.378h2.574v1.638h-2.268c-.66 0-1.116.108-1.368.324-.24.216-.36.486-.36.81 0 .36.138.648.414.864.288.204.678.306 1.17.306.468 0 .888-.108 1.26-.324.372-.228.642-.558.81-.99l.432 1.296c-.204.624-.576 1.098-1.116 1.422-.54.324-1.236.486-2.088.486Zm11.721 0c-1.14 0-2.028-.288-2.664-.864-.636-.588-.954-1.458-.954-2.61v-8.496h2.808v8.46c0 .408.108.726.324.954.216.216.51.324.882.324.444 0 .822-.12 1.134-.36l.756 1.98c-.288.204-.636.36-1.044.468-.396.096-.81.144-1.242.144Zm-5.112-7.452v-2.16h6.714v2.16h-6.714ZM141.779 57v-9.684h2.808V57h-2.808Zm1.404-11.034c-.516 0-.936-.15-1.26-.45a1.46 1.46 0 0 1-.486-1.116c0-.444.162-.816.486-1.116.324-.3.744-.45 1.26-.45s.936.144 1.26.432c.324.276.486.636.486 1.08 0 .468-.162.858-.486 1.17-.312.3-.732.45-1.26.45Zm8.258 11.178c-1.032 0-1.95-.216-2.754-.648a5.044 5.044 0 0 1-1.89-1.764c-.456-.756-.684-1.614-.684-2.574 0-.972.228-1.83.684-2.574a4.861 4.861 0 0 1 1.89-1.764c.804-.432 1.722-.648 2.754-.648 1.02 0 1.932.216 2.736.648a4.743 4.743 0 0 1 1.89 1.746c.456.744.684 1.608.684 2.592 0 .96-.228 1.818-.684 2.574a4.872 4.872 0 0 1-1.89 1.764c-.804.432-1.716.648-2.736.648Zm0-2.304c.468 0 .888-.108 1.26-.324.372-.216.666-.522.882-.918.216-.408.324-.888.324-1.44 0-.564-.108-1.044-.324-1.44a2.322 2.322 0 0 0-.882-.918 2.463 2.463 0 0 0-1.26-.324c-.468 0-.888.108-1.26.324a2.45 2.45 0 0 0-.9.918c-.216.396-.324.876-.324 1.44 0 .552.108 1.032.324 1.44.228.396.528.702.9.918.372.216.792.324 1.26.324Zm12.713-7.668c.768 0 1.452.156 2.052.468.612.3 1.092.768 1.44 1.404.348.624.522 1.428.522 2.412V57h-2.808v-5.112c0-.78-.174-1.356-.522-1.728-.336-.372-.816-.558-1.44-.558-.444 0-.846.096-1.206.288-.348.18-.624.462-.828.846-.192.384-.288.876-.288 1.476V57h-2.808v-9.684h2.682v2.682l-.504-.81a3.587 3.587 0 0 1 1.494-1.494c.648-.348 1.386-.522 2.214-.522Zm9.458 9.972a9.834 9.834 0 0 1-2.394-.288c-.756-.204-1.356-.456-1.8-.756l.936-2.016c.444.276.966.504 1.566.684a6.782 6.782 0 0 0 1.8.252c.648 0 1.104-.078 1.368-.234.276-.156.414-.372.414-.648 0-.228-.108-.396-.324-.504-.204-.12-.48-.21-.828-.27-.348-.06-.732-.12-1.152-.18-.408-.06-.822-.138-1.242-.234a4.462 4.462 0 0 1-1.152-.468 2.429 2.429 0 0 1-.846-.828c-.204-.348-.306-.798-.306-1.35 0-.612.174-1.152.522-1.62.36-.468.876-.834 1.548-1.098.672-.276 1.476-.414 2.412-.414.66 0 1.332.072 2.016.216.684.144 1.254.354 1.71.63l-.936 1.998a4.553 4.553 0 0 0-1.422-.558 6.075 6.075 0 0 0-1.368-.162c-.624 0-1.08.084-1.368.252-.288.168-.432.384-.432.648 0 .24.102.42.306.54.216.12.498.216.846.288.348.072.726.138 1.134.198.42.048.84.126 1.26.234.42.108.798.264 1.134.468.348.192.63.462.846.81.216.336.324.78.324 1.332 0 .6-.18 1.134-.54 1.602-.36.456-.882.816-1.566 1.08-.672.264-1.494.396-2.466.396Z" fill="#fff"/><path opacity=".1" stroke="#fff" stroke-linecap="round" stroke-linejoin="round" d="M50.5 76.5h272.335"/><path d="M81.666 96.167v11.666H68.334V96.167h13.334Zm0-1.667H68.334c-.925 0-1.666.742-1.666 1.667v11.666c0 .925.741 1.667 1.666 1.667h13.334c.924 0 1.666-.742 1.666-1.667V96.167c0-.925-.742-1.667-1.666-1.667ZM80 104.5H70v1.667h10V104.5Zm-6.667-6.667H70v5h3.333v-5ZM75 99.5h5v-1.667h-5V99.5Zm5 1.667h-5v1.666h5v-1.666ZM101.596 107v-9.8h3.668c.831 0 1.545.135 2.142.406.597.261 1.055.644 1.372 1.148.327.495.49 1.097.49 1.806 0 .691-.163 1.288-.49 1.792-.317.495-.775.877-1.372 1.148-.597.271-1.311.406-2.142.406h-3.094l.462-.49V107h-1.036Zm1.036-3.5-.462-.504h3.066c.98 0 1.722-.21 2.226-.63.513-.429.77-1.031.77-1.806 0-.784-.257-1.39-.77-1.82-.504-.43-1.246-.644-2.226-.644h-3.066l.462-.49v5.894Zm9.048 3.5v-7.35h.952v2.002l-.098-.35c.206-.56.551-.985 1.036-1.274.486-.299 1.088-.448 1.806-.448v.966h-.112a.47.47 0 0 0-.112-.014c-.774 0-1.381.238-1.82.714-.438.467-.658 1.134-.658 2.002V107h-.994Zm9.124.07c-.766 0-1.438-.159-2.016-.476a3.57 3.57 0 0 1-1.358-1.33c-.327-.569-.49-1.218-.49-1.946s.154-1.372.462-1.932c.317-.56.746-.999 1.288-1.316a3.55 3.55 0 0 1 1.848-.49c.69 0 1.302.159 1.834.476a3.27 3.27 0 0 1 1.274 1.316c.308.56.462 1.209.462 1.946a.978.978 0 0 1-.014.154v.154h-6.398v-.742h5.866l-.392.294c0-.532-.117-1.003-.35-1.414a2.46 2.46 0 0 0-.924-.98c-.392-.233-.845-.35-1.358-.35-.504 0-.957.117-1.358.35-.402.233-.714.56-.938.98-.224.42-.336.901-.336 1.442v.154c0 .56.121 1.055.364 1.484.252.42.597.751 1.036.994.448.233.956.35 1.526.35.448 0 .863-.079 1.246-.238a2.592 2.592 0 0 0 1.008-.728l.56.644a3.147 3.147 0 0 1-1.232.896 4.1 4.1 0 0 1-1.61.308Zm7.861 0a5.775 5.775 0 0 1-1.722-.252c-.541-.177-.966-.397-1.274-.658l.448-.784c.299.224.681.42 1.148.588a4.53 4.53 0 0 0 1.47.238c.7 0 1.204-.107 1.512-.322.308-.224.462-.518.462-.882 0-.271-.089-.481-.266-.63a1.534 1.534 0 0 0-.672-.35 7.41 7.41 0 0 0-.938-.21 19.853 19.853 0 0 1-1.036-.196 4.012 4.012 0 0 1-.924-.322 1.937 1.937 0 0 1-.686-.602c-.168-.252-.252-.588-.252-1.008 0-.401.112-.761.336-1.078.224-.317.551-.565.98-.742.439-.187.971-.28 1.596-.28.476 0 .952.065 1.428.196.476.121.868.285 1.176.49l-.434.798a3.229 3.229 0 0 0-1.05-.476 4.194 4.194 0 0 0-1.12-.154c-.663 0-1.153.117-1.47.35-.308.224-.462.513-.462.868 0 .28.084.499.252.658.177.159.406.285.686.378.289.084.602.154.938.21.345.056.686.126 1.022.21.345.075.658.182.938.322.289.131.518.322.686.574.177.243.266.565.266.966 0 .429-.121.803-.364 1.12-.233.308-.579.551-1.036.728-.448.168-.994.252-1.638.252Zm7.396 0a5.775 5.775 0 0 1-1.722-.252c-.541-.177-.966-.397-1.274-.658l.448-.784c.299.224.681.42 1.148.588a4.53 4.53 0 0 0 1.47.238c.7 0 1.204-.107 1.512-.322.308-.224.462-.518.462-.882 0-.271-.089-.481-.266-.63a1.534 1.534 0 0 0-.672-.35 7.41 7.41 0 0 0-.938-.21 19.853 19.853 0 0 1-1.036-.196 4.012 4.012 0 0 1-.924-.322 1.937 1.937 0 0 1-.686-.602c-.168-.252-.252-.588-.252-1.008 0-.401.112-.761.336-1.078.224-.317.551-.565.98-.742.439-.187.971-.28 1.596-.28.476 0 .952.065 1.428.196.476.121.868.285 1.176.49l-.434.798a3.229 3.229 0 0 0-1.05-.476 4.194 4.194 0 0 0-1.12-.154c-.663 0-1.153.117-1.47.35-.308.224-.462.513-.462.868 0 .28.084.499.252.658.177.159.406.285.686.378.289.084.602.154.938.21.345.056.686.126 1.022.21.345.075.658.182.938.322.289.131.518.322.686.574.177.243.266.565.266.966 0 .429-.121.803-.364 1.12-.233.308-.579.551-1.036.728-.448.168-.994.252-1.638.252Zm9.856-.07v-9.8h3.668c.831 0 1.545.135 2.142.406.597.261 1.055.644 1.372 1.148.327.495.49 1.097.49 1.806 0 .691-.163 1.288-.49 1.792-.317.495-.775.877-1.372 1.148-.597.261-1.311.392-2.142.392h-3.094l.462-.476V107h-1.036Zm6.692 0-2.52-3.556h1.12l2.534 3.556h-1.134Zm-5.656-3.5-.462-.49h3.066c.98 0 1.722-.215 2.226-.644.513-.429.77-1.031.77-1.806 0-.784-.257-1.39-.77-1.82-.504-.43-1.246-.644-2.226-.644h-3.066l.462-.49v5.894Zm12.553 3.57c-.765 0-1.437-.159-2.016-.476a3.578 3.578 0 0 1-1.358-1.33c-.327-.569-.49-1.218-.49-1.946s.154-1.372.462-1.932c.317-.56.747-.999 1.288-1.316a3.555 3.555 0 0 1 1.848-.49c.691 0 1.302.159 1.834.476a3.27 3.27 0 0 1 1.274 1.316c.308.56.462 1.209.462 1.946a.978.978 0 0 1-.014.154v.154h-6.398v-.742h5.866l-.392.294c0-.532-.117-1.003-.35-1.414a2.46 2.46 0 0 0-.924-.98c-.392-.233-.845-.35-1.358-.35-.504 0-.957.117-1.358.35-.401.233-.714.56-.938.98-.224.42-.336.901-.336 1.442v.154c0 .56.121 1.055.364 1.484.252.42.597.751 1.036.994.448.233.957.35 1.526.35.448 0 .863-.079 1.246-.238a2.592 2.592 0 0 0 1.008-.728l.56.644a3.14 3.14 0 0 1-1.232.896 4.096 4.096 0 0 1-1.61.308Zm5.887-.07V96.612h.994V107h-.994Zm7.442.07c-.765 0-1.437-.159-2.016-.476a3.578 3.578 0 0 1-1.358-1.33c-.327-.569-.49-1.218-.49-1.946s.154-1.372.462-1.932c.317-.56.747-.999 1.288-1.316a3.555 3.555 0 0 1 1.848-.49c.691 0 1.302.159 1.834.476a3.27 3.27 0 0 1 1.274 1.316c.308.56.462 1.209.462 1.946a.978.978 0 0 1-.014.154v.154h-6.398v-.742h5.866l-.392.294c0-.532-.117-1.003-.35-1.414a2.46 2.46 0 0 0-.924-.98c-.392-.233-.845-.35-1.358-.35-.504 0-.957.117-1.358.35-.401.233-.714.56-.938.98-.224.42-.336.901-.336 1.442v.154c0 .56.121 1.055.364 1.484.252.42.597.751 1.036.994.448.233.957.35 1.526.35.448 0 .863-.079 1.246-.238a2.592 2.592 0 0 0 1.008-.728l.56.644a3.14 3.14 0 0 1-1.232.896 4.096 4.096 0 0 1-1.61.308Zm10.288-.07v-1.624l-.042-.266v-2.716c0-.625-.177-1.106-.532-1.442-.345-.336-.863-.504-1.554-.504a3.88 3.88 0 0 0-1.358.238 3.48 3.48 0 0 0-1.092.63l-.448-.742a3.9 3.9 0 0 1 1.344-.728 5.112 5.112 0 0 1 1.652-.266c.952 0 1.685.238 2.198.714.523.467.784 1.181.784 2.142V107h-.952Zm-2.534.07c-.55 0-1.031-.089-1.442-.266-.401-.187-.709-.439-.924-.756a2 2 0 0 1-.322-1.12c0-.383.089-.728.266-1.036.187-.317.486-.569.896-.756.42-.196.98-.294 1.68-.294h2.534v.742h-2.506c-.709 0-1.204.126-1.484.378-.27.252-.406.565-.406.938 0 .42.164.756.49 1.008.327.252.784.378 1.372.378.56 0 1.041-.126 1.442-.378.411-.261.71-.635.896-1.12l.224.686a2.321 2.321 0 0 1-.98 1.162c-.457.289-1.036.434-1.736.434Zm8.72 0a5.775 5.775 0 0 1-1.722-.252c-.541-.177-.966-.397-1.274-.658l.448-.784c.299.224.681.42 1.148.588a4.53 4.53 0 0 0 1.47.238c.7 0 1.204-.107 1.512-.322.308-.224.462-.518.462-.882 0-.271-.089-.481-.266-.63a1.534 1.534 0 0 0-.672-.35 7.41 7.41 0 0 0-.938-.21 19.853 19.853 0 0 1-1.036-.196 4.012 4.012 0 0 1-.924-.322 1.937 1.937 0 0 1-.686-.602c-.168-.252-.252-.588-.252-1.008 0-.401.112-.761.336-1.078.224-.317.551-.565.98-.742.439-.187.971-.28 1.596-.28.476 0 .952.065 1.428.196.476.121.868.285 1.176.49l-.434.798a3.229 3.229 0 0 0-1.05-.476 4.194 4.194 0 0 0-1.12-.154c-.663 0-1.153.117-1.47.35-.308.224-.462.513-.462.868 0 .28.084.499.252.658.177.159.406.285.686.378.289.084.602.154.938.21.345.056.686.126 1.022.21.345.075.658.182.938.322.289.131.518.322.686.574.177.243.266.565.266.966 0 .429-.121.803-.364 1.12-.233.308-.579.551-1.036.728-.448.168-.994.252-1.638.252Zm8.544 0c-.765 0-1.437-.159-2.016-.476a3.578 3.578 0 0 1-1.358-1.33c-.327-.569-.49-1.218-.49-1.946s.154-1.372.462-1.932c.317-.56.747-.999 1.288-1.316a3.555 3.555 0 0 1 1.848-.49c.691 0 1.302.159 1.834.476a3.27 3.27 0 0 1 1.274 1.316c.308.56.462 1.209.462 1.946a.978.978 0 0 1-.014.154v.154h-6.398v-.742h5.866l-.392.294c0-.532-.117-1.003-.35-1.414a2.46 2.46 0 0 0-.924-.98c-.392-.233-.845-.35-1.358-.35-.504 0-.957.117-1.358.35-.401.233-.714.56-.938.98-.224.42-.336.901-.336 1.442v.154c0 .56.121 1.055.364 1.484.252.42.597.751 1.036.994.448.233.957.35 1.526.35.448 0 .863-.079 1.246-.238a2.592 2.592 0 0 0 1.008-.728l.56.644a3.14 3.14 0 0 1-1.232.896 4.096 4.096 0 0 1-1.61.308Z" fill="#fff"/><path fill-rule="evenodd" clip-rule="evenodd" d="m302.178 98.548 3.918.691a.442.442 0 0 1 .359.512l-.691 3.918a.442.442 0 1 1-.871-.153l.506-2.867-6.368 4.459a.443.443 0 0 1-.507-.724l6.368-4.46-2.867-.505a.442.442 0 0 1 .153-.87Z" fill="#fff"/><path opacity=".1" stroke="#fff" stroke-linecap="round" stroke-linejoin="round" d="M50.5 126.5h272.335"/><path d="m73.333 154.013-2.916 3.925h9.133l-2.258-2.95-1.642 1.95-2.317-2.925Zm-4.166 5.591v-11.666H80.8v11.666H69.167Zm5.833-15.5 2.175 2.192h-4.367L75 144.104m-5.833 2.192c-.417 0-.834.158-1.159.483a1.538 1.538 0 0 0-.508 1.159v11.666c0 .417.167.834.508 1.159.325.341.742.508 1.159.508H80.8c.45 0 .833-.167 1.175-.508.333-.325.525-.742.525-1.159v-11.666c0-.45-.192-.834-.525-1.159-.342-.325-.725-.483-1.175-.483h-2.467L75 142.938l-3.367 3.358h-2.466ZM105.894 157.084a5.747 5.747 0 0 1-2.072-.364 5.088 5.088 0 0 1-1.638-1.05 4.904 4.904 0 0 1-1.078-1.582 5.132 5.132 0 0 1-.378-1.988c0-.719.126-1.381.378-1.988a4.789 4.789 0 0 1 1.092-1.582 4.906 4.906 0 0 1 1.638-1.036 5.565 5.565 0 0 1 2.072-.378c.747 0 1.428.117 2.044.35a4.073 4.073 0 0 1 1.596 1.064l-.644.658a3.655 3.655 0 0 0-1.358-.882 4.706 4.706 0 0 0-1.596-.266c-.607 0-1.167.103-1.68.308a3.926 3.926 0 0 0-1.33.854 4.012 4.012 0 0 0-.882 1.288 4.096 4.096 0 0 0-.308 1.61c0 .579.103 1.115.308 1.61.215.495.509.929.882 1.302.383.364.826.649 1.33.854a4.632 4.632 0 0 0 1.666.294c.56 0 1.087-.084 1.582-.252a3.688 3.688 0 0 0 1.386-.854l.588.784a4.823 4.823 0 0 1-1.638.938 6.252 6.252 0 0 1-1.96.308Zm2.604-1.372V152.1h.994v3.738l-.994-.126ZM117.38 157v-1.624l-.042-.266v-2.716c0-.625-.177-1.106-.532-1.442-.345-.336-.863-.504-1.554-.504-.476 0-.929.079-1.358.238a3.48 3.48 0 0 0-1.092.63l-.448-.742c.373-.317.821-.56 1.344-.728a5.116 5.116 0 0 1 1.652-.266c.952 0 1.685.238 2.198.714.523.467.784 1.181.784 2.142V157h-.952Zm-2.534.07c-.551 0-1.031-.089-1.442-.266-.401-.187-.709-.439-.924-.756a1.991 1.991 0 0 1-.322-1.12c0-.383.089-.728.266-1.036.187-.317.485-.569.896-.756.42-.196.98-.294 1.68-.294h2.534v.742h-2.506c-.709 0-1.204.126-1.484.378a1.229 1.229 0 0 0-.406.938c0 .42.163.756.49 1.008.327.252.784.378 1.372.378.56 0 1.041-.126 1.442-.378.411-.261.709-.635.896-1.12l.224.686a2.326 2.326 0 0 1-.98 1.162c-.457.289-1.036.434-1.736.434Zm6.746-.07v-10.388h.994V157h-.994Zm4.32 0v-10.388h.994V157h-.994Zm7.441.07c-.765 0-1.437-.159-2.016-.476a3.585 3.585 0 0 1-1.358-1.33c-.326-.569-.49-1.218-.49-1.946s.154-1.372.462-1.932c.318-.56.747-.999 1.288-1.316a3.552 3.552 0 0 1 1.848-.49c.691 0 1.302.159 1.834.476.542.308.966.747 1.274 1.316.308.56.462 1.209.462 1.946a.871.871 0 0 1-.014.154v.154h-6.398v-.742h5.866l-.392.294c0-.532-.116-1.003-.35-1.414a2.46 2.46 0 0 0-.924-.98c-.392-.233-.844-.35-1.358-.35-.504 0-.956.117-1.358.35-.401.233-.714.56-.938.98-.224.42-.336.901-.336 1.442v.154c0 .56.122 1.055.364 1.484.252.42.598.751 1.036.994.448.233.957.35 1.526.35.448 0 .864-.079 1.246-.238a2.592 2.592 0 0 0 1.008-.728l.56.644a3.133 3.133 0 0 1-1.232.896 4.096 4.096 0 0 1-1.61.308Zm5.888-.07v-7.35h.952v2.002l-.098-.35c.205-.56.55-.985 1.036-1.274.485-.299 1.087-.448 1.806-.448v.966h-.112a.484.484 0 0 0-.112-.014c-.775 0-1.382.238-1.82.714-.439.467-.658 1.134-.658 2.002V157h-.994Zm6.069 0v-7.35h.994V157h-.994Zm.504-8.974a.704.704 0 0 1-.518-.21.687.687 0 0 1-.21-.504c0-.196.07-.359.21-.49.14-.14.313-.21.518-.21.206 0 .378.065.518.196s.21.294.21.49c0 .205-.07.378-.21.518a.674.674 0 0 1-.518.21Zm6.938 9.044c-.765 0-1.437-.159-2.016-.476a3.585 3.585 0 0 1-1.358-1.33c-.326-.569-.49-1.218-.49-1.946s.154-1.372.462-1.932c.318-.56.747-.999 1.288-1.316a3.552 3.552 0 0 1 1.848-.49c.691 0 1.302.159 1.834.476.542.308.966.747 1.274 1.316.308.56.462 1.209.462 1.946a.871.871 0 0 1-.014.154v.154h-6.398v-.742h5.866l-.392.294c0-.532-.116-1.003-.35-1.414a2.46 2.46 0 0 0-.924-.98c-.392-.233-.844-.35-1.358-.35-.504 0-.956.117-1.358.35-.401.233-.714.56-.938.98-.224.42-.336.901-.336 1.442v.154c0 .56.122 1.055.364 1.484.252.42.598.751 1.036.994.448.233.957.35 1.526.35.448 0 .864-.079 1.246-.238a2.592 2.592 0 0 0 1.008-.728l.56.644a3.133 3.133 0 0 1-1.232.896 4.096 4.096 0 0 1-1.61.308Zm7.861 0c-.606 0-1.18-.084-1.722-.252-.541-.177-.966-.397-1.274-.658l.448-.784c.299.224.682.42 1.148.588a4.53 4.53 0 0 0 1.47.238c.7 0 1.204-.107 1.512-.322.308-.224.462-.518.462-.882 0-.271-.088-.481-.266-.63a1.534 1.534 0 0 0-.672-.35 7.37 7.37 0 0 0-.938-.21c-.345-.056-.69-.121-1.036-.196a4.012 4.012 0 0 1-.924-.322 1.946 1.946 0 0 1-.686-.602c-.168-.252-.252-.588-.252-1.008 0-.401.112-.761.336-1.078.224-.317.551-.565.98-.742.439-.187.971-.28 1.596-.28.476 0 .952.065 1.428.196.476.121.868.285 1.176.49l-.434.798a3.21 3.21 0 0 0-1.05-.476 4.188 4.188 0 0 0-1.12-.154c-.662 0-1.152.117-1.47.35-.308.224-.462.513-.462.868 0 .28.084.499.252.658.178.159.406.285.686.378.29.084.602.154.938.21.346.056.686.126 1.022.21.346.075.658.182.938.322.29.131.518.322.686.574.178.243.266.565.266.966 0 .429-.121.803-.364 1.12-.233.308-.578.551-1.036.728-.448.168-.994.252-1.638.252Z" fill="#fff"/><path fill-rule="evenodd" clip-rule="evenodd" d="m302.178 148.548 3.918.691a.443.443 0 0 1 .359.512l-.691 3.918a.442.442 0 1 1-.871-.153l.506-2.867-6.368 4.459a.443.443 0 0 1-.507-.724l6.368-4.459-2.867-.506a.442.442 0 1 1 .153-.871Z" fill="#fff"/><path opacity=".1" stroke="#fff" stroke-linecap="round" stroke-linejoin="round" d="M353.835 76.5H626.17"/><path d="M384.168 108.563h-11.666v-9.167h11.666m-2.5-5.834v1.667h-6.666v-1.666h-1.667v1.666h-.833c-.925 0-1.667.742-1.667 1.667v11.667a1.669 1.669 0 0 0 1.667 1.666h11.666a1.667 1.667 0 0 0 1.667-1.666V96.896a1.669 1.669 0 0 0-1.667-1.667h-.833v-1.666m-.833 9.166h-4.167v4.167h4.167v-4.167ZM403.363 107l4.48-9.8h1.022l4.48 9.8h-1.092l-4.116-9.198h.42L404.441 107h-1.078Zm1.764-2.618.308-.84h5.698l.308.84h-6.314Zm13.257 5.404a6.333 6.333 0 0 1-1.932-.294c-.616-.196-1.116-.476-1.498-.84l.504-.756c.345.308.77.551 1.274.728.513.187 1.054.28 1.624.28.933 0 1.619-.219 2.058-.658.438-.429.658-1.101.658-2.016v-1.834l.14-1.26-.098-1.26V99.65h.952v6.454c0 1.269-.313 2.198-.938 2.786-.616.597-1.531.896-2.744.896Zm-.182-3.066c-.7 0-1.33-.149-1.89-.448a3.487 3.487 0 0 1-1.33-1.274c-.318-.541-.476-1.162-.476-1.862 0-.7.158-1.316.476-1.848.326-.541.77-.961 1.33-1.26.56-.299 1.19-.448 1.89-.448.653 0 1.241.135 1.764.406.522.271.938.672 1.246 1.204.308.532.462 1.181.462 1.946 0 .765-.154 1.414-.462 1.946a3.13 3.13 0 0 1-1.246 1.218c-.523.28-1.111.42-1.764.42Zm.098-.882c.541 0 1.022-.112 1.442-.336.42-.233.751-.551.994-.952.242-.411.364-.882.364-1.414 0-.532-.122-.999-.364-1.4a2.535 2.535 0 0 0-.994-.938c-.42-.233-.901-.35-1.442-.35-.532 0-1.013.117-1.442.35-.42.224-.752.537-.994.938-.234.401-.35.868-.35 1.4 0 .532.116 1.003.35 1.414.242.401.574.719.994.952.429.224.91.336 1.442.336Zm10.214 1.232c-.766 0-1.438-.159-2.016-.476a3.57 3.57 0 0 1-1.358-1.33c-.327-.569-.49-1.218-.49-1.946s.154-1.372.462-1.932c.317-.56.746-.999 1.288-1.316a3.55 3.55 0 0 1 1.848-.49c.69 0 1.302.159 1.834.476a3.27 3.27 0 0 1 1.274 1.316c.308.56.462 1.209.462 1.946a.978.978 0 0 1-.014.154v.154h-6.398v-.742h5.866l-.392.294c0-.532-.117-1.003-.35-1.414a2.46 2.46 0 0 0-.924-.98c-.392-.233-.845-.35-1.358-.35-.504 0-.957.117-1.358.35-.402.233-.714.56-.938.98-.224.42-.336.901-.336 1.442v.154c0 .56.121 1.055.364 1.484.252.42.597.751 1.036.994.448.233.956.35 1.526.35.448 0 .863-.079 1.246-.238a2.592 2.592 0 0 0 1.008-.728l.56.644a3.147 3.147 0 0 1-1.232.896 4.1 4.1 0 0 1-1.61.308Zm9.639-7.49c.597 0 1.12.117 1.568.35.457.224.812.569 1.064 1.036.261.467.392 1.055.392 1.764V107h-.994v-4.172c0-.775-.196-1.358-.588-1.75-.383-.401-.924-.602-1.624-.602-.523 0-.98.107-1.372.322a2.161 2.161 0 0 0-.896.91c-.205.392-.308.868-.308 1.428V107h-.994v-7.35h.952v2.016l-.154-.378a2.639 2.639 0 0 1 1.12-1.246c.513-.308 1.125-.462 1.834-.462Zm9.195 7.49c-.7 0-1.33-.159-1.89-.476a3.45 3.45 0 0 1-1.302-1.316c-.317-.569-.476-1.223-.476-1.96 0-.747.159-1.4.476-1.96.317-.56.751-.994 1.302-1.302.56-.317 1.19-.476 1.89-.476.644 0 1.218.145 1.722.434.513.289.919.714 1.218 1.274.308.551.462 1.227.462 2.03 0 .793-.149 1.47-.448 2.03a3.19 3.19 0 0 1-1.218 1.288c-.504.289-1.083.434-1.736.434Zm.07-.882c.523 0 .989-.117 1.4-.35.42-.243.747-.579.98-1.008.243-.439.364-.943.364-1.512 0-.579-.121-1.083-.364-1.512a2.45 2.45 0 0 0-.98-.994 2.696 2.696 0 0 0-1.4-.364c-.513 0-.975.121-1.386.364a2.573 2.573 0 0 0-.98.994c-.243.429-.364.933-.364 1.512 0 .569.121 1.073.364 1.512.243.429.569.765.98 1.008.411.233.873.35 1.386.35Zm2.772.812v-2.212l.098-1.484-.14-1.484v-5.208h.994V107h-.952Zm8.886 0v-1.624l-.042-.266v-2.716c0-.625-.177-1.106-.532-1.442-.345-.336-.863-.504-1.554-.504a3.88 3.88 0 0 0-1.358.238 3.48 3.48 0 0 0-1.092.63l-.448-.742a3.9 3.9 0 0 1 1.344-.728 5.112 5.112 0 0 1 1.652-.266c.952 0 1.685.238 2.198.714.523.467.784 1.181.784 2.142V107h-.952Zm-2.534.07c-.55 0-1.031-.089-1.442-.266-.401-.187-.709-.439-.924-.756a2 2 0 0 1-.322-1.12c0-.383.089-.728.266-1.036.187-.317.486-.569.896-.756.42-.196.98-.294 1.68-.294h2.534v.742h-2.506c-.709 0-1.204.126-1.484.378-.27.252-.406.565-.406.938 0 .42.164.756.49 1.008.327.252.784.378 1.372.378.56 0 1.041-.126 1.442-.378.411-.261.71-.635.896-1.12l.224.686a2.321 2.321 0 0 1-.98 1.162c-.457.289-1.036.434-1.736.434Z" fill="#fff"/><path fill-rule="evenodd" clip-rule="evenodd" d="m605.513 98.548 3.918.691a.442.442 0 0 1 .359.512l-.691 3.918a.442.442 0 1 1-.871-.153l.506-2.867-6.368 4.459a.443.443 0 0 1-.508-.724l6.369-4.46-2.867-.505a.442.442 0 0 1 .153-.87Z" fill="#fff"/><path opacity=".1" stroke="#fff" stroke-linecap="round" stroke-linejoin="round" d="M353.835 126.5H626.17"/><path d="M386.668 148.771v7.5c0 .917-.75 1.667-1.667 1.667h-11.666l-3.334 3.333v-15c0-.917.75-1.667 1.667-1.667h8.417c-.084.25-.084.584-.084.834a4.126 4.126 0 0 0 4.167 4.166c.917 0 1.833-.333 2.5-.833Zm-5-3.333c0 1.416 1.083 2.5 2.5 2.5s2.5-1.084 2.5-2.5c0-1.417-1.083-2.5-2.5-2.5s-2.5 1.083-2.5 2.5ZM403.363 157l4.48-9.8h1.022l4.48 9.8h-1.092l-4.116-9.198h.42L404.441 157h-1.078Zm1.764-2.618.308-.84h5.698l.308.84h-6.314Zm13.941-4.802c.597 0 1.12.117 1.568.35.457.224.812.569 1.064 1.036.261.467.392 1.055.392 1.764V157h-.994v-4.172c0-.775-.196-1.358-.588-1.75-.383-.401-.924-.602-1.624-.602-.523 0-.98.107-1.372.322a2.161 2.161 0 0 0-.896.91c-.205.392-.308.868-.308 1.428V157h-.994v-7.35h.952v2.016l-.154-.378a2.639 2.639 0 0 1 1.12-1.246c.513-.308 1.125-.462 1.834-.462Zm10.021 0c.597 0 1.12.117 1.568.35.457.224.812.569 1.064 1.036.261.467.392 1.055.392 1.764V157h-.994v-4.172c0-.775-.196-1.358-.588-1.75-.383-.401-.924-.602-1.624-.602-.523 0-.98.107-1.372.322a2.161 2.161 0 0 0-.896.91c-.205.392-.308.868-.308 1.428V157h-.994v-7.35h.952v2.016l-.154-.378a2.639 2.639 0 0 1 1.12-1.246c.513-.308 1.125-.462 1.834-.462Zm9.265 7.49c-.709 0-1.349-.159-1.918-.476a3.64 3.64 0 0 1-1.33-1.33c-.327-.569-.49-1.218-.49-1.946 0-.737.163-1.386.49-1.946a3.53 3.53 0 0 1 1.33-1.316c.56-.317 1.199-.476 1.918-.476.728 0 1.372.159 1.932.476a3.4 3.4 0 0 1 1.33 1.316c.327.56.49 1.209.49 1.946 0 .728-.163 1.377-.49 1.946a3.503 3.503 0 0 1-1.33 1.33c-.569.317-1.213.476-1.932.476Zm0-.882c.532 0 1.003-.117 1.414-.35.411-.243.733-.579.966-1.008.243-.439.364-.943.364-1.512 0-.579-.121-1.083-.364-1.512a2.473 2.473 0 0 0-.966-.994 2.696 2.696 0 0 0-1.4-.364c-.523 0-.989.121-1.4.364a2.573 2.573 0 0 0-.98.994c-.243.429-.364.933-.364 1.512 0 .569.121 1.073.364 1.512.243.429.569.765.98 1.008.411.233.873.35 1.386.35Zm9.379.882c-.625 0-1.171-.117-1.638-.35a2.525 2.525 0 0 1-1.092-1.05c-.252-.467-.378-1.05-.378-1.75v-4.27h.994v4.158c0 .784.192 1.377.574 1.778.392.392.938.588 1.638.588.514 0 .957-.103 1.33-.308.383-.215.672-.523.868-.924.206-.401.308-.882.308-1.442v-3.85h.994V157h-.952v-2.016l.154.364a2.743 2.743 0 0 1-1.092 1.274c-.485.299-1.054.448-1.708.448Zm9.981 0c-.728 0-1.382-.159-1.96-.476a3.597 3.597 0 0 1-1.344-1.33c-.327-.569-.49-1.218-.49-1.946 0-.737.163-1.386.49-1.946a3.49 3.49 0 0 1 1.344-1.316c.578-.317 1.232-.476 1.96-.476.625 0 1.19.121 1.694.364s.9.607 1.19 1.092l-.742.504a2.335 2.335 0 0 0-.938-.826 2.811 2.811 0 0 0-1.218-.266 2.77 2.77 0 0 0-1.414.364 2.54 2.54 0 0 0-.994.994c-.243.429-.364.933-.364 1.512s.121 1.083.364 1.512c.242.429.574.765.994 1.008.42.233.891.35 1.414.35.438 0 .844-.089 1.218-.266.373-.177.686-.448.938-.812l.742.504c-.29.476-.686.84-1.19 1.092a3.851 3.851 0 0 1-1.694.364Zm8.395 0c-.765 0-1.437-.159-2.016-.476a3.585 3.585 0 0 1-1.358-1.33c-.326-.569-.49-1.218-.49-1.946s.154-1.372.462-1.932c.318-.56.747-.999 1.288-1.316a3.552 3.552 0 0 1 1.848-.49c.691 0 1.302.159 1.834.476.542.308.966.747 1.274 1.316.308.56.462 1.209.462 1.946a.871.871 0 0 1-.014.154v.154h-6.398v-.742h5.866l-.392.294c0-.532-.116-1.003-.35-1.414a2.46 2.46 0 0 0-.924-.98c-.392-.233-.844-.35-1.358-.35-.504 0-.956.117-1.358.35-.401.233-.714.56-.938.98-.224.42-.336.901-.336 1.442v.154c0 .56.122 1.055.364 1.484.252.42.598.751 1.036.994.448.233.957.35 1.526.35.448 0 .864-.079 1.246-.238a2.592 2.592 0 0 0 1.008-.728l.56.644a3.133 3.133 0 0 1-1.232.896 4.096 4.096 0 0 1-1.61.308Zm15.071-7.49c.598 0 1.116.117 1.554.35.448.224.794.569 1.036 1.036.252.467.378 1.055.378 1.764V157h-.994v-4.172c0-.775-.186-1.358-.56-1.75-.364-.401-.882-.602-1.554-.602-.504 0-.942.107-1.316.322a2.128 2.128 0 0 0-.854.91c-.196.392-.294.868-.294 1.428V157h-.994v-4.172c0-.775-.186-1.358-.56-1.75-.373-.401-.896-.602-1.568-.602-.494 0-.928.107-1.302.322a2.106 2.106 0 0 0-.868.91c-.196.392-.294.868-.294 1.428V157h-.994v-7.35h.952v1.988l-.154-.35a2.604 2.604 0 0 1 1.078-1.246c.504-.308 1.097-.462 1.778-.462.719 0 1.33.182 1.834.546.504.355.831.891.98 1.61l-.392-.154a2.877 2.877 0 0 1 1.134-1.442c.551-.373 1.209-.56 1.974-.56Zm9.346 7.49c-.765 0-1.437-.159-2.016-.476a3.578 3.578 0 0 1-1.358-1.33c-.327-.569-.49-1.218-.49-1.946s.154-1.372.462-1.932c.317-.56.747-.999 1.288-1.316a3.552 3.552 0 0 1 1.848-.49c.691 0 1.302.159 1.834.476a3.27 3.27 0 0 1 1.274 1.316c.308.56.462 1.209.462 1.946a.978.978 0 0 1-.014.154v.154h-6.398v-.742h5.866l-.392.294c0-.532-.117-1.003-.35-1.414a2.46 2.46 0 0 0-.924-.98c-.392-.233-.845-.35-1.358-.35-.504 0-.957.117-1.358.35-.401.233-.714.56-.938.98-.224.42-.336.901-.336 1.442v.154c0 .56.121 1.055.364 1.484.252.42.597.751 1.036.994.448.233.957.35 1.526.35.448 0 .863-.079 1.246-.238a2.592 2.592 0 0 0 1.008-.728l.56.644a3.14 3.14 0 0 1-1.232.896 4.096 4.096 0 0 1-1.61.308Zm9.639-7.49c.598 0 1.12.117 1.568.35.458.224.812.569 1.064 1.036.262.467.392 1.055.392 1.764V157h-.994v-4.172c0-.775-.196-1.358-.588-1.75-.382-.401-.924-.602-1.624-.602-.522 0-.98.107-1.372.322a2.167 2.167 0 0 0-.896.91c-.205.392-.308.868-.308 1.428V157h-.994v-7.35h.952v2.016l-.154-.378a2.644 2.644 0 0 1 1.12-1.246c.514-.308 1.125-.462 1.834-.462Zm8.593 7.49c-.69 0-1.222-.187-1.596-.56-.373-.373-.56-.901-.56-1.582v-6.902h.994v6.846c0 .429.108.761.322.994.224.233.542.35.952.35.439 0 .803-.126 1.092-.378l.35.714a1.835 1.835 0 0 1-.714.392c-.27.084-.55.126-.84.126Zm-3.472-6.594v-.826h4.55v.826h-4.55Zm9.37 6.594a5.775 5.775 0 0 1-1.722-.252c-.542-.177-.966-.397-1.274-.658l.448-.784c.298.224.681.42 1.148.588a4.52 4.52 0 0 0 1.47.238c.7 0 1.204-.107 1.512-.322.308-.224.462-.518.462-.882 0-.271-.089-.481-.266-.63a1.534 1.534 0 0 0-.672-.35 7.41 7.41 0 0 0-.938-.21 19.657 19.657 0 0 1-1.036-.196 4.012 4.012 0 0 1-.924-.322 1.937 1.937 0 0 1-.686-.602c-.168-.252-.252-.588-.252-1.008 0-.401.112-.761.336-1.078.224-.317.55-.565.98-.742.438-.187.97-.28 1.596-.28.476 0 .952.065 1.428.196.476.121.868.285 1.176.49l-.434.798a3.229 3.229 0 0 0-1.05-.476 4.2 4.2 0 0 0-1.12-.154c-.663 0-1.153.117-1.47.35-.308.224-.462.513-.462.868 0 .28.084.499.252.658.177.159.406.285.686.378.289.084.602.154.938.21.345.056.686.126 1.022.21.345.075.658.182.938.322.289.131.518.322.686.574.177.243.266.565.266.966 0 .429-.122.803-.364 1.12-.234.308-.579.551-1.036.728-.448.168-.994.252-1.638.252Z" fill="#fff"/><path fill-rule="evenodd" clip-rule="evenodd" d="m605.513 148.548 3.918.691a.443.443 0 0 1 .359.512l-.691 3.918a.442.442 0 1 1-.871-.153l.506-2.867-6.368 4.459a.443.443 0 0 1-.508-.724l6.369-4.459-2.867-.506a.442.442 0 1 1 .153-.871Z" fill="#fff"/><path d="M693.164 57V44.4h2.916V57h-2.916Zm11.234-9.828c.768 0 1.452.156 2.052.468.612.3 1.092.768 1.44 1.404.348.624.522 1.428.522 2.412V57h-2.808v-5.112c0-.78-.174-1.356-.522-1.728-.336-.372-.816-.558-1.44-.558-.444 0-.846.096-1.206.288-.348.18-.624.462-.828.846-.192.384-.288.876-.288 1.476V57h-2.808v-9.684h2.682v2.682l-.504-.81a3.587 3.587 0 0 1 1.494-1.494c.648-.348 1.386-.522 2.214-.522ZM713.05 57l-4.068-9.684h2.898l3.384 8.334h-1.44l3.51-8.334h2.7L715.948 57h-2.898Zm12.312.144c-1.104 0-2.076-.216-2.916-.648-.828-.432-1.47-1.02-1.926-1.764-.456-.756-.684-1.614-.684-2.574 0-.972.222-1.83.666-2.574a4.764 4.764 0 0 1 1.854-1.764c.78-.432 1.662-.648 2.646-.648.948 0 1.8.204 2.556.612a4.422 4.422 0 0 1 1.818 1.728c.444.744.666 1.638.666 2.682 0 .108-.006.234-.018.378a42.22 42.22 0 0 1-.036.378h-7.866v-1.638h6.39l-1.08.486c0-.504-.102-.942-.306-1.314a2.171 2.171 0 0 0-.846-.864c-.36-.216-.78-.324-1.26-.324s-.906.108-1.278.324c-.36.204-.642.498-.846.882-.204.372-.306.816-.306 1.332v.432c0 .528.114.996.342 1.404.24.396.57.702.99.918.432.204.936.306 1.512.306.516 0 .966-.078 1.35-.234.396-.156.756-.39 1.08-.702l1.494 1.62a4.437 4.437 0 0 1-1.674 1.17c-.672.264-1.446.396-2.322.396Zm9.447 0a9.834 9.834 0 0 1-2.394-.288c-.756-.204-1.356-.456-1.8-.756l.936-2.016c.444.276.966.504 1.566.684a6.782 6.782 0 0 0 1.8.252c.648 0 1.104-.078 1.368-.234.276-.156.414-.372.414-.648 0-.228-.108-.396-.324-.504-.204-.12-.48-.21-.828-.27-.348-.06-.732-.12-1.152-.18-.408-.06-.822-.138-1.242-.234a4.462 4.462 0 0 1-1.152-.468 2.429 2.429 0 0 1-.846-.828c-.204-.348-.306-.798-.306-1.35 0-.612.174-1.152.522-1.62.36-.468.876-.834 1.548-1.098.672-.276 1.476-.414 2.412-.414.66 0 1.332.072 2.016.216.684.144 1.254.354 1.71.63l-.936 1.998a4.553 4.553 0 0 0-1.422-.558 6.075 6.075 0 0 0-1.368-.162c-.624 0-1.08.084-1.368.252-.288.168-.432.384-.432.648 0 .24.102.42.306.54.216.12.498.216.846.288.348.072.726.138 1.134.198.42.048.84.126 1.26.234.42.108.798.264 1.134.468.348.192.63.462.846.81.216.336.324.78.324 1.332 0 .6-.18 1.134-.54 1.602-.36.456-.882.816-1.566 1.08-.672.264-1.494.396-2.466.396Zm9.905 0c-1.14 0-2.028-.288-2.664-.864-.636-.588-.954-1.458-.954-2.61v-8.496h2.808v8.46c0 .408.108.726.324.954.216.216.51.324.882.324.444 0 .822-.12 1.134-.36l.756 1.98c-.288.204-.636.36-1.044.468-.396.096-.81.144-1.242.144Zm-5.112-7.452v-2.16h6.714v2.16h-6.714Zm21.016-2.52c.768 0 1.446.156 2.034.468.6.3 1.068.768 1.404 1.404.348.624.522 1.428.522 2.412V57h-2.808v-5.112c0-.78-.162-1.356-.486-1.728-.324-.372-.78-.558-1.368-.558-.408 0-.774.096-1.098.288a1.82 1.82 0 0 0-.756.828c-.18.372-.27.846-.27 1.422V57h-2.808v-5.112c0-.78-.162-1.356-.486-1.728-.312-.372-.762-.558-1.35-.558-.408 0-.774.096-1.098.288a1.82 1.82 0 0 0-.756.828c-.18.372-.27.846-.27 1.422V57h-2.808v-9.684h2.682v2.646l-.504-.774c.336-.66.81-1.158 1.422-1.494.624-.348 1.332-.522 2.124-.522.888 0 1.662.228 2.322.684.672.444 1.116 1.128 1.332 2.052l-.99-.27a3.891 3.891 0 0 1 1.548-1.8c.72-.444 1.542-.666 2.466-.666Zm10.993 9.972c-1.104 0-2.076-.216-2.916-.648-.828-.432-1.47-1.02-1.926-1.764-.456-.756-.684-1.614-.684-2.574 0-.972.222-1.83.666-2.574a4.764 4.764 0 0 1 1.854-1.764c.78-.432 1.662-.648 2.646-.648.948 0 1.8.204 2.556.612a4.422 4.422 0 0 1 1.818 1.728c.444.744.666 1.638.666 2.682 0 .108-.006.234-.018.378a42.22 42.22 0 0 1-.036.378h-7.866v-1.638h6.39l-1.08.486c0-.504-.102-.942-.306-1.314a2.171 2.171 0 0 0-.846-.864c-.36-.216-.78-.324-1.26-.324s-.906.108-1.278.324c-.36.204-.642.498-.846.882-.204.372-.306.816-.306 1.332v.432c0 .528.114.996.342 1.404.24.396.57.702.99.918.432.204.936.306 1.512.306.516 0 .966-.078 1.35-.234.396-.156.756-.39 1.08-.702l1.494 1.62a4.437 4.437 0 0 1-1.674 1.17c-.672.264-1.446.396-2.322.396Zm12.076-9.972c.768 0 1.452.156 2.052.468.612.3 1.092.768 1.44 1.404.348.624.522 1.428.522 2.412V57h-2.808v-5.112c0-.78-.174-1.356-.522-1.728-.336-.372-.816-.558-1.44-.558-.444 0-.846.096-1.206.288-.348.18-.624.462-.828.846-.192.384-.288.876-.288 1.476V57h-2.808v-9.684h2.682v2.682l-.504-.81a3.587 3.587 0 0 1 1.494-1.494c.648-.348 1.386-.522 2.214-.522Zm10.159 9.972c-1.14 0-2.028-.288-2.664-.864-.636-.588-.954-1.458-.954-2.61v-8.496h2.808v8.46c0 .408.108.726.324.954.216.216.51.324.882.324.444 0 .822-.12 1.134-.36l.756 1.98c-.288.204-.636.36-1.044.468-.396.096-.81.144-1.242.144Zm-5.112-7.452v-2.16h6.714v2.16h-6.714ZM802.284 57V44.4h5.454c1.128 0 2.1.186 2.916.558.816.36 1.446.882 1.89 1.566.444.684.666 1.5.666 2.448 0 .936-.222 1.746-.666 2.43-.444.672-1.074 1.188-1.89 1.548-.816.36-1.788.54-2.916.54h-3.834l1.296-1.278V57h-2.916Zm8.01 0-3.15-4.572h3.114L813.444 57h-3.15Zm-5.094-4.464-1.296-1.368h3.672c.9 0 1.572-.192 2.016-.576.444-.396.666-.936.666-1.62 0-.696-.222-1.236-.666-1.62-.444-.384-1.116-.576-2.016-.576h-3.672l1.296-1.386v7.146Zm14.568 4.608c-1.104 0-2.076-.216-2.916-.648-.828-.432-1.47-1.02-1.926-1.764-.456-.756-.684-1.614-.684-2.574 0-.972.222-1.83.666-2.574a4.764 4.764 0 0 1 1.854-1.764c.78-.432 1.662-.648 2.646-.648.948 0 1.8.204 2.556.612a4.422 4.422 0 0 1 1.818 1.728c.444.744.666 1.638.666 2.682 0 .108-.006.234-.018.378a42.22 42.22 0 0 1-.036.378h-7.866v-1.638h6.39l-1.08.486c0-.504-.102-.942-.306-1.314a2.171 2.171 0 0 0-.846-.864c-.36-.216-.78-.324-1.26-.324s-.906.108-1.278.324c-.36.204-.642.498-.846.882-.204.372-.306.816-.306 1.332v.432c0 .528.114.996.342 1.404.24.396.57.702.99.918.432.204.936.306 1.512.306.516 0 .966-.078 1.35-.234.396-.156.756-.39 1.08-.702l1.494 1.62a4.437 4.437 0 0 1-1.674 1.17c-.672.264-1.446.396-2.322.396ZM831.634 57v-1.89l-.18-.414v-3.384c0-.6-.186-1.068-.558-1.404-.36-.336-.918-.504-1.674-.504a4.81 4.81 0 0 0-1.53.252 3.904 3.904 0 0 0-1.26.648l-1.008-1.962c.528-.372 1.164-.66 1.908-.864a8.54 8.54 0 0 1 2.268-.306c1.476 0 2.622.348 3.438 1.044.816.696 1.224 1.782 1.224 3.258V57h-2.628Zm-2.952.144c-.756 0-1.404-.126-1.944-.378-.54-.264-.954-.618-1.242-1.062a2.686 2.686 0 0 1-.432-1.494c0-.576.138-1.08.414-1.512.288-.432.738-.768 1.35-1.008.612-.252 1.41-.378 2.394-.378h2.574v1.638h-2.268c-.66 0-1.116.108-1.368.324-.24.216-.36.486-.36.81 0 .36.138.648.414.864.288.204.678.306 1.17.306.468 0 .888-.108 1.26-.324.372-.228.642-.558.81-.99l.432 1.296c-.204.624-.576 1.098-1.116 1.422-.54.324-1.236.486-2.088.486Zm7.762-.144V43.644h2.808V57h-2.808Zm5.054 0v-9.684h2.808V57h-2.808Zm1.404-11.034c-.516 0-.936-.15-1.26-.45a1.46 1.46 0 0 1-.486-1.116c0-.444.162-.816.486-1.116.324-.3.744-.45 1.26-.45s.936.144 1.26.432c.324.276.486.636.486 1.08 0 .468-.162.858-.486 1.17-.312.3-.732.45-1.26.45ZM845.886 57v-1.692l5.724-6.768.486.936h-6.084v-2.16h8.352v1.692l-5.724 6.768-.504-.936h6.39V57h-8.64Zm16.019 0v-1.89l-.18-.414v-3.384c0-.6-.186-1.068-.558-1.404-.36-.336-.918-.504-1.674-.504a4.81 4.81 0 0 0-1.53.252 3.904 3.904 0 0 0-1.26.648l-1.008-1.962c.528-.372 1.164-.66 1.908-.864a8.54 8.54 0 0 1 2.268-.306c1.476 0 2.622.348 3.438 1.044.816.696 1.224 1.782 1.224 3.258V57h-2.628Zm-2.952.144c-.756 0-1.404-.126-1.944-.378-.54-.264-.954-.618-1.242-1.062a2.686 2.686 0 0 1-.432-1.494c0-.576.138-1.08.414-1.512.288-.432.738-.768 1.35-1.008.612-.252 1.41-.378 2.394-.378h2.574v1.638h-2.268c-.66 0-1.116.108-1.368.324-.24.216-.36.486-.36.81 0 .36.138.648.414.864.288.204.678.306 1.17.306.468 0 .888-.108 1.26-.324.372-.228.642-.558.81-.99l.432 1.296c-.204.624-.576 1.098-1.116 1.422-.54.324-1.236.486-2.088.486Zm11.721 0c-1.14 0-2.028-.288-2.664-.864-.636-.588-.954-1.458-.954-2.61v-8.496h2.808v8.46c0 .408.108.726.324.954.216.216.51.324.882.324.444 0 .822-.12 1.134-.36l.756 1.98c-.288.204-.636.36-1.044.468-.396.096-.81.144-1.242.144Zm-5.112-7.452v-2.16h6.714v2.16h-6.714ZM874.177 57v-9.684h2.808V57h-2.808Zm1.404-11.034c-.516 0-.936-.15-1.26-.45a1.46 1.46 0 0 1-.486-1.116c0-.444.162-.816.486-1.116.324-.3.744-.45 1.26-.45s.936.144 1.26.432c.324.276.486.636.486 1.08 0 .468-.162.858-.486 1.17-.312.3-.732.45-1.26.45Zm8.258 11.178c-1.032 0-1.95-.216-2.754-.648a5.044 5.044 0 0 1-1.89-1.764c-.456-.756-.684-1.614-.684-2.574 0-.972.228-1.83.684-2.574a4.861 4.861 0 0 1 1.89-1.764c.804-.432 1.722-.648 2.754-.648 1.02 0 1.932.216 2.736.648a4.743 4.743 0 0 1 1.89 1.746c.456.744.684 1.608.684 2.592 0 .96-.228 1.818-.684 2.574a4.872 4.872 0 0 1-1.89 1.764c-.804.432-1.716.648-2.736.648Zm0-2.304c.468 0 .888-.108 1.26-.324.372-.216.666-.522.882-.918.216-.408.324-.888.324-1.44 0-.564-.108-1.044-.324-1.44a2.322 2.322 0 0 0-.882-.918 2.463 2.463 0 0 0-1.26-.324c-.468 0-.888.108-1.26.324a2.45 2.45 0 0 0-.9.918c-.216.396-.324.876-.324 1.44 0 .552.108 1.032.324 1.44.228.396.528.702.9.918.372.216.792.324 1.26.324Zm12.713-7.668c.768 0 1.452.156 2.052.468.612.3 1.092.768 1.44 1.404.348.624.522 1.428.522 2.412V57h-2.808v-5.112c0-.78-.174-1.356-.522-1.728-.336-.372-.816-.558-1.44-.558-.444 0-.846.096-1.206.288-.348.18-.624.462-.828.846-.192.384-.288.876-.288 1.476V57h-2.808v-9.684h2.682v2.682l-.504-.81a3.587 3.587 0 0 1 1.494-1.494c.648-.348 1.386-.522 2.214-.522Z" fill="#fff"/><path opacity=".1" stroke="#fff" stroke-linecap="round" stroke-linejoin="round" d="M677.17 76.5H949.5"/><path d="M693.266 102v-9.8h4.228c1.092 0 1.937.22 2.534.658.607.439.91 1.06.91 1.862 0 .532-.126.98-.378 1.344-.243.364-.579.64-1.008.826-.42.187-.882.28-1.386.28l.238-.336c.625 0 1.162.098 1.61.294.457.187.812.471 1.064.854.252.373.378.84.378 1.4 0 .831-.308 1.475-.924 1.932-.607.457-1.526.686-2.758.686h-4.508Zm1.036-.854h3.458c.859 0 1.517-.145 1.974-.434.457-.299.686-.77.686-1.414 0-.635-.229-1.097-.686-1.386-.457-.299-1.115-.448-1.974-.448h-3.57v-.854h3.234c.784 0 1.391-.15 1.82-.448.439-.299.658-.742.658-1.33 0-.597-.219-1.04-.658-1.33-.429-.299-1.036-.448-1.82-.448h-3.122v8.092Zm9.869.854v-7.35h.952v2.002l-.098-.35c.205-.56.55-.985 1.036-1.274.485-.299 1.087-.448 1.806-.448v.966h-.112a.468.468 0 0 0-.112-.014c-.775 0-1.382.238-1.82.714-.439.467-.658 1.134-.658 2.002V102h-.994Zm8.997.07c-.709 0-1.349-.159-1.918-.476a3.64 3.64 0 0 1-1.33-1.33c-.327-.57-.49-1.218-.49-1.946 0-.737.163-1.386.49-1.946.327-.56.77-.999 1.33-1.316.56-.317 1.199-.476 1.918-.476.728 0 1.372.159 1.932.476a3.402 3.402 0 0 1 1.33 1.316c.327.56.49 1.209.49 1.946 0 .728-.163 1.377-.49 1.946a3.503 3.503 0 0 1-1.33 1.33c-.569.317-1.213.476-1.932.476Zm0-.882c.532 0 1.003-.117 1.414-.35.411-.243.733-.579.966-1.008.243-.439.364-.943.364-1.512 0-.579-.121-1.083-.364-1.512a2.473 2.473 0 0 0-.966-.994 2.7 2.7 0 0 0-1.4-.364 2.7 2.7 0 0 0-1.4.364 2.573 2.573 0 0 0-.98.994c-.243.43-.364.933-.364 1.512 0 .57.121 1.073.364 1.512.243.429.569.765.98 1.008.411.233.873.35 1.386.35Zm7.634.812-2.772-7.35h.952l2.52 6.818h-.434l2.59-6.818h.854l2.562 6.818h-.434l2.562-6.818h.91l-2.786 7.35h-.938l-2.464-6.412h.294L721.74 102h-.938Zm13.259.07a5.775 5.775 0 0 1-1.722-.252c-.541-.177-.966-.397-1.274-.658l.448-.784c.299.224.681.42 1.148.588a4.53 4.53 0 0 0 1.47.238c.7 0 1.204-.107 1.512-.322.308-.224.462-.518.462-.882 0-.27-.089-.48-.266-.63a1.534 1.534 0 0 0-.672-.35 7.41 7.41 0 0 0-.938-.21 20.171 20.171 0 0 1-1.036-.196 3.998 3.998 0 0 1-.924-.322 1.94 1.94 0 0 1-.686-.602c-.168-.252-.252-.588-.252-1.008 0-.401.112-.76.336-1.078.224-.317.551-.565.98-.742.439-.187.971-.28 1.596-.28.476 0 .952.065 1.428.196.476.121.868.285 1.176.49l-.434.798a3.235 3.235 0 0 0-1.05-.476 4.206 4.206 0 0 0-1.12-.154c-.663 0-1.153.117-1.47.35-.308.224-.462.513-.462.868 0 .28.084.5.252.658.177.159.406.285.686.378.289.084.602.154.938.21.345.056.686.126 1.022.21.345.075.658.182.938.322.289.13.518.322.686.574.177.243.266.565.266.966 0 .429-.121.803-.364 1.12-.233.308-.579.551-1.036.728-.448.168-.994.252-1.638.252Zm8.544 0c-.765 0-1.437-.159-2.016-.476a3.578 3.578 0 0 1-1.358-1.33c-.327-.57-.49-1.218-.49-1.946s.154-1.372.462-1.932c.317-.56.747-.999 1.288-1.316a3.555 3.555 0 0 1 1.848-.49c.691 0 1.302.159 1.834.476.541.308.966.747 1.274 1.316.308.56.462 1.209.462 1.946a.98.98 0 0 1-.014.154v.154h-6.398v-.742h5.866l-.392.294c0-.532-.117-1.003-.35-1.414a2.462 2.462 0 0 0-.924-.98c-.392-.233-.845-.35-1.358-.35-.504 0-.957.117-1.358.35-.401.233-.714.56-.938.98-.224.42-.336.9-.336 1.442v.154c0 .56.121 1.055.364 1.484.252.42.597.751 1.036.994.448.233.957.35 1.526.35.448 0 .863-.079 1.246-.238a2.592 2.592 0 0 0 1.008-.728l.56.644a3.14 3.14 0 0 1-1.232.896 4.096 4.096 0 0 1-1.61.308Zm13.905 0a3.447 3.447 0 0 1-1.722-.434 3.306 3.306 0 0 1-1.232-1.274c-.299-.56-.448-1.241-.448-2.044 0-.803.149-1.48.448-2.03.299-.56.705-.985 1.218-1.274a3.473 3.473 0 0 1 1.736-.434c.7 0 1.325.159 1.876.476.56.308.999.747 1.316 1.316.317.56.476 1.209.476 1.946 0 .747-.159 1.4-.476 1.96-.317.56-.756.999-1.316 1.316-.551.317-1.176.476-1.876.476Zm-3.794 2.646V94.65h.952v2.212l-.098 1.47.14 1.484v4.9h-.994Zm3.724-3.528c.523 0 .989-.117 1.4-.35a2.68 2.68 0 0 0 .98-1.008c.243-.439.364-.943.364-1.512 0-.57-.121-1.069-.364-1.498a2.676 2.676 0 0 0-.98-1.008 2.7 2.7 0 0 0-1.4-.364c-.523 0-.994.121-1.414.364a2.676 2.676 0 0 0-.98 1.008c-.233.43-.35.929-.35 1.498 0 .57.117 1.073.35 1.512.243.429.569.765.98 1.008.42.233.891.35 1.414.35Zm9.446.882c-.765 0-1.437-.159-2.016-.476a3.585 3.585 0 0 1-1.358-1.33c-.326-.57-.49-1.218-.49-1.946s.154-1.372.462-1.932c.318-.56.747-.999 1.288-1.316a3.555 3.555 0 0 1 1.848-.49c.691 0 1.302.159 1.834.476.542.308.966.747 1.274 1.316.308.56.462 1.209.462 1.946a.874.874 0 0 1-.014.154v.154h-6.398v-.742h5.866l-.392.294c0-.532-.116-1.003-.35-1.414a2.462 2.462 0 0 0-.924-.98c-.392-.233-.844-.35-1.358-.35-.504 0-.956.117-1.358.35-.401.233-.714.56-.938.98-.224.42-.336.9-.336 1.442v.154c0 .56.122 1.055.364 1.484.252.42.598.751 1.036.994.448.233.957.35 1.526.35.448 0 .864-.079 1.246-.238a2.592 2.592 0 0 0 1.008-.728l.56.644a3.133 3.133 0 0 1-1.232.896 4.096 4.096 0 0 1-1.61.308Zm5.888-.07v-7.35h.952v2.002l-.098-.35c.205-.56.55-.985 1.036-1.274.485-.299 1.087-.448 1.806-.448v.966h-.112a.468.468 0 0 0-.112-.014c-.775 0-1.382.238-1.82.714-.439.467-.658 1.134-.658 2.002V102h-.994Zm10.459 2.786c-.345 0-.677-.056-.994-.168a2.154 2.154 0 0 1-.798-.504l.462-.742c.187.177.387.313.602.406.224.103.471.154.742.154a1.3 1.3 0 0 0 .84-.28c.243-.177.471-.495.686-.952l.476-1.078.112-.154 3.024-6.818h.98l-3.682 8.232c-.205.476-.434.854-.686 1.134-.243.28-.509.476-.798.588a2.478 2.478 0 0 1-.966.182Zm1.96-2.576-3.388-7.56h1.036l2.996 6.748-.644.812Zm9.049-.14c-.766 0-1.438-.159-2.016-.476a3.57 3.57 0 0 1-1.358-1.33c-.327-.57-.49-1.218-.49-1.946s.154-1.372.462-1.932c.317-.56.746-.999 1.288-1.316a3.55 3.55 0 0 1 1.848-.49c.69 0 1.302.159 1.834.476.541.308.966.747 1.274 1.316.308.56.462 1.209.462 1.946a.98.98 0 0 1-.014.154v.154h-6.398v-.742H796l-.392.294c0-.532-.117-1.003-.35-1.414a2.462 2.462 0 0 0-.924-.98c-.392-.233-.845-.35-1.358-.35-.504 0-.957.117-1.358.35-.402.233-.714.56-.938.98-.224.42-.336.9-.336 1.442v.154c0 .56.121 1.055.364 1.484.252.42.597.751 1.036.994.448.233.956.35 1.526.35.448 0 .863-.079 1.246-.238a2.592 2.592 0 0 0 1.008-.728l.56.644a3.147 3.147 0 0 1-1.232.896 4.1 4.1 0 0 1-1.61.308Zm10.288-.07v-1.624l-.042-.266v-2.716c0-.625-.178-1.106-.532-1.442-.346-.336-.864-.504-1.554-.504-.476 0-.929.08-1.358.238-.43.159-.794.369-1.092.63l-.448-.742c.373-.317.821-.56 1.344-.728a5.103 5.103 0 0 1 1.652-.266c.952 0 1.684.238 2.198.714.522.467.784 1.18.784 2.142V102h-.952Zm-2.534.07c-.551 0-1.032-.089-1.442-.266-.402-.187-.71-.439-.924-.756a1.991 1.991 0 0 1-.322-1.12c0-.383.088-.728.266-1.036.186-.317.485-.57.896-.756.42-.196.98-.294 1.68-.294h2.534v.742h-2.506c-.71 0-1.204.126-1.484.378a1.229 1.229 0 0 0-.406.938c0 .42.163.756.49 1.008.326.252.784.378 1.372.378.56 0 1.04-.126 1.442-.378.41-.261.709-.635.896-1.12l.224.686a2.331 2.331 0 0 1-.98 1.162c-.458.289-1.036.434-1.736.434Zm6.746-.07v-7.35h.952v2.002l-.098-.35c.205-.56.55-.985 1.036-1.274.485-.299 1.087-.448 1.806-.448v.966h-.112a.468.468 0 0 0-.112-.014c-.775 0-1.382.238-1.82.714-.439.467-.658 1.134-.658 2.002V102h-.994Z" fill="#fff"/><rect x="691.67" y="117" width="61" height="25" rx="12.5" fill="#49A85E"/><path d="M709.5 133.5v-1.05l2.7-2.55c.213-.193.37-.367.47-.52.1-.153.167-.293.2-.42.04-.127.06-.243.06-.35 0-.28-.097-.493-.29-.64-.187-.153-.463-.23-.83-.23a1.99 1.99 0 0 0-.82.17c-.247.113-.457.29-.63.53l-1.18-.76c.267-.4.64-.717 1.12-.95.48-.233 1.033-.35 1.66-.35.52 0 .973.087 1.36.26.393.167.697.403.91.71.22.307.33.673.33 1.1 0 .227-.03.453-.09.68-.053.22-.167.453-.34.7a5.146 5.146 0 0 1-.74.83l-2.24 2.11-.31-.59h3.95v1.32h-5.29Zm9.158.12c-.573 0-1.086-.14-1.54-.42-.453-.287-.81-.7-1.07-1.24s-.39-1.193-.39-1.96c0-.767.13-1.42.39-1.96s.617-.95 1.07-1.23a2.82 2.82 0 0 1 1.54-.43c.58 0 1.094.143 1.54.43.454.28.81.69 1.07 1.23s.39 1.193.39 1.96c0 .767-.13 1.42-.39 1.96s-.616.953-1.07 1.24c-.446.28-.96.42-1.54.42Zm0-1.37c.274 0 .51-.077.71-.23.207-.153.367-.397.48-.73.12-.333.18-.763.18-1.29s-.06-.957-.18-1.29c-.113-.333-.273-.577-.48-.73-.2-.153-.436-.23-.71-.23-.266 0-.503.077-.71.23-.2.153-.36.397-.48.73-.113.333-.17.763-.17 1.29s.057.957.17 1.29c.12.333.28.577.48.73.207.153.444.23.71.23Zm3.888 1.25v-1.05l2.7-2.55a2.81 2.81 0 0 0 .47-.52c.1-.153.167-.293.2-.42.04-.127.06-.243.06-.35 0-.28-.096-.493-.29-.64-.186-.153-.463-.23-.83-.23-.293 0-.566.057-.82.17a1.6 1.6 0 0 0-.63.53l-1.18-.76c.267-.4.64-.717 1.12-.95.48-.233 1.034-.35 1.66-.35.52 0 .974.087 1.36.26.394.167.697.403.91.71.22.307.33.673.33 1.1 0 .227-.03.453-.09.68-.053.22-.166.453-.34.7-.166.247-.413.523-.74.83l-2.24 2.11-.31-.59h3.95v1.32h-5.29Zm6.099 0v-1.05l2.7-2.55c.213-.193.37-.367.47-.52.1-.153.167-.293.2-.42.04-.127.06-.243.06-.35 0-.28-.097-.493-.29-.64-.187-.153-.463-.23-.83-.23a1.99 1.99 0 0 0-.82.17c-.247.113-.457.29-.63.53l-1.18-.76c.267-.4.64-.717 1.12-.95.48-.233 1.033-.35 1.66-.35.52 0 .973.087 1.36.26.393.167.697.403.91.71.22.307.33.673.33 1.1 0 .227-.03.453-.09.68-.053.22-.167.453-.34.7a5.146 5.146 0 0 1-.74.83l-2.24 2.11-.31-.59h3.95v1.32h-5.29Z" fill="#fff"/><rect x="762.67" y="117" width="59" height="25" rx="12.5" fill="#49A85E"/><path d="M780.5 133.5v-1.05l2.7-2.55c.213-.193.37-.367.47-.52.1-.153.167-.293.2-.42.04-.127.06-.243.06-.35 0-.28-.097-.493-.29-.64-.187-.153-.463-.23-.83-.23a1.99 1.99 0 0 0-.82.17c-.247.113-.457.29-.63.53l-1.18-.76c.267-.4.64-.717 1.12-.95.48-.233 1.033-.35 1.66-.35.52 0 .973.087 1.36.26.393.167.697.403.91.71.22.307.33.673.33 1.1 0 .227-.03.453-.09.68-.053.22-.167.453-.34.7a5.146 5.146 0 0 1-.74.83l-2.24 2.11-.31-.59h3.95v1.32h-5.29Zm9.158.12c-.573 0-1.086-.14-1.54-.42-.453-.287-.81-.7-1.07-1.24s-.39-1.193-.39-1.96c0-.767.13-1.42.39-1.96s.617-.95 1.07-1.23a2.82 2.82 0 0 1 1.54-.43c.58 0 1.094.143 1.54.43.454.28.81.69 1.07 1.23s.39 1.193.39 1.96c0 .767-.13 1.42-.39 1.96s-.616.953-1.07 1.24c-.446.28-.96.42-1.54.42Zm0-1.37c.274 0 .51-.077.71-.23.207-.153.367-.397.48-.73.12-.333.18-.763.18-1.29s-.06-.957-.18-1.29c-.113-.333-.273-.577-.48-.73-.2-.153-.436-.23-.71-.23-.266 0-.503.077-.71.23-.2.153-.36.397-.48.73-.113.333-.17.763-.17 1.29s.057.957.17 1.29c.12.333.28.577.48.73.207.153.444.23.71.23Zm3.888 1.25v-1.05l2.7-2.55a2.81 2.81 0 0 0 .47-.52c.1-.153.167-.293.2-.42.04-.127.06-.243.06-.35 0-.28-.096-.493-.29-.64-.186-.153-.463-.23-.83-.23-.293 0-.566.057-.82.17a1.6 1.6 0 0 0-.63.53l-1.18-.76c.267-.4.64-.717 1.12-.95.48-.233 1.034-.35 1.66-.35.52 0 .974.087 1.36.26.394.167.697.403.91.71.22.307.33.673.33 1.1 0 .227-.03.453-.09.68-.053.22-.166.453-.34.7-.166.247-.413.523-.74.83l-2.24 2.11-.31-.59h3.95v1.32h-5.29Zm7.239 0v-6.4l.7.7h-2.1v-1.3h3.02v7h-1.62Z" fill="#fff"/><rect x="831.67" y="117" width="61" height="25" rx="12.5" fill="#49A85E"/><path d="M849.5 133.5v-1.05l2.7-2.55c.213-.193.37-.367.47-.52.1-.153.167-.293.2-.42.04-.127.06-.243.06-.35 0-.28-.097-.493-.29-.64-.187-.153-.463-.23-.83-.23a1.99 1.99 0 0 0-.82.17c-.247.113-.457.29-.63.53l-1.18-.76c.267-.4.64-.717 1.12-.95.48-.233 1.033-.35 1.66-.35.52 0 .973.087 1.36.26.393.167.697.403.91.71.22.307.33.673.33 1.1 0 .227-.03.453-.09.68-.053.22-.167.453-.34.7a5.146 5.146 0 0 1-.74.83l-2.24 2.11-.31-.59h3.95v1.32h-5.29Zm9.158.12c-.573 0-1.086-.14-1.54-.42-.453-.287-.81-.7-1.07-1.24s-.39-1.193-.39-1.96c0-.767.13-1.42.39-1.96s.617-.95 1.07-1.23a2.82 2.82 0 0 1 1.54-.43c.58 0 1.094.143 1.54.43.454.28.81.69 1.07 1.23s.39 1.193.39 1.96c0 .767-.13 1.42-.39 1.96s-.616.953-1.07 1.24c-.446.28-.96.42-1.54.42Zm0-1.37c.274 0 .51-.077.71-.23.207-.153.367-.397.48-.73.12-.333.18-.763.18-1.29s-.06-.957-.18-1.29c-.113-.333-.273-.577-.48-.73-.2-.153-.436-.23-.71-.23-.266 0-.503.077-.71.23-.2.153-.36.397-.48.73-.113.333-.17.763-.17 1.29s.057.957.17 1.29c.12.333.28.577.48.73.207.153.444.23.71.23Zm3.888 1.25v-1.05l2.7-2.55a2.81 2.81 0 0 0 .47-.52c.1-.153.167-.293.2-.42.04-.127.06-.243.06-.35 0-.28-.096-.493-.29-.64-.186-.153-.463-.23-.83-.23-.293 0-.566.057-.82.17a1.6 1.6 0 0 0-.63.53l-1.18-.76c.267-.4.64-.717 1.12-.95.48-.233 1.034-.35 1.66-.35.52 0 .974.087 1.36.26.394.167.697.403.91.71.22.307.33.673.33 1.1 0 .227-.03.453-.09.68-.053.22-.166.453-.34.7-.166.247-.413.523-.74.83l-2.24 2.11-.31-.59h3.95v1.32h-5.29Zm9.159.12a2.87 2.87 0 0 1-1.54-.42c-.453-.287-.81-.7-1.07-1.24s-.39-1.193-.39-1.96c0-.767.13-1.42.39-1.96s.617-.95 1.07-1.23c.453-.287.967-.43 1.54-.43.58 0 1.093.143 1.54.43.453.28.81.69 1.07 1.23s.39 1.193.39 1.96c0 .767-.13 1.42-.39 1.96s-.617.953-1.07 1.24c-.447.28-.96.42-1.54.42Zm0-1.37c.273 0 .51-.077.71-.23.207-.153.367-.397.48-.73.12-.333.18-.763.18-1.29s-.06-.957-.18-1.29c-.113-.333-.273-.577-.48-.73-.2-.153-.437-.23-.71-.23-.267 0-.503.077-.71.23-.2.153-.36.397-.48.73-.113.333-.17.763-.17 1.29s.057.957.17 1.29c.12.333.28.577.48.73.207.153.443.23.71.23Z" fill="#fff"/><path opacity=".1" stroke="#fff" stroke-linecap="round" stroke-linejoin="round" d="M677.17 151.5H949.5"/><path d="M693.266 182v-9.8h3.668c.831 0 1.545.135 2.142.406.597.261 1.055.644 1.372 1.148.327.495.49 1.097.49 1.806 0 .691-.163 1.288-.49 1.792-.317.495-.775.877-1.372 1.148-.597.261-1.311.392-2.142.392h-3.094l.462-.476V182h-1.036Zm6.692 0-2.52-3.556h1.12l2.534 3.556h-1.134Zm-5.656-3.5-.462-.49h3.066c.98 0 1.722-.215 2.226-.644.513-.429.77-1.031.77-1.806 0-.784-.257-1.391-.77-1.82-.504-.429-1.246-.644-2.226-.644h-3.066l.462-.49v5.894Zm12.553 3.57c-.765 0-1.437-.159-2.016-.476a3.578 3.578 0 0 1-1.358-1.33c-.327-.569-.49-1.218-.49-1.946s.154-1.372.462-1.932c.317-.56.747-.999 1.288-1.316a3.552 3.552 0 0 1 1.848-.49c.691 0 1.302.159 1.834.476a3.27 3.27 0 0 1 1.274 1.316c.308.56.462 1.209.462 1.946a.978.978 0 0 1-.014.154v.154h-6.398v-.742h5.866l-.392.294c0-.532-.117-1.003-.35-1.414a2.46 2.46 0 0 0-.924-.98c-.392-.233-.845-.35-1.358-.35-.504 0-.957.117-1.358.35-.401.233-.714.56-.938.98-.224.42-.336.901-.336 1.442v.154c0 .56.121 1.055.364 1.484.252.42.597.751 1.036.994.448.233.957.35 1.526.35.448 0 .863-.079 1.246-.238a2.592 2.592 0 0 0 1.008-.728l.56.644a3.14 3.14 0 0 1-1.232.896 4.096 4.096 0 0 1-1.61.308Zm10.288-.07v-1.624l-.042-.266v-2.716c0-.625-.177-1.106-.532-1.442-.345-.336-.863-.504-1.554-.504a3.88 3.88 0 0 0-1.358.238 3.48 3.48 0 0 0-1.092.63l-.448-.742a3.9 3.9 0 0 1 1.344-.728 5.12 5.12 0 0 1 1.652-.266c.952 0 1.685.238 2.198.714.523.467.784 1.181.784 2.142V182h-.952Zm-2.534.07c-.55 0-1.031-.089-1.442-.266-.401-.187-.709-.439-.924-.756a2 2 0 0 1-.322-1.12c0-.383.089-.728.266-1.036.187-.317.486-.569.896-.756.42-.196.98-.294 1.68-.294h2.534v.742h-2.506c-.709 0-1.204.126-1.484.378-.27.252-.406.565-.406.938 0 .42.164.756.49 1.008.327.252.784.378 1.372.378.56 0 1.041-.126 1.442-.378.411-.261.71-.635.896-1.12l.224.686a2.321 2.321 0 0 1-.98 1.162c-.457.289-1.036.434-1.736.434Zm9.672 0c-.7 0-1.33-.159-1.89-.476a3.45 3.45 0 0 1-1.302-1.316c-.317-.569-.476-1.223-.476-1.96 0-.747.159-1.4.476-1.96.317-.56.751-.994 1.302-1.302a3.77 3.77 0 0 1 1.89-.476c.644 0 1.218.145 1.722.434.513.289.919.714 1.218 1.274.308.551.462 1.227.462 2.03 0 .793-.149 1.47-.448 2.03a3.19 3.19 0 0 1-1.218 1.288c-.504.289-1.083.434-1.736.434Zm.07-.882c.523 0 .989-.117 1.4-.35.42-.243.747-.579.98-1.008.243-.439.364-.943.364-1.512 0-.579-.121-1.083-.364-1.512a2.45 2.45 0 0 0-.98-.994 2.696 2.696 0 0 0-1.4-.364c-.513 0-.975.121-1.386.364a2.573 2.573 0 0 0-.98.994c-.243.429-.364.933-.364 1.512 0 .569.121 1.073.364 1.512.243.429.569.765.98 1.008.411.233.873.35 1.386.35Zm2.772.812v-2.212l.098-1.484-.14-1.484v-5.208h.994V182h-.952Zm17.688-7.42c.598 0 1.116.117 1.554.35.448.224.794.569 1.036 1.036.252.467.378 1.055.378 1.764V182h-.994v-4.172c0-.775-.186-1.358-.56-1.75-.364-.401-.882-.602-1.554-.602-.504 0-.942.107-1.316.322a2.128 2.128 0 0 0-.854.91c-.196.392-.294.868-.294 1.428V182h-.994v-4.172c0-.775-.186-1.358-.56-1.75-.373-.401-.896-.602-1.568-.602-.494 0-.928.107-1.302.322a2.106 2.106 0 0 0-.868.91c-.196.392-.294.868-.294 1.428V182h-.994v-7.35h.952v1.988l-.154-.35a2.604 2.604 0 0 1 1.078-1.246c.504-.308 1.097-.462 1.778-.462.719 0 1.33.182 1.834.546.504.355.831.891.98 1.61l-.392-.154a2.877 2.877 0 0 1 1.134-1.442c.551-.373 1.209-.56 1.974-.56Zm9.22 7.49c-.709 0-1.349-.159-1.918-.476a3.64 3.64 0 0 1-1.33-1.33c-.327-.569-.49-1.218-.49-1.946 0-.737.163-1.386.49-1.946a3.53 3.53 0 0 1 1.33-1.316c.56-.317 1.199-.476 1.918-.476.728 0 1.372.159 1.932.476a3.4 3.4 0 0 1 1.33 1.316c.327.56.49 1.209.49 1.946 0 .728-.163 1.377-.49 1.946a3.503 3.503 0 0 1-1.33 1.33c-.569.317-1.213.476-1.932.476Zm0-.882c.532 0 1.003-.117 1.414-.35.411-.243.733-.579.966-1.008.243-.439.364-.943.364-1.512 0-.579-.121-1.083-.364-1.512a2.473 2.473 0 0 0-.966-.994 2.696 2.696 0 0 0-1.4-.364c-.523 0-.989.121-1.4.364a2.573 2.573 0 0 0-.98.994c-.243.429-.364.933-.364 1.512 0 .569.121 1.073.364 1.512.243.429.569.765.98 1.008.411.233.873.35 1.386.35Zm6.341.812v-7.35h.952v2.002l-.098-.35c.206-.56.551-.985 1.036-1.274.486-.299 1.088-.448 1.806-.448v.966h-.112a.47.47 0 0 0-.112-.014c-.774 0-1.381.238-1.82.714-.438.467-.658 1.134-.658 2.002V182h-.994Zm9.124.07c-.766 0-1.438-.159-2.016-.476a3.57 3.57 0 0 1-1.358-1.33c-.327-.569-.49-1.218-.49-1.946s.154-1.372.462-1.932c.317-.56.746-.999 1.288-1.316a3.547 3.547 0 0 1 1.848-.49c.69 0 1.302.159 1.834.476a3.27 3.27 0 0 1 1.274 1.316c.308.56.462 1.209.462 1.946a.978.978 0 0 1-.014.154v.154h-6.398v-.742h5.866l-.392.294c0-.532-.117-1.003-.35-1.414a2.46 2.46 0 0 0-.924-.98c-.392-.233-.845-.35-1.358-.35-.504 0-.957.117-1.358.35-.402.233-.714.56-.938.98-.224.42-.336.901-.336 1.442v.154c0 .56.121 1.055.364 1.484.252.42.597.751 1.036.994.448.233.956.35 1.526.35.448 0 .863-.079 1.246-.238a2.592 2.592 0 0 0 1.008-.728l.56.644a3.147 3.147 0 0 1-1.232.896 4.1 4.1 0 0 1-1.61.308Z" fill="#fff"/><path fill-rule="evenodd" clip-rule="evenodd" d="m928.843 173.548 3.918.691a.443.443 0 0 1 .359.512l-.691 3.918a.442.442 0 1 1-.871-.153l.506-2.867-6.368 4.459a.443.443 0 0 1-.507-.724l6.368-4.459-2.867-.506a.442.442 0 1 1 .153-.871Z" fill="#fff"/><path d="M0 222h1000v91c0 5.523-4.477 10-10 10H10c-5.523 0-10-4.477-10-10v-91Z" fill="#49A85E"/><path d="M66.494 264v-12.6h5.454c1.128 0 2.1.186 2.916.558.816.36 1.446.882 1.89 1.566.444.684.666 1.5.666 2.448 0 .936-.222 1.746-.666 2.43-.444.684-1.074 1.212-1.89 1.584-.816.36-1.788.54-2.916.54h-3.834l1.296-1.314V264h-2.916Zm2.916-4.464-1.296-1.386h3.672c.9 0 1.572-.192 2.016-.576.444-.384.666-.918.666-1.602 0-.696-.222-1.236-.666-1.62-.444-.384-1.116-.576-2.016-.576h-3.672l1.296-1.386v7.146Zm13.796 4.608c-.804 0-1.524-.156-2.16-.468a3.335 3.335 0 0 1-1.458-1.422c-.348-.648-.522-1.47-.522-2.466v-5.472h2.808v5.058c0 .804.168 1.398.504 1.782.348.372.834.558 1.458.558.432 0 .816-.09 1.152-.27.336-.192.6-.48.792-.864.192-.396.288-.888.288-1.476v-4.788h2.808V264h-2.664v-2.664l.486.774a3.36 3.36 0 0 1-1.44 1.53 4.259 4.259 0 0 1-2.052.504Zm13.635 0c-.852 0-1.584-.18-2.196-.54-.612-.36-1.08-.906-1.404-1.638-.324-.744-.486-1.68-.486-2.808 0-1.14.168-2.076.504-2.808.348-.732.828-1.278 1.44-1.638.612-.36 1.326-.54 2.142-.54.912 0 1.728.204 2.448.612a4.43 4.43 0 0 1 1.728 1.728c.432.744.648 1.626.648 2.646 0 1.008-.216 1.884-.648 2.628a4.558 4.558 0 0 1-1.728 1.746c-.72.408-1.536.612-2.448.612ZM91.117 264v-13.356h2.808v5.634l-.18 2.862.054 2.88V264h-2.682Zm5.238-2.16c.468 0 .882-.108 1.242-.324.372-.216.666-.522.882-.918.228-.408.342-.888.342-1.44 0-.564-.114-1.044-.342-1.44a2.322 2.322 0 0 0-.882-.918 2.367 2.367 0 0 0-1.242-.324c-.468 0-.888.108-1.26.324a2.322 2.322 0 0 0-.882.918c-.216.396-.324.876-.324 1.44 0 .552.108 1.032.324 1.44.216.396.51.702.882.918.372.216.792.324 1.26.324Zm6.83 2.16v-13.356h2.808V264h-2.808Zm5.054 0v-9.684h2.808V264h-2.808Zm1.404-11.034c-.516 0-.936-.15-1.26-.45a1.46 1.46 0 0 1-.486-1.116c0-.444.162-.816.486-1.116.324-.3.744-.45 1.26-.45s.936.144 1.26.432c.324.276.486.636.486 1.08 0 .468-.162.858-.486 1.17-.312.3-.732.45-1.26.45Zm8.33 11.178c-1.044 0-1.974-.21-2.79-.63a4.929 4.929 0 0 1-1.926-1.782c-.456-.756-.684-1.614-.684-2.574 0-.972.228-1.83.684-2.574a4.8 4.8 0 0 1 1.926-1.764c.816-.432 1.746-.648 2.79-.648 1.02 0 1.908.216 2.664.648a3.849 3.849 0 0 1 1.674 1.818l-2.178 1.17c-.252-.456-.57-.792-.954-1.008a2.394 2.394 0 0 0-1.224-.324c-.48 0-.912.108-1.296.324-.384.216-.69.522-.918.918-.216.396-.324.876-.324 1.44s.108 1.044.324 1.44c.228.396.534.702.918.918.384.216.816.324 1.296.324.444 0 .852-.102 1.224-.306.384-.216.702-.558.954-1.026l2.178 1.188a3.961 3.961 0 0 1-1.674 1.818c-.756.42-1.644.63-2.664.63Zm10.53-.144v-12.6h2.916V264h-2.916Zm11.235-9.828c.768 0 1.452.156 2.052.468.612.3 1.092.768 1.44 1.404.348.624.522 1.428.522 2.412V264h-2.808v-5.112c0-.78-.174-1.356-.522-1.728-.336-.372-.816-.558-1.44-.558-.444 0-.846.096-1.206.288-.348.18-.624.462-.828.846-.192.384-.288.876-.288 1.476V264h-2.808v-9.684h2.682v2.682l-.504-.81a3.587 3.587 0 0 1 1.494-1.494c.648-.348 1.386-.522 2.214-.522Zm6.541 9.828v-9.9c0-1.092.324-1.962.972-2.61.648-.66 1.572-.99 2.772-.99.408 0 .798.042 1.17.126.384.084.708.216.972.396l-.738 2.034a1.913 1.913 0 0 0-.522-.252 2.04 2.04 0 0 0-.612-.09c-.408 0-.726.12-.954.36-.216.228-.324.576-.324 1.044v.9l.072 1.206V264h-2.808Zm-1.494-7.308v-2.16h6.714v2.16h-6.714Zm12.238 7.452c-1.032 0-1.95-.216-2.754-.648a5.044 5.044 0 0 1-1.89-1.764c-.456-.756-.684-1.614-.684-2.574 0-.972.228-1.83.684-2.574a4.861 4.861 0 0 1 1.89-1.764c.804-.432 1.722-.648 2.754-.648 1.02 0 1.932.216 2.736.648a4.743 4.743 0 0 1 1.89 1.746c.456.744.684 1.608.684 2.592 0 .96-.228 1.818-.684 2.574a4.872 4.872 0 0 1-1.89 1.764c-.804.432-1.716.648-2.736.648Zm0-2.304c.468 0 .888-.108 1.26-.324.372-.216.666-.522.882-.918.216-.408.324-.888.324-1.44 0-.564-.108-1.044-.324-1.44a2.322 2.322 0 0 0-.882-.918 2.463 2.463 0 0 0-1.26-.324c-.468 0-.888.108-1.26.324a2.45 2.45 0 0 0-.9.918c-.216.396-.324.876-.324 1.44 0 .552.108 1.032.324 1.44.228.396.528.702.9.918.372.216.792.324 1.26.324Zm6.827 2.16v-9.684h2.682v2.736l-.378-.792c.288-.684.75-1.2 1.386-1.548.636-.36 1.41-.54 2.322-.54v2.592a3.287 3.287 0 0 0-.324-.018 2.47 2.47 0 0 0-.306-.018c-.768 0-1.392.222-1.872.666-.468.432-.702 1.11-.702 2.034V264h-2.808Zm19.741-9.828c.768 0 1.446.156 2.034.468.6.3 1.068.768 1.404 1.404.348.624.522 1.428.522 2.412V264h-2.808v-5.112c0-.78-.162-1.356-.486-1.728-.324-.372-.78-.558-1.368-.558-.408 0-.774.096-1.098.288a1.82 1.82 0 0 0-.756.828c-.18.372-.27.846-.27 1.422V264h-2.808v-5.112c0-.78-.162-1.356-.486-1.728-.312-.372-.762-.558-1.35-.558-.408 0-.774.096-1.098.288a1.82 1.82 0 0 0-.756.828c-.18.372-.27.846-.27 1.422V264h-2.808v-9.684h2.682v2.646l-.504-.774c.336-.66.81-1.158 1.422-1.494.624-.348 1.332-.522 2.124-.522.888 0 1.662.228 2.322.684.672.444 1.116 1.128 1.332 2.052l-.99-.27a3.891 3.891 0 0 1 1.548-1.8c.72-.444 1.542-.666 2.466-.666ZM195.648 264v-1.89l-.18-.414v-3.384c0-.6-.186-1.068-.558-1.404-.36-.336-.918-.504-1.674-.504a4.81 4.81 0 0 0-1.53.252 3.904 3.904 0 0 0-1.26.648l-1.008-1.962c.528-.372 1.164-.66 1.908-.864a8.54 8.54 0 0 1 2.268-.306c1.476 0 2.622.348 3.438 1.044.816.696 1.224 1.782 1.224 3.258V264h-2.628Zm-2.952.144c-.756 0-1.404-.126-1.944-.378-.54-.264-.954-.618-1.242-1.062a2.686 2.686 0 0 1-.432-1.494c0-.576.138-1.08.414-1.512.288-.432.738-.768 1.35-1.008.612-.252 1.41-.378 2.394-.378h2.574v1.638h-2.268c-.66 0-1.116.108-1.368.324-.24.216-.36.486-.36.81 0 .36.138.648.414.864.288.204.678.306 1.17.306.468 0 .888-.108 1.26-.324.372-.228.642-.558.81-.99l.432 1.296c-.204.624-.576 1.098-1.116 1.422-.54.324-1.236.486-2.088.486Zm11.721 0c-1.14 0-2.028-.288-2.664-.864-.636-.588-.954-1.458-.954-2.61v-8.496h2.808v8.46c0 .408.108.726.324.954.216.216.51.324.882.324.444 0 .822-.12 1.134-.36l.756 1.98c-.288.204-.636.36-1.044.468-.396.096-.81.144-1.242.144Zm-5.112-7.452v-2.16h6.714v2.16h-6.714Zm8.614 7.308v-9.684h2.808V264h-2.808Zm1.404-11.034c-.516 0-.936-.15-1.26-.45a1.46 1.46 0 0 1-.486-1.116c0-.444.162-.816.486-1.116.324-.3.744-.45 1.26-.45s.936.144 1.26.432c.324.276.486.636.486 1.08 0 .468-.162.858-.486 1.17-.312.3-.732.45-1.26.45Zm8.259 11.178c-1.032 0-1.95-.216-2.754-.648a5.044 5.044 0 0 1-1.89-1.764c-.456-.756-.684-1.614-.684-2.574 0-.972.228-1.83.684-2.574a4.861 4.861 0 0 1 1.89-1.764c.804-.432 1.722-.648 2.754-.648 1.02 0 1.932.216 2.736.648a4.743 4.743 0 0 1 1.89 1.746c.456.744.684 1.608.684 2.592 0 .96-.228 1.818-.684 2.574a4.872 4.872 0 0 1-1.89 1.764c-.804.432-1.716.648-2.736.648Zm0-2.304c.468 0 .888-.108 1.26-.324.372-.216.666-.522.882-.918.216-.408.324-.888.324-1.44 0-.564-.108-1.044-.324-1.44a2.322 2.322 0 0 0-.882-.918 2.463 2.463 0 0 0-1.26-.324c-.468 0-.888.108-1.26.324a2.45 2.45 0 0 0-.9.918c-.216.396-.324.876-.324 1.44 0 .552.108 1.032.324 1.44.228.396.528.702.9.918.372.216.792.324 1.26.324Zm12.712-7.668c.768 0 1.452.156 2.052.468.612.3 1.092.768 1.44 1.404.348.624.522 1.428.522 2.412V264H231.5v-5.112c0-.78-.174-1.356-.522-1.728-.336-.372-.816-.558-1.44-.558-.444 0-.846.096-1.206.288-.348.18-.624.462-.828.846-.192.384-.288.876-.288 1.476V264h-2.808v-9.684h2.682v2.682l-.504-.81a3.587 3.587 0 0 1 1.494-1.494c.648-.348 1.386-.522 2.214-.522ZM66.824 292v-11.2h4.832c1.248 0 2.213.251 2.896.752.693.501 1.04 1.211 1.04 2.128 0 .608-.144 1.12-.432 1.536a2.584 2.584 0 0 1-1.152.944c-.48.213-1.008.32-1.584.32l.272-.384c.715 0 1.328.112 1.84.336a2.58 2.58 0 0 1 1.216.976c.288.427.432.96.432 1.6 0 .949-.352 1.685-1.056 2.208-.693.523-1.744.784-3.152.784h-5.152Zm1.184-.976h3.952c.981 0 1.733-.165 2.256-.496.523-.341.784-.88.784-1.616 0-.725-.261-1.253-.784-1.584-.523-.341-1.275-.512-2.256-.512h-4.08v-.976h3.696c.896 0 1.59-.171 2.08-.512.501-.341.752-.848.752-1.52 0-.683-.25-1.189-.752-1.52-.49-.341-1.184-.512-2.08-.512h-3.568v9.248Zm10.959.976v-8.4h1.088v2.288l-.113-.4c.235-.64.63-1.125 1.184-1.456.555-.341 1.243-.512 2.064-.512v1.104h-.127a.51.51 0 0 0-.129-.016c-.885 0-1.578.272-2.08.816-.5.533-.751 1.296-.751 2.288V292h-1.136Zm9.962.08c-.81 0-1.541-.181-2.192-.544a4.153 4.153 0 0 1-1.52-1.52c-.373-.651-.56-1.392-.56-2.224 0-.843.187-1.584.56-2.224.374-.64.88-1.141 1.52-1.504s1.37-.544 2.192-.544c.832 0 1.568.181 2.208.544a3.89 3.89 0 0 1 1.52 1.504c.374.64.56 1.381.56 2.224 0 .832-.186 1.573-.56 2.224a3.998 3.998 0 0 1-1.52 1.52c-.65.363-1.386.544-2.208.544Zm0-1.008c.608 0 1.147-.133 1.616-.4.47-.277.838-.661 1.104-1.152.278-.501.416-1.077.416-1.728 0-.661-.138-1.237-.416-1.728a2.83 2.83 0 0 0-1.104-1.136 3.088 3.088 0 0 0-1.6-.416c-.597 0-1.13.139-1.6.416a2.94 2.94 0 0 0-1.12 1.136c-.277.491-.416 1.067-.416 1.728 0 .651.139 1.227.416 1.728.278.491.65.875 1.12 1.152.47.267.998.4 1.584.4Zm8.405.928-3.168-8.4h1.088l2.88 7.792h-.496l2.96-7.792h.976l2.928 7.792h-.496l2.928-7.792h1.04l-3.184 8.4h-1.072l-2.816-7.328h.336L98.406 292h-1.072Zm14.833.08a6.606 6.606 0 0 1-1.968-.288c-.619-.203-1.104-.453-1.456-.752l.512-.896c.341.256.779.48 1.312.672a5.19 5.19 0 0 0 1.68.272c.8 0 1.376-.123 1.728-.368.352-.256.528-.592.528-1.008 0-.309-.101-.549-.304-.72-.192-.181-.448-.315-.768-.4a8.44 8.44 0 0 0-1.072-.24 23.46 23.46 0 0 1-1.184-.224 4.551 4.551 0 0 1-1.056-.368c-.32-.171-.581-.4-.784-.688-.192-.288-.288-.672-.288-1.152 0-.459.128-.869.384-1.232s.629-.645 1.12-.848c.501-.213 1.109-.32 1.824-.32.544 0 1.088.075 1.632.224.544.139.992.325 1.344.56l-.496.912a3.692 3.692 0 0 0-1.2-.544 4.822 4.822 0 0 0-1.28-.176c-.757 0-1.317.133-1.68.4-.352.256-.528.587-.528.992 0 .32.096.571.288.752.203.181.464.325.784.432.331.096.688.176 1.072.24.395.064.784.144 1.168.24.395.085.752.208 1.072.368.331.149.592.368.784.656.203.277.304.645.304 1.104 0 .491-.139.917-.416 1.28-.267.352-.661.629-1.184.832-.512.192-1.136.288-1.872.288Zm9.444 0c-.874 0-1.642-.181-2.304-.544a4.09 4.09 0 0 1-1.552-1.52c-.373-.651-.56-1.392-.56-2.224 0-.832.176-1.568.528-2.208a3.997 3.997 0 0 1 1.472-1.504 4.067 4.067 0 0 1 2.112-.56c.79 0 1.488.181 2.096.544a3.728 3.728 0 0 1 1.456 1.504c.352.64.528 1.381.528 2.224 0 .053-.005.112-.016.176v.176h-7.312v-.848h6.704l-.448.336c0-.608-.133-1.147-.4-1.616a2.817 2.817 0 0 0-1.056-1.12c-.448-.267-.965-.4-1.552-.4-.576 0-1.093.133-1.552.4-.458.267-.816.64-1.072 1.12-.256.48-.384 1.029-.384 1.648v.176c0 .64.139 1.205.416 1.696.288.48.683.859 1.184 1.136.512.267 1.094.4 1.744.4.512 0 .987-.091 1.424-.272a2.962 2.962 0 0 0 1.152-.832l.64.736a3.588 3.588 0 0 1-1.408 1.024 4.668 4.668 0 0 1-1.84.352Zm16.18-.08v-1.856l-.048-.304v-3.104c0-.715-.203-1.264-.608-1.648-.395-.384-.987-.576-1.776-.576a4.45 4.45 0 0 0-1.552.272 3.934 3.934 0 0 0-1.248.72l-.512-.848c.427-.363.939-.64 1.536-.832a5.827 5.827 0 0 1 1.888-.304c1.088 0 1.925.272 2.512.816.597.533.896 1.349.896 2.448V292h-1.088Zm-2.896.08c-.629 0-1.179-.101-1.648-.304-.459-.213-.811-.501-1.056-.864a2.28 2.28 0 0 1-.368-1.28c0-.437.101-.832.304-1.184.213-.363.555-.651 1.024-.864.48-.224 1.12-.336 1.92-.336h2.896v.848h-2.864c-.811 0-1.376.144-1.696.432a1.406 1.406 0 0 0-.464 1.072c0 .48.187.864.56 1.152.373.288.896.432 1.568.432.64 0 1.189-.144 1.648-.432a2.556 2.556 0 0 0 1.024-1.28l.256.784c-.213.555-.587.997-1.12 1.328-.523.331-1.184.496-1.984.496Zm7.39-.08v-11.872h1.136V292h-1.136Zm4.616 0v-11.872h1.136V292h-1.136Zm13.461.08a3.936 3.936 0 0 1-1.968-.496 3.773 3.773 0 0 1-1.408-1.456c-.341-.64-.512-1.419-.512-2.336 0-.917.171-1.691.512-2.32.341-.64.805-1.125 1.392-1.456.587-.331 1.248-.496 1.984-.496.8 0 1.515.181 2.144.544.64.352 1.141.853 1.504 1.504.363.64.544 1.381.544 2.224 0 .853-.181 1.6-.544 2.24a3.923 3.923 0 0 1-1.504 1.504c-.629.363-1.344.544-2.144.544Zm-4.336 3.024V283.6h1.088v2.528l-.112 1.68.16 1.696v5.6h-1.136Zm4.256-4.032c.597 0 1.131-.133 1.6-.4a3.053 3.053 0 0 0 1.12-1.152c.277-.501.416-1.077.416-1.728s-.139-1.221-.416-1.712a3.053 3.053 0 0 0-1.12-1.152 3.088 3.088 0 0 0-1.6-.416c-.597 0-1.136.139-1.616.416a3.053 3.053 0 0 0-1.12 1.152c-.267.491-.4 1.061-.4 1.712s.133 1.227.4 1.728c.277.491.651.875 1.12 1.152.48.267 1.019.4 1.616.4Zm10.38 1.008c-.715 0-1.339-.133-1.872-.4a2.879 2.879 0 0 1-1.248-1.2c-.288-.533-.432-1.2-.432-2v-4.88h1.136v4.752c0 .896.218 1.573.656 2.032.448.448 1.072.672 1.872.672.586 0 1.093-.117 1.52-.352.437-.245.768-.597.992-1.056.234-.459.352-1.008.352-1.648v-4.4h1.136v8.4h-1.088v-2.304l.176.416a3.14 3.14 0 0 1-1.248 1.456c-.555.341-1.206.512-1.952.512Zm11.934 0c-.736 0-1.398-.165-1.984-.496a3.632 3.632 0 0 1-1.392-1.472c-.342-.64-.512-1.413-.512-2.32 0-.917.17-1.691.512-2.32.352-.64.821-1.125 1.408-1.456a3.93 3.93 0 0 1 1.968-.496c.8 0 1.514.181 2.144.544a3.81 3.81 0 0 1 1.504 1.488c.362.64.544 1.387.544 2.24 0 .843-.182 1.589-.544 2.24a3.923 3.923 0 0 1-1.504 1.504c-.63.363-1.344.544-2.144.544Zm-4.336-.08v-11.872h1.136v5.952l-.16 1.696.112 1.696V292h-1.088Zm4.256-.928c.597 0 1.13-.133 1.6-.4a3.06 3.06 0 0 0 1.12-1.152c.277-.501.416-1.077.416-1.728 0-.661-.139-1.237-.416-1.728a2.947 2.947 0 0 0-1.12-1.136 3.09 3.09 0 0 0-1.6-.416c-.598 0-1.136.139-1.616.416-.47.267-.843.645-1.12 1.136-.267.491-.4 1.067-.4 1.728 0 .651.133 1.227.4 1.728.277.491.65.875 1.12 1.152.48.267 1.018.4 1.616.4Zm6.907.928v-11.872h1.136V292h-1.136Zm4.617 0v-8.4h1.136v8.4h-1.136Zm.576-10.256a.805.805 0 0 1-.592-.24.786.786 0 0 1-.24-.576c0-.224.08-.411.24-.56.16-.16.358-.24.592-.24.235 0 .432.075.592.224.16.149.24.336.24.56 0 .235-.08.432-.24.592a.77.77 0 0 1-.592.24Zm7.529 10.336c-.832 0-1.579-.181-2.24-.544a4.112 4.112 0 0 1-1.536-1.52c-.373-.651-.56-1.392-.56-2.224 0-.843.187-1.584.56-2.224a4 4 0 0 1 1.536-1.504c.661-.363 1.408-.544 2.24-.544.715 0 1.36.139 1.936.416a3.135 3.135 0 0 1 1.36 1.248l-.848.576a2.663 2.663 0 0 0-1.072-.944 3.2 3.2 0 0 0-1.392-.304c-.597 0-1.136.139-1.616.416-.48.267-.859.645-1.136 1.136-.277.491-.416 1.067-.416 1.728s.139 1.237.416 1.728c.277.491.656.875 1.136 1.152.48.267 1.019.4 1.616.4a3.2 3.2 0 0 0 1.392-.304 2.705 2.705 0 0 0 1.072-.928l.848.576c-.331.544-.784.96-1.36 1.248-.576.277-1.221.416-1.936.416ZM212.5 292v-8.4h1.136v8.4H212.5Zm.576-10.256a.805.805 0 0 1-.592-.24.786.786 0 0 1-.24-.576c0-.224.08-.411.24-.56.16-.16.358-.24.592-.24.235 0 .432.075.592.224.16.149.24.336.24.56 0 .235-.08.432-.24.592a.77.77 0 0 1-.592.24Zm8.329 1.776c.683 0 1.28.133 1.792.4.523.256.928.651 1.216 1.184.299.533.448 1.205.448 2.016V292h-1.136v-4.768c0-.885-.224-1.552-.672-2-.437-.459-1.056-.688-1.856-.688-.597 0-1.12.123-1.568.368a2.47 2.47 0 0 0-1.024 1.04c-.235.448-.352.992-.352 1.632V292h-1.136v-8.4h1.088v2.304l-.176-.432a3.012 3.012 0 0 1 1.28-1.424c.587-.352 1.285-.528 2.096-.528Zm7.037 8.48v-9.456c0-.747.218-1.349.656-1.808.437-.459 1.066-.688 1.888-.688.32 0 .629.043.928.128.298.085.549.219.752.4l-.384.848a1.5 1.5 0 0 0-.56-.304 2.064 2.064 0 0 0-.688-.112c-.48 0-.848.133-1.104.4-.256.267-.384.661-.384 1.184v1.28l.032.528v7.6h-1.136Zm-1.504-7.456v-.944h5.2v.944h-5.2Zm10.337 7.536c-.811 0-1.541-.181-2.192-.544a4.15 4.15 0 0 1-1.52-1.52c-.373-.651-.56-1.392-.56-2.224 0-.843.187-1.584.56-2.224.373-.64.88-1.141 1.52-1.504s1.371-.544 2.192-.544c.832 0 1.568.181 2.208.544a3.89 3.89 0 0 1 1.52 1.504c.373.64.56 1.381.56 2.224 0 .832-.187 1.573-.56 2.224a3.998 3.998 0 0 1-1.52 1.52c-.651.363-1.387.544-2.208.544Zm0-1.008c.608 0 1.147-.133 1.616-.4a2.942 2.942 0 0 0 1.104-1.152c.277-.501.416-1.077.416-1.728 0-.661-.139-1.237-.416-1.728a2.835 2.835 0 0 0-1.104-1.136 3.088 3.088 0 0 0-1.6-.416c-.597 0-1.131.139-1.6.416a2.94 2.94 0 0 0-1.12 1.136c-.277.491-.416 1.067-.416 1.728 0 .651.139 1.227.416 1.728.277.491.651.875 1.12 1.152.469.267.997.4 1.584.4Zm6.927.928v-8.4h1.088v2.288l-.112-.4c.235-.64.629-1.125 1.184-1.456.555-.341 1.243-.512 2.064-.512v1.104h-.128a.51.51 0 0 0-.128-.016c-.885 0-1.579.272-2.08.816-.501.533-.752 1.296-.752 2.288V292h-1.136Zm17.113-8.48c.683 0 1.275.133 1.776.4.512.256.907.651 1.184 1.184.288.533.432 1.205.432 2.016V292h-1.136v-4.768c0-.885-.213-1.552-.64-2-.416-.459-1.008-.688-1.776-.688-.576 0-1.077.123-1.504.368a2.43 2.43 0 0 0-.976 1.04c-.224.448-.336.992-.336 1.632V292h-1.136v-4.768c0-.885-.213-1.552-.64-2-.427-.459-1.024-.688-1.792-.688-.565 0-1.061.123-1.488.368a2.4 2.4 0 0 0-.992 1.04c-.224.448-.336.992-.336 1.632V292h-1.136v-8.4h1.088v2.272l-.176-.4a2.97 2.97 0 0 1 1.232-1.424c.576-.352 1.253-.528 2.032-.528.821 0 1.52.208 2.096.624.576.405.949 1.019 1.12 1.84l-.448-.176a3.278 3.278 0 0 1 1.296-1.648c.629-.427 1.381-.64 2.256-.64Zm12.057 8.48v-1.856l-.048-.304v-3.104c0-.715-.203-1.264-.608-1.648-.395-.384-.987-.576-1.776-.576-.544 0-1.062.091-1.552.272a3.934 3.934 0 0 0-1.248.72l-.512-.848c.426-.363.938-.64 1.536-.832a5.823 5.823 0 0 1 1.888-.304c1.088 0 1.925.272 2.512.816.597.533.896 1.349.896 2.448V292h-1.088Zm-2.896.08c-.63 0-1.179-.101-1.648-.304-.459-.213-.811-.501-1.056-.864a2.272 2.272 0 0 1-.368-1.28c0-.437.101-.832.304-1.184.213-.363.554-.651 1.024-.864.48-.224 1.12-.336 1.92-.336h2.896v.848h-2.864c-.811 0-1.376.144-1.696.432-.31.288-.464.645-.464 1.072 0 .48.186.864.56 1.152.373.288.896.432 1.568.432.64 0 1.189-.144 1.648-.432.469-.299.81-.725 1.024-1.28l.256.784a2.663 2.663 0 0 1-1.12 1.328c-.523.331-1.184.496-1.984.496Zm10.045 0c-.789 0-1.397-.213-1.824-.64-.426-.427-.64-1.029-.64-1.808v-7.888h1.136v7.824c0 .491.123.869.368 1.136.256.267.619.4 1.088.4.502 0 .918-.144 1.248-.432l.4.816a2.088 2.088 0 0 1-.816.448 3.217 3.217 0 0 1-.96.144Zm-3.968-7.536v-.944h5.2v.944h-5.2Zm8.132 7.456v-8.4h1.136v8.4h-1.136Zm.576-10.256a.805.805 0 0 1-.592-.24.786.786 0 0 1-.24-.576c0-.224.08-.411.24-.56.16-.16.358-.24.592-.24.235 0 .432.075.592.224.16.149.24.336.24.56 0 .235-.08.432-.24.592a.77.77 0 0 1-.592.24Zm7.465 10.336c-.811 0-1.541-.181-2.192-.544a4.15 4.15 0 0 1-1.52-1.52c-.373-.651-.56-1.392-.56-2.224 0-.843.187-1.584.56-2.224.373-.64.88-1.141 1.52-1.504s1.371-.544 2.192-.544c.832 0 1.568.181 2.208.544a3.89 3.89 0 0 1 1.52 1.504c.373.64.56 1.381.56 2.224 0 .832-.187 1.573-.56 2.224a3.998 3.998 0 0 1-1.52 1.52c-.651.363-1.387.544-2.208.544Zm0-1.008c.608 0 1.147-.133 1.616-.4a2.942 2.942 0 0 0 1.104-1.152c.277-.501.416-1.077.416-1.728 0-.661-.139-1.237-.416-1.728a2.835 2.835 0 0 0-1.104-1.136 3.088 3.088 0 0 0-1.6-.416c-.597 0-1.131.139-1.6.416a2.94 2.94 0 0 0-1.12 1.136c-.277.491-.416 1.067-.416 1.728 0 .651.139 1.227.416 1.728.277.491.651.875 1.12 1.152.469.267.997.4 1.584.4Zm11.215-7.552c.683 0 1.28.133 1.792.4.523.256.928.651 1.216 1.184.299.533.448 1.205.448 2.016V292h-1.136v-4.768c0-.885-.224-1.552-.672-2-.437-.459-1.056-.688-1.856-.688-.597 0-1.12.123-1.568.368a2.476 2.476 0 0 0-1.024 1.04c-.234.448-.352.992-.352 1.632V292h-1.136v-8.4h1.088v2.304l-.176-.432a3.017 3.017 0 0 1 1.28-1.424c.587-.352 1.286-.528 2.096-.528Zm13.064 8.48-3.168-8.4h1.088l2.88 7.792h-.496l2.96-7.792h.976l2.928 7.792h-.496l2.928-7.792h1.04l-3.184 8.4h-1.072l-2.816-7.328h.336L318.077 292h-1.072Zm12.671 0v-8.4h1.136v8.4h-1.136Zm.576-10.256a.804.804 0 0 1-.592-.24.786.786 0 0 1-.24-.576c0-.224.08-.411.24-.56.16-.16.357-.24.592-.24s.432.075.592.224c.16.149.24.336.24.56 0 .235-.08.432-.24.592a.772.772 0 0 1-.592.24Zm6.697 10.336c-.79 0-1.398-.213-1.824-.64-.427-.427-.64-1.029-.64-1.808v-7.888h1.136v7.824c0 .491.122.869.368 1.136.256.267.618.4 1.088.4.501 0 .917-.144 1.248-.432l.4.816a2.088 2.088 0 0 1-.816.448c-.31.096-.63.144-.96.144Zm-3.968-7.536v-.944h5.2v.944h-5.2Zm12.42-1.024c.682 0 1.28.133 1.792.4.522.256.928.651 1.216 1.184.298.533.448 1.205.448 2.016V292h-1.136v-4.768c0-.885-.224-1.552-.672-2-.438-.459-1.056-.688-1.856-.688-.598 0-1.12.123-1.568.368a2.464 2.464 0 0 0-1.024 1.04c-.235.448-.352.992-.352 1.632V292h-1.136v-11.872h1.136v5.776l-.224-.432a3.007 3.007 0 0 1 1.28-1.424c.586-.352 1.285-.528 2.096-.528Zm6.844 8.48v-8.4h1.136v8.4h-1.136Zm.576-10.256a.805.805 0 0 1-.592-.24.786.786 0 0 1-.24-.576c0-.224.08-.411.24-.56.16-.16.358-.24.592-.24.235 0 .432.075.592.224.16.149.24.336.24.56 0 .235-.08.432-.24.592a.77.77 0 0 1-.592.24Zm8.329 1.776c.683 0 1.28.133 1.792.4.523.256.928.651 1.216 1.184.299.533.448 1.205.448 2.016V292h-1.136v-4.768c0-.885-.224-1.552-.672-2-.437-.459-1.056-.688-1.856-.688-.597 0-1.12.123-1.568.368a2.47 2.47 0 0 0-1.024 1.04c-.235.448-.352.992-.352 1.632V292h-1.136v-8.4h1.088v2.304l-.176-.432a3.012 3.012 0 0 1 1.28-1.424c.587-.352 1.285-.528 2.096-.528Zm14.008 8.56c-.789 0-1.397-.213-1.824-.64-.427-.427-.64-1.029-.64-1.808v-7.888h1.136v7.824c0 .491.123.869.368 1.136.256.267.619.4 1.088.4.501 0 .917-.144 1.248-.432l.4.816a2.088 2.088 0 0 1-.816.448 3.217 3.217 0 0 1-.96.144Zm-3.968-7.536v-.944h5.2v.944h-5.2Zm12.42-1.024c.683 0 1.28.133 1.792.4.523.256.928.651 1.216 1.184.299.533.448 1.205.448 2.016V292h-1.136v-4.768c0-.885-.224-1.552-.672-2-.437-.459-1.056-.688-1.856-.688-.597 0-1.12.123-1.568.368a2.47 2.47 0 0 0-1.024 1.04c-.235.448-.352.992-.352 1.632V292h-1.136v-11.872h1.136v5.776l-.224-.432a3.012 3.012 0 0 1 1.28-1.424c.587-.352 1.285-.528 2.096-.528Zm10.413 8.56c-.875 0-1.643-.181-2.304-.544a4.076 4.076 0 0 1-1.552-1.52c-.374-.651-.56-1.392-.56-2.224 0-.832.176-1.568.528-2.208a3.982 3.982 0 0 1 1.472-1.504 4.062 4.062 0 0 1 2.112-.56c.789 0 1.488.181 2.096.544a3.734 3.734 0 0 1 1.456 1.504c.352.64.528 1.381.528 2.224 0 .053-.006.112-.016.176v.176h-7.312v-.848h6.704l-.448.336c0-.608-.134-1.147-.4-1.616a2.817 2.817 0 0 0-1.056-1.12c-.448-.267-.966-.4-1.552-.4-.576 0-1.094.133-1.552.4a2.78 2.78 0 0 0-1.072 1.12c-.256.48-.384 1.029-.384 1.648v.176c0 .64.138 1.205.416 1.696.288.48.682.859 1.184 1.136.512.267 1.093.4 1.744.4a3.69 3.69 0 0 0 1.424-.272 2.962 2.962 0 0 0 1.152-.832l.64.736a3.603 3.603 0 0 1-1.408 1.024 4.671 4.671 0 0 1-1.84.352Zm11.155-.08v-11.2h.976l5.12 8.736h-.512l5.072-8.736h.976V292h-1.136v-9.424h.272l-4.672 8h-.56l-4.704-8h.304V292h-1.136Zm15.362 0v-8.4h1.136v8.4h-1.136Zm.576-10.256a.804.804 0 0 1-.592-.24.786.786 0 0 1-.24-.576c0-.224.08-.411.24-.56.16-.16.357-.24.592-.24.234 0 .432.075.592.224.16.149.24.336.24.56 0 .235-.08.432-.24.592a.773.773 0 0 1-.592.24Zm8.329 1.776c.682 0 1.28.133 1.792.4.522.256.928.651 1.216 1.184.298.533.448 1.205.448 2.016V292h-1.136v-4.768c0-.885-.224-1.552-.672-2-.438-.459-1.056-.688-1.856-.688-.598 0-1.12.123-1.568.368a2.464 2.464 0 0 0-1.024 1.04c-.235.448-.352.992-.352 1.632V292h-1.136v-8.4h1.088v2.304l-.176-.432a3.007 3.007 0 0 1 1.28-1.424c.586-.352 1.285-.528 2.096-.528Zm6.844 8.48v-8.4h1.136v8.4h-1.136Zm.576-10.256a.804.804 0 0 1-.592-.24.786.786 0 0 1-.24-.576c0-.224.08-.411.24-.56.16-.16.357-.24.592-.24s.432.075.592.224c.16.149.24.336.24.56 0 .235-.08.432-.24.592a.772.772 0 0 1-.592.24Zm6.297 10.336a6.606 6.606 0 0 1-1.968-.288c-.619-.203-1.104-.453-1.456-.752l.512-.896c.341.256.779.48 1.312.672a5.19 5.19 0 0 0 1.68.272c.8 0 1.376-.123 1.728-.368.352-.256.528-.592.528-1.008 0-.309-.101-.549-.304-.72-.192-.181-.448-.315-.768-.4a8.44 8.44 0 0 0-1.072-.24 23.46 23.46 0 0 1-1.184-.224 4.551 4.551 0 0 1-1.056-.368c-.32-.171-.581-.4-.784-.688-.192-.288-.288-.672-.288-1.152 0-.459.128-.869.384-1.232s.629-.645 1.12-.848c.501-.213 1.109-.32 1.824-.32.544 0 1.088.075 1.632.224.544.139.992.325 1.344.56l-.496.912a3.692 3.692 0 0 0-1.2-.544 4.822 4.822 0 0 0-1.28-.176c-.757 0-1.317.133-1.68.4-.352.256-.528.587-.528.992 0 .32.096.571.288.752.203.181.464.325.784.432.331.096.688.176 1.072.24.395.064.784.144 1.168.24.395.085.752.208 1.072.368.331.149.592.368.784.656.203.277.304.645.304 1.104 0 .491-.139.917-.416 1.28-.267.352-.661.629-1.184.832-.512.192-1.136.288-1.872.288Zm8.532 0c-.789 0-1.397-.213-1.824-.64-.426-.427-.64-1.029-.64-1.808v-7.888h1.136v7.824c0 .491.123.869.368 1.136.256.267.619.4 1.088.4.502 0 .918-.144 1.248-.432l.4.816a2.088 2.088 0 0 1-.816.448 3.217 3.217 0 0 1-.96.144Zm-3.968-7.536v-.944h5.2v.944h-5.2Zm8.132 7.456v-8.4h1.088v2.288l-.112-.4c.235-.64.63-1.125 1.184-1.456.555-.341 1.243-.512 2.064-.512v1.104h-.128a.505.505 0 0 0-.128-.016c-.885 0-1.578.272-2.08.816-.501.533-.752 1.296-.752 2.288V292h-1.136Zm7.041 3.184c-.395 0-.774-.064-1.136-.192a2.462 2.462 0 0 1-.912-.576l.528-.848c.213.203.442.357.688.464.256.117.538.176.848.176.373 0 .693-.107.96-.32.277-.203.538-.565.784-1.088l.544-1.232.128-.176 3.456-7.792h1.12l-4.208 9.408c-.235.544-.496.976-.784 1.296-.278.32-.582.544-.912.672a2.825 2.825 0 0 1-1.104.208Zm2.24-2.944-3.872-8.64h1.184l3.424 7.712-.736.928Zm14.619-.16c-.811 0-1.541-.181-2.192-.544a4.15 4.15 0 0 1-1.52-1.52c-.373-.651-.56-1.392-.56-2.224 0-.843.187-1.584.56-2.224.373-.64.88-1.141 1.52-1.504s1.371-.544 2.192-.544c.832 0 1.568.181 2.208.544a3.89 3.89 0 0 1 1.52 1.504c.373.64.56 1.381.56 2.224 0 .832-.187 1.573-.56 2.224a3.998 3.998 0 0 1-1.52 1.52c-.651.363-1.387.544-2.208.544Zm0-1.008c.608 0 1.147-.133 1.616-.4a2.942 2.942 0 0 0 1.104-1.152c.277-.501.416-1.077.416-1.728 0-.661-.139-1.237-.416-1.728a2.835 2.835 0 0 0-1.104-1.136 3.088 3.088 0 0 0-1.6-.416c-.597 0-1.131.139-1.6.416a2.94 2.94 0 0 0-1.12 1.136c-.277.491-.416 1.067-.416 1.728 0 .651.139 1.227.416 1.728.277.491.651.875 1.12 1.152.469.267.997.4 1.584.4Zm7.119.928v-9.456c0-.747.219-1.349.656-1.808.438-.459 1.067-.688 1.888-.688.32 0 .63.043.928.128.299.085.55.219.752.4l-.384.848a1.493 1.493 0 0 0-.56-.304 2.056 2.056 0 0 0-.688-.112c-.48 0-.848.133-1.104.4-.256.267-.384.661-.384 1.184v1.28l.032.528v7.6h-1.136Zm-1.504-7.456v-.944h5.2v.944h-5.2ZM497.175 292v-11.2h1.184V292h-1.184Zm9.196-8.48c.682 0 1.28.133 1.792.4.522.256.928.651 1.216 1.184.298.533.448 1.205.448 2.016V292h-1.136v-4.768c0-.885-.224-1.552-.672-2-.438-.459-1.056-.688-1.856-.688-.598 0-1.12.123-1.568.368a2.464 2.464 0 0 0-1.024 1.04c-.235.448-.352.992-.352 1.632V292h-1.136v-8.4h1.088v2.304l-.176-.432a3.007 3.007 0 0 1 1.28-1.424c.586-.352 1.285-.528 2.096-.528Zm8.848 8.48-3.728-8.4h1.184l3.424 7.792h-.56l3.472-7.792h1.12l-3.744 8.4h-1.168Zm10.166.08c-.875 0-1.643-.181-2.304-.544a4.076 4.076 0 0 1-1.552-1.52c-.374-.651-.56-1.392-.56-2.224 0-.832.176-1.568.528-2.208a3.982 3.982 0 0 1 1.472-1.504 4.062 4.062 0 0 1 2.112-.56c.789 0 1.488.181 2.096.544a3.734 3.734 0 0 1 1.456 1.504c.352.64.528 1.381.528 2.224 0 .053-.006.112-.016.176v.176h-7.312v-.848h6.704l-.448.336c0-.608-.134-1.147-.4-1.616a2.817 2.817 0 0 0-1.056-1.12c-.448-.267-.966-.4-1.552-.4-.576 0-1.094.133-1.552.4a2.78 2.78 0 0 0-1.072 1.12c-.256.48-.384 1.029-.384 1.648v.176c0 .64.138 1.205.416 1.696.288.48.682.859 1.184 1.136.512.267 1.093.4 1.744.4a3.69 3.69 0 0 0 1.424-.272 2.962 2.962 0 0 0 1.152-.832l.64.736a3.603 3.603 0 0 1-1.408 1.024 4.671 4.671 0 0 1-1.84.352Zm8.664 0c-.694 0-1.35-.096-1.968-.288-.619-.203-1.104-.453-1.456-.752l.512-.896c.341.256.778.48 1.312.672a5.19 5.19 0 0 0 1.68.272c.8 0 1.376-.123 1.728-.368.352-.256.528-.592.528-1.008 0-.309-.102-.549-.304-.72-.192-.181-.448-.315-.768-.4a8.48 8.48 0 0 0-1.072-.24c-.395-.064-.79-.139-1.184-.224a4.551 4.551 0 0 1-1.056-.368c-.32-.171-.582-.4-.784-.688-.192-.288-.288-.672-.288-1.152 0-.459.128-.869.384-1.232s.629-.645 1.12-.848c.501-.213 1.109-.32 1.824-.32.544 0 1.088.075 1.632.224.544.139.992.325 1.344.56l-.496.912a3.71 3.71 0 0 0-1.2-.544 4.828 4.828 0 0 0-1.28-.176c-.758 0-1.318.133-1.68.4-.352.256-.528.587-.528.992 0 .32.096.571.288.752.202.181.464.325.784.432.33.096.688.176 1.072.24.394.064.784.144 1.168.24.394.085.752.208 1.072.368.33.149.592.368.784.656.202.277.304.645.304 1.104 0 .491-.139.917-.416 1.28-.267.352-.662.629-1.184.832-.512.192-1.136.288-1.872.288Zm8.532 0c-.789 0-1.397-.213-1.824-.64-.426-.427-.64-1.029-.64-1.808v-7.888h1.136v7.824c0 .491.123.869.368 1.136.256.267.619.4 1.088.4.502 0 .918-.144 1.248-.432l.4.816a2.088 2.088 0 0 1-.816.448 3.217 3.217 0 0 1-.96.144Zm-3.968-7.536v-.944h5.2v.944h-5.2Zm18.628-1.024c.683 0 1.275.133 1.776.4.512.256.907.651 1.184 1.184.288.533.432 1.205.432 2.016V292h-1.136v-4.768c0-.885-.213-1.552-.64-2-.416-.459-1.008-.688-1.776-.688-.576 0-1.077.123-1.504.368a2.43 2.43 0 0 0-.976 1.04c-.224.448-.336.992-.336 1.632V292h-1.136v-4.768c0-.885-.213-1.552-.64-2-.426-.459-1.024-.688-1.792-.688-.565 0-1.061.123-1.488.368a2.406 2.406 0 0 0-.992 1.04c-.224.448-.336.992-.336 1.632V292h-1.136v-8.4h1.088v2.272l-.176-.4a2.97 2.97 0 0 1 1.232-1.424c.576-.352 1.254-.528 2.032-.528.822 0 1.52.208 2.096.624.576.405.95 1.019 1.12 1.84l-.448-.176a3.288 3.288 0 0 1 1.296-1.648c.63-.427 1.382-.64 2.256-.64Zm10.361 8.56c-.875 0-1.643-.181-2.304-.544a4.083 4.083 0 0 1-1.552-1.52c-.373-.651-.56-1.392-.56-2.224 0-.832.176-1.568.528-2.208a3.99 3.99 0 0 1 1.472-1.504 4.062 4.062 0 0 1 2.112-.56c.789 0 1.488.181 2.096.544a3.728 3.728 0 0 1 1.456 1.504c.352.64.528 1.381.528 2.224 0 .053-.005.112-.016.176v.176h-7.312v-.848h6.704l-.448.336c0-.608-.133-1.147-.4-1.616a2.817 2.817 0 0 0-1.056-1.12c-.448-.267-.965-.4-1.552-.4-.576 0-1.093.133-1.552.4a2.78 2.78 0 0 0-1.072 1.12c-.256.48-.384 1.029-.384 1.648v.176c0 .64.139 1.205.416 1.696.288.48.683.859 1.184 1.136.512.267 1.093.4 1.744.4.512 0 .987-.091 1.424-.272a2.962 2.962 0 0 0 1.152-.832l.64.736a3.596 3.596 0 0 1-1.408 1.024 4.671 4.671 0 0 1-1.84.352Zm10.696-8.56c.683 0 1.28.133 1.792.4.523.256.928.651 1.216 1.184.299.533.448 1.205.448 2.016V292h-1.136v-4.768c0-.885-.224-1.552-.672-2-.437-.459-1.056-.688-1.856-.688-.597 0-1.12.123-1.568.368a2.476 2.476 0 0 0-1.024 1.04c-.234.448-.352.992-.352 1.632V292h-1.136v-8.4h1.088v2.304l-.176-.432a3.017 3.017 0 0 1 1.28-1.424c.587-.352 1.286-.528 2.096-.528Zm9.501 8.56c-.79 0-1.398-.213-1.824-.64-.427-.427-.64-1.029-.64-1.808v-7.888h1.136v7.824c0 .491.122.869.368 1.136.256.267.618.4 1.088.4.501 0 .917-.144 1.248-.432l.4.816a2.088 2.088 0 0 1-.816.448c-.31.096-.63.144-.96.144Zm-3.968-7.536v-.944h5.2v.944h-5.2Zm6.148 9.056 5.28-15.072h1.04l-5.28 15.072h-1.04Zm7.903-1.6v-11.2h4.832c1.248 0 2.213.251 2.896.752.693.501 1.04 1.211 1.04 2.128 0 .608-.144 1.12-.432 1.536a2.58 2.58 0 0 1-1.152.944c-.48.213-1.008.32-1.584.32l.272-.384c.715 0 1.328.112 1.84.336.523.213.928.539 1.216.976.288.427.432.96.432 1.6 0 .949-.352 1.685-1.056 2.208-.693.523-1.744.784-3.152.784h-5.152Zm1.184-.976h3.952c.981 0 1.733-.165 2.256-.496.523-.341.784-.88.784-1.616 0-.725-.261-1.253-.784-1.584-.523-.341-1.275-.512-2.256-.512h-4.08v-.976h3.696c.896 0 1.589-.171 2.08-.512.501-.341.752-.848.752-1.52 0-.683-.251-1.189-.752-1.52-.491-.341-1.184-.512-2.08-.512h-3.568v9.248Zm12.223-1.808-.048-1.44 6.784-6.976h1.36l-4.944 5.184-.672.72-2.48 2.512ZM610.265 292v-11.2h1.184V292h-1.184Zm8.048 0-4.832-5.568.8-.864 5.44 6.432h-1.408Zm3.647 0v-11.2h4.192c.949 0 1.765.155 2.448.464.682.299 1.205.736 1.568 1.312.373.565.56 1.253.56 2.064 0 .789-.187 1.472-.56 2.048-.363.565-.886 1.003-1.568 1.312-.683.309-1.499.464-2.448.464h-3.536l.528-.56V292h-1.184Zm1.184-4-.528-.576h3.504c1.12 0 1.968-.24 2.544-.72.586-.491.88-1.179.88-2.064 0-.896-.294-1.589-.88-2.08-.576-.491-1.424-.736-2.544-.736h-3.504l.528-.56V288Zm10.464 4v-11.2h.976l5.12 8.736h-.512l5.072-8.736h.976V292h-1.136v-9.424h.272l-4.672 8h-.56l-4.704-8h.304V292h-1.136Z" fill="#fff"/><rect x="721" y="248.5" width="214" height="48" rx="24" fill="#263D93"/><path d="M763.222 278.5v-12.6h4.914c1.104 0 2.046.174 2.826.522.78.348 1.38.852 1.8 1.512.42.66.63 1.446.63 2.358 0 .912-.21 1.698-.63 2.358-.42.648-1.02 1.146-1.8 1.494-.78.348-1.722.522-2.826.522h-3.924l.81-.828v4.662h-1.8Zm8.424 0-3.204-4.572h1.926l3.24 4.572h-1.962Zm-6.624-4.482-.81-.882h3.87c1.152 0 2.022-.246 2.61-.738.6-.504.9-1.206.9-2.106 0-.9-.3-1.596-.9-2.088-.588-.492-1.458-.738-2.61-.738h-3.87l.81-.9v7.452Zm15.274 4.59c-1.02 0-1.92-.21-2.7-.63a4.62 4.62 0 0 1-1.8-1.728c-.42-.732-.63-1.572-.63-2.52s.204-1.788.612-2.52a4.5 4.5 0 0 1 1.71-1.71c.732-.42 1.554-.63 2.466-.63.924 0 1.74.204 2.448.612.708.408 1.26.984 1.656 1.728.408.732.612 1.59.612 2.574 0 .072-.006.156-.018.252 0 .096-.006.186-.018.27h-8.118v-1.242h7.218l-.702.432c.012-.612-.114-1.158-.378-1.638a2.807 2.807 0 0 0-1.098-1.116c-.456-.276-.99-.414-1.602-.414-.6 0-1.134.138-1.602.414a2.779 2.779 0 0 0-1.098 1.134c-.264.48-.396 1.032-.396 1.656v.288c0 .636.144 1.206.432 1.71.3.492.714.876 1.242 1.152.528.276 1.134.414 1.818.414.564 0 1.074-.096 1.53-.288.468-.192.876-.48 1.224-.864l.954 1.116a4.166 4.166 0 0 1-1.62 1.152c-.636.264-1.35.396-2.142.396Zm12.432-.108v-2.016l-.09-.378v-3.438c0-.732-.216-1.296-.648-1.692-.42-.408-1.056-.612-1.908-.612-.564 0-1.116.096-1.656.288a4.14 4.14 0 0 0-1.368.738l-.72-1.296a5.105 5.105 0 0 1 1.764-.9 7.306 7.306 0 0 1 2.178-.324c1.308 0 2.316.318 3.024.954.708.636 1.062 1.608 1.062 2.916v5.76h-1.638Zm-3.132.108c-.708 0-1.332-.12-1.872-.36-.528-.24-.936-.57-1.224-.99a2.57 2.57 0 0 1-.432-1.458c0-.516.12-.984.36-1.404.252-.42.654-.756 1.206-1.008.564-.252 1.32-.378 2.268-.378h3.024v1.242h-2.952c-.864 0-1.446.144-1.746.432-.3.288-.45.636-.45 1.044 0 .468.186.846.558 1.134.372.276.888.414 1.548.414.648 0 1.212-.144 1.692-.432a2.446 2.446 0 0 0 1.062-1.26l.342 1.188c-.228.564-.63 1.014-1.206 1.35-.576.324-1.302.486-2.178.486Zm11.91 0c-.924 0-1.752-.204-2.484-.612a4.5 4.5 0 0 1-1.71-1.71c-.42-.732-.63-1.584-.63-2.556s.21-1.818.63-2.538a4.5 4.5 0 0 1 1.71-1.71c.732-.408 1.56-.612 2.484-.612.804 0 1.53.18 2.178.54.648.36 1.164.9 1.548 1.62.396.72.594 1.62.594 2.7s-.192 1.98-.576 2.7c-.372.72-.882 1.266-1.53 1.638-.648.36-1.386.54-2.214.54Zm.144-1.512c.6 0 1.14-.138 1.62-.414a2.922 2.922 0 0 0 1.152-1.17c.288-.516.432-1.11.432-1.782 0-.684-.144-1.272-.432-1.764a2.922 2.922 0 0 0-1.152-1.17 3.19 3.19 0 0 0-1.62-.414c-.612 0-1.158.138-1.638.414-.48.276-.864.666-1.152 1.17-.288.492-.432 1.08-.432 1.764 0 .672.144 1.266.432 1.782.288.504.672.894 1.152 1.17.48.276 1.026.414 1.638.414Zm3.258 1.404v-2.574l.108-2.214-.18-2.214v-6.354h1.728V278.5h-1.656Zm21.693-9.63c.768 0 1.446.15 2.034.45.588.3 1.044.756 1.368 1.368.336.612.504 1.386.504 2.322v5.49h-1.728v-5.292c0-.924-.216-1.62-.648-2.088-.432-.468-1.038-.702-1.818-.702-.576 0-1.08.12-1.512.36-.432.24-.768.594-1.008 1.062-.228.468-.342 1.05-.342 1.746v4.914h-1.728v-5.292c0-.924-.216-1.62-.648-2.088-.42-.468-1.026-.702-1.818-.702-.564 0-1.062.12-1.494.36-.432.24-.768.594-1.008 1.062-.24.468-.36 1.05-.36 1.746v4.914h-1.728v-9.54h1.656v2.538l-.27-.648c.3-.624.762-1.11 1.386-1.458.624-.348 1.35-.522 2.178-.522.912 0 1.698.228 2.358.684.66.444 1.092 1.122 1.296 2.034l-.702-.288c.288-.732.792-1.32 1.512-1.764.72-.444 1.56-.666 2.52-.666Zm11.172 9.738c-.96 0-1.812-.21-2.556-.63a4.69 4.69 0 0 1-1.764-1.728c-.432-.744-.648-1.584-.648-2.52 0-.948.216-1.788.648-2.52a4.557 4.557 0 0 1 1.764-1.71c.744-.42 1.596-.63 2.556-.63.948 0 1.794.21 2.538.63a4.4 4.4 0 0 1 1.764 1.71c.432.72.648 1.56.648 2.52 0 .948-.216 1.788-.648 2.52a4.524 4.524 0 0 1-1.764 1.728c-.744.42-1.59.63-2.538.63Zm0-1.512c.612 0 1.158-.138 1.638-.414a2.922 2.922 0 0 0 1.152-1.17c.276-.516.414-1.11.414-1.782 0-.684-.138-1.272-.414-1.764a2.922 2.922 0 0 0-1.152-1.17c-.48-.276-1.026-.414-1.638-.414-.612 0-1.158.138-1.638.414-.48.276-.864.666-1.152 1.17-.288.492-.432 1.08-.432 1.764 0 .672.144 1.266.432 1.782.288.504.672.894 1.152 1.17.48.276 1.026.414 1.638.414Zm7.34 1.404v-9.54h1.656v2.592l-.162-.648a2.93 2.93 0 0 1 1.332-1.512c.624-.348 1.392-.522 2.304-.522v1.674a1.312 1.312 0 0 0-.216-.018h-.18c-.924 0-1.656.276-2.196.828-.54.552-.81 1.35-.81 2.394v4.752h-1.728Zm11.419.108c-1.02 0-1.92-.21-2.7-.63a4.62 4.62 0 0 1-1.8-1.728c-.42-.732-.63-1.572-.63-2.52s.204-1.788.612-2.52a4.5 4.5 0 0 1 1.71-1.71c.732-.42 1.554-.63 2.466-.63.924 0 1.74.204 2.448.612.708.408 1.26.984 1.656 1.728.408.732.612 1.59.612 2.574 0 .072-.006.156-.018.252 0 .096-.006.186-.018.27h-8.118v-1.242h7.218l-.702.432c.012-.612-.114-1.158-.378-1.638a2.807 2.807 0 0 0-1.098-1.116c-.456-.276-.99-.414-1.602-.414-.6 0-1.134.138-1.602.414a2.779 2.779 0 0 0-1.098 1.134c-.264.48-.396 1.032-.396 1.656v.288c0 .636.144 1.206.432 1.71.3.492.714.876 1.242 1.152.528.276 1.134.414 1.818.414.564 0 1.074-.096 1.53-.288.468-.192.876-.48 1.224-.864l.954 1.116a4.166 4.166 0 0 1-1.62 1.152c-.636.264-1.35.396-2.142.396Z" fill="#fff"/><path fill-rule="evenodd" clip-rule="evenodd" d="m885.765 267.323 5.877 1.036a.663.663 0 0 1 .538.768l-1.037 5.877a.662.662 0 1 1-1.306-.23l.759-4.301-9.553 6.689a.663.663 0 1 1-.76-1.086l9.552-6.689-4.301-.758a.664.664 0 0 1 .231-1.306Z" fill="#fff"/></svg>