<svg width="489" height="55" fill="none" xmlns="http://www.w3.org/2000/svg"><path d="M97.38 37A12.963 12.963 0 0 1 88 41c-7.18 0-13-5.82-13-13s5.82-13 13-13 13 5.82 13 13H79" stroke="#000" stroke-width="7" stroke-linecap="round" stroke-linejoin="round"/><path stroke="#000" stroke-width="8" stroke-linecap="round" stroke-linejoin="round" d="M33 16v25M32 4h1v1h-1V4ZM314.5 4h1v1h-1V4ZM47 4v37M65 16.657 48.657 33M66.343 41 56 30.657"/><mask id="a" mask-type="alpha" maskUnits="userSpaceOnUse" x="136" y="11" width="34" height="35"><path fill-rule="evenodd" clip-rule="evenodd" d="M170 11h-34v35h34V11Zm-8 17h-2.5v17h2.5V28Z" fill="#C4C4C4"/></mask><g mask="url(#a)" stroke="#000" stroke-width="8" stroke-linecap="round" stroke-linejoin="round"><path d="M166 28c0 4.313-2.1 8.135-5.334 10.5A12.94 12.94 0 0 1 153 41c-7.18 0-13-5.82-13-13s5.82-13 13-13 13 5.82 13 13ZM166 29v12"/></g><mask id="b" mask-type="alpha" maskUnits="userSpaceOnUse" x="209" y="11" width="34" height="35"><path fill-rule="evenodd" clip-rule="evenodd" d="M243 11h-34v35h34V11Zm-8 17h-2.5v17h2.5V28Z" fill="#C4C4C4"/></mask><g mask="url(#b)" stroke="#000" stroke-width="8" stroke-linecap="round" stroke-linejoin="round"><path d="M239 28c0 4.313-2.1 8.135-5.334 10.5A12.94 12.94 0 0 1 226 41c-7.18 0-13-5.82-13-13s5.82-13 13-13 13 5.82 13 13ZM239 29v12"/></g><mask id="c" mask-type="alpha" maskUnits="userSpaceOnUse" x="272" y="11" width="34" height="35"><path fill-rule="evenodd" clip-rule="evenodd" d="M306 11h-34v35h34V11Zm-8 17h-2.5v17h2.5V28Z" fill="#C4C4C4"/></mask><g mask="url(#c)" stroke="#000" stroke-width="8" stroke-linecap="round" stroke-linejoin="round"><path d="M302 28c0 4.313-2.1 8.135-5.334 10.5A12.94 12.94 0 0 1 289 41c-7.18 0-13-5.82-13-13s5.82-13 13-13 13 5.82 13 13ZM302 29v12"/></g><mask id="d" mask-type="alpha" maskUnits="userSpaceOnUse" x="323" y="11" width="34" height="35"><path fill-rule="evenodd" clip-rule="evenodd" d="M357 11h-34v35h34V11Zm-8 17h-2.5v17h2.5V28Z" fill="#C4C4C4"/></mask><g mask="url(#d)" stroke="#000" stroke-width="8" stroke-linecap="round" stroke-linejoin="round"><path d="M353 28c0 4.313-2.1 8.135-5.334 10.5A12.94 12.94 0 0 1 340 41c-7.18 0-13-5.82-13-13s5.82-13 13-13 13 5.82 13 13ZM353 29v12"/></g><path d="M401.706 19.352A12.966 12.966 0 0 0 392 15c-7.18 0-13 5.82-13 13s5.82 13 13 13a12.94 12.94 0 0 0 7.666-2.5 13.077 13.077 0 0 0 1.939-1.74" stroke="#000" stroke-width="8" stroke-linecap="round" stroke-linejoin="round"/><mask id="e" mask-type="alpha" maskUnits="userSpaceOnUse" x="173" y="11" width="35" height="44"><path fill-rule="evenodd" clip-rule="evenodd" d="M208 11h-35v44h35V11Zm-23.5 25H182v10h2.5V36Z" fill="#C4C4C4"/></mask><g mask="url(#e)" stroke="#000" stroke-width="8" stroke-linecap="round" stroke-linejoin="round"><path d="M178 28c0-7.18 5.82-13 13-13s13 5.82 13 13-5.82 13-13 13h-13M178 28v23"/></g><path d="M4 4v23c0 7.732 6.268 14 14 14h5M22 15H8M112 4v23c0 7.732 6.268 14 14 14h5M130 15h-14M315 15v26c0 5.523-4.477 10-10 10h-1M366.5 41h1v1h-1v-1ZM466 41V24.5a9.5 9.5 0 0 0-9.5-9.5v0a9.5 9.5 0 0 0-9.5 9.5V41M485 41V24.5a9.5 9.5 0 0 0-9.5-9.5v0a9.5 9.5 0 0 0-9.5 9.5V41M255.587 27l5.457 1.986a6.31 6.31 0 0 1 3.761 8.115v0a6.31 6.31 0 0 1-6.949 4.04l-.856-.14" stroke="#000" stroke-width="8" stroke-linecap="round" stroke-linejoin="round"/><path d="M251 37.492c2 2.508 3.5 3.508 8 3.5M260.413 28.492l-5.5-2.002a6.263 6.263 0 0 1-3.734-8.055v0a6.264 6.264 0 0 1 6.997-3.994l.324.059" stroke="#000" stroke-width="8" stroke-linecap="round" stroke-linejoin="round"/><path d="M265 18c-1.5-2-3.5-3.5-8-3.5" stroke="#000" stroke-width="8" stroke-linecap="round" stroke-linejoin="round"/><path fill-rule="evenodd" clip-rule="evenodd" d="M440.818 31.036c.12-.828.182-1.675.182-2.536 0-9.665-7.835-17.5-17.5-17.5S406 18.835 406 28.5 413.835 46 423.5 46c1.641 0 3.229-.226 4.735-.648l-10.033-10.033 2.243-2.048-1.16-1.27-2.302 2.1-6.317-6.317 3.03-3.03a5 5 0 0 0 7.057-7.057l3.363-3.363 6.86 6.86-2.476 2.26 1.16 1.271 2.535-2.313 8.623 8.624Zm-18.935-1.467 3.785-3.453 1.16 1.27-3.785 3.455-1.16-1.272Z" fill="#000"/></svg>