<?xml version="1.0" encoding="utf-8"?><!DOCTYPE svg PUBLIC "-//W3C//DTD SVG 1.1//EN" "http://www.w3.org/Graphics/SVG/1.1/DTD/svg11.dtd"><svg xmlns:xlink="http://www.w3.org/1999/xlink" xmlns="http://www.w3.org/2000/svg" id="map" viewBox="0 0 232 232" width="1000" height="1000" fill="#ffffff" data-dot="8"><rect x="0" y="0" height="232" width="232"/><defs/><g fill="#000000"><rect x="32" y="176" width="24" height="24" transform="rotate(-90,44,188)"/><path clip-rule="evenodd" class="svgeye" d="M 16 160v 56h 56v -56zM 24 168h 40v 40h -40z" transform="rotate(-90,44,188)"/><rect x="176" y="32" width="24" height="24" transform="rotate(90,188,44)"/><path clip-rule="evenodd" class="svgeye" d="M 160 16v 56h 56v -56zM 168 24h 40v 40h -40z" transform="rotate(90,188,44)"/><rect x="32" y="32" width="24" height="24" transform="rotate(0,44,44)"/><path clip-rule="evenodd" class="svgeye" d="M 16 16v 56h 56v -56zM 24 24h 40v 40h -40z" transform="rotate(0,44,44)"/><rect x="80" y="16" width="8" height="8" transform="rotate(0,84,20)"/><rect x="88" y="16" width="8" height="8" transform="rotate(0,92,20)"/><rect x="104" y="16" width="8" height="8" transform="rotate(0,108,20)"/><rect x="128" y="16" width="8" height="8" transform="rotate(0,132,20)"/><rect x="144" y="16" width="8" height="8" transform="rotate(0,148,20)"/><rect x="80" y="24" width="8" height="8" transform="rotate(0,84,28)"/><rect x="88" y="24" width="8" height="8" transform="rotate(0,92,28)"/><rect x="120" y="24" width="8" height="8" transform="rotate(0,124,28)"/><rect x="128" y="24" width="8" height="8" transform="rotate(0,132,28)"/><rect x="144" y="24" width="8" height="8" transform="rotate(0,148,28)"/><rect x="88" y="32" width="8" height="8" transform="rotate(0,92,36)"/><rect x="104" y="32" width="8" height="8" transform="rotate(0,108,36)"/><rect x="128" y="32" width="8" height="8" transform="rotate(0,132,36)"/><rect x="136" y="32" width="8" height="8" transform="rotate(0,140,36)"/><rect x="144" y="32" width="8" height="8" transform="rotate(0,148,36)"/><rect x="88" y="40" width="8" height="8" transform="rotate(0,92,44)"/><rect x="112" y="40" width="8" height="8" transform="rotate(0,116,44)"/><rect x="120" y="40" width="8" height="8" transform="rotate(0,124,44)"/><rect x="136" y="40" width="8" height="8" transform="rotate(0,140,44)"/><rect x="144" y="40" width="8" height="8" transform="rotate(0,148,44)"/><rect x="88" y="48" width="8" height="8" transform="rotate(0,92,52)"/><rect x="96" y="48" width="8" height="8" transform="rotate(0,100,52)"/><rect x="104" y="48" width="8" height="8" transform="rotate(0,108,52)"/><rect x="120" y="48" width="8" height="8" transform="rotate(0,124,52)"/><rect x="144" y="48" width="8" height="8" transform="rotate(0,148,52)"/><rect x="88" y="56" width="8" height="8" transform="rotate(0,92,60)"/><rect x="96" y="56" width="8" height="8" transform="rotate(0,100,60)"/><rect x="128" y="56" width="8" height="8" transform="rotate(0,132,60)"/><rect x="144" y="56" width="8" height="8" transform="rotate(0,148,60)"/><rect x="80" y="64" width="8" height="8" transform="rotate(0,84,68)"/><rect x="96" y="64" width="8" height="8" transform="rotate(0,100,68)"/><rect x="112" y="64" width="8" height="8" transform="rotate(0,116,68)"/><rect x="128" y="64" width="8" height="8" transform="rotate(0,132,68)"/><rect x="144" y="64" width="8" height="8" transform="rotate(0,148,68)"/><rect x="104" y="72" width="8" height="8" transform="rotate(0,108,76)"/><rect x="112" y="72" width="8" height="8" transform="rotate(0,116,76)"/><rect x="128" y="72" width="8" height="8" transform="rotate(0,132,76)"/><rect x="136" y="72" width="8" height="8" transform="rotate(0,140,76)"/><rect x="144" y="72" width="8" height="8" transform="rotate(0,148,76)"/><rect x="24" y="80" width="8" height="8" transform="rotate(0,28,84)"/><rect x="64" y="80" width="8" height="8" transform="rotate(0,68,84)"/><rect x="72" y="80" width="8" height="8" transform="rotate(0,76,84)"/><rect x="80" y="80" width="8" height="8" transform="rotate(0,84,84)"/><rect x="88" y="80" width="8" height="8" transform="rotate(0,92,84)"/><rect x="120" y="80" width="8" height="8" transform="rotate(0,124,84)"/><rect x="128" y="80" width="8" height="8" transform="rotate(0,132,84)"/><rect x="152" y="80" width="8" height="8" transform="rotate(0,156,84)"/><rect x="200" y="80" width="8" height="8" transform="rotate(0,204,84)"/><rect x="208" y="80" width="8" height="8" transform="rotate(0,212,84)"/><rect x="16" y="88" width="8" height="8" transform="rotate(0,20,92)"/><rect x="48" y="88" width="8" height="8" transform="rotate(0,52,92)"/><rect x="56" y="88" width="8" height="8" transform="rotate(0,60,92)"/><rect x="80" y="88" width="8" height="8" transform="rotate(0,84,92)"/><rect x="112" y="88" width="8" height="8" transform="rotate(0,116,92)"/><rect x="128" y="88" width="8" height="8" transform="rotate(0,132,92)"/><rect x="136" y="88" width="8" height="8" transform="rotate(0,140,92)"/><rect x="152" y="88" width="8" height="8" transform="rotate(0,156,92)"/><rect x="168" y="88" width="8" height="8" transform="rotate(0,172,92)"/><rect x="176" y="88" width="8" height="8" transform="rotate(0,180,92)"/><rect x="184" y="88" width="8" height="8" transform="rotate(0,188,92)"/><rect x="192" y="88" width="8" height="8" transform="rotate(0,196,92)"/><rect x="200" y="88" width="8" height="8" transform="rotate(0,204,92)"/><rect x="16" y="96" width="8" height="8" transform="rotate(0,20,100)"/><rect x="24" y="96" width="8" height="8" transform="rotate(0,28,100)"/><rect x="64" y="96" width="8" height="8" transform="rotate(0,68,100)"/><rect x="72" y="96" width="8" height="8" transform="rotate(0,76,100)"/><rect x="80" y="96" width="8" height="8" transform="rotate(0,84,100)"/><rect x="112" y="96" width="8" height="8" transform="rotate(0,116,100)"/><rect x="128" y="96" width="8" height="8" transform="rotate(0,132,100)"/><rect x="136" y="96" width="8" height="8" transform="rotate(0,140,100)"/><rect x="144" y="96" width="8" height="8" transform="rotate(0,148,100)"/><rect x="152" y="96" width="8" height="8" transform="rotate(0,156,100)"/><rect x="160" y="96" width="8" height="8" transform="rotate(0,164,100)"/><rect x="184" y="96" width="8" height="8" transform="rotate(0,188,100)"/><rect x="200" y="96" width="8" height="8" transform="rotate(0,204,100)"/><rect x="208" y="96" width="8" height="8" transform="rotate(0,212,100)"/><rect x="24" y="104" width="8" height="8" transform="rotate(0,28,108)"/><rect x="32" y="104" width="8" height="8" transform="rotate(0,36,108)"/><rect x="56" y="104" width="8" height="8" transform="rotate(0,60,108)"/><rect x="72" y="104" width="8" height="8" transform="rotate(0,76,108)"/><rect x="80" y="104" width="8" height="8" transform="rotate(0,84,108)"/><rect x="104" y="104" width="8" height="8" transform="rotate(0,108,108)"/><rect x="128" y="104" width="8" height="8" transform="rotate(0,132,108)"/><rect x="136" y="104" width="8" height="8" transform="rotate(0,140,108)"/><rect x="152" y="104" width="8" height="8" transform="rotate(0,156,108)"/><rect x="168" y="104" width="8" height="8" transform="rotate(0,172,108)"/><rect x="184" y="104" width="8" height="8" transform="rotate(0,188,108)"/><rect x="208" y="104" width="8" height="8" transform="rotate(0,212,108)"/><rect x="32" y="112" width="8" height="8" transform="rotate(0,36,116)"/><rect x="40" y="112" width="8" height="8" transform="rotate(0,44,116)"/><rect x="48" y="112" width="8" height="8" transform="rotate(0,52,116)"/><rect x="56" y="112" width="8" height="8" transform="rotate(0,60,116)"/><rect x="64" y="112" width="8" height="8" transform="rotate(0,68,116)"/><rect x="72" y="112" width="8" height="8" transform="rotate(0,76,116)"/><rect x="96" y="112" width="8" height="8" transform="rotate(0,100,116)"/><rect x="104" y="112" width="8" height="8" transform="rotate(0,108,116)"/><rect x="120" y="112" width="8" height="8" transform="rotate(0,124,116)"/><rect x="128" y="112" width="8" height="8" transform="rotate(0,132,116)"/><rect x="136" y="112" width="8" height="8" transform="rotate(0,140,116)"/><rect x="144" y="112" width="8" height="8" transform="rotate(0,148,116)"/><rect x="160" y="112" width="8" height="8" transform="rotate(0,164,116)"/><rect x="168" y="112" width="8" height="8" transform="rotate(0,172,116)"/><rect x="208" y="112" width="8" height="8" transform="rotate(0,212,116)"/><rect x="16" y="120" width="8" height="8" transform="rotate(0,20,124)"/><rect x="32" y="120" width="8" height="8" transform="rotate(0,36,124)"/><rect x="40" y="120" width="8" height="8" transform="rotate(0,44,124)"/><rect x="56" y="120" width="8" height="8" transform="rotate(0,60,124)"/><rect x="72" y="120" width="8" height="8" transform="rotate(0,76,124)"/><rect x="80" y="120" width="8" height="8" transform="rotate(0,84,124)"/><rect x="96" y="120" width="8" height="8" transform="rotate(0,100,124)"/><rect x="120" y="120" width="8" height="8" transform="rotate(0,124,124)"/><rect x="136" y="120" width="8" height="8" transform="rotate(0,140,124)"/><rect x="144" y="120" width="8" height="8" transform="rotate(0,148,124)"/><rect x="168" y="120" width="8" height="8" transform="rotate(0,172,124)"/><rect x="200" y="120" width="8" height="8" transform="rotate(0,204,124)"/><rect x="16" y="128" width="8" height="8" transform="rotate(0,20,132)"/><rect x="40" y="128" width="8" height="8" transform="rotate(0,44,132)"/><rect x="48" y="128" width="8" height="8" transform="rotate(0,52,132)"/><rect x="56" y="128" width="8" height="8" transform="rotate(0,60,132)"/><rect x="64" y="128" width="8" height="8" transform="rotate(0,68,132)"/><rect x="72" y="128" width="8" height="8" transform="rotate(0,76,132)"/><rect x="80" y="128" width="8" height="8" transform="rotate(0,84,132)"/><rect x="88" y="128" width="8" height="8" transform="rotate(0,92,132)"/><rect x="96" y="128" width="8" height="8" transform="rotate(0,100,132)"/><rect x="112" y="128" width="8" height="8" transform="rotate(0,116,132)"/><rect x="136" y="128" width="8" height="8" transform="rotate(0,140,132)"/><rect x="160" y="128" width="8" height="8" transform="rotate(0,164,132)"/><rect x="168" y="128" width="8" height="8" transform="rotate(0,172,132)"/><rect x="176" y="128" width="8" height="8" transform="rotate(0,180,132)"/><rect x="184" y="128" width="8" height="8" transform="rotate(0,188,132)"/><rect x="200" y="128" width="8" height="8" transform="rotate(0,204,132)"/><rect x="208" y="128" width="8" height="8" transform="rotate(0,212,132)"/><rect x="16" y="136" width="8" height="8" transform="rotate(0,20,140)"/><rect x="32" y="136" width="8" height="8" transform="rotate(0,36,140)"/><rect x="40" y="136" width="8" height="8" transform="rotate(0,44,140)"/><rect x="48" y="136" width="8" height="8" transform="rotate(0,52,140)"/><rect x="56" y="136" width="8" height="8" transform="rotate(0,60,140)"/><rect x="120" y="136" width="8" height="8" transform="rotate(0,124,140)"/><rect x="128" y="136" width="8" height="8" transform="rotate(0,132,140)"/><rect x="136" y="136" width="8" height="8" transform="rotate(0,140,140)"/><rect x="152" y="136" width="8" height="8" transform="rotate(0,156,140)"/><rect x="160" y="136" width="8" height="8" transform="rotate(0,164,140)"/><rect x="168" y="136" width="8" height="8" transform="rotate(0,172,140)"/><rect x="184" y="136" width="8" height="8" transform="rotate(0,188,140)"/><rect x="192" y="136" width="8" height="8" transform="rotate(0,196,140)"/><rect x="208" y="136" width="8" height="8" transform="rotate(0,212,140)"/><rect x="16" y="144" width="8" height="8" transform="rotate(0,20,148)"/><rect x="32" y="144" width="8" height="8" transform="rotate(0,36,148)"/><rect x="40" y="144" width="8" height="8" transform="rotate(0,44,148)"/><rect x="48" y="144" width="8" height="8" transform="rotate(0,52,148)"/><rect x="56" y="144" width="8" height="8" transform="rotate(0,60,148)"/><rect x="64" y="144" width="8" height="8" transform="rotate(0,68,148)"/><rect x="112" y="144" width="8" height="8" transform="rotate(0,116,148)"/><rect x="120" y="144" width="8" height="8" transform="rotate(0,124,148)"/><rect x="144" y="144" width="8" height="8" transform="rotate(0,148,148)"/><rect x="152" y="144" width="8" height="8" transform="rotate(0,156,148)"/><rect x="160" y="144" width="8" height="8" transform="rotate(0,164,148)"/><rect x="168" y="144" width="8" height="8" transform="rotate(0,172,148)"/><rect x="176" y="144" width="8" height="8" transform="rotate(0,180,148)"/><rect x="192" y="144" width="8" height="8" transform="rotate(0,196,148)"/><rect x="80" y="152" width="8" height="8" transform="rotate(0,84,156)"/><rect x="88" y="152" width="8" height="8" transform="rotate(0,92,156)"/><rect x="96" y="152" width="8" height="8" transform="rotate(0,100,156)"/><rect x="104" y="152" width="8" height="8" transform="rotate(0,108,156)"/><rect x="112" y="152" width="8" height="8" transform="rotate(0,116,156)"/><rect x="144" y="152" width="8" height="8" transform="rotate(0,148,156)"/><rect x="176" y="152" width="8" height="8" transform="rotate(0,180,156)"/><rect x="80" y="160" width="8" height="8" transform="rotate(0,84,164)"/><rect x="88" y="160" width="8" height="8" transform="rotate(0,92,164)"/><rect x="96" y="160" width="8" height="8" transform="rotate(0,100,164)"/><rect x="144" y="160" width="8" height="8" transform="rotate(0,148,164)"/><rect x="160" y="160" width="8" height="8" transform="rotate(0,164,164)"/><rect x="176" y="160" width="8" height="8" transform="rotate(0,180,164)"/><rect x="208" y="160" width="8" height="8" transform="rotate(0,212,164)"/><rect x="96" y="168" width="8" height="8" transform="rotate(0,100,172)"/><rect x="120" y="168" width="8" height="8" transform="rotate(0,124,172)"/><rect x="128" y="168" width="8" height="8" transform="rotate(0,132,172)"/><rect x="144" y="168" width="8" height="8" transform="rotate(0,148,172)"/><rect x="176" y="168" width="8" height="8" transform="rotate(0,180,172)"/><rect x="208" y="168" width="8" height="8" transform="rotate(0,212,172)"/><rect x="88" y="176" width="8" height="8" transform="rotate(0,92,180)"/><rect x="104" y="176" width="8" height="8" transform="rotate(0,108,180)"/><rect x="112" y="176" width="8" height="8" transform="rotate(0,116,180)"/><rect x="120" y="176" width="8" height="8" transform="rotate(0,124,180)"/><rect x="136" y="176" width="8" height="8" transform="rotate(0,140,180)"/><rect x="144" y="176" width="8" height="8" transform="rotate(0,148,180)"/><rect x="152" y="176" width="8" height="8" transform="rotate(0,156,180)"/><rect x="160" y="176" width="8" height="8" transform="rotate(0,164,180)"/><rect x="168" y="176" width="8" height="8" transform="rotate(0,172,180)"/><rect x="176" y="176" width="8" height="8" transform="rotate(0,180,180)"/><rect x="192" y="176" width="8" height="8" transform="rotate(0,196,180)"/><rect x="200" y="176" width="8" height="8" transform="rotate(0,204,180)"/><rect x="208" y="176" width="8" height="8" transform="rotate(0,212,180)"/><rect x="88" y="184" width="8" height="8" transform="rotate(0,92,188)"/><rect x="96" y="184" width="8" height="8" transform="rotate(0,100,188)"/><rect x="104" y="184" width="8" height="8" transform="rotate(0,108,188)"/><rect x="120" y="184" width="8" height="8" transform="rotate(0,124,188)"/><rect x="152" y="184" width="8" height="8" transform="rotate(0,156,188)"/><rect x="160" y="184" width="8" height="8" transform="rotate(0,164,188)"/><rect x="200" y="184" width="8" height="8" transform="rotate(0,204,188)"/><rect x="208" y="184" width="8" height="8" transform="rotate(0,212,188)"/><rect x="96" y="192" width="8" height="8" transform="rotate(0,100,196)"/><rect x="112" y="192" width="8" height="8" transform="rotate(0,116,196)"/><rect x="128" y="192" width="8" height="8" transform="rotate(0,132,196)"/><rect x="144" y="192" width="8" height="8" transform="rotate(0,148,196)"/><rect x="184" y="192" width="8" height="8" transform="rotate(0,188,196)"/><rect x="192" y="192" width="8" height="8" transform="rotate(0,196,196)"/><rect x="208" y="192" width="8" height="8" transform="rotate(0,212,196)"/><rect x="80" y="200" width="8" height="8" transform="rotate(0,84,204)"/><rect x="88" y="200" width="8" height="8" transform="rotate(0,92,204)"/><rect x="96" y="200" width="8" height="8" transform="rotate(0,100,204)"/><rect x="104" y="200" width="8" height="8" transform="rotate(0,108,204)"/><rect x="120" y="200" width="8" height="8" transform="rotate(0,124,204)"/><rect x="128" y="200" width="8" height="8" transform="rotate(0,132,204)"/><rect x="144" y="200" width="8" height="8" transform="rotate(0,148,204)"/><rect x="160" y="200" width="8" height="8" transform="rotate(0,164,204)"/><rect x="168" y="200" width="8" height="8" transform="rotate(0,172,204)"/><rect x="176" y="200" width="8" height="8" transform="rotate(0,180,204)"/><rect x="208" y="200" width="8" height="8" transform="rotate(0,212,204)"/><rect x="88" y="208" width="8" height="8" transform="rotate(0,92,212)"/><rect x="96" y="208" width="8" height="8" transform="rotate(0,100,212)"/><rect x="104" y="208" width="8" height="8" transform="rotate(0,108,212)"/><rect x="112" y="208" width="8" height="8" transform="rotate(0,116,212)"/><rect x="128" y="208" width="8" height="8" transform="rotate(0,132,212)"/><rect x="144" y="208" width="8" height="8" transform="rotate(0,148,212)"/><rect x="160" y="208" width="8" height="8" transform="rotate(0,164,212)"/><rect x="184" y="208" width="8" height="8" transform="rotate(0,188,212)"/><rect x="208" y="208" width="8" height="8" transform="rotate(0,212,212)"/></g></svg>