<?xml version="1.0" encoding="utf-8"?><!DOCTYPE svg PUBLIC "-//W3C//DTD SVG 1.1//EN" "http://www.w3.org/Graphics/SVG/1.1/DTD/svg11.dtd"><svg xmlns:xlink="http://www.w3.org/1999/xlink" xmlns="http://www.w3.org/2000/svg" id="map" viewBox="0 0 222 222" width="1000" height="1000" fill="#ffffff" data-dot="6"><rect x="0" y="0" height="222" width="222"/><defs/><g fill="#000000"><rect x="24" y="180" width="18" height="18" transform="rotate(-90,33,189)"/><path clip-rule="evenodd" class="svgeye" d="M 12 168v 42h 42v -42zM 18 174h 30v 30h -30z" transform="rotate(-90,33,189)"/><rect x="180" y="24" width="18" height="18" transform="rotate(90,189,33)"/><path clip-rule="evenodd" class="svgeye" d="M 168 12v 42h 42v -42zM 174 18h 30v 30h -30z" transform="rotate(90,189,33)"/><rect x="24" y="24" width="18" height="18" transform="rotate(0,33,33)"/><path clip-rule="evenodd" class="svgeye" d="M 12 12v 42h 42v -42zM 18 18h 30v 30h -30z" transform="rotate(0,33,33)"/><rect x="60" y="12" width="6" height="6" transform="rotate(0,63,15)"/><rect x="66" y="12" width="6" height="6" transform="rotate(0,69,15)"/><rect x="78" y="12" width="6" height="6" transform="rotate(0,81,15)"/><rect x="90" y="12" width="6" height="6" transform="rotate(0,93,15)"/><rect x="96" y="12" width="6" height="6" transform="rotate(0,99,15)"/><rect x="114" y="12" width="6" height="6" transform="rotate(0,117,15)"/><rect x="120" y="12" width="6" height="6" transform="rotate(0,123,15)"/><rect x="126" y="12" width="6" height="6" transform="rotate(0,129,15)"/><rect x="132" y="12" width="6" height="6" transform="rotate(0,135,15)"/><rect x="150" y="12" width="6" height="6" transform="rotate(0,153,15)"/><rect x="156" y="12" width="6" height="6" transform="rotate(0,159,15)"/><rect x="66" y="18" width="6" height="6" transform="rotate(0,69,21)"/><rect x="78" y="18" width="6" height="6" transform="rotate(0,81,21)"/><rect x="96" y="18" width="6" height="6" transform="rotate(0,99,21)"/><rect x="108" y="18" width="6" height="6" transform="rotate(0,111,21)"/><rect x="114" y="18" width="6" height="6" transform="rotate(0,117,21)"/><rect x="156" y="18" width="6" height="6" transform="rotate(0,159,21)"/><rect x="66" y="24" width="6" height="6" transform="rotate(0,69,27)"/><rect x="72" y="24" width="6" height="6" transform="rotate(0,75,27)"/><rect x="84" y="24" width="6" height="6" transform="rotate(0,87,27)"/><rect x="96" y="24" width="6" height="6" transform="rotate(0,99,27)"/><rect x="114" y="24" width="6" height="6" transform="rotate(0,117,27)"/><rect x="120" y="24" width="6" height="6" transform="rotate(0,123,27)"/><rect x="132" y="24" width="6" height="6" transform="rotate(0,135,27)"/><rect x="138" y="24" width="6" height="6" transform="rotate(0,141,27)"/><rect x="150" y="24" width="6" height="6" transform="rotate(0,153,27)"/><rect x="66" y="30" width="6" height="6" transform="rotate(0,69,33)"/><rect x="72" y="30" width="6" height="6" transform="rotate(0,75,33)"/><rect x="84" y="30" width="6" height="6" transform="rotate(0,87,33)"/><rect x="102" y="30" width="6" height="6" transform="rotate(0,105,33)"/><rect x="108" y="30" width="6" height="6" transform="rotate(0,111,33)"/><rect x="126" y="30" width="6" height="6" transform="rotate(0,129,33)"/><rect x="132" y="30" width="6" height="6" transform="rotate(0,135,33)"/><rect x="144" y="30" width="6" height="6" transform="rotate(0,147,33)"/><rect x="150" y="30" width="6" height="6" transform="rotate(0,153,33)"/><rect x="156" y="30" width="6" height="6" transform="rotate(0,159,33)"/><rect x="60" y="36" width="6" height="6" transform="rotate(0,63,39)"/><rect x="66" y="36" width="6" height="6" transform="rotate(0,69,39)"/><rect x="78" y="36" width="6" height="6" transform="rotate(0,81,39)"/><rect x="84" y="36" width="6" height="6" transform="rotate(0,87,39)"/><rect x="90" y="36" width="6" height="6" transform="rotate(0,93,39)"/><rect x="108" y="36" width="6" height="6" transform="rotate(0,111,39)"/><rect x="114" y="36" width="6" height="6" transform="rotate(0,117,39)"/><rect x="120" y="36" width="6" height="6" transform="rotate(0,123,39)"/><rect x="150" y="36" width="6" height="6" transform="rotate(0,153,39)"/><rect x="60" y="42" width="6" height="6" transform="rotate(0,63,45)"/><rect x="78" y="42" width="6" height="6" transform="rotate(0,81,45)"/><rect x="84" y="42" width="6" height="6" transform="rotate(0,87,45)"/><rect x="90" y="42" width="6" height="6" transform="rotate(0,93,45)"/><rect x="96" y="42" width="6" height="6" transform="rotate(0,99,45)"/><rect x="114" y="42" width="6" height="6" transform="rotate(0,117,45)"/><rect x="132" y="42" width="6" height="6" transform="rotate(0,135,45)"/><rect x="144" y="42" width="6" height="6" transform="rotate(0,147,45)"/><rect x="60" y="48" width="6" height="6" transform="rotate(0,63,51)"/><rect x="72" y="48" width="6" height="6" transform="rotate(0,75,51)"/><rect x="84" y="48" width="6" height="6" transform="rotate(0,87,51)"/><rect x="96" y="48" width="6" height="6" transform="rotate(0,99,51)"/><rect x="108" y="48" width="6" height="6" transform="rotate(0,111,51)"/><rect x="120" y="48" width="6" height="6" transform="rotate(0,123,51)"/><rect x="132" y="48" width="6" height="6" transform="rotate(0,135,51)"/><rect x="144" y="48" width="6" height="6" transform="rotate(0,147,51)"/><rect x="156" y="48" width="6" height="6" transform="rotate(0,159,51)"/><rect x="66" y="54" width="6" height="6" transform="rotate(0,69,57)"/><rect x="78" y="54" width="6" height="6" transform="rotate(0,81,57)"/><rect x="96" y="54" width="6" height="6" transform="rotate(0,99,57)"/><rect x="138" y="54" width="6" height="6" transform="rotate(0,141,57)"/><rect x="156" y="54" width="6" height="6" transform="rotate(0,159,57)"/><rect x="18" y="60" width="6" height="6" transform="rotate(0,21,63)"/><rect x="24" y="60" width="6" height="6" transform="rotate(0,27,63)"/><rect x="30" y="60" width="6" height="6" transform="rotate(0,33,63)"/><rect x="36" y="60" width="6" height="6" transform="rotate(0,39,63)"/><rect x="42" y="60" width="6" height="6" transform="rotate(0,45,63)"/><rect x="48" y="60" width="6" height="6" transform="rotate(0,51,63)"/><rect x="54" y="60" width="6" height="6" transform="rotate(0,57,63)"/><rect x="90" y="60" width="6" height="6" transform="rotate(0,93,63)"/><rect x="108" y="60" width="6" height="6" transform="rotate(0,111,63)"/><rect x="114" y="60" width="6" height="6" transform="rotate(0,117,63)"/><rect x="144" y="60" width="6" height="6" transform="rotate(0,147,63)"/><rect x="156" y="60" width="6" height="6" transform="rotate(0,159,63)"/><rect x="174" y="60" width="6" height="6" transform="rotate(0,177,63)"/><rect x="180" y="60" width="6" height="6" transform="rotate(0,183,63)"/><rect x="204" y="60" width="6" height="6" transform="rotate(0,207,63)"/><rect x="12" y="66" width="6" height="6" transform="rotate(0,15,69)"/><rect x="18" y="66" width="6" height="6" transform="rotate(0,21,69)"/><rect x="24" y="66" width="6" height="6" transform="rotate(0,27,69)"/><rect x="36" y="66" width="6" height="6" transform="rotate(0,39,69)"/><rect x="66" y="66" width="6" height="6" transform="rotate(0,69,69)"/><rect x="72" y="66" width="6" height="6" transform="rotate(0,75,69)"/><rect x="78" y="66" width="6" height="6" transform="rotate(0,81,69)"/><rect x="84" y="66" width="6" height="6" transform="rotate(0,87,69)"/><rect x="102" y="66" width="6" height="6" transform="rotate(0,105,69)"/><rect x="120" y="66" width="6" height="6" transform="rotate(0,123,69)"/><rect x="126" y="66" width="6" height="6" transform="rotate(0,129,69)"/><rect x="132" y="66" width="6" height="6" transform="rotate(0,135,69)"/><rect x="138" y="66" width="6" height="6" transform="rotate(0,141,69)"/><rect x="150" y="66" width="6" height="6" transform="rotate(0,153,69)"/><rect x="168" y="66" width="6" height="6" transform="rotate(0,171,69)"/><rect x="174" y="66" width="6" height="6" transform="rotate(0,177,69)"/><rect x="186" y="66" width="6" height="6" transform="rotate(0,189,69)"/><rect x="192" y="66" width="6" height="6" transform="rotate(0,195,69)"/><rect x="204" y="66" width="6" height="6" transform="rotate(0,207,69)"/><rect x="24" y="72" width="6" height="6" transform="rotate(0,27,75)"/><rect x="30" y="72" width="6" height="6" transform="rotate(0,33,75)"/><rect x="48" y="72" width="6" height="6" transform="rotate(0,51,75)"/><rect x="54" y="72" width="6" height="6" transform="rotate(0,57,75)"/><rect x="60" y="72" width="6" height="6" transform="rotate(0,63,75)"/><rect x="66" y="72" width="6" height="6" transform="rotate(0,69,75)"/><rect x="78" y="72" width="6" height="6" transform="rotate(0,81,75)"/><rect x="96" y="72" width="6" height="6" transform="rotate(0,99,75)"/><rect x="108" y="72" width="6" height="6" transform="rotate(0,111,75)"/><rect x="120" y="72" width="6" height="6" transform="rotate(0,123,75)"/><rect x="132" y="72" width="6" height="6" transform="rotate(0,135,75)"/><rect x="138" y="72" width="6" height="6" transform="rotate(0,141,75)"/><rect x="180" y="72" width="6" height="6" transform="rotate(0,183,75)"/><rect x="192" y="72" width="6" height="6" transform="rotate(0,195,75)"/><rect x="198" y="72" width="6" height="6" transform="rotate(0,201,75)"/><rect x="12" y="78" width="6" height="6" transform="rotate(0,15,81)"/><rect x="18" y="78" width="6" height="6" transform="rotate(0,21,81)"/><rect x="30" y="78" width="6" height="6" transform="rotate(0,33,81)"/><rect x="54" y="78" width="6" height="6" transform="rotate(0,57,81)"/><rect x="60" y="78" width="6" height="6" transform="rotate(0,63,81)"/><rect x="66" y="78" width="6" height="6" transform="rotate(0,69,81)"/><rect x="72" y="78" width="6" height="6" transform="rotate(0,75,81)"/><rect x="78" y="78" width="6" height="6" transform="rotate(0,81,81)"/><rect x="84" y="78" width="6" height="6" transform="rotate(0,87,81)"/><rect x="96" y="78" width="6" height="6" transform="rotate(0,99,81)"/><rect x="102" y="78" width="6" height="6" transform="rotate(0,105,81)"/><rect x="108" y="78" width="6" height="6" transform="rotate(0,111,81)"/><rect x="132" y="78" width="6" height="6" transform="rotate(0,135,81)"/><rect x="138" y="78" width="6" height="6" transform="rotate(0,141,81)"/><rect x="144" y="78" width="6" height="6" transform="rotate(0,147,81)"/><rect x="156" y="78" width="6" height="6" transform="rotate(0,159,81)"/><rect x="162" y="78" width="6" height="6" transform="rotate(0,165,81)"/><rect x="180" y="78" width="6" height="6" transform="rotate(0,183,81)"/><rect x="186" y="78" width="6" height="6" transform="rotate(0,189,81)"/><rect x="192" y="78" width="6" height="6" transform="rotate(0,195,81)"/><rect x="42" y="84" width="6" height="6" transform="rotate(0,45,87)"/><rect x="48" y="84" width="6" height="6" transform="rotate(0,51,87)"/><rect x="54" y="84" width="6" height="6" transform="rotate(0,57,87)"/><rect x="66" y="84" width="6" height="6" transform="rotate(0,69,87)"/><rect x="84" y="84" width="6" height="6" transform="rotate(0,87,87)"/><rect x="90" y="84" width="6" height="6" transform="rotate(0,93,87)"/><rect x="102" y="84" width="6" height="6" transform="rotate(0,105,87)"/><rect x="120" y="84" width="6" height="6" transform="rotate(0,123,87)"/><rect x="138" y="84" width="6" height="6" transform="rotate(0,141,87)"/><rect x="156" y="84" width="6" height="6" transform="rotate(0,159,87)"/><rect x="162" y="84" width="6" height="6" transform="rotate(0,165,87)"/><rect x="174" y="84" width="6" height="6" transform="rotate(0,177,87)"/><rect x="180" y="84" width="6" height="6" transform="rotate(0,183,87)"/><rect x="186" y="84" width="6" height="6" transform="rotate(0,189,87)"/><rect x="198" y="84" width="6" height="6" transform="rotate(0,201,87)"/><rect x="18" y="90" width="6" height="6" transform="rotate(0,21,93)"/><rect x="36" y="90" width="6" height="6" transform="rotate(0,39,93)"/><rect x="60" y="90" width="6" height="6" transform="rotate(0,63,93)"/><rect x="72" y="90" width="6" height="6" transform="rotate(0,75,93)"/><rect x="78" y="90" width="6" height="6" transform="rotate(0,81,93)"/><rect x="102" y="90" width="6" height="6" transform="rotate(0,105,93)"/><rect x="114" y="90" width="6" height="6" transform="rotate(0,117,93)"/><rect x="132" y="90" width="6" height="6" transform="rotate(0,135,93)"/><rect x="138" y="90" width="6" height="6" transform="rotate(0,141,93)"/><rect x="150" y="90" width="6" height="6" transform="rotate(0,153,93)"/><rect x="162" y="90" width="6" height="6" transform="rotate(0,165,93)"/><rect x="168" y="90" width="6" height="6" transform="rotate(0,171,93)"/><rect x="198" y="90" width="6" height="6" transform="rotate(0,201,93)"/><rect x="204" y="90" width="6" height="6" transform="rotate(0,207,93)"/><rect x="12" y="96" width="6" height="6" transform="rotate(0,15,99)"/><rect x="18" y="96" width="6" height="6" transform="rotate(0,21,99)"/><rect x="30" y="96" width="6" height="6" transform="rotate(0,33,99)"/><rect x="48" y="96" width="6" height="6" transform="rotate(0,51,99)"/><rect x="54" y="96" width="6" height="6" transform="rotate(0,57,99)"/><rect x="66" y="96" width="6" height="6" transform="rotate(0,69,99)"/><rect x="72" y="96" width="6" height="6" transform="rotate(0,75,99)"/><rect x="78" y="96" width="6" height="6" transform="rotate(0,81,99)"/><rect x="90" y="96" width="6" height="6" transform="rotate(0,93,99)"/><rect x="102" y="96" width="6" height="6" transform="rotate(0,105,99)"/><rect x="108" y="96" width="6" height="6" transform="rotate(0,111,99)"/><rect x="120" y="96" width="6" height="6" transform="rotate(0,123,99)"/><rect x="126" y="96" width="6" height="6" transform="rotate(0,129,99)"/><rect x="162" y="96" width="6" height="6" transform="rotate(0,165,99)"/><rect x="168" y="96" width="6" height="6" transform="rotate(0,171,99)"/><rect x="186" y="96" width="6" height="6" transform="rotate(0,189,99)"/><rect x="192" y="96" width="6" height="6" transform="rotate(0,195,99)"/><rect x="198" y="96" width="6" height="6" transform="rotate(0,201,99)"/><rect x="24" y="102" width="6" height="6" transform="rotate(0,27,105)"/><rect x="42" y="102" width="6" height="6" transform="rotate(0,45,105)"/><rect x="60" y="102" width="6" height="6" transform="rotate(0,63,105)"/><rect x="78" y="102" width="6" height="6" transform="rotate(0,81,105)"/><rect x="84" y="102" width="6" height="6" transform="rotate(0,87,105)"/><rect x="90" y="102" width="6" height="6" transform="rotate(0,93,105)"/><rect x="96" y="102" width="6" height="6" transform="rotate(0,99,105)"/><rect x="102" y="102" width="6" height="6" transform="rotate(0,105,105)"/><rect x="108" y="102" width="6" height="6" transform="rotate(0,111,105)"/><rect x="120" y="102" width="6" height="6" transform="rotate(0,123,105)"/><rect x="126" y="102" width="6" height="6" transform="rotate(0,129,105)"/><rect x="132" y="102" width="6" height="6" transform="rotate(0,135,105)"/><rect x="138" y="102" width="6" height="6" transform="rotate(0,141,105)"/><rect x="144" y="102" width="6" height="6" transform="rotate(0,147,105)"/><rect x="150" y="102" width="6" height="6" transform="rotate(0,153,105)"/><rect x="156" y="102" width="6" height="6" transform="rotate(0,159,105)"/><rect x="162" y="102" width="6" height="6" transform="rotate(0,165,105)"/><rect x="168" y="102" width="6" height="6" transform="rotate(0,171,105)"/><rect x="180" y="102" width="6" height="6" transform="rotate(0,183,105)"/><rect x="186" y="102" width="6" height="6" transform="rotate(0,189,105)"/><rect x="192" y="102" width="6" height="6" transform="rotate(0,195,105)"/><rect x="12" y="108" width="6" height="6" transform="rotate(0,15,111)"/><rect x="30" y="108" width="6" height="6" transform="rotate(0,33,111)"/><rect x="48" y="108" width="6" height="6" transform="rotate(0,51,111)"/><rect x="66" y="108" width="6" height="6" transform="rotate(0,69,111)"/><rect x="78" y="108" width="6" height="6" transform="rotate(0,81,111)"/><rect x="90" y="108" width="6" height="6" transform="rotate(0,93,111)"/><rect x="108" y="108" width="6" height="6" transform="rotate(0,111,111)"/><rect x="114" y="108" width="6" height="6" transform="rotate(0,117,111)"/><rect x="126" y="108" width="6" height="6" transform="rotate(0,129,111)"/><rect x="144" y="108" width="6" height="6" transform="rotate(0,147,111)"/><rect x="156" y="108" width="6" height="6" transform="rotate(0,159,111)"/><rect x="162" y="108" width="6" height="6" transform="rotate(0,165,111)"/><rect x="174" y="108" width="6" height="6" transform="rotate(0,177,111)"/><rect x="180" y="108" width="6" height="6" transform="rotate(0,183,111)"/><rect x="204" y="108" width="6" height="6" transform="rotate(0,207,111)"/><rect x="12" y="114" width="6" height="6" transform="rotate(0,15,117)"/><rect x="18" y="114" width="6" height="6" transform="rotate(0,21,117)"/><rect x="24" y="114" width="6" height="6" transform="rotate(0,27,117)"/><rect x="30" y="114" width="6" height="6" transform="rotate(0,33,117)"/><rect x="36" y="114" width="6" height="6" transform="rotate(0,39,117)"/><rect x="42" y="114" width="6" height="6" transform="rotate(0,45,117)"/><rect x="60" y="114" width="6" height="6" transform="rotate(0,63,117)"/><rect x="66" y="114" width="6" height="6" transform="rotate(0,69,117)"/><rect x="72" y="114" width="6" height="6" transform="rotate(0,75,117)"/><rect x="96" y="114" width="6" height="6" transform="rotate(0,99,117)"/><rect x="108" y="114" width="6" height="6" transform="rotate(0,111,117)"/><rect x="126" y="114" width="6" height="6" transform="rotate(0,129,117)"/><rect x="132" y="114" width="6" height="6" transform="rotate(0,135,117)"/><rect x="150" y="114" width="6" height="6" transform="rotate(0,153,117)"/><rect x="168" y="114" width="6" height="6" transform="rotate(0,171,117)"/><rect x="174" y="114" width="6" height="6" transform="rotate(0,177,117)"/><rect x="186" y="114" width="6" height="6" transform="rotate(0,189,117)"/><rect x="192" y="114" width="6" height="6" transform="rotate(0,195,117)"/><rect x="198" y="114" width="6" height="6" transform="rotate(0,201,117)"/><rect x="204" y="114" width="6" height="6" transform="rotate(0,207,117)"/><rect x="12" y="120" width="6" height="6" transform="rotate(0,15,123)"/><rect x="24" y="120" width="6" height="6" transform="rotate(0,27,123)"/><rect x="30" y="120" width="6" height="6" transform="rotate(0,33,123)"/><rect x="36" y="120" width="6" height="6" transform="rotate(0,39,123)"/><rect x="48" y="120" width="6" height="6" transform="rotate(0,51,123)"/><rect x="60" y="120" width="6" height="6" transform="rotate(0,63,123)"/><rect x="78" y="120" width="6" height="6" transform="rotate(0,81,123)"/><rect x="84" y="120" width="6" height="6" transform="rotate(0,87,123)"/><rect x="108" y="120" width="6" height="6" transform="rotate(0,111,123)"/><rect x="114" y="120" width="6" height="6" transform="rotate(0,117,123)"/><rect x="120" y="120" width="6" height="6" transform="rotate(0,123,123)"/><rect x="132" y="120" width="6" height="6" transform="rotate(0,135,123)"/><rect x="144" y="120" width="6" height="6" transform="rotate(0,147,123)"/><rect x="174" y="120" width="6" height="6" transform="rotate(0,177,123)"/><rect x="180" y="120" width="6" height="6" transform="rotate(0,183,123)"/><rect x="192" y="120" width="6" height="6" transform="rotate(0,195,123)"/><rect x="198" y="120" width="6" height="6" transform="rotate(0,201,123)"/><rect x="24" y="126" width="6" height="6" transform="rotate(0,27,129)"/><rect x="30" y="126" width="6" height="6" transform="rotate(0,33,129)"/><rect x="36" y="126" width="6" height="6" transform="rotate(0,39,129)"/><rect x="42" y="126" width="6" height="6" transform="rotate(0,45,129)"/><rect x="60" y="126" width="6" height="6" transform="rotate(0,63,129)"/><rect x="66" y="126" width="6" height="6" transform="rotate(0,69,129)"/><rect x="96" y="126" width="6" height="6" transform="rotate(0,99,129)"/><rect x="102" y="126" width="6" height="6" transform="rotate(0,105,129)"/><rect x="114" y="126" width="6" height="6" transform="rotate(0,117,129)"/><rect x="132" y="126" width="6" height="6" transform="rotate(0,135,129)"/><rect x="156" y="126" width="6" height="6" transform="rotate(0,159,129)"/><rect x="174" y="126" width="6" height="6" transform="rotate(0,177,129)"/><rect x="180" y="126" width="6" height="6" transform="rotate(0,183,129)"/><rect x="186" y="126" width="6" height="6" transform="rotate(0,189,129)"/><rect x="192" y="126" width="6" height="6" transform="rotate(0,195,129)"/><rect x="198" y="126" width="6" height="6" transform="rotate(0,201,129)"/><rect x="12" y="132" width="6" height="6" transform="rotate(0,15,135)"/><rect x="18" y="132" width="6" height="6" transform="rotate(0,21,135)"/><rect x="30" y="132" width="6" height="6" transform="rotate(0,33,135)"/><rect x="36" y="132" width="6" height="6" transform="rotate(0,39,135)"/><rect x="48" y="132" width="6" height="6" transform="rotate(0,51,135)"/><rect x="72" y="132" width="6" height="6" transform="rotate(0,75,135)"/><rect x="96" y="132" width="6" height="6" transform="rotate(0,99,135)"/><rect x="102" y="132" width="6" height="6" transform="rotate(0,105,135)"/><rect x="108" y="132" width="6" height="6" transform="rotate(0,111,135)"/><rect x="120" y="132" width="6" height="6" transform="rotate(0,123,135)"/><rect x="126" y="132" width="6" height="6" transform="rotate(0,129,135)"/><rect x="132" y="132" width="6" height="6" transform="rotate(0,135,135)"/><rect x="138" y="132" width="6" height="6" transform="rotate(0,141,135)"/><rect x="144" y="132" width="6" height="6" transform="rotate(0,147,135)"/><rect x="162" y="132" width="6" height="6" transform="rotate(0,165,135)"/><rect x="174" y="132" width="6" height="6" transform="rotate(0,177,135)"/><rect x="180" y="132" width="6" height="6" transform="rotate(0,183,135)"/><rect x="186" y="132" width="6" height="6" transform="rotate(0,189,135)"/><rect x="198" y="132" width="6" height="6" transform="rotate(0,201,135)"/><rect x="204" y="132" width="6" height="6" transform="rotate(0,207,135)"/><rect x="12" y="138" width="6" height="6" transform="rotate(0,15,141)"/><rect x="42" y="138" width="6" height="6" transform="rotate(0,45,141)"/><rect x="60" y="138" width="6" height="6" transform="rotate(0,63,141)"/><rect x="66" y="138" width="6" height="6" transform="rotate(0,69,141)"/><rect x="72" y="138" width="6" height="6" transform="rotate(0,75,141)"/><rect x="90" y="138" width="6" height="6" transform="rotate(0,93,141)"/><rect x="108" y="138" width="6" height="6" transform="rotate(0,111,141)"/><rect x="114" y="138" width="6" height="6" transform="rotate(0,117,141)"/><rect x="120" y="138" width="6" height="6" transform="rotate(0,123,141)"/><rect x="150" y="138" width="6" height="6" transform="rotate(0,153,141)"/><rect x="168" y="138" width="6" height="6" transform="rotate(0,171,141)"/><rect x="174" y="138" width="6" height="6" transform="rotate(0,177,141)"/><rect x="204" y="138" width="6" height="6" transform="rotate(0,207,141)"/><rect x="12" y="144" width="6" height="6" transform="rotate(0,15,147)"/><rect x="30" y="144" width="6" height="6" transform="rotate(0,33,147)"/><rect x="48" y="144" width="6" height="6" transform="rotate(0,51,147)"/><rect x="66" y="144" width="6" height="6" transform="rotate(0,69,147)"/><rect x="72" y="144" width="6" height="6" transform="rotate(0,75,147)"/><rect x="78" y="144" width="6" height="6" transform="rotate(0,81,147)"/><rect x="96" y="144" width="6" height="6" transform="rotate(0,99,147)"/><rect x="102" y="144" width="6" height="6" transform="rotate(0,105,147)"/><rect x="108" y="144" width="6" height="6" transform="rotate(0,111,147)"/><rect x="114" y="144" width="6" height="6" transform="rotate(0,117,147)"/><rect x="132" y="144" width="6" height="6" transform="rotate(0,135,147)"/><rect x="144" y="144" width="6" height="6" transform="rotate(0,147,147)"/><rect x="162" y="144" width="6" height="6" transform="rotate(0,165,147)"/><rect x="174" y="144" width="6" height="6" transform="rotate(0,177,147)"/><rect x="186" y="144" width="6" height="6" transform="rotate(0,189,147)"/><rect x="198" y="144" width="6" height="6" transform="rotate(0,201,147)"/><rect x="12" y="150" width="6" height="6" transform="rotate(0,15,153)"/><rect x="24" y="150" width="6" height="6" transform="rotate(0,27,153)"/><rect x="42" y="150" width="6" height="6" transform="rotate(0,45,153)"/><rect x="60" y="150" width="6" height="6" transform="rotate(0,63,153)"/><rect x="66" y="150" width="6" height="6" transform="rotate(0,69,153)"/><rect x="72" y="150" width="6" height="6" transform="rotate(0,75,153)"/><rect x="78" y="150" width="6" height="6" transform="rotate(0,81,153)"/><rect x="96" y="150" width="6" height="6" transform="rotate(0,99,153)"/><rect x="102" y="150" width="6" height="6" transform="rotate(0,105,153)"/><rect x="108" y="150" width="6" height="6" transform="rotate(0,111,153)"/><rect x="114" y="150" width="6" height="6" transform="rotate(0,117,153)"/><rect x="138" y="150" width="6" height="6" transform="rotate(0,141,153)"/><rect x="144" y="150" width="6" height="6" transform="rotate(0,147,153)"/><rect x="186" y="150" width="6" height="6" transform="rotate(0,189,153)"/><rect x="192" y="150" width="6" height="6" transform="rotate(0,195,153)"/><rect x="204" y="150" width="6" height="6" transform="rotate(0,207,153)"/><rect x="12" y="156" width="6" height="6" transform="rotate(0,15,159)"/><rect x="24" y="156" width="6" height="6" transform="rotate(0,27,159)"/><rect x="36" y="156" width="6" height="6" transform="rotate(0,39,159)"/><rect x="42" y="156" width="6" height="6" transform="rotate(0,45,159)"/><rect x="48" y="156" width="6" height="6" transform="rotate(0,51,159)"/><rect x="60" y="156" width="6" height="6" transform="rotate(0,63,159)"/><rect x="72" y="156" width="6" height="6" transform="rotate(0,75,159)"/><rect x="78" y="156" width="6" height="6" transform="rotate(0,81,159)"/><rect x="102" y="156" width="6" height="6" transform="rotate(0,105,159)"/><rect x="108" y="156" width="6" height="6" transform="rotate(0,111,159)"/><rect x="120" y="156" width="6" height="6" transform="rotate(0,123,159)"/><rect x="144" y="156" width="6" height="6" transform="rotate(0,147,159)"/><rect x="150" y="156" width="6" height="6" transform="rotate(0,153,159)"/><rect x="156" y="156" width="6" height="6" transform="rotate(0,159,159)"/><rect x="162" y="156" width="6" height="6" transform="rotate(0,165,159)"/><rect x="168" y="156" width="6" height="6" transform="rotate(0,171,159)"/><rect x="174" y="156" width="6" height="6" transform="rotate(0,177,159)"/><rect x="180" y="156" width="6" height="6" transform="rotate(0,183,159)"/><rect x="198" y="156" width="6" height="6" transform="rotate(0,201,159)"/><rect x="60" y="162" width="6" height="6" transform="rotate(0,63,165)"/><rect x="66" y="162" width="6" height="6" transform="rotate(0,69,165)"/><rect x="90" y="162" width="6" height="6" transform="rotate(0,93,165)"/><rect x="102" y="162" width="6" height="6" transform="rotate(0,105,165)"/><rect x="120" y="162" width="6" height="6" transform="rotate(0,123,165)"/><rect x="126" y="162" width="6" height="6" transform="rotate(0,129,165)"/><rect x="132" y="162" width="6" height="6" transform="rotate(0,135,165)"/><rect x="138" y="162" width="6" height="6" transform="rotate(0,141,165)"/><rect x="156" y="162" width="6" height="6" transform="rotate(0,159,165)"/><rect x="180" y="162" width="6" height="6" transform="rotate(0,183,165)"/><rect x="192" y="162" width="6" height="6" transform="rotate(0,195,165)"/><rect x="204" y="162" width="6" height="6" transform="rotate(0,207,165)"/><rect x="60" y="168" width="6" height="6" transform="rotate(0,63,171)"/><rect x="72" y="168" width="6" height="6" transform="rotate(0,75,171)"/><rect x="96" y="168" width="6" height="6" transform="rotate(0,99,171)"/><rect x="102" y="168" width="6" height="6" transform="rotate(0,105,171)"/><rect x="108" y="168" width="6" height="6" transform="rotate(0,111,171)"/><rect x="114" y="168" width="6" height="6" transform="rotate(0,117,171)"/><rect x="120" y="168" width="6" height="6" transform="rotate(0,123,171)"/><rect x="132" y="168" width="6" height="6" transform="rotate(0,135,171)"/><rect x="138" y="168" width="6" height="6" transform="rotate(0,141,171)"/><rect x="150" y="168" width="6" height="6" transform="rotate(0,153,171)"/><rect x="156" y="168" width="6" height="6" transform="rotate(0,159,171)"/><rect x="168" y="168" width="6" height="6" transform="rotate(0,171,171)"/><rect x="180" y="168" width="6" height="6" transform="rotate(0,183,171)"/><rect x="192" y="168" width="6" height="6" transform="rotate(0,195,171)"/><rect x="60" y="174" width="6" height="6" transform="rotate(0,63,177)"/><rect x="72" y="174" width="6" height="6" transform="rotate(0,75,177)"/><rect x="84" y="174" width="6" height="6" transform="rotate(0,87,177)"/><rect x="90" y="174" width="6" height="6" transform="rotate(0,93,177)"/><rect x="102" y="174" width="6" height="6" transform="rotate(0,105,177)"/><rect x="114" y="174" width="6" height="6" transform="rotate(0,117,177)"/><rect x="126" y="174" width="6" height="6" transform="rotate(0,129,177)"/><rect x="132" y="174" width="6" height="6" transform="rotate(0,135,177)"/><rect x="138" y="174" width="6" height="6" transform="rotate(0,141,177)"/><rect x="144" y="174" width="6" height="6" transform="rotate(0,147,177)"/><rect x="150" y="174" width="6" height="6" transform="rotate(0,153,177)"/><rect x="156" y="174" width="6" height="6" transform="rotate(0,159,177)"/><rect x="180" y="174" width="6" height="6" transform="rotate(0,183,177)"/><rect x="186" y="174" width="6" height="6" transform="rotate(0,189,177)"/><rect x="192" y="174" width="6" height="6" transform="rotate(0,195,177)"/><rect x="204" y="174" width="6" height="6" transform="rotate(0,207,177)"/><rect x="60" y="180" width="6" height="6" transform="rotate(0,63,183)"/><rect x="72" y="180" width="6" height="6" transform="rotate(0,75,183)"/><rect x="78" y="180" width="6" height="6" transform="rotate(0,81,183)"/><rect x="84" y="180" width="6" height="6" transform="rotate(0,87,183)"/><rect x="90" y="180" width="6" height="6" transform="rotate(0,93,183)"/><rect x="120" y="180" width="6" height="6" transform="rotate(0,123,183)"/><rect x="126" y="180" width="6" height="6" transform="rotate(0,129,183)"/><rect x="138" y="180" width="6" height="6" transform="rotate(0,141,183)"/><rect x="156" y="180" width="6" height="6" transform="rotate(0,159,183)"/><rect x="162" y="180" width="6" height="6" transform="rotate(0,165,183)"/><rect x="168" y="180" width="6" height="6" transform="rotate(0,171,183)"/><rect x="174" y="180" width="6" height="6" transform="rotate(0,177,183)"/><rect x="180" y="180" width="6" height="6" transform="rotate(0,183,183)"/><rect x="186" y="180" width="6" height="6" transform="rotate(0,189,183)"/><rect x="198" y="180" width="6" height="6" transform="rotate(0,201,183)"/><rect x="204" y="180" width="6" height="6" transform="rotate(0,207,183)"/><rect x="60" y="186" width="6" height="6" transform="rotate(0,63,189)"/><rect x="66" y="186" width="6" height="6" transform="rotate(0,69,189)"/><rect x="78" y="186" width="6" height="6" transform="rotate(0,81,189)"/><rect x="84" y="186" width="6" height="6" transform="rotate(0,87,189)"/><rect x="90" y="186" width="6" height="6" transform="rotate(0,93,189)"/><rect x="96" y="186" width="6" height="6" transform="rotate(0,99,189)"/><rect x="102" y="186" width="6" height="6" transform="rotate(0,105,189)"/><rect x="114" y="186" width="6" height="6" transform="rotate(0,117,189)"/><rect x="132" y="186" width="6" height="6" transform="rotate(0,135,189)"/><rect x="144" y="186" width="6" height="6" transform="rotate(0,147,189)"/><rect x="150" y="186" width="6" height="6" transform="rotate(0,153,189)"/><rect x="162" y="186" width="6" height="6" transform="rotate(0,165,189)"/><rect x="180" y="186" width="6" height="6" transform="rotate(0,183,189)"/><rect x="186" y="186" width="6" height="6" transform="rotate(0,189,189)"/><rect x="192" y="186" width="6" height="6" transform="rotate(0,195,189)"/><rect x="204" y="186" width="6" height="6" transform="rotate(0,207,189)"/><rect x="60" y="192" width="6" height="6" transform="rotate(0,63,195)"/><rect x="84" y="192" width="6" height="6" transform="rotate(0,87,195)"/><rect x="108" y="192" width="6" height="6" transform="rotate(0,111,195)"/><rect x="114" y="192" width="6" height="6" transform="rotate(0,117,195)"/><rect x="126" y="192" width="6" height="6" transform="rotate(0,129,195)"/><rect x="138" y="192" width="6" height="6" transform="rotate(0,141,195)"/><rect x="144" y="192" width="6" height="6" transform="rotate(0,147,195)"/><rect x="150" y="192" width="6" height="6" transform="rotate(0,153,195)"/><rect x="156" y="192" width="6" height="6" transform="rotate(0,159,195)"/><rect x="162" y="192" width="6" height="6" transform="rotate(0,165,195)"/><rect x="168" y="192" width="6" height="6" transform="rotate(0,171,195)"/><rect x="174" y="192" width="6" height="6" transform="rotate(0,177,195)"/><rect x="186" y="192" width="6" height="6" transform="rotate(0,189,195)"/><rect x="192" y="192" width="6" height="6" transform="rotate(0,195,195)"/><rect x="60" y="198" width="6" height="6" transform="rotate(0,63,201)"/><rect x="78" y="198" width="6" height="6" transform="rotate(0,81,201)"/><rect x="84" y="198" width="6" height="6" transform="rotate(0,87,201)"/><rect x="108" y="198" width="6" height="6" transform="rotate(0,111,201)"/><rect x="126" y="198" width="6" height="6" transform="rotate(0,129,201)"/><rect x="132" y="198" width="6" height="6" transform="rotate(0,135,201)"/><rect x="138" y="198" width="6" height="6" transform="rotate(0,141,201)"/><rect x="144" y="198" width="6" height="6" transform="rotate(0,147,201)"/><rect x="180" y="198" width="6" height="6" transform="rotate(0,183,201)"/><rect x="186" y="198" width="6" height="6" transform="rotate(0,189,201)"/><rect x="192" y="198" width="6" height="6" transform="rotate(0,195,201)"/><rect x="96" y="204" width="6" height="6" transform="rotate(0,99,207)"/><rect x="102" y="204" width="6" height="6" transform="rotate(0,105,207)"/><rect x="108" y="204" width="6" height="6" transform="rotate(0,111,207)"/><rect x="114" y="204" width="6" height="6" transform="rotate(0,117,207)"/><rect x="120" y="204" width="6" height="6" transform="rotate(0,123,207)"/><rect x="126" y="204" width="6" height="6" transform="rotate(0,129,207)"/><rect x="156" y="204" width="6" height="6" transform="rotate(0,159,207)"/><rect x="162" y="204" width="6" height="6" transform="rotate(0,165,207)"/><rect x="174" y="204" width="6" height="6" transform="rotate(0,177,207)"/><rect x="186" y="204" width="6" height="6" transform="rotate(0,189,207)"/><rect x="198" y="204" width="6" height="6" transform="rotate(0,201,207)"/></g></svg>