<svg width="147" height="180" fill="none" xmlns="http://www.w3.org/2000/svg"><g clip-path="url(#a)"><path d="M144.626 98.85s-13.332 3.842-39.119 19.648c-23.119 14.195-32.185 23.731-32.185 23.731L2 93.064s30.005-22.01 55.077-5.152l33.631 23.012 4.103-2.692L2.014 43.385s13.337-3.847 39.11-19.644C64.257 9.54 73.322 0 73.322 0l71.318 49.166s-30.001 22.009-55.076 5.152L55.932 31.3l-4.102 2.686 92.796 64.862Z" fill="#E20A17"/><path d="M94.598 180.574c9.883 0 12.414-2.518 12.414-8.07V158.44H99.18v13.224c0 2.221-1.907 3.544-4.582 3.544-2.788 0-4.587-1.33-4.587-3.579V158.44h-7.828v14.064c0 5.552 2.531 8.07 12.415 8.07ZM136.69 158.44h-10.742l-8.692 7.448v-7.448h-8.167v21.582h8.167v-7.655l8.073 7.655h10.969l-11.939-11.073 12.331-10.509ZM146.098 158.441h-8.164v21.581h8.164v-21.581ZM80.25 158.44H55.539v5.482h11.937l-12.357 11.507v4.593h25.087v-5.504H67.722l12.529-11.478v-4.6ZM40.987 180.574c9.884 0 12.415-2.518 12.415-8.07V158.44h-7.83v13.224c0 2.221-1.905 3.544-4.585 3.544-2.787 0-4.58-1.33-4.58-3.579V158.44h-7.83v14.064c0 5.552 2.532 8.07 12.41 8.07ZM9.279 164.403c0-1.668 2.479-1.723 3.315-1.723.838 0 2.728.335 4.013 2.438h9.233c0-4.067-3.864-7.301-13.218-7.301-10.389 0-12.158 4.547-12.158 7.159 0 4.815 3.74 6.226 11.871 7.091.697.072 4.927-.127 4.927 1.902 0 1.503-2.378 1.603-3.254 1.603-.869 0-2.496-.142-3.84-2.529H0c0 4.739 3.203 7.478 13.993 7.478 9.938 0 12.576-4.047 12.576-7.124 0-2.988-2.056-6.028-10.529-7.109-3.534-.456-6.761-.648-6.761-1.885Z" fill="#039"/></g><defs><clipPath id="a"><path fill="#fff" d="M0 0h147v180H0z"/></clipPath></defs></svg>