<svg width="29" height="48" xmlns="http://www.w3.org/2000/svg"><path fill-rule="evenodd" clip-rule="evenodd" d="M28.364 4.364A4.364 4.364 0 0 0 24 0H4.364A4.364 4.364 0 0 0 0 4.364v39.272A4.364 4.364 0 0 0 4.364 48H24a4.364 4.364 0 0 0 4.364-4.364V4.364ZM7.09 3.273A3.818 3.818 0 0 0 3.273 7.09v6.545a3.818 3.818 0 1 0 7.636 0V7.091a3.818 3.818 0 0 0-3.818-3.818Zm2.182 4.363a2.182 2.182 0 1 1-4.364 0 2.182 2.182 0 0 1 4.364 0ZM7.09 15.273a1.636 1.636 0 1 0 0-3.273 1.636 1.636 0 0 0 0 3.273Z"/></svg>